<svg xmlns="http://www.w3.org/2000/svg" width="129.347" height="133" viewBox="0 0 129.347 133">
    <path data-name="Path 7244" d="M58.768 95.293a2.078 2.078 0 0 1 2.078-2.078h27.143a2.078 2.078 0 1 1 0 4.156H60.846a2.078 2.078 0 0 1-2.078-2.078zm2.078-52.567h27.143a2.078 2.078 0 1 0 0-4.156H60.846a2.078 2.078 0 1 0 0 4.156zm0 66.2h27.143a2.078 2.078 0 1 0 0-4.156H60.846a2.078 2.078 0 1 0 0 4.156zM33.96 36.261h9.74a5.3 5.3 0 0 1 5 3.574l3.239-2.94a2.078 2.078 0 1 1 2.793 3.078l-5.741 5.21v6.112a5.3 5.3 0 0 1-5.291 5.293h-9.741a5.3 5.3 0 0 1-5.293-5.293v-9.741a5.3 5.3 0 0 1 5.293-5.293zm9.74 4.156h-9.74a1.152 1.152 0 0 0-1.136 1.136v9.741a1.152 1.152 0 0 0 1.136 1.136h9.74a1.152 1.152 0 0 0 1.136-1.136v-2.34L43.247 50.4a2.078 2.078 0 0 1-2.866-.069l-4.73-4.73a2.078 2.078 0 1 1 2.939-2.941l3.33 3.33 2.918-2.648v-1.789a1.152 1.152 0 0 0-1.138-1.136zM54.876 64.36a2.078 2.078 0 0 1-.142 2.935l-5.741 5.21v6.112A5.3 5.3 0 0 1 43.7 83.91h-9.74a5.3 5.3 0 0 1-5.293-5.292v-9.742a5.3 5.3 0 0 1 5.293-5.293h9.74a5.3 5.3 0 0 1 5 3.574l3.239-2.94a2.077 2.077 0 0 1 2.936.142zM44.837 76.277l-1.591 1.444a2.078 2.078 0 0 1-2.866-.069l-4.73-4.73a2.078 2.078 0 1 1 2.939-2.939l3.33 3.33 2.918-2.648v-1.789a1.152 1.152 0 0 0-1.137-1.137h-9.741a1.152 1.152 0 0 0-1.136 1.136v9.741a1.151 1.151 0 0 0 1.136 1.136H43.7a1.152 1.152 0 0 0 1.136-1.136v-2.34zm10.039 15.406a2.078 2.078 0 0 1-.142 2.935l-5.741 5.21v6.112a5.3 5.3 0 0 1-5.293 5.293h-9.74a5.3 5.3 0 0 1-5.293-5.293V96.2a5.3 5.3 0 0 1 5.293-5.292h9.74a5.3 5.3 0 0 1 5 3.574l3.239-2.94a2.078 2.078 0 0 1 2.936.142zM44.837 103.6l-1.591 1.444a2.078 2.078 0 0 1-2.866-.069l-4.73-4.73a2.078 2.078 0 1 1 2.939-2.939l3.33 3.33 2.918-2.648V96.2a1.151 1.151 0 0 0-1.137-1.138h-9.741a1.152 1.152 0 0 0-1.136 1.138v9.741a1.152 1.152 0 0 0 1.136 1.136H43.7a1.152 1.152 0 0 0 1.136-1.136V103.6zm91.543-53.1v19.955a30.87 30.87 0 0 1-24.68 30.155v24.536a7.863 7.863 0 0 1-7.853 7.854H14.888a7.863 7.863 0 0 1-7.855-7.855V18.856A7.863 7.863 0 0 1 14.888 11h20.161V9.588a2.078 2.078 0 0 1 2.078-2.078H48.3a11.905 11.905 0 0 1 22.128 0h11.179a2.078 2.078 0 0 1 2.078 2.078V11h20.162a7.863 7.863 0 0 1 7.855 7.855v19.7l23.418 10.036a2.078 2.078 0 0 1 1.26 1.91zM83.685 15.158v3.88h17.9a2.078 2.078 0 0 1 2.078 2.078v19.1l3.88-1.663v-19.7a3.7 3.7 0 0 0-3.7-3.7H83.685zm-44.48 7.371h40.324V11.666H68.913a2.078 2.078 0 0 1-2.02-1.591 7.744 7.744 0 0 0-15.052 0 2.078 2.078 0 0 1-2.02 1.591H39.205v10.863zm-2.078 4.156a2.078 2.078 0 0 1-2.078-2.078v-1.414H19.225v97.615h80.284V97.77A30.961 30.961 0 0 1 84.98 81.6H60.846a2.078 2.078 0 1 1 0-4.156h22.839a30.456 30.456 0 0 1-.817-6.989v-.406H60.846a2.078 2.078 0 1 1 0-4.156h22.022V54.278H60.846a2.078 2.078 0 0 1 0-4.156h22.061a2.076 2.076 0 0 1 1.221-1.531L99.509 42V23.193H83.685v1.413a2.078 2.078 0 0 1-2.078 2.078h-44.48zm70.418 98.461V100.61a30.475 30.475 0 0 1-3.88-1.059v23.336a2.078 2.078 0 0 1-2.078 2.078h-84.44a2.078 2.078 0 0 1-2.078-2.078V21.115a2.078 2.078 0 0 1 2.078-2.078h17.9v-3.879H14.888a3.7 3.7 0 0 0-3.7 3.7v106.29a3.7 3.7 0 0 0 3.7 3.7h88.96a3.7 3.7 0 0 0 3.7-3.7zm24.678-73.274-22.6-9.685-22.6 9.685v18.583a26.674 26.674 0 0 0 1.269 8.145 2.053 2.053 0 0 1 .176.51 26.578 26.578 0 0 0 20.615 17.564l.541.094.541-.094a26.576 26.576 0 0 0 22.058-26.223v-18.58zm-21.781-4.652 16.217 6.95a2.079 2.079 0 0 1 1.26 1.91v14.375a22.4 22.4 0 0 1-17.881 21.866 2.1 2.1 0 0 1-.829 0 22.4 22.4 0 0 1-17.88-21.866V56.08a2.078 2.078 0 0 1 1.26-1.91l16.217-6.95a2.081 2.081 0 0 1 1.637 0zm-.819 4.171L95.485 57.45v13a18.225 18.225 0 0 0 14.139 17.7 18.225 18.225 0 0 0 14.139-17.7v-13zm-6.639 17.025a2.078 2.078 0 0 0-2.939 2.939l4.73 4.73a2.078 2.078 0 0 0 2.866.069l11.488-10.425a2.078 2.078 0 0 0-2.793-3.078l-10.022 9.095zM59.367 7.531a2.6 2.6 0 1 0 2.6 2.6 2.6 2.6 0 0 0-2.6-2.6z" transform="translate(-7.033)" style="fill:#130e5f;fill-rule:evenodd"/>
</svg>
