<svg xmlns="http://www.w3.org/2000/svg" width="116.826" height="128.002" viewBox="0 0 116.826 128.002">
    <g data-name="&lt;Group&gt;">
        <g data-name="&lt;Group&gt;">
            <path data-name="&lt;Compound Path&gt;" d="M110.439 28.558v-3.845a11.72 11.72 0 1 0-23.439 0v3.845a11.72 11.72 0 1 0 23.439 0zm-19.226 0v-3.845a7.537 7.537 0 0 1 7.532-7.5h-.012a7.5 7.5 0 0 1 7.492 7.5v3.845a7.506 7.506 0 1 1-15.012 0z" transform="translate(-73.15 -12.993)" style="fill:#28236d"/>
            <path data-name="&lt;Compound Path&gt;" d="M36.676 164.784A7.269 7.269 0 0 0 41.851 167l.082-.053a7.249 7.249 0 0 0 3.555-1.008L46.8 210.01a7.848 7.848 0 0 0 13.6 5.052 7.85 7.85 0 0 0 13.6-5.078l1.3-44.007a7.147 7.147 0 0 0 3.526.927 7.374 7.374 0 0 0 7.356-7.414v-29.439a11.882 11.882 0 0 0-10.762-13.083 11 11 0 0 0-1.161 0H69.2a2.054 2.054 0 0 0-1.442.514l-7.358 6.872-7.072-6.837a2.067 2.067 0 0 0-1.469-.553h-5.374A12.006 12.006 0 0 0 34.453 129c0 .369-.151.685.112 1.052V159.5a7.419 7.419 0 0 0 2.111 5.284zm29.458 48.572a3.654 3.654 0 0 1-3.652-3.641v-43.421a2.107 2.107 0 0 0-4.214 0v43.421a3.632 3.632 0 1 1-7.263.125l-1.5-50.738H71.29l-1.512 50.724a3.65 3.65 0 0 1-3.644 3.529zm-19.647-92.179H51l7.9 7.629c.013.013.028 0 .041.008.029.026.058.039.088.063s.05.032.075.053.063.042.095.064.053.033.079.049.065.037.1.055l.086.043.1.044.091.035.1.034.094.026c.032.008.068.017.1.023l.1.017.105.014.095.008h.2c.037 0 .074 0 .111-.007l.09-.01c.037 0 .075-.011.112-.018l.087-.018.11-.028.087-.026c.036-.012.071-.025.105-.039l.087-.037a2.275 2.275 0 0 0 .278-.152l.085-.058a1.619 1.619 0 0 0 .167-.133c.027-.023.032.031.047.017l8.22-7.657h4.226a7.925 7.925 0 0 1 .794-.017 7.733 7.733 0 0 1 6.987 8.59c-.007.071-.068.127-.068.2v29.54a3.16 3.16 0 1 1-6.321 0v-6.43l.031-1.026c0-.146-.031-.29-.031-.427v-11.888a2.107 2.107 0 0 0-4.214 0V153l-.022 1.892H49.38l-.063-3v-12.167a2.107 2.107 0 0 0-4.214 0v19.626a3.41 3.41 0 0 1-3.216 3.445h-.032a3.086 3.086 0 0 1-2.2-.986 3.237 3.237 0 0 1-.875-2.309v-29.552c0-.071-.065-.142-.072-.212a6.825 6.825 0 0 1-.071-.737 7.814 7.814 0 0 1 7.85-7.822z" transform="translate(-34.41 -89.572)" style="fill:#28236d"/>
        </g>
        <g data-name="&lt;Group&gt;">
            <path data-name="&lt;Compound Path&gt;" d="M294.443 253.99a8.15 8.15 0 0 0 8.238-8.048v-16.624a2.259 2.259 0 0 0-2.2-2.191h-8.071v-11.936a8.126 8.126 0 0 0-8.18-8.08h-2.117A8.268 8.268 0 0 0 274.05 200h-5.46a8.268 8.268 0 0 0-8.063 7.111h-2.117a8.091 8.091 0 0 0-8.138 8.08v11.935h-8.116a2.222 2.222 0 0 0-2.156 2.192v16.624a8.115 8.115 0 0 0 8.2 8.048h2.074v1.844h-2.513a2.127 2.127 0 0 0-2.227 2v13.521a2.225 2.225 0 0 0 2.227 2.121h47.124a2.035 2.035 0 0 0 2.005-2.121v-13.52a1.935 1.935 0 0 0-2.005-2h-2.475v-1.845zm4.024-22.649v14.6a3.932 3.932 0 0 1-4.024 3.834h-2.033V231.34zm-37.4.263h20.542v15.8h-20.54zm3.687-4.214v-16.065h13.168v16.065zm3.834-23.176h5.46a4.088 4.088 0 0 1 3.757 2.9h-12.972a4.088 4.088 0 0 1 3.757-2.9zM248.2 249.776a3.9 3.9 0 0 1-3.983-3.834v-14.6h6.057v18.436zm1.547 10.271h5v9.218h-5zm35.554 0v9.218h-26.339v-9.218zm7.374 9.218h-3.16v-9.218h3.16zm-38.188-13.432v-40.642a3.871 3.871 0 0 1 3.924-3.866h2.133v16.065h-1.58a2.064 2.064 0 0 0-2.107 2.056v20.1a2.075 2.075 0 0 0 2.107 2.069h24.714a2.111 2.111 0 0 0 2.149-2.069v-20.1a2.1 2.1 0 0 0-2.149-2.056h-1.539v-16.065h2.092a3.908 3.908 0 0 1 3.966 3.866v40.642z" transform="translate(-185.855 -150.749)" style="fill:#28236d"/>
            <path data-name="&lt;Path&gt;" d="M348.847 336h-4.741a2.107 2.107 0 1 0 0 4.214h4.741a2.107 2.107 0 1 0 0-4.214z" transform="translate(-260.992 -250.931)" style="fill:#28236d"/>
        </g>
    </g>
</svg>
