<svg xmlns="http://www.w3.org/2000/svg" width="127.31" height="128.002" viewBox="0 0 127.31 128.002">
    <g data-name="Group 359">
        <path data-name="Path 7249" d="M45.791 30.838a15.219 15.219 0 1 0 0-30.438c-8.424 0-14.947 7.066-14.947 15.491a14.9 14.9 0 0 0 14.947 14.947zm0-24.731a9.784 9.784 0 1 1-9.784 9.784 10.105 10.105 0 0 1 9.784-9.784zM3.124 72.146a9.99 9.99 0 0 0 7.338 3.533 10.173 10.173 0 0 0 7.609-2.718l8.7-7.609v5.435L10.19 85.191a10.335 10.335 0 0 0-3.533 8.153V117.8a10.612 10.612 0 0 0 10.6 10.6 10.792 10.792 0 0 0 10.6-10.6V98.5l14.4-9.784c2.174 6.251 7.066 21.741 10.327 32.068a10.523 10.523 0 0 0 10.329 7.616 9.77 9.77 0 0 0 2.989-.544 10.71 10.71 0 0 0 7.066-13.317L62.1 78.4V67.255l7.338 5.164a9.783 9.783 0 0 0 5.979 1.9l8.425 11.958L80.034 89l24.459 34.514 2.446-1.9 1.9 2.446 4.348-3.261-.815-1.9 6.522-4.62 1.9 2.446 4.348-3.261-1.9-2.446 2.446-1.9-24.456-34.526L89 83.289l-7.335-10.327a11.585 11.585 0 0 0 3.261-2.989 10.858 10.858 0 0 0-2.718-14.947L62.369 41.165a10.6 10.6 0 0 0-10.6-9.24H37.638a10.675 10.675 0 0 0-7.609 2.446L3.939 57.2a10.937 10.937 0 0 0-.815 14.947zm115.229 35.873-11.686 8.153-18.208-25.817 11.686-8.155zm-50.005 8.153a5.431 5.431 0 0 1-.544 4.076 4.407 4.407 0 0 1-2.989 2.446 5.323 5.323 0 0 1-6.522-3.533c-6.251-20.382-9.24-29.351-10.871-33.427l10.055-6.522 10.871 36.96zm12.229-49.19a5.5 5.5 0 0 1-7.338 1.359L62.641 61V48.231l16.578 11.686a4.887 4.887 0 0 1 1.359 7.066zM7.744 61.276l26.09-22.828a4.676 4.676 0 0 1 3.533-1.087h14.675a5.16 5.16 0 0 1 5.164 5.164v29.893L24.05 94.7l-1.087.815v22.013a5.16 5.16 0 0 1-5.164 5.164 5.345 5.345 0 0 1-5.164-5.164V93.072A4.89 4.89 0 0 1 14.538 89l18.48-16.034V60.189l8.968-7.881-3.533-4.076-5.435 4.62-5.435 4.892-12.229 10.869a6.493 6.493 0 0 1-3.8 1.359 5.71 5.71 0 0 1-3.8-1.9c-2.446-1.631-2.174-4.892 0-6.794z" transform="translate(-.554 -.4)" style="fill:#28236d"/>
        <path data-name="Path 7250" d="m49.233 91.86 4.441-3.136 8.938 12.651-4.441 3.136zm8.305-79.674V5.935h3.533V.5H48.57v5.435h3.53v6.251a16.218 16.218 0 0 0-10.327 5.979l-5.433-2.99 1.631-2.989-4.62-2.718L27.1 20.339l4.62 2.718 1.631-2.989 5.435 2.989a14.625 14.625 0 0 0-1.086 5.978 14.625 14.625 0 0 0 1.087 5.979L33.351 38l-1.087-3.533-4.62 2.718 6.251 10.871 4.62-2.718-1.631-2.989 5.435-2.989a18.088 18.088 0 0 0 10.327 5.979v6.251h-3.533v5.435h12.5v-5.433h-3.532v-6.251a16.218 16.218 0 0 0 10.327-5.979l5.435 2.989-2.443 2.99 4.62 2.718 6.251-10.871-4.62-2.718-1.633 2.99-5.435-2.989a14.625 14.625 0 0 0 1.087-5.979 14.625 14.625 0 0 0-1.087-5.979l5.435-2.989 1.631 2.989 4.62-2.718-6.251-10.87-4.618 2.717 1.631 2.989-5.435 2.989a15.962 15.962 0 0 0-10.055-5.435zm-2.718 27.72a11.414 11.414 0 1 1 11.414-11.414A11.483 11.483 0 0 1 54.82 39.906z" transform="translate(45.042 -.228)" style="fill:#28236d"/>
    </g>
</svg>
