<svg xmlns="http://www.w3.org/2000/svg" width="128.002" height="128.002" viewBox="0 0 128.002 128.002">
    <g data-name="Group 361">
        <path data-name="Path 7254" d="M20.267 88a2.14 2.14 0 0 0 2.133-2.132 57.7 57.7 0 0 1 52.188-57.361l-4.64 4.64a2.131 2.131 0 0 0 3.013 3.013l8.533-8.533a2.088 2.088 0 0 0 .453-2.32A2.122 2.122 0 0 0 79.974 24a61.941 61.941 0 0 0-61.841 61.868A2.14 2.14 0 0 0 20.267 88zm119.468-4.267a2.14 2.14 0 0 0-2.133 2.133 57.7 57.7 0 0 1-52.214 57.361l4.64-4.64a2.131 2.131 0 1 0-3.013-3.013l-8.533 8.533a2.088 2.088 0 0 0-.453 2.32A2.15 2.15 0 0 0 80 147.735a61.946 61.946 0 0 0 61.868-61.868 2.14 2.14 0 0 0-2.133-2.133zM39.467 133.362c1.2-2.72 2.133-5.36 2.133-6.96a8.533 8.533 0 1 0-17.067 0c0 1.6.96 4.267 2.133 6.96C20.107 134.588 16 137.575 16 141.335c0 5.6 8.587 8.533 17.067 8.533s17.067-2.933 17.067-8.533c0-3.76-4.107-6.747-10.667-7.973zm-6.4-11.227a4.279 4.279 0 0 1 4.267 4.267c0 1.147-1.253 4.213-2.88 7.653 0 .027-.027.027-.027.053q-.64 1.36-1.36 2.72c-.48-.907-.933-1.84-1.36-2.747a.026.026 0 0 0-.027-.027c-1.627-3.413-2.88-6.507-2.88-7.653a4.279 4.279 0 0 1 4.267-4.266zm0 23.467c-7.947 0-12.8-2.773-12.8-4.267 0-1.2 2.96-3.147 8.293-3.92 1.147 2.293 2.213 4.213 2.64 4.987a2.14 2.14 0 0 0 3.733 0c.427-.747 1.493-2.667 2.64-4.987 5.333.773 8.293 2.747 8.293 3.92.001 1.493-4.852 4.265-12.799 4.265z" transform="translate(-16 -21.867)" style="fill:#28236d"/>
        <path data-name="Path 7255" d="M174.4 31.494c1.2-2.72 2.133-5.36 2.133-6.96a8.533 8.533 0 1 0-17.067 0c0 1.6.96 4.267 2.133 6.96-6.56 1.227-10.667 4.213-10.667 7.973a5.269 5.269 0 0 0 .373 1.947A48.973 48.973 0 0 0 86.24 45.44a2.417 2.417 0 0 0-.293.427.1.1 0 0 0-.08-.027 49.068 49.068 0 1 0 70.348-.053A29.594 29.594 0 0 0 168 48c8.48 0 17.067-2.933 17.067-8.533.001-3.76-4.105-6.747-10.667-7.973zM168 20.267a4.279 4.279 0 0 1 4.267 4.267c0 1.147-1.253 4.213-2.88 7.653 0 .027-.027.053-.027.08-.427.88-.88 1.813-1.36 2.72-.48-.907-.933-1.84-1.36-2.72 0-.027-.027-.027-.027-.053-1.627-3.467-2.88-6.533-2.88-7.68A4.279 4.279 0 0 1 168 20.267zm-16.747 26.64a44.613 44.613 0 0 1-8.693 6.24c-2.32-6.88-5.413-12.4-9.04-16.187a44.068 44.068 0 0 1 17.735 9.947zm-47.813 58.028a44.336 44.336 0 0 1 15.494-3.547v23.147a12.411 12.411 0 0 1-3.253-1.307h-.107c-4.853-2.828-9.2-9.28-12.134-18.293zm-1.2-45.735a48.385 48.385 0 0 0 16.694 3.707v14.96h-19.12v-.213h-.054a83.09 83.09 0 0 1 2.48-18.454zm37.6-.027a82.182 82.182 0 0 1 2.48 18.694H123.2V62.881a48.228 48.228 0 0 0 16.641-3.707zM102.294 100.8a83.461 83.461 0 0 1-2.48-18.667h19.12v14.988a48.062 48.062 0 0 0-16.64 3.679zM123.2 82.134h19.12a85.032 85.032 0 0 1-2.48 18.667 48.2 48.2 0 0 0-16.64-3.68V82.134zm15.494-27.067a44.067 44.067 0 0 1-15.494 3.547V35.467c.08.027.133.027.213.053a.16.16 0 0 0 .107.027c6.054 1.52 11.628 8.693 15.174 19.52zm-19.76-19.6v23.147a44.2 44.2 0 0 1-15.494-3.547c3.601-11.04 9.334-18.24 15.494-19.6zm-10.32 1.467c-3.627 3.813-6.72 9.307-9.04 16.24a45.613 45.613 0 0 1-8.72-6.24 44.282 44.282 0 0 1 17.76-10zM87.84 49.974c.08.08.16.133.24.213l.027-.027a48.947 48.947 0 0 0 10.267 7.173 88.1 88.1 0 0 0-2.827 20.294h-.053v.24H76.32a44.285 44.285 0 0 1 11.52-27.893zm7.653 32.16a87.323 87.323 0 0 0 2.827 20.534 49.585 49.585 0 0 0-10.48 7.387 44.416 44.416 0 0 1-11.52-27.92zm-4.613 30.96a45.43 45.43 0 0 1 8.693-6.24c2.267 6.773 5.333 12.214 8.88 16 .053.053.107.133.16.187a44.068 44.068 0 0 1-17.733-9.946zm32.32 11.44v-23.146a44.09 44.09 0 0 1 15.467 3.573c-3.573 11.014-9.306 18.214-15.467 19.574zm19.36-17.68a44.613 44.613 0 0 1 8.693 6.24 44.624 44.624 0 0 1-17.734 9.973c3.629-3.812 6.722-9.306 9.042-16.212zm11.734 3.173a49.586 49.586 0 0 0-10.48-7.387 87.129 87.129 0 0 0 2.827-20.534h19.174a44.3 44.3 0 0 1-11.52 27.922zm-7.653-32.16a87.323 87.323 0 0 0-2.827-20.534 49.586 49.586 0 0 0 10.48-7.387 44.491 44.491 0 0 1 11.52 27.894h-19.173zM168 43.734c-7.947 0-12.8-2.773-12.8-4.267 0-1.2 2.96-3.147 8.293-3.92 1.147 2.293 2.213 4.213 2.64 4.987a2.14 2.14 0 0 0 3.733 0c.427-.747 1.493-2.667 2.64-4.987 5.333.773 8.293 2.747 8.293 3.92.001 1.493-4.851 4.267-12.799 4.267z" transform="translate(-57.066 -16)" style="fill:#28236d"/>
    </g>
</svg>
