<svg xmlns="http://www.w3.org/2000/svg" width="126.816" height="119.5" viewBox="0 0 126.816 119.5">
    <g data-name="Group 370">
        <g data-name="Group 363">
            <path data-name="Path 7262" d="M20.541 29.083A9.541 9.541 0 1 0 11 19.541a9.541 9.541 0 0 0 9.541 9.542zm0-4.771a4.771 4.771 0 1 0-4.771-4.771 4.771 4.771 0 0 0 4.771 4.771z" transform="translate(42.927 42.71)" style="fill-rule:evenodd;fill:#28236d"/>
            <path data-name="Path 7263" d="M26.163 26.73 12.569 21l13.594 5.734zm0 0 .41.173-.41-.62z" transform="translate(45.101 57.949)" style="fill:#28236d"/>
            <path data-name="Path 7264" d="M15.113 33.828a10.9 10.9 0 0 1 6.556-2.36h11.919a11.049 11.049 0 0 1 6.857 2.667 24.176 24.176 0 0 1 3.507 3.614c1.474 1.828 2.84 3.9 3.614 5.076l.016.025c.188.286.333.5.44.662a7.138 7.138 0 0 1 1.033 2.324 6.929 6.929 0 0 1 1.109-2.657c.236-.343.519-.769.85-1.267l.028-.042c.905-1.363 2.129-3.2 3.337-4.707a20.051 20.051 0 0 1 3.348-3.374 10.551 10.551 0 0 1 6.388-2.321h11.521a10.69 10.69 0 0 1 6.679 2.621A23.5 23.5 0 0 1 85.7 37.62c1.424 1.785 2.742 3.809 3.491 4.958l.009.015.007.01.014.021c.175.269.31.476.411.626a6.953 6.953 0 0 1-6.117 10.818 315.81 315.81 0 0 0 1.825 6.341 4.562 4.562 0 0 1-3.415 5.783c-8.613 1.8-14.7 1.744-23.959-.023a4.577 4.577 0 0 1-3.5-5.862c.491-1.581 1.163-3.8 1.852-6.245a6.953 6.953 0 0 1-7.175-5.262 7.156 7.156 0 0 1-9.011 5.606l.014.121 1.59 14.312a7.156 7.156 0 0 1-14.17 1.971l-.1-.584-.1.584A7.156 7.156 0 0 1 13.2 68.843l1.234-11.106.117-3.189a7.156 7.156 0 0 1-7.265-11.11c.235-.338.516-.754.843-1.241l.066-.1c.937-1.394 2.2-3.278 3.455-4.819a20.636 20.636 0 0 1 3.463-3.45zm6.556 2.41a6.162 6.162 0 0 0-3.678 1.394 15.956 15.956 0 0 0-2.641 2.657c-1.093 1.345-2.24 3.046-3.2 4.477l-.033.049c-.332.495-.648.964-.918 1.352a2.385 2.385 0 0 0 3.914 2.728l4.665-6.7-.583 15.9-1.253 11.275a2.385 2.385 0 0 0 4.724.655l2.37-14.225 2.447-.544 2.423.568 2.366 14.2A2.385 2.385 0 0 0 37 69.37l-1.59-14.312a2.422 2.422 0 0 0-.064-.345l-.078-.3v-12.44l.414.174 3.961 5.989c.176.266.338.51.489.733a2.385 2.385 0 1 0 3.948-2.679 45.7 45.7 0 0 1-.462-.7l-7.936-3.348v-.005l7.934 3.345-.008-.013c-.785-1.191-2.04-3.094-3.36-4.731a19.479 19.479 0 0 0-2.792-2.9 6.33 6.33 0 0 0-3.86-1.608zm38.843 1.187a6 6 0 0 1 3.6-1.378h11.524a6.163 6.163 0 0 1 3.782 1.588 19.009 19.009 0 0 1 2.706 2.84c1.277 1.6 2.491 3.462 3.25 4.627l.008.011c.172.264.329.5.452.688a2.373 2.373 0 0 1-3.934 2.656 2.29 2.29 0 0 0-4.115 1.843c1.089 4.332 2.385 8.789 3.17 11.417-7.93 1.654-13.4 1.617-22.111-.045v-.006c.831-2.675 2.184-7.187 3.282-11.6a2.29 2.29 0 0 0-4.113-1.844l-.173.252a2.373 2.373 0 0 1-3.907-2.693c.261-.379.565-.837.886-1.32l.011-.016c.933-1.4 2.051-3.084 3.118-4.41a15.546 15.546 0 0 1 2.564-2.609zm9.893-8.343a9.541 9.541 0 1 0-9.541-9.541 9.541 9.541 0 0 0 9.541 9.542zm0-4.771a4.771 4.771 0 1 0-4.771-4.771 4.771 4.771 0 0 0 4.771 4.772z" transform="translate(36 42.71)" style="fill-rule:evenodd;fill:#28236d"/>
            <path data-name="Path 7265" d="M31.6 41.778a3.578 3.578 0 0 1-3.1-3.546v-2.949c2.75.348 5.352.565 7.913.653l-.883 3.236a3.578 3.578 0 0 1-3.93 2.606zm11.335-2.605-.886-3.249c2.562-.1 5.165-.325 7.916-.674v2.982a3.578 3.578 0 0 1-7.03.941z" transform="translate(67.171 77.69)" style="fill:#28236d"/>
        </g>
        <g data-name="Group 364">
            <path data-name="Path 7266" d="M26.99 41.333h.276v.931a1.723 1.723 0 1 0 2.189 1.655 1.7 1.7 0 0 0-.191-.772l1.994-1.814h8.367l1.994 1.814a1.7 1.7 0 0 0-.191.772 1.726 1.726 0 1 0 2.189-1.655v-.931h.283a2.572 2.572 0 0 0 2.568-2.569v-24.4a2.572 2.572 0 0 0-2.568-2.572h-2.45v-.462a1.562 1.562 0 0 0-1.56-1.56h-.523V4.482h1.281V2.193A1.194 1.194 0 0 0 39.456 1h-8.027a1.194 1.194 0 0 0-1.193 1.193v2.289h1.282V9.77h-.523a1.562 1.562 0 0 0-1.56 1.56v.462H26.99a2.572 2.572 0 0 0-2.568 2.569v24.4a2.571 2.571 0 0 0 2.568 2.572zm.74 3.382a.8.8 0 1 1 .8-.8.8.8 0 0 1-.801.8zm.91-2.256a1.713 1.713 0 0 0-.443-.193v-.932h1.681zm15.312 1.46a.8.8 0 1 1-.8-.8.8.8 0 0 1 .799.8zm-1.263-1.654a1.713 1.713 0 0 0-.443.193l-1.238-1.126h1.681v.932zM31.166 2.193a.263.263 0 0 1 .263-.263h8.027a.263.263 0 0 1 .263.263v1.358H37.8l-.42-.857H33.5l-.42.857h-1.914zm1.282 2.289h1.217l.42-.857H36.8l.42.857h1.217V9.77h-5.99zm-2.084 6.848a.63.63 0 0 1 .63-.63h8.9a.63.63 0 0 1 .63.63v.462h-10.16zm-5.013 3.031a1.64 1.64 0 0 1 1.638-1.639H43.9a1.64 1.64 0 0 1 1.638 1.639v24.4A1.64 1.64 0 0 1 43.9 40.4H26.99a1.64 1.64 0 0 1-1.638-1.639z" transform="translate(-14.852 73.855)" style="fill:#28236d"/>
            <path data-name="Path 7267" d="M30.586 32.974h14.462a1.726 1.726 0 0 0 0-3.452H30.586a1.726 1.726 0 1 0 0 3.452zm0-2.522h14.462a.8.8 0 0 1 0 1.592H30.586a.8.8 0 1 1 0-1.592zm0 7.808h14.462a1.726 1.726 0 0 0 0-3.452H30.586a1.726 1.726 0 1 0 0 3.452zm0-2.522h14.462a.8.8 0 0 1 0 1.592H30.586a.8.8 0 1 1 0-1.592zm0 7.808h14.462a1.726 1.726 0 0 0 0-3.452H30.586a1.726 1.726 0 1 0 0 3.452zm0-2.522h14.462a.8.8 0 0 1 0 1.592H30.586a.8.8 0 1 1 0-1.592zm0 7.808h14.462a1.726 1.726 0 0 0 0-3.452H30.586a1.726 1.726 0 1 0 0 3.452zm0-2.522h14.462a.8.8 0 0 1 0 1.592H30.586a.8.8 0 1 1 0-1.592zm0 7.808h14.462a1.726 1.726 0 0 0 0-3.452H30.586a1.726 1.726 0 1 0 0 3.452zm0-2.522h14.462a.8.8 0 0 1 0 1.592H30.586a.8.8 0 1 1 0-1.592z" transform="translate(-17.226 58.597)" style="fill:#28236d"/>
            <path data-name="Rectangle 198" transform="translate(32.895 99.69)" style="fill:#28236d" d="M0 0h.93v.93H0z"/>
            <path data-name="Rectangle 199" transform="translate(32.895 94.109)" style="fill:#28236d" d="M0 0h.93v.93H0z"/>
            <path data-name="Rectangle 200" transform="translate(32.895 92.249)" style="fill:#28236d" d="M0 0h.93v.93H0z"/>
            <path data-name="Rectangle 201" transform="translate(32.895 95.969)" style="fill:#28236d" d="M0 0h.93v.93H0z"/>
            <path data-name="Rectangle 202" transform="translate(32.895 101.55)" style="fill:#28236d" d="M0 0h.93v.93H0z"/>
            <path data-name="Rectangle 203" transform="translate(32.895 105.27)" style="fill:#28236d" d="M0 0h.93v.793H0z"/>
            <path data-name="Rectangle 204" transform="translate(32.895 97.829)" style="fill:#28236d" d="M0 0h.93v.93H0z"/>
            <path data-name="Rectangle 205" transform="translate(32.895 103.41)" style="fill:#28236d" d="M0 0h.93v.93H0z"/>
            <path data-name="Rectangle 206" transform="translate(7.356 94.109)" style="fill:#28236d" d="M0 0h.93v.93H0z"/>
            <path data-name="Rectangle 207" transform="translate(7.356 92.249)" style="fill:#28236d" d="M0 0h.93v.93H0z"/>
            <path data-name="Rectangle 208" transform="translate(7.356 103.41)" style="fill:#28236d" d="M0 0h.93v.93H0z"/>
            <path data-name="Rectangle 209" transform="translate(7.356 101.55)" style="fill:#28236d" d="M0 0h.93v.93H0z"/>
            <path data-name="Rectangle 210" transform="translate(7.356 105.27)" style="fill:#28236d" d="M0 0h.93v.793H0z"/>
            <path data-name="Rectangle 211" transform="translate(7.356 99.69)" style="fill:#28236d" d="M0 0h.93v.93H0z"/>
            <path data-name="Rectangle 212" transform="translate(7.356 97.829)" style="fill:#28236d" d="M0 0h.93v.93H0z"/>
            <path data-name="Rectangle 213" transform="translate(7.356 95.969)" style="fill:#28236d" d="M0 0h.93v.93H0z"/>
            <path data-name="Rectangle 214" transform="translate(34.099 79.321)" style="fill:#28236d" d="M0 0h.93v.93H0z"/>
            <path data-name="Rectangle 215" transform="translate(35.96 79.321)" style="fill:#28236d" d="M0 0h.93v.93H0z"/>
            <path data-name="Rectangle 216" transform="translate(32.239 79.321)" style="fill:#28236d" d="M0 0h.93v.93H0z"/>
            <path data-name="Rectangle 217" transform="translate(36.805 112.687)" style="fill:#28236d" d="M0 0h.93v.93H0z"/>
            <path data-name="Rectangle 218" transform="translate(38.665 112.687)" style="fill:#28236d" d="M0 0h.93v.93H0z"/>
            <path data-name="Rectangle 219" transform="translate(34.945 112.687)" style="fill:#28236d" d="M0 0h.93v.93H0z"/>
            <path data-name="Rectangle 220" transform="translate(39.209 88.489)" style="fill:#28236d" d="M0 0h.93v.93H0z"/>
            <path data-name="Rectangle 221" transform="translate(41.07 88.489)" style="fill:#28236d" d="M0 0h.93v.93H0z"/>
            <path data-name="Rectangle 222" transform="translate(37.349 88.489)" style="fill:#28236d" d="M0 0h.93v.93H0z"/>
            <path data-name="Rectangle 223" transform="translate(1.86 97.131)" style="fill:#28236d" d="M0 0h.93v.93H0z"/>
            <path data-name="Rectangle 224" transform="translate(3.72 97.131)" style="fill:#28236d" d="M0 0h.93v.93H0z"/>
            <path data-name="Rectangle 225" transform="translate(0 97.131)" style="fill:#28236d" d="M0 0h.93v.93H0z"/>
            <path data-name="Rectangle 226" transform="translate(6.369 77.406)" style="fill:#28236d" d="M0 0h.93v.93H0z"/>
            <path data-name="Rectangle 227" transform="translate(4.509 77.406)" style="fill:#28236d" d="M0 0h.93v.93H0z"/>
            <path data-name="Rectangle 228" transform="translate(8.229 77.406)" style="fill:#28236d" d="M0 0h.93v.93H0z"/>
            <path data-name="Rectangle 229" transform="translate(6.125 112.687)" style="fill:#28236d" d="M0 0h.93v.93H0z"/>
            <path data-name="Rectangle 230" transform="translate(2.405 112.687)" style="fill:#28236d" d="M0 0h.93v.93H0z"/>
            <path data-name="Rectangle 231" transform="translate(4.265 112.687)" style="fill:#28236d" d="M0 0h.93v.93H0z"/>
            <path data-name="Path 7268" d="M6.8 23.9h.93v-1.057h1.056v-.93H7.731v-1.055H6.8v1.055H5.746v.93H6.8z" transform="translate(-4.861 63.232)" style="fill:#28236d"/>
            <path data-name="Path 7269" d="M5.87 63.652H4.815v.93H5.87v1.055h.93v-1.055h1.055v-.93H6.8V62.6h-.93z" transform="translate(-4.363 40.904)" style="fill:#28236d"/>
            <path data-name="Path 7270" d="M76.126 16.5v1.05h-1.055v.93h1.055v1.055h.93V18.48h1.055v-.93h-1.055V16.5z" transform="translate(-41.947 65.566)" style="fill:#28236d"/>
            <path data-name="Path 7271" d="M84.755 57.106h.93V56.05h1.055v-.93h-1.055v-1.055h-.93v1.055H83.7v.93h1.055z" transform="translate(-46.563 45.468)" style="fill:#28236d"/>
        </g>
        <g data-name="Group 365">
            <path data-name="Path 7272" d="M36.491 54.918 23.2 27.813 6.02 23.018a8.225 8.225 0 0 1 4.422-15.844l44.919 12.537 5.712-6.084 13.464-1.254-13.451 26.013-12.455-3.476.9 19.27zM8.242 11.324a3.772 3.772 0 0 0-1.026 7.406l19.1 5.332 12.872 26.246 5.694-.323-.982-21.018 14.9 4.159 8.044-15.566-3.678.343-6.4 6.82L9.244 11.461a3.731 3.731 0 0 0-1-.137z" transform="translate(41.994 -6.876)" style="fill:#28236d"/>
        </g>
    </g>
</svg>
