<svg xmlns="http://www.w3.org/2000/svg" width="82.375" height="85.076" viewBox="0 0 82.375 85.076">
    <g data-name="Group 344" transform="translate(-4 -1)">
        <path data-name="Path 7192" d="M19.491 34A12.489 12.489 0 0 0 7 46.491V66.41a4.054 4.054 0 0 0 4.051 4.051v20.088a4.163 4.163 0 0 0 3.93 4.22 4.048 4.048 0 0 0 4.173-4.051 4.056 4.056 0 0 0 4.173 4.051 4.168 4.168 0 0 0 3.93-4.22V66.41l4.726-14.855v-5.064A12.489 12.489 0 0 0 19.491 34z" transform="translate(-.974 -10.718)" style="fill:#fff"/>
        <circle data-name="Ellipse 84" cx="7" cy="7" r="7" transform="translate(10.534 3)" style="fill:#fff"/>
        <path data-name="Path 7193" d="M20.778 18.555a8.778 8.778 0 1 1 8.778-8.778 8.786 8.786 0 0 1-8.778 8.778zm0-13.5A4.726 4.726 0 1 0 25.5 9.778a4.732 4.732 0 0 0-4.722-4.727z" transform="translate(-2.598)" style="fill:#120c5e"/>
        <path data-name="Path 7194" d="M96 93.453a6.754 6.754 0 0 0 7.2 6.739 6.9 6.9 0 0 0 6.3-6.968v-2.472A6.755 6.755 0 0 0 102.752 84 6.755 6.755 0 0 0 96 90.752z" transform="translate(-29.881 -26.958)" style="fill:#fff"/>
        <ellipse data-name="Ellipse 85" cx="4.5" cy="5" rx="4.5" ry="5" transform="translate(68.534 40)" style="fill:#fff"/>
        <path data-name="Path 7195" d="M102.752 70.5a6.752 6.752 0 1 1 6.752-6.752 6.763 6.763 0 0 1-6.752 6.752zm0-9.453a2.7 2.7 0 1 0 2.7 2.7 2.7 2.7 0 0 0-2.7-2.696z" transform="translate(-29.881 -18.188)" style="fill:#120c5e"/>
        <path data-name="Path 7196" d="M57.829 34A12.832 12.832 0 0 0 45 46.829V66.41a4.054 4.054 0 0 0 4.051 4.051v6.752h16.2v-8.1h5.4V46.829A12.832 12.832 0 0 0 57.829 34z" transform="translate(-13.316 -10.718)" style="fill:#fff"/>
        <circle data-name="Ellipse 86" cx="7" cy="7" r="7" transform="translate(37.534 3)" style="fill:#fff"/>
        <path data-name="Path 7197" d="M59.4 18.555a8.778 8.778 0 1 1 8.778-8.778 8.786 8.786 0 0 1-8.778 8.778zm0-13.5a4.726 4.726 0 1 0 4.726 4.726 4.732 4.732 0 0 0-4.726-4.73zm41.829 67.831-1.188-6.529a13.449 13.449 0 0 0-11.663-10.996A15.428 15.428 0 0 1 74.82 41.573l-.736-7.042a14.809 14.809 0 0 0-23.416-10.459 2.026 2.026 0 0 0 2.377 3.282 10.761 10.761 0 0 1 17.015 7.6l.736 7.042a19.479 19.479 0 0 0 8.19 13.984V66.5a8.738 8.738 0 0 0 2.674 6.293l.709 11.391a2.024 2.024 0 0 0 2.019 1.9.817.817 0 0 0 .128-.007 2.03 2.03 0 0 0 1.9-2.147l-.554-8.865a8.862 8.862 0 0 0 1.911.216h1.9l-.54 8.649a2.025 2.025 0 0 0 1.9 2.147c.041 0 .088.007.128.007a2.024 2.024 0 0 0 2.019-1.9l.675-10.8a2.015 2.015 0 0 0-.547-1.512 2.074 2.074 0 0 0-1.492-.641h-4.059A4.732 4.732 0 0 1 83.03 66.5v-8.337a19.671 19.671 0 0 0 4.861 1.222 9.4 9.4 0 0 1 8.163 7.691l1.188 6.529a2.024 2.024 0 0 0 1.992 1.661 2.218 2.218 0 0 0 .365-.034 2.01 2.01 0 0 0 1.628-2.349z" transform="translate(-14.885)" style="fill:#120c5e"/>
        <path data-name="Path 7198" d="M53.29 60.709a2.023 2.023 0 0 0-2.026 2.026v11.478H37.76a2.026 2.026 0 0 0-4.051 0 4.054 4.054 0 0 0 4.051 4.051h.149l1.209 15.686a2.025 2.025 0 0 0 2.019 1.87 1.145 1.145 0 0 0 .155-.007 2.026 2.026 0 0 0 1.864-2.174l-1.182-15.374h5.078L45.87 93.639a2.026 2.026 0 0 0 1.864 2.174 1.249 1.249 0 0 0 .155.007 2.03 2.03 0 0 0 2.019-1.87l1.209-15.685h.149a4.054 4.054 0 0 0 4.051-4.051V62.735a2.023 2.023 0 0 0-2.027-2.026zM33.54 44.275A14.81 14.81 0 0 0 4 45.814v19.622a6.1 6.1 0 0 0 4.051 5.733v18.574a6.067 6.067 0 0 0 10.128 4.517 6.067 6.067 0 0 0 10.128-4.517V72.188a2.026 2.026 0 1 0-4.051 0v17.555a2.026 2.026 0 0 1-4.051 0V65.436a2.026 2.026 0 1 0-4.051 0v24.307a2.026 2.026 0 0 1-4.051 0V69.487a2.023 2.023 0 0 0-2.026-2.026 2.032 2.032 0 0 1-2.026-2.026V45.814A10.76 10.76 0 0 1 29.5 44.6v20.836a2.026 2.026 0 1 0 4.051 0V44.484c.003-.068-.004-.135-.011-.209z" transform="translate(0 -9.744)" style="fill:#120c5e"/>
    </g>
</svg>
