<svg xmlns="http://www.w3.org/2000/svg" width="123.758" height="90.916" viewBox="0 0 123.758 90.916">
    <g data-name="Group 367">
        <g data-name="Group 341">
            <path data-name="Path 7182" d="M39.781 30.672H31.63A1.63 1.63 0 0 1 30 29.041V17.63a1.63 1.63 0 0 1 3.26 0v9.781h6.521a1.63 1.63 0 1 1 0 3.26z" transform="translate(72.563 -9.479)" style="fill:#120c5e"/>
            <path data-name="Path 7183" d="M41.421 41.419A19.562 19.562 0 1 1 38.976 11.7V9.63a1.63 1.63 0 0 1 3.26 0v6.521a1.63 1.63 0 0 1-1.63 1.63h-4.89a1.63 1.63 0 1 1 0-3.26h1.63a16.3 16.3 0 1 0 5.9 8.591 1.63 1.63 0 1 1 3.13-.88 19.562 19.562 0 0 1-4.955 19.187z" transform="translate(76.628 -8)" style="fill:#120c5e"/>
        </g>
        <g data-name="Group 342">
            <path data-name="Path 7184" d="M79 4H5.643A5.648 5.648 0 0 0 0 9.643v50.785a5.648 5.648 0 0 0 5.643 5.643H79a5.648 5.648 0 0 0 5.643-5.643V9.643A5.648 5.648 0 0 0 79 4zm2.821 56.428A2.826 2.826 0 0 1 79 63.249H5.643a2.826 2.826 0 0 1-2.821-2.821V9.643a2.826 2.826 0 0 1 2.821-2.822H79a2.826 2.826 0 0 1 2.821 2.821z" transform="translate(0 24.846)" style="fill:#120c5e"/>
            <path data-name="Path 7185" d="M12.544 17.871a.564.564 0 0 0 .643.15.48.48 0 0 0 .3-.547l-.886-3.86q0-.013-.006-.025a1.952 1.952 0 0 0-2.057-1.3h-.017l-4.988-.006a.518.518 0 0 0-.522.4.485.485 0 0 0 .341.545 15.545 15.545 0 0 1 7.195 4.636zm44.742-5.538h-3.244a2.389 2.389 0 0 0-2.491 1.335L44.827 27.72a.457.457 0 0 0 .04.466.539.539 0 0 0 .446.223h3.809a.533.533 0 0 0 .5-.316c.466-1.14.767-1.865.866-2.1h2.748L56.57 26c.11.426.378 1.557.488 2.023a.523.523 0 0 0 .519.387H60.9a.546.546 0 0 0 .412-.183.463.463 0 0 0 .107-.412l-3.611-15.1a.522.522 0 0 0-.519-.384zM51.852 22.7l2.525-6.032.322 1.388L55.8 22.7h-3.95z" transform="translate(9.116 39.94)" style="fill:#120c5e"/>
            <path data-name="Path 7186" d="M22.143 12.531a.545.545 0 0 0-.443-.22h-3.866a.53.53 0 0 0-.494.31l-4.522 10.66-.485-1.622a.4.4 0 0 0-.025-.065A17.044 17.044 0 0 0 7 15.776a.569.569 0 0 0-.624-.017.47.47 0 0 0-.209.542l3.713 11.72a.528.528 0 0 0 .508.35l4.283-.006a.536.536 0 0 0 .488-.293l7.025-15.078a.457.457 0 0 0-.045-.463zm6.41-.234h-3.676a.519.519 0 0 0-.525.406l-2.79 15.109a.466.466 0 0 0 .119.4.541.541 0 0 0 .406.175h3.673a.523.523 0 0 0 .525-.409l2.793-15.108a.463.463 0 0 0-.118-.4.55.55 0 0 0-.406-.175zm10.18 3.259h.141a8.989 8.989 0 0 1 3.1.528.57.57 0 0 0 .451-.031.494.494 0 0 0 .262-.344l.429-2.33a.486.486 0 0 0-.361-.547 13.075 13.075 0 0 0-3.668-.513c-4.534 0-7.717 2.1-7.742 5.118-.028 2.229 2.277 3.473 4.012 4.215 1.783.759 2.381 1.244 2.373 1.924-.011 1.041-1.428 1.512-2.737 1.512a10.371 10.371 0 0 1-4.294-.8.57.57 0 0 0-.46.023.494.494 0 0 0-.268.347l-.454 2.455a.488.488 0 0 0 .347.545 16.842 16.842 0 0 0 4.684.677c4.811 0 7.942-2.085 7.976-5.3.017-1.769-1.2-3.1-3.837-4.2-1.608-.722-2.6-1.2-2.587-1.935 0-.66.9-1.326 2.635-1.326z" transform="translate(11.195 39.958)" style="fill:#120c5e"/>
        </g>
    </g>
</svg>
