<svg xmlns="http://www.w3.org/2000/svg" width="86.076" height="86.076" viewBox="0 0 86.076 86.076">
    <path data-name="Path 7191" d="M42.538 0a42.538 42.538 0 1 0 42.538 42.538A42.544 42.544 0 0 0 42.538 0zm0 .709A41.84 41.84 0 1 1 .709 42.538 41.82 41.82 0 0 1 42.538.709zm-2.459 12.629a.6.6 0 0 0-.62.553.615.615 0 0 0 .62.576.627.627 0 0 0 .576-.576.556.556 0 0 0-.576-.554zm2.282 0a.606.606 0 0 0-.576.553.627.627 0 0 0 .576.576.555.555 0 0 0 .554-.576.537.537 0 0 0-.554-.554zM37.753 15.6a.574.574 0 0 0-.576.576.518.518 0 0 0 .576.553.536.536 0 0 0 .554-.553.555.555 0 0 0-.554-.576zm2.326 0a.615.615 0 0 0-.62.576.554.554 0 0 0 .62.553.606.606 0 0 0 .576-.553.628.628 0 0 0-.577-.576zm4.542 0a.556.556 0 0 0-.554.576.5.5 0 0 0 .554.553.555.555 0 0 0 .576-.553.574.574 0 0 0-.576-.576zm2.348 0a.574.574 0 0 0-.576.576.555.555 0 0 0 .576.553.584.584 0 0 0 .554-.553.606.606 0 0 0-.554-.576zm4.542 0a.627.627 0 0 0-.576.576.554.554 0 0 0 .576.553.536.536 0 0 0 .554-.553.606.606 0 0 0-.553-.576zm2.26 0a.574.574 0 0 0-.576.576.518.518 0 0 0 .576.553.555.555 0 0 0 .576-.553.574.574 0 0 0-.576-.576zm2.348 0a.574.574 0 0 0-.576.576.554.554 0 0 0 .576.553.584.584 0 0 0 .554-.553.606.606 0 0 0-.553-.576zM35.47 17.946a.5.5 0 0 0-.554.553.519.519 0 0 0 .554.576.574.574 0 0 0 .576-.576.607.607 0 0 0-.576-.554zm2.282 0a.518.518 0 0 0-.576.553.536.536 0 0 0 .576.576.555.555 0 0 0 .554-.576.537.537 0 0 0-.554-.554zm2.326 0a.554.554 0 0 0-.62.553.571.571 0 0 0 .62.576.627.627 0 0 0 .576-.576.607.607 0 0 0-.576-.554zm2.282 0a.555.555 0 0 0-.576.553.575.575 0 0 0 .576.576.555.555 0 0 0 .554-.576.585.585 0 0 0-.554-.554zm2.26 0a.5.5 0 0 0-.554.553.519.519 0 0 0 .554.576.574.574 0 0 0 .58-.575.557.557 0 0 0-.576-.554zm2.348 0a.518.518 0 0 0-.576.553.575.575 0 0 0 .576.576.606.606 0 0 0 .554-.576.585.585 0 0 0-.554-.554zm2.26 0a.5.5 0 0 0-.554.553.556.556 0 0 0 .554.576.627.627 0 0 0 .576-.576.606.606 0 0 0-.576-.554zm2.281 0a.554.554 0 0 0-.576.553.574.574 0 0 0 .576.576.555.555 0 0 0 .554-.576.585.585 0 0 0-.553-.554zm2.26 0a.518.518 0 0 0-.576.553.536.536 0 0 0 .576.576.574.574 0 0 0 .576-.576.556.556 0 0 0-.576-.554zm2.348 0a.518.518 0 0 0-.576.553.574.574 0 0 0 .576.576.606.606 0 0 0 .554-.576.585.585 0 0 0-.553-.554zm-18.364 2.26a.536.536 0 0 0-.576.576.518.518 0 0 0 .576.553.536.536 0 0 0 .554-.553.555.555 0 0 0-.554-.576zm2.326 0a.571.571 0 0 0-.62.576.554.554 0 0 0 .62.553.606.606 0 0 0 .576-.553.627.627 0 0 0-.576-.576zm2.282 0a.574.574 0 0 0-.576.576.555.555 0 0 0 .576.553.536.536 0 0 0 .554-.553.606.606 0 0 0-.554-.576zm2.26 0a.519.519 0 0 0-.554.576.5.5 0 0 0 .554.553.555.555 0 0 0 .576-.553.574.574 0 0 0-.576-.576zm2.348 0a.536.536 0 0 0-.576.576.555.555 0 0 0 .576.553.584.584 0 0 0 .554-.553.606.606 0 0 0-.554-.576zm2.26 0a.519.519 0 0 0-.554.576.536.536 0 0 0 .554.553.606.606 0 0 0 .576-.553.627.627 0 0 0-.576-.576zm2.281 0a.574.574 0 0 0-.576.576.554.554 0 0 0 .576.553.536.536 0 0 0 .554-.553.606.606 0 0 0-.553-.576zm2.26 0a.536.536 0 0 0-.576.576.518.518 0 0 0 .576.553.555.555 0 0 0 .576-.553.574.574 0 0 0-.576-.576zm2.348 0a.535.535 0 0 0-.576.576.554.554 0 0 0 .576.553.584.584 0 0 0 .554-.553.606.606 0 0 0-.553-.576zm2.26 0a.574.574 0 0 0-.576.576.577.577 0 0 0 1.152 0 .627.627 0 0 0-.575-.576zm-20.627 2.26a.576.576 0 1 0 0 1.152.577.577 0 0 0 0-1.153zm2.326 0a.578.578 0 1 0 0 1.152.576.576 0 0 0 0-1.153zm2.282 0a.576.576 0 1 0 0 1.152.555.555 0 0 0 .554-.576.606.606 0 0 0-.554-.576zm2.26 0a.576.576 0 0 0 0 1.152.576.576 0 1 0 0-1.153zm2.348 0a.574.574 0 0 0-.576.576.627.627 0 0 0 .576.576.577.577 0 0 0 0-1.153zm2.26 0a.555.555 0 0 0-.554.576.606.606 0 0 0 .554.576.576.576 0 1 0 0-1.153zm2.281 0a.576.576 0 0 0 0 1.152.555.555 0 0 0 .554-.576.606.606 0 0 0-.553-.576zm2.26 0a.573.573 0 1 0 .408.168.574.574 0 0 0-.408-.168zm2.348 0a.574.574 0 0 0-.576.576.627.627 0 0 0 .576.576.577.577 0 0 0 0-1.153zm-18.363 2.348a.536.536 0 0 0-.576.576.518.518 0 0 0 .576.553.5.5 0 0 0 .554-.553.519.519 0 0 0-.554-.576zm2.326 0a.571.571 0 0 0-.62.576.6.6 0 0 0 1.2 0 .574.574 0 0 0-.577-.576zm2.282 0a.574.574 0 0 0-.576.576.555.555 0 0 0 .576.553.5.5 0 0 0 .554-.553.556.556 0 0 0-.554-.576zm2.26 0a.519.519 0 0 0-.554.576.5.5 0 0 0 .554.553.518.518 0 0 0 .576-.553.536.536 0 0 0-.576-.576zm2.348 0a.536.536 0 0 0-.576.576.555.555 0 0 0 .576.553.536.536 0 0 0 .554-.553.556.556 0 0 0-.554-.576zm2.26 0a.519.519 0 0 0-.554.576.536.536 0 0 0 .554.553.555.555 0 0 0 .576-.553.574.574 0 0 0-.576-.576zm2.281 0a.574.574 0 0 0-.576.576.554.554 0 0 0 .576.553.5.5 0 0 0 .554-.553.556.556 0 0 0-.553-.576zm2.26 0a.536.536 0 0 0-.576.576.577.577 0 0 0 1.152 0 .535.535 0 0 0-.576-.576zm-16.018 2.26a.576.576 0 1 0 0 1.152.519.519 0 0 0 .554-.576.555.555 0 0 0-.554-.576zm2.326 0a.577.577 0 1 0 .576.576.627.627 0 0 0-.576-.576zm2.282 0a.576.576 0 1 0 0 1.152.519.519 0 0 0 .554-.576.606.606 0 0 0-.554-.576zm2.26 0a.576.576 0 0 0 0 1.152.535.535 0 0 0 .576-.576.574.574 0 0 0-.576-.576zm2.348 0a.535.535 0 0 0-.576.576.575.575 0 0 0 .576.576.556.556 0 0 0 .554-.576.606.606 0 0 0-.554-.576zm2.26 0a.519.519 0 0 0-.554.576.556.556 0 0 0 .554.576.574.574 0 0 0 .576-.576.627.627 0 0 0-.576-.576zm2.281 0a.576.576 0 0 0 0 1.152.519.519 0 0 0 .554-.576.606.606 0 0 0-.553-.576zm2.26 0a.576.576 0 1 0 .576.576.574.574 0 0 0-.576-.576zm-16.016 2.282a.557.557 0 0 0-.576.554.574.574 0 0 0 .576.576.555.555 0 0 0 .554-.576.536.536 0 0 0-.554-.553zm2.326 0a.6.6 0 0 0-.62.554.615.615 0 0 0 .62.576.627.627 0 0 0 .576-.576.606.606 0 0 0-.576-.553zm2.282 0a.607.607 0 0 0-.576.554.627.627 0 0 0 .576.576.555.555 0 0 0 .554-.576.584.584 0 0 0-.554-.553zm2.26 0a.538.538 0 0 0-.554.554.555.555 0 0 0 .554.576.574.574 0 0 0 .576-.576.556.556 0 0 0-.576-.553zm2.348 0a.557.557 0 0 0-.576.554.627.627 0 0 0 .576.576.606.606 0 0 0 .554-.576.584.584 0 0 0-.554-.553zm2.26 0a.538.538 0 0 0-.554.554.606.606 0 0 0 .554.576.627.627 0 0 0 .576-.576.605.605 0 0 0-.576-.553zm2.281 0a.606.606 0 0 0-.576.554.626.626 0 0 0 .576.576.555.555 0 0 0 .554-.576.584.584 0 0 0-.553-.553zm2.26 0a.557.557 0 0 0-.576.554.576.576 0 1 0 1.152 0 .555.555 0 0 0-.576-.553zm-16.018 2.26a.574.574 0 0 0-.576.576.557.557 0 0 0 .576.554.537.537 0 0 0 .554-.554.555.555 0 0 0-.553-.576zm2.326 0a.615.615 0 0 0-.62.576.6.6 0 0 0 .62.554.607.607 0 0 0 .576-.554.627.627 0 0 0-.575-.576zm2.282 0a.627.627 0 0 0-.576.576.607.607 0 0 0 .576.554.537.537 0 0 0 .554-.554.606.606 0 0 0-.553-.576zm2.26 0a.555.555 0 0 0-.554.576.538.538 0 0 0 .554.554.556.556 0 0 0 .576-.554.574.574 0 0 0-.576-.576zm2.348 0a.574.574 0 0 0-.576.576.607.607 0 0 0 .576.554.585.585 0 0 0 .554-.554.606.606 0 0 0-.553-.576zm2.26 0a.555.555 0 0 0-.554.576.585.585 0 0 0 .554.554.607.607 0 0 0 .576-.554.626.626 0 0 0-.576-.576zm2.281 0a.626.626 0 0 0-.576.576.606.606 0 0 0 .576.554.537.537 0 0 0 .554-.554.6.6 0 0 0-.553-.576zm2.26 0a.574.574 0 0 0-.576.576.576.576 0 0 0 1.152 0 .574.574 0 0 0-.576-.576zm-16.016 2.348a.557.557 0 0 0-.576.554.535.535 0 0 0 .576.576.519.519 0 0 0 .554-.576.5.5 0 0 0-.554-.553zm2.326 0a.6.6 0 0 0-.62.554.6.6 0 0 0 1.2 0 .555.555 0 0 0-.576-.553zm2.282 0a.607.607 0 0 0-.576.554.574.574 0 0 0 .576.576.519.519 0 0 0 .554-.576.536.536 0 0 0-.554-.553zm2.26 0a.538.538 0 0 0-.554.554.519.519 0 0 0 .554.576.535.535 0 0 0 .576-.576.518.518 0 0 0-.576-.553zm2.348 0a.557.557 0 0 0-.576.554.574.574 0 0 0 .576.576.556.556 0 0 0 .554-.576.536.536 0 0 0-.554-.553zm2.26 0a.538.538 0 0 0-.554.554.556.556 0 0 0 .554.576.574.574 0 0 0 .576-.576.554.554 0 0 0-.576-.553zm2.281 0a.606.606 0 0 0-.576.554.574.574 0 0 0 .576.576.519.519 0 0 0 .554-.576.536.536 0 0 0-.553-.553zm2.26 0a.557.557 0 0 0-.576.554.576.576 0 0 0 1.152 0 .518.518 0 0 0-.576-.553zm-18.3 2.26a.518.518 0 0 0-.554.576.5.5 0 0 0 .554.554.519.519 0 0 0 .576-.554.627.627 0 0 0-.576-.576zm2.282 0a.535.535 0 0 0-.576.576.519.519 0 0 0 .576.554.5.5 0 0 0 .554-.554.555.555 0 0 0-.554-.576zm2.326 0a.57.57 0 0 0-.62.576.6.6 0 0 0 1.2 0 .627.627 0 0 0-.58-.576zm2.282 0a.574.574 0 0 0-.576.576.556.556 0 0 0 .576.554.5.5 0 0 0 .554-.554.606.606 0 0 0-.554-.576zm2.26 0a.519.519 0 0 0-.554.576.5.5 0 0 0 .554.554.519.519 0 0 0 .58-.554.574.574 0 0 0-.576-.576zm2.348 0a.535.535 0 0 0-.576.576.556.556 0 0 0 .576.554.537.537 0 0 0 .554-.554.606.606 0 0 0-.554-.576zm2.26 0a.519.519 0 0 0-.554.576.537.537 0 0 0 .554.554.556.556 0 0 0 .572-.554.626.626 0 0 0-.576-.576zm2.281 0a.574.574 0 0 0-.576.576.555.555 0 0 0 .576.554.5.5 0 0 0 .554-.554.6.6 0 0 0-.553-.576zM35.47 38.572a.537.537 0 0 0-.554.554.555.555 0 0 0 .554.576.574.574 0 0 0 .576-.576.555.555 0 0 0-.576-.553zm2.282 0a.557.557 0 0 0-.576.554.574.574 0 0 0 .576.576.555.555 0 0 0 .554-.576.5.5 0 0 0-.554-.553zm2.326 0a.6.6 0 0 0-.62.554.615.615 0 0 0 .62.576.627.627 0 0 0 .576-.576.555.555 0 0 0-.576-.553zm2.282 0a.607.607 0 0 0-.576.554.627.627 0 0 0 .576.576.555.555 0 0 0 .554-.576.536.536 0 0 0-.554-.553zm2.26 0a.538.538 0 0 0-.554.554.555.555 0 0 0 .554.576.574.574 0 0 0 .576-.576.518.518 0 0 0-.576-.553zm2.348 0a.557.557 0 0 0-.576.554.627.627 0 0 0 .576.576.606.606 0 0 0 .554-.576.536.536 0 0 0-.554-.553zm2.26 0a.538.538 0 0 0-.554.554.606.606 0 0 0 .554.576.627.627 0 0 0 .576-.576.554.554 0 0 0-.576-.553zm2.281 0a.606.606 0 0 0-.576.554.626.626 0 0 0 .576.576.555.555 0 0 0 .554-.576.536.536 0 0 0-.553-.553zm2.26 0a.557.557 0 0 0-.576.554.576.576 0 1 0 1.152 0 .518.518 0 0 0-.576-.553zm-18.3 2.26a.555.555 0 0 0-.554.576.574.574 0 0 0 .554.643.59.59 0 0 0 .576-.643.574.574 0 0 0-.576-.576zm2.282 0a.574.574 0 0 0-.576.576.59.59 0 0 0 .576.643.574.574 0 0 0 .554-.643.518.518 0 0 0-.553-.576zm2.326 0a.615.615 0 0 0-.62.576.625.625 0 0 0 .62.643.637.637 0 0 0 .576-.643.574.574 0 0 0-.576-.576zm2.282 0a.627.627 0 0 0-.576.576.637.637 0 0 0 .576.643.574.574 0 0 0 .554-.643.556.556 0 0 0-.553-.576zm2.26 0a.555.555 0 0 0-.554.576.574.574 0 0 0 .554.643.59.59 0 0 0 .576-.643.535.535 0 0 0-.576-.576zm2.348 0a.574.574 0 0 0-.576.576.637.637 0 0 0 .576.643.619.619 0 0 0 .554-.643.556.556 0 0 0-.553-.576zm2.26 0a.555.555 0 0 0-.554.576.619.619 0 0 0 .554.643.637.637 0 0 0 .576-.643.574.574 0 0 0-.576-.576zm2.281 0a.626.626 0 0 0-.576.576.637.637 0 0 0 .576.643.574.574 0 0 0 .554-.643.555.555 0 0 0-.553-.576zm-18.364 2.282a.556.556 0 0 0-.576.554.574.574 0 0 0 .576.576.518.518 0 0 0 .554-.576c.071-.354-.198-.554-.554-.554zm2.326 0a.5.5 0 0 0-.554.554.518.518 0 0 0 .554.576.574.574 0 0 0 .576-.576.607.607 0 0 0-.576-.554zm2.282 0a.519.519 0 0 0-.576.554.535.535 0 0 0 .576.576.555.555 0 0 0 .554-.576.537.537 0 0 0-.553-.554zm2.326 0a.555.555 0 0 0-.62.554.57.57 0 0 0 .62.576.627.627 0 0 0 .576-.576.607.607 0 0 0-.575-.554zm2.282 0a.556.556 0 0 0-.576.554.574.574 0 0 0 .576.576.555.555 0 0 0 .554-.576.585.585 0 0 0-.553-.554zm2.26 0a.5.5 0 0 0-.554.554.519.519 0 0 0 .554.576.574.574 0 0 0 .576-.576.557.557 0 0 0-.576-.554zm2.348 0a.519.519 0 0 0-.576.554.574.574 0 0 0 .576.576.606.606 0 0 0 .554-.576.585.585 0 0 0-.553-.554zm2.26 0a.5.5 0 0 0-.554.554.556.556 0 0 0 .554.576.627.627 0 0 0 .576-.576.606.606 0 0 0-.576-.554zm-16.085 2.26a.574.574 0 0 0-.576.576.555.555 0 0 0 .576.553.536.536 0 0 0 .554-.553.516.516 0 0 0-.553-.576zm2.326.067a.555.555 0 0 0-.554.576.5.5 0 0 0 .554.554.518.518 0 0 0 .576-.553.574.574 0 0 0-.576-.576zm2.282 0a.574.574 0 0 0-.576.576.519.519 0 0 0 .576.554.5.5 0 0 0 .554-.553.519.519 0 0 0-.554-.576zm2.326 0a.615.615 0 0 0-.62.576.6.6 0 0 0 1.2 0 .574.574 0 0 0-.576-.576zm2.282 0a.627.627 0 0 0-.576.576.555.555 0 0 0 .576.554.5.5 0 0 0 .554-.553.556.556 0 0 0-.554-.576zm2.26 0a.555.555 0 0 0-.554.576.5.5 0 0 0 .554.554.518.518 0 0 0 .576-.553.536.536 0 0 0-.576-.576zm2.348 0a.574.574 0 0 0-.576.576.555.555 0 0 0 .576.554.536.536 0 0 0 .554-.553.556.556 0 0 0-.554-.576zm2.26 0a.555.555 0 0 0-.554.576.537.537 0 0 0 .554.554.555.555 0 0 0 .576-.553.574.574 0 0 0-.576-.576zm-18.366 2.282a.536.536 0 0 0-.554.553.606.606 0 0 0 .554.576.627.627 0 0 0 .576-.576.555.555 0 0 0-.576-.554zm2.282 0a.606.606 0 0 0-.576.553.627.627 0 0 0 .576.576.555.555 0 0 0 .554-.576c.071-.354-.2-.554-.554-.554zm2.326 0a.536.536 0 0 0-.554.553.519.519 0 0 0 .554.576.574.574 0 0 0 .576-.576.606.606 0 0 0-.576-.554zm2.282 0a.556.556 0 0 0-.576.553.536.536 0 0 0 .576.576.555.555 0 0 0 .554-.576.537.537 0 0 0-.554-.554zm2.326 0a.6.6 0 0 0-.62.553.571.571 0 0 0 .62.576.627.627 0 0 0 .576-.576.606.606 0 0 0-.576-.554zm2.282 0a.606.606 0 0 0-.576.553.575.575 0 0 0 .576.576.555.555 0 0 0 .554-.576.585.585 0 0 0-.554-.554zm2.26 0a.537.537 0 0 0-.554.553.519.519 0 0 0 .554.576.574.574 0 0 0 .576-.576.556.556 0 0 0-.576-.554zm2.348 0a.556.556 0 0 0-.576.553.575.575 0 0 0 .576.576.606.606 0 0 0 .554-.576.585.585 0 0 0-.554-.554zm2.26 0a.537.537 0 0 0-.554.553.556.556 0 0 0 .554.576.627.627 0 0 0 .576-.576.606.606 0 0 0-.576-.554zm2.281 0a.6.6 0 0 0-.576.553.574.574 0 0 0 .576.576.555.555 0 0 0 .554-.576.584.584 0 0 0-.553-.554zm-20.646 2.259a.555.555 0 0 0-.554.576.536.536 0 0 0 .554.553.606.606 0 0 0 .576-.553.627.627 0 0 0-.576-.576zm2.282 0a.627.627 0 0 0-.576.576.606.606 0 0 0 .576.553.536.536 0 0 0 .554-.553c.071-.358-.198-.576-.554-.576zm2.326 0a.555.555 0 0 0-.554.576.5.5 0 0 0 .554.553.556.556 0 0 0 .576-.553.627.627 0 0 0-.576-.576zm2.282 0a.574.574 0 0 0-.576.576.518.518 0 0 0 .576.553.536.536 0 0 0 .554-.553.555.555 0 0 0-.553-.576zm2.326 0a.615.615 0 0 0-.62.576.554.554 0 0 0 .62.553.606.606 0 0 0 .576-.553.627.627 0 0 0-.575-.576zm2.282 0a.627.627 0 0 0-.576.576.555.555 0 0 0 .576.553.536.536 0 0 0 .554-.553.606.606 0 0 0-.553-.576zm2.26 0a.555.555 0 0 0-.554.576.5.5 0 0 0 .554.553.555.555 0 0 0 .576-.553.574.574 0 0 0-.576-.576zm2.348 0a.574.574 0 0 0-.576.576.555.555 0 0 0 .576.553.584.584 0 0 0 .554-.553.606.606 0 0 0-.553-.576zm2.26 0a.555.555 0 0 0-.554.576.536.536 0 0 0 .554.553.606.606 0 0 0 .576-.553.627.627 0 0 0-.576-.576zm2.281 0a.626.626 0 0 0-.576.576.554.554 0 0 0 .576.553.536.536 0 0 0 .554-.553.606.606 0 0 0-.553-.576zm-20.649 2.26a.555.555 0 0 0-.554.576.606.606 0 0 0 .554.576.576.576 0 1 0 0-1.153zm2.282 0a.627.627 0 0 0-.576.576.575.575 0 0 0 .576.576.577.577 0 0 0 0-1.153zm2.326 0a.576.576 0 0 0 0 1.152.536.536 0 0 0 .576-.576.574.574 0 0 0-.576-.576zm2.282 0a.576.576 0 1 0 0 1.152.577.577 0 0 0 0-1.153zm2.326 0a.578.578 0 1 0 0 1.152.576.576 0 1 0 0-1.153zm2.282 0a.576.576 0 1 0 0 1.152.519.519 0 0 0 .554-.576.556.556 0 0 0-.554-.576zm2.26 0a.576.576 0 0 0 0 1.152.576.576 0 0 0 0-1.153zm2.348 0a.574.574 0 0 0-.576.576.627.627 0 0 0 .576.576.577.577 0 0 0 0-1.153zm2.26 0a.555.555 0 0 0-.554.576.606.606 0 0 0 .554.576.576.576 0 1 0 0-1.153zm-16.082 2.282a.606.606 0 0 0-.576.554.575.575 0 0 0 .576.576.519.519 0 0 0 .554-.576c.071-.284-.2-.553-.554-.553zm2.326.067a.555.555 0 0 0-.554.576.536.536 0 0 0 .554.553.556.556 0 0 0 .576-.553.574.574 0 0 0-.577-.576zm2.282 0a.574.574 0 0 0-.576.576.556.556 0 0 0 .576.553.536.536 0 0 0 .554-.553.519.519 0 0 0-.553-.576zm2.326 0a.615.615 0 0 0-.62.576.6.6 0 0 0 .62.553.606.606 0 0 0 .576-.553.574.574 0 0 0-.577-.576zm2.282 0a.627.627 0 0 0-.576.576.606.606 0 0 0 .576.553.536.536 0 0 0 .554-.553.556.556 0 0 0-.553-.576zm2.26 0a.555.555 0 0 0-.554.576.537.537 0 0 0 .554.553.555.555 0 0 0 .576-.553.536.536 0 0 0-.576-.576zm2.348 0a.574.574 0 0 0-.576.576.606.606 0 0 0 .576.553.584.584 0 0 0 .554-.553.556.556 0 0 0-.553-.576zm2.26 0a.555.555 0 0 0-.554.576.584.584 0 0 0 .554.553.606.606 0 0 0 .576-.553.574.574 0 0 0-.576-.576zm-11.477 2.26a.574.574 0 0 0-.576.576.536.536 0 0 0 .576.576.577.577 0 0 0 0-1.153zm2.326 0a.615.615 0 0 0-.62.576.571.571 0 0 0 .62.576.576.576 0 0 0 0-1.153zm2.282 0a.627.627 0 0 0-.576.576.575.575 0 0 0 .576.576.555.555 0 0 0 .554-.576.606.606 0 0 0-.554-.576zm2.26 0a.555.555 0 0 0-.554.576.519.519 0 0 0 .554.576.576.576 0 1 0 0-1.153zm2.348 0a.576.576 0 1 0 0 1.152.577.577 0 0 0 0-1.153zm2.26 0a.576.576 0 0 0 0 1.152.576.576 0 0 0 0-1.153zM35.47 59.132a.537.537 0 0 0-.554.554.519.519 0 0 0 .554.576.574.574 0 0 0 .576-.576.606.606 0 0 0-.576-.553zm2.282 0a.556.556 0 0 0-.576.554.536.536 0 0 0 .576.576.555.555 0 0 0 .554-.576.536.536 0 0 0-.554-.553zm2.326 0a.6.6 0 0 0-.62.554.571.571 0 0 0 .62.576.627.627 0 0 0 .576-.576.606.606 0 0 0-.576-.553zm2.282 0a.606.606 0 0 0-.576.554.575.575 0 0 0 .576.576.555.555 0 0 0 .554-.576.584.584 0 0 0-.554-.553zm2.26 0a.537.537 0 0 0-.554.554.519.519 0 0 0 .554.576.574.574 0 0 0 .576-.576.556.556 0 0 0-.576-.553zm2.348 0a.556.556 0 0 0-.576.554.575.575 0 0 0 .576.576.606.606 0 0 0 .554-.576.584.584 0 0 0-.554-.553zm2.26 0a.537.537 0 0 0-.554.554.556.556 0 0 0 .554.576.627.627 0 0 0 .576-.576.605.605 0 0 0-.576-.553zm2.281 0a.606.606 0 0 0-.576.554.574.574 0 0 0 .576.576.555.555 0 0 0 .554-.576.584.584 0 0 0-.553-.553zM35.47 61.458a.577.577 0 0 0 0 1.153.574.574 0 0 0 .576-.576.627.627 0 0 0-.576-.577zm2.282 0a.576.576 0 0 0 0 1.153.577.577 0 0 0 0-1.153zm2.326 0a.578.578 0 1 0 0 1.153.576.576 0 0 0 0-1.153zm2.282 0a.576.576 0 0 0 0 1.153.555.555 0 0 0 .554-.576.606.606 0 0 0-.554-.577zm2.26 0a.577.577 0 0 0 0 1.153.576.576 0 1 0 0-1.153zm2.348 0a.536.536 0 0 0-.576.576.575.575 0 0 0 .576.576.577.577 0 0 0 0-1.153zm2.26 0a.519.519 0 0 0-.554.576.556.556 0 0 0 .554.576.576.576 0 1 0 0-1.153zm-11.476 2.283a.556.556 0 0 0-.576.553.575.575 0 0 0 .576.576.555.555 0 0 0 .554-.576.536.536 0 0 0-.554-.553zm2.326 0a.6.6 0 0 0-.62.553.615.615 0 0 0 .62.576.627.627 0 0 0 .576-.576.606.606 0 0 0-.576-.553zm2.282 0a.606.606 0 0 0-.576.553.627.627 0 0 0 .576.576.555.555 0 0 0 .554-.576.584.584 0 0 0-.554-.553zm2.26 0a.537.537 0 0 0-.554.553.556.556 0 0 0 .554.576.574.574 0 0 0 .576-.576.556.556 0 0 0-.576-.553zm2.348 0a.556.556 0 0 0-.576.553.627.627 0 0 0 .576.576.606.606 0 0 0 .554-.576.584.584 0 0 0-.554-.553zM37.752 66a.574.574 0 0 0-.576.576.519.519 0 0 0 .576.554.536.536 0 0 0 .554-.553.555.555 0 0 0-.554-.577zm2.326 0a.615.615 0 0 0-.62.576.554.554 0 0 0 .62.554.606.606 0 0 0 .576-.553.627.627 0 0 0-.576-.577zm2.282 0a.627.627 0 0 0-.576.576.555.555 0 0 0 .576.554.536.536 0 0 0 .554-.553.606.606 0 0 0-.554-.577zm2.26 0a.555.555 0 0 0-.554.576.5.5 0 0 0 .554.554.555.555 0 0 0 .576-.553.574.574 0 0 0-.576-.577zm2.348 0a.574.574 0 0 0-.576.576.555.555 0 0 0 .576.554.584.584 0 0 0 .554-.553.606.606 0 0 0-.554-.577zm-11.5 2.348a.5.5 0 0 0-.554.554.519.519 0 0 0 .554.576.536.536 0 0 0 .576-.576.555.555 0 0 0-.576-.553zm2.282 0a.519.519 0 0 0-.576.554.536.536 0 0 0 .576.576.519.519 0 0 0 .554-.576.5.5 0 0 0-.554-.553zm2.326 0a.554.554 0 0 0-.62.554.6.6 0 0 0 1.2 0 .555.555 0 0 0-.576-.553zm2.282 0a.555.555 0 0 0-.576.554.575.575 0 0 0 .576.576.519.519 0 0 0 .554-.576.536.536 0 0 0-.554-.553zm2.26 0a.5.5 0 0 0-.554.554.519.519 0 0 0 .554.576.535.535 0 0 0 .582-.578.518.518 0 0 0-.576-.553zm2.348 0a.519.519 0 0 0-.576.554.575.575 0 0 0 .576.576.556.556 0 0 0 .554-.576.536.536 0 0 0-.554-.553zm2.26 0a.5.5 0 0 0-.554.554.556.556 0 0 0 .554.576.574.574 0 0 0 .574-.578.554.554 0 0 0-.576-.553zM35.47 70.609a.518.518 0 0 0-.554.576.5.5 0 0 0 .554.554.556.556 0 0 0 .576-.553.627.627 0 0 0-.576-.576zm9.151 0a.519.519 0 0 0-.554.576.5.5 0 0 0 .554.554.555.555 0 0 0 .576-.553.574.574 0 0 0-.576-.576z" transform="translate(.5 .5)" style="fill:none;stroke:#120c5e"/>
</svg>
