<svg xmlns="http://www.w3.org/2000/svg" width="181.028" height="131.077" viewBox="0 0 181.028 131.077">
    <g data-name="Group 352">
        <path data-name="Path 7203" d="M384.287 107.92c-.115-1.59.23-3.073 1.752-3.872a4.782 4.782 0 0 1 1.391 4.056c1.429.023 3.265-.031 3.6 1.767-.738 1.536-2.389 1.252-3.787 1.337-.108 1.321.154 2.865-1.16 3.687-2.044-.277-1.967-2.228-1.951-3.833-1.367-.108-3.288.1-3.6-1.675.543-1.667 2.395-1.329 3.755-1.467z" transform="translate(-374.721 -104.048)" style="fill:#130e5f"/>
        <path data-name="Path 7204" d="M574.224 119.046c.077-1.4-.046-3.419 1.851-3.588 1.513.676 1.122 2.412 1.306 3.741 1.429.031 3.334-.008 3.6 1.844-.784 1.46-2.428 1.175-3.8 1.3-.038 1.467.054 3.3-1.79 3.626-1.69-.63-1.168-2.435-1.283-3.833-1.444-.046-3.342.108-3.641-1.744.684-1.562 2.367-1.239 3.757-1.346z" transform="translate(-418.742 -106.693)" style="fill:#130e5f"/>
        <g data-name="Group 346">
            <path data-name="Path 7205" d="M412.556 132.158c2.428-1.283 5.247-.883 7.874-.953q47.28.035 94.561.015c4.924-.269 9.68 3.956 9.618 8.958.046 13.037.015 26.074.015 39.118 2.527 4.141 5.308 8.135 7.629 12.4 1.575 2.243-1.029 5.047.9 7.114.837 1.759 3.38.8 4.471 2.3 2.666 3.542 4.97 7.337 7.513 10.97a5.519 5.519 0 0 1-.6 7.513c-1.79 1.452-3.772 2.65-5.685 3.933 1.406.154 3.8-.169 3.864 1.844.415 1.4-1.129 2.428-2.374 2.174q-60.36.023-120.719 0c-1.5.361-3.081-1.429-2.22-2.773.584-1.583 2.52-1.029 3.81-1.168 17.009.054 34.009-.046 51.01.054a17.437 17.437 0 0 1-4.755-9.288q-12.4.035-24.806.008c-.837 1.79-1.429 4.5-3.849 4.648-7.4.123-14.811.054-22.217.031-2.689.077-3.4-2.935-4.317-4.871-9.219.092-18.437-.061-27.656.069a11.84 11.84 0 0 0 6.276 7.675c4.548 2.32 9.764 1.206 14.635 1.583 1.982.223 2.067 3.641.023 3.787-9.626.2-19.267.015-28.893.092-1.137-.123-2.627.3-3.419-.791a1.953 1.953 0 0 1 1.851-2.95q5.381-.1 10.763.023c-3.119-2.919-5.431-6.975-5.163-11.362a1.765 1.765 0 0 1 2.09-1.828c8.22-.108 16.448.023 24.668-.031q-.138-34.8.008-69.594a9.2 9.2 0 0 1 5.094-8.7zm-1.414 8.781c-.054 22 .023 44-.031 66.006.123 1.114-.261 2.443.261 3.442 2.289.161 4.594.054 6.9.061q-.012-33.257.008-66.528a1.88 1.88 0 0 1 2.243-1.89q45.633-.023 91.281.008a1.843 1.843 0 0 1 2.166 1.913c.061 11.6.008 23.208.015 34.808l2.09.484a7.5 7.5 0 0 1 4.794-2.351c-.061-12.245.069-24.491-.054-36.729.008-2.981-3.011-5.262-5.869-5.016q-47.638.035-95.268.008a30.9 30.9 0 0 0-4.617.161 5.454 5.454 0 0 0-3.918 5.623zm11.224 69.54c25.989-.054 51.978.008 77.967-.031 3.357-.061 6.73.23 10.079-.177-4.479-1.705-9.4-1.805-13.936-3.319-1.821-.615-2.574-2.481-3.449-4.01q-28.232.046-56.465.008a3.146 3.146 0 0 1-3.442-2.159 49.887 49.887 0 0 1-.084-6.945 3.133 3.133 0 0 1 3.434-3.081q29.523.012 59.046.008c-1.2-1.89-2.366-3.8-3.572-5.685q-27.679.035-55.366 0a3.027 3.027 0 0 1-3.526-2.743 66.925 66.925 0 0 1 .031-7.552c.253-2 2.489-2.719 4.241-2.535 19.229.046 38.465 0 57.694.023 1.306-.061 3 .315 3.419 1.752a22.609 22.609 0 0 0 2.9 5.754 702.87 702.87 0 0 1 1.521 2.527c2-1.552 4.486-1.552 6.891-1.252.33-11.692.023-23.408.138-35.116q-43.754.035-87.524 0 .019 32.267.003 64.533zM435 174.741a52.592 52.592 0 0 0-.008 7.045c.492 1.352 2.028.845 3.127.968 17.546-.015 35.1-.046 52.646.008a6.612 6.612 0 0 1 .814-8.958c-17.831.131-35.661.054-53.484.046-1.055.107-2.538-.33-3.095.891zm58.055 4.486c3.856 6.753 8.174 13.252 12.092 19.974.684 1.106-.284 2.289-1.314 2.7-2.12-.038-4.179-1.314-6.292-.845-1.091.776-.231 2.174.822 2.351 4.448 1.076 8.973 1.821 13.421 2.912 2.151.653 3.526 2.566 4.755 4.31a32.764 32.764 0 0 0 2.958-1.437c3.741-2.489 7.621-4.755 11.4-7.183-1.076-1.752-2.589-3.6-2.151-5.8.046-1.145.584-2.435-.223-3.449-2.3-3.611-4.694-7.16-7.06-10.724-.545-.83-1.659-2.351-2.681-1.114-1.337.922.323 2.259.568 3.3l.208.161c1.713 1.613 1.26 4.894-1.575 4.425-1.928-1.621-2.627-4.179-4.187-6.092-1.037-.6-1.621.438-2.259 1.068 1.006 1.828 2.351 3.5 3 5.5.392 1.467-1.444 2.259-2.635 2.051-2.389-1.859-2.9-5.355-5.454-7.029-2.666 1.06-.261 3.6.6 5.116.991 1.629 2.474 3.234 2.059 5.293l-2.189 1.045a13.617 13.617 0 0 1-3.288-4.233c-2.266-3.864-4.655-7.667-6.96-11.516q-.956-1.533-1.959-3.027c-.869.423-2.305.968-1.66 2.244zm-58.124 14.658a52.056 52.056 0 0 0 .085 6.192c.392 1.4 2.067.83 3.119.976 18.345-.038 36.691.015 55.036-.023a8.013 8.013 0 0 1 3.949-4.356 26.057 26.057 0 0 0-.353-4.509q-29.707 0-59.414-.008c-1.105-.177-2.741.269-2.426 1.728zm81.424 21.91c1.982 2.4 3.542 5.124 5.355 7.659 3.342-.038 6.684-.008 10.033-.023 3.142-2.174 6.4-4.171 9.518-6.392a1.714 1.714 0 0 0 .791-2.489c-2.328-3.641-4.817-7.175-7.214-10.778-6.095 4.103-12.618 7.613-18.487 12.028zm-101.94-1.395c.438.914.868 1.828 1.306 2.743 7.705.031 15.411.077 23.116-.023.484-.914.976-1.821 1.467-2.727-8.634.007-17.262-.011-25.889.007zm56.587.008c1.229 4.978 5.693 9.111 10.947 9.165 9.2.115 18.407.008 27.6.046a13.135 13.135 0 0 0 6.3-1.9c-1.544-2.243-3.357-4.494-3.4-7.352-13.813.068-27.633-.016-41.449.045z" transform="translate(-372.968 -110.34)" style="fill:#130e5f"/>
        </g>
        <g data-name="Group 347">
            <path data-name="Path 7206" d="M454.472 162.956a32.7 32.7 0 0 1 5.938.384 5.062 5.062 0 0 1-.192 4.01c.353 1.352 1.644 3.772-.8 3.58l-.184-2.9c-1.06-.084-2.128-.169-3.188-.23-.131 1.329.323 3.134-1.583 3.326-.137-2.726-.091-5.443.009-8.17zm1.521 1.252.4 2.282a3.921 3.921 0 0 0 3.641-1.306 11.1 11.1 0 0 0-4.041-.976z" transform="translate(-391.836 -117.7)" style="fill:#130e5f"/>
        </g>
        <path data-name="Path 7207" d="M480.9 162.746c.353-.008 1.045-.031 1.391-.038-.814 2.865 1.406 6.246-.9 8.7-1.256-2.785-.111-5.781-.491-8.662z" transform="translate(-397.957 -117.644)" style="fill:#130e5f"/>
        <path data-name="Path 7208" d="M513.249 162.7c.353.023 1.068.054 1.421.069-.177 2.7.238 5.385-.023 8.074-.353-.046-1.068-.131-1.421-.177a82.462 82.462 0 0 1 .023-4.364l-2.358.069c-.115.945-.115 1.9-.161 2.842.507.138 1.536.415 2.051.545-.953 1.344-2.335 1.076-3.518.315a9.992 9.992 0 0 0-.622-4.847c.515-.615 1.029-1.229 1.552-1.844.883.791 1.767 1.6 2.643 2.4.352-.982 1.12-1.993.413-3.082z" transform="translate(-404.413 -117.642)" style="fill:#130e5f"/>
        <path data-name="Path 7209" d="M375.531 165.174c1.99-.446 2.919 1.029 3.5 2.7 1.3-.3 3.111-1.621 3.918.115.684 1.729-1.682 2.174-2.719 2.842.376 1.26 1.575 2.743.115 3.772-1.8.83-2.358-1.421-3-2.581-1.383.33-3.142 1.659-4-.192-.277-1.729 1.606-2.082 2.727-2.75a9.178 9.178 0 0 1-.541-3.906z" transform="translate(-373.048 -118.197)" style="fill:#130e5f"/>
        <g data-name="Group 348">
            <path data-name="Path 7210" d="M463.391 167.888c-.2-2.028 2.136-4.118 4.056-2.942 1.452.438 1.7 2.113 1.928 3.388q-2.235.127-4.463.338a10.314 10.314 0 0 0 4.517.876c-1.245 3.095-6.522 1.582-6.038-1.66zm2.059-.768q1.129 1.486 2.043-.108c-.745-1.045-1.421-1.012-2.044.107z" transform="translate(-393.918 -118.083)" style="fill:#130e5f"/>
        </g>
        <path data-name="Path 7211" d="M488.88 165.34c.422-.361 1.252-1.091 1.667-1.452.645.446 1.928 1.337 2.566 1.775-.5.3-1.5.9-2.005 1.2 0 .822-.008 1.659-.008 2.489l1.583 1.46c-3.373 1.529-3.25-2.343-3.165-4.509a22.592 22.592 0 0 0-4.318.484c1.252.684 3.119.745 3.611 2.351.131 2.735-4.97 2.919-4.97.269.814.108 2.443.307 3.257.415-1.022-1.076-3.718-1.713-2.62-3.6.868-1.65 2.934-.99 4.402-.882z" transform="translate(-398.665 -117.917)" style="fill:#130e5f"/>
        <g data-name="Group 349">
            <path data-name="Path 7212" d="M496.362 165.383a89.456 89.456 0 0 0 3.242-.108l.138.691c1.682-.968 3.857-1.337 5.285.254-.008 1.544.015 3.081.038 4.625-1.621.123-3.549 1.114-4.963-.169a24.113 24.113 0 0 1-.169-2.358c1.283-.376 2.581-.714 3.88-1.076-1.268-.353-2.558-.6-3.8-1.006-.553.223-1.644.661-2.189.883-.353 1.383.684 3.68-.906 4.425-.963-1.89-.402-4.125-.556-6.161zm5.285 3.48c-1.022 1.106 1.1 1.813 1.744.953 1.114-1.076-1.106-1.821-1.743-.953z" transform="translate(-401.561 -118.206)" style="fill:#130e5f"/>
        </g>
        <g data-name="Group 350">
            <path data-name="Path 7213" d="M519.522 165.153c2.22-1.037 4.54 1.344 3.964 3.572a2.911 2.911 0 0 1-4.732 1.921c-1.721-1.43-1.437-4.756.768-5.493zm-.438 1.913a5.934 5.934 0 0 0 1.675 3.449c.622-.737 1.959-1.329 1.575-2.52.007-1.828-2.151-1.437-3.25-.93z" transform="translate(-406.499 -118.152)" style="fill:#130e5f"/>
        </g>
        <g data-name="Group 351">
            <path data-name="Path 7214" d="M472.741 166.621c1.029-1.967 3.472-.953 5.193-.983-.046 2.7 1.06 6.184-1.352 8.2-1.583.1-4.6.492-4.279-1.936 1.49.338 3.234.914 4.387-.469-1.252-.138-2.5-.246-3.757-.4-.308-1.439-1.107-3.022-.192-4.412zm.284 2.4a4.138 4.138 0 0 0 3.311.553c-.307-.86.33-2.527-.876-2.8-1.521-.799-2.128 1.183-2.435 2.251z" transform="translate(-395.986 -118.269)" style="fill:#130e5f"/>
        </g>
        <path data-name="Path 7215" d="M526.54 165.646c1.621.223 3.81-.937 4.986.638.684 1.644.269 3.5.292 5.224l-1.429-.184a41.242 41.242 0 0 0-.361-4.963c-.507.23-1.521.676-2.028.9-.031 1.406-.061 2.819-.123 4.225-.315-.069-.945-.2-1.26-.269 0-1.86-.023-3.712-.077-5.571z" transform="translate(-408.562 -118.278)" style="fill:#130e5f"/>
        <path data-name="Path 7216" d="M457.718 190.854c.876-.684 1.844.254 2.719.438a2.44 2.44 0 0 1-2.543 2.8c-.944-.792-1.382-2.485-.176-3.238z" transform="translate(-392.441 -124.11)" style="fill:#130e5f"/>
        <path data-name="Path 7217" d="M475.046 190.616c1.506-.53 3.15 1.951 1.544 2.858-1.982 2.058-4.09-2.198-1.544-2.858z" transform="translate(-396.355 -124.095)" style="fill:#130e5f"/>
        <path data-name="Path 7218" d="M482.471 191.46c.814-1.959 4.018-.315 3.011 1.483-.307.361-.937 1.076-1.245 1.437-.998-.63-2.588-1.506-1.766-2.92z" transform="translate(-398.295 -124.102)" style="fill:#130e5f"/>
        <path data-name="Path 7219" d="M491.452 190.377c1.521-.069 3.664 1.721 2.005 3.058-1.191 1.314-2.335-.092-3.127-1.037.284-.507.845-1.514 1.122-2.021z" transform="translate(-400.169 -124.057)" style="fill:#130e5f"/>
        <path data-name="Path 7220" d="M500.648 190.577c1.2-.077 2.535 1.713 1.559 2.658a1.629 1.629 0 0 1-2.95-.522 1.691 1.691 0 0 1 1.391-2.136z" transform="translate(-402.221 -124.103)" style="fill:#130e5f"/>
        <path data-name="Path 7221" d="M508.591 193.78c-1.69-.622-1.037-3.165.615-3.242.983.154 1.475 1.2 2.166 1.805-.772.657-1.598 2.251-2.781 1.437z" transform="translate(-404.173 -124.094)" style="fill:#130e5f"/>
        <path data-name="Path 7222" d="M465.887 191.048c1.59-1.921 4.233 1.6 2.02 2.62-1.444 1.352-3.726-1.545-2.02-2.62z" transform="translate(-394.363 -124.082)" style="fill:#130e5f"/>
        <path data-name="Path 7223" d="M457.909 214.285c1.744-1.029 3.565 2.043 1.59 2.9-1.882 1.494-3.672-2.032-1.59-2.9z" transform="translate(-392.439 -129.55)" style="fill:#130e5f"/>
        <path data-name="Path 7224" d="M465.16 215.372c1.137-1.982 3.365-1.083 3.949.845a3.328 3.328 0 0 1-3.542 1.029c-.107-.468-.307-1.406-.407-1.874z" transform="translate(-394.336 -129.592)" style="fill:#130e5f"/>
        <path data-name="Path 7225" d="M474.872 214.185c2.113-.768 3.426 2.7 1.114 3.242-2.005.645-2.957-2.443-1.114-3.242z" transform="translate(-396.358 -129.549)" style="fill:#130e5f"/>
        <path data-name="Path 7226" d="M482.994 214.378c1.905-1.329 3.926 2.182 1.59 2.95-1.775.991-3.234-1.913-1.59-2.95z" transform="translate(-398.303 -129.551)" style="fill:#130e5f"/>
        <path data-name="Path 7227" d="M490.768 215.415c.2-1.26 1.521-1.183 2.481-1.437.123.891 1.429 2 .476 2.8-.859 1.564-3.871.25-2.957-1.363z" transform="translate(-400.231 -129.527)" style="fill:#130e5f"/>
        <path data-name="Path 7228" d="M499.339 215.058c1.1-2.013 2.935-.192 3.618 1.137-1.137 1.92-4.586 1.459-3.618-1.137z" transform="translate(-402.218 -129.569)" style="fill:#130e5f"/>
        <path data-name="Path 7229" d="M508.861 214.21c1.291-.392 1.751 1.214 2.5 1.936-.845.615-1.867 1.99-2.988 1.083a1.669 1.669 0 0 1 .488-3.019z" transform="translate(-404.174 -129.567)" style="fill:#130e5f"/>
        <path data-name="Path 7230" d="M579.823 233.018a2.983 2.983 0 0 1 4.586.906c1.452 2.259-1.644 5.508-3.91 3.995a3.007 3.007 0 0 1-.676-4.901z" transform="translate(-420.684 -133.771)" style="fill:#130e5f"/>
        <path data-name="Path 7231" d="M603.9 251.367c1.391-.507 3.288.131 3.3 1.836.1 2.351-3.7 2.8-4.44.791a1.882 1.882 0 0 1 1.14-2.627z" transform="translate(-426.175 -138.154)" style="fill:#130e5f"/>
        <path data-name="Path 7232" d="M466.654 266.6a49.69 49.69 0 0 1 .83-3.188c.469.254 1.406.776 1.874 1.037-.038.5-.115 1.5-.161 2 1.221.192 2.973.115 3.119 1.752-.722.876-1.874.791-2.881.953a4.081 4.081 0 0 1-1.06 2.9c-1.744.177-1.429-2.043-1.8-3.1l-2.2.123c-.269-.784-.745-1.652.008-2.335.573-.042 1.703-.115 2.271-.142z" transform="translate(-394.063 -140.984)" style="fill:#130e5f"/>
    </g>
</svg>
