<svg xmlns="http://www.w3.org/2000/svg" width="129.751" height="133" viewBox="0 0 129.751 133">
    <g data-name="Group 353">
        <path data-name="Path 7233" d="M124.141 56.168h-1.216V27.975a5.4 5.4 0 0 0 0-.649 1.136 1.136 0 0 0 0-.27 2.7 2.7 0 0 0-.487-.73L98.461 2.511a2.271 2.271 0 0 0-.784-.541h-.243a2.054 2.054 0 0 0-.73 0H44.236a7.6 7.6 0 0 0-7.6 7.6v16.215h-28A6.136 6.136 0 0 0 2.5 31.624v90.069a13.272 13.272 0 0 0 13.245 13.245h103.314a13.218 13.218 0 0 0 13.191-13.191V64.278a8.109 8.109 0 0 0-8.109-8.109zM113.68 25.461h-12.353a2.163 2.163 0 0 1-2.163-2.161V10.945zM42.047 9.242a2.19 2.19 0 0 1 2.19-2.19h49.521v16.219a7.569 7.569 0 0 0 7.569 7.569h16.219v67.281a2.19 2.19 0 0 1-2.19 2.19h-4.109V47.167a8.109 8.109 0 0 0-8.109-8.109H62.591l-5.407-10.272a6.109 6.109 0 0 0-5.406-3.3h-9.731zM7.906 121.693V31.624a.73.73 0 0 1 .73-.73h43.25a.7.7 0 0 1 .649.378L58.644 43a2.7 2.7 0 0 0 2.406 1.46h42.115a2.7 2.7 0 0 1 2.7 2.7v74.012a13.759 13.759 0 0 0 2.7 8.353h-92.82a7.839 7.839 0 0 1-7.839-7.839zm118.938 0a7.785 7.785 0 0 1-7.569 7.731c-6-1.487-8.109-4.217-8.109-10v-13.788h4.082a7.623 7.623 0 0 0 7.6-7.6V61.575h1.216a2.7 2.7 0 0 1 2.7 2.7z" transform="translate(-2.5 -1.938)" style="fill:#130e5f"/>
        <path data-name="Path 7234" d="M48.425 43.355a2.7 2.7 0 0 0-2.7 2.7v4.085a2.7 2.7 0 0 0 5.406 0v-4.082a2.7 2.7 0 0 0-2.706-2.703zm0-21.355H30.5a2.7 2.7 0 1 0 0 5.406h15.222v8.569a2.7 2.7 0 1 0 5.406 0V24.7a2.7 2.7 0 0 0-2.703-2.7z" transform="translate(40.589 32.23)" style="fill:#130e5f"/>
    </g>
</svg>
