<svg data-name="Group 354" xmlns="http://www.w3.org/2000/svg" width="137" height="137" viewBox="0 0 137 137">
    <path data-name="Path 7235" d="M110.5 21.242V16.25A14.25 14.25 0 0 0 96.25 2H47.933a14.155 14.155 0 0 0-10.075 4.175L10.175 33.863A14.164 14.164 0 0 0 6 43.938V54.25a4.75 4.75 0 0 0 9.5 0V49.5a4.75 4.75 0 0 1 4.75-4.75H44A4.75 4.75 0 0 0 48.75 40V16.25a4.75 4.75 0 0 1 4.75-4.75h42.75a4.75 4.75 0 0 1 4.75 4.75V21H86.75a4.75 4.75 0 1 0 0 9.5h21.375a2.375 2.375 0 0 1 0 4.75h-2.375A4.75 4.75 0 0 0 101 40v80.75a4.75 4.75 0 0 1-4.75 4.75H72.5a4.75 4.75 0 1 0 0 9.5h23.75a14.25 14.25 0 0 0 14.25-14.25V44.513a11.875 11.875 0 0 0 0-23.27zM22.217 35.25 39.25 18.217V35.25z" transform="translate(15)" style="fill:none;stroke:#130e5f;stroke-width:4px"/>
    <path data-name="Path 7236" d="M63.75 19.75H59a4.75 4.75 0 0 0-9.5 0h-19a4.75 4.75 0 0 0-9.5 0h-4.75A14.25 14.25 0 0 0 2 34v38a14.25 14.25 0 0 0 14.25 14.25h47.5A14.25 14.25 0 0 0 78 72V34a14.25 14.25 0 0 0-14.25-14.25zM68.5 72a4.75 4.75 0 0 1-4.75 4.75h-47.5A4.75 4.75 0 0 1 11.5 72V34a4.75 4.75 0 0 1 4.75-4.75H21V34a4.75 4.75 0 1 0 9.5 0v-4.75h19V34a4.75 4.75 0 1 0 9.5 0v-4.75h4.75A4.75 4.75 0 0 1 68.5 34z" transform="translate(0 48.75)" style="fill:none;stroke:#130e5f;stroke-width:4px"/>
    <ellipse data-name="Ellipse 87" cx="4.337" cy="4.819" rx="4.337" ry="4.819" transform="translate(21.275 92.112)" style="fill:none;stroke:#130e5f;stroke-width:4px"/>
    <circle data-name="Ellipse 88" cx="4.819" cy="4.819" r="4.819" transform="translate(34.768 92.112)" style="fill:none;stroke:#130e5f;stroke-width:4px"/>
    <circle data-name="Ellipse 89" cx="4.819" cy="4.819" r="4.819" transform="translate(49.225 92.112)" style="fill:none;stroke:#130e5f;stroke-width:4px"/>
    <ellipse data-name="Ellipse 90" cx="4.337" cy="4.819" rx="4.337" ry="4.819" transform="translate(21.275 106.569)" style="fill:none;stroke:#130e5f;stroke-width:4px"/>
    <circle data-name="Ellipse 91" cx="4.819" cy="4.819" r="4.819" transform="translate(34.768 106.569)" style="fill:none;stroke:#130e5f;stroke-width:4px"/>
    <circle data-name="Ellipse 92" cx="4.819" cy="4.819" r="4.819" transform="translate(49.225 106.569)" style="fill:none;stroke:#130e5f;stroke-width:4px"/>
</svg>
