<svg xmlns="http://www.w3.org/2000/svg" width="103.381" height="104" viewBox="0 0 103.381 104">
    <g data-name="Group 355" transform="translate(.35 .5)">
        <path data-name="Path 7237" d="M73.2 50.737v-45A3.732 3.732 0 0 0 69.47 2H5.9a3.75 3.75 0 0 0-3.75 3.733v91.534A3.75 3.75 0 0 0 5.9 101h63.57a3.4 3.4 0 0 0 1.588-.371" style="fill:none;stroke:#130e5f;stroke-linecap:round;stroke-linejoin:round;stroke-miterlimit:10;stroke-width:5px"/>
        <path data-name="Path 7238" d="M6.5 9.1h53.111" transform="translate(4.624 7.543)" style="fill:none;stroke:#130e5f;stroke-linecap:round;stroke-linejoin:round;stroke-miterlimit:10;stroke-width:5px"/>
        <path data-name="Path 7239" d="M6.5 16.038h53.111" transform="translate(4.624 14.915)" style="fill:none;stroke:#130e5f;stroke-linecap:round;stroke-linejoin:round;stroke-miterlimit:10;stroke-width:5px"/>
        <path data-name="Path 7240" d="M6.5 22.977h53.111" transform="translate(4.624 22.288)" style="fill:none;stroke:#130e5f;stroke-linecap:round;stroke-linejoin:round;stroke-miterlimit:10;stroke-width:5px"/>
        <path data-name="Path 7241" d="M36.485 29.92H6.5" transform="translate(4.622 29.665)" style="fill:none;stroke:#130e5f;stroke-linecap:round;stroke-linejoin:round;stroke-miterlimit:10;stroke-width:5px"/>
        <circle data-name="Ellipse 93" cx="25.18" cy="25.18" r="25.18" transform="translate(50.172 50.641)" style="fill:none;stroke:#130e5f;stroke-linecap:round;stroke-linejoin:round;stroke-miterlimit:10;stroke-width:5px"/>
        <circle data-name="Ellipse 94" cx="5.156" cy="5.156" r="5.156" transform="translate(70.195 70.664)" style="fill:none;stroke:#130e5f;stroke-linecap:round;stroke-linejoin:round;stroke-miterlimit:10;stroke-width:5px"/>
        <path data-name="Path 7242" d="M37.64 41V29.92" transform="translate(37.708 29.665)" style="fill:none;stroke:#130e5f;stroke-linecap:round;stroke-linejoin:round;stroke-miterlimit:10;stroke-width:5px"/>
        <path data-name="Path 7243" d="M39.39 37.79h-8.25" transform="translate(30.802 38.027)" style="fill:none;stroke:#130e5f;stroke-linecap:round;stroke-linejoin:round;stroke-miterlimit:10;stroke-width:5px"/>
    </g>
</svg>
