<svg xmlns="http://www.w3.org/2000/svg" width="85.091" height="85.076" viewBox="0 0 85.091 85.076">
    <g transform="translate(-1.997 -2)">
        <path data-name="Path 7187" d="M37.881 44.761a6.381 6.381 0 1 0-6.381-6.38 6.381 6.381 0 0 0 6.381 6.381zm0-9.926a3.545 3.545 0 1 1-3.545 3.545 3.545 3.545 0 0 1 3.545-3.544z" transform="translate(12.33 12.538)" style="fill:#120c5e"/>
        <path data-name="Path 7188" d="M22 47.851A19.851 19.851 0 1 0 41.851 28 19.851 19.851 0 0 0 22 47.851zm19.851 17.015a16.9 16.9 0 0 1-9.219-2.734A9.592 9.592 0 0 1 41.851 52.1a9.591 9.591 0 0 1 9.217 10.028 16.892 16.892 0 0 1-9.217 2.734zm0-34.03A17 17 0 0 1 53.742 60a12.275 12.275 0 0 0-11.891-10.731A12.281 12.281 0 0 0 29.965 60a17 17 0 0 1 11.886-29.164z" transform="translate(8.36 10.866)" style="fill:#120c5e"/>
        <path data-name="Path 7189" d="M82.824 19.015h-2.836v-7.09a1.418 1.418 0 0 0-1.418-1.418h-8.508V3.418A1.418 1.418 0 0 0 68.644 2H9.091a1.418 1.418 0 0 0-1.418 1.418v15.6h-.451A5.466 5.466 0 0 0 2 24.687v56.6a5.568 5.568 0 0 0 5.3 5.787h74.693a5.476 5.476 0 0 0 5.085-5.787V23.269a4.254 4.254 0 0 0-4.254-4.254zm-5.672-5.672v17.016H47.884a1.178 1.178 0 0 1-.805-.33l-10.518-9.91a3.994 3.994 0 0 0-2.749-1.1H20.435v-5.676zM7.306 84.24a2.745 2.745 0 0 1-2.469-2.95v-56.6a2.642 2.642 0 0 1 2.385-2.836h.451v58.132A1.418 1.418 0 0 0 9.091 81.4h4.264a6.315 6.315 0 0 0 .725 2.836zm76.936-2.95c0 1.6-1.031 2.951-2.249 2.951H18.43c-1.218 0-2.249-1.351-2.249-2.951V57.3a1.418 1.418 0 0 0-2.836 0v21.269h-2.836V4.836h56.717v5.672H19.017a1.418 1.418 0 0 0-1.417 1.418V19.1a5.487 5.487 0 0 0-4.254 5.585v21.271a1.418 1.418 0 1 0 2.836 0V24.687a2.606 2.606 0 0 1 2.169-2.836h15.455a1.175 1.175 0 0 1 .8.33l10.518 9.91a4 4 0 0 0 2.751 1.1h36.367zm0-50.931h-4.254v-8.508h2.836a1.418 1.418 0 0 1 1.418 1.418z" style="fill:#120c5e"/>
        <path data-name="Path 7190" d="M32.418 15.836h28.359a1.418 1.418 0 1 0 0-2.836H32.418a1.418 1.418 0 0 0 0 2.836zm28.359 2.836H39.508a1.418 1.418 0 0 0 0 2.836h21.269a1.418 1.418 0 1 0 0-2.836z" transform="translate(12.122 4.597)" style="fill:#120c5e"/>
        <circle data-name="Ellipse 83" cx="1.418" cy="1.418" r="1.418" transform="translate(13.345 50.21)" style="fill:#120c5e"/>
    </g>
</svg>
