<svg xmlns="http://www.w3.org/2000/svg" width="87.49" height="112.203" viewBox="0 0 87.49 112.203">
  <g id="death_" data-name="death " transform="translate(2380.863 3999.713)">
    <path id="Path_1106" data-name="Path 1106" d="M-2293.374-3943.55q0,24,0,48c0,5.032-2.985,8.036-8,8.036q-35.777,0-71.553,0c-4.935,0-7.937-3.028-7.937-7.986q0-48.114,0-96.228c0-4.944,3.013-7.968,7.949-7.982,2.019-.006,4.038-.01,6.056.009.906.008,1.729.4,1.843,1.31a3.206,3.206,0,0,1-.588,1.994c-.218.323-.929.423-1.422.434-2.055.046-4.112.012-6.168.023a3.577,3.577,0,0,0-3.894,3.914q0,48.45,0,96.9a3.568,3.568,0,0,0,3.839,3.859q36.113.011,72.225,0a3.572,3.572,0,0,0,3.871-3.833c.03-1.869.006-3.739.006-5.608q0-45.422,0-90.845c0-3.117-1.288-4.391-4.443-4.391H-2353.4c-1.861,0-2.758-.607-2.762-1.863s.922-1.9,2.745-1.9q26.019,0,52.039,0c5,0,8,3.021,8,8.043Q-2293.372-3967.607-2293.374-3943.55Z" fill="#1f1967"/>
    <path id="Path_1107" data-name="Path 1107" d="M-2225.314-3931.116c-4.388,0-4.7-.222-6.206-4.393-1.647-4.561-3.275-9.129-4.956-13.677a4.239,4.239,0,0,1,.238-3.758q1.547-2.791,2.994-5.636a3.876,3.876,0,0,1,3.778-2.29c2.764.02,5.528.009,8.292,0a3.779,3.779,0,0,1,3.618,2.179q1.526,2.929,3.1,5.833a4.115,4.115,0,0,1,.227,3.56c-1.875,5.152-3.726,10.313-5.6,15.467a3.7,3.7,0,0,1-3.808,2.71C-2224.193-3931.106-2224.753-3931.115-2225.314-3931.116Zm-.1-25.978c-1.2,0-2.394-.053-3.583.031a1.567,1.567,0,0,0-1.086.651c-.865,1.48-1.606,3.034-2.457,4.523a2.223,2.223,0,0,0-.168,2.085c1.5,4.016,2.941,8.056,4.4,12.089,1.037,2.875,1.032,2.854,4.044,2.829a1.008,1.008,0,0,0,1.12-.792c1.724-4.849,3.49-9.683,5.205-14.534a1.766,1.766,0,0,0-.071-1.242c-.829-1.67-1.762-3.288-2.594-4.957a1.122,1.122,0,0,0-1.224-.695C-2223.025-3957.065-2224.221-3957.093-2225.416-3957.093Z" transform="translate(-111.745 -30.13)" fill="#1f1967"/>
    <path id="Path_1108" data-name="Path 1108" d="M-2286.265-3694.065q13.054,0,26.109,0a9.145,9.145,0,0,1,1.231.031,1.846,1.846,0,0,1,1.619,1.854,1.836,1.836,0,0,1-1.515,1.835,4.392,4.392,0,0,1-1,.05q-26.445,0-52.891,0c-.261,0-.524.012-.784,0a1.9,1.9,0,0,1-1.954-1.89,1.859,1.859,0,0,1,1.958-1.87c1.867-.032,3.735-.009,5.6-.009Z" transform="translate(-50.738 -237.082)" fill="#1f1967"/>
    <path id="Path_1109" data-name="Path 1109" d="M-2286.41-3732.089q-13.167,0-26.333,0a5.518,5.518,0,0,1-1.117-.042,1.748,1.748,0,0,1-1.5-1.708,1.73,1.73,0,0,1,1.262-1.891,3.635,3.635,0,0,1,1.1-.124q26.669-.008,53.339,0a3.885,3.885,0,0,1,1,.082,1.746,1.746,0,0,1,1.406,1.9,1.766,1.766,0,0,1-1.59,1.754,6.51,6.51,0,0,1-1.118.033Q-2273.187-3732.087-2286.41-3732.089Z" transform="translate(-50.803 -204.668)" fill="#1f1967"/>
    <path id="Path_1110" data-name="Path 1110" d="M-2286.292-3652.229q13.01,0,26.02,0a10.489,10.489,0,0,1,1.344.032,1.733,1.733,0,0,1,1.621,1.719,1.722,1.722,0,0,1-1.384,1.911,4.927,4.927,0,0,1-1.221.114q-26.413.007-52.825,0a6.108,6.108,0,0,1-1.115-.067,1.837,1.837,0,0,1-1.575-1.993,1.845,1.845,0,0,1,1.771-1.7c.372-.031.747-.017,1.121-.017Z" transform="translate(-50.752 -269.535)" fill="#1f1967"/>
    <path id="Path_1111" data-name="Path 1111" d="M-2229.07-3802.227c3.4,0,6.8-.005,10.2,0,1.375,0,2.213.689,2.245,1.8.033,1.163-.824,1.938-2.233,1.941q-10.251.016-20.5,0c-1.447,0-2.3-.72-2.305-1.874s.858-1.865,2.293-1.867Q-2234.223-3802.234-2229.07-3802.227Z" transform="translate(-107.971 -153.186)" fill="#1f1967"/>
    <path id="Path_1112" data-name="Path 1112" d="M-2307.976-3584.087c1.08,0,2.161-.024,3.241.006a1.869,1.869,0,0,1,1.945,1.874,1.855,1.855,0,0,1-1.945,1.877q-3.24.056-6.481,0a1.831,1.831,0,0,1-1.929-1.879,1.848,1.848,0,0,1,1.929-1.878c.037,0,.074,0,.112,0Z" transform="translate(-52.527 -322.388)" fill="#1f1967"/>
    <path id="Path_1113" data-name="Path 1113" d="M-2095.1-3584.081c1.081,0,2.161-.019,3.241.006a1.88,1.88,0,0,1,2,1.824,1.88,1.88,0,0,1-2.01,1.932q-3.185.046-6.37,0a1.851,1.851,0,0,1-1.979-1.945,1.851,1.851,0,0,1,1.992-1.813c.521-.018,1.043,0,1.565,0Z" transform="translate(-217.691 -322.395)" fill="#1f1967"/>
  </g>
</svg>
