<svg xmlns="http://www.w3.org/2000/svg" width="128" height="128.002" viewBox="0 0 128 128.002">
  <g id="economy" transform="translate(0)">
    <path id="Path_925" data-name="Path 925" d="M87.006,48A24,24,0,1,0,63,24,24,24,0,0,0,87.006,48Zm0-44A20,20,0,1,1,67,24,20,20,0,0,1,87.006,4Z" fill="#28236d"/>
    <path id="Path_926" data-name="Path 926" d="M89.006,31.333h-4c-1.221,0-2-.658-2-1.111a2,2,0,0,0-4,0c0,2.818,2.692,5.111,6,5.111V38a2,2,0,1,0,4,0V35.333c3.309,0,6-2.293,6-5.111V27.111c0-2.818-2.692-5.111-6-5.111h-4c-1.221,0-2-.658-2-1.111V17.778c0-.453.779-1.111,2-1.111h4c1.221,0,2,.658,2,1.111a2,2,0,1,0,4,0c0-2.818-2.692-5.111-6-5.111V10a2,2,0,0,0-4,0v2.667c-3.309,0-6,2.293-6,5.111v3.111c0,2.818,2.692,5.111,6,5.111h4c1.2,0,2,.668,2,1.111v3.111C91.007,30.675,90.227,31.333,89.006,31.333Zm-18.1,68.813a2,2,0,0,0-1.594,2.337,2.027,2.027,0,0,0,2.336,1.594c2.259-.427,4.178-3.09,4.712-3.9.784-1.184,2.48-4.16,1.286-6.233a2,2,0,0,0-3.6,1.728C74.473,96.737,71.961,99.947,70.911,100.146ZM61.04,71.355a7.154,7.154,0,0,0-1.81-5.694c-1.71-1.769-4.3-2.375-7-2.546ZM72.185,73.6A4.33,4.33,0,0,1,75.2,74.957c.939,1.3,2.363,1.12,3.759.712l4.9-5.025a13.493,13.493,0,0,0-5.209.929c-.268.089-.591.2-.863.278a8.58,8.58,0,0,0-5.378-2.205,4.847,4.847,0,0,0-4.979,5.922,7.378,7.378,0,0,0,.65,1.611c.074.152.173.35.261.541a3.394,3.394,0,0,1-.473.017L71.136,80.8a3.583,3.583,0,0,0,1.108-1.262,3.834,3.834,0,0,0-.167-3.251C71.761,75.521,70.583,73.771,72.185,73.6Zm-45.7,6.741L36.913,69.669q-.426.082-.855.192a13.393,13.393,0,0,0-9.572,10.484ZM45.778,91.433c-2.645-2.392-6.78-1.822-7.7-1.659a6.763,6.763,0,0,1-3.267-.781c-.235-.1-2.635,2.705-2.966,3.032a13.235,13.235,0,0,0,6.41,1.742c1.554-.094,3.551-.54,4.842.637a3.114,3.114,0,0,1,.666,2.7,6.076,6.076,0,0,0,.878,3.47c1.159,2.268.579,4.954,1.095,7.373a13.312,13.312,0,0,0,3.194,6.574c2.227,2.32,5.507,1.64,7.857-.075a24.352,24.352,0,0,0,5.447-5.111,12.84,12.84,0,0,0,2.292-7.034,14.615,14.615,0,0,1,.614-3.723,14.1,14.1,0,0,1,2.33-3.683c.162-.208.326-.423.49-.637l-2.936-2.746c-.227.3-.464.608-.709.923a17.333,17.333,0,0,0-2.939,4.788c-.883,2.452-.592,5.044-1.184,7.541-.655,2.762-3.606,4.878-5.762,6.449-.841.613-1.976,1.2-2.614.538a9.453,9.453,0,0,1-2.167-4.638c-.486-2.273-.063-4.619-.788-6.867-.255-.79-1.2-1.905-1.116-2.752C48.065,94.245,46.852,92.4,45.778,91.433Z" fill="#28236d"/>
    <path id="Path_927" data-name="Path 927" d="M7.573,99.707A40.743,40.743,0,0,1,4,83a41.155,41.155,0,0,1,.332-5.124c1.491.127,4.686.605,4.844,2.365a32.31,32.31,0,0,0,.082,6.117c.358,3.129,2.528,4.988,4.441,6.628l.238.207,2.8-2.867c-.145-.126-.292-.253-.435-.376-1.551-1.329-2.891-2.477-3.07-4.044a28.463,28.463,0,0,1-.06-5.479,1.909,1.909,0,0,0,.006-.224c-.111-3.507-3.133-5.8-8.152-6.282a40.613,40.613,0,0,1,1.137-4.032,4,4,0,0,0,1.052.185l.151,0c2.525,0,4.772-2.289,6.456-4.3,2.921-3.486,8.438-3.319,10.085-8.1A10.337,10.337,0,0,0,24.04,52.5c-.036-.215-.07-.492-.109-.8a16.45,16.45,0,0,0-.682-3.424,40.669,40.669,0,0,1,16.163-5.877c.026.79.294,2.543-.412,3.126-1.145.945-2.666,1.227-3.988,1.831A12.864,12.864,0,0,0,31.2,49.963c-1.618,1.656-1.475,3.085-1.069,3.992a2,2,0,0,0,1.827,1.184,1.971,1.971,0,0,0,1.924-1.518c.513-2.491,3.873-3.226,5.858-4.054,2.992-1.249,3.825-4.526,3.664-7.526C43.933,42.02,44.466,42,45,42a40.93,40.93,0,0,1,9.425,1.1,6.978,6.978,0,0,0-1.214,5.913c.015.059.031.117.051.174a4.7,4.7,0,0,1,.23,1.943c-.022,0-.048,0-.078,0-1.763-.139-9.453-.444-10.075,4.588a2.8,2.8,0,0,0-.032.3,4.627,4.627,0,0,1-.591,2.471,5.585,5.585,0,0,1-.632.358,4.989,4.989,0,0,0-2.111,1.683c-.429.694-1.734,2.806-.633,4.7a3.2,3.2,0,0,0,.936.991L43.3,63.129c-.062-.007-.131-.012-.188-.02.052-.1.117-.223.2-.362.137-.094.422-.243.62-.346a5.639,5.639,0,0,0,1.762-1.239,8.5,8.5,0,0,0,1.612-4.945c.084-.677,2.942-1.327,5.862-1.089.046,0,.092.006.139.007a4.046,4.046,0,0,0,3.4-1.562c1.405-1.936.632-4.791.379-5.574a3.563,3.563,0,0,1,1.66-3.621A41.2,41.2,0,0,1,84.037,70.461l3.121-3.2A45,45,0,1,0,4.585,102.766ZM19.751,50.734c.291,1.673.946,3.977.373,5.643-.346,1.006-1.17,1.756-2.756,2.509-2.411,1.148-4.861,2.23-6.613,4.321a9.9,9.9,0,0,1-3.044,2.78,41.225,41.225,0,0,1,12.04-15.254Zm66.153,35A40.919,40.919,0,0,1,50.72,123.595a5.861,5.861,0,0,0-.476-1.1,14.525,14.525,0,0,0-9.6-6.627c-6.583-1.177-12.827,2.574-14.365,3.588a41.217,41.217,0,0,1-9.375-6.648,4.648,4.648,0,0,0,.757-.636c1.819-1.92,1.615-4.852,1.332-6.429a3.291,3.291,0,0,1-.042-.506l-7.516,7.695A44.978,44.978,0,0,0,90.007,83c0-.481-.021-.956-.036-1.433ZM45,124a40.738,40.738,0,0,1-14.153-2.537,15.433,15.433,0,0,1,9.089-1.661,10.347,10.347,0,0,1,6.43,4.164C45.915,123.982,45.461,124,45,124Z" fill="#28236d"/>
    <path id="Path_928" data-name="Path 928" d="M127.936,35.531a2.021,2.021,0,0,0-2.4-1.468c-.014,0-.028,0-.041.005l-12,3.215a2,2,0,0,0,1.035,3.863l4.97-1.331L72.744,87.776,49.126,65.69a2,2,0,0,0-2.8.063L.569,112.6A2,2,0,0,0,.6,115.431a2.03,2.03,0,0,0,2.828-.033l44.392-45.45,23.62,22.088a2,2,0,0,0,2.8-.065l47.853-49.09-1.233,4.6a2,2,0,0,0,3.864,1.035l3.216-12c.005-.02,0-.039.008-.059a1.906,1.906,0,0,0-.013-.928Z" fill="#28236d"/>
  </g>
</svg>
