<svg xmlns="http://www.w3.org/2000/svg" width="511.756" height="374.996" viewBox="0 0 511.756 374.996">
  <g id="Group_296" data-name="Group 296" transform="translate(-911.697 -428.582)">
    <path id="Path_1724" data-name="Path 1724" d="M1546.269,656.464l-4.015,1.232-2.7-6.242-6.093,1.078-2.782-4.341-2.2,1.408,3.72,5.806,5.774-1.021,2.805,6.493,6.042-1.854Z" transform="translate(-440.105 -156.701)" fill="#50bfa5"/>
    <path id="Path_1725" data-name="Path 1725" d="M2445.18,1440.174l-4.015,1.232-2.7-6.242-6.094,1.078-2.781-4.341-2.2,1.408,3.719,5.806,5.775-1.021,2.805,6.493,6.042-1.854Z" transform="translate(-1081.517 -715.912)" fill="#50bfa5"/>
    <g id="Group_262" data-name="Group 262" transform="translate(1058.109 629.882)">
      <g id="Group_261" data-name="Group 261" transform="translate(0)">
        <path id="Path_1726" data-name="Path 1726" d="M1446.126,1299.585s-21.427-72.624-23.145-88.643,10.262-11.055,10.262-11.055-10.079-30.525-2.791-37.77,13.863,6.26,13.863,6.26,2.206-37.055,9.977-37.069c14.474-.026,14.188,40.413,14.188,40.413s3.694-15.832,11.444-11.491c11.688,6.545-5.073,38.272-5.073,38.272s14.893.011,20.124,7.52C1504.362,1219.494,1446.126,1299.585,1446.126,1299.585Z" transform="translate(-1422.812 -1131.307)" fill="#50bfa5"/>
      </g>
    </g>
    <g id="Group_264" data-name="Group 264" transform="translate(977.287 681.69)">
      <g id="Group_263" data-name="Group 263">
        <path id="Path_1727" data-name="Path 1727" d="M1251.808,1419.022s-61.768-10.329-75.2-21.274-.137-15.88-.137-15.88-31.03-15.907-30.671-26.723,15.775-5.318,15.775-5.318-26.146-29.813-19.956-35.475c11.529-10.546,41.755,20.446,41.755,20.446s-8.975-14.739.477-17.071c14.255-3.517,24.775,32.825,24.775,32.825s-2.673-14.352,7.156-12.44C1233.413,1341.542,1251.808,1419.022,1251.808,1419.022Z" transform="translate(-1140.666 -1312.164)" fill="#50bfa5"/>
      </g>
      <path id="Path_1728" data-name="Path 1728" d="M1218.139,1338.112c-9.853-1.782-7.156,12.44-7.156,12.44s-10.52-36.342-24.775-32.825c-9.452,2.333-.477,17.071-.477,17.071s-30.226-30.992-41.755-20.446l109.985,104.687C1252,1409.041,1234.658,1341.1,1218.139,1338.112Z" transform="translate(-1143.028 -1312.164)" fill="#3c8f7c"/>
    </g>
    <g id="Group_265" data-name="Group 265" transform="translate(972.742 745.998)">
      <path id="Path_1729" data-name="Path 1729" d="M1258.061,1588.084s-32.529-33.081-48.911-36.526-13.435,8.21-13.435,8.21-32.5-28.423-40.033-21.536.615,13.535.615,13.535-27.072-4.8-30.948,4.087c-5.955,13.651,38.569,21.081,38.569,21.081s-18.658,1.293-14.331,9.853C1156.114,1599.7,1258.061,1588.084,1258.061,1588.084Z" transform="translate(-1124.802 -1537.014)" fill="#355389"/>
      <path id="Path_1730" data-name="Path 1730" d="M1126.716,1555.5c3.875-8.884,30.948-4.087,30.948-4.087s-8.147-6.648-.615-13.535,39.022,17.671,39.022,17.671-7.425-14.192,8.957-10.747,54.4,42.928,54.4,42.928Z" transform="translate(-1126.168 -1536.659)" fill="#466eb6"/>
    </g>
    <g id="Group_273" data-name="Group 273" transform="translate(1134.289 438.708)">
      <path id="Path_1731" data-name="Path 1731" d="M1744.908,523.471c-10.949,1.8-14.2,16.173-5.1,22.6a8.352,8.352,0,0,1,3.248,4.834l1.657,6.685a3.64,3.64,0,0,0,4.125,2.716l4.148-.683a3.64,3.64,0,0,0,3.036-3.895c-.575-6.9-1.287-9.405.956-12.483C1763.542,534.242,1755.859,521.669,1744.908,523.471Z" transform="translate(-1721.407 -506.291)" fill="#f7cc7f"/>
      <g id="Group_266" data-name="Group 266" transform="translate(18.607 25.323)">
        <path id="Path_1732" data-name="Path 1732" d="M1759.718,573.405c-.713-5.913-1.714-12.155-2.054-13.926-6.276.346-3.891-6.269-.995-3.579a5.481,5.481,0,0,1,1.472,2.945,16.224,16.224,0,0,0,5.98-1.742,7.7,7.7,0,0,1,.163-3.5c.615-1.409,2.4-1.793,3.128-.42a2.194,2.194,0,0,1,.123,1.722,5.578,5.578,0,0,1-2.792,2.539c.33,4.7.787,9.438,1.363,14.1l-.593.073c-.567-4.59-1.019-9.249-1.348-13.875a16.832,16.832,0,0,1-5.9,1.684c.429,2.263,1.379,8.348,2.048,13.9Zm-5.035-15.32a3.513,3.513,0,0,0,2.856.8,4.855,4.855,0,0,0-1.276-2.55C1754.7,554.89,1753.748,557.077,1754.683,558.086Zm10.149-4.239a6.653,6.653,0,0,0-.134,2.944,4.718,4.718,0,0,0,2.276-2.083,1.353,1.353,0,0,0-.7-1.753C1766.2,552.935,1765.072,553.3,1764.832,553.846Z" transform="translate(-1753.707 -552.332)" fill="#fae0b2"/>
      </g>
      <path id="Path_1733" data-name="Path 1733" d="M1764.159,614c.015.055.035.109.048.165l1.657,6.685a3.64,3.64,0,0,0,4.125,2.716l4.148-.683a3.641,3.641,0,0,0,3.037-3.895c-.256-3.07-.538-5.269-.576-7.036Z" transform="translate(-1742.558 -569.553)" fill="#96d9c9"/>
      <g id="Group_267" data-name="Group 267" transform="translate(11.963 4.444)">
        <path id="Path_1734" data-name="Path 1734" d="M1733.933,487.187l-3.274-5.977a1.194,1.194,0,0,1,2.095-1.147l3.274,5.977a1.194,1.194,0,0,1-2.095,1.147Z" transform="translate(-1730.512 -479.443)" fill="#fae0b2"/>
      </g>
      <g id="Group_268" data-name="Group 268" transform="translate(0 23.637)">
        <path id="Path_1735" data-name="Path 1735" d="M1696.977,549.455l-7.137-.624a1.194,1.194,0,0,1,.209-2.379l7.137.624a1.194,1.194,0,1,1-.208,2.379Z" transform="translate(-1688.75 -546.447)" fill="#fae0b2"/>
      </g>
      <g id="Group_269" data-name="Group 269" transform="translate(0.806 41.958)">
        <path id="Path_1736" data-name="Path 1736" d="M1691.907,616.973a1.194,1.194,0,0,1,.01-1.689,39.057,39.057,0,0,1,5.735-4.677,1.194,1.194,0,1,1,1.327,1.986,36.634,36.634,0,0,0-5.382,4.39A1.194,1.194,0,0,1,1691.907,616.973Z" transform="translate(-1691.562 -610.405)" fill="#fae0b2"/>
      </g>
      <g id="Group_270" data-name="Group 270" transform="translate(32.132)">
        <path id="Path_1737" data-name="Path 1737" d="M1801.805,475.8a1.194,1.194,0,0,1-.846-1.462,45.426,45.426,0,0,0,1.472-9.273,1.194,1.194,0,0,1,2.385.128,47.835,47.835,0,0,1-1.55,9.761A1.194,1.194,0,0,1,1801.805,475.8Z" transform="translate(-1800.919 -463.931)" fill="#fae0b2"/>
      </g>
      <g id="Group_271" data-name="Group 271" transform="translate(40.317 17.265)">
        <path id="Path_1738" data-name="Path 1738" d="M1829.545,527.975a1.194,1.194,0,0,1,.8-1.488l7.42-2.236a1.194,1.194,0,0,1,.69,2.287l-7.42,2.236A1.194,1.194,0,0,1,1829.545,527.975Z" transform="translate(-1829.494 -524.2)" fill="#fae0b2"/>
      </g>
      <g id="Group_272" data-name="Group 272" transform="translate(44.169 35.511)">
        <path id="Path_1739" data-name="Path 1739" d="M1851.328,593.17a1.187,1.187,0,0,1-.324-.045,37.5,37.5,0,0,1-7.43-2.978,1.194,1.194,0,0,1,1.121-2.109,35.1,35.1,0,0,0,6.956,2.788,1.194,1.194,0,0,1-.323,2.344Z" transform="translate(-1842.94 -587.898)" fill="#fae0b2"/>
      </g>
    </g>
    <path id="Path_1740" data-name="Path 1740" d="M2216.206,714.883l-3.743-8.852-9.415-1.934a1.321,1.321,0,0,1-.6-2.292l7.262-6.3-1.069-9.551a1.32,1.32,0,0,1,1.994-1.278l8.231,4.961,8.754-3.968a1.321,1.321,0,0,1,1.832,1.5l-2.174,9.361,6.479,7.1a1.321,1.321,0,0,1-.862,2.206l-9.575.825-4.749,8.356A1.321,1.321,0,0,1,2216.206,714.883Z" transform="translate(-920.682 -182.6)" fill="#f7cc7f"/>
    <path id="Path_1741" data-name="Path 1741" d="M2402.384,684.566l-1.538,6.2-10.245-1.375-3.367,8.783-7.834.225.114,3.966,10.478-.3,3.192-8.323,10.657,1.43,2.315-9.325Z" transform="translate(-1047.269 -182.656)" fill="#f48c7f"/>
    <path id="Path_1742" data-name="Path 1742" d="M1661.422,1638.105H1481.341a12.692,12.692,0,0,1-12.454-12.918v-7.681a12.692,12.692,0,0,1,12.454-12.918h180.081a25.512,25.512,0,0,0-.331,33.125Z" transform="translate(-397.579 -839.132)" fill="#b75742"/>
    <path id="Path_1743" data-name="Path 1743" d="M1851.483,1617.995H1751.6a12.693,12.693,0,0,0-12.454,12.918h0a12.692,12.692,0,0,0,12.454,12.917h99.891A25.628,25.628,0,0,1,1851.483,1617.995Z" transform="translate(-590.422 -848.698)" fill="#fae0b2"/>
    <path id="Path_1744" data-name="Path 1744" d="M1647.271,1520.692a.747.747,0,0,0-.742-1.059h-95.287c-7.469,0-13.523,5.449-13.523,12.171h0c0,6.721,6.054,12.17,13.523,12.17h95.314a.75.75,0,0,0,.743-1.065h0A23.317,23.317,0,0,1,1647.271,1520.692Z" transform="translate(-446.694 -778.512)" fill="#86b1f2"/>
    <path id="Path_1745" data-name="Path 1745" d="M1760.893,1527.54h-47.225c-8.766,0-15.871,4.566-15.871,10.2s7.105,10.2,15.871,10.2H1761.2A23.274,23.274,0,0,1,1760.893,1527.54Z" transform="translate(-560.916 -784.154)" fill="#f7cc7f"/>
    <g id="Group_274" data-name="Group 274" transform="translate(1179.235 748.22)">
      <path id="Path_1746" data-name="Path 1746" d="M1854.2,1544.417h-6.151c-1.323,0-2.395.444-2.395.992v.089h8.545Z" transform="translate(-1845.654 -1544.417)" fill="#b75742"/>
      <path id="Path_1747" data-name="Path 1747" d="M1865.2,1546.9c0-1.374-1.606-2.487-3.588-2.487h-7.892c1.5,0,2.721.844,2.721,1.887l-.037,26.665,4.361-3.429,4.445,3.429Z" transform="translate(-1851.411 -1544.417)" fill="#f47458"/>
    </g>
    <g id="Group_276" data-name="Group 276" transform="translate(1084.771 718.016)">
      <path id="Path_1748" data-name="Path 1748" d="M1698.722,1463.93h-55.443c-4.917,0-8.9-4.73-8.9-10.566h0c0-5.835,3.986-10.566,8.9-10.566h55.443a18.589,18.589,0,0,0-.4,20.531Z" transform="translate(-1600.435 -1441.704)" fill="#fae0b2"/>
      <path id="Path_1749" data-name="Path 1749" d="M1549.835,1450.637h0c0-5.836,4.08-10.566,9.113-10.566h56.284a.514.514,0,0,0,.472-.552h0a.513.513,0,0,0-.472-.542h-89.287c-5.554,0-10.057,5.22-10.057,11.66h0c0,6.44,4.5,11.661,10.057,11.661h89.287a.514.514,0,0,0,.473-.542h0a.516.516,0,0,0-.473-.553h-56.284C1553.915,1461.2,1549.835,1456.473,1549.835,1450.637Z" transform="translate(-1515.888 -1438.977)" fill="#466eb6"/>
      <g id="Group_275" data-name="Group 275" transform="translate(80.061 6.287)">
        <path id="Path_1750" data-name="Path 1750" d="M1803.92,1460.925h-6.151c-1.323,0-2.395.435-2.395.973v.087h8.545Z" transform="translate(-1795.375 -1460.925)" fill="#184655"/>
        <path id="Path_1751" data-name="Path 1751" d="M1814.922,1463.365c0-1.348-1.606-2.439-3.588-2.439h-7.893c1.5,0,2.721.828,2.721,1.85l-.037,26.15,4.361-3.363,4.445,3.363Z" transform="translate(-1801.131 -1460.925)" fill="#3c8f7c"/>
      </g>
    </g>
    <g id="Group_279" data-name="Group 279" transform="translate(1097.875 501.301)">
      <g id="Group_278" data-name="Group 278" transform="translate(101.563 59.295)">
        <path id="Path_1752" data-name="Path 1752" d="M2149.49,891.682l8.185-2.154-5.548,73.991-9.819.328,4.953-69.477A3,3,0,0,1,2149.49,891.682Z" transform="translate(-2077.532 -889.501)" fill="#184655"/>
        <g id="Group_277" data-name="Group 277">
          <path id="Path_1753" data-name="Path 1753" d="M2171.031,965.563a2.663,2.663,0,0,1-.561-.008,3.282,3.282,0,0,1-2.687-3.612l5.448-69.574a2.984,2.984,0,0,1,3.2-2.916,3.281,3.281,0,0,1,2.687,3.611l-5.447,69.574A3.055,3.055,0,0,1,2171.031,965.563Z" transform="translate(-2095.701 -889.435)" fill="#f7cc7f"/>
          <path id="Path_1754" data-name="Path 1754" d="M1916.18,1150.24c0,.051.005.1.01.154h0c.256,2.83,2.45,4.948,4.9,4.728l69.123-6.186c2.449-.219,4.226-2.691,3.97-5.522-.011-.12-.027-.237-.044-.354Z" transform="translate(-1916.18 -1070.406)" fill="#f7cc7f"/>
        </g>
      </g>
      <path id="Path_1755" data-name="Path 1755" d="M1999.883,1423.308c-4.527,2.51-18.361-1.891-18.361-2.289-.2,3.782-15.493,40.791-15.493,40.791l.013,11.387s31.514,1.5,31.06-1.282-2.148-.973-8.434-6.233c-.558-.467-9.385-2.516-7-7.74C1986.481,1447.419,1996.7,1429.876,1999.883,1423.308Z" transform="translate(-1850.186 -1209.448)" fill="#f7a491"/>
      <path id="Path_1756" data-name="Path 1756" d="M1960.025,1575.135l34.5.009c1.245-.127,1.536-1.139,1.1-1.755-.906-1.268-7.517-4.258-11.961-6.241-7.741.9-21.347-2.072-22.593-3.838C1957.787,1567.7,1959.33,1574.992,1960.025,1575.135Z" transform="translate(-1845.206 -1310.98)" fill="#3c8f7c"/>
      <path id="Path_1757" data-name="Path 1757" d="M1935.744,1241.055c-.467-1.4,29.7-14.2,31.05-12.739,2.388,2.587-16.322,51.153-16.322,51.153l21.5,6.568s22.348-56.109,21.415-66.371-12.128-21.924-36.385-14.461S1935.744,1241.055,1935.744,1241.055Z" transform="translate(-1828.493 -1053.766)" fill="#355389"/>
      <path id="Path_1758" data-name="Path 1758" d="M2101.546,1448.1a114.133,114.133,0,0,0-16.976-1.283c.622,4.7,3.647,28.828,3.094,30.31a18.1,18.1,0,0,1-7.207,8.815s23.424,21.135,24.838,18.694-1.044-2.115-2.574-10.167c-.135-.715-3.522-11.955-3.732-18.018C2098.588,1464.889,2101.371,1454.52,2101.546,1448.1Z" transform="translate(-1931.836 -1227.856)" fill="#f7a491"/>
      <path id="Path_1759" data-name="Path 1759" d="M1817.078,1171.939c-3.267-1.743-11.751-1.8-21.079-1.2a214.037,214.037,0,0,0-53.437,10.488l-11.577,3.834.038-11.869s-36.828-6.162-38.109,2.966c-1.93,13.745.465,41.649,12.735,47.878,38.113,19.346,91.523-30.82,91.715-24.257.26,8.814,7.691,41.615,9.591,55.977,5.284.092,14.362.088,18.3-.816C1826.021,1226.808,1826.38,1176.9,1817.078,1171.939Z" transform="translate(-1654.883 -1030.616)" fill="#466eb6"/>
      <path id="Path_1760" data-name="Path 1760" d="M2077.9,1561.793l26.332,21.034c1.043.691,1.91.092,1.959-.663.1-1.555-3.115-8.057-5.3-12.408-6.561-4.206-15.212-15.177-15.057-17.331C2083.064,1554.769,2077.456,1561.242,2077.9,1561.793Z" transform="translate(-1929.995 -1303.213)" fill="#3c8f7c"/>
      <path id="Path_1761" data-name="Path 1761" d="M1649.938,709.04c-.884-8.086-1.816-16.2-8.518-22.127-5.425-4.8-12.321-5.608-19.14-3.042-19.322,7.27-9.366,24.43-34,41.731-7.656,5.376-16.093,9.056-21.857,16.294-8.068,10.133-5.022,22.321,2.331,30.458,35.181,38.935,74.458-13.648,77.278-26.27C1648.126,736.693,1650.507,714.245,1649.938,709.04Z" transform="translate(-1561.631 -682.44)" fill="#13375b"/>
      <path id="Path_1762" data-name="Path 1762" d="M1734.348,890.478a107.429,107.429,0,0,0-5.834-9.5c-2.981-5.3-10.682-7.979-10.682-7.979s-2.576.052-5.534.2a2.342,2.342,0,0,1-.558.982c-1.112.834-7.482-.243-11.6,2.551-13.792,11.823-9.978,69.127-8.893,87.226l42,.4s-5.3-38.944,3.239-48.949C1742.436,908.434,1738.611,898.337,1734.348,890.478Z" transform="translate(-1653.185 -818.411)" fill="#50bfa5"/>
      <path id="Path_1763" data-name="Path 1763" d="M1768.691,800.274s-2.309,16.489-3.921,20.5,8.867,12.577,17.586,15.178-2.665-8.851-2.3-13.135S1782,798.249,1782,798.249Z" transform="translate(-1706.461 -765.075)" fill="#f7a491"/>
      <path id="Path_1764" data-name="Path 1764" d="M1789.978,804.065c.255-3.355.44-5.816.44-5.816l-13.307,2.026s-.336,1.937-.707,4.676C1781.8,808.081,1786.65,807.093,1789.978,804.065Z" transform="translate(-1714.881 -765.075)" fill="#f47458"/>
      <path id="Path_1765" data-name="Path 1765" d="M1765.646,699.809a15.118,15.118,0,0,0-8.484,6.125c-3.238,4.943-5.461,19.493,5.207,26.284s18.962-2.815,19.1-12.186S1779.6,698.156,1765.646,699.809Z" transform="translate(-1699.243 -694.727)" fill="#f7a491"/>
      <path id="Path_1766" data-name="Path 1766" d="M1844.035,747.671c-.91,2.261-2.715,3.664-4.033,3.134s-1.647-2.793-.737-5.054,2.715-3.664,4.033-3.134S1844.945,745.41,1844.035,747.671Z" transform="translate(-1759.368 -725.299)" fill="#f7a491"/>
      <path id="Path_1767" data-name="Path 1767" d="M1753.218,699.1s-6.687,15-12.562,16.339-5.79,8.887-5.79,8.887S1735,706.9,1740.5,702.9,1753.218,699.1,1753.218,699.1Z" transform="translate(-1685.241 -694.328)" fill="#13375b"/>
      <path id="Path_1768" data-name="Path 1768" d="M1747.6,758.146c.773,2.436.065,4.834-1.581,5.357s-3.608-1.028-4.381-3.464-.066-4.834,1.581-5.357S1746.821,755.711,1747.6,758.146Z" transform="translate(-1689.846 -733.916)" fill="#f7a491"/>
      <path id="Path_1769" data-name="Path 1769" d="M1810.815,1029.7c-2.521-.911-6.272-1.024-6.209-1.358.253-1.347,11.386,2.972,9.882,1.008-.837-1.094-9.169-4.97-11.2-4.329-1.965.62-14.868,4.242-14.868,4.242L1753.159,1021s-8.9-20.227-9.77-37.605a48.467,48.467,0,0,0-18.762,6.362c3.084,16.619,10.58,43.558,18.866,48.613,3.485,2.126,45.107-2.545,45.107-2.545s9.172-.648,10.671-1.225c1.137-.437,4.063-2.085,5.655-2.536,3.619-1.025,10.066,1.548,10.086.84C1815.026,1032.386,1813.39,1030.632,1810.815,1029.7Z" transform="translate(-1677.936 -897.183)" fill="#f7a491"/>
      <path id="Path_1770" data-name="Path 1770" d="M1734.515,887.237c-.339-5.348-2.364-10.51-8.055-12.173a11.52,11.52,0,0,0-10.3,2.257c-3.352,2.738-4.288,7.131-4.273,11.288a161.4,161.4,0,0,0,2.4,28.521,61.022,61.022,0,0,1,21.218-6.677C1735.505,910.4,1734.964,894.3,1734.515,887.237Z" transform="translate(-1668.845 -819.595)" fill="#96d9c9"/>
    </g>
    <g id="Group_280" data-name="Group 280" transform="translate(997.773 524.28)">
      <path id="Path_1771" data-name="Path 1771" d="M1269.149,826.831l-54.672-10.181a2.023,2.023,0,0,1-1.618-2.359l6.849-36.78a2.023,2.023,0,0,1,2.358-1.618l54.672,10.181a2.023,2.023,0,0,1,1.618,2.359l-6.849,36.78A2.022,2.022,0,0,1,1269.149,826.831Z" transform="translate(-1212.64 -772.078)" fill="#f7cc7f"/>
      <path id="Path_1772" data-name="Path 1772" d="M1273.029,775.365l-16.642-3.1a2.022,2.022,0,0,1-1.618-2.358l1.042-5.6a2.022,2.022,0,0,1,2.358-1.618l16.642,3.1a2.022,2.022,0,0,1,1.618,2.358l-1.042,5.6A2.023,2.023,0,0,1,1273.029,775.365Z" transform="translate(-1242.545 -762.659)" fill="#f7cc7f"/>
      <path id="Path_1773" data-name="Path 1773" d="M1271.181,834.833a2.023,2.023,0,0,1-2.317,1.439l-55.03-10.247a2.023,2.023,0,0,1-1.644-2.164l2.88-32.969a2.023,2.023,0,0,1,2.385-1.812l61.133,11.384a2.022,2.022,0,0,1,1.576,2.537Z" transform="translate(-1212.182 -781.487)" fill="#fae0b2"/>
    </g>
    <g id="Group_281" data-name="Group 281" transform="translate(1296.156 447.828)">
      <path id="Path_1774" data-name="Path 1774" d="M2265.2,505.1l-9.362,2.556-2.017-11.345,3.064-.544,1.42,7.991,6.075-1.659Z" transform="translate(-2253.817 -495.769)" fill="#50bfa5"/>
    </g>
    <g id="Group_282" data-name="Group 282" transform="translate(1007.597 610.767)">
      <path id="Path_1775" data-name="Path 1775" d="M1252.313,1072.219a14.48,14.48,0,0,1,7.558,1.937,10.932,10.932,0,0,1,4.028,4.162l-.434.3a9.83,9.83,0,0,0-5.036-3.1,12.123,12.123,0,0,0-5.619-.055Z" transform="translate(-1250.641 -1070.014)" fill="#355389"/>
      <path id="Path_1776" data-name="Path 1776" d="M1259.517,1073.032s-14.285,2.384-12.953,13.543,16.4,19.842,29.852,12.939c18.094-9.285,10.947-32.89-1.931-34.715S1259.517,1073.032,1259.517,1073.032Z" transform="translate(-1246.477 -1064.578)" fill="#f47458"/>
      <path id="Path_1777" data-name="Path 1777" d="M1309.289,1072.434s3.726-3.826,11.892-.345,8.757,19.714,1.474,18.771S1303.465,1074.776,1309.289,1072.434Z" transform="translate(-1290.188 -1068.894)" fill="#f48c7f"/>
    </g>
    <g id="Group_285" data-name="Group 285" transform="translate(1050.507 428.582)">
      <path id="Path_1778" data-name="Path 1778" d="M1470.736,466.053l-58.753,20.958a3.64,3.64,0,0,1-4.652-2.206l-10.844-30.4a3.641,3.641,0,0,1,2.206-4.652l58.753-20.958A3.641,3.641,0,0,1,1462.1,431l10.844,30.4A3.64,3.64,0,0,1,1470.736,466.053Z" transform="translate(-1396.275 -428.582)" fill="#86b1f2"/>
      <path id="Path_1779" data-name="Path 1779" d="M1463.943,512.845a11.643,11.643,0,1,1-14.878-7.054A11.643,11.643,0,0,1,1463.943,512.845Z" transform="translate(-1428.423 -483.189)" fill="#fff"/>
      <path id="Path_1780" data-name="Path 1780" d="M1471.2,520.741a3.433,3.433,0,1,1-4.387-2.08A3.433,3.433,0,0,1,1471.2,520.741Z" transform="translate(-1444.98 -492.714)" fill="#86b1f2"/>
      <path id="Rectangle_171" data-name="Rectangle 171" d="M5.3,0h.374a5.3,5.3,0,0,1,5.3,5.3v0a0,0,0,0,1,0,0H0a0,0,0,0,1,0,0v0A5.3,5.3,0,0,1,5.3,0Z" transform="translate(19.701 36.296) rotate(-19.632)" fill="#86b1f2"/>
      <g id="Group_283" data-name="Group 283" transform="translate(35.482 11.17)">
        <path id="Path_1781" data-name="Path 1781" d="M1521.625,479.706a1.485,1.485,0,0,1-.5-2.883l25.683-9.162a1.485,1.485,0,0,1,1,2.8l-25.683,9.161A1.479,1.479,0,0,1,1521.625,479.706Z" transform="translate(-1520.141 -467.574)" fill="#fff"/>
      </g>
      <g id="Group_284" data-name="Group 284" transform="translate(42.415 19.578)">
        <path id="Path_1782" data-name="Path 1782" d="M1545.828,507.054a1.485,1.485,0,0,1-.5-2.884l20.059-7.155a1.485,1.485,0,0,1,1,2.8l-20.059,7.155A1.484,1.484,0,0,1,1545.828,507.054Z" transform="translate(-1544.344 -496.928)" fill="#fff"/>
      </g>
    </g>
    <path id="Path_1783" data-name="Path 1783" d="M1601.65,1359.874H1459.785a7.976,7.976,0,0,0-7.976,7.977v6.709a7.976,7.976,0,0,0,7.976,7.976H1601.65l-.074-.077A16.243,16.243,0,0,1,1601.65,1359.874Z" transform="translate(-385.393 -664.517)" fill="#f47458"/>
    <path id="Path_1784" data-name="Path 1784" d="M1757.349,1371.585H1681.51a7.976,7.976,0,0,0-7.976,7.977h0a7.976,7.976,0,0,0,7.976,7.976h75.837A16.266,16.266,0,0,1,1757.349,1371.585Z" transform="translate(-543.604 -672.874)" fill="#fae0b2"/>
    <g id="Group_289" data-name="Group 289" transform="translate(1321.422 649.98)">
      <g id="Group_287" data-name="Group 287">
        <path id="Path_1785" data-name="Path 1785" d="M2352.961,1247.5l-10.753-26.979a2.645,2.645,0,0,1,1.478-3.437l38.7-15.423a2.645,2.645,0,0,1,3.437,1.478l10.754,26.98a2.646,2.646,0,0,1-1.478,3.437l-38.7,15.423A2.646,2.646,0,0,1,2352.961,1247.5Z" transform="translate(-2342.019 -1201.469)" fill="#fae0b2"/>
        <path id="Path_1786" data-name="Path 1786" d="M2483.443,1244.711l-9.663-24.244a.759.759,0,0,1,.424-.987h0a.759.759,0,0,1,.986.424l9.663,24.244a.759.759,0,0,1-.424.986h0A.759.759,0,0,1,2483.443,1244.711Z" transform="translate(-2435.997 -1214.283)" fill="#466eb6"/>
        <path id="Path_1787" data-name="Path 1787" d="M2471.678,1244.372l-7.934-19.905a.759.759,0,0,1,.424-.986h0a.76.76,0,0,1,.986.424l7.933,19.905a.759.759,0,0,1-.424.986h0A.759.759,0,0,1,2471.678,1244.372Z" transform="translate(-2428.837 -1217.137)" fill="#466eb6"/>
        <path id="Path_1788" data-name="Path 1788" d="M2463.373,1252.711l-9.664-24.244a.76.76,0,0,1,.425-.986h0a.759.759,0,0,1,.986.424l9.663,24.244a.759.759,0,0,1-.425.986h0A.759.759,0,0,1,2463.373,1252.711Z" transform="translate(-2421.677 -1219.991)" fill="#466eb6"/>
        <path id="Path_1789" data-name="Path 1789" d="M2451.133,1251.179l-7.458-18.712a.759.759,0,0,1,.424-.986h0a.759.759,0,0,1,.986.424l7.459,18.712a.759.759,0,0,1-.424.986h0A.759.759,0,0,1,2451.133,1251.179Z" transform="translate(-2414.516 -1222.845)" fill="#466eb6"/>
        <g id="Group_286" data-name="Group 286" transform="translate(42.68 2.886)">
          <path id="Path_1790" data-name="Path 1790" d="M2495.517,1212.256l-.194-.488a.34.34,0,0,0-.436-.2l-3.673,1.464a.34.34,0,0,0-.176.447l.194.488a.341.341,0,0,0,.436.2l3.672-1.464A.34.34,0,0,0,2495.517,1212.256Z" transform="translate(-2491.011 -1211.542)" fill="#355389"/>
          <path id="Path_1791" data-name="Path 1791" d="M2498.423,1219.546l-.2-.488a.34.34,0,0,0-.436-.2l-3.673,1.464a.34.34,0,0,0-.176.447l.194.488a.34.34,0,0,0,.436.2l3.673-1.464A.341.341,0,0,0,2498.423,1219.546Z" transform="translate(-2493.085 -1216.744)" fill="#355389"/>
          <path id="Path_1792" data-name="Path 1792" d="M2501.328,1226.835l-.194-.488a.34.34,0,0,0-.436-.2l-3.673,1.464a.339.339,0,0,0-.176.447l.194.488a.34.34,0,0,0,.436.2l3.672-1.464A.34.34,0,0,0,2501.328,1226.835Z" transform="translate(-2495.158 -1221.945)" fill="#355389"/>
          <path id="Path_1793" data-name="Path 1793" d="M2504.233,1234.125l-.194-.488a.34.34,0,0,0-.436-.2l-3.672,1.464a.341.341,0,0,0-.177.447l.2.488a.34.34,0,0,0,.436.2l3.672-1.464A.34.34,0,0,0,2504.233,1234.125Z" transform="translate(-2497.231 -1227.146)" fill="#355389"/>
          <path id="Path_1794" data-name="Path 1794" d="M2507.139,1241.414l-.195-.488a.339.339,0,0,0-.435-.2l-3.673,1.464a.341.341,0,0,0-.176.447l.195.488a.34.34,0,0,0,.436.2l3.673-1.464A.34.34,0,0,0,2507.139,1241.414Z" transform="translate(-2499.304 -1232.348)" fill="#355389"/>
          <path id="Path_1795" data-name="Path 1795" d="M2510.044,1248.7l-.194-.488a.341.341,0,0,0-.436-.2l-3.672,1.464a.34.34,0,0,0-.176.448l.194.488a.34.34,0,0,0,.436.2l3.673-1.464A.34.34,0,0,0,2510.044,1248.7Z" transform="translate(-2501.377 -1237.549)" fill="#355389"/>
          <path id="Path_1796" data-name="Path 1796" d="M2512.95,1255.993l-.195-.488a.34.34,0,0,0-.436-.2l-3.673,1.464a.34.34,0,0,0-.176.448l.194.488a.34.34,0,0,0,.436.2l3.673-1.464A.34.34,0,0,0,2512.95,1255.993Z" transform="translate(-2503.45 -1242.75)" fill="#355389"/>
          <path id="Path_1797" data-name="Path 1797" d="M2515.854,1263.283l-.195-.488a.34.34,0,0,0-.435-.2l-3.672,1.464a.34.34,0,0,0-.177.447l.195.488a.34.34,0,0,0,.436.2l3.672-1.464A.34.34,0,0,0,2515.854,1263.283Z" transform="translate(-2505.523 -1247.952)" fill="#355389"/>
          <path id="Path_1798" data-name="Path 1798" d="M2518.761,1270.572l-.194-.488a.341.341,0,0,0-.436-.2l-3.673,1.464a.34.34,0,0,0-.176.447l.194.488a.341.341,0,0,0,.436.2l3.672-1.464A.34.34,0,0,0,2518.761,1270.572Z" transform="translate(-2507.597 -1253.154)" fill="#355389"/>
          <path id="Path_1799" data-name="Path 1799" d="M2521.666,1277.862l-.194-.488a.34.34,0,0,0-.436-.2l-3.673,1.464a.34.34,0,0,0-.176.447l.194.488a.34.34,0,0,0,.436.2l3.673-1.463A.341.341,0,0,0,2521.666,1277.862Z" transform="translate(-2509.67 -1258.355)" fill="#355389"/>
          <path id="Path_1800" data-name="Path 1800" d="M2524.571,1285.152l-.195-.488a.339.339,0,0,0-.435-.2l-3.673,1.464a.341.341,0,0,0-.177.447l.2.489a.34.34,0,0,0,.435.2l3.673-1.464A.34.34,0,0,0,2524.571,1285.152Z" transform="translate(-2511.743 -1263.557)" fill="#355389"/>
          <path id="Path_1801" data-name="Path 1801" d="M2527.478,1292.441l-.194-.488a.34.34,0,0,0-.436-.2l-3.672,1.464a.34.34,0,0,0-.176.448l.194.488a.34.34,0,0,0,.436.2l3.673-1.464A.34.34,0,0,0,2527.478,1292.441Z" transform="translate(-2513.817 -1268.758)" fill="#355389"/>
        </g>
      </g>
      <g id="Group_288" data-name="Group 288" transform="translate(49.453 24.164)">
        <path id="Path_1802" data-name="Path 1802" d="M2531.689,1286.078l-15.358,21.869a.6.6,0,0,0-.08.159l-1.565,4.805a.6.6,0,0,0,.934.667l4.111-3.1a.609.609,0,0,0,.13-.135l15.4-21.925a.6.6,0,0,0-.168-.853l-2.585-1.651A.6.6,0,0,0,2531.689,1286.078Z" transform="translate(-2514.654 -1285.823)" fill="#b75742"/>
        <path id="Path_1803" data-name="Path 1803" d="M2520.1,1365.948l-.038.054-3.966,2.989-1.082-.724,1.484-4.554A18.481,18.481,0,0,1,2520.1,1365.948Z" transform="translate(-2514.914 -1341.401)" fill="#f7cc7f"/>
      </g>
    </g>
    <g id="Group_290" data-name="Group 290" transform="translate(1218.46 433.906)">
      <path id="Path_1804" data-name="Path 1804" d="M2004.733,460.248c2.211,1.764,6.056,7.442,10.963,11.428,2.871,2.331,5.081,1.738,8.745,2.181,17.383,2.1,12.673,5.654,14.757,6-.592,1.363-6.008,12.875-7.02,15.2a4.241,4.241,0,0,1-4.885,2.783c-3.595-.5-7.222-.867-10.761-1.634-9.072-1.967-14.12-6.5-20.622-12.015a4.251,4.251,0,0,1-1.255-5.352A147.527,147.527,0,0,1,2004.733,460.248Z" transform="translate(-1990.872 -456.501)" fill="#466eb6"/>
      <path id="Path_1805" data-name="Path 1805" d="M2032.794,484.376c-.078,3.788.212,4.548-1.415,3.974a22.872,22.872,0,0,1-2.853-1.274c-.652-.337-.677-.781-.147-1.314.772-.775,1.564-1.529,2.336-2.282a3.354,3.354,0,0,1,1.472-4.028c.284-.166.076.186,2.5-5.385-8.005-.988-13.654-1.65-23.42-2.851a13.138,13.138,0,0,1-6.953-3.026q-10.464-8.755-20.922-17.517a1.93,1.93,0,0,1-.315-2.848,2.185,2.185,0,0,1,2.153-.614c2.229.279,24.084,2.994,26.3,3.254a14.369,14.369,0,0,1,7.737,3.326q10.28,8.608,20.586,17.185c.942.786,1.2,1.507.866,2.382a1.841,1.841,0,0,1-2.356,1.16c-.866-.187-1.249.075-1.547.876-1.346,3.623-2.285,4.425-1.96,5.748C2035.1,482.165,2033.891,483.933,2032.794,484.376Z" transform="translate(-1982.585 -447.169)" fill="#86b1f2"/>
    </g>
    <g id="Group_292" data-name="Group 292" transform="translate(1304.844 718.205)">
      <path id="Path_1806" data-name="Path 1806" d="M2284.428,1450.346l3.983,3.8a105.877,105.877,0,0,1,22.662,31.4l.61,1.292s10.43.922,11.886-8.508h0a157.593,157.593,0,0,1-22.9-33.63l-1.885-4.41Z" transform="translate(-2284.347 -1440.103)" fill="#466eb6"/>
      <path id="Path_1807" data-name="Path 1807" d="M2298.575,1439.811c.512.734-2.285,3.569-6.248,6.333s-7.608,4.442-8.12,3.709,2.3-3.6,6.266-6.367S2298.063,1439.077,2298.575,1439.811Z" transform="translate(-2284.147 -1439.637)" fill="#86b1f2"/>
      <path id="Path_1808" data-name="Path 1808" d="M2306.613,1440.3l-.012-.014s-7.939,6.72-11.212,7.406l1.011,1.375a41.912,41.912,0,0,0,3.949-2.46C2304.266,1443.878,2307.043,1441.076,2306.613,1440.3Z" transform="translate(-2292.168 -1440.102)" fill="#355389"/>
      <g id="Group_291" data-name="Group 291" transform="translate(4.807 19.712)">
        <path id="Path_1809" data-name="Path 1809" d="M2349.809,1508.449c.015,1.159-.428,6.158-8.747,8.245q.822,1.118,1.613,2.257c5.266-1.557,7.634-4.26,8.7-6.318.168-.325.372-.763.506-1.1Q2350.826,1510,2349.809,1508.449Z" transform="translate(-2329.565 -1508.449)" fill="#b75742"/>
        <path id="Path_1810" data-name="Path 1810" d="M2313.172,1530.981l-12.242-.438,2.9,2.462-1.733,3.146,11.587-2.954Z" transform="translate(-2300.929 -1524.214)" fill="#b75742"/>
        <path id="Path_1811" data-name="Path 1811" d="M2336.727,1542.01l-4.35,7.578,3.059-1.165,1.178,2.406,2.044-7.969Z" transform="translate(-2323.369 -1532.396)" fill="#b75742"/>
        <path id="Path_1812" data-name="Path 1812" d="M2342.931,1529.176a4.022,4.022,0,1,1,3.609-4.286A3.963,3.963,0,0,1,2342.931,1529.176Z" transform="translate(-2327.912 -1517.508)" fill="#f47458"/>
      </g>
    </g>
    <g id="Group_294" data-name="Group 294" transform="translate(1323.952 536.612)">
      <path id="Path_1813" data-name="Path 1813" d="M2377.557,846.757l-25.781-23.006c-1.675-1.5-.978-4.571,1.333-5.88l20.576-11.651a3.216,3.216,0,0,1,3.756.176l25.781,23.005c1.675,1.5.978,4.571-1.333,5.88l-20.576,11.65A3.216,3.216,0,0,1,2377.557,846.757Z" transform="translate(-2350.852 -805.706)" fill="#9bc1f9"/>
      <g id="Group_293" data-name="Group 293" transform="translate(23.326 3.398)">
        <path id="Path_1814" data-name="Path 1814" d="M2434.438,836.921l-2.149-17.675a1.585,1.585,0,0,1,1.1-1.615,1.023,1.023,0,0,1,1.4.836l1.978,16.265,19.55,4.727a1.08,1.08,0,0,1,.656,1.536,1.516,1.516,0,0,1-1.656.976Z" transform="translate(-2432.28 -817.569)" fill="#fff"/>
      </g>
    </g>
    <g id="Group_295" data-name="Group 295" transform="translate(911.697 798.761)">
      <path id="Path_1815" data-name="Path 1815" d="M914.2,1720.853a2.716,2.716,0,0,0-2.5,2.891c0,1.6,1.119,2.891,2.8.951h507.777c.65,0,1.178-.853,1.182-1.909h0c0-1.066-.526-1.933-1.182-1.933Z" transform="translate(-911.697 -1720.853)" fill="#184655"/>
    </g>
    <path id="Path_1816" data-name="Path 1816" d="M1249.672,602.494l2.665,5.271,6.021-.195,2.569,6.121,6.349-2.185,3.211,6.794,6.094-1.291,4.157,6.031-2.282,1.574-3.109-4.509-6.43,1.362-3.086-6.53-6.455,2.221-2.835-6.754-5.879.19-2.47-4.886-3.835.933-.655-2.694Z" transform="translate(-236.898 -124.094)" fill="#f7cc7f"/>
    <path id="Path_1817" data-name="Path 1817" d="M2381.26,1056.5l5.472,2.224,4.411-4.1,5.958,2.927,3.351-5.818,6.883,3.013,3.747-4.977,7.1,1.816-.687,2.686-5.306-1.358-3.954,5.251-6.617-2.9-3.407,5.915-6.574-3.23-4.308,4.005-5.072-2.062-2.279,3.222-2.264-1.6Z" transform="translate(-1046.065 -443.243)" fill="#50bfa5"/>
  </g>
</svg>
