<svg xmlns="http://www.w3.org/2000/svg" width="105.71" height="112.203" viewBox="0 0 105.71 112.203">
  <g id="familyreg" transform="translate(1717.869 2628.267)">
    <path id="Path_1066" data-name="Path 1066" d="M-1548.877-2626.193h-53.691c-1.461,0-2.121.665-2.128,2.147-.007,1.646,0,3.291,0,4.936,0,.831-.351,1.265-1,1.276-.676.012-1.063-.45-1.065-1.3,0-1.76-.015-3.519,0-5.279a3.772,3.772,0,0,1,3.871-3.855q27.353-.01,54.706.02a2.143,2.143,0,0,1,1.371.578q15.006,15.094,29.951,30.25a1.99,1.99,0,0,1,.519,1.265q.044,13.025.019,26.051c0,.794-.4,1.255-1.04,1.256-.672,0-1.043-.453-1.043-1.318q0-12,0-23.994c0-.386,0-.772,0-1.279h-.834c-8.432,0-16.865-.047-25.3.027a4.123,4.123,0,0,1-4.351-4.352c.049-8.5.019-17,.019-25.5Zm2.154,1.565c-.03.236-.051.323-.051.409q0,12.4.005,24.808a1.766,1.766,0,0,0,1.957,1.885q12.1.005,24.191,0c.189,0,.378-.03.676-.055Z" transform="translate(-95.862)" fill="#1f1967"/>
    <path id="Path_1067" data-name="Path 1067" d="M-1561.552-2067.334q-20.459,0-40.918,0c-2.762,0-4.265-1.515-4.265-4.289q0-17.546,0-35.093a2.749,2.749,0,0,1,.036-.681.962.962,0,0,1,1.049-.793.941.941,0,0,1,.963.886,5.665,5.665,0,0,1,.019.753q0,17.34,0,34.681a6.009,6.009,0,0,0,.047.956,1.728,1.728,0,0,0,1.627,1.5c.3.024.594.009.891.009h81.082c.228,0,.457,0,.685,0a1.8,1.8,0,0,0,1.947-1.978c.01-1.371,0-2.742,0-4.113,0-.869.37-1.316,1.047-1.31s1.034.453,1.037,1.326c0,1.188-.071,2.381.016,3.563.2,2.778-1.681,4.639-4.631,4.621C-1534.456-2067.379-1548-2067.334-1561.552-2067.334Z" transform="translate(-95.897 -448.766)" fill="#1f1967"/>
    <path id="Path_1069" data-name="Path 1069" d="M-1701.579-2528.668a16.289,16.289,0,0,1,16.224,16.521,16.323,16.323,0,0,1-16.24,16.312,16.36,16.36,0,0,1-16.274-16.637A16.332,16.332,0,0,1-1701.579-2528.668Zm0,2.089a14.287,14.287,0,0,0-14.226,14.3,14.355,14.355,0,0,0,14.175,14.376,14.312,14.312,0,0,0,14.208-14.325A14.246,14.246,0,0,0-1701.579-2526.579Z" transform="translate(0 -85.943)" fill="#1f1967"/>
    <path id="Path_1070" data-name="Path 1070" d="M-1484.8-2270.147h-31.257a6.79,6.79,0,0,1-.753-.015.981.981,0,0,1-.937-1,1.019,1.019,0,0,1,.961-1.052,6.032,6.032,0,0,1,.616-.008h62.925a3.168,3.168,0,0,1,.615.019.966.966,0,0,1,.856,1.065.935.935,0,0,1-.879.969,5.785,5.785,0,0,1-.821.022Z" transform="translate(-172.679 -307.222)" fill="#1f1967"/>
    <path id="Path_1071" data-name="Path 1071" d="M-1484.817-2183.277h-30.914c-.343,0-.687.014-1.028-.009a1.028,1.028,0,0,1-1.009-1.008,1.028,1.028,0,0,1,1.033-1.051c.182-.013.365,0,.548,0h62.856a5.132,5.132,0,0,1,.616.012.953.953,0,0,1,.924,1,.963.963,0,0,1-.881,1.044,3.42,3.42,0,0,1-.615.016Z" transform="translate(-172.665 -382.185)" fill="#1f1967"/>
    <path id="Path_1072" data-name="Path 1072" d="M-1490.1-2011.84q12.881,0,25.762,0a6.322,6.322,0,0,1,1.023.047.937.937,0,0,1,.842,1,.967.967,0,0,1-.839,1.014,2.87,2.87,0,0,1-.613.035q-26.139,0-52.277,0a2.935,2.935,0,0,1-.615-.02.993.993,0,0,1-.876-1.059.975.975,0,0,1,.874-.988,4.16,4.16,0,0,1,.751-.031Z" transform="translate(-172.727 -531.907)" fill="#1f1967"/>
    <path id="Path_1073" data-name="Path 1073" d="M-1646.969-2260.894c1.293-.9,2.464-1.724,3.636-2.542,1.089-.76,1.192-.757,2.291.02l3.521,2.486c.015-.331.034-.563.034-.8q0-8.978,0-17.956a3.083,3.083,0,0,1,.053-.748.953.953,0,0,1,1.053-.784.946.946,0,0,1,.959.892,4.347,4.347,0,0,1,.02.616q0,10.212,0,20.424c0,.517,0,1.023-.534,1.311-.556.3-1,.032-1.444-.287-1.468-1.049-2.952-2.074-4.413-3.133a.6.6,0,0,0-.835,0c-1.5,1.079-3.027,2.126-4.535,3.2a1.213,1.213,0,0,1-1.332.243c-.5-.254-.559-.717-.559-1.226q.01-10.383,0-20.766c0-.52.083-1.031.622-1.161a1.418,1.418,0,0,1,1.109.209,1.521,1.521,0,0,1,.332,1.047c.025,2.97.014,5.939.014,8.909v10.05Z" transform="translate(-59.386 -299.466)" fill="#1f1967"/>
    <path id="Path_1074" data-name="Path 1074" d="M-1428.138-2357.014h-27.145a6.8,6.8,0,0,1-.753-.014.937.937,0,0,1-.91-.94.976.976,0,0,1,.831-1.089,2.949,2.949,0,0,1,.682-.026h54.633a3.226,3.226,0,0,1,.615.017.971.971,0,0,1,.875,1.052.936.936,0,0,1-.929.99c-.249.025-.5.011-.753.011Z" transform="translate(-225.145 -232.269)" fill="#1f1967"/>
    <path id="Path_1075" data-name="Path 1075" d="M-1490.1-2098.529h25.968c1.106,0,1.6.323,1.587,1.047s-.494,1.034-1.606,1.034h-52c-1.113,0-1.609-.309-1.63-1.019-.022-.728.5-1.062,1.648-1.062Z" transform="translate(-172.651 -457.104)" fill="#1f1967"/>
    <path id="Path_1076" data-name="Path 1076" d="M-1440.252-2443.864q-7.47,0-14.94,0c-.249,0-.57.05-.731-.08-.291-.236-.672-.589-.672-.894a1.617,1.617,0,0,1,.615-1c.182-.159.566-.115.859-.115q14.837-.008,29.674,0a3.32,3.32,0,0,1,.682.04.972.972,0,0,1,.844,1.016.977.977,0,0,1-.912,1.023,4.658,4.658,0,0,1-.684.019Z" transform="translate(-225.45 -157.307)" fill="#1f1967"/>
    <path id="Path_1078" data-name="Path 1078" d="M-1503.8-1923.147h-12.4a4.138,4.138,0,0,1-.616-.013.959.959,0,0,1-.885-.972.977.977,0,0,1,.864-1.063,2.363,2.363,0,0,1,.478-.014h25.146a2.187,2.187,0,0,1,.478.016.969.969,0,0,1,.844,1.073.942.942,0,0,1-.889.959,4.348,4.348,0,0,1-.616.013Z" transform="translate(-172.721 -606.655)" fill="#1f1967"/>
    <path id="Path_1080" data-name="Path 1080" d="M-1332.211-2532.674q3.355,0,6.71,0a5.14,5.14,0,0,1,.684.021.96.96,0,0,1,.914,1.014.989.989,0,0,1-.9,1.036,3.391,3.391,0,0,1-.615.018q-6.882,0-13.763,0a3.094,3.094,0,0,1-.614-.025.985.985,0,0,1-.883-1.05.959.959,0,0,1,.938-.992,9.132,9.132,0,0,1,.958-.022Q-1335.5-2532.675-1332.211-2532.674Z" transform="translate(-325.471 -82.485)" fill="#1f1967"/>
    <path id="Path_1083" data-name="Path 1083" d="M-1656.059-2442.29a8.722,8.722,0,0,1-8.192-5.509,8.727,8.727,0,0,1,1.685-9.74c.563-.642,1.171-.707,1.664-.243.455.428.415,1.041-.109,1.631l-.137.153a6.975,6.975,0,0,0,.207,9.517,6.787,6.787,0,0,0,7.564,1.563c.105-.044.206-.1.313-.138a1.064,1.064,0,0,1,1.4.47,1.042,1.042,0,0,1-.549,1.427A8.543,8.543,0,0,1-1656.059-2442.29Z" transform="translate(-45.577 -146.849)" fill="#1f1967"/>
    <path id="Path_1084" data-name="Path 1084" d="M-1585.887-2464.738c-.259,1.122-.478,2.259-.794,3.368a1.042,1.042,0,0,1-1.385.853c-.632-.216-.839-.8-.562-1.58,1.378-3.9-.294-7.813-3.94-9.207-.3-.114-.61-.184-.915-.28a1.033,1.033,0,0,1-.814-1.291,1.019,1.019,0,0,1,1.341-.715,8.6,8.6,0,0,1,6.331,5.6A24.289,24.289,0,0,1-1585.887-2464.738Z" transform="translate(-106.598 -133.433)" fill="#1f1967"/>
  </g>
</svg>
