<svg xmlns="http://www.w3.org/2000/svg" width="96.776" height="86.333" viewBox="0 0 96.776 86.333">
    <g data-name="Group 691">
        <path data-name="Path 1364" d="M-1758.4-3840.672c1.749-4.144 4.9-5.446 9.311-5.39 14.426.182 28.856.091 43.284.038a4.015 4.015 0 0 1 3.638 1.805c4.727 6.451 9.581 12.81 14.27 19.288a7.14 7.14 0 0 1 1.246 3.782c.139 5.162.059 10.331.06 15.5v2.095a10.91 10.91 0 0 0 4.507-7.769 9.977 9.977 0 0 1 10.525-8.306 10.8 10.8 0 0 1 9.911 9.732 9.927 9.927 0 0 1-8.387 10.313 14.692 14.692 0 0 0-8.273 4.515c-2.479 2.578-5.076 5.042-7.858 7.79 2.236 2.16 4.311 4.161 6.382 6.165 2.637 2.553 3.709 5.624 2.347 9.093-1.349 3.438-3.892 5.715-7.751 6.017a1.763 1.763 0 0 0-1.8 1.455 6.939 6.939 0 0 1-6.939 4.81q-28.163.019-56.327.011c-4.253 0-6.656-2.414-8.145-6.082zm52.051-1.513h-43.793c-3.177 0-4.193 1-4.193 4.16q-.007 34.875 0 69.751c0 3.471 1.327 4.732 4.838 4.73q11.53-.008 23.061 0 15.972 0 31.944.012a3.611 3.611 0 0 0 3.657-2.112c.8-1.633-.168-2.516-1.18-3.521-6.791-6.753-13.543-13.544-20.338-20.294a8.948 8.948 0 0 1-2.935-5.945 8.939 8.939 0 0 1 5.181-8.334 8.122 8.122 0 0 1 9.255 1.589c2.239 2.192 4.365 4.5 6.955 7.185a12.22 12.22 0 0 1 1.687-2.267 5.263 5.263 0 0 0 1.972-4.76c-.142-4.154-.043-8.316-.043-12.474v-6.156h-7.556c-5.87 0-8.523-2.662-8.516-8.538.007-4.271.004-8.541.004-13.026zm25.9 67.4a18.406 18.406 0 0 0-2.075-3.158c-6.924-6.952-13.909-13.843-20.886-20.742-2.234-2.208-4.358-2.187-6.549.021-2.041 2.055-1.976 3.919.272 6.172 7.064 7.079 14.158 14.129 21.2 21.233a3.842 3.842 0 0 0 4.45 1.011 6.386 6.386 0 0 0 3.588-4.536zm-8.332-15.085c2.777-2.824 5.4-5.444 7.968-8.112a16.87 16.87 0 0 1 10.111-5.355 5.831 5.831 0 0 0 5.005-5.558 6.486 6.486 0 0 0-5.922-6.629 6.081 6.081 0 0 0-6.677 5.252 14.677 14.677 0 0 1-4.386 8.945c-2.143 2.034-4.2 4.163-6.278 6.26-.818.823-1.608 1.674-2.376 2.476zm-3.986-34.894-9.608-12.945a75.317 75.317 0 0 0-.31 10.224 2.626 2.626 0 0 0 2.468 2.68c2.347.154 4.712.042 7.45.042z" transform="translate(1758.4 3846.064)" style="fill:#29246e"/>
        <path data-name="Path 1365" d="M-1696.143-3561.524c4.21 0 8.42.011 12.631-.006 1.456-.006 2.737.241 2.727 2.055s-1.3 2.041-2.75 2.039q-12.819-.017-25.639 0c-1.451 0-2.734-.246-2.727-2.06s1.309-2.035 2.75-2.031c4.336.011 8.672.003 13.008.003z" transform="translate(1722.054 3623.655)" style="fill:#29246e"/>
        <path data-name="Path 1366" d="M-1696.453-3645.181c-4.283 0-8.566-.01-12.849.006-1.393.005-2.581-.238-2.615-1.962s1.115-2.073 2.522-2.073q13.038-.008 26.076-.01c1.394 0 2.557.374 2.521 2.086-.036 1.731-1.225 1.956-2.617 1.949-4.346-.02-8.692-.007-13.038-.007z" transform="translate(1722.067 3692.2)" style="fill:#29246e"/>
        <path data-name="Path 1367" d="M-1696.357-3601.7c-4.345 0-8.69-.013-13.035.009-1.434.007-2.541-.333-2.527-2.04.013-1.605 1.095-1.958 2.43-1.958q13.13 0 26.26-.005c1.345 0 2.41.374 2.431 1.963.023 1.711-1.091 2.046-2.524 2.039-4.345-.018-8.69-.008-13.035-.008z" transform="translate(1722.068 3658.174)" style="fill:#29246e"/>
        <path data-name="Path 1368" d="M-1708.142-3796.173c0 3.9-.015 7.795.009 11.692.009 1.4-.254 2.6-1.966 2.584-1.664-.012-2.02-1.154-2.017-2.578q.023-11.786 0-23.572c0-1.433.349-2.587 1.994-2.592s2 1.154 1.994 2.586c-.035 3.96-.015 7.92-.014 11.88z" transform="translate(1722.225 3818.373)" style="fill:#29246e"/>
        <path data-name="Path 1369" d="M-1700.532-3514.065c-2.959 0-5.918-.005-8.878 0-1.428 0-2.537-.4-2.514-2.086.021-1.566 1.077-2 2.423-2q9.161-.007 18.322 0c1.391 0 2.375.585 2.344 2.09s-1.071 2-2.442 1.993c-3.085-.002-6.17.003-9.255.003z" transform="translate(1722.072 3589.748)" style="fill:#29246e"/>
        <path data-name="Path 1370" d="M-1680.723-3771.694c0-2.955.021-5.91-.01-8.865-.014-1.407.5-2.4 1.993-2.416 1.516-.017 2.013 1.016 2.011 2.4q-.012 8.96-.007 17.919c0 1.345-.4 2.4-1.994 2.389-1.563-.008-2.01-.977-2-2.37.025-3.021.008-6.039.007-9.057z" transform="translate(1697.691 3796.75)" style="fill:#29246e"/>
        <path data-name="Path 1371" d="M-1646.43-3745.885c0 1.953-.011 3.906 0 5.86.008 1.323-.485 2.239-1.929 2.263a1.922 1.922 0 0 1-2.093-2.156c-.04-4.032-.033-8.065 0-12.1.01-1.309.63-2.192 2.063-2.158s1.973.9 1.966 2.239c-.013 2.02-.005 4.037-.007 6.052z" transform="translate(1674.042 3774.237)" style="fill:#29246e"/>
        <path data-name="Path 1372" d="M-1614.881-3732.806c0 1.442-.011 2.884 0 4.326.011 1.356-.584 2.161-2 2.167a1.794 1.794 0 0 1-1.968-2.011 629.154 629.154 0 0 1 0-9.216 1.814 1.814 0 0 1 1.99-2 1.844 1.844 0 0 1 1.972 2.034c.02 1.565.009 3.132.006 4.7z" transform="translate(1649.33 3762.801)" style="fill:#29246e"/>
    </g>
</svg>
