<svg xmlns="http://www.w3.org/2000/svg" width="84.098" height="112.204" viewBox="0 0 84.098 112.204">
  <path id="flexible" d="M18.736,3.992A2.336,2.336,0,0,0,16.4,6.328l-.056,9.344a2.385,2.385,0,0,0,2.392,2.336H79.474a2.336,2.336,0,0,0,2.336-2.336V4.067l-2.336-.075Zm2.28,4.672H65.4v4.672H21.016Zm49.057,0h7.008v4.672H70.073ZM49.049,22.652a20.954,20.954,0,0,0-12.942,37.4H34.841A27.886,27.886,0,0,0,7,88.01V113.8a2.336,2.336,0,0,0,2.336,2.336H22.577a2.336,2.336,0,0,0,1,0h50.7a2.336,2.336,0,0,0,.906,0H88.762A2.336,2.336,0,0,0,91.1,113.8V88.01A27.886,27.886,0,0,0,63.257,60.057H61.991a20.954,20.954,0,0,0-12.942-37.4Zm0,4.672a16.259,16.259,0,1,1-11.521,4.8,16.259,16.259,0,0,1,11.521-4.8Zm-14.208,37.4h7.943l-1.71,24.912A2.336,2.336,0,0,0,41.8,91.51L47.456,96.8a2.336,2.336,0,0,0,3.191,0L56.3,91.514a2.336,2.336,0,0,0,.729-1.869L55.319,64.729h7.938A23.127,23.127,0,0,1,86.426,88.01v23.459H77.081V99.723a2.336,2.336,0,0,0-4.672,0v11.746h-47V99.742a2.336,2.336,0,1,0-4.672,0v11.727H11.672V88.01A23.127,23.127,0,0,1,34.841,64.729Zm12.629,0h3.168l1.649,24.127-3.238,3.037-3.238-3.037Z" transform="translate(-7 -3.992)" fill="#060056" fill-rule="evenodd"/>
</svg>
