<svg xmlns="http://www.w3.org/2000/svg" width="112.165" height="112.204" viewBox="0 0 112.165 112.204">
  <g id="freedom" transform="translate(-3.01 -3)">
    <path id="Path_955" data-name="Path 955" d="M26.363,40.736a2.887,2.887,0,0,1-2.053-.849L14.734,30.31a2.908,2.908,0,0,1,0-4.1l5.473-5.473a2.908,2.908,0,0,1,4.1,0l9.576,9.576a2.9,2.9,0,0,1,0,4.1l-5.471,5.471a2.885,2.885,0,0,1-2.053.851ZM22.26,21.82a.655.655,0,0,0-.087,0,.952.952,0,0,0-.6.281L16.1,27.575a.967.967,0,0,0,0,1.368l9.576,9.576a.99.99,0,0,0,1.368,0l5.471-5.471a.963.963,0,0,0,0-1.368L22.941,22.1a.958.958,0,0,0-.681-.282Z" transform="translate(10.165 15.782)" fill="#060056"/>
    <path id="Path_956" data-name="Path 956" d="M31.779,33.35a1.014,1.014,0,0,1-.215-.023L24.094,31.64a4.645,4.645,0,0,1-3.488-3.488L19.035,21.2a.967.967,0,1,1,1.886-.428l1.571,6.957a2.7,2.7,0,0,0,2.027,2.027l7.471,1.687a.967.967,0,0,1-.211,1.911ZM77.916,91.585H16.011V57.731a4.843,4.843,0,0,1,4.836-4.836H38.311v1.935H20.847a2.905,2.905,0,0,0-2.9,2.9v31.92H75.982V57.731a2.905,2.905,0,0,0-2.9-2.9H55.615V52.895H73.08a4.843,4.843,0,0,1,4.836,4.836Z" transform="translate(12.15 15.88)" fill="#060056"/>
    <path id="Path_957" data-name="Path 957" d="M74.949,69.953H22.716a.967.967,0,0,1-.967-.967V39.967A.967.967,0,0,1,22.716,39H41.594a.967.967,0,1,1,0,1.935H23.684V68.018h50.3V40.935H56.53a.967.967,0,1,1,0-1.935H74.949a.967.967,0,0,1,.967.967V68.985A.967.967,0,0,1,74.949,69.953ZM76.884,81.56h-56.1a6.778,6.778,0,0,1-6.771-6.771V72.855a.967.967,0,0,1,.967-.967H82.687a.967.967,0,0,1,.967.967v1.935A6.78,6.78,0,0,1,76.884,81.56ZM15.946,73.822v.967a4.843,4.843,0,0,0,4.836,4.836h56.1a4.843,4.843,0,0,0,4.836-4.836v-.967Z" transform="translate(10.281 33.644)" fill="#060056"/>
    <path id="Path_958" data-name="Path 958" d="M43.456,84.233H29.914a.967.967,0,0,1-.967-.967V79.4a.967.967,0,0,1,.967-.967H43.456a.967.967,0,0,1,.967.967v3.869A.967.967,0,0,1,43.456,84.233ZM30.881,82.3H42.488V80.364H30.881Zm5.8-30.953a9.673,9.673,0,1,1,9.673-9.673A9.655,9.655,0,0,1,36.683,51.345Zm0-17.411a7.738,7.738,0,1,0,7.738,7.738,7.746,7.746,0,0,0-7.738-7.738Z" transform="translate(22.429 27.102)" fill="#060056"/>
    <path id="Path_959" data-name="Path 959" d="M32.81,70.276a.967.967,0,0,1-.961-.865,5.811,5.811,0,0,1,5.769-6.442.967.967,0,1,1,0,1.935,3.873,3.873,0,0,0-3.846,4.3.967.967,0,0,1-.961,1.072Zm4.807-44.061A11.607,11.607,0,1,1,49.225,14.607,11.588,11.588,0,0,1,37.617,26.215Zm0-21.28a9.673,9.673,0,1,0,9.673,9.673A9.684,9.684,0,0,0,37.617,4.935Z" transform="translate(21.495 0)" fill="#060056"/>
    <path id="Path_960" data-name="Path 960" d="M34.326,14.673a4.836,4.836,0,1,1,4.836-4.836,4.829,4.829,0,0,1-4.836,4.836Zm0-7.738a2.9,2.9,0,1,0,2.9,2.9A2.906,2.906,0,0,0,34.326,6.935Zm-1.9,73.271a.967.967,0,0,1-.967-.958l-.041-3.627a.967.967,0,0,1,.958-.977.991.991,0,0,1,.977.958l.041,3.627a.967.967,0,0,1-.958.977Zm3.869,0a.967.967,0,0,1-.967-.958l-.041-3.627a.967.967,0,0,1,.958-.977.991.991,0,0,1,.977.958l.041,3.627a.967.967,0,0,1-.958.977Z" transform="translate(24.747 1.869)" fill="#060056"/>
    <path id="Path_961" data-name="Path 961" d="M52.654,80.478a3.873,3.873,0,0,1-3.869-3.869V65.969A.967.967,0,0,1,49.752,65h5.8a.967.967,0,0,1,.967.967v10.64A3.873,3.873,0,0,1,52.654,80.478ZM50.719,66.936v9.673a1.935,1.935,0,0,0,3.869,0V66.936ZM14.994,26.864a.971.971,0,0,1-.685-.283L10.2,22.476a.967.967,0,1,1,1.368-1.368l4.105,4.105a.967.967,0,0,1-.683,1.65Zm2.735-2.737a.971.971,0,0,1-.685-.283l-2.735-2.735a.967.967,0,1,1,1.368-1.368l2.735,2.736a.967.967,0,0,1-.683,1.65ZM74.4,41.135a2.9,2.9,0,0,1-2.053-.847l-5.473-5.471a2.9,2.9,0,0,1,0-4.1l9.576-9.576a2.906,2.906,0,0,1,4.1,0l5.473,5.473a2.9,2.9,0,0,1,0,4.105L76.449,40.29a2.9,2.9,0,0,1-2.051.845Zm4.1-18.914a.969.969,0,0,0-.685.282L68.24,32.079a.973.973,0,0,0,0,1.37l5.471,5.471a.969.969,0,0,0,1.368,0l9.576-9.576a.969.969,0,0,0,0-1.37L79.184,22.5a.954.954,0,0,0-.6-.279l-.085,0Z" transform="translate(6.458 15.38)" fill="#060056"/>
    <path id="Path_962" data-name="Path 962" d="M49.624,33.85a.967.967,0,0,1-.213-1.911l7.469-1.687a2.7,2.7,0,0,0,2.027-2.027l1.571-6.957a.967.967,0,0,1,1.886.428l-1.571,6.957a4.643,4.643,0,0,1-3.488,3.488l-7.469,1.687A1,1,0,0,1,49.624,33.85ZM72.1,26.864a.967.967,0,0,1-.685-1.65l4.1-4.105a.967.967,0,1,1,1.368,1.368l-4.1,4.1A.963.963,0,0,1,72.1,26.864Zm-2.735-2.737a.967.967,0,0,1-.685-1.65l2.735-2.735a.967.967,0,1,1,1.368,1.368l-2.736,2.735a.963.963,0,0,1-.683.282ZM39.15,39.872H31.412a2.9,2.9,0,0,1-2.9-2.9V23.428a2.9,2.9,0,0,1,2.9-2.9H39.15a2.905,2.905,0,0,1,2.9,2.9V36.97A2.905,2.905,0,0,1,39.15,39.872ZM31.412,22.461a.965.965,0,0,0-.967.967V36.97a.963.963,0,0,0,.967.967H39.15a.967.967,0,0,0,.967-.967V23.428a.967.967,0,0,0-.967-.967Z" transform="translate(23.831 15.38)" fill="#060056"/>
    <path id="Path_963" data-name="Path 963" d="M53.962,54.766a.965.965,0,0,1-.816-1.484l4.09-6.475a2.7,2.7,0,0,0,0-2.869l-3.809-6.028a.968.968,0,1,1,1.637-1.033l3.809,6.028a4.645,4.645,0,0,1,0,4.935L54.78,54.316a.971.971,0,0,1-.818.451ZM64.915,33.933a.967.967,0,0,1-.967-.967V29.1a.967.967,0,0,1,1.935,0v3.869A.967.967,0,0,1,64.915,33.933Zm-11.607,0a.967.967,0,0,1-.967-.967V29.1a.967.967,0,1,1,1.935,0v3.869A.967.967,0,0,1,53.308,33.933Zm3.869,0a.967.967,0,0,1-.967-.967V31.032a.967.967,0,1,1,1.935,0v1.935A.967.967,0,0,1,57.177,33.933Zm3.869,0a.967.967,0,0,1-.967-.967V31.032a.967.967,0,1,1,1.935,0v1.935A.967.967,0,0,1,61.046,33.933Zm4.086-9.588a.967.967,0,0,1-.869-1.395,5.751,5.751,0,0,0,.613-2.54,5.821,5.821,0,0,0-2.79-4.939,4.924,4.924,0,0,1-6.026,0A5.817,5.817,0,0,0,53.3,21.051a5.662,5.662,0,0,0,.511,1.766.967.967,0,0,1-1.441,1.192,11.574,11.574,0,1,1,13.306.166A.983.983,0,0,1,65.132,24.346Zm-3.2-11.021a.987.987,0,0,1,.41.091,7.765,7.765,0,0,1,4.471,7v.046A9.669,9.669,0,1,0,49.5,15.677a9.514,9.514,0,0,0,1.838,4.633,7.763,7.763,0,0,1,4.471-6.895.967.967,0,0,1,1.128.226,2.921,2.921,0,0,0,4.281,0A.975.975,0,0,1,61.93,13.325ZM14.617,33.953A11.607,11.607,0,1,1,26.225,22.345,11.588,11.588,0,0,1,14.617,33.953Zm0-21.28a9.673,9.673,0,1,0,9.673,9.673A9.684,9.684,0,0,0,14.617,12.673Z" transform="translate(0 0)" fill="#060056"/>
    <path id="Path_964" data-name="Path 964" d="M11.326,18.673a4.836,4.836,0,1,1,4.836-4.836A4.829,4.829,0,0,1,11.326,18.673Zm0-7.738a2.9,2.9,0,1,0,2.9,2.9A2.906,2.906,0,0,0,11.326,10.935Z" transform="translate(3.252 5.607)" fill="#060056"/>
    <path id="Path_965" data-name="Path 965" d="M20.638,28.346a.967.967,0,0,1-.869-1.395,5.751,5.751,0,0,0,.613-2.54,5.821,5.821,0,0,0-2.79-4.939,4.924,4.924,0,0,1-6.026,0A5.817,5.817,0,0,0,8.81,25.051a5.662,5.662,0,0,0,.511,1.766.967.967,0,0,1-1.441,1.192,11.574,11.574,0,1,1,13.306.166A.983.983,0,0,1,20.638,28.346Zm-3.2-11.021a.987.987,0,0,1,.41.091,7.763,7.763,0,0,1,4.471,6.993v.046A9.668,9.668,0,1,0,5,19.675a9.514,9.514,0,0,0,1.838,4.633,7.763,7.763,0,0,1,4.471-6.895.969.969,0,0,1,1.128.226,2.921,2.921,0,0,0,4.281,0,.973.973,0,0,1,.714-.315Z" transform="translate(0 3.738)" fill="#060056"/>
    <g id="Group_109" data-name="Group 109" transform="translate(91.96 10.738)">
      <path id="Path_966" data-name="Path 966" d="M60.6,30.215A11.607,11.607,0,1,1,72.2,18.607,11.588,11.588,0,0,1,60.6,30.215Zm0-21.28a9.673,9.673,0,1,0,9.673,9.673A9.684,9.684,0,0,0,60.6,8.935Z" transform="translate(-48.99 -7)" fill="#060056"/>
      <path id="Path_967" data-name="Path 967" d="M57.305,18.673a4.836,4.836,0,1,1,4.836-4.836A4.827,4.827,0,0,1,57.305,18.673Zm0-7.738a2.9,2.9,0,1,0,2.9,2.9A2.906,2.906,0,0,0,57.305,10.935Z" transform="translate(-45.739 -5.131)" fill="#060056"/>
      <path id="Path_968" data-name="Path 968" d="M66.616,28.346a.967.967,0,0,1-.869-1.395,5.739,5.739,0,0,0,.613-2.54,5.821,5.821,0,0,0-2.79-4.939,4.924,4.924,0,0,1-6.024,0,5.817,5.817,0,0,0-2.757,5.583,5.693,5.693,0,0,0,.511,1.762.967.967,0,0,1-1.441,1.192,11.575,11.575,0,1,1,13.3.166.983.983,0,0,1-.547.17Zm-3.2-11.021a.959.959,0,0,1,.41.091,7.761,7.761,0,0,1,4.471,6.993v.048a9.669,9.669,0,1,0-17.312-4.782,9.53,9.53,0,0,0,1.836,4.633,7.761,7.761,0,0,1,4.471-6.893.965.965,0,0,1,1.128.226,2.921,2.921,0,0,0,4.281,0,.975.975,0,0,1,.716-.317Z" transform="translate(-48.99 -7)" fill="#060056"/>
    </g>
  </g>
</svg>
