<svg xmlns="http://www.w3.org/2000/svg" width="112.206" height="112.204" viewBox="0 0 112.206 112.204">
  <path id="global" d="M107.372,81.649,74.9,82.956q-.032-.472-.086-.941c-.013-.112-.028-.224-.043-.336a19.653,19.653,0,0,0-.962-3.986L86,74.749a3.8,3.8,0,0,0-1.152-7.491L66.879,68.487a18.666,18.666,0,0,0-5.08-2.559l-.779-8.183H87.455c-.023,1.263-.071,2.525-.147,3.769a1.644,1.644,0,0,0,3.281.2c.08-1.31.13-2.639.154-3.969h18.14a52.488,52.488,0,0,1-3.571,17.56,1.644,1.644,0,1,0,3.062,1.2A56.164,56.164,0,0,0,96.55,17.234q-.053-.06-.112-.115c-.223-.23-.444-.461-.671-.688A55.735,55.735,0,0,0,56.1,0h0a55.735,55.735,0,0,0-39.67,16.432c-.225.225-.445.454-.665.682a1.631,1.631,0,0,0-.119.122A56.163,56.163,0,0,0,3.9,76.7a1.644,1.644,0,0,0,3.057-1.207A52.477,52.477,0,0,1,3.31,57.745H21.45c.024,1.328.074,2.657.154,3.969a1.644,1.644,0,0,0,1.639,1.544l.1,0a1.644,1.644,0,0,0,1.541-1.741c-.076-1.245-.124-2.507-.147-3.769H51.165l-.775,8.184a18.663,18.663,0,0,0-5.075,2.558L27.347,67.258A3.8,3.8,0,0,0,26.2,74.749l12.192,2.944a19.683,19.683,0,0,0-1.09,5.263L4.822,81.649A4.64,4.64,0,0,0,3.546,90.8l8.975,2.167a10.334,10.334,0,0,0-5.089,8.831,10.62,10.62,0,0,0,10.8,10.409,10.62,10.62,0,0,0,10.8-10.409A10.057,10.057,0,0,0,27.578,96.6l15.762,3.8c.4.473.808.93,1.235,1.364,3.432,3.492,7.415,5.337,11.521,5.337s8.089-1.846,11.521-5.337c.429-.436.842-.895,1.24-1.37.026,0,.051-.008.077-.014L84.616,96.6a10.06,10.06,0,0,0-1.447,5.2,10.8,10.8,0,0,0,21.592,0,10.333,10.333,0,0,0-5.09-8.831l8.975-2.167a4.64,4.64,0,0,0-1.276-9.147Zm-22.3-11.111a.516.516,0,0,1,.156,1.016L72.415,74.647a19.3,19.3,0,0,0-2.178-3.1Zm23.813-16.081H90.744a81.332,81.332,0,0,0-6.155-30.415A76.306,76.306,0,0,0,94.931,20.31,52.4,52.4,0,0,1,108.883,54.457ZM92.463,17.8a74.754,74.754,0,0,1-9.269,3.22q-1.1-2.221-2.344-4.28a40.955,40.955,0,0,0-9.76-11.3A52.47,52.47,0,0,1,92.463,17.8ZM57.74,3.36c7.613.668,14.769,5.963,20.3,15.085q1,1.648,1.9,3.414a103.513,103.513,0,0,1-22.2,2.671Zm0,24.458a106.479,106.479,0,0,0,23.638-2.925,77.651,77.651,0,0,1,6.082,29.564H60.707L60,47.006a3.906,3.906,0,0,0-2.264-3.193Zm-3.13,28.451.848-8.951a.638.638,0,0,1,1.27,0l.853,8.952h0l.848,8.907a18.242,18.242,0,0,0-4.664,0l.844-8.907ZM54.45,24.53A103.515,103.515,0,0,1,32.257,21.86q.9-1.763,1.9-3.414C39.685,9.324,46.84,4.028,54.453,3.36ZM41.1,5.437a40.951,40.951,0,0,0-9.759,11.3Q30.1,18.8,29,21.021a74.754,74.754,0,0,1-9.268-3.22A52.471,52.471,0,0,1,41.1,5.437ZM21.45,54.457H3.31A52.4,52.4,0,0,1,17.263,20.31,76.306,76.306,0,0,0,27.6,24.042,81.331,81.331,0,0,0,21.45,54.457Zm3.288,0a77.646,77.646,0,0,1,6.082-29.564,106.475,106.475,0,0,0,23.63,2.925l0,15.995a3.906,3.906,0,0,0-2.264,3.2l-.706,7.45ZM56.1,68.314a15.423,15.423,0,0,1,12.528,6.5L56.1,77.53,43.568,74.811a15.424,15.424,0,0,1,12.528-6.5Zm-29.13,3.24a.516.516,0,0,1,.156-1.016l14.833,1.014a19.294,19.294,0,0,0-2.178,3.1Zm-8.739,37.361a7.132,7.132,0,1,1,0-14.245,7.132,7.132,0,1,1,0,14.245ZM4.318,87.6a1.353,1.353,0,0,1-.62-2.291,1.324,1.324,0,0,1,.991-.376l32.657,1.314a23.958,23.958,0,0,0,.691,3.858,27.054,27.054,0,0,0,2.518,6.244Zm36.627.5c-.014-.067-.028-.135-.041-.2q-.041-.209-.077-.417c-.01-.056-.02-.112-.029-.167q-.048-.289-.088-.576c0-.023-.005-.045-.008-.067q-.034-.253-.06-.5c-.006-.061-.012-.122-.018-.183q-.019-.2-.034-.391-.007-.1-.014-.2-.013-.2-.02-.391c0-.058-.006-.117-.007-.175-.006-.186-.01-.37-.01-.554,0-.252.008-.5.019-.756,0-.044,0-.089.006-.133q.02-.362.055-.721c0-.047.01-.093.015-.14.026-.246.057-.491.094-.736,0-.015.005-.029.007-.044.037-.237.08-.472.127-.707.008-.041.016-.082.024-.123q.074-.352.163-.7c.012-.048.025-.1.038-.143.062-.235.128-.468.2-.7.008-.025.017-.05.025-.075q.105-.33.225-.655c.013-.036.026-.072.039-.108q.126-.336.267-.665l.029-.068,12.58,2.73V90.971L40.983,88.282c-.013-.059-.026-.118-.038-.177ZM56.1,103.818c-6.3,0-11.58-5.782-14.029-11.968l13.69,2.733.016,0h.011c.049.009.1.017.148.022a1.614,1.614,0,0,0,.326,0c.05,0,.1-.013.148-.022h.011l.016,0,13.69-2.733C67.676,98.036,62.4,103.818,56.1,103.818ZM71.6,85.6q-.014.193-.033.387c-.006.062-.012.125-.018.188q-.026.247-.059.5c0,.025-.006.051-.009.076q-.039.286-.087.573c-.01.058-.02.115-.031.173q-.036.205-.076.411c-.013.068-.027.137-.041.205s-.025.117-.038.176L57.74,90.971V80.537l12.58-2.73.029.068c.094.22.184.442.267.666.013.035.025.07.038.1q.12.327.226.659c.008.024.016.048.024.073.073.232.139.466.2.7.012.047.025.094.037.141q.089.349.163.7c.008.04.016.08.024.121.047.235.09.471.127.709,0,.014,0,.028.007.043.037.244.068.49.094.736.005.047.01.093.015.14q.035.36.055.721c0,.044,0,.089.006.133.012.252.019.5.019.756,0,.184,0,.368-.01.554,0,.058,0,.117-.007.175q-.008.194-.02.39-.006.1-.014.2Zm29.871,16.2a7.519,7.519,0,1,1-7.509-7.122A7.332,7.332,0,0,1,101.475,101.793Zm6.4-14.193L71.638,96.35a27.056,27.056,0,0,0,2.518-6.244,23.956,23.956,0,0,0,.691-3.858L107.5,84.933a1.353,1.353,0,0,1,.372,2.667ZM93.966,100.15a1.644,1.644,0,1,0,1.644,1.644,1.644,1.644,0,0,0-1.644-1.644Zm-75.738,0a1.644,1.644,0,1,0,1.644,1.644,1.644,1.644,0,0,0-1.644-1.644Z" transform="translate(0.006 0.001)" fill="#060056"/>
</svg>
