<svg xmlns="http://www.w3.org/2000/svg" width="604.576" height="415.445" viewBox="0 0 604.576 415.445">
  <g id="Group_480" data-name="Group 480" transform="translate(-1355.658 -74.098)">
    <g id="Group_437" data-name="Group 437">
      <path id="Path_7341" data-name="Path 7341" d="M1626.154,74.165c1.11,5.58.8,11.3,1.04,16.96.07,8.64.68,17.38-.69,25.95-1.28-7.24-1.39-14.61-1.65-21.94C1624.834,88.145,1624.564,81.035,1626.154,74.165Z" fill="#f4c442"/>
      <path id="Path_7342" data-name="Path 7342" d="M1566.724,122.225c9.78,4.1,18.96,9.46,28.09,14.8C1584.224,135.3,1574.3,129.735,1566.724,122.225Z" fill="#f4c442"/>
    </g>
    <g id="Group_439" data-name="Group 439">
      <path id="Path_7343" data-name="Path 7343" d="M1722.774,76.475c10.29-.84,20.53-2.76,30.89-2.31,6.04-.39,11.97,1.05,18.01,1.07a182.329,182.329,0,0,1,69.34,21.65c4.42,2.05,8.22,5.17,12.62,7.25q1.035-1.02,2.1-2.04c-1.99,13.91-.06,28.03,1.31,41.91,3.47.39,6.94.8,10.42,1.11-2.3,6.03-4.89,12.05-5.91,18.47,8.38-3.65,12.31-12.82,19.47-18.11,6.35-1.23,12.93-.17,19.38-.52,1.76,3.28,4.5,5.83,6.76,8.74,7.42,10.45,15.01,20.84,20.61,32.42,5.15,7.41,8.1,15.97,11.85,24.11,3.13,6.25,4.7,13.11,7.44,19.53,3.33,10.73,5.8,21.7,8.18,32.68,1.73,16.13,3.83,32.45,1.64,48.66-.95,18.84-7.42,37.09-17,53.23a117.742,117.742,0,0,1-47.81,41.14c-11.96,6.43-25.14,9.96-38.1,13.72-3.72-24.93-7.46-49.85-11.43-74.75,4.2-12.76,7.69-27.53.83-40.03.16-.55.49-1.64.65-2.18-1.54-3.48-3.01-7.14-2.68-11.02.38-8.37,1.8-16.65,2.8-24.97,1.29-10.62,4.36-21.27,3.04-32.03-2.36-6.72-7.55-11.98-12.52-16.89a84.822,84.822,0,0,0-5.05-16.01c6.12-2.25,10.19-7.66,13.6-12.94q1.4.6,2.82,1.2a21.717,21.717,0,0,0,0-8.31c1.22.76,2.17,2.49,3.81,2.13a9.6,9.6,0,0,0-2.39-10.95c-3.46-3.8-9.22-3.77-12.84-7.32-5.15-4.51-12.54-5.14-19.01-3.87q1.005,1.02,2.04,2.04c-4.09-.07-9.51,1.1-10.23,5.91a29.664,29.664,0,0,0,8.2-.4c-2.64,1.34-7.04,2.14-7.28,5.72,1.64,2.81,5.31,1.5,7.94,1.83-.58,3.5-.34,8.78-4.72,9.79-4.21-13.88-12.26-26.31-21.3-37.52-13.86-17.35-30.99-32.75-51.7-41.35-24.69-10.62-53.99-7.58-77.06,5.7-4.54,2.72-9.28,5.22-13.07,8.99a86.378,86.378,0,0,1,4.34,7.82,64.151,64.151,0,0,0-16.39-3.37c1.07-3.45,4.26-5.47,6.57-8.04,7.52-7.2,14.97-14.62,23.77-20.27,9.81-6.98,21.07-11.43,32.29-15.6C1706.734,79.785,1714.8,78.265,1722.774,76.475Z" fill="#f6faff"/>
      <path id="Path_7344" data-name="Path 7344" d="M1484.734,139.005c6.3-1.09,12.71-.76,19.01-1.87,7.3.13,14.68-.55,21.91.75,12.67.4,25.11,3.08,37.43,5.86a68.33,68.33,0,0,0,9.01,1.28c6.62,2.13,13.69,1.89,20.53,1.08l-1.03-.24c.22-.42.66-1.27.88-1.69,2.95,3.25,7.52,1.91,11.2.96a66.479,66.479,0,0,0-7.64,24.99c-.88,9.72,1.52,19.38,4.75,28.48,3.4,9.63,7.3,19.48,6.81,29.89-3.99-1.13-6.57,2.2-7.54,5.6a222.774,222.774,0,0,1-18.87-13.46c-4.83-3.86-10.62-6.16-16.1-8.91a17.062,17.062,0,0,1-.09,11.58,44.86,44.86,0,0,1-5.65-5.02c.51-3.12,1.09-6.22,1.86-9.28.79-3.07,1.33-6.18,1.89-9.29,2.8.99,5.99,1.82,8.9.74,2.31-1.53,2.11-4.66,2.64-7.05-.77-.56-1.55-1.1-2.33-1.63a20.258,20.258,0,0,1-4.84-.62c2.41-.42,4.83-.82,7.25-1.17-.12-1.43-.24-2.86-.36-4.28a37.592,37.592,0,0,0,3.64-4.51c.65-1.9,1.62-3.93,1.01-5.98-.82-2.68-2.92-4.68-4.15-7.14-1.27-3.5.2-7.74-2.16-10.89-2.32-2.82-6.19-3.3-9.57-2.65-.03-2.22.63-4.84-1.18-6.58-3.39-4.47-11.63-2.35-12.56,3.15-.34,2.3,1.51,3.98,2.68,5.71-.75.32-2.26.96-3.02,1.29-4.11,2.29-9.71,4.27-10.56,9.56-1.14,7.33.23,15.67,5.58,21.14,1.61,1.82,4.11,2.15,6.31,2.8q-1.335,2.205-2.56,4.47c-1.65-.85-3.59-2.72-5.46-1.24-4.14,3.08-7.26,7.34-11.53,10.3-9.35-6.11-19.88-10.02-30.67-12.7-.77-5.04-.07-10.15-.61-15.2-.36-2.77-3.56-3.2-5.81-3.09-6.35.16-12.71-.15-19.06.08a4.437,4.437,0,0,0-4.72,4.02c-.43,4.8.02,9.65-.42,14.46a89.709,89.709,0,0,0-19.73,6.58c-3.88,1.8-7.33,4.91-11.67,5.47-4.08-2.92-6.77-7.39-10.89-10.24-2.91-1.14-4.63,2.11-6.39,3.79-4.24,5.05-10.43,8.36-13.71,14.21-1.5,2.03.36,3.99,1.75,5.41a123.564,123.564,0,0,1,8.68,8.9c-4.4,7.01-8.4,14.39-10.59,22.43-.74,2.91-1.55,5.81-2.46,8.68-5.54.44-11.13-.32-16.64.41-1.56,1.49-.95,3.9-1.19,5.83.09,6.65-.23,13.31.09,19.95a3.715,3.715,0,0,0,3.87,3.86c4.63.22,9.28-.1,13.91.26,1.03,3.07,1.93,6.17,2.77,9.3,2.05,7.5,6.22,14.16,9.91,20.93-2.6,4.63-7.66,7.3-10.51,11.75-1.14,3.1,1.85,5.22,3.67,7.21,4.44,4.21,8.52,8.81,13.11,12.87,1.6,1.71,4.44,1.11,5.95-.44,3.24-3.05,6.15-6.44,9.47-9.42,5.06,2.83,10.16,5.62,15.46,7.99,4.88,2.2,10.17,3.22,15.29,4.7.35,5.12-.5,10.37.64,15.41.82,3.39,4.79,2.5,7.39,2.66,6.91-.37,13.88.55,20.74-.45,3.2-3.07-1.1-10.1,4.37-11.73,1.75-.19,3.49-.27,5.25-.37-.87,6.78-1.78,13.55-2.8,20.31-1.49,8.93-.92,18.04-.98,27.05.38,3.51.85,7.41,3.32,10.15,2.87,2.2,6.7,2.23,10.16,2.47,22.03.69,43.9-2.63,65.78-4.66-.66,9.06-2.21,18.02-3.24,27.04-7.76-7.82-16.93-14.41-27.42-18.03,1.27,1.7,2.59,3.41,3.9,5.09-1.58-1.53-3.19-3.06-4.8-4.55a92.934,92.934,0,0,0,10.79,31.6,108.743,108.743,0,0,0-26.99-16.26c-4.62-1.85-9.14-4.31-14.21-4.55a66.441,66.441,0,0,0,10.7,19.33c-9.56,1.02-19.06,2.48-28.62,3.45-10.33.21-20.66.03-30.99.1-23.32-2.4-47.14-8.45-66.05-22.92-5.21-4.47-10.84-8.56-14.83-14.25a100.522,100.522,0,0,1-14.1-19.89c-7.18-13.67-12.78-28.3-15.45-43.55-2.09-8.73-3.41-17.61-4.63-26.49-1.49-6.91-.5-14.02-1.79-20.96-.17-8.98-.5-18.02.81-26.93-.28-8.49,2.13-16.7,3.19-25.06a170.61,170.61,0,0,1,16.57-46.36c5.18-8.33,10.24-16.85,16.97-24.05,6.38-8.26,14.64-14.79,22.91-21.06,5.89-4.72,12.87-7.73,19.22-11.75A153.682,153.682,0,0,1,1484.734,139.005Z" fill="#f6faff"/>
      <g id="Group_438" data-name="Group 438">
        <path id="Path_7345" data-name="Path 7345" d="M1673.814,160.945c8.92,14.64,18.8,28.67,27.89,43.2,8.17,12.02,15.53,24.61,24.1,36.36-1.04,5-.07,11.06,4.08,14.44,2.89,2.81,7.04,4.74,8.27,8.88,2.33,2.11,4.74,4.13,7.06,6.26,3.31,6.66,7.76,12.66,11.78,18.9,2.51-1.3,4.98-2.7,7.35-4.24,6.15,4.23,12.43,8.39,19.34,11.29,3.54,1.42,7.6,2.54,11.35,1.23,3.45-1.43,6.17-4.09,9.04-6.4-.07,1.45-.15,2.9-.24,4.36-.07.85-.22,2.55-.29,3.41a42.334,42.334,0,0,0,.14,9.87c-1.56,17.88-3.43,35.77-5.13,53.66-.92,11.3-.37,22.65-.36,33.97.21,10.25.01,20.52.65,30.76-1.29-.77-2.56-1.8-4.14-1.71-4.44-.13-8.91.13-13.32-.57-6.3-.94-12.7.07-18.99-.95-7.19-1.09-14.47.1-21.67-.8a36.763,36.763,0,0,0-6.38-.12c.9-4.51,1.69-9.05,2.68-13.54.32-1.52.61-3.05.91-4.56a16.38,16.38,0,0,0-5.21,4.03c-4.67,4.89-9.7,9.44-14.2,14.51-2.11-1.12-4.35-2.22-6.82-2.06a152.462,152.462,0,0,0-17.57,1.68c-1.43-14.88-4.35-29.74-3.18-44.74a138.689,138.689,0,0,1,5.43-30.25c5.33-16.81,10.28-33.78,13.8-51.08,1.32-9.27,3.79-18.61,2.36-28.03l-.01-.42c-24.96-.23-49.92.02-74.88-.14-11.52.29-23.05-.3-34.55.3l-.57.01q-.72-2.82-1.47-5.61c2.82.7,5.62,1.45,8.49,1.93a56.757,56.757,0,0,0,16.19.75c3.42-1.49,5.31-5.04,7.33-8,7.03-11.8,12.08-24.63,17.13-37.36q-2.1-1.17-4.18-2.33c-.52-.28-1.57-.85-2.09-1.13.78-.84,1.57-1.67,2.37-2.5,1.4-1.82,3.26-1.88,5.12-.65,2.55-4.43,6.24-8.01,9.93-11.49-.29-.41-.85-1.25-1.14-1.67A64.776,64.776,0,0,0,1673.814,160.945Zm70.18,156.35c-.32,2.01-.05,4.25-1.02,6.09-3.63,1.51-7.39,2.69-10.93,4.41-1.46-1.27-2.92-2.52-4.38-3.77a59.56,59.56,0,0,0-7.76,7.47,39,39,0,0,1,3.79,4.78,80.59,80.59,0,0,0-4.4,11.59q-3.225.2-6.42.41c-.05,3.4-.74,7,.5,10.26a36.289,36.289,0,0,0,5.97.89,57.134,57.134,0,0,0,4.58,10.6c-1.25,1.98-4.38,4.06-2.85,6.67,1.75,2.12,3.58,4.97,6.49,5.42,1.44-.91,2.74-2.01,4.18-2.91,4.1.72,7.78,2.84,11.66,4.25q.285,3.255.56,6.52c3.31-.02,6.87.77,10.02-.49.95-1.88.74-4.09,1.03-6.12,3.83-1.57,7.78-2.81,11.61-4.38,1.61,1,2.92,3.23,4.96,3.11,2.97-1.64,5.04-4.44,7.26-6.93q-2.085-2.46-4.09-4.96a80.449,80.449,0,0,0,4.37-10.67q3.03-.48,6.07-.92a31.159,31.159,0,0,0,.35-10.33q-3.255-.255-6.51-.47c-.99-4.03-2.79-7.76-4.29-11.6a23.444,23.444,0,0,1,3.72-4.48,23.674,23.674,0,0,0-7.77-7.84q-2.16,1.98-4.27,3.99a66.762,66.762,0,0,0-11.18-4.32c-.29-2.09-.56-4.17-.79-6.26A62.991,62.991,0,0,0,1743.994,317.3Z" fill="#f6faff"/>
      </g>
      <path id="Path_7346" data-name="Path 7346" d="M1815.164,203.125l2.24.24c-.92,4.93-1.71,9.88-2.44,14.84A96.1,96.1,0,0,0,1815.164,203.125Z" fill="#f6faff"/>
      <path id="Path_7347" data-name="Path 7347" d="M1480.674,218.785c14.11-1.14,28.87,3.35,39.49,12.82-1.95,3.28-3.28,7.13-2.46,10.98,1.7,9.25,6.69,17.45,11.6,25.32a97.246,97.246,0,0,1-11.19.39,164.461,164.461,0,0,0-17.2.07c1.32,8.23,2.8,16.46,3.4,24.79.29,3.17-1.57,5.93-2.9,8.65-4.62,8.46-9.13,16.98-13.77,25.42-15.47.38-31.49-5.46-41.79-17.25-11.54-11.4-16.85-28.47-14.72-44.45,1.8-10.72,6.24-21.2,13.77-29.16C1454.124,226.425,1467.014,219.495,1480.674,218.785Z" fill="#f6faff"/>
      <path id="Path_7348" data-name="Path 7348" d="M1746.114,333.505c12.02-2.38,24.33,8.74,23.04,20.96.05,7.36-5.23,13.3-11.21,16.88-3.94,2.32-8.75,2.09-13.12,1.55a23.476,23.476,0,0,1-13.14-9.79,20.6,20.6,0,0,1-.09-18.94A19.772,19.772,0,0,1,1746.114,333.505Z" fill="#f6faff"/>
    </g>
    <g id="Group_440" data-name="Group 440">
      <path id="Path_7349" data-name="Path 7349" d="M1585.8,92.145c6.05,4.59,10.71,10.76,14.92,17.03,3,4.8,6.08,9.66,7.97,15.03-4.76-4.34-8.4-9.71-12.18-14.87C1592.754,103.735,1588.7,98.255,1585.8,92.145Z" fill="#f8c439"/>
    </g>
    <g id="Group_442" data-name="Group 442">
      <g id="Group_441" data-name="Group 441">
        <path id="Path_7350" data-name="Path 7350" d="M1858.614,99.125c20-1.46,40.08-1.48,60.13-1.39,4.97.08,10.04-.11,14.85,1.4,2.1,11.88,1.39,24,1.53,36.01-.24,2.9.27,6.29-1.54,8.75-11,1.35-22.13.58-33.18,1.06-6.45.35-13.03-.71-19.38.52-7.16,5.29-11.09,14.46-19.47,18.11,1.02-6.42,3.61-12.44,5.91-18.47-3.48-.31-6.95-.72-10.42-1.11-1.37-13.88-3.3-28-1.31-41.91C1856.044,100.655,1856.844,98.935,1858.614,99.125Zm27.58,18.64c-2.34,1.81-1.83,6.71,1.52,6.93,2.81.72,5.56-2.93,3.87-5.37C1890.724,117.135,1888.074,117.225,1886.194,117.765Zm16.79,5.11c1.93,3.29,7.39.95,6.57-2.72.1-2.21-2.37-2.76-3.89-3.54C1903.184,117.5,1901.094,120.415,1902.984,122.875Zm17.32-5c-.01,1.67-.77,3.67.58,5.03,2.12,2.46,6.89.56,6.44-2.82C1927.294,116.435,1922.654,115.975,1920.3,117.875Zm-52.14.75a3.85,3.85,0,0,0-.81,4.49c1.29,2.93,6.58,2.26,6.96-1.01C1875.174,118.835,1870.484,115.975,1868.164,118.625Z" fill="#d4dfff"/>
      </g>
      <path id="Path_7351" data-name="Path 7351" d="M1661.494,112.965c23.07-13.28,52.37-16.32,77.06-5.7,20.71,8.6,37.84,24,51.7,41.35a48.124,48.124,0,0,0,.23,8.57,216.167,216.167,0,0,1,1.03,30c-.33,8.76-1.08,17.61-3.7,26.03-2.07,7.09-5.04,14.35-10.94,19.14-11.13,9.73-26.2,12.5-40.33,14.89-.91-2.96-1.3-6.32-3.61-8.6a58.138,58.138,0,0,1,.2,8.45,80.463,80.463,0,0,1-7.33-6.59c-8.57-11.75-15.93-24.34-24.1-36.36-9.09-14.53-18.97-28.56-27.89-43.2-.7-13.2-8.53-26.16-21.05-31.17a86.378,86.378,0,0,0-4.34-7.82C1652.214,118.185,1656.954,115.685,1661.494,112.965Z" fill="#d4dfff"/>
      <path id="Path_7352" data-name="Path 7352" d="M1500.914,268.365a164.461,164.461,0,0,1,17.2-.07c1.91,4.58,5.06,8.47,8.33,12.15,5.73,6.44,12.34,12.75,20.88,15.08,6.11,1.62,12.36-.46,18.01-2.76a133.125,133.125,0,0,0,23.9-14.07c4.18-3.18,8.84-5.91,12.05-10.17l1.82-.08c11.5-.6,23.03-.01,34.55-.3,24.96.16,49.92-.09,74.88.14l.01.42c-3.56,6.22-5.89,13.03-8.72,19.59-9.75,24-19.33,48.3-24.47,73.78-3.12,15-.03,30.4,4.71,44.71a180.525,180.525,0,0,0,10.51,26.68c.2-1.49.37-2.97.53-4.46,1.44,7.45.88,15.17,2.99,22.5-.36,3.81.55,7.57.95,11.34.75,5.78,1.16,11.6,1.98,17.37a13.239,13.239,0,0,0,1.91-3.07c10.05-23.19,19.73-46.62,31.79-68.87l-2,.4a16.38,16.38,0,0,1,5.21-4.03c-.3,1.51-.59,3.04-.91,4.56v-2.67c-.5.52-1.48,1.54-1.97,2.06-12.3,22.84-22.21,46.86-32.51,70.64-1.3,2.54-1.01,5.41-.73,8.15q-63.15-.03-126.3-.01c-.18-.77-.52-2.31-.7-3.08-4.77-5.38-10.4-9.97-15.17-15.37,5.74,4.48,10.38,10.19,15.9,14.92.72-5.45,1.29-10.92,2.05-16.36,6.9-10.66,11.76-22.49,17.74-33.67,5.76-12.56,12.15-24.82,17.56-37.54a46.943,46.943,0,0,0,3.75-11.17,17.73,17.73,0,0,0-7.97-.13c-26.1,5.53-50.94,15.53-76.63,22.55-8.98,2.33-19.68,4.46-27.75-1.51.06-9.01-.51-18.12.98-27.05.26,1.04.54,2.09.83,3.14,1.96-7.81,4.42-15.49,6.11-23.36.08-1.09.8-2.83-.84-3.03a79.293,79.293,0,0,0-28.57-.29c-3.85.67-6.45,3.84-8.06,7.18-.05-2.88-.24-5.83.75-8.59,3.13-9.32,7.83-17.99,12.15-26.79,4.64-8.44,9.15-16.96,13.77-25.42,1.33-2.72,3.19-5.48,2.9-8.65C1503.714,284.825,1502.234,276.6,1500.914,268.365Z" fill="#d4dfff"/>
    </g>
    <g id="Group_443" data-name="Group 443">
      <path id="Path_7353" data-name="Path 7353" d="M1612,98.835c3.11,5.73,4.65,12.25,5.63,18.65C1614.474,111.835,1611.784,105.435,1612,98.835Z" fill="#f3c753"/>
      <path id="Path_7354" data-name="Path 7354" d="M1584.664,114.275c5.8,4.04,10.6,9.4,14.91,14.97C1593.594,125.5,1587.984,120.575,1584.664,114.275Z" fill="#f3c753"/>
      <path id="Path_7355" data-name="Path 7355" d="M1572.094,145.025a59.723,59.723,0,0,1,19.5.84l1.03.24C1585.784,146.915,1578.714,147.155,1572.094,145.025Z" fill="#f3c753"/>
    </g>
    <g id="Group_444" data-name="Group 444">
      <path id="Path_7356" data-name="Path 7356" d="M1886.194,117.765c1.88-.54,4.53-.63,5.39,1.56,1.69,2.44-1.06,6.09-3.87,5.37C1884.364,124.475,1883.854,119.575,1886.194,117.765Z" fill="#687fe4"/>
    </g>
    <g id="Group_445" data-name="Group 445">
      <path id="Path_7357" data-name="Path 7357" d="M1902.984,122.875c-1.89-2.46.2-5.38,2.68-6.26,1.52.78,3.99,1.33,3.89,3.54C1910.374,123.825,1904.914,126.165,1902.984,122.875Z" fill="#687fe5"/>
    </g>
    <g id="Group_446" data-name="Group 446">
      <path id="Path_7358" data-name="Path 7358" d="M1920.3,117.875c2.35-1.9,6.99-1.44,7.02,2.21.45,3.38-4.32,5.28-6.44,2.82C1919.534,121.545,1920.294,119.545,1920.3,117.875Z" fill="#6880e5"/>
      <path id="Path_7359" data-name="Path 7359" d="M1523.164,466.785c6.11,3.07,13.76,3.04,18.72,8.16,2.26,2.01,5.62,1.45,8.19,2.86,2.71,1.49,4.97,3.78,7.94,4.83,4.36,1.59,8.93,2.65,13.11,4.73-6.54-.01-13.08.08-19.62,0A68.168,68.168,0,0,1,1523.164,466.785Z" fill="#6880e5"/>
    </g>
    <g id="Group_449" data-name="Group 449">
      <path id="Path_7360" data-name="Path 7360" d="M1868.164,118.625c2.32-2.65,7.01.21,6.15,3.48-.38,3.27-5.67,3.94-6.96,1.01A3.85,3.85,0,0,1,1868.164,118.625Z" fill="#6881e6"/>
      <g id="Group_447" data-name="Group 447">
        <path id="Path_7361" data-name="Path 7361" d="M1735.054,408.6c.49-.52,1.47-1.54,1.97-2.06v2.67c-.99,4.49-1.78,9.03-2.68,13.54a261.91,261.91,0,0,1-8.55,30.51,121.767,121.767,0,0,1,19.23-18.81c2.19-1.71,4.3-3.94,7.26-4.08-1.65,11.77-4.82,23.44-10.79,33.79,6.24-3.69,12.12-8.53,19.37-10.05-1.24,4.36-4.11,7.94-6.66,11.6-6.33,8.81-13.98,17.17-24.04,21.7-2.44.03-4.87-.2-7.29-.26,3.72-3.76,8.55-6.21,12-10.25-5,3.17-9.45,7.1-14.32,10.46-2.84.07-5.68,0-8.52-.03,7.11-9.67,15.07-18.85,20.88-29.4-7.58,9.69-14.07,20.24-22.31,29.43-2.93.04-5.86.03-8.79.03-.28-2.74-.57-5.61.73-8.15C1712.844,455.455,1722.754,431.435,1735.054,408.6Zm.57,67.65a60.3,60.3,0,0,0,12.38-10.49A84.3,84.3,0,0,0,1735.624,476.245Z" fill="#6881e6"/>
      </g>
      <path id="Path_7362" data-name="Path 7362" d="M1718.524,423.185c4.5-5.07,9.53-9.62,14.2-14.51l2-.4c-12.06,22.25-21.74,45.68-31.79,68.87a13.239,13.239,0,0,1-1.91,3.07c-.82-5.77-1.23-11.59-1.98-17.37-.4-3.77-1.31-7.53-.95-11.34A145.669,145.669,0,0,1,1718.524,423.185Z" fill="#6881e6"/>
      <g id="Group_448" data-name="Group 448">
        <path id="Path_7363" data-name="Path 7363" d="M1552.894,422.985c10.49,3.62,19.66,10.21,27.42,18.03a134.4,134.4,0,0,1-1.95,16.72c-5.89-7.77-10.28-16.66-16.91-23.89,5.08,8.67,11.72,16.4,16.31,25.37.64,2.71.04,5.53-.17,8.27-.76,5.44-1.33,10.91-2.05,16.36-5.52-4.73-10.16-10.44-15.9-14.92,4.77,5.4,10.4,9.99,15.17,15.37.18.77.52,2.31.7,3.08-1.47-.01-2.93-.02-4.39-.01-4.18-2.08-8.75-3.14-13.11-4.73-2.97-1.05-5.23-3.34-7.94-4.83-2.57-1.41-5.93-.85-8.19-2.86-4.96-5.12-12.61-5.09-18.72-8.16l.24-2.32c8.27.12,16.36,1.92,24.42,3.54a69.339,69.339,0,0,1-15.54-14.36,66.441,66.441,0,0,1-10.7-19.33c5.07.24,9.59,2.7,14.21,4.55a108.743,108.743,0,0,1,26.99,16.26,92.934,92.934,0,0,1-10.79-31.6c1.61,1.49,3.22,3.02,4.8,4.55C1555.484,426.395,1554.164,424.685,1552.894,422.985Zm-23.33,17.87a59.345,59.345,0,0,0,11.27,10.5A71.374,71.374,0,0,0,1529.564,440.855Zm12.98,12.04c4.12,4.39,8.28,8.94,13.22,12.41C1551.664,460.885,1547.464,456.385,1542.544,452.895Zm14.48,13.55" fill="#6881e6"/>
      </g>
    </g>
    <g id="Group_451" data-name="Group 451">
      <g id="Group_450" data-name="Group 450">
        <path id="Path_7364" data-name="Path 7364" d="M1621.254,128.685a40.736,40.736,0,0,1,15.12-2.28,64.151,64.151,0,0,1,16.39,3.37c12.52,5.01,20.35,17.97,21.05,31.17a64.776,64.776,0,0,1-13.6,39.45c.29.42.85,1.26,1.14,1.67-3.69,3.48-7.38,7.06-9.93,11.49-1.86-1.23-3.72-1.17-5.12.65-8.06,1-16.07,4.57-24.27,2.52-7.15-2.56-11.88-8.77-16.47-14.47-1.33-1.53-2.51-3.57-4.78-3.65-3.23-9.1-5.63-18.76-4.75-28.48a66.479,66.479,0,0,1,7.64-24.99A34.707,34.707,0,0,1,1621.254,128.685Zm15.46,21.5c-.32,1.19-.64,2.39-.97,3.59a43.674,43.674,0,0,0-7.81,1.15c-.74-1.12-1.48-2.24-2.21-3.36-1.93,1.06-3.83,2.16-5.7,3.33.32,1.31,1.96,2.58,1.35,4.01-1.36,2-2.96,3.81-4.33,5.8-.91-.28-2.71-.85-3.62-1.13a19.55,19.55,0,0,0-1.48,6.83c1.09.25,2.19.5,3.3.76.3,2.69.66,5.39,1.17,8.05-1.11.64-2.22,1.27-3.33,1.91,1.05,1.98,2.15,3.94,3.37,5.82,1.26-.35,2.46-1.84,3.83-1.44,2,1.35,3.83,2.93,5.82,4.3a12.793,12.793,0,0,0-.07,4.14c1.83.83,3.91.83,5.87,1.12.35-1.15.71-2.29,1.08-3.43a66.417,66.417,0,0,0,7.81-.99c.6,1.08,1.2,2.16,1.81,3.25a45.131,45.131,0,0,0,5.81-3.42c-.34-1.26-1.85-2.49-1.29-3.88,1.4-2.03,3.04-3.88,4.46-5.9.86.28,2.58.83,3.44,1.11a25.991,25.991,0,0,0,1.67-6.78c-1.05-.24-2.08-.52-3.11-.82-.87-1.91-.8-4.17-1.2-6.22-.88-2.13,1.83-2.73,2.97-3.82-1.02-1.92-2.13-3.79-3.31-5.62-1.3.38-2.61,1.83-4.04,1.23-1.75-1.25-3.39-2.64-5.16-3.86.1-1.4.21-2.8.32-4.19A59.851,59.851,0,0,0,1636.714,150.185Z" fill="#f8c438"/>
      </g>
      <path id="Path_7365" data-name="Path 7365" d="M1631.1,160.615c5.6-1.39,11.96,1.29,14.37,6.65,2.95,5.27.84,12.28-3.99,15.65-3.18,2.55-7.62,2.34-11.4,1.63-6.56-2.17-9.91-10.06-7.46-16.42A13.168,13.168,0,0,1,1631.1,160.615Z" fill="#f8c438"/>
    </g>
    <g id="Group_452" data-name="Group 452">
      <path id="Path_7366" data-name="Path 7366" d="M1549.384,151.1c.93-5.5,9.17-7.62,12.56-3.15,1.81,1.74,1.15,4.36,1.18,6.58,3.38-.65,7.25-.17,9.57,2.65,2.36,3.15.89,7.39,2.16,10.89,1.23,2.46,3.33,4.46,4.15,7.14.61,2.05-.36,4.08-1.01,5.98-2.01-3.98-3.52-8.21-5.7-12.11-.05.39-.14,1.15-.18,1.53a5.569,5.569,0,0,1-7.59,3.24c-2.18,1.1-4.46,2.21-6.97,1.68-.82,1.5-1.62,3.01-2.42,4.52-.85-1.05-1.71-2.11-2.57-3.16-2.15,1.63-2.33,4.17-1.38,6.54,1.31.2,2.62.41,3.94.63-1.46,2.59-3.15,5.04-4.75,7.54-2.2-.65-4.7-.98-6.31-2.8-5.35-5.47-6.72-13.81-5.58-21.14.85-5.29,6.45-7.27,10.56-9.56,4.17,2.3,9.98,2.59,12.92-1.78-3.29.28-6.6.28-9.9.49C1550.894,155.085,1549.044,153.4,1549.384,151.1Z" fill="#1b3d9f"/>
      <path id="Path_7367" data-name="Path 7367" d="M1815.6,161.245c6.47-1.27,13.86-.64,19.01,3.87,3.62,3.55,9.38,3.52,12.84,7.32a9.6,9.6,0,0,1,2.39,10.95c-1.64.36-2.59-1.37-3.81-2.13a21.717,21.717,0,0,1,0,8.31q-1.425-.6-2.82-1.2c-3.41,5.28-7.48,10.69-13.6,12.94-3.9-1.49-5.04-5.68-6.02-9.3,1.49-.37,3.82.55,4.56-1.28a8.522,8.522,0,0,0,.93-3.71c-2.01-1.9-3.8.46-5.3,1.7,1.24-3.41,2.43-6.85,3.73-10.24-3.78-.57-7.48-1.51-11.24-2.13-2.63-.33-6.3.98-7.94-1.83.24-3.58,4.64-4.38,7.28-5.72a29.664,29.664,0,0,1-8.2.4c.72-4.81,6.14-5.98,10.23-5.91Q1816.609,162.265,1815.6,161.245Z" fill="#1b3d9f"/>
      <path id="Path_7368" data-name="Path 7368" d="M1825.674,306.655c5.87-.99,11.85-1.12,17.7-2.25,6.86,12.5,3.37,27.27-.83,40.03-4.35,10.76-5.76,22.37-7.89,33.69-2.7,17.76-5.15,35.54-7.08,53.4-.64,4.22-1.2,8.44-1.57,12.7-.44,4.5-1.71,8.92-1.61,13.47-4.18-.27-8.37-.41-12.56-.51.22-17.39.95-34.76,2.01-52.11,1.19-12.99,1.05-26.12,3.36-38.99,1.91-10.52,2.86-21.18,4.76-31.71C1822.884,325.1,1824.874,315.945,1825.674,306.655Z" fill="#1b3d9f"/>
      <path id="Path_7369" data-name="Path 7369" d="M1803.684,308.505c6.88,1.1,13.69-.74,20.48-1.63-.83,8.22-1.6,16.49-3.36,24.56-6.08-4.25-9.28-10.99-11.94-17.66-1.94,3.46.18,7.2,1.69,10.38,2.15,3.91,5.3,8.3,10.17,8.57-1.89,16.16-5.19,32.13-6.49,48.36-1.92,18.27-1.9,36.66-3.06,54.99-.26,6.98-.07,13.99-.76,20.96a47.893,47.893,0,0,1-11.09.48c.66-10.17-.63-20.41-.48-30.62-.64-10.24-.44-20.51-.65-30.76-.01-11.32-.56-22.67.36-33.97C1800.254,344.275,1802.124,326.385,1803.684,308.505Z" fill="#1b3d9f"/>
    </g>
    <g id="Group_453" data-name="Group 453">
      <path id="Path_7370" data-name="Path 7370" d="M1790.484,157.185a48.124,48.124,0,0,1-.23-8.57c9.04,11.21,17.09,23.64,21.3,37.52-2.75.33-5.5.59-8.23,1.04,2.24,2.05,5.02,3.3,7.67,4.74-.1.49-.29,1.47-.39,1.96-.32,1.49-.65,2.98-.9,4.48a20.877,20.877,0,0,0,.57,3.33c1.29,1.25,3.24,1.11,4.89,1.44a96.1,96.1,0,0,1-.2,15.08l-.13.8c-10.07,15.13-19.41,30.87-26.3,47.73-1.53.87-3.05,1.76-4.57,2.64-12.37-7.67-26.1-13.52-40.46-16.08-3.6-.04-6.68-2.32-6.96-6.05,14.13-2.39,29.2-5.16,40.33-14.89,5.9-4.79,8.87-12.05,10.94-19.14,2.62-8.42,3.37-17.27,3.7-26.03A216.167,216.167,0,0,0,1790.484,157.185Z" fill="#b3c4f7"/>
      <path id="Path_7371" data-name="Path 7371" d="M1518.114,268.3a97.246,97.246,0,0,0,11.19-.39c3.77,6.74,8.66,13.35,15.82,16.73,5.41,2.68,11.89,2.44,17.41.2,9.57-3.81,17.95-9.99,26.07-16.21,4.23-.06,8.46,0,12.68-.1-3.21,4.26-7.87,6.99-12.05,10.17a133.125,133.125,0,0,1-23.9,14.07c-5.65,2.3-11.9,4.38-18.01,2.76-8.54-2.33-15.15-8.64-20.88-15.08C1523.174,276.765,1520.024,272.875,1518.114,268.3Z" fill="#b3c4f7"/>
      <path id="Path_7372" data-name="Path 7372" d="M1703.824,288.3c2.83-6.56,5.16-13.37,8.72-19.59,1.43,9.42-1.04,18.76-2.36,28.03-3.52,17.3-8.47,34.27-13.8,51.08a138.689,138.689,0,0,0-5.43,30.25c-1.17,15,1.75,29.86,3.18,44.74.31,2.06.67,4.13.97,6.2-.16,1.49-.33,2.97-.53,4.46a180.525,180.525,0,0,1-10.51-26.68c-4.74-14.31-7.83-29.71-4.71-44.71C1684.494,336.6,1694.074,312.3,1703.824,288.3Z" fill="#b3c4f7"/>
      <path id="Path_7373" data-name="Path 7373" d="M1482.8,355.425a79.293,79.293,0,0,1,28.57.29c1.64.2.92,1.94.84,3.03-1.69,7.87-4.15,15.55-6.11,23.36-.29-1.05-.57-2.1-.83-3.14,1.02-6.76,1.93-13.53,2.8-20.31-1.76.1-3.5.18-5.25.37-9.43.61-18.65,3.08-28.08,3.58C1476.354,359.265,1478.954,356.1,1482.8,355.425Z" fill="#b3c4f7"/>
      <path id="Path_7374" data-name="Path 7374" d="M1608.674,384.975a17.73,17.73,0,0,1,7.97.13,46.943,46.943,0,0,1-3.75,11.17c-5.41,12.72-11.8,24.98-17.56,37.54-5.98,11.18-10.84,23.01-17.74,33.67.21-2.74.81-5.56.17-8.27-4.59-8.97-11.23-16.7-16.31-25.37,6.63,7.23,11.02,16.12,16.91,23.89a134.4,134.4,0,0,0,1.95-16.72c1.03-9.02,2.58-17.98,3.24-27.04-21.88,2.03-43.75,5.35-65.78,4.66-3.46-.24-7.29-.27-10.16-2.47-2.47-2.74-2.94-6.64-3.32-10.15,8.07,5.97,18.77,3.84,27.75,1.51C1557.734,400.505,1582.574,390.505,1608.674,384.975Z" fill="#b3c4f7"/>
      <path id="Path_7375" data-name="Path 7375" d="M1529.564,440.855a71.374,71.374,0,0,1,11.27,10.5A59.345,59.345,0,0,1,1529.564,440.855Z" fill="#b3c4f7"/>
      <path id="Path_7376" data-name="Path 7376" d="M1542.544,452.895c4.92,3.49,9.12,7.99,13.22,12.41C1550.824,461.835,1546.664,457.285,1542.544,452.895Z" fill="#b3c4f7"/>
      <path id="Path_7377" data-name="Path 7377" d="M1735.624,476.245a84.3,84.3,0,0,1,12.38-10.49A60.3,60.3,0,0,1,1735.624,476.245Z" fill="#b3c4f7"/>
    </g>
    <g id="Group_455" data-name="Group 455">
      <g id="Group_454" data-name="Group 454">
        <path id="Path_7378" data-name="Path 7378" d="M1636.714,150.185a59.851,59.851,0,0,1,6.45,1.54c-.11,1.39-.22,2.79-.32,4.19,1.77,1.22,3.41,2.61,5.16,3.86,1.43.6,2.74-.85,4.04-1.23,1.18,1.83,2.29,3.7,3.31,5.62-1.14,1.09-3.85,1.69-2.97,3.82.4,2.05.33,4.31,1.2,6.22,1.03.3,2.06.58,3.11.82a25.991,25.991,0,0,1-1.67,6.78c-.86-.28-2.58-.83-3.44-1.11-1.42,2.02-3.06,3.87-4.46,5.9-.56,1.39.95,2.62,1.29,3.88a45.131,45.131,0,0,1-5.81,3.42c-.61-1.09-1.21-2.17-1.81-3.25a66.417,66.417,0,0,1-7.81.99c-.37,1.14-.73,2.28-1.08,3.43-1.96-.29-4.04-.29-5.87-1.12a12.793,12.793,0,0,1,.07-4.14c-1.99-1.37-3.82-2.95-5.82-4.3-1.37-.4-2.57,1.09-3.83,1.44-1.22-1.88-2.32-3.84-3.37-5.82,1.11-.64,2.22-1.27,3.33-1.91-.51-2.66-.87-5.36-1.17-8.05-1.11-.26-2.21-.51-3.3-.76a19.55,19.55,0,0,1,1.48-6.83c.91.28,2.71.85,3.62,1.13,1.37-1.99,2.97-3.8,4.33-5.8.61-1.43-1.03-2.7-1.35-4.01,1.87-1.17,3.77-2.27,5.7-3.33.73,1.12,1.47,2.24,2.21,3.36a43.674,43.674,0,0,1,7.81-1.15C1636.074,152.575,1636.394,151.375,1636.714,150.185Zm-5.61,10.43a13.168,13.168,0,0,0-8.48,7.51c-2.45,6.36.9,14.25,7.46,16.42,3.78.71,8.22.92,11.4-1.63,4.83-3.37,6.94-10.38,3.99-15.65C1643.064,161.9,1636.7,159.225,1631.1,160.615Z" fill="#fffffe"/>
      </g>
    </g>
    <g id="Group_456" data-name="Group 456">
      <path id="Path_7379" data-name="Path 7379" d="M1552.064,156.815c3.3-.21,6.61-.21,9.9-.49-2.94,4.37-8.75,4.08-12.92,1.78C1549.8,157.775,1551.314,157.135,1552.064,156.815Z" fill="#1e167a"/>
    </g>
    <g id="Group_457" data-name="Group 457">
      <path id="Path_7380" data-name="Path 7380" d="M1572.294,169.085c2.18,3.9,3.69,8.13,5.7,12.11a37.592,37.592,0,0,1-3.64,4.51c-.42-5.08-1.53-10.06-2.24-15.09C1572.154,170.235,1572.244,169.475,1572.294,169.085Z" fill="#1d056c"/>
    </g>
    <g id="Group_458" data-name="Group 458">
      <path id="Path_7381" data-name="Path 7381" d="M1564.524,173.855a5.569,5.569,0,0,0,7.59-3.24c.71,5.03,1.82,10.01,2.24,15.09.12,1.42.24,2.85.36,4.28-2.42.35-4.84.75-7.25,1.17a20.258,20.258,0,0,0,4.84.62c.78.53,1.56,1.07,2.33,1.63-.53,2.39-.33,5.52-2.64,7.05-2.91,1.08-6.1.25-8.9-.74-2.41-1.91-4.79-3.86-7.35-5.57.07,5.4,1.23,11.11,5.46,14.86-.77,3.06-1.35,6.16-1.86,9.28-.34-.18-1.01-.55-1.35-.73-5.64-2.73-10.88-6.22-16.19-9.53,1.86-4.06,3.81-8.07,6.01-11.95q1.23-2.265,2.56-4.47c1.6-2.5,3.29-4.95,4.75-7.54-1.32-.22-2.63-.43-3.94-.63-.95-2.37-.77-4.91,1.38-6.54.86,1.05,1.72,2.11,2.57,3.16.8-1.51,1.6-3.02,2.42-4.52C1560.064,176.065,1562.344,174.955,1564.524,173.855Z" fill="#fe8e9d"/>
      <path id="Path_7382" data-name="Path 7382" d="M1816.274,176.345c3.76.62,7.46,1.56,11.24,2.13-1.3,3.39-2.49,6.83-3.73,10.24,1.5-1.24,3.29-3.6,5.3-1.7a8.522,8.522,0,0,1-.93,3.71c-.74,1.83-3.07.91-4.56,1.28.98,3.62,2.12,7.81,6.02,9.3a84.822,84.822,0,0,1,5.05,16.01c-6.14,3.16-13.22,2.32-19.83,1.69l.13-.8c.73-4.96,1.52-9.91,2.44-14.84l-2.24-.24c-1.65-.33-3.6-.19-4.89-1.44a20.877,20.877,0,0,1-.57-3.33,19.663,19.663,0,0,0,6.51-3.84q-2.8-.36-5.61-.64c.1-.49.29-1.47.39-1.96-2.65-1.44-5.43-2.69-7.67-4.74,2.73-.45,5.48-.71,8.23-1.04C1815.934,185.125,1815.694,179.845,1816.274,176.345Z" fill="#fe8e9d"/>
      <path id="Path_7383" data-name="Path 7383" d="M1838.734,462.485a129.245,129.245,0,0,0,15.05-1.79c.28,4.79.16,9.59.42,14.39a23.94,23.94,0,0,1-17.17-.63c1.05-1.08,2.11-2.15,3.17-3.23C1839.674,468.315,1839.174,465.4,1838.734,462.485Z" fill="#fe8e9d"/>
      <path id="Path_7384" data-name="Path 7384" d="M1805.224,464.655a138.459,138.459,0,0,0,14.83-.32,69.105,69.105,0,0,0,.55,10.95,23.136,23.136,0,0,1-17.21-.72c1.04-1.03,2.06-2.09,3.07-3.16C1806.034,469.155,1805.634,466.895,1805.224,464.655Z" fill="#fe8e9d"/>
    </g>
    <g id="Group_460" data-name="Group 460">
      <path id="Path_7385" data-name="Path 7385" d="M1469.954,178.245a4.437,4.437,0,0,1,4.72-4.02c6.35-.23,12.71.08,19.06-.08,2.25-.11,5.45.32,5.81,3.09.54,5.05-.16,10.16.61,15.2,10.79,2.68,21.32,6.59,30.67,12.7,4.27-2.96,7.39-7.22,11.53-10.3,1.87-1.48,3.81.39,5.46,1.24-2.2,3.88-4.15,7.89-6.01,11.95l-1.34,1.12c-7.7,6.53-14.94,13.85-20.3,22.46-10.62-9.47-25.38-13.96-39.49-12.82-13.66.71-26.55,7.64-35.77,17.58-7.53,7.96-11.97,18.44-13.77,29.16-2.13,15.98,3.18,33.05,14.72,44.45,10.3,11.79,26.32,17.63,41.79,17.25-4.32,8.8-9.02,17.47-12.15,26.79-.99,2.76-.8,5.71-.75,8.59,9.43-.5,18.65-2.97,28.08-3.58-5.47,1.63-1.17,8.66-4.37,11.73-6.86,1-13.83.08-20.74.45-2.6-.16-6.57.73-7.39-2.66-1.14-5.04-.29-10.29-.64-15.41-5.12-1.48-10.41-2.5-15.29-4.7-5.3-2.37-10.4-5.16-15.46-7.99-3.32,2.98-6.23,6.37-9.47,9.42-1.51,1.55-4.35,2.15-5.95.44-4.59-4.06-8.67-8.66-13.11-12.87-1.82-1.99-4.81-4.11-3.67-7.21,2.85-4.45,7.91-7.12,10.51-11.75-3.69-6.77-7.86-13.43-9.91-20.93-.84-3.13-1.74-6.23-2.77-9.3-4.63-.36-9.28-.04-13.91-.26a3.715,3.715,0,0,1-3.87-3.86c-.32-6.64,0-13.3-.09-19.95.24-1.93-.37-4.34,1.19-5.83,5.51-.73,11.1.03,16.64-.41.91-2.87,1.72-5.77,2.46-8.68,2.19-8.04,6.19-15.42,10.59-22.43a123.564,123.564,0,0,0-8.68-8.9c-1.39-1.42-3.25-3.38-1.75-5.41,3.28-5.85,9.47-9.16,13.71-14.21,1.76-1.68,3.48-4.93,6.39-3.79,4.12,2.85,6.81,7.32,10.89,10.24,4.34-.56,7.79-3.67,11.67-5.47a89.709,89.709,0,0,1,19.73-6.58C1469.974,187.9,1469.524,183.045,1469.954,178.245Z" fill="#e9f3fb"/>
      <path id="Path_7386" data-name="Path 7386" d="M1783.964,269.375c1.52-.88,3.04-1.77,4.57-2.64-.59,1.48-1.16,2.98-1.73,4.47C1785.854,270.6,1784.9,269.975,1783.964,269.375Z" fill="#e9f3fb"/>
      <g id="Group_459" data-name="Group 459">
        <path id="Path_7387" data-name="Path 7387" d="M1743.994,317.3a62.991,62.991,0,0,1,10.46.01c.23,2.09.5,4.17.79,6.26a66.762,66.762,0,0,1,11.18,4.32q2.115-2.01,4.27-3.99a23.674,23.674,0,0,1,7.77,7.84,23.444,23.444,0,0,0-3.72,4.48c1.5,3.84,3.3,7.57,4.29,11.6q3.255.21,6.51.47a31.159,31.159,0,0,1-.35,10.33q-3.045.435-6.07.92a80.449,80.449,0,0,1-4.37,10.67q2.01,2.505,4.09,4.96c-2.22,2.49-4.29,5.29-7.26,6.93-2.04.12-3.35-2.11-4.96-3.11-3.83,1.57-7.78,2.81-11.61,4.38-.29,2.03-.08,4.24-1.03,6.12-3.15,1.26-6.71.47-10.02.49q-.27-3.27-.56-6.52c-3.88-1.41-7.56-3.53-11.66-4.25-1.44.9-2.74,2-4.18,2.91-2.91-.45-4.74-3.3-6.49-5.42-1.53-2.61,1.6-4.69,2.85-6.67a57.134,57.134,0,0,1-4.58-10.6,36.289,36.289,0,0,1-5.97-.89c-1.24-3.26-.55-6.86-.5-10.26q3.2-.21,6.42-.41a80.59,80.59,0,0,1,4.4-11.59,39,39,0,0,0-3.79-4.78,59.56,59.56,0,0,1,7.76-7.47c1.46,1.25,2.92,2.5,4.38,3.77,3.54-1.72,7.3-2.9,10.93-4.41C1743.944,321.545,1743.674,319.3,1743.994,317.3Zm2.12,16.21a19.772,19.772,0,0,0-14.52,10.66,20.6,20.6,0,0,0,.09,18.94,23.476,23.476,0,0,0,13.14,9.79c4.37.54,9.18.77,13.12-1.55,5.98-3.58,11.26-9.52,11.21-16.88C1770.444,342.245,1758.134,331.125,1746.114,333.505Z" fill="#e9f3fb"/>
      </g>
    </g>
    <g id="Group_461" data-name="Group 461">
      <path id="Path_7388" data-name="Path 7388" d="M1555.744,194.145c2.56,1.71,4.94,3.66,7.35,5.57-.56,3.11-1.1,6.22-1.89,9.29C1556.974,205.255,1555.814,199.545,1555.744,194.145Z" fill="#e57492"/>
    </g>
    <g id="Group_462" data-name="Group 462">
      <path id="Path_7389" data-name="Path 7389" d="M1810.6,193.875q2.8.285,5.61.64a19.663,19.663,0,0,1-6.51,3.84C1809.954,196.855,1810.284,195.365,1810.6,193.875Z" fill="#f7e3e9"/>
    </g>
    <g id="Group_463" data-name="Group 463">
      <path id="Path_7390" data-name="Path 7390" d="M1600.784,198.6c2.27.08,3.45,2.12,4.78,3.65,4.59,5.7,9.32,11.91,16.47,14.47,8.2,2.05,16.21-1.52,24.27-2.52-.8.83-1.59,1.66-2.37,2.5a80.575,80.575,0,0,0-13.39,17.77c-7.71-1.76-15.35-3.81-22.95-5.98C1608.084,218.085,1604.184,208.235,1600.784,198.6Z" fill="#f6ac35"/>
    </g>
    <g id="Group_465" data-name="Group 465">
      <g id="Group_464" data-name="Group 464">
        <path id="Path_7391" data-name="Path 7391" d="M1520.164,231.6c5.36-8.61,12.6-15.93,20.3-22.46a8.378,8.378,0,0,0,1,8.29c3.3,4.54,7.94,8.51,13.55,9.72a23.834,23.834,0,0,0,2.98-9.6c.34.18,1.01.55,1.35.73a44.86,44.86,0,0,0,5.65,5.02,17.062,17.062,0,0,0,.09-11.58c5.48,2.75,11.27,5.05,16.1,8.91a222.774,222.774,0,0,0,18.87,13.46c.29.5.86,1.5,1.14,2-.86,1.65-1.82,3.24-2.64,4.91.56-.25,1.67-.75,2.23-1,1.38,5.01,3.08,9.91,4.73,14.84-.53.38-1.59,1.13-2.13,1.51-4.52,3.88-9.07,7.73-13.7,11.49a79.95,79.95,0,0,0,12.85.61l.57-.01-1.82.08c-4.22.1-8.45.04-12.68.1-8.12,6.22-16.5,12.4-26.07,16.21-5.52,2.24-12,2.48-17.41-.2-7.16-3.38-12.05-9.99-15.82-16.73-4.91-7.87-9.9-16.07-11.6-25.32C1516.884,238.735,1518.214,234.885,1520.164,231.6Zm67.4-3.67c1.32,3.99,3.38,7.67,4.89,11.59-6.41,2.98-13.15,5.15-19.74,7.68-4.66,1.5-9.12,3.76-14.01,4.42-4.69-1.66-7.36-6.18-10.92-9.36,2.02,4.55,4.86,8.94,8.9,11.94,3.02,2.11,6.75.4,9.93-.41a325.952,325.952,0,0,0,31.59-12.64A48.394,48.394,0,0,0,1587.564,227.935Z" fill="#fc4769"/>
      </g>
      <path id="Path_7392" data-name="Path 7392" d="M1814.834,219.005c6.61.63,13.69,1.47,19.83-1.69,4.97,4.91,10.16,10.17,12.52,16.89,1.32,10.76-1.75,21.41-3.04,32.03-1,8.32-2.42,16.6-2.8,24.97-.33,3.88,1.14,7.54,2.68,11.02-.16.54-.49,1.63-.65,2.18-5.85,1.13-11.83,1.26-17.7,2.25-.38.05-1.14.16-1.51.22-6.79.89-13.6,2.73-20.48,1.63a42.334,42.334,0,0,1-.14-9.87c6.01-2.7,9.42-8.64,12.44-14.17a122.366,122.366,0,0,0,9.59-24.51,225.29,225.29,0,0,1-18.45,26.61c-2.16,2.38-2.98,5.54-3.29,8.66.09-1.46.17-2.91.24-4.36-2.87,2.31-5.59,4.97-9.04,6.4-3.75,1.31-7.81.19-11.35-1.23-6.91-2.9-13.19-7.06-19.34-11.29-6.59-4.6-12.79-9.72-19.13-14.66-2.32-2.13-4.73-4.15-7.06-6.26.91-3.9,3.12-7.27,5.35-10.53,14.36,2.56,28.09,8.41,40.46,16.08.94.6,1.89,1.22,2.84,1.83.57-1.49,1.14-2.99,1.73-4.47C1795.424,249.875,1804.764,234.135,1814.834,219.005Z" fill="#fc4769"/>
      <path id="Path_7393" data-name="Path 7393" d="M1646.024,217.835q2.085,1.155,4.18,2.33c-5.05,12.73-10.1,25.56-17.13,37.36-2.02,2.96-3.91,6.51-7.33,8a56.757,56.757,0,0,1-16.19-.75c.59-.07,1.75-.23,2.34-.31-.14-.77-.43-2.32-.57-3.09l-1.54-.83a19.628,19.628,0,0,0,9.77.59c2.21-.47,4.83-.84,6.12-2.96a16.186,16.186,0,0,1,5.81-5.43c1.84-.76,1.53-3,1.98-4.58.3-2.61,2.15-4.65,2.81-7.13.36-2.63-.95-5.09-1.32-7.64C1637.474,227.495,1642.024,222.755,1646.024,217.835Z" fill="#fc4769"/>
    </g>
    <g id="Group_466" data-name="Group 466">
      <path id="Path_7394" data-name="Path 7394" d="M1630.544,234.475a80.575,80.575,0,0,1,13.39-17.77c.52.28,1.57.85,2.09,1.13-4,4.92-8.55,9.66-11.07,15.56.37,2.55,1.68,5.01,1.32,7.64-.66,2.48-2.51,4.52-2.81,7.13-.45,1.58-.14,3.82-1.98,4.58a16.186,16.186,0,0,0-5.81,5.43c-1.29,2.12-3.91,2.49-6.12,2.96a15.826,15.826,0,0,0,7.23-7.51,6.244,6.244,0,0,0,4.88-8.53l.59-.81C1635.164,241.325,1634.684,236.045,1630.544,234.475Z" fill="#d30321"/>
    </g>
    <g id="Group_467" data-name="Group 467">
      <path id="Path_7395" data-name="Path 7395" d="M1587.564,227.935a48.394,48.394,0,0,1,10.64,13.22,325.952,325.952,0,0,1-31.59,12.64c-3.18.81-6.91,2.52-9.93.41-4.04-3-6.88-7.39-8.9-11.94,3.56,3.18,6.23,7.7,10.92,9.36,4.89-.66,9.35-2.92,14.01-4.42,6.59-2.53,13.33-4.7,19.74-7.68C1590.944,235.6,1588.884,231.925,1587.564,227.935Z" fill="#d20120"/>
      <path id="Path_7396" data-name="Path 7396" d="M1807.124,286.565a225.29,225.29,0,0,0,18.45-26.61,122.366,122.366,0,0,1-9.59,24.51c-3.02,5.53-6.43,11.47-12.44,14.17.07-.86.22-2.56.29-3.41C1804.144,292.105,1804.964,288.945,1807.124,286.565Z" fill="#d20120"/>
    </g>
    <g id="Group_468" data-name="Group 468">
      <path id="Path_7397" data-name="Path 7397" d="M1600.054,234.1c.97-3.4,3.55-6.73,7.54-5.6,7.6,2.17,15.24,4.22,22.95,5.98,4.14,1.57,4.62,6.85,1.71,9.81-2.23-.34-4.47-.56-6.72-.74a27.619,27.619,0,0,0,8.37-3.58,72.644,72.644,0,0,0-9.33-.15,13.648,13.648,0,0,0,5.4-3.16c-4.91-.07-9.73,1.08-14.63,1.06q.93-2.16,1.89-4.3-.885-.96-1.77-1.89c-1.74,2.1-3.43,4.24-5.35,6.17A73.95,73.95,0,0,0,1600.054,234.1Z" fill="#d4dffe"/>
    </g>
    <g id="Group_469" data-name="Group 469">
      <path id="Path_7398" data-name="Path 7398" d="M1615.464,231.525q.885.93,1.77,1.89-.96,2.145-1.89,4.3c4.9.02,9.72-1.13,14.63-1.06a13.648,13.648,0,0,1-5.4,3.16,72.644,72.644,0,0,1,9.33.15,27.619,27.619,0,0,1-8.37,3.58c2.25.18,4.49.4,6.72.74l-.59.81c-3.55.79-7.13,1.4-10.7,2.08,1.75.9,3.5,1.8,5.22,2.75-5.36.07-10.63-1.64-15.99-.77l-.89.04c-.87-2.9-1.82-5.77-2.79-8.64,1.21-.94,2.43-1.86,3.6-2.86C1612.034,235.765,1613.724,233.625,1615.464,231.525Z" fill="#fd8e9d"/>
    </g>
    <g id="Group_470" data-name="Group 470">
      <path id="Path_7399" data-name="Path 7399" d="M1600.054,234.1a73.95,73.95,0,0,1,10.06,3.6c-1.17,1-2.39,1.92-3.6,2.86a5.726,5.726,0,0,0-1.86-2.48c-1.32.59-2.58,1.29-3.87,1.93-.56.25-1.67.75-2.23,1,.82-1.67,1.78-3.26,2.64-4.91C1600.914,235.6,1600.344,234.6,1600.054,234.1Z" fill="#bebfed"/>
    </g>
    <g id="Group_471" data-name="Group 471">
      <path id="Path_7400" data-name="Path 7400" d="M1600.784,240.005c1.29-.64,2.55-1.34,3.87-1.93a5.726,5.726,0,0,1,1.86,2.48c.97,2.87,1.92,5.74,2.79,8.64,1.3,3.02-1.77,4.25-3.79,5.65C1603.864,249.915,1602.164,245.015,1600.784,240.005Z" fill="#fdfdfd"/>
    </g>
    <g id="Group_472" data-name="Group 472">
      <path id="Path_7401" data-name="Path 7401" d="M1732.934,238.645c2.31,2.28,2.7,5.64,3.61,8.6.28,3.73,3.36,6.01,6.96,6.05-2.23,3.26-4.44,6.63-5.35,10.53-1.23-4.14-5.38-6.07-8.27-8.88-4.15-3.38-5.12-9.44-4.08-14.44a80.463,80.463,0,0,0,7.33,6.59A58.138,58.138,0,0,0,1732.934,238.645Z" fill="#fd8d9d"/>
    </g>
    <g id="Group_473" data-name="Group 473">
      <path id="Path_7402" data-name="Path 7402" d="M1620.964,247.175c3.57-.68,7.15-1.29,10.7-2.08a6.244,6.244,0,0,1-4.88,8.53c-5.49-1.65-11.08-2.93-16.59-4.47,5.36-.87,10.63.84,15.99.77C1624.464,248.975,1622.714,248.075,1620.964,247.175Z" fill="#d3ddfc"/>
    </g>
    <g id="Group_474" data-name="Group 474">
      <path id="Path_7403" data-name="Path 7403" d="M1609.3,249.2l.89-.04c5.51,1.54,11.1,2.82,16.59,4.47a15.826,15.826,0,0,1-7.23,7.51,19.628,19.628,0,0,1-9.77-.59,61.205,61.205,0,0,1-6.4-4.19c.54-.38,1.6-1.13,2.13-1.51C1607.534,253.445,1610.6,252.215,1609.3,249.2Z" fill="#1c046c"/>
      <path id="Path_7404" data-name="Path 7404" d="M1824.164,306.875c.37-.06,1.13-.17,1.51-.22-.8,9.29-2.79,18.44-3.71,27.72-1.9,10.53-2.85,21.19-4.76,31.71-2.31,12.87-2.17,26-3.36,38.99-1.06,17.35-1.79,34.72-2.01,52.11,4.19.1,8.38.24,12.56.51-.02,1.64.27,3.4-.35,4.99-.45,1.73-2.74,1.09-3.99,1.65a138.459,138.459,0,0,1-14.83.32c-2.05-.16-4.07-.49-6.08-.85a24.985,24.985,0,0,1,.18-6.29,47.893,47.893,0,0,0,11.09-.48c.69-6.97.5-13.98.76-20.96,1.16-18.33,1.14-36.72,3.06-54.99,1.3-16.23,4.6-32.2,6.49-48.36-4.87-.27-8.02-4.66-10.17-8.57-1.51-3.18-3.63-6.92-1.69-10.38,2.66,6.67,5.86,13.41,11.94,17.66C1822.564,323.365,1823.334,315.1,1824.164,306.875Z" fill="#1c046c"/>
      <path id="Path_7405" data-name="Path 7405" d="M1834.654,378.125c2.13-11.32,3.54-22.93,7.89-33.69,3.97,24.9,7.71,49.82,11.43,74.75,1.2,11.28,3.4,22.44,4.18,33.77.56.14,1.68.44,2.23.59a31.594,31.594,0,0,1-.28,5.14c-1.78,1.4-4.19,1.5-6.32,2.01a129.245,129.245,0,0,1-15.05,1.79c-2.16.07-4.3.05-6.44.03-.59-2.46-2.59-5.72.88-6.88-2.18-7.97-3.67-16.09-5.6-24.11C1829.5,413.665,1831.954,395.885,1834.654,378.125Z" fill="#1c046c"/>
      <path id="Path_7406" data-name="Path 7406" d="M1821.544,479.725c5.17-1.73,10.26-3.72,15.49-5.27a23.94,23.94,0,0,0,17.17.63c.62,4.13,2.2,8.17,1.93,12.4,29.84-.24,59.68-.04,89.53-.1,4.76.3,9.76-.64,14.38.47l.19,1.64q-289.53.12-579.08.02c.17-.51.51-1.52.68-2.02,56.55-.28,113.12-.01,169.67-.13,6.54.08,13.08-.01,19.62,0,1.46-.01,2.92,0,4.39.01q63.15.015,126.3.01c2.93,0,5.86.01,8.79-.03.36-.01,1.07-.02,1.43-.03,2.84.03,5.68.1,8.52.03.58-.05,1.74-.16,2.32-.21,2.42.06,4.85.29,7.29.26,16.49-.06,32.97,0,49.46-.03,14.32-.08,28.66.36,42.98-.24C1822.334,484.655,1822.024,482.175,1821.544,479.725Z" fill="#1c046c"/>
      <path id="Path_7407" data-name="Path 7407" d="M1786.564,481.315c1.63-.46,2.24.1,1.82,1.7Q1785.909,483.69,1786.564,481.315Z" fill="#1c046c"/>
    </g>
    <g id="Group_475" data-name="Group 475">
      <path id="Path_7408" data-name="Path 7408" d="M1589.684,267.845c4.63-3.76,9.18-7.61,13.7-11.49a61.205,61.205,0,0,0,6.4,4.19l1.54.83c.14.77.43,2.32.57,3.09-.59.08-1.75.24-2.34.31-2.87-.48-5.67-1.23-8.49-1.93q.75,2.79,1.47,5.61A79.95,79.95,0,0,1,1589.684,267.845Z" fill="#d30121"/>
    </g>
    <g id="Group_476" data-name="Group 476">
      <path id="Path_7409" data-name="Path 7409" d="M1745.214,270.085c6.34,4.94,12.54,10.06,19.13,14.66-2.37,1.54-4.84,2.94-7.35,4.24C1752.974,282.745,1748.524,276.745,1745.214,270.085Z" fill="#b3c3f7"/>
      <path id="Path_7410" data-name="Path 7410" d="M1710.6,487.355c8.24-9.19,14.73-19.74,22.31-29.43-5.81,10.55-13.77,19.73-20.88,29.4C1711.674,487.335,1710.964,487.345,1710.6,487.355Z" fill="#b3c3f7"/>
      <path id="Path_7411" data-name="Path 7411" d="M1720.554,487.355c4.87-3.36,9.32-7.29,14.32-10.46-3.45,4.04-8.28,6.49-12,10.25C1722.294,487.2,1721.134,487.3,1720.554,487.355Z" fill="#b3c3f7"/>
    </g>
    <g id="Group_477" data-name="Group 477">
      <path id="Path_7412" data-name="Path 7412" d="M1557.024,466.445" fill="#a7bbf4"/>
    </g>
    <g id="Group_479" data-name="Group 479">
      <g id="Group_478" data-name="Group 478">
        <path id="Path_7413" data-name="Path 7413" d="M1782.154,482.455c6.7-3.52,14.07-5.53,21.24-7.89a23.136,23.136,0,0,0,17.21.72c.28,1.48.64,2.96.94,4.44.48,2.45.79,4.93,1.06,7.41-14.32.6-28.66.16-42.98.24C1780.114,485.565,1780.014,483.165,1782.154,482.455Zm4.41-1.14q-.66,2.37,1.82,1.7C1788.8,481.415,1788.194,480.855,1786.564,481.315Z" fill="#1b3d9e"/>
      </g>
    </g>
  </g>
</svg>
