<svg xmlns="http://www.w3.org/2000/svg" width="89.688" height="84.182" viewBox="0 0 89.688 84.182">
  <g id="Group_218" data-name="Group 218" transform="translate(-20465.805 -1069)">
    <path id="Path_1391" data-name="Path 1391" d="M15.805,3.992a1.753,1.753,0,0,0-1.753,1.753l-.042,7.011a1.79,1.79,0,0,0,1.795,1.753H61.374a1.753,1.753,0,0,0,1.753-1.753V4.048l-1.753-.056ZM17.516,7.5h33.3V11h-33.3Zm36.806,0H59.58V11H54.322ZM38.548,17.992a15.721,15.721,0,0,0-9.71,28.063h-.95A20.922,20.922,0,0,0,7,67.028V86.381a1.753,1.753,0,0,0,1.753,1.753h9.934a1.753,1.753,0,0,0,.754,0H57.477a1.753,1.753,0,0,0,.68,0H68.343A1.753,1.753,0,0,0,70.1,86.381V67.028A20.922,20.922,0,0,0,49.207,46.056h-.95a15.721,15.721,0,0,0-9.71-28.063Zm0,3.505A12.2,12.2,0,1,1,29.9,25.1a12.2,12.2,0,0,1,8.644-3.6ZM27.888,49.561h5.959l-1.283,18.69a1.753,1.753,0,0,0,.547,1.4l4.241,3.972a1.753,1.753,0,0,0,2.394,0l4.238-3.968a1.753,1.753,0,0,0,.547-1.4L43.252,49.561h5.956A17.351,17.351,0,0,1,66.59,67.028v17.6H59.58V75.816a1.753,1.753,0,0,0-3.505,0v8.812H20.814v-8.8a1.753,1.753,0,0,0-3.505,0v8.8h-6.8v-17.6A17.351,17.351,0,0,1,27.888,49.561Zm9.475,0H39.74l1.237,18.1-2.429,2.278-2.429-2.278Z" transform="translate(20458.805 1065.008)" fill="#fff" fill-rule="evenodd"/>
    <path id="Path_1392" data-name="Path 1392" d="M62.814,48A14.814,14.814,0,1,0,77.628,62.814,14.812,14.812,0,0,0,62.814,48ZM60.528,68.063a.982.982,0,0,1-.627.313,1.027,1.027,0,0,1-.634-.32l-3.988-3.988L56.547,62.8l3.362,3.362L68.8,57.209,70.043,58.5Z" transform="translate(20477.863 1021)" fill="#fff"/>
  </g>
</svg>
