<svg xmlns="http://www.w3.org/2000/svg" xmlns:xlink="http://www.w3.org/1999/xlink" width="605.138" height="399.074" viewBox="0 0 605.138 399.074">
    <defs>
        <linearGradient id="0dkpplihag" y1=".5" x2="1" y2=".5" gradientUnits="objectBoundingBox">
            <stop offset="0" stop-color="#dae3fe"/>
            <stop offset="1" stop-color="#e9effd"/>
        </linearGradient>
        <linearGradient id="f6tbsxjqpa" x1=".079" y1="2.088" x2="1.009" y2="-1.421" gradientUnits="objectBoundingBox">
            <stop offset="0" stop-color="#fe7062"/>
            <stop offset="1" stop-color="#ff928e"/>
        </linearGradient>
        <linearGradient id="2fet4nuj9h" x1=".085" y1="1.482" x2="1.014" y2="-1.735" xlink:href="#f6tbsxjqpa"/>
        <linearGradient id="nvfs6kdngb" x1=".123" y1="1.628" x2=".656" y2="-.216" gradientUnits="objectBoundingBox">
            <stop offset="0" stop-color="#e1473d"/>
            <stop offset="1" stop-color="#e9605a"/>
        </linearGradient>
        <linearGradient id="jf336z8y4i" x1=".639" y1="-.673" x2=".434" y2="1.057" xlink:href="#nvfs6kdngb"/>
        <linearGradient id="t7b7lj6s1j" x1=".085" y1="1.482" x2="1.014" y2="-1.735" xlink:href="#f6tbsxjqpa"/>
        <linearGradient id="wo06xpghzk" x1=".085" y1="1.482" x2="1.014" y2="-1.735" xlink:href="#f6tbsxjqpa"/>
        <linearGradient id="9qj5vtfb4c" x1="-8.542" y1="-4.142" x2="-4.823" y2="-2.221" gradientUnits="objectBoundingBox">
            <stop offset="0" stop-color="#4042e2"/>
            <stop offset="1" stop-color="#4f52ff"/>
        </linearGradient>
        <linearGradient id="g3cu4myozl" x1=".974" y1="-.624" x2=".857" y2="-.223" xlink:href="#9qj5vtfb4c"/>
        <linearGradient id="ggixhyd95m" x1=".5" y1="8.26" x2=".5" y2="-1.227" xlink:href="#9qj5vtfb4c"/>
        <linearGradient id="k647hpmbcn" x1=".5" y1="2.905" x2=".5" y2="-1.429" xlink:href="#9qj5vtfb4c"/>
        <linearGradient id="snsvuqb65o" x1="-.255" y1="-4.274" x2="-.01" y2="-2.625" xlink:href="#9qj5vtfb4c"/>
        <linearGradient id="evfqrnd8xd" x1=".06" y1="1.248" x2="1.204" y2=".147" gradientUnits="objectBoundingBox">
            <stop offset="0" stop-color="#ff928e"/>
            <stop offset="1" stop-color="#feb3b1"/>
        </linearGradient>
        <linearGradient id="ek2xoxd7zp" x1="1.199" y1="-.416" x2="-.557" y2="1.886" xlink:href="#f6tbsxjqpa"/>
        <linearGradient id="bgvmpqbm3q" x1=".959" y1="-.505" x2="-.147" y2="1.901" xlink:href="#f6tbsxjqpa"/>
        <linearGradient id="sy5d4vo9cr" x1="0" y1=".5" x2="1" y2=".5" xlink:href="#evfqrnd8xd"/>
        <linearGradient id="wrawb7kdos" x1=".688" y1="-.03" x2=".282" y2=".995" xlink:href="#f6tbsxjqpa"/>
        <linearGradient id="vszomdnx7t" x1=".068" y1=".897" x2="-4.97" y2="5.304" xlink:href="#evfqrnd8xd"/>
        <linearGradient id="riuiph3rau" x1="1.055" y1="-1.514" x2=".887" y2="-.84" xlink:href="#nvfs6kdngb"/>
        <linearGradient id="apft3cinov" x1="-24.708" y1="-84.242" x2="-26.701" y2="-71.43" xlink:href="#evfqrnd8xd"/>
        <linearGradient id="f5ujgknkpw" x1=".576" y1="-10.423" x2=".543" y2="-5.517" xlink:href="#nvfs6kdngb"/>
        <linearGradient id="q12uoglbgx" x1="-27.263" y1="-19.62" x2="-29.33" y2="-9.723" xlink:href="#evfqrnd8xd"/>
        <linearGradient id="pkgbqeozvy" x1=".58" y1="-5.992" x2=".546" y2="-3.216" xlink:href="#nvfs6kdngb"/>
        <linearGradient id="ipbsxhg72z" x1=".702" y1=".148" x2=".106" y2=".843" xlink:href="#evfqrnd8xd"/>
        <linearGradient id="vihanyd6vA" x1=".717" y1="-1.75" x2=".639" y2="-.947" xlink:href="#nvfs6kdngb"/>
        <linearGradient id="cj0mpmt75B" x1="-26.904" y1="-40.825" x2="-27.541" y2="-40.15" xlink:href="#evfqrnd8xd"/>
        <linearGradient id="395hs4ncmC" x1=".694" y1="-.58" x2=".546" y2=".146" xlink:href="#nvfs6kdngb"/>
        <linearGradient id="y1ogcuz93D" x1="-29.799" y1="-46.446" x2="-30.215" y2="-45.573" xlink:href="#evfqrnd8xd"/>
        <linearGradient id="xll53i3nwE" x1=".592" y1="-1.005" x2=".536" y2="-.089" xlink:href="#nvfs6kdngb"/>
        <linearGradient id="fotlb17xhF" x1="-31.144" y1="-7.995" x2="-31.535" y2="-7.068" xlink:href="#evfqrnd8xd"/>
        <linearGradient id="e9pphlaf0G" x1=".615" y1="-2.59" x2=".57" y2="-1.4" xlink:href="#nvfs6kdngb"/>
        <linearGradient id="e6w92rrh3H" x1="-13.394" y1="-.03" x2="-13.8" y2=".995" xlink:href="#f6tbsxjqpa"/>
        <linearGradient id="2dl7pznl6I" x1=".677" y1=".375" x2=".14" y2="1.191" xlink:href="#evfqrnd8xd"/>
        <linearGradient id="vtfz8ts5rJ" x1="3.905" y1="-1.468" x2="2.926" y2="-.887" xlink:href="#nvfs6kdngb"/>
        <linearGradient id="pxwze1skeK" x1="-25.51" y1="-46.596" x2="-27.502" y2="-33.784" xlink:href="#evfqrnd8xd"/>
        <linearGradient id="1hbdsopkkL" x1=".958" y1="-9.16" x2=".764" y2="-4.941" xlink:href="#nvfs6kdngb"/>
        <linearGradient id="zb828phmvM" x1=".608" y1=".228" x2=".142" y2="1.705" xlink:href="#evfqrnd8xd"/>
        <linearGradient id="uu4pqrighN" x1="1.107" y1="-6.783" x2=".909" y2="-4.396" xlink:href="#nvfs6kdngb"/>
        <linearGradient id="5b6uh0c77O" x1=".305" y1=".545" x2="-.386" y2="1.351" xlink:href="#evfqrnd8xd"/>
        <linearGradient id="0ijrb795iP" x1="1.969" y1="-1.863" x2="1.52" y2="-1.168" xlink:href="#nvfs6kdngb"/>
        <linearGradient id="5pfdhnezbQ" x1="-45.551" y1="-32.367" x2="-46.188" y2="-31.693" xlink:href="#evfqrnd8xd"/>
        <linearGradient id="5gtybq95gR" x1="2.025" y1="-.638" x2="1.168" y2="-.014" xlink:href="#nvfs6kdngb"/>
        <linearGradient id="9kb3jk7ziS" x1="-35.816" y1="-30.168" x2="-36.231" y2="-29.295" xlink:href="#evfqrnd8xd"/>
        <linearGradient id="nn4bv5cw9T" x1="1.082" y1="-.928" x2=".757" y2="-.141" xlink:href="#nvfs6kdngb"/>
        <linearGradient id="ykvehh636U" x1="-14.179" y1=".529" x2="-14.571" y2="1.456" xlink:href="#evfqrnd8xd"/>
        <linearGradient id="6qpk1i2bzV" x1="1.213" y1="-2.347" x2=".957" y2="-1.323" xlink:href="#nvfs6kdngb"/>
        <linearGradient id="bna7atd14W" x1="-1.335" y1=".5" x2=".765" y2=".5" xlink:href="#evfqrnd8xd"/>
        <linearGradient id="grwy61zxwX" x1="0" y1=".5" x2="1" y2=".5" xlink:href="#f6tbsxjqpa"/>
        <linearGradient id="rjirpqgd8Y" x1=".604" y1="1.961" x2=".694" y2="3.225" xlink:href="#9qj5vtfb4c"/>
        <linearGradient id="j6hlr6hxeZ" x1=".73" y1="-11.192" x2=".631" y2="-6.016" xlink:href="#9qj5vtfb4c"/>
        <linearGradient id="an0w2tdqzaa" x1=".726" y1=".326" x2="-1.655" y2="2.446" xlink:href="#9qj5vtfb4c"/>
        <linearGradient id="am0yq574gab" x1="-.027" y1="1.321" x2="-.304" y2="1.73" xlink:href="#9qj5vtfb4c"/>
        <linearGradient id="yjrmfwid4ac" x1=".102" y1="1.069" x2="-1.8" y2="4.227" xlink:href="#9qj5vtfb4c"/>
        <linearGradient id="1wnba8e2uad" x1=".648" y1="-6.732" x2=".552" y2="-2.044" xlink:href="#9qj5vtfb4c"/>
        <linearGradient id="juoflbzd8e" x1=".501" y1="-.043" x2=".486" y2="1.141" gradientUnits="objectBoundingBox">
            <stop offset="0" stop-color="#09005d"/>
            <stop offset="1" stop-color="#1a0f91"/>
        </linearGradient>
        <linearGradient id="pvpqkbcu6ae" x1=".103" y1="1.144" x2=".964" y2="-.272" xlink:href="#f6tbsxjqpa"/>
        <linearGradient id="y9u8zsj56af" x1=".519" y1="-8.989" x2=".499" y2="1.086" gradientUnits="objectBoundingBox">
            <stop offset="0" stop-color="#8d55d1"/>
            <stop offset=".996" stop-color="#1c2873"/>
        </linearGradient>
        <linearGradient id="5memjppiaag" x1=".517" y1=".106" x2=".338" y2="4.211" xlink:href="#9qj5vtfb4c"/>
        <linearGradient id="0zpx6esqkah" x1="0" y1=".5" x2="1" y2=".5" xlink:href="#9qj5vtfb4c"/>
        <linearGradient id="w8x4i5mo9ai" x1=".376" y1="-.805" x2=".575" y2="1.233" xlink:href="#juoflbzd8e"/>
        <linearGradient id="1hcz6hu0naj" x1=".662" y1="-14.713" x2=".371" y2="12.57" xlink:href="#juoflbzd8e"/>
        <linearGradient id="imtpg4qemak" x1=".555" y1="-.887" x2=".474" y2="1.169" xlink:href="#9qj5vtfb4c"/>
        <linearGradient id="kptptf3real" x1=".554" y1="-.883" x2=".474" y2="1.173" xlink:href="#9qj5vtfb4c"/>
        <linearGradient id="ffu76ieacam" x1=".543" y1="-.663" x2=".473" y2="1.181" xlink:href="#juoflbzd8e"/>
        <linearGradient id="c4vvjfj9jan" x1=".676" y1="-20.666" x2=".398" y2="12.81" xlink:href="#juoflbzd8e"/>
        <linearGradient id="wgaw43l2tao" x1=".774" y1="-.469" x2=".229" y2="1.459" xlink:href="#9qj5vtfb4c"/>
        <linearGradient id="80uqbzld0ap" x1=".782" y1="-.496" x2=".236" y2="1.432" xlink:href="#9qj5vtfb4c"/>
        <linearGradient id="pc1s1wg9iaq" x1=".327" y1="-7.516" x2=".431" y2="-2.644" xlink:href="#9qj5vtfb4c"/>
        <linearGradient id="n2mbz1pjuar" x1=".464" y1="-2.49" x2=".524" y2="2.687" xlink:href="#9qj5vtfb4c"/>
        <linearGradient id="jo9i7m18ras" x1=".524" y1="-2.279" x2=".493" y2="1.307" xlink:href="#9qj5vtfb4c"/>
        <linearGradient id="aqz5qdblcat" x1="2.557" y1="-2.199" x2="-.818" y2="2.557" xlink:href="#9qj5vtfb4c"/>
        <linearGradient id="odhibvv9kau" x1="3.342" y1="-1.942" x2="-.033" y2=".958" xlink:href="#9qj5vtfb4c"/>
        <linearGradient id="rtvew72wxav" x1="2.274" y1="-2" x2="-1.101" y2="2.756" xlink:href="#9qj5vtfb4c"/>
        <linearGradient id="33w0g80c5aw" x1="3.149" y1="-1.81" x2="-.226" y2="1.091" xlink:href="#9qj5vtfb4c"/>
        <linearGradient id="x3pczq933ax" x1=".605" y1="-2.588" x2=".425" y2="3.143" xlink:href="#9qj5vtfb4c"/>
        <linearGradient id="nxcgx7uraay" x1=".643" y1="-2.281" x2=".463" y2="1.215" xlink:href="#9qj5vtfb4c"/>
        <linearGradient id="pnondalavaz" x1=".597" y1="-2.577" x2=".417" y2="3.154" xlink:href="#9qj5vtfb4c"/>
        <linearGradient id="6gm5uy3wyaA" x1=".641" y1="-2.274" x2=".461" y2="1.221" xlink:href="#9qj5vtfb4c"/>
        <linearGradient id="hpfwy3li5aB" x1="2.437" y1="-2.321" x2="-1.707" y2="3.714" xlink:href="#9qj5vtfb4c"/>
        <linearGradient id="yef65x4gqaC" x1="-.496" y1="-9.75" x2=".211" y2="-2.226" xlink:href="#juoflbzd8e"/>
        <linearGradient id="hku4trgwoaD" x1=".422" y1="-.67" x2=".449" y2="-.129" xlink:href="#juoflbzd8e"/>
        <linearGradient id="un1ezp4zof" x1="139.476" y1="2.115" x2="145.259" y2=".088" gradientUnits="objectBoundingBox">
            <stop offset="0" stop-color="#53d8ff"/>
            <stop offset="1" stop-color="#3840f7"/>
        </linearGradient>
        <linearGradient id="5gae9a8ziaE" x1="-71.412" y1="1.19" x2="-70.322" y2=".045" xlink:href="#juoflbzd8e"/>
        <linearGradient id="osmnd5kqcaF" x1="-320.053" y1="1.93" x2="-314.27" y2="-.096" xlink:href="#un1ezp4zof"/>
        <linearGradient id="e20wv2w53aG" x1="229.705" y1="5.021" x2="229.765" y2="2.613" xlink:href="#9qj5vtfb4c"/>
        <linearGradient id="lkzz7xv15aH" x1="-137.993" y1="7.019" x2="-137.951" y2="4.399" xlink:href="#9qj5vtfb4c"/>
        <linearGradient id="7gm2sv2xcaI" x1="-92.487" y1=".914" x2="-92.403" y2="-.171" xlink:href="#juoflbzd8e"/>
        <linearGradient id="mlt6do8h8aJ" x1="-49.763" y1="-13.841" x2="-51.589" y2="-12.704" xlink:href="#nvfs6kdngb"/>
        <linearGradient id="c2fak766jaK" x1=".236" y1="-.016" x2=".769" y2="1.581" xlink:href="#evfqrnd8xd"/>
        <linearGradient id="t1vku233paL" x1="-199.973" y1="-91.03" x2="-199.363" y2="-92.033" xlink:href="#evfqrnd8xd"/>
        <linearGradient id="efarh05b5aM" x1="-201.64" y1="-7.746" x2="-200.541" y2="-7.746" xlink:href="#juoflbzd8e"/>
        <linearGradient id="b0o6t1bxmaN" x1="-605.308" y1="-319.442" x2="-603.471" y2="-322.928" xlink:href="#evfqrnd8xd"/>
        <linearGradient id="7q884923raO" x1="-102.129" y1="-15.561" x2="-105.803" y2="-14.296" xlink:href="#nvfs6kdngb"/>
        <linearGradient id="1fpt32we4aP" x1=".5" y1="-2.978" x2=".5" y2="-.477" xlink:href="#evfqrnd8xd"/>
        <linearGradient id="sj202gye9aQ" x1="-101.109" y1="-15.576" x2="-104.867" y2="-14.281" xlink:href="#nvfs6kdngb"/>
        <linearGradient id="u7qadsvimaR" x1=".45" y1="-4.626" x2=".491" y2="-.302" xlink:href="#evfqrnd8xd"/>
        <linearGradient id="96xtezooeaS" x1="-348.443" y1=".5" x2="-347.443" y2=".5" xlink:href="#juoflbzd8e"/>
        <linearGradient id="b90gdh4y3aT" x1="-316.621" y1=".5" x2="-315.621" y2=".5" xlink:href="#juoflbzd8e"/>
        <linearGradient id="zqj2cdqmjaU" x1=".5" y1="-.472" x2=".5" y2="-.204" xlink:href="#juoflbzd8e"/>
        <linearGradient id="2ay3lf1wdaV" x1=".24" y1="-2.231" x2=".358" y2="-.918" xlink:href="#juoflbzd8e"/>
        <linearGradient id="k2ue2s72gaW" x1="1.078" y1=".21" x2=".226" y2=".637" xlink:href="#9qj5vtfb4c"/>
        <linearGradient id="cmpntlyataX" x1="-8.176" y1=".886" x2="-1.915" y2=".601" xlink:href="#9qj5vtfb4c"/>
        <linearGradient id="we1soq2o9aY" x1="4.357" y1="-5.478" x2="2.702" y2="-2.913" xlink:href="#juoflbzd8e"/>
        <linearGradient id="j0d171m7aaZ" x1="3.82" y1="-4.646" x2="2.165" y2="-2.081" xlink:href="#juoflbzd8e"/>
        <linearGradient id="ogj7gl2erba" x1="-16.985" y1="13.281" x2="-15.656" y2="12.265" xlink:href="#evfqrnd8xd"/>
        <linearGradient id="40hhuatqgbb" x1="2.428" y1="-7.466" x2="1.187" y2="5.294" xlink:href="#9qj5vtfb4c"/>
        <linearGradient id="9hchcfheubc" x1="-5.123" y1="1.602" x2="-4.088" y2="-1.187" xlink:href="#evfqrnd8xd"/>
        <linearGradient id="vgs8iu13lbd" x1="-3.647" y1="-6.138" x2="-4.412" y2="4.302" xlink:href="#9qj5vtfb4c"/>
        <linearGradient id="rbyyrtpw0be" x1="-.113" y1="1.698" x2=".351" y2="-1.193" xlink:href="#evfqrnd8xd"/>
        <linearGradient id="ils0r5gxcbf" x1="-.03" y1="1.205" x2="-1.157" y2="2.95" xlink:href="#9qj5vtfb4c"/>
        <linearGradient id="ao6xlgkh9bg" x1="2.176" y1="-.84" x2=".526" y2=".569" xlink:href="#9qj5vtfb4c"/>
        <linearGradient id="4ki1cbttybh" x1=".45" y1="-.632" x2=".598" y2="2.952" xlink:href="#evfqrnd8xd"/>
        <linearGradient id="6nxalfmncbi" x1="-2.551" y1=".5" x2="-1.551" y2=".5" xlink:href="#evfqrnd8xd"/>
        <linearGradient id="b0746n1atbj" x1="-52.272" y1="36.186" x2="-48.491" y2="33.347" xlink:href="#evfqrnd8xd"/>
        <linearGradient id="hmgb7xkembk" x1="-10.887" y1="-.879" x2="-10.06" y2="-.879" gradientUnits="objectBoundingBox">
            <stop offset="0" stop-color="#f9b776"/>
            <stop offset="1" stop-color="#f47960"/>
        </linearGradient>
        <linearGradient id="l80jb8a6gbl" x1="99.529" y1="-62.547" x2="100.135" y2="-61.034" xlink:href="#evfqrnd8xd"/>
        <linearGradient id="oy8u283bobm" x1=".599" y1=".254" x2="-1.517" y2="2.32" xlink:href="#nvfs6kdngb"/>
        <linearGradient id="58wixefzzbn" x1="368.12" y1="-200.977" x2="370.353" y2="-196.157" xlink:href="#evfqrnd8xd"/>
        <linearGradient id="d6r0bak1qbo" x1=".996" y1="-.103" x2="-.232" y2="1.375" xlink:href="#nvfs6kdngb"/>
    </defs>
    <g data-name="Group 688">
        <g data-name="Group 679" transform="translate(-182.256 -137.701)">
            <path data-name="Path 7546" d="M626.463 161.35c40.4 32 139.2-3.776 145.323 61.767 7.167 76.745-91.385 95.433-45.1 145.423S744.3 493.075 582.43 503.19c-53.072 3.317-108.418-6.125-148.783-4.218C166.961 511.571 161.052 458 199.376 389.663c46.5-82.919 12.089-79.146 5.345-111.286s-7.513-135.7 124.226-88.338S524.152 80.317 626.463 161.35z" style="fill:url(#0dkpplihag)"/>
            <g data-name="Group 590">
                <path data-name="Path 7547" d="M743.589 191.555c-1.951-7.353 17.294-21.69 10.2-36.19l-15.67-4.414s3.361 20.069-1.193 27.861-8.258 3.28-7.807-2.2 7.841-19.527 4.146-25.214c0 0-2.96-4.484-7.923.423s-16.764 1.688-20.659-1.969c0 0 .366 3.115-2.127 10.548s-5.534 14.736.981 17.5 16.127 2.97 16.332 7.324-17.366 7.64-23.771-4.906c0 0-4.866 11.52-3.423 15.149s8.368 7.012 18.582 3.8 15.854-1.621 16.008 1.645-30.856 8.137-35.431-2.462c0 0 .1 23.3 1.576 25.867s15.093 1.387 22.967-2.482 16.323-1.489 18.338 1.227-9.161 1.716-14.076 3.912-27.058 2.045-27.058 2.045 2.751 1.491 3.957 9.351 7.784 20.1 12.513 18.564 25.636-13.188 33.076-14.315 13.654-.451 10.489 2.6-12.75 4.644-19.282 7.817-22.306 13.41-26.577 10.775c0 0 8.5 19.584 28.552 19.5 0 0 8.809-6.112 12.868-15.353s6.175-12.941 9.68-12.67.64 6.625-2.038 12.317-8.635 19.052-13.25 20.259c0 0 30.165-1.886 32.412-22.38 2.107-19.219-.066-21.378-.344-21.572 1.086.648 34.1 19.955 41.926-22.215 0 0-4.476 9.123-11.28 9s-17 6.311-17.542 1.5 24.17-4.291 27.9-13.983-2.775-24.153-13.858-27.048a19.584 19.584 0 0 1-7.033 16.149c-8.073 6.677-20.769 13.485-18.675 5.481s26.139-21.414 26.564-28.39-21.524-18.038-21.524-18.038.043 3.659-4.29 15.229-11.645 23.833-13.351 20.846 3.631-10.655 8.142-17.689 6.181-17.753 2.57-20.337-16.532-7.689-16.532-7.689-2.6 15.91-3.077 23.226-10.037 18.954-11.988 11.601zm29.928 37.061c-6.177 7.912-6.854-.544-6.079-6.351.589-4.409 12.256-1.565 6.079 6.351zM761.2 214.061c-3.967 5.328-7.384 4.933-7.344 1.242.087-8.48 11.307-6.57 7.344-1.242zm-14.8-13.837c-1.965 3.028-3.5 3.668-5.238-.043s7.199-2.981 5.238.043z" transform="translate(-362.882 -8.42)" style="fill:#bdd0fb"/>
            </g>
            <g data-name="Group 591">
                <path data-name="Path 7548" d="M1816.915 418.812s-43.886-41.378-24.355-74.852c15.7-26.9 10.987 11.658 17.523 44.57a2.064 2.064 0 0 0 4.075-.633c-2.905-25.708-4.928-64.887 8.573-71.425 20.382-9.87 13.644-.047 10.126 31.12s4.075 37.332 9.271 17.044-4.8-52.916 5.222-60.278 29.706-11.112 38.2-13.96 20.332 39.273 9.045 50.381-36.169 19.825-40.938 33.173 17.362-.683 28.814-9.375 19.9-12.064 16.869 5.687-24.943 26.742-41.2 28.306-25.447 7.659-17.418 7.53 32.692-2.566 40.2-8.113-2.308 34.898-64.007 20.825z" transform="translate(-1143.178 -108.641)" style="fill:#bdd0fb"/>
                <path data-name="Path 7549" d="M1888.219 493.928a.53.53 0 0 1 .108-.539c31.1-34.189 54.334-92.089 54.565-92.67a.533.533 0 1 1 .99.394c-.231.583-23.54 58.66-54.768 92.994a.532.532 0 0 1-.752.035.525.525 0 0 1-.143-.214z" transform="translate(-1214.844 -187.063)" style="opacity:.53;fill:#fff"/>
            </g>
            <g data-name="Group 592">
                <path data-name="Path 7550" d="M324.2 552.519s-51.912 20.34-72.175-9.2c-16.286-23.742 14.082-4.579 44.169 2.954a1.908 1.908 0 0 0 1.08-3.655c-22.633-7.724-56.177-21.5-56.31-35.369-.2-20.931 5.348-11.422 30.007 3.826s32.81 11.335 17.905-1.018-46.12-16.883-48.316-28.166 2.443-29.215 3.415-37.435 40.852-1.485 45.678 12.334 2.287 38.057 11.56 47.314 6.286-14.78 3.542-27.784-2.224-21.4 11.414-11.853 12.5 31.406 7.389 45.609-3.647 24.292-.584 17.53 10.765-28.336 9.093-36.8 28.26 15.704-7.867 61.713z" transform="translate(-41.107 -215.904)" style="fill:#bdd0fb"/>
                <path data-name="Path 7551" d="M382.825 619.071a.49.49 0 0 1-.408-.3c-16.3-39.489-55.51-81.774-55.9-82.2a.492.492 0 1 1 .72-.672c.4.423 39.73 42.837 56.095 82.493a.492.492 0 0 1-.5.677z" transform="translate(-102.635 -283.458)" style="opacity:.53;fill:#fff"/>
            </g>
            <g data-name="Group 616">
                <g data-name="Group 594">
                    <path data-name="Path 7552" d="m854.46 347.873-131.828-13.326-132.044 12.561-2.436 292.257 131.99-6.057L852 642.505l131.867-11.067 2.411-289.184z" transform="translate(-289.05 -140.18)" style="fill:#fff"/>
                    <path data-name="Path 7553" d="m746.454 648.21-125.408 5.744 2.311-277.247 125.459-11.915z" transform="translate(-312.476 -161.719)" style="fill:#91b3fa"/>
                    <path data-name="Path 7554" d="m1181.973 656.936-125.287-8.727 2.363-283.417 125.251 12.644z" transform="translate(-622.707 -161.719)" style="fill:#7d97f4"/>
                    <path data-name="Path 7555" d="m1617.2 664.538-125.291 10.5 2.33-279.5 125.248-5.328z" transform="translate(-932.641 -179.817)" style="fill:#91b3fa"/>
                    <path data-name="Rectangle 239" transform="translate(433.586 203.049)" style="opacity:.47;fill:#fff" d="M0 0h2.838v283.505H0z"/>
                    <g data-name="Group 593">
                        <path data-name="Path 7556" d="M1372.794 986.418q-.758 5.931-1.234 11.9c-.076.949.109 2.238 1.025 2.33.551.056 1.01-.406 1.381-.831 1.578-1.8 3.272-4.133 2.509-6.434-.284-.857-.889-1.577-1.121-2.45-.35-1.313.2-2.71.057-4.064s-1.768-2.686-2.679-1.7z" transform="translate(-846.928 -603.261)" style="fill:#bdd0fb"/>
                        <path data-name="Path 7557" d="M780 530.339c-6.2-3.28-10.107-3.723-16.787-3-6.3.686-10.559 3.851-14.885 8.362a11.486 11.486 0 0 1-3.216 2.738c-5.346 2.468-12.127 1.971-17.586 4.407-6.5 2.9-8.332 11.92-14.267 15.908-3.436 2.308-7.766 2.6-11.538 4.252-5.585 2.445-8.161 7.525-11.332 12.469-1.95 3.04-9.134 8.249-8.727 11.8a4.428 4.428 0 0 0 .686 1.8c1.978 3.188 4.932 3.524 8.049 4.435 4.118 1.2 6.6 3.051 10.246 5.628 3.8 2.688 8.969 5.038 9.3 9.788.153 2.2-.876 4.287-1.379 6.435-2.269 9.685 6.151 18.386 14.348 23.624S740.779 649.41 743.386 659a5.213 5.213 0 0 0 1.074 2.449c2.393 2.354 4.185-2.971 4.91-4.664a3.406 3.406 0 0 0-.686-3.321 16.893 16.893 0 0 0-2.622-2.318 15.206 15.206 0 0 1-5.3-10.378 2.353 2.353 0 0 1 .236-1.484c1.421-2.151 4.962-3.033 6.7-5.638 2.485-3.728 3.052-7.265 3.475-11.69 1.554-16.254 16.352-10.5 25.642-17.708a8.929 8.929 0 0 0 3.327-5.624 5.992 5.992 0 0 0-.518-3.5 7.319 7.319 0 0 0-4.731-3.586 20.929 20.929 0 0 0-6-.453l-5.607.119a4.138 4.138 0 0 0-1.628.255 3.774 3.774 0 0 0-1.589 1.723 14.313 14.313 0 0 0-1.756 7.488c-2.463.866-4.855-1.482-6.2-3.787a28.4 28.4 0 0 1-3.283-8.633 5.1 5.1 0 0 1 .2-3.51 4.714 4.714 0 0 1 1.358-1.382 14.728 14.728 0 0 1 7.071-3.017c4.379-.479 8.635 1.682 12.225 4.33 3.448 2.543 9.071 5.587 12.94 1.932 2-1.887 2.033-5.322.641-7.721-2.26-3.9-8.023-5.936-11.779-7.9a7.321 7.321 0 0 1-3.386-4.789 22.467 22.467 0 0 1-.4-6.079 18.681 18.681 0 0 1 16.189 1.1 2.594 2.594 0 0 1 1.514 1.77c.084.839-.557 1.538-1.062 2.2-4.5 5.882-.454 10.63 4.835 13.949.126-14.913.16-29.9.169-44.83a60.548 60.548 0 0 1-9.345-3.964z" transform="translate(-355.633 -277.261)" style="fill:#bdd0fb"/>
                        <path data-name="Path 7558" d="M1092.988 560.933c-.724-.976-2.161-.73-3.351-.723-3.8.025-6.817-3.287-10.468-4.371a21.9 21.9 0 0 0-5.93-.533 60.193 60.193 0 0 1-17.9-3.036c-.009 14.928-.042 29.917-.169 44.83a50.276 50.276 0 0 0 9.583 4.467c2.657.939 5.193 2.483 8.033 1.906 2.635-.536 5.007-3.512 7.738-4.27 1.979-.549 4.091-.261 6.1-.678s4.1-1.974 4.019-4.092c-.068-1.724-1.533-3.021-2.99-3.86a13.936 13.936 0 0 1-2.764-2.349c-2.2-4.417 1-8.306 2.226-12.119 1.775-5.52-.854-8.765 4.607-11.822 1.156-.651 2.069-2.266 1.266-3.35z" transform="translate(-621.626 -295.227)" style="fill:#bdd0fb"/>
                        <path data-name="Path 7559" d="M913.844 1022.694a19.849 19.849 0 0 1 1.938 5.5c.9 7-4.927 15.618-7.4 22.011-.689 1.778-1.392 3.669-1.081 5.558a10.655 10.655 0 0 0 .742 2.29c2.25 5.482 6.671 10.444 10.6 14.672 1.343-3.625 1.244-12.329.875-16.19a8.442 8.442 0 0 1 .119-3.8c1.455-3.818 6.188-9.072 9.452-11.35 3.2-2.232 7.4-4.025 8.233-7.924.319-1.5.051-3.1.52-4.561a16.279 16.279 0 0 1 1.232-2.444c2.069-3.979 3.244-11.661-.9-14.487-4.632-3.159-11.188 1.468-15.162-3.686a25.875 25.875 0 0 0-1.728-2.384 5.614 5.614 0 0 0-4.971-1.407c-11.721 2.032-5.951 10.868-2.469 18.202z" transform="translate(-516.27 -617.203)" style="fill:#bdd0fb"/>
                        <path data-name="Path 7560" d="M1178.961 624.368c3.7 2.448 10.085-2.922 12.433-9.2a7.3 7.3 0 0 1 1.1-2.238c1.1-1.287 2.981-1.452 4.623-1.215s3.279.783 4.924.564a7.6 7.6 0 0 0 5.411-4.369 23.73 23.73 0 0 0 1.88-7.089 8.006 8.006 0 0 1 5.277.48c1.269.582 2.523 1.865 2.168 3.253a3.908 3.908 0 0 1-1.077 1.608 46.55 46.55 0 0 0-3.859 4.715c-.73 1.022-1.447 2.355-.9 3.493 1.494 3.1 4.227 1.488 3.442 5.922-.988 5.554-8.282 7.825-4.115 14.46a8.927 8.927 0 0 0 7.094 4.012c2.006.094 4.477-.981 4.5-3.058a6.336 6.336 0 0 1-.026-1.835 2.163 2.163 0 0 1 1.842-1.254c2.505-.394 4.927.907 7.24 1.98a2.417 2.417 0 0 0 2.195.232c2.162-1.282 1.153-2.34 4.092-2.623 2.507-.241 5.439 1.758 6.859 3.734a1.813 1.813 0 0 1 .433 1.635c-.188.476-.708.722-.97 1.159a1.75 1.75 0 0 0 .685 2.186 6.264 6.264 0 0 0 2.332.745c3.766.8 3.854 4.515 6.515 6.369 2.161 1.5 7.664 1.8 7.178-2.527-.178-1.582-1.713-2.884-1.461-4.455.222-1.383 1.724-2.119 3.069-2.3s2.779-.044 3.981-.692a18.376 18.376 0 0 0 2.136-1.715c4.494-3.384 15.141-.509 18.589 3.286 3.222 3.545 3.583 9.655 7.73 11.952a19.046 19.046 0 0 0-6.28-12.256 5.7 5.7 0 0 1-1.688-1.911 4.921 4.921 0 0 1-.231-2.161 47.391 47.391 0 0 1 1.876-10.69c-.118.417 2.632-7.153.655-5.721 3.538-2.562 11.261-6.771 15.695-6.5a6.562 6.562 0 0 1 5.557 3.7 5.4 5.4 0 0 1-1.524 6.413c-1.827 1.294-4.363 1.046-6.219 2.3a4.988 4.988 0 0 0-1.713 5.828 8.344 8.344 0 0 1 4.853-3.318c2.592-.613 5.536.032 7.774-1.453a6.336 6.336 0 0 0 2.539-5.218 11.88 11.88 0 0 0-1.678-5.761 17.905 17.905 0 0 1-1.925-3.912 8.56 8.56 0 0 1 1.381-6.694 18.62 18.62 0 0 1 21.547-7.729 2.308 2.308 0 0 1 1.392.924c.406.736.015 1.676.187 2.505a1.808 1.808 0 0 0 3.027.777 6.368 6.368 0 0 0 .755-2.624c.565-2.329 2.858-3.753 5.089-4.418 2.726-.812 10.052-4.559 10.8.4a4.767 4.767 0 0 0 .234 1.289c.511 1.117 2.224.957 3.038.052 1.679-1.865 1.974-4.927 3.6-7.01 1.439-1.844 3.564-2.949 4.769-5.007a10.253 10.253 0 0 0-4.481-14.235c-4.975-2.366-10.765-1.317-16.154-.314-3.71.69-16.453 3.335-17.36-2.883a4.592 4.592 0 0 0-.3-1.505c-.3-.56-.913-.854-1.29-1.36a7.864 7.864 0 0 1-.759-2.3c-.94-2.794-4.483-3.306-7.342-3.34.288-1.733.445-3.844-.9-4.916a4.626 4.626 0 0 0-2.748-.715c-2.494-.11-8.508.816-10.575-.693-2.739-2-.853-5.4-2.046-8.162-1.269-2.928-5.986-3.335-6.51-6.5-.114-.684.011-1.389-.068-2.078-.193-1.681-1.516-2.948-2.754-4.054-2.244-2.006-4.787-4.128-7.752-4.05-.557.455-.057 1.412.572 1.755s1.431.521 1.749 1.178c.61 1.26-1.139 2.295-2.478 2.559-.065 1.842 1.725 3.062 3.108 4.224a13.958 13.958 0 0 1 4.621 7.814 50.935 50.935 0 0 1-14.306.608c-5.742-.569-9.431 8.859-16.237 6.246a18.847 18.847 0 0 0-2.958-1.286c-2.65-.519-4.784 2.078-7.165 3.387-3.625 1.994-8.07.96-11.956-.413-4.643-1.64-10.288-4-14.967-1.166-1.749 1.058-3.146 2.7-5 3.553-3.887 1.785-8.3-.406-12.528-.826-10.443-1.037-16.727 9.534-20.12 18.337a10.426 10.426 0 0 0-.909 4.176 4.037 4.037 0 0 0 2.04 3.515c1.878.876 4.06-.516 5.286-2.228s1.971-3.806 3.471-5.267 4.255-1.931 5.44-.187a5.355 5.355 0 0 1 .609 3.029l.012 5.974a8.107 8.107 0 0 1-.433 3.229c-.718 1.671-2.431 2.594-4.022 3.39l-10.368 5.191a15.455 15.455 0 0 0-3.337 2.042c-4.515 3.942-1.481 9.4-4.964 13.193-1.406 1.532-3.738 1.993-4.891 3.737a7.814 7.814 0 0 0-.812 4.526c.109 4.338 1.191 6.763 2.752 7.795z" transform="translate(-707.822 -276.721)" style="fill:#bdd0fb"/>
                        <path data-name="Path 7561" d="M1566.9 973.936c-1.4 2.617-1.206 6.039-4.369 7.484-2.1.961-4.8.522-6.509 2.109-1.955 1.81-1.444 5.021-1.067 7.707a2.714 2.714 0 0 1-.068 1.438c-.5 1.179-2.309 1.148-2.929 2.266-.532.96.127 2.169.92 2.911a7.4 7.4 0 0 0 9.048.683c.72-.5 1.5-1.165 2.343-.951.982.249 1.311 1.483 1.578 2.492a9.687 9.687 0 0 0 3.461 5.48c5.573 3.985 13.413-.864 19.6 4.759a5.042 5.042 0 0 1 1.705 2.533c.24 1.1-.119 2.371.481 3.317.751 1.184 2.6 1.024 3.609.068a8.394 8.394 0 0 0 1.839-3.742 6.2 6.2 0 0 1 2.136-3.525c1.954-1.268 4.182-.783 5.264-3.362 1.349-3.29-2.677-6.015-1.4-9.012.571-1.339 1.483-2.8.91-4.137a6.036 6.036 0 0 0-1.418-1.66c-2.385-2.467-2.791-4.787-5.969-6.292-2.028-.96-6.229.282-7.062-3.217-.217-.912.094-2.056-.586-2.679a2.1 2.1 0 0 0-1.463-.375c-3.556.013-7.785.068-9.812-2.955-2.24-3.341-2.5-5.75-7.051-4.091a5.594 5.594 0 0 0-3.191 2.751z" transform="translate(-975.273 -593.166)" style="fill:#bdd0fb"/>
                        <path data-name="Path 7562" d="M1187.569 910.483c-.741 1.063-1.159 2.344-1.941 3.376-2.2 2.9-3.154.336-5.639 1.314a19.7 19.7 0 0 1-2.512 1.153c-1.81.431-3.607-.818-5.464-.826-7.152-.03-3.4 11.864.065 14.145a3.871 3.871 0 0 0 2.208.42l7.073-.071a3.233 3.233 0 0 1 1.946.395c1.706 1.214.081 4.212 1.107 6.072.7 1.276 2.339 1.514 3.738 1.776 2.956.555 3.6 3.883 5.412 5.936 2.326 2.639 4.545 3.7 5.856 7.534.778 2.275 1.048 4.736 2.075 6.9a10.288 10.288 0 0 0 12.153 5.327 10.819 10.819 0 0 0 6.823-11.689c-.477-2.857-2.067-5.359-3.171-8.024-2.234-5.39-.723-11.953 5.466-12.981 1.562-.259 3.545-.35 4.128-1.872.84-2.193-2.4-4.757-1.057-6.662.484-.686 1.42-.931 1.845-1.657.571-.976-.079-2.239-.875-3.029s-1.8-1.474-2.128-2.564c-1.85-6.136-7.928-2.3-11.983-1.492a10.515 10.515 0 0 1-8.69-1.547c-4.658-2.785-11.719-8.702-16.435-1.934z" transform="translate(-701.938 -548.095)" style="fill:#bdd0fb"/>
                        <path data-name="Path 7563" d="M1285.34 581.286c.534-1.032 1.841-1.274 2.97-1.354a42.873 42.873 0 0 1 11.645.778c-3.167 2.576-6.7 5.284-10.729 5.144-1.826-.064-3.722-.715-5.431-.044a4.313 4.313 0 0 1 .573-3.743z" transform="translate(-784.299 -314.852)" style="fill:#bdd0fb"/>
                        <path data-name="Path 7564" d="M1130.825 732.877c3.972 3.252 17.982-1.087 11.446-5.284a9.047 9.047 0 0 0-3.551-1.081 13.666 13.666 0 0 0-4.982-.172 4.834 4.834 0 0 0-3.72 3.1 2.984 2.984 0 0 0 .807 3.437z" transform="translate(-674.786 -419.066)" style="fill:#bdd0fb"/>
                        <path data-name="Path 7565" d="M1732.238 639.935c2.457 2.228 5.9 2.777 9.134 3.233 1.616.228 3.731.166 4.29-1.419.588-1.672-1.311-3.216-3.021-3.409s-3.526.273-5.109-.42c-1.4-.615-2.511-2.1-4.036-2.087-1.776.016-2.851 2.7-1.607 4.008z" transform="translate(-1103.157 -354.734)" style="fill:#bdd0fb"/>
                    </g>
                </g>
                <g data-name="Group 601">
                    <g data-name="Group 598" transform="translate(504.462 316.028)">
                        <g data-name="Group 595" transform="translate(.316 .192)">
                            <circle data-name="Ellipse 95" cx="10.868" cy="10.868" r="10.868" transform="translate(.02)" style="fill:url(#f6tbsxjqpa)"/>
                            <path data-name="Path 7566" d="M1324.364 793.57h-21.717s-.865 6.032 8.835 22.555a2.374 2.374 0 0 0 4.066.008c9.699-16.524 8.816-22.563 8.816-22.563z" transform="translate(-1302.627 -783.284)" style="fill:url(#2fet4nuj9h)"/>
                        </g>
                        <g data-name="Group 596">
                            <path data-name="Path 7567" d="M1312.73 791.709v.061a2.7 2.7 0 0 1-2.3-1.33c-5.67-9.658-7.748-15.765-8.492-19.182a10.952 10.952 0 0 1-.373-2.347 5.484 5.484 0 0 1-.01-1.185l.029-.174a11.183 11.183 0 0 1 22.317.111 4.878 4.878 0 0 1 .018.6v.04a11.2 11.2 0 0 1-.448 3.143c-.77 3.414-2.86 9.461-8.433 18.956a2.633 2.633 0 0 1-2.308 1.307zm-10.567-23.571c0 .163 0 .4.031.746a10.229 10.229 0 0 0 .354 2.215v.013c.733 3.371 2.789 9.4 8.421 18.995a2.043 2.043 0 0 0 1.758 1 2.142 2.142 0 0 0 1.763-1.009c5.537-9.435 7.6-15.43 8.363-18.8l.005-.02a10.52 10.52 0 0 0 .363-2.975l-.063-.044a4.187 4.187 0 0 1 .048-.529l.03-.018a10.539 10.539 0 0 0-21.047.11l-.009.321z" transform="translate(-1301.531 -757.171)" style="fill:url(#nvfs6kdngb)"/>
                        </g>
                        <circle data-name="Ellipse 96" cx="6.276" cy="6.276" r="6.276" transform="translate(4.963 4.75)" style="opacity:.8;fill:#fff"/>
                        <g data-name="Group 597">
                            <path data-name="Path 7568" d="M1324.18 785.706a6.626 6.626 0 1 1 6.626-6.626 6.634 6.634 0 0 1-6.626 6.626zm0-12.551a5.925 5.925 0 1 0 5.925 5.925 5.932 5.932 0 0 0-5.925-5.925z" transform="translate(-1312.941 -768.054)" style="fill:url(#jf336z8y4i)"/>
                        </g>
                    </g>
                    <g data-name="Group 599">
                        <path data-name="Path 7569" d="M1319.632 766.509a.105.105 0 0 1-.069-.185 9.74 9.74 0 0 1 6.342-2.348.105.105 0 1 1 0 .21 9.529 9.529 0 0 0-6.205 2.3.1.1 0 0 1-.068.023z" transform="translate(-809.884 -445.989)" style="opacity:.8;fill:#fff"/>
                    </g>
                    <g data-name="Group 600">
                        <path data-name="Path 7570" d="M1307.958 785.108a.105.105 0 0 1-.105-.1 9.716 9.716 0 0 1 1.457-5.127.105.105 0 0 1 .179.111 9.5 9.5 0 0 0-1.425 5.016.1.1 0 0 1-.106.1z" transform="translate(-801.571 -457.277)" style="opacity:.8;fill:#fff"/>
                    </g>
                </g>
                <g data-name="Group 608">
                    <g data-name="Group 605" transform="translate(436.106 238.306)">
                        <g data-name="Group 602" transform="translate(.315 .192)">
                            <circle data-name="Ellipse 97" cx="10.868" cy="10.868" r="10.868" transform="translate(.02)" style="fill:url(#f6tbsxjqpa)"/>
                            <path data-name="Path 7571" d="M1086.91 523.58h-21.717s-.865 6.033 8.835 22.556a2.374 2.374 0 0 0 4.066.008c9.699-16.525 8.816-22.564 8.816-22.564z" transform="translate(-1065.173 -513.294)" style="fill:url(#t7b7lj6s1j)"/>
                        </g>
                        <g data-name="Group 603">
                            <path data-name="Path 7572" d="M1075.276 521.72v.061a2.7 2.7 0 0 1-2.3-1.33c-5.67-9.658-7.748-15.765-8.492-19.182a10.964 10.964 0 0 1-.373-2.347 5.478 5.478 0 0 1-.01-1.185l.029-.174a11.183 11.183 0 0 1 22.317.111 4.907 4.907 0 0 1 .018.6v.04a11.207 11.207 0 0 1-.448 3.143c-.77 3.414-2.86 9.461-8.433 18.956a2.633 2.633 0 0 1-2.308 1.307zm-10.567-23.571c0 .163 0 .4.031.746a10.26 10.26 0 0 0 .354 2.215v.013c.733 3.371 2.789 9.4 8.421 18.995a2.041 2.041 0 0 0 1.758 1 2.143 2.143 0 0 0 1.763-1.01c5.537-9.435 7.6-15.43 8.363-18.8l.006-.019a10.525 10.525 0 0 0 .362-2.975l-.063-.045a4.215 4.215 0 0 1 .048-.529l.03-.018a10.539 10.539 0 0 0-21.047.11l-.009.321z" transform="translate(-1064.077 -487.182)" style="fill:url(#nvfs6kdngb)"/>
                        </g>
                        <circle data-name="Ellipse 98" cx="6.276" cy="6.276" r="6.276" transform="translate(4.963 4.75)" style="opacity:.8;fill:#fff"/>
                        <g data-name="Group 604">
                            <path data-name="Path 7573" d="M1086.726 515.716a6.626 6.626 0 1 1 6.626-6.626 6.634 6.634 0 0 1-6.626 6.626zm0-12.551a5.925 5.925 0 1 0 5.925 5.925 5.932 5.932 0 0 0-5.925-5.925z" transform="translate(-1075.487 -498.065)" style="fill:url(#jf336z8y4i)"/>
                        </g>
                    </g>
                    <g data-name="Group 606">
                        <path data-name="Path 7574" d="M1082.178 496.519a.1.1 0 0 1-.08-.037.105.105 0 0 1 .011-.148 9.741 9.741 0 0 1 6.343-2.348.105.105 0 1 1 0 .21 9.528 9.528 0 0 0-6.205 2.3.105.105 0 0 1-.069.023z" transform="translate(-640.786 -253.721)" style="opacity:.8;fill:#fff"/>
                    </g>
                    <g data-name="Group 607">
                        <path data-name="Path 7575" d="M1070.5 515.118a.105.105 0 0 1-.105-.105 9.714 9.714 0 0 1 1.457-5.127.105.105 0 1 1 .179.111 9.506 9.506 0 0 0-1.425 5.016.1.1 0 0 1-.106.105z" transform="translate(-632.473 -265.009)" style="opacity:.8;fill:#fff"/>
                    </g>
                </g>
                <g data-name="Group 615">
                    <g data-name="Group 612" transform="translate(576.736 248.071)">
                        <g data-name="Group 609">
                            <circle data-name="Ellipse 99" cx="10.868" cy="10.868" r="10.868" transform="rotate(-45 18.553 7.685)" style="fill:url(#f6tbsxjqpa)"/>
                            <path data-name="Path 7576" d="M1589.9 572.471h-21.717s-.865 6.033 8.835 22.556a2.374 2.374 0 0 0 4.066.008c9.702-16.525 8.816-22.564 8.816-22.564z" transform="translate(-1563.684 -557.684)" style="fill:url(#wo06xpghzk)"/>
                        </g>
                        <g data-name="Group 610">
                            <path data-name="Path 7577" d="M1578.27 570.611v.061a2.694 2.694 0 0 1-2.3-1.33c-5.67-9.658-7.748-15.765-8.492-19.182a10.957 10.957 0 0 1-.373-2.347 5.442 5.442 0 0 1-.009-1.185l.028-.174a11.183 11.183 0 0 1 22.317.111 4.842 4.842 0 0 1 .018.6v.04a11.189 11.189 0 0 1-.449 3.143c-.77 3.414-2.86 9.461-8.433 18.956a2.632 2.632 0 0 1-2.307 1.307zm-10.57-23.571c0 .163 0 .4.031.746a10.254 10.254 0 0 0 .353 2.215v.012c.733 3.371 2.789 9.4 8.421 18.995a2.043 2.043 0 0 0 1.758 1 2.142 2.142 0 0 0 1.763-1.01c5.538-9.434 7.6-15.43 8.363-18.8l.006-.02a10.52 10.52 0 0 0 .363-2.975l-.063-.044a4.215 4.215 0 0 1 .048-.529l.03-.018a10.539 10.539 0 0 0-21.047.11l-.009.321z" transform="translate(-1562.904 -531.763)" style="fill:url(#nvfs6kdngb)"/>
                        </g>
                        <circle data-name="Ellipse 100" cx="6.276" cy="6.276" r="6.276" transform="translate(9.13 9.06)" style="opacity:.8;fill:#fff"/>
                        <g data-name="Group 611">
                            <path data-name="Path 7578" d="M1589.72 564.608a6.626 6.626 0 1 1 6.626-6.626 6.634 6.634 0 0 1-6.626 6.626zm0-12.551a5.925 5.925 0 1 0 5.925 5.925 5.932 5.932 0 0 0-5.925-5.925z" transform="translate(-1574.314 -542.647)" style="fill:url(#jf336z8y4i)"/>
                        </g>
                    </g>
                    <g data-name="Group 613">
                        <path data-name="Path 7579" d="M1585.172 545.411a.105.105 0 0 1-.069-.185 9.738 9.738 0 0 1 6.342-2.348.105.105 0 1 1 0 .21 9.529 9.529 0 0 0-6.205 2.3.106.106 0 0 1-.068.023z" transform="translate(-998.983 -288.538)" style="opacity:.8;fill:#fff"/>
                    </g>
                    <g data-name="Group 614">
                        <path data-name="Path 7580" d="M1573.5 564.01a.105.105 0 0 1-.105-.105 9.716 9.716 0 0 1 1.457-5.127.105.105 0 0 1 .179.111 9.509 9.509 0 0 0-1.426 5.016.1.1 0 0 1-.105.105z" transform="translate(-990.67 -299.826)" style="opacity:.8;fill:#fff"/>
                    </g>
                </g>
            </g>
            <g data-name="Group 657">
                <g data-name="Group 617" transform="translate(604.127 286.746)">
                    <path data-name="Path 7581" d="m1850.271 675.235.6-18.6c.072-.706.332-1.185.535-1.182s.44.488.491 1.182v18.6z" transform="translate(-1791.969 -655.449)" style="fill:url(#9qj5vtfb4c)"/>
                    <path data-name="Path 7582" d="M1751.869 925.373c-2.7-3.6-18.6-39.609-24.006-55.813s-10.5-41.71-12-49.212-3.9-59.715-3.9-59.715h-10.5s-1.8 46.811-4.5 59.415-7.8 36.909-12.6 49.512-24.006 58.814-27.006 62.952-9.6 9.066-9.6 9.066h33.238a24.306 24.306 0 1 1 47.551 0h37.439s-11.415-12.604-14.116-16.205zm-58.544-33.259s6.9-6.65 7.5-28.256h12.633s-.9 19 9 28.256z" transform="translate(-1647.744 -730.354)" style="fill:url(#g3cu4myozl)"/>
                    <rect data-name="Rectangle 240" width="45.311" height="7.427" rx="3.135" transform="translate(36.459 120.752)" style="fill:url(#ggixhyd95m)"/>
                    <rect data-name="Rectangle 241" width="80.72" height="8.102" rx="3.42" transform="translate(18.755 164.412)" style="fill:url(#k647hpmbcn)"/>
                    <path data-name="Path 7583" d="M1827.084 715.681a5.344 5.344 0 0 1 2.025 3.657c.5 2.608-.718 3.47-.056 5.57A14.913 14.913 0 0 0 1831.3 728c2.766 3.4 3.533 4.037 3.6 5.4a4.262 4.262 0 0 1-.811 2.642c-1.47 2.037-4.421 1.972-4.421 1.972h-14.2s-2.951.065-4.422-1.972a4.263 4.263 0 0 1-.811-2.642c.067-1.364.834-2 3.6-5.4a14.887 14.887 0 0 0 2.25-3.094c.662-2.1-.56-2.963-.056-5.57a5.345 5.345 0 0 1 2.026-3.657c1.404-.928 7.627-.928 9.029.002z" transform="translate(-1763.456 -697.845)" style="fill:url(#snsvuqb65o)"/>
                </g>
                <g data-name="Group 620">
                    <g data-name="Group 618">
                        <path data-name="Path 7584" d="M1275.005 1196.587c10.4-9.635 55.375-51.266 58.26-52.164a5.235 5.235 0 0 1 1.6-.215 5.863 5.863 0 0 1 3.741 1.871s16.836 56.588 20.577 80.672h-85.349z" transform="translate(-777.346 -716.761)" style="fill:url(#evfqrnd8xd)"/>
                        <path data-name="Path 7585" d="M1557.162 1226.757a203.377 203.377 0 0 0-16.836-29.93 197.171 197.171 0 0 0-28.921-33.335 201.626 201.626 0 0 0-20.529-16.629 8.774 8.774 0 0 0-4.269-2.512 7.758 7.758 0 0 0-.764-.138l17.185 82.543z" transform="translate(-928.323 -716.767)" style="fill:url(#ek2xoxd7zp)"/>
                    </g>
                    <g data-name="Group 619">
                        <path data-name="Path 7586" d="M1210.272 1216.986s7.483 1.871 19.174 10.289 49.53 51.133 49.53 51.133l-52.515 1.526-20.092-62.481a4.542 4.542 0 0 1 3.903-.467z" transform="translate(-729.301 -768.418)" style="fill:url(#bgvmpqbm3q)"/>
                        <path data-name="Path 7587" d="m1033.91 1267.391 38.582-45.831s3.04-3.975 5.846-3.975l22.586 62.823h-76.866z" transform="translate(-599.472 -769.016)" style="fill:url(#sy5d4vo9cr)"/>
                    </g>
                </g>
                <g data-name="Group 653">
                    <g data-name="Group 636">
                        <path data-name="Path 7588" d="M1959.026 1131.936a7.017 7.017 0 0 1-6.977 7.714c-2.847 0-5.59-1.219-6.412-5.493-1.9-9.878 10.616-93.013 41.031-116.255 0 0 8.358-4.179 0 5.7-8.088 9.557-33.25 52.553-27.642 108.334z" transform="translate(-1255.623 -626.191)" style="fill:url(#wrawb7kdos)"/>
                        <g data-name="Group 635">
                            <g data-name="Group 622">
                                <path data-name="Path 7589" d="M2078.705 1012.267s-12.011 18.3-3.432 14.727l3.432-3.86s-7.094 16.586-3.261 14.87 3.4-5.862 3.261-3.146-6.288 11.153-3.216 11.153 3.306-2.145 3.306-2.145-11.7 13.3-6.611 11.3 2.461-2.86 1.231-1.43-7.6 11.3-2.514 8.293a19.272 19.272 0 0 0 7.232-7.721s-4.29 7.435-.715 4.719 5.576-12.726 5.576-12.726 2.288 11.153 2.86 5.577a123.852 123.852 0 0 0 0-15.157s1.716 10.152 2.43 1.859-3.718-13.012-3.718-13.012 5.719 7.435 5.29 1.573c-.339-4.636-4.077-15.265-8.03-16.325-1.044-.284-2.104.105-3.121 1.451z" transform="translate(-1343.577 -621.707)" style="fill:url(#vszomdnx7t)"/>
                                <g data-name="Group 621">
                                    <path data-name="Path 7590" d="M2087.487 1056.619a.286.286 0 0 1-.2-.486c12.409-12.688 6.474-41.544 6.413-41.834a.286.286 0 0 1 .56-.118c.062.293 6.06 29.446-6.563 42.353a.285.285 0 0 1-.21.085z" transform="translate(-1356.568 -624.005)" style="fill:url(#riuiph3rau)"/>
                                </g>
                            </g>
                            <g data-name="Group 624">
                                <path data-name="Path 7591" d="M1971.43 987.815s-19.587 9.776-15.029 1.677l4.237-2.954s-17.3 5.094-15.151 1.49 6.222-2.691 3.507-2.868-11.814 4.934-11.454 1.882 2.519-3.03 2.519-3.03-14.581 10.058-11.995 5.237 3.129-2.108 1.564-1.054-12.111 6.221-8.531 1.521a19.272 19.272 0 0 1 8.518-6.274s-7.888 3.386-4.77.155 13.293-4.042 13.293-4.042-10.806-3.583-5.2-3.5a123.861 123.861 0 0 1 15.051 1.782s-9.88-2.9-1.56-2.632 12.484 5.221 12.484 5.221-6.711-6.554-.94-5.439c4.564.882 14.679 5.843 15.267 9.894.16 1.076-.355 2.083-1.81 2.934z" transform="translate(-1237.757 -596.167)" style="fill:url(#apft3cinov)"/>
                                <g data-name="Group 623">
                                    <path data-name="Path 7592" d="M1950.961 1003.478a.286.286 0 0 0 .459.26c14.058-10.831 42.017-1.546 42.3-1.451a.286.286 0 1 0 .183-.542c-.283-.1-28.529-9.479-42.83 1.539a.285.285 0 0 0-.112.194z" transform="translate(-1259.546 -612.593)" style="fill:url(#f5ujgknkpw)"/>
                                </g>
                            </g>
                            <g data-name="Group 626">
                                <path data-name="Path 7593" d="M2108.556 995.191s17.494 13.16 14.477 4.369l-3.632-3.672s16.1 8.142 14.631 4.208-5.632-3.773-2.93-3.456 10.727 6.991 10.923 3.925-1.928-3.436-1.928-3.436 12.52 12.531 10.848 7.322-2.7-2.64-1.348-1.32 10.785 8.31 8.115 3.041a19.269 19.269 0 0 0-7.241-7.713s7.145 4.758 4.663 1.016-12.342-6.381-12.342-6.381 11.277-1.568 5.749-2.5a123.834 123.834 0 0 0-15.125-.972s10.241-1.061 2.011-2.307-13.223 2.875-13.223 2.875 7.787-5.231 1.909-5.179c-4.648.041-15.495 3.089-16.806 6.966-.349 1.03-.029 2.113 1.249 3.214z" transform="translate(-1370.792 -603.396)" style="fill:url(#q12uoglbgx)"/>
                                <g data-name="Group 625">
                                    <path data-name="Path 7594" d="M2152.523 1019.336a.286.286 0 0 1-.5.173c-11.865-13.2-41.043-9.126-41.336-9.083a.286.286 0 0 1-.082-.566c.3-.043 29.774-4.159 41.844 9.267a.285.285 0 0 1 .074.209z" transform="translate(-1373.062 -620.642)" style="fill:url(#pkgbqeozvy)"/>
                                </g>
                            </g>
                            <g data-name="Group 628">
                                <path data-name="Path 7595" d="M2108.083 1004.9s20.7 6.97 17.408 8.686-4.451 1.524-4.451 1.524 13.566 10.246 9.705 10.246h-2.574s7.578 7.993 4 7.765-3-1.964-3-1.964 5.29 10.142 2.859 12a7.723 7.723 0 0 1-2-3.937c.715 5.147-3.289 16.119-4 12.687s.858-10.028.858-10.028-2.431 6-2.717 3.279 1.43-9.728 1.43-9.728-3 4.859-3 1.57.286-9.438.286-9.438-.829 5-2.273 2.573-1.444-10.867-1.444-10.867-.143 10.867-5.719-2.717c-3.581-6.861-7.441-11.579-5.368-11.651z" transform="translate(-1371.024 -617.557)" style="fill:url(#ipbsxhg72z)"/>
                                <g data-name="Group 627">
                                    <path data-name="Path 7596" d="M2133.3 1045.622a.3.3 0 0 1-.286-.286c-1.123-24.337-17.743-34.957-17.911-35.061a.291.291 0 0 1-.092-.4.287.287 0 0 1 .394-.094c.17.106 17.042 10.878 18.18 35.527.008.158-.115-.348-.273.312z" transform="translate(-1376.341 -621.004)" style="fill:url(#vihanyd6vA)"/>
                                </g>
                            </g>
                            <g data-name="Group 630">
                                <path data-name="Path 7597" d="M2070.921 893.052s12.033-18.226 8.384-17.556-4.246 1.793-4.246 1.793 4.6-16.165 1.552-13.791l-2.03 1.583s.859-11.221-1.82-8.843-1.26 3.267-1.26 3.267-2.117-11.315-5.177-11.286a7.436 7.436 0 0 0 .818 4.3c-2.6-4.5-12.52-10.7-10.972-7.557s6.838 7.371 6.838 7.371-5.607-3.237-4.162-.919 7.109 6.789 7.109 6.789-5.357-1.985-3.334.608 6.03 7.265 6.03 7.265-3.732-3.436-3.375-.631 5.545 9.457 5.545 9.457-6.8-8.481-2.839 5.66c1.402 7.614 1.26 13.708 2.939 12.49z" transform="translate(-1334.354 -503.053)" style="fill:url(#cj0mpmt75B)"/>
                                <g data-name="Group 629">
                                    <path data-name="Path 7598" d="M2081.96 868.785c-.12.093-.058.378.031.5 14.083 19.88 7.55 38.527 7.481 38.712a.33.33 0 0 0 .192.4.292.292 0 0 0 .378-.155c.069-.188 6.673-19.155-7.591-39.29-.091-.129 0 .18-.481-.174z" transform="translate(-1352.789 -520.62)" style="fill:url(#395hs4ncmC)"/>
                                </g>
                            </g>
                            <g data-name="Group 632">
                                <path data-name="Path 7599" d="M2013.815 920.168s2.049-21.743-.856-19.437-2.9 3.579-2.9 3.579-3.545-16.427-5.115-12.9l-1.047 2.351s-4.519-10.307-5.764-6.949.424 3.476.424 3.476-7.188-8.991-9.875-7.526a7.435 7.435 0 0 0 2.746 3.413c-4.412-2.746-16.082-3.559-13.238-1.51s9.5 3.29 9.5 3.29-6.471-.22-4.105 1.146 9.466 2.649 9.466 2.649-5.661.767-2.656 2.1 8.738 3.577 8.738 3.577-4.909-1.278-3.276 1.03 9.34 5.739 9.34 5.739-9.986-4.289.156 6.33c4.813 6.061 7.554 11.507 8.462 9.642z" transform="translate(-1278.62 -530.464)" style="fill:url(#y1ogcuz93D)"/>
                                <g data-name="Group 631">
                                    <path data-name="Path 7600" d="M2012.013 896.683c-.062.139.126.361.264.43 21.777 10.923 24.779 30.452 24.806 30.648a.33.33 0 0 0 .355.259.292.292 0 0 0 .26-.315c-.027-.2-3.118-20.043-25.174-31.106-.141-.071.08.162-.506.073z" transform="translate(-1303.016 -540.422)" style="fill:url(#xll53i3nwE)"/>
                                </g>
                            </g>
                            <g data-name="Group 634">
                                <path data-name="Path 7601" d="M2018.234 999.61s-21.621-3.082-19.455-.07 3.436 3.071 3.436 3.071-16.577 2.759-13.129 4.5l2.3 1.157s-10.51 4.023-7.215 5.427 3.492-.258 3.492-.258-9.323 6.752-7.988 9.505a7.437 7.437 0 0 0 3.54-2.58c-2.954 4.276-4.321 15.894-2.139 13.151s3.739-9.333 3.739-9.333-.528 6.453.95 4.155 3.1-9.329 3.1-9.329.5 5.691 1.975 2.754 3.989-8.558 3.989-8.558-1.51 4.843.873 3.321 6.177-9.057 6.177-9.057-4.759 9.77 6.33.146c6.275-4.528 11.845-7.006 10.025-8.002z" transform="translate(-1279.901 -612.799)" style="fill:url(#fotlb17xhF)"/>
                                <g data-name="Group 633">
                                    <path data-name="Path 7602" d="M1993.385 1028.6c.136.068.367-.109.442-.243 11.948-21.232 31.6-23.3 31.794-23.319a.33.33 0 0 0 .275-.343.291.291 0 0 0-.3-.275c-.2.018-20.168 2.16-32.27 23.664-.077.138.165-.073.049.51z" transform="translate(-1289.704 -617.216)" style="fill:url(#e9pphlaf0G)"/>
                                </g>
                            </g>
                        </g>
                    </g>
                    <g data-name="Group 652">
                        <path data-name="Path 7603" d="M1823.307 1134.046a7.017 7.017 0 0 0 6.977 7.713c2.847 0 5.589-1.219 6.412-5.493 1.9-9.878-10.616-93.013-41.031-116.254 0 0-8.358-4.179 0 5.7 8.088 9.556 33.251 52.552 27.642 108.334z" transform="translate(-1146.311 -627.693)" style="fill:url(#e6w92rrh3H)"/>
                        <g data-name="Group 651">
                            <g data-name="Group 638">
                                <path data-name="Path 7604" d="M1763.022 1014.376s12.011 18.3 3.432 14.727l-3.432-3.861s7.093 16.586 3.26 14.871-3.4-5.862-3.26-3.146 6.288 11.153 3.215 11.153-3.305-2.145-3.305-2.145 11.7 13.3 6.611 11.3-2.461-2.86-1.231-1.43 7.6 11.3 2.514 8.293a19.268 19.268 0 0 1-7.232-7.721s4.29 7.435.715 4.718-5.576-12.726-5.576-12.726-2.288 11.153-2.86 5.577a123.793 123.793 0 0 1 0-15.156s-1.716 10.152-2.431 1.859 3.718-13.012 3.718-13.012-5.719 7.435-5.291 1.573c.339-4.636 4.077-15.265 8.031-16.325 1.045-.283 2.105.106 3.122 1.451z" transform="translate(-1117.751 -623.208)" style="fill:url(#2dl7pznl6I)"/>
                                <g data-name="Group 637">
                                    <path data-name="Path 7605" d="M1784.894 1058.729a.286.286 0 0 0 .2-.486c-12.409-12.688-6.474-41.544-6.412-41.834a.286.286 0 0 0-.56-.119c-.062.293-6.06 29.446 6.563 42.353a.285.285 0 0 0 .209.086z" transform="translate(-1135.414 -625.506)" style="fill:url(#vtfz8ts5rJ)"/>
                                </g>
                            </g>
                            <g data-name="Group 640">
                                <path data-name="Path 7606" d="M1791.179 989.925s19.587 9.776 15.029 1.677l-4.237-2.954s17.3 5.094 15.151 1.49-6.222-2.691-3.507-2.868 11.815 4.934 11.453 1.882-2.518-3.03-2.518-3.03 14.581 10.058 11.994 5.237-3.129-2.108-1.565-1.054 12.111 6.221 8.531 1.521a19.271 19.271 0 0 0-8.518-6.274s7.888 3.386 4.77.155-13.293-4.042-13.293-4.042 10.807-3.583 5.2-3.5a123.8 123.8 0 0 0-15.051 1.782s9.88-2.9 1.56-2.633-12.484 5.221-12.484 5.221 6.711-6.554.94-5.439c-4.564.882-14.679 5.843-15.267 9.894-.155 1.076.356 2.083 1.812 2.935z" transform="translate(-1144.453 -597.669)" style="fill:url(#pxwze1skeK)"/>
                                <g data-name="Group 639">
                                    <path data-name="Path 7607" d="M1835.816 1005.587a.286.286 0 0 1-.458.26c-14.059-10.832-42.017-1.546-42.3-1.451a.286.286 0 0 1-.183-.542c.284-.1 28.53-9.479 42.831 1.54a.287.287 0 0 1 .11.193z" transform="translate(-1146.832 -614.095)" style="fill:url(#1hbdsopkkL)"/>
                                </g>
                            </g>
                            <g data-name="Group 642">
                                <path data-name="Path 7608" d="M1658.741 997.3s-17.494 13.16-14.477 4.369L1647.9 998s-16.1 8.142-14.631 4.208 5.632-3.773 2.93-3.456-10.726 6.991-10.924 3.924 1.928-3.436 1.928-3.436-12.52 12.531-10.849 7.322 2.7-2.64 1.348-1.32-10.785 8.311-8.115 3.041a19.27 19.27 0 0 1 7.241-7.713s-7.145 4.758-4.663 1.016 12.342-6.381 12.342-6.381-11.276-1.567-5.748-2.5a123.825 123.825 0 0 1 15.125-.972s-10.241-1.061-2.011-2.306 13.227 2.873 13.227 2.873-7.787-5.231-1.909-5.179c4.649.041 15.495 3.089 16.806 6.967.342 1.028.022 2.112-1.256 3.212z" transform="translate(-1016.106 -604.898)" style="fill:url(#zb828phmvM)"/>
                                <g data-name="Group 641">
                                    <path data-name="Path 7609" d="M1636.661 1021.445a.286.286 0 0 0 .5.173c11.866-13.2 41.043-9.126 41.337-9.083a.286.286 0 0 0 .083-.566c-.3-.043-29.774-4.159-41.844 9.267a.284.284 0 0 0-.076.209z" transform="translate(-1035.725 -622.144)" style="fill:url(#uu4pqrighN)"/>
                                </g>
                            </g>
                            <g data-name="Group 644">
                                <path data-name="Path 7610" d="M1721.992 1007.009s-20.7 6.971-17.408 8.686 4.45 1.385 4.45 1.385-13.565 10.107-9.7 10.107h2.574s-7.578 8.132-4 7.9 3-1.894 3-1.894-5.29 10.176-2.86 12.035a7.6 7.6 0 0 0 2-3.92c-.715 5.148 3.289 16.128 4 12.7s-.858-10.024-.858-10.024 2.431 6 2.717 3.281-1.43-9.726-1.43-9.726 3 4.859 3 1.57-.286-9.438-.286-9.438.829 5 2.273 2.574 1.444-10.867 1.444-10.867.143 10.867 5.719-2.717c3.578-6.861 7.439-11.58 5.365-11.652z" transform="translate(-1078.652 -619.059)" style="fill:url(#5b6uh0c77O)"/>
                                <g data-name="Group 643">
                                    <path data-name="Path 7611" d="M1714.132 1047.4c.152 0 .278.006.285-.148 1.123-24.337 17.743-34.888 17.911-34.992a.251.251 0 0 0 .092-.363.282.282 0 0 0-.394-.076c-.171.106-17.042 10.748-18.181 35.4-.007.158.115-.148.273.182z" transform="translate(-1090.691 -622.451)" style="fill:url(#0ijrb795iP)"/>
                                </g>
                            </g>
                            <g data-name="Group 646">
                                <path data-name="Path 7612" d="M1763.229 895.161s-12.032-18.226-8.384-17.556 4.246 1.793 4.246 1.793-4.6-16.165-1.552-13.79l2.03 1.583s-.858-11.221 1.82-8.843 1.26 3.267 1.26 3.267 2.116-11.315 5.176-11.286a7.435 7.435 0 0 1-.818 4.3c2.6-4.5 12.52-10.7 10.973-7.557s-6.838 7.371-6.838 7.371 5.608-3.237 4.162-.918-7.109 6.789-7.109 6.789 5.357-1.985 3.334.608-6.03 7.265-6.03 7.265 3.732-3.436 3.375-.631-5.545 9.457-5.545 9.457 6.8-8.48 2.839 5.66c-1.402 7.612-1.261 13.706-2.939 12.488z" transform="translate(-1119.396 -504.555)" style="fill:url(#5pfdhnezbQ)"/>
                                <g data-name="Group 645">
                                    <path data-name="Path 7613" d="M1787.445 870.894c.12.093.058.378-.031.5-14.083 19.88-7.55 38.527-7.482 38.713a.33.33 0 0 1-.192.395.291.291 0 0 1-.378-.155c-.069-.188-6.673-19.155 7.59-39.29.091-.129.005.18.481-.174z" transform="translate(-1136.217 -522.122)" style="fill:url(#5gtybq95gR)"/>
                                </g>
                            </g>
                            <g data-name="Group 648">
                                <path data-name="Path 7614" d="M1788.7 922.277s-2.049-21.743.856-19.436 2.9 3.579 2.9 3.579 3.545-16.427 5.115-12.9l1.047 2.351s4.519-10.307 5.764-6.948-.424 3.475-.424 3.475 7.188-8.991 9.875-7.526a7.436 7.436 0 0 1-2.745 3.414c4.412-2.747 16.082-3.559 13.237-1.511s-9.5 3.29-9.5 3.29 6.471-.22 4.105 1.146-9.466 2.649-9.466 2.649 5.661.767 2.656 2.1-8.738 3.577-8.738 3.577 4.909-1.278 3.276 1.03-9.341 5.739-9.341 5.739 9.986-4.289-.156 6.33c-4.807 6.064-7.548 11.506-8.461 9.641z" transform="translate(-1143.5 -531.966)" style="fill:url(#9kb3jk7ziS)"/>
                                <g data-name="Group 647">
                                    <path data-name="Path 7615" d="M1817.9 898.793c.062.139-.127.361-.264.43-21.777 10.924-24.779 30.452-24.806 30.648a.33.33 0 0 1-.355.258.291.291 0 0 1-.26-.315c.027-.2 3.117-20.043 25.174-31.106.141-.071-.08.161.506.073z" transform="translate(-1146.496 -541.925)" style="fill:url(#nn4bv5cw9T)"/>
                                </g>
                            </g>
                            <g data-name="Group 650">
                                <path data-name="Path 7616" d="M1778.674 1001.719s21.621-3.082 19.455-.07-3.437 3.071-3.437 3.071 16.578 2.759 13.129 4.5l-2.3 1.158s10.51 4.023 7.215 5.427-3.492-.258-3.492-.258 9.323 6.752 7.988 9.506a7.434 7.434 0 0 1-3.54-2.58c2.953 4.276 4.321 15.894 2.139 13.15s-3.739-9.333-3.739-9.333.527 6.453-.95 4.155-3.1-9.329-3.1-9.329-.5 5.691-1.975 2.754-3.989-8.558-3.989-8.558 1.51 4.843-.873 3.321-6.177-9.057-6.177-9.057 4.759 9.77-6.33.146c-6.274-4.529-11.844-7.007-10.024-8.003z" transform="translate(-1136.607 -614.301)" style="fill:url(#ykvehh636U)"/>
                                <g data-name="Group 649">
                                    <path data-name="Path 7617" d="M1819.484 1030.712c-.136.068-.367-.109-.442-.243-11.948-21.232-31.6-23.3-31.794-23.319a.33.33 0 0 1-.275-.343.292.292 0 0 1 .3-.275c.2.018 20.168 2.16 32.269 23.664.078.138-.165-.072-.049.509z" transform="translate(-1142.765 -618.718)" style="fill:url(#6qpk1i2bzV)"/>
                                </g>
                            </g>
                        </g>
                    </g>
                </g>
                <g data-name="Group 655">
                    <path data-name="Path 7618" d="M1371.316 1368.768c4.021-2.174 8.671-3.828 12.762-5.766a301.556 301.556 0 0 1 69.608-22.978c15.308-3.057 31.717-4.248 47.277-2.373 58.067 7 120.333 23.682 113.669 30.124s-17.966 5.586-35.974 5.57-41.556-8.914-59.55-1.577c-27.127 11.061-55.593.84-83.663 3.056-19.027 1.5-39.092 3.585-58.151 3.195-6.352-.13-15.384-3.76-7.117-8.609q.559-.329 1.139-.642z" transform="translate(-843.592 -853.88)" style="fill:url(#bna7atd14W)"/>
                    <g data-name="Group 654">
                        <path data-name="Path 7619" d="M1579.687 1415.589c-6.568 0-13.334-1.572-22.971-5.425-23.568-9.423-52.554-4.217-62.9-.22a.666.666 0 1 1-.48-1.243c10.5-4.06 39.938-9.345 63.874.225 20.041 8.012 27.454 5.947 47.268.427 3.535-.984 7.542-2.1 12.056-3.278 20.3-5.294 33.036-2.379 43.27-.036 4.737 1.085 8.828 2.028 12.853 1.951 3.54-.061 5.765-.869 6.434-2.335.937-2.053-1.181-5.276-2.076-6.344a.666.666 0 0 1 1.021-.857c.154.183 3.744 4.514 2.269 7.752-.91 2-3.475 3.046-7.625 3.117-4.187.068-8.352-.881-13.174-1.985-10.092-2.311-22.652-5.186-42.636.027-4.5 1.174-8.5 2.289-12.035 3.273-10.646 2.962-17.771 4.951-25.148 4.951z" transform="translate(-933.356 -897.65)" style="fill:url(#grwy61zxwX)"/>
                    </g>
                </g>
                <g data-name="Group 656" transform="translate(570.541 301.569)">
                    <path data-name="Rectangle 242" d="M7.971 0h32.12a7.971 7.971 0 0 1 7.971 7.971v44.1a4.615 4.615 0 0 1-4.615 4.615H7.971A7.971 7.971 0 0 1 0 48.715V7.971A7.971 7.971 0 0 1 7.971 0z" transform="translate(7.553 175.358)" style="fill:url(#rjirpqgd8Y)"/>
                    <path data-name="Path 7620" d="M1595.659 1488.64a10.467 10.467 0 0 0-10.436-10.437h-42.295c-5.74 0-8.514 4.7-8.514 10.437v2.746h61.245z" transform="translate(-1533.453 -1256.18)" style="fill:url(#j6hlr6hxeZ)"/>
                    <path data-name="Path 7621" d="M1625.42 926.554c-.931-2.042-2.26-5.536-5.287-6.8-.357-.149-1.18.224-1.579-.206s-.2-1.295.057-1.981a8.321 8.321 0 0 1-2.744.909 8.864 8.864 0 0 1-5.678-1.184l-.492 2.05-6.406-.163c-3.6 23.685 2.5 43.044 14.446 48.1a18.951 18.951 0 0 0 10.287 1.1c-.042-.526-.271-3.517-.271-3.517s-.206-7.69.206-12.084 1.404-17.578-2.539-26.224z" transform="translate(-1581.771 -856.74)" style="fill:url(#an0w2tdqzaa)"/>
                    <path data-name="Path 7622" d="M1555.331 769.394a19.639 19.639 0 0 1-6.286-4.4 9.785 9.785 0 0 1-3.227-5c-.412-1.785-.824-21.353-1.03-23.756-.092-1.074.517-2.562 1.167-5.561 2.171-10.015 2.939-11.836 2.165-15.063a17.63 17.63 0 0 0-3.263-6.29c-.957-1.449-1.819-2.345-2.9-2.389-2.289-.093-4.863 4.065-5.75 8.019-.8 3.56.028 7.465 1.682 15.275.771 3.641 1.77 7.625-.015 9-.679.521-2.416 1.169-3.029 2.688a4.884 4.884 0 0 0-.243.862 5 5 0 0 0 .232 2.391c.89 2.517 3.419 2.694 4.806 4.257 2.428 2.737-1.474 6.532-1.1 13.183.307 5.45 3.118 6.279 5.948 15.38a56.27 56.27 0 0 1 2.016 9.063c.981 16.708.936 29.493.687 38.312-.4 14.027-1.266 16.608-.549 26.091.311 4.113.805 8 0 13.39a44.277 44.277 0 0 1-5.541 15.584l46.464-.48a47.464 47.464 0 0 1-5.1-12.972c-1.628-7.1-1.254-13.191-.8-20.534.712-11.6 2.432-13.9.687-18.4a38.768 38.768 0 0 1-2.54-9.406v-.053c-10.424-8-14.729-15.992-16.693-22.026-3.333-10.203-1.212-23.636-7.788-27.165z" transform="translate(-1533.546 -706.94)" style="fill:url(#am0yq574gab)"/>
                    <path data-name="Path 7623" d="M1615.489 827.727a15.72 15.72 0 0 0-.036-.388c2.59-.638 7.1-1.853 6.994-2.679-.106-.866-5.243-.919-7.863-.9l-1.106-1.859c.609-1.1 3.676-6.711 2.835-7.312s-5.112 4.068-5.97 5.012l-3.1-.707c-.918-4.5-2.146-9.609-3.016-9.523-.821.081-1.063 4.765-1.1 9.449l-2.97.747c-2.312-2.554-5.322-5.679-5.906-5.252-.606.442 1.624 4.531 3.348 7.5l-1.036 2.352c-1.605.136-6.767.619-6.8 1.5-.03.847 4.664 1.661 6.335 1.932a19.4 19.4 0 0 0 .595 4.745c1.066 4.188 4.393 11.282 8.8 11.482 5.128.233 10.565-8.878 9.996-16.099z" transform="translate(-1572.87 -779.884)" style="fill:url(#yjrmfwid4ac)"/>
                    <rect data-name="Rectangle 243" width="63.167" height="14.556" rx="5.558" transform="translate(0 172.04)" style="fill:url(#1wnba8e2uad)"/>
                </g>
            </g>
            <g data-name="Group 659">
                <g data-name="Group 658">
                    <path data-name="Path 7624" d="M593.945 785.438a9.535 9.535 0 0 1-9.714 9.177l-128.469.28a9.715 9.715 0 0 1-9.923-9.171l-5.986-239.283a9.943 9.943 0 0 1 10.034-10.263l136.368.652a10.177 10.177 0 0 1 10.107 10.316z" transform="translate(-183.439 -283.768)" style="fill:url(#juoflbzd8e)"/>
                    <path data-name="Path 7625" d="M617.8 596.452a9.972 9.972 0 0 0-10.02-9.953l-108.235-.476a9.743 9.743 0 0 0-9.937 9.9l4.449 203.447c.109 4.983 4.516 9.007 9.843 9l102.827-.163c5.3-.008 9.615-4.033 9.65-9z" transform="translate(-218.872 -319.263)" style="fill:url(#pvpqkbcu6ae)"/>
                    <path data-name="Path 7626" d="M625.967 627.771a9.174 9.174 0 0 0-9.062-9.307l-97.884-.445a8.963 8.963 0 0 0-8.986 9.256l4.024 190.225a8.782 8.782 0 0 0 8.9 8.414l92.993-.153a8.623 8.623 0 0 0 8.727-8.415z" transform="translate(-233.42 -342.049)" style="opacity:.22;fill:#fff"/>
                    <path data-name="Path 7627" d="M689.584 555.68a1.9 1.9 0 0 1-1.905 1.912l-28.168-.128a1.957 1.957 0 0 1-1.938-1.931 1.882 1.882 0 0 1 1.894-1.916l28.2.132a1.935 1.935 0 0 1 1.918 1.931z" transform="translate(-338.487 -296.186)" style="fill:url(#y9u8zsj56af)"/>
                </g>
            </g>
            <rect data-name="Rectangle 244" width="106.569" height="44.126" rx="22.063" transform="translate(280.636 321.151)" style="fill:url(#5memjppiaag)"/>
            <g data-name="Group 670">
                <g data-name="Group 662">
                    <path data-name="Rectangle 245" d="M0 0h22.639v23.908A19.753 19.753 0 0 1 2.886 43.661H0V0z" transform="translate(360.371 412.563)" style="fill:url(#0zpx6esqkah)"/>
                    <path data-name="Path 7628" d="M811.881 1056.947h-26.75l-4.9-19.674h25.917l6.781 18.024a1.161 1.161 0 0 1-1.048 1.65z" transform="translate(-425.839 -640.611)" style="fill:url(#w8x4i5mo9ai)"/>
                    <path data-name="Path 7629" d="m800.751 1032.871-27.566.74-.733-2.422 26.368-.471c.989 0 1.791.585 1.791 1.307z" transform="translate(-420.295 -635.944)" style="fill:url(#1hcz6hu0naj)"/>
                    <g data-name="Group 661" transform="translate(365.289 424.421)" style="opacity:.89">
                        <rect data-name="Rectangle 246" width="12.937" height="19.944" rx="1.123" style="fill:url(#0dkpplihag)"/>
                        <g data-name="Group 660" transform="translate(.943 1.078)" style="opacity:.9">
                            <rect data-name="Rectangle 247" width="5.023" height="17.788" rx=".624" style="fill:url(#imtpg4qemak);opacity:.9"/>
                            <rect data-name="Rectangle 248" width="5.023" height="17.788" rx=".624" transform="translate(6.027)" style="fill:url(#kptptf3real);opacity:.9"/>
                        </g>
                    </g>
                </g>
                <g data-name="Group 665">
                    <path data-name="Rectangle 249" d="M0 0h8.893a13.746 13.746 0 0 1 13.746 13.746v29.915H0V0z" transform="rotate(180 155.862 228.112)" style="fill:url(#0zpx6esqkah)"/>
                    <path data-name="Path 7630" d="M539.947 1056.947H566.7l5.2-19.674h-26.226l-6.781 18.024a1.161 1.161 0 0 0 1.054 1.65z" transform="translate(-253.894 -640.611)" style="fill:url(#ffu76ieacam)"/>
                    <path data-name="Path 7631" d="m562.719 1032.875 29.475.2.122-2.357h-27.668c-1.065 0-1.929.585-1.929 1.307z" transform="translate(-270.939 -635.944)" style="fill:url(#c4vvjfj9jan)"/>
                    <g data-name="Group 664" transform="translate(293.869 424.421)" style="opacity:.89">
                        <rect data-name="Rectangle 250" width="12.937" height="19.944" rx="1.123" transform="rotate(180 6.468 9.972)" style="fill:url(#0dkpplihag)"/>
                        <g data-name="Group 663" transform="translate(.943 1.078)" style="opacity:.9">
                            <rect data-name="Rectangle 251" width="5.023" height="17.788" rx=".624" transform="rotate(180 5.525 8.894)" style="fill:url(#wgaw43l2tao)"/>
                            <rect data-name="Rectangle 252" width="5.023" height="17.788" rx=".624" transform="rotate(180 2.511 8.894)" style="fill:url(#80uqbzld0ap)"/>
                        </g>
                    </g>
                </g>
                <path data-name="Path 7632" d="M637.376 997.649s-30.692 23.171-31.452 23.171v47.606a2.119 2.119 0 0 0 2.119 2.119h59.281a1.5 1.5 0 0 0 1.505-1.5v-48.22z" transform="translate(-301.706 -612.394)" style="fill:#7d97f4"/>
                <g data-name="Group 668">
                    <path data-name="Rectangle 253" d="M3.171 0h13.162A3.17 3.17 0 0 1 19.5 3.17v.138H0v-.137A3.171 3.171 0 0 1 3.171 0z" transform="translate(324.511 452.915)" style="fill:url(#pc1s1wg9iaq);opacity:.9"/>
                    <path data-name="Rectangle 254" d="M3.171 0h13.162A3.17 3.17 0 0 1 19.5 3.17v.138H0v-.137A3.171 3.171 0 0 1 3.171 0z" transform="translate(324.511 455.02)" style="fill:url(#n2mbz1pjuar)"/>
                    <path data-name="Rectangle 255" d="M3.56 0h6.192a3.56 3.56 0 0 1 3.56 3.56v22.409H0V3.56A3.56 3.56 0 0 1 3.56 0z" transform="translate(327.607 426.946)" style="fill:url(#jo9i7m18ras);opacity:.9"/>
                    <path data-name="Path 7633" d="M699.548 1127.756h-11.432a.94.94 0 0 1-.94-.94v-.821a.94.94 0 0 1 .875-.938l11.432-.794a.94.94 0 0 1 1.005.938v1.615a.94.94 0 0 1-.94.94z" transform="translate(-359.569 -702.558)" style="fill:#91b3fa"/>
                    <g data-name="Group 666">
                        <path data-name="Path 7634" d="M754.575 1096.327h-.126c-3.288 0-6.166 2.328-6.166 5.615v5.921h6.293z" transform="translate(-403.084 -682.665)" style="fill:url(#aqz5qdblcat);opacity:.9"/>
                        <path data-name="Path 7635" d="M748.282 1142.474v17.419c0 .587.689 1.5 1.275 1.5h5.017v-18.915z" transform="translate(-403.084 -715.528)" style="fill:url(#odhibvv9kau);opacity:.9"/>
                        <path data-name="Path 7636" d="M775.319 1096.327H775v11.536h6.293v-5.921a5.691 5.691 0 0 0-5.974-5.615z" transform="translate(-422.11 -682.665)" style="fill:url(#rtvew72wxav);opacity:.9"/>
                        <path data-name="Path 7637" d="M775 1161.389h5.211c.586 0 1.082-.909 1.082-1.5v-17.419H775z" transform="translate(-422.11 -715.528)" style="fill:url(#33w0g80c5aw);opacity:.9"/>
                    </g>
                    <g data-name="Group 667">
                        <path data-name="Path 7638" d="M634.178 1096.327h-.126c-3.288 0-6.166 2.328-6.166 5.615v5.921h6.293z" transform="translate(-317.346 -682.665)" style="fill:url(#x3pczq933ax)"/>
                        <path data-name="Path 7639" d="M627.885 1142.474v17.419c0 .587.689 1.5 1.275 1.5h5.018v-18.915z" transform="translate(-317.346 -715.528)" style="fill:url(#nxcgx7uraay)"/>
                        <path data-name="Path 7640" d="M654.922 1096.327h-.32v11.536h6.293v-5.921a5.691 5.691 0 0 0-5.973-5.615z" transform="translate(-336.372 -682.665)" style="fill:url(#pnondalavaz)"/>
                        <path data-name="Path 7641" d="M654.6 1161.389h5.211c.586 0 1.082-.909 1.082-1.5v-17.419H654.6z" transform="translate(-336.372 -715.528)" style="fill:url(#6gm5uy3wyaA)"/>
                    </g>
                    <path data-name="Path 7642" d="M757.381 1124.578h-15.148a1.577 1.577 0 0 1-1.575-1.575v-26.226a7.53 7.53 0 0 1 7.521-7.521h3.255a7.53 7.53 0 0 1 7.521 7.521V1123a1.577 1.577 0 0 1-1.574 1.578zm-9.2-35.177a7.384 7.384 0 0 0-7.375 7.376V1123a1.431 1.431 0 0 0 1.429 1.429h15.148a1.431 1.431 0 0 0 1.427-1.429v-26.226a7.384 7.384 0 0 0-7.375-7.376z" transform="translate(-397.655 -677.629)" style="fill:url(#0dkpplihag)"/>
                    <path data-name="Path 7643" d="M637.007 1124.578h-15.148a1.577 1.577 0 0 1-1.575-1.575v-26.226a7.53 7.53 0 0 1 7.521-7.521h3.255a7.53 7.53 0 0 1 7.521 7.521V1123a1.577 1.577 0 0 1-1.574 1.578zm-9.2-35.177a7.384 7.384 0 0 0-7.376 7.376V1123a1.431 1.431 0 0 0 1.429 1.429h15.147a1.431 1.431 0 0 0 1.429-1.429v-26.226a7.384 7.384 0 0 0-7.375-7.376z" transform="translate(-311.933 -677.629)" style="fill:url(#0dkpplihag)"/>
                    <path data-name="Path 7644" d="M687.454 1168.443h-.322a.227.227 0 0 1-.227-.227v-25.549a.193.193 0 0 1 .193-.193h.356z" transform="translate(-359.377 -715.528)" style="fill:#91b3fa"/>
                </g>
                <g data-name="Group 669">
                    <path data-name="Rectangle 256" transform="translate(349.443 385.761)" style="fill:url(#hpfwy3li5aB)" d="M0 0h5.203v8.472H0z"/>
                    <path data-name="Rectangle 257" d="M2.155 0h3.653a2.6 2.6 0 0 1 2.6 2.6H0v-.445A2.155 2.155 0 0 1 2.155 0z" transform="translate(347.951 384.532)" style="fill:url(#yef65x4gqaC)"/>
                    <path data-name="Path 7645" d="m595.71 1009.349 33.381-25.6 31.686 24.578a1.967 1.967 0 0 0 3.133-1.16l.444-2.174-35.263-26.863-34.134 26.07a1.7 1.7 0 0 0-.541 2z" transform="translate(-293.421 -598.494)" style="fill:url(#hku4trgwoaD)"/>
                </g>
            </g>
            <g data-name="Group 673">
                <path data-name="Path 7646" d="M1093.66 1112.32c.184 0 3.642.369 3.5-2.443s-1.282-15.536-4.629-15.121-5.613 17.396 1.129 17.564z" transform="translate(-645.934 -681.539)" style="fill:url(#un1ezp4zof)"/>
                <path data-name="Path 7647" d="M1101.467 1004.75s.565-8.7 9.017-8.611 23.019.091 23.019 7.666 4.334 34.811-2.766 37.426-27.938 4.058-29.689-.631.352-35.27.419-35.85z" transform="translate(-653.803 -611.318)" style="fill:url(#5gae9a8ziaE)"/>
                <path data-name="Path 7648" d="M1207.475 1112.32c-.184 0-3.642.369-3.5-2.443s1.282-15.536 4.629-15.121 5.612 17.396-1.129 17.564z" transform="translate(-727.59 -681.539)" style="fill:url(#osmnd5kqcaF)"/>
                <g data-name="Group 672">
                    <path data-name="Path 7649" d="M1180.91 1434.911a.913.913 0 0 0-.024-.239c-1.191-4.72-6.058-7.14-6.058-7.14l-2.342.184c-1.346 4.16-2.214 6.191-2 7.328.006.032.016.062.024.093a55.552 55.552 0 0 0 10.4-.226z" transform="translate(-703.725 -918.527)" style="fill:url(#e20wv2w53aG)"/>
                    <path data-name="Path 7650" d="M1170.652 1453.389a1.016 1.016 0 0 0 .743.75c2.748.578 7.115.113 8.948-.127a.852.852 0 0 0 .707-.849 55.529 55.529 0 0 1-10.398.226z" transform="translate(-703.866 -936.779)" style="fill:#7d97f4"/>
                    <path data-name="Path 7651" d="m1182.146 1414.876-1.025 4.935a.807.807 0 0 1-.689.664 6.846 6.846 0 0 1-1.588-.025 1.015 1.015 0 0 1-.8-1.192l.713-4.382z" transform="translate(-709.116 -909.514)" style="fill:url(#sy5d4vo9cr)"/>
                    <path data-name="Path 7652" d="M1076.023 1452.228a13.508 13.508 0 0 0 4.463-.638c0 .249 0 .5-.008.764a.493.493 0 0 1-.471.5l-13.731-.089a.627.627 0 0 1-.5-.913c1.796.148 6.381.484 10.247.376z" transform="translate(-629.132 -935.659)" style="fill:#7d97f4"/>
                    <path data-name="Path 7653" d="M1065.929 1435.867a.631.631 0 0 1 .054-.1 17.5 17.5 0 0 1 10.4-6.531l2.928-.092a14.051 14.051 0 0 1 1.328 6.463 13.511 13.511 0 0 1-4.463.638c-3.862.103-8.447-.23-10.247-.378z" transform="translate(-629.289 -919.671)" style="fill:url(#lkzz7xv15aH)"/>
                    <path data-name="Path 7654" d="M1104.93 1411.969c-.032.218-.434 3.535-.589 4.821a.637.637 0 0 1-.537.575 6.7 6.7 0 0 1-2.011-.031.866.866 0 0 1-.656-.869v-5.206z" transform="translate(-654.361 -906.938)" style="fill:url(#sy5d4vo9cr)"/>
                    <path data-name="Path 7655" d="M1123.735 1189.746s4.685 41.644 2.082 67.671a20.14 20.14 0 0 1-4.685-.521s-4.868-40.717-6.443-52.368a.392.392 0 0 0-.772-.024c-1.943 9.8-9.576 48.242-10.483 51.872a6.489 6.489 0 0 1-4.685 0s4.164-55.7 7.287-65.589z" transform="translate(-652.661 -749.192)" style="fill:url(#7gm2sv2xcaI)"/>
                    <path data-name="Path 7656" d="M1130.529 1018.8s-19.781-3.123-35.4 1.041l1.041 16.137s4.164 22.383 7.287 32.274c0 0 11.972 2.082 17.7-1.041 0 0 4.685-28.109 7.287-32.274.003-.005 2.606-10.937 2.085-16.137z" transform="translate(-650.086 -626.652)" style="fill:url(#mlt6do8h8aJ)"/>
                    <path data-name="Path 7657" d="m1152.078 972.166 1.97 13.326s-5.505 2.529-9.36-.109l.83-9.4z" transform="translate(-685.377 -594.247)" style="fill:url(#c2fak766jaK)"/>
                    <g data-name="Group 671">
                        <path data-name="Path 7658" d="M1137.744 944.54c-.093.089-3.224 6.152-5.159 9.906a2.918 2.918 0 0 0 1.565 4.067l1.495.564a5.685 5.685 0 0 0 7.118-2.827l3.341-6.852s-6.104-7.02-8.36-4.858z" transform="translate(-676.526 -574.279)" style="fill:url(#t1vku233paL)"/>
                        <path data-name="Path 7659" d="M1155.6 938.622a2.237 2.237 0 0 0 .826-3.182 3.153 3.153 0 0 0-3.431-1.638 1.05 1.05 0 0 1-1.108-.6.668.668 0 0 0-.526-.406.982.982 0 0 1-.806-1.145 2.59 2.59 0 0 0-1.475-2.952c-2.75-1.476-5.121 1-5.71 3.072s2.484 3.505 4.41 3.73c1.415.165 2.2 1.7 2.524 2.5a1.013 1.013 0 0 1-.067.889l-1.082 1.844a9.637 9.637 0 0 0 .532 2.114 2.056 2.056 0 0 0 .845 1.007c.862-.846 2.441-.543 3.157-.345a1.015 1.015 0 0 0 .806-.114 2.227 2.227 0 0 0 .805-3.4 1.012 1.012 0 0 1 .3-1.374z" transform="translate(-684.385 -562.973)" style="fill:url(#efarh05b5aM)"/>
                        <path data-name="Path 7660" d="M1164.3 980.733s1.181-3.57 2.739-3.455 2.8 1.654.887 3.416c-2.383 2.192-3.626.039-3.626.039z" transform="translate(-699.34 -597.885)" style="fill:url(#b0o6t1bxmaN)"/>
                        <path data-name="Path 7661" d="M1147.69 936.532a.071.071 0 0 1-.053-.023 2.486 2.486 0 0 1-.756-2.074 4.621 4.621 0 0 1 2.106-2.708.072.072 0 1 1 .074.123c-.018.011-1.824 1.114-2.038 2.605a2.351 2.351 0 0 0 .72 1.956.072.072 0 0 1 0 .1.071.071 0 0 1-.053.021z" transform="translate(-686.922 -565.441)" style="fill:#91b3fa"/>
                    </g>
                    <path data-name="Path 7662" d="M1204.573 1021.577s30.712 33.315-5.466 46.069v-2.6s13.534-11.452 3.123-27.069c0-.003 1.302-14.838 2.343-16.4z" transform="translate(-724.129 -629.434)" style="fill:url(#7q884923raO)"/>
                    <path data-name="Path 7663" d="M1176.312 1167.8s-4.685-3.124-6.767-2.082a3.219 3.219 0 0 0-2.082 2.6s1.041 2.082 2.6 1.561 5.206.521 6.767 0c.003-.002.523-2.079-.518-2.079z" transform="translate(-701.595 -731.926)" style="fill:url(#1fpt32we4aP)"/>
                    <path data-name="Path 7664" d="M1062.8 1025.193s-32.014 32.274 4.164 45.027v-2.6s-13.534-11.452-3.123-27.068c-.001-.003 1.04-12.752-1.041-15.359z" transform="translate(-617.753 -632.009)" style="fill:url(#sj202gye9aQ)"/>
                    <path data-name="Path 7665" d="M1108.892 1167.8s4.685-3.124 6.767-2.082a3.219 3.219 0 0 1 2.082 2.6s-1.041 2.082-2.6 1.561-5.205.521-6.767 0c-.002-.002-.523-2.079.518-2.079z" transform="translate(-659.421 -731.926)" style="fill:url(#u7qadsvimaR)"/>
                </g>
                <path data-name="Path 7666" d="M1186.891 1008.73c.758-2.476 3.2-2.017 5.261-1.1a2.624 2.624 0 0 1 1.229 3.649c-3.458 6.341 1.446 25.182-1.234 27.782-3.047 2.955-6.638-25.813-5.256-30.331z" transform="translate(-715.213 -618.98)" style="fill:url(#96xtezooeaS)"/>
                <path data-name="Path 7667" d="M1091.814 1012.725c.986-2.3 3.479-3.986 5.44-2.9a2.561 2.561 0 0 1 1.259 1.629 2.438 2.438 0 0 1-.378 1.987c-4.036 5.739-.922 24.266-3.833 26.5-3.302 2.521-4.288-23.022-2.488-27.216z" transform="translate(-647.089 -620.823)" style="fill:url(#b90gdh4y3aT)"/>
            </g>
            <g data-name="Group 675" transform="translate(197.501 429.556)">
                <g data-name="Group 674">
                    <path data-name="Path 7668" d="M276.946 1204.459h-8.6a1.729 1.729 0 0 1-1.727-1.727v-47.964a1.729 1.729 0 0 1 1.727-1.727h8.6a1.729 1.729 0 0 1 1.727 1.727v47.964a1.729 1.729 0 0 1-1.727 1.727zm-8.6-50.843a1.153 1.153 0 0 0-1.151 1.151v47.964a1.153 1.153 0 0 0 1.151 1.151h8.6a1.153 1.153 0 0 0 1.151-1.151v-47.964a1.153 1.153 0 0 0-1.151-1.151z" transform="translate(-257.576 -1152.608)" style="fill:url(#zqj2cdqmjaU)"/>
                    <path data-name="Path 7669" d="M278.037 1162.647H276.6v-7.654a2.016 2.016 0 0 0-2.014-2.014h-6.016a2.016 2.016 0 0 0-2.014 2.014v7.654h-1.439v-7.654a3.457 3.457 0 0 1 3.453-3.453h6.014a3.457 3.457 0 0 1 3.453 3.453z" transform="translate(-256.508 -1151.54)" style="fill:url(#2ay3lf1wdaV)"/>
                </g>
                <rect data-name="Rectangle 258" width="28.332" height="64.633" rx="5" transform="translate(0 25.51)" style="fill:url(#k2ue2s72gaW)"/>
                <path data-name="Path 7670" d="M328.139 1239.635h-2.733v64.733h2.733a2.742 2.742 0 0 0 2.734-2.733v-59.266a2.742 2.742 0 0 0-2.734-2.734z" transform="translate(-299.442 -1214.275)" style="fill:url(#cmpntlyataX)"/>
                <rect data-name="Rectangle 259" width="3.827" height="7.107" rx="1.913" transform="translate(4.147 84.365)" style="fill:url(#we1soq2o9aY)"/>
                <rect data-name="Rectangle 260" width="3.827" height="7.107" rx="1.913" transform="translate(23.231 84.365)" style="fill:url(#j0d171m7aaZ)"/>
            </g>
            <g data-name="Group 678">
                <path data-name="Path 7671" d="M509.248 949.3s-15.667 22.088-33.085 25.589c0 0 2.841 9.715 5.367 10.943 0 0 22.079-16.514 28.417-33.238z" transform="translate(-209.3 -577.961)" style="fill:url(#ogj7gl2erba)"/>
                <path data-name="Path 7672" d="m324.491 1442.8-.469 3.855a5.167 5.167 0 0 1-2.556 2.672 11.77 11.77 0 0 1-3.713.216c-.852-.09-1.693-2.367-1.433-3.184a14.044 14.044 0 0 1 2.586-5.037h4.277a1.318 1.318 0 0 1 1.308 1.478z" transform="translate(-95.437 -928.344)" style="fill:url(#40hhuatqgbb)"/>
                <path data-name="Path 7673" d="m440.776 1289.552.722 4.247s-2.418 24.487-2.848 34.282a7.675 7.675 0 0 0 1.136 4.362l4.2 6.826-10.683-6.3-.213-1.3 1.749-2.4-2.291-27.432a8.414 8.414 0 0 1 .958-4.655l2.21-4.151z" transform="translate(-178.223 -820.267)" style="fill:url(#9hchcfheubc)"/>
                <path data-name="Path 7674" d="M444.026 1440.619h-3.409a2.053 2.053 0 0 1-1.629-.8c-1.063-1.381-3.265-4.076-4.318-4.146-1.417-.095-1.236 4.944-1.236 4.944h-.794l-1.006-6.262a3.706 3.706 0 0 1 1.945-3.874 5.241 5.241 0 0 0 2.081 3.456c1.757 1.06 7.15 4.856 7.15 4.856a4.873 4.873 0 0 1 1.385.037.9.9 0 0 1-.169 1.789z" transform="translate(-177.556 -920.628)" style="fill:url(#vgs8iu13lbd)"/>
                <path data-name="Path 7675" d="M347.022 1292.192s-14.162 26.865-16.414 33a58.938 58.938 0 0 0-3.07 11.735c-.047.757-.989 1.483-3.585 1.483a2.49 2.49 0 0 1-2.317-1.057 1.514 1.514 0 0 1-.057-1.466c.819-1.658 3.419-6.956 4.382-9.359 1.15-2.869 3.622-15.872 4.978-20.393s2.889-9.425 8.8-13.942c-.004-.001 4.05-3.971 7.283-.001z" transform="translate(-99.101 -820.89)" style="fill:url(#rbyyrtpw0be)"/>
                <path data-name="Path 7676" d="M427.584 1063.514c3.653-15.481-5.6-24.236-5.6-24.236 5.84-5.605 16.479-8.156 16.479-8.156s10.153 7.423 8.948 13.232c-.706 3.405-7.136 20.4-7.136 20.4a14.129 14.129 0 0 1-12.691-1.24z" transform="translate(-170.716 -636.231)" style="fill:url(#ils0r5gxcbf)"/>
                <path data-name="Path 7677" d="M392.069 1151.309c1.487-4.479 8.1-7.664 8.1-7.664a14.129 14.129 0 0 0 12.69 1.236 25.445 25.445 0 0 1 .413 9.834c-.92 4.737-6.695 35.179-6.695 35.179-9.1 1.844-23.092-1.855-23.092-1.855 5.795-10.289 7.097-32.251 8.584-36.73z" transform="translate(-143.301 -716.362)" style="fill:url(#ao6xlgkh9bg)"/>
                <path data-name="Path 7678" d="m448.71 992.438-2.97 13.342c-.284 1.175.787.983 1.975.759 1.946-.367 4.453-1.122 5.292-2.636a1.438 1.438 0 0 0 .152-.5l1.276-9.252a1.662 1.662 0 0 0-.973-1.747L451 991.31a1.662 1.662 0 0 0-2.29 1.128z" transform="translate(-187.602 -607.778)" style="fill:url(#4ki1cbttybh)"/>
                <path data-name="Path 7679" d="M397.115 1059.454s-20.73 14.832-2.651 30.417a4.67 4.67 0 0 0 2.046 1.185 22.526 22.526 0 0 1 3.737 2.536.7.7 0 0 0 1.029-.185.962.962 0 0 0 .054-.921l-2.566-5.427a1.98 1.98 0 0 0-2.571-.111.976.976 0 0 1-1.481-.335c-1.4-2.846-4.037-11.218 6.765-20.678a1.171 1.171 0 0 0 .26-1.423c-.761-1.458-2.497-4.354-4.622-5.058z" transform="translate(-145.849 -656.407)" style="fill:url(#6nxalfmncbi)"/>
                <g data-name="Group 676">
                    <path data-name="Path 7680" d="M584.429 934.073c.019.474-1.752.706-2.2-1.333.2-.865.676-4.672 1.376-5.229a70.727 70.727 0 0 1 10.276-6.192 1.3 1.3 0 0 1-.317 1.788l-3.286 1.972a12.85 12.85 0 0 1 .692 3.362 3.718 3.718 0 0 1-1.076 2.544c-.67.688-1.569 1.574-2.373 2.24a3.672 3.672 0 0 1-3.092.848z" transform="translate(-284.831 -558.037)" style="fill:url(#b0746n1atbj)"/>
                    <path data-name="Path 7681" d="m590.281 942.451 1.268-1.771 2.872-1.344c.417.379.576.861-.174 1.566a27.821 27.821 0 0 0-2.512 4.423z" transform="translate(-290.567 -570.867)" style="fill:url(#hmgb7xkembk)"/>
                </g>
                <g data-name="Group 677">
                    <path data-name="Path 7682" d="M454.217 973.681s2.953 1.572 4.641 6.2-.054 6.531-2.037 6.636a9.2 9.2 0 0 1-7.746-3.344c-2.838-3.149 1.29-11.387 5.142-9.492z" transform="translate(-189.34 -595.126)" style="fill:url(#l80jb8a6gbl)"/>
                    <path data-name="Path 7683" d="M441.5 971.029s-1.733-6.7 4.027-6.257l1.269 1.068s2.434-3.408-.876-5.437a7.4 7.4 0 0 0-10.511 3.571c-1.894 4.535-1.3 7.627.951 10.081s3.491.012 3.491.012-1.148-2.209-.5-3.277 1.777.393 1.777.393z" transform="translate(-179.474 -585.169)" style="fill:url(#oy8u283bobm)"/>
                    <path data-name="Path 7684" d="M451.33 995.859s-.87-3.448-2.552-2.257.992 3.2 2.049 3.87z" transform="translate(-189.412 -609.334)" style="fill:url(#58wixefzzbn)"/>
                    <path data-name="Path 7685" d="M391.169 970.353s-10.063-5.792-14.413 5.089-6.4 14.219-8.644 11.662c0 0-.518 4.317 5.063 3.605 14.485-1.848 9.912-19.364 17.994-20.356z" transform="translate(-132.345 -591.859)" style="fill:url(#d6r0bak1qbo)"/>
                </g>
            </g>
        </g>
        <text data-name="VISA PACKAGES" transform="translate(151.316 200.5)" style="fill:#f9f9f9;font-size:12px;font-family:Orbitron-Medium,Orbitron;font-weight:500"><tspan x="-17.262" y="0">VISA</tspan><tspan x="-38.886" y="15">PACKAGES</tspan></text>
    </g>
</svg>
