<svg xmlns="http://www.w3.org/2000/svg" width="103.351" height="93.054" viewBox="0 0 103.351 93.054">
  <g id="home" transform="translate(-1006.325 -1409.289)">
    <g id="Group_96" data-name="Group 96" transform="translate(1051.694 1409.289)">
      <path id="Path_919" data-name="Path 919" d="M10.6,58.315h37.96a.856.856,0,0,0,.906-.906V28.419l1.9,1.721a3.721,3.721,0,0,0,4.983-5.526L32.075,2.508a3.7,3.7,0,0,0-4.8,0L17.4,11.477V6.948h1.54a.856.856,0,0,0,.906-.906.856.856,0,0,0-.906-.906H7.342a.856.856,0,0,0-.906.906.856.856,0,0,0,.906.906h1.54v12.23L2.9,24.614A3.721,3.721,0,0,0,7.885,30.14l1.9-1.721V45.541H7.342V43.911A.856.856,0,0,0,6.436,43a.856.856,0,0,0-.906.906v1.631H2.812V43.911A.856.856,0,0,0,1.906,43,.856.856,0,0,0,1,43.911V53.6a.856.856,0,0,0,.906.906.856.856,0,0,0,.906-.906V51.974H5.53V53.6a.856.856,0,0,0,.906.906.856.856,0,0,0,.906-.906V51.974H9.7v5.345A.992.992,0,0,0,10.6,58.315ZM30.716,56.5V37.3H42.493V56.5ZM10.6,6.948H15.5v6.161L10.6,17.547ZM6.617,28.781A1.892,1.892,0,1,1,4.08,25.973c2.537-2.265-9.06,8.154,24.37-22.105a1.7,1.7,0,0,1,2.356,0l24.37,22.105a1.892,1.892,0,1,1-2.537,2.808L30.263,8.488a.95.95,0,0,0-1.178,0C13.412,22.621,16.854,19.45,6.617,28.781ZM29.628,10.39l18.119,16.4V56.5H44.305V37.3h.544a.906.906,0,1,0,0-1.812H28.36a.906.906,0,1,0,0,1.812H28.9V56.5H11.509V26.788ZM2.812,50.162v-2.9H5.53v2.9Zm4.53,0v-2.9H9.7v2.9Z" transform="translate(-1 -1.625)" fill="#fff"/>
      <path id="Path_920" data-name="Path 920" d="M30.926,32.189a6.795,6.795,0,1,0-6.795-6.795A6.844,6.844,0,0,0,30.926,32.189ZM26.034,26.3H30.02v3.986A5.026,5.026,0,0,1,26.034,26.3Zm5.8,3.986V26.3h3.986A5.026,5.026,0,0,1,31.832,30.287Zm3.986-5.8H31.832V20.5A5.026,5.026,0,0,1,35.818,24.489ZM30.02,20.5v3.986H26.034A5.026,5.026,0,0,1,30.02,20.5ZM15.706,53.208H27.3a.856.856,0,0,0,.906-.906V42.064a.856.856,0,0,0-.906-.906h-11.6a.856.856,0,0,0-.906.906V52.211A.992.992,0,0,0,15.706,53.208Zm.906-5.073H20.6V51.4H16.612Zm5.8,3.261V48.134H26.4V51.4ZM26.4,46.322H22.41V43.061H26.4ZM20.6,42.97v3.261H16.612V42.97Zm13.5,3.171a.856.856,0,0,0-.906.906v1.812a.906.906,0,0,0,1.812,0V47.047A.974.974,0,0,0,34.1,46.141ZM56.2,60.093a.856.856,0,0,0,.906-.906V52.12a4.084,4.084,0,0,0,3.171-3.986c0-1.721-1.45-6.885-4.077-6.885s-4.077,5.164-4.077,6.885A4.162,4.162,0,0,0,55.3,52.12v7.066A.856.856,0,0,0,56.2,60.093ZM53.938,48.134c0-1.9,1.45-5.073,2.265-5.073s2.265,3.261,2.265,5.073a2.289,2.289,0,0,1-1.359,2.084V49.4a.906.906,0,1,0-1.812,0v.815A2.289,2.289,0,0,1,53.938,48.134Z" transform="translate(-2.298 -3.221)" fill="#fff"/>
    </g>
    <path id="Path_921" data-name="Path 921" d="M2.378,23.681A1.374,1.374,0,0,0,1,25.055V53.033a1.374,1.374,0,0,0,1.374,1.374H17.41a1.374,1.374,0,0,0,1.374-1.374V51.011L44.446,59.7q.053.016.107.027a11.484,11.484,0,0,0,9.039-1.442L80.167,43.848h.022l.651-.371a5.095,5.095,0,0,0-1.616-9.424v-.011a5.509,5.509,0,0,0-2.357.179,1.372,1.372,0,0,0-.135.058l-14.65,6.795a5.3,5.3,0,0,0,.06-.552,5.643,5.643,0,0,0-5.657-5.6h-12.2c-.049-.093-.11-.225-.159-.313a13.776,13.776,0,0,0-2.437-3.2,14.268,14.268,0,0,0-10.007-4.05h-12.9V25.055a1.374,1.374,0,0,0-1.374-1.374H2.378Zm1.374,2.748H16.036V51.659H3.752ZM18.781,30.11h12.9a11.488,11.488,0,0,1,9.471,4.915c.2.3.4.6.569.918a9.968,9.968,0,0,1,.478.9l.354.833h13.93a2.843,2.843,0,0,1,2.91,2.849,2.8,2.8,0,0,1-1.758,2.618l-.019.005a3.054,3.054,0,0,1-1.132.22H37.376v2.748H56.486a5.61,5.61,0,0,0,1.643-.275,1.374,1.374,0,0,0,.473-.118l19.172-8.891a2.7,2.7,0,0,1,1.052-.063c.591.082,1.154.247,1.665,1.448a2.245,2.245,0,0,1-1.006,2.866l-.643.357-26.671,14.5q-.058.032-.113.069a9.1,9.1,0,0,1-6.825,1.063h-.006L18.783,48.112v-18Z" transform="translate(1005.321 1442.257)" fill="#fff"/>
  </g>
</svg>
