<svg xmlns="http://www.w3.org/2000/svg" width="137.233" height="128.002" viewBox="0 0 137.233 128.002">
  <g id="improve" transform="translate(0.033 -1.6)">
    <path id="Path_933" data-name="Path 933" d="M36.156,107.956H6.475c-1.594,0-2.129,0-2.129-2.889V98.2a2.143,2.143,0,0,0-4.286,0v6.872a6.12,6.12,0,0,0,6.414,7.174h29.68a2.143,2.143,0,1,0,0-4.286ZM2.2,91.45a2.143,2.143,0,0,0,2.143-2.143V18.472l64.858.111V54.312a2.143,2.143,0,0,0,4.286,0V18.583a4.371,4.371,0,0,0-4.329-4.411h-63l9.8-8.286H78.251a3.429,3.429,0,0,1,3.429,3.429V52.8a2.143,2.143,0,0,0,4.286,0V9.314A7.714,7.714,0,0,0,78.251,1.6H15.181a2.14,2.14,0,0,0-1.383.506L1.07,12.889a3.189,3.189,0,0,0-.691,1.077,2.1,2.1,0,0,0-.317,1.063V89.316A2.143,2.143,0,0,0,2.2,91.45Z" transform="translate(0 0)" fill="#28236d"/>
    <path id="Path_934" data-name="Path 934" d="M66.093,49.516a2.143,2.143,0,0,0,2.143-2.143V10.256a6.383,6.383,0,0,0-6.363-6.374L8.312,3.77h0a2.143,2.143,0,0,0,0,4.286l53.564.111a2.091,2.091,0,0,1,2.086,2.089V47.374a2.143,2.143,0,0,0,2.131,2.143ZM95.607,90.311a2.143,2.143,0,0,0-2.143,2.143v17.817a2.571,2.571,0,0,1-.286,1.2c-1.206,2.3-6.92,9.812-29.778,9.812s-28.572-7.5-29.792-9.806a2.571,2.571,0,0,1-.286-1.2V93.363a2.143,2.143,0,0,0-4.286,0v16.909a6.9,6.9,0,0,0,.766,3.2c1.926,3.637,9.026,12.1,33.6,12.1s31.669-8.457,33.581-12.092a6.857,6.857,0,0,0,.771-3.2V92.454a2.143,2.143,0,0,0-2.146-2.143Z" transform="translate(11.518 4.03)" fill="#28236d"/>
    <path id="Path_935" data-name="Path 935" d="M127.673,40.019,70.981,21.082a2.092,2.092,0,0,0-1.334,0L5.786,41.557a2.146,2.146,0,0,0-.031,4.066L65.469,65.806a2.171,2.171,0,0,0,.686.114,2.146,2.146,0,0,0,.72-.126l43.832-15.652V60.428a7.206,7.206,0,0,0-5.123,6.874v4.32a7.223,7.223,0,1,0,14.446,0V67.3a7.212,7.212,0,0,0-5.037-6.857V48.611l12.717-4.54a2.143,2.143,0,0,0-.043-4.051Zm-11.94,31.6a2.937,2.937,0,0,1-5.874,0V67.3a2.937,2.937,0,1,1,5.874,0Zm-3.189-26.686L67.078,40.031a2.143,2.143,0,1,0-.457,4.26l36.655,3.954L66.132,61.514,13.292,43.651l57-18.286,50.146,16.752Z" transform="translate(8.067 35.979)" fill="#28236d"/>
  </g>
</svg>
