<svg xmlns="http://www.w3.org/2000/svg" width="96.993" height="90.887" viewBox="0 0 96.993 90.887">
  <g id="inadivisor" transform="translate(-1107.112 2981.475)">
    <path id="Path_1627" data-name="Path 1627" d="M1198.955-2827.413c-3.659,0-7.317.031-10.975-.007-3.488-.036-5.233-1.574-5.684-4.978-.38-2.872-.768-5.745-1.042-8.628a10.77,10.77,0,0,1,10.084-11.645,3.914,3.914,0,0,1,2.224.812c3.612,2.619,7.144,2.617,10.711.135a4.9,4.9,0,0,1,3.185-.794,10.644,10.644,0,0,1,9.173,12.15c-.351,2.737-.633,5.482-1.007,8.215-.415,3.029-2.217,4.673-5.28,4.723C1206.548-2827.367,1202.751-2827.414,1198.955-2827.413Zm-9.477-3.511c0-2.189.023-4.249-.008-6.306-.02-1.275.149-2.542,1.688-2.572,1.587-.031,1.709,1.261,1.693,2.523-.026,2.113-.007,4.227-.007,6.343H1205.1c0-1.9-.043-3.678.014-5.454.044-1.359-.53-3.346,1.615-3.384,2.121-.038,1.713,1.905,1.734,3.3.028,1.843.007,3.687.007,5.5,3.356.328,3.53.218,3.939-2.82.341-2.529.712-5.06.885-7.6a7.082,7.082,0,0,0-3.493-6.821,3.914,3.914,0,0,0-4.741-.068,10.643,10.643,0,0,1-12.106.033,4,4,0,0,0-4.917.111,7.086,7.086,0,0,0-3.365,6.879c.2,2.473.531,4.938.859,7.4C1185.945-2830.762,1186.063-2830.689,1189.478-2830.925Z" transform="translate(-43.365 -75.383)" fill="#060056"/>
    <path id="Path_1628" data-name="Path 1628" d="M1264.012-2854.145c0-2.133.012-4.266-.005-6.4-.01-1.236.328-2.341,1.725-2.352,1.431-.01,1.708,1.134,1.7,2.35-.011,2.13,0,4.259,0,6.525h12.194c0-2.111.019-4.226-.007-6.341-.015-1.272.141-2.54,1.721-2.514s1.691,1.3,1.671,2.567c-.033,2.059-.009,4.119-.009,6.139,3.083.609,3.613.263,3.979-2.564.319-2.464.638-4.93.864-7.4a7.2,7.2,0,0,0-3.216-6.971c-1.609-1.114-3.132-1.487-5.095-.212-3.777,2.454-7.842,2.356-11.794.218-2.615-1.415-4.549-1.277-6.463,1.027-.928,1.117-1.25,2.72-2.074,3.95-.443.661-1.371,1-2.08,1.478-.392-.707-1.148-1.431-1.116-2.118.213-4.578,5.706-9.358,10.293-9.009a4.3,4.3,0,0,1,1.976.963c3.41,2.49,7.088,2.431,10.559.014a4.9,4.9,0,0,1,3.18-.81,10.5,10.5,0,0,1,9.207,11.347c-.2,3.094-.629,6.18-1.092,9.248-.444,2.95-2.261,4.481-5.25,4.5-6.836.039-13.673.018-20.509.017-1.165,0-2.722.2-2.751-1.362-.016-.855,1.143-1.731,1.773-2.6Z" transform="translate(-87.139 -61.851)" fill="#060056"/>
    <path id="Path_1629" data-name="Path 1629" d="M1176.572-2793.413a14.811,14.811,0,0,1,.07-3.506c.182-.689,1.033-1.2,1.584-1.794.564.579,1.449,1.078,1.618,1.755a15.445,15.445,0,0,1,.073,3.575h27.426v-11.927q0-.932,0-1.866c0-1.156.331-2.121,1.68-2.149,1.371-.028,1.7.93,1.7,2.094q0,3.939,0,7.879c0,2.419-.028,4.838,0,7.256.021,1.574-.724,2.294-2.267,2.257-.345-.008-.691,0-1.037,0q-29.131,0-58.261,0c-3.193,0-3.362-.175-3.364-3.431,0-4.354-.012-8.708.007-13.062.006-1.271-.33-2.937,1.627-2.97,1.929-.033,1.735,1.58,1.737,2.892.007,4.279,0,8.557,0,13Z" transform="translate(-22.638 -100.751)" fill="#060056"/>
    <path id="Path_1630" data-name="Path 1630" d="M1115.356-2853.885c0-2.135.01-4.13,0-6.125-.009-1.263.122-2.507,1.755-2.469,1.484.034,1.639,1.2,1.629,2.392-.017,2,0,4,0,6.175h12.2c0-2.173.014-4.3-.005-6.417-.011-1.208.214-2.393,1.64-2.409,1.532-.017,1.8,1.2,1.788,2.5-.023,2.067-.006,4.135-.006,6.248.612.2,1.252.223,1.59.557a2.429,2.429,0,0,1,.849,1.667c-.081.512-.81.953-1.314,1.348-.179.14-.536.068-.811.068-7.118,0-14.237.036-21.355-.013a4.787,4.787,0,0,1-5.072-4.468c-.462-3.071-.889-6.16-1.095-9.256a10.551,10.551,0,0,1,9.4-11.412,4.383,4.383,0,0,1,2.83.712c3.769,2.647,7.167,2.656,10.9.023a4.441,4.441,0,0,1,2.822-.745,10.616,10.616,0,0,1,9.185,8.1c.25,1.155.548,2.506-1.062,2.892-1.564.375-1.73-.92-2.289-2.012a16.218,16.218,0,0,0-3.314-4.55c-1.31-1.2-2.889-1.265-4.694-.12a10.925,10.925,0,0,1-12.49-.172,3.3,3.3,0,0,0-3.466-.264,7.448,7.448,0,0,0-4.448,7.7c.256,2.4.542,4.8.842,7.2C1111.723-2853.782,1112.03-2853.556,1115.356-2853.885Z" transform="translate(0 -62.004)" fill="#060056"/>
    <path id="Path_1631" data-name="Path 1631" d="M1194.774-2977.355a13.378,13.378,0,0,1-3.116-1.043c-.557-.369-1.225-1.5-1.034-1.858a2.489,2.489,0,0,1,1.97-1.207,49.078,49.078,0,0,1,7.381,1.993,2.565,2.565,0,0,1,1.179,2.191,50.2,50.2,0,0,1-2.18,7.329c-.225.594-1.323.857-2.02,1.272-.385-.712-1.094-1.429-1.082-2.133a17.491,17.491,0,0,1,.933-3.73c-4.753,2.335-9.128,4.479-13.5,6.634-3.465,1.708-6.948,3.382-10.372,5.169a4.046,4.046,0,0,1-3.893.127q-7.266-3.265-14.642-6.281a5.29,5.29,0,0,0-3.125-.2c-5,1.312-9.952,2.833-14.96,4.128a3.073,3.073,0,0,1-2.654-.621c-.864-1.149-.007-2.086,1.222-2.44,5.767-1.662,11.536-3.319,17.334-4.864a4.367,4.367,0,0,1,2.561.408c4.9,2.056,9.751,4.214,14.65,6.267a3.181,3.181,0,0,0,2.271.2C1179.272-2969.663,1186.8-2973.413,1194.774-2977.355Z" transform="translate(-15.333)" fill="#060056"/>
    <path id="Path_1632" data-name="Path 1632" d="M1164.324-2944.095c.606.206,1.332.409,2.024.693,5.1,2.1,10.173,4.263,15.305,6.275a3.978,3.978,0,0,0,2.831-.089c4.929-2.315,9.79-4.774,14.675-7.183.494-.244,1.012-.7,1.487-.663a10.447,10.447,0,0,1,2.291.7c-.281.756-.347,1.93-.877,2.2q-8.91,4.6-17.973,8.907a3.943,3.943,0,0,1-2.732-.281c-4.864-1.944-9.717-3.922-14.51-6.032a7.613,7.613,0,0,0-5.373-.511,29.837,29.837,0,0,1-5.47,1.073,2.457,2.457,0,0,1-1.856-1.351c-.163-.4.6-1.638,1.132-1.778C1158.213-2942.9,1161.2-2943.442,1164.324-2944.095Z" transform="translate(-27.516 -21.31)" fill="#060056"/>
    <path id="Path_1633" data-name="Path 1633" d="M1127.008-2914.519a9.535,9.535,0,0,1,9.5-9.478,9.621,9.621,0,0,1,9.47,9.546,9.563,9.563,0,0,1-9.537,9.454A9.494,9.494,0,0,1,1127.008-2914.519Zm15.526-.091a6.107,6.107,0,0,0-6.134-5.979,6.178,6.178,0,0,0-6.016,6.128,6.2,6.2,0,0,0,6.061,6.089A6.118,6.118,0,0,0,1142.534-2914.61Z" transform="translate(-11.644 -33.639)" fill="#060056"/>
    <path id="Path_1634" data-name="Path 1634" d="M1294.313-2914.449a9.5,9.5,0,0,1-9.505,9.457,9.551,9.551,0,0,1-9.473-9.517,9.605,9.605,0,0,1,9.535-9.479A9.54,9.54,0,0,1,1294.313-2914.449Zm-9.474-6.134a6.1,6.1,0,0,0-6.06,6.059,6.138,6.138,0,0,0,5.967,6.162,6.2,6.2,0,0,0,6.186-6.171A6.172,6.172,0,0,0,1284.839-2920.583Z" transform="translate(-98.453 -33.645)" fill="#060056"/>
    <path id="Path_1635" data-name="Path 1635" d="M1210.528-2881.958a9.547,9.547,0,0,1-9.366-9.616,9.572,9.572,0,0,1,9.616-9.376,9.562,9.562,0,0,1,9.364,9.627A9.545,9.545,0,0,1,1210.528-2881.958Zm.224-15.592a6.218,6.218,0,0,0-6.211,5.951,6.215,6.215,0,0,0,6.118,6.255,6.219,6.219,0,0,0,6.106-6.058A6.2,6.2,0,0,0,1210.752-2897.55Z" transform="translate(-55.043 -47.127)" fill="#060056"/>
  </g>
</svg>
