<svg xmlns="http://www.w3.org/2000/svg" width="73.518" height="90.387" viewBox="0 0 73.518 90.387">
  <g id="incond" transform="translate(-4053.968 3812.406)">
    <path id="Path_1659" data-name="Path 1659" d="M4069.592-3802.325a2.132,2.132,0,0,0,.174-.327c.423-3.73.424-3.781,4.286-3.7,1.281.026,1.951-.2,2.394-1.594a6.644,6.644,0,0,1,6.6-4.458,6.956,6.956,0,0,1,6.518,4.649c.15.422.274.854.439,1.374,1.1,0,2.176,0,3.254,0,2.089.011,2.725.645,2.78,2.747.011.4.045.793.076,1.313,2.994,0,5.92,0,8.846,0,4.491.006,6.919,2.449,6.922,6.974q.006,12.669,0,25.339c0,.271.017.544-.01.812a1.868,1.868,0,0,1-1.78,1.88,1.75,1.75,0,0,1-2.114-1.612,27.844,27.844,0,0,1-.09-3.369q-.012-11.585-.013-23.171c0-2.175-.675-2.852-2.812-2.858-2.93-.009-5.859,0-9.024,0,0,.744.023,1.4,0,2.052a2.087,2.087,0,0,1-2.259,2.305q-10.84.032-21.68,0c-1.484,0-2.2-.782-2.258-2.288-.025-.623,0-1.247,0-1.924a4.489,4.489,0,0,0-.749-.148c-2.891-.009-5.782-.032-8.672,0a2.149,2.149,0,0,0-2.428,2.31c-.01,8.173.031,16.347.037,24.52,0,3.477-.05,6.953-.056,10.43q-.015,8.943,0,17.886c0,4.277.274,4.555,4.5,4.555h25.745a6.525,6.525,0,0,1,1.216.037,1.826,1.826,0,0,1,1.614,1.739,1.77,1.77,0,0,1-1.253,2.006,5.1,5.1,0,0,1-1.6.2q-13.685,0-27.371-.019c-4.295-.008-6.845-2.544-6.847-6.819,0-7.5.022-15,.021-22.493q0-15.577-.023-31.154c0-4.778,2.394-7.188,7.136-7.19Zm15.736-3.671a2.444,2.444,0,0,0-2.39-2.45,2.45,2.45,0,0,0-2.386,2.312,2.444,2.444,0,0,0,2.247,2.449A2.467,2.467,0,0,0,4085.328-3806Z" transform="translate(0)" fill="#060056"/>
    <path id="Path_1660" data-name="Path 1660" d="M4194.958-3631.551c6.856.443,13.172.291,17.7-5.913,4.482,6.173,10.821,6.378,17.189,5.944.188.214.3.279.3.344-.02,6.212.642,12.464-.858,18.6-2,8.178-6.715,14.138-14.489,17.6a4.847,4.847,0,0,1-4.258,0c-8.859-3.972-13.752-10.979-14.955-20.394C4194.909-3620.616,4195.141-3625.973,4194.958-3631.551Zm25.333,18.383v-5.2H4215.2v-4.946h-5.178v5.05h-4.98v5.1h5.051v5h5.189v-5.006Z" transform="translate(-102.781 -127.532)" fill="#060056"/>
    <path id="Path_1661" data-name="Path 1661" d="M4094.764-3651.274a7.057,7.057,0,0,1-1.289-.609c-1.143-.875-2.252-1.793-3.363-2.708a1.657,1.657,0,0,1-.431-2.488c.7-.922,1.629-.759,2.525-.213.038.023.07.057.107.082.845.561,1.71,1.583,2.528,1.547.755-.034,1.475-1.188,2.183-1.876,1-.972,1.965-1.981,2.967-2.953a1.682,1.682,0,0,1,2.521-.221c.879.781.817,1.745-.165,2.7q-3.138,3.051-6.331,6.047A5.807,5.807,0,0,1,4094.764-3651.274Z" transform="translate(-25.749 -110.237)" fill="#060056"/>
    <path id="Path_1662" data-name="Path 1662" d="M4095.231-3710.66c1.489-1.671,2.92-3.29,4.369-4.894a5.531,5.531,0,0,1,1-.9,1.609,1.609,0,0,1,2.3.277,1.485,1.485,0,0,1-.124,2.186q-3.273,3.219-6.606,6.376a1.771,1.771,0,0,1-2.467.064c-1.2-.942-2.369-1.938-3.518-2.947a1.523,1.523,0,0,1-.257-2.278,1.609,1.609,0,0,1,2.4-.257C4093.164-3712.425,4093.933-3711.73,4095.231-3710.66Z" transform="translate(-25.925 -69.687)" fill="#060056"/>
    <path id="Path_1663" data-name="Path 1663" d="M4095.268-3598.742c1.5-1.7,2.959-3.359,4.429-5a4.854,4.854,0,0,1,.9-.812,1.616,1.616,0,0,1,2.3.262,1.486,1.486,0,0,1-.1,2.189q-3.272,3.22-6.608,6.373a1.758,1.758,0,0,1-2.461.088c-1.208-.937-2.369-1.937-3.523-2.941a1.536,1.536,0,0,1-.279-2.28,1.608,1.608,0,0,1,2.4-.276C4093.164-3600.546,4093.928-3599.844,4095.268-3598.742Z" transform="translate(-25.933 -151.255)" fill="#060056"/>
    <path id="Path_1664" data-name="Path 1664" d="M4173.388-3647.177c2.479,0,4.958.013,7.437-.006a1.383,1.383,0,0,1,1.574,1.457,1.345,1.345,0,0,1-1.506,1.507q-7.5-.01-14.992.008a1.485,1.485,0,0,1-1.653-1.7c.043-1,.771-1.282,1.716-1.269,2.474.035,4.95.012,7.424.012Z" transform="translate(-80.391 -120.446)" fill="#060056"/>
    <path id="Path_1665" data-name="Path 1665" d="M4173.308-3700.168c-2.392,0-4.785-.018-7.177.006-1.069.011-1.829-.4-1.82-1.51.008-1.038.754-1.459,1.75-1.459q7.313,0,14.625.005c1,0,1.689.442,1.668,1.517s-.737,1.448-1.734,1.444C4178.183-3700.173,4175.745-3700.167,4173.308-3700.168Z" transform="translate(-80.439 -79.661)" fill="#060056"/>
    <path id="Path_1666" data-name="Path 1666" d="M4167.237-3591.194c.493,0,.988-.027,1.48,0a1.381,1.381,0,0,1,1.454,1.445,1.346,1.346,0,0,1-1.4,1.489c-1.029.051-2.064.049-3.094,0a1.361,1.361,0,0,1-1.4-1.5,1.393,1.393,0,0,1,1.473-1.434C4166.249-3591.212,4166.744-3591.193,4167.237-3591.194Z" transform="translate(-80.419 -161.253)" fill="#060056"/>
  </g>
</svg>
