<svg xmlns="http://www.w3.org/2000/svg" width="111.427" height="112.462" viewBox="0 0 111.427 112.462">
  <g id="Innovator" transform="translate(-81.388 545.212)">
    <path id="Path_992" data-name="Path 992" d="M135.271-545.212c3.208,1.112,4.172,3.323,4.143,6.707-.152,17.97-.1,35.942-.041,53.914.008,2.48-.852,4.116-3.179,5.047a4.234,4.234,0,0,0-2.182,1.842,5.73,5.73,0,0,1-5.3,2.738c-12.887-.073-25.775-.029-38.663-.038a5.332,5.332,0,0,1-5.666-5.592q-.015-27.72,0-55.441a5.493,5.493,0,0,1,5.12-5.63c8.666-1,17.358-1.585,26.066-2.083,5.208-.3,10.4-.865,15.626-.977.4-.008.866.064,1.02-.486Z" transform="translate(-0.978)" fill="#060056"/>
    <path id="Path_993" data-name="Path 993" d="M82.388-383.869c2.072-3.884,4.259-4.638,8.264-2.508a68.306,68.306,0,0,0,21.108,7.411,28.672,28.672,0,0,0,17.682-2.933c-2.634.467-5.252,1.095-7.905,1.362-4.082.411-8.275,1.019-11.572-2.466-2.843-3-1.91-6.373,2.044-7.512,7.729-2.226,15.292-5,23.155-6.8,4.283-.986,8.5-.312,12.722-.121,3.3.149,6.573.979,9.877,1.326,2.02.212,2.92,1.017,3.029,3.128.421,8.137.9,16.273,1.56,24.393.147,1.8.907,3.319-1.474,4.263a1.994,1.994,0,0,1-2.452-.414c-1.985-3.587-5.293-2.461-8.068-2.132-5.9.7-11.735,1.908-17.608,2.841-5.492.873-11,1.664-16.5,2.482a9.692,9.692,0,0,1-5.816-.931,184.484,184.484,0,0,1-22.825-12.7,14.85,14.85,0,0,1-5.223-6.649Z" transform="translate(0 -72.305)" fill="none" stroke="#060056" stroke-width="2"/>
    <path id="Path_994" data-name="Path 994" d="M251.784-361.08c-2.77-.264-3.4-1.042-3.582-3.712q-.934-13.409-2.027-26.806c-.327-4.008,1.664-5.95,5.03-5.76,4.939.278,9.875-.375,14.8-.86,2.186-.215,4.432,1.953,4.634,4.2.609,6.813,1.3,13.619,2.013,20.421.168,1.6-.546,3.3.508,4.8v6.614a2.139,2.139,0,0,1-2,1.268C264.7-361.022,258.239-360.714,251.784-361.08Z" transform="translate(-80.343 -72.114)" fill="#060056"/>
    <path id="Path_995" data-name="Path 995" d="M89.372-502.712q0-13.6,0-27.2c0-2.887.451-3.346,3.414-3.35q19.2-.019,38.4,0c3.1,0,3.481.407,3.482,3.537q0,27.077,0,54.155c0,3.344-.55,3.886-3.924,3.887q-18.818,0-37.636,0c-3.164,0-3.734-.587-3.736-3.819Q89.366-489.109,89.372-502.712Z" transform="translate(-3.426 -5.856)" fill="#fefefe"/>
    <path id="Path_996" data-name="Path 996" d="M138.371-539.74c3.142-.692,6.332-.527,9.521-.933,4.165-.53,8.406-.461,12.615-.639,2.486-.1,3.777.992,3.782,3.466q.044,27.589.029,55.179a3.7,3.7,0,0,1-.478,1.894c-.466.833-1.021,1.766-2.019,1.607-1.273-.2-.529-1.384-.531-2.058q-.073-26.19-.039-52.382c0-4.126-2.007-6.133-6.13-6.134Q146.746-539.743,138.371-539.74Z" transform="translate(-27.467 -1.91)" fill="#fefefe"/>
    <path id="Path_997" data-name="Path 997" d="M263.058-360.844c-2.879,0-5.759-.039-8.637.014-1.751.033-2.614-.639-2.692-2.478-.289-6.8-.505-13.608-1.076-20.385-.219-2.6-.393-5.179-.437-7.779-.017-1.017.094-1.86,1.4-1.94,5.275-.325,10.554-.615,15.822-1.038,2.61-.209,3.451,1.3,3.63,3.424.56,6.665.838,13.363,1.645,20,.321,2.638.011,5.339.854,7.946.441,1.364.053,2.39-1.873,2.28C268.823-360.965,265.937-360.844,263.058-360.844Z" transform="translate(-82.343 -73.961)" fill="#fefefe"/>
    <path id="Path_998" data-name="Path 998" d="M119.831-485.094c-7.759-.285-14.342-6.31-14.283-14.367.06-8.392,6.2-14.473,14.41-14.476,8.273,0,14.359,6.184,14.41,14.468C134.419-491.265,127.627-485.218,119.831-485.094Z" transform="translate(-11.363 -15.345)" fill="#060056"/>
    <path id="Path_999" data-name="Path 999" d="M116.77-437.334c-5.242,0-10.484.011-15.725-.012-.741,0-1.773.412-1.725-1.078.043-1.314.954-.934,1.608-.935q15.978-.029,31.958,0c.657,0,1.563-.369,1.6.945.039,1.5-1,1.064-1.733,1.067C127.423-437.323,122.1-437.334,116.77-437.334Z" transform="translate(-8.307 -51.911)" fill="#060056"/>
    <path id="Path_1000" data-name="Path 1000" d="M266.477-344.679c-3.327-.023-5.3-2.216-5.26-5.829.044-3.492,2.362-6.047,5.626-5.854,3.527.208,5.341,2.27,5.53,6.022C272.537-347.086,269.452-344.074,266.477-344.679Z" transform="translate(-87.74 -92.652)" fill="#060056"/>
    <path id="Path_1001" data-name="Path 1001" d="M127.482-466.738c-2.213-.4-3.843-.731-4.465-3.1-.96-3.659-1.144-3.56,2.8-3.53,1.3.01,1.8.312,1.7,1.677C127.39-470.1,127.482-468.486,127.482-466.738Z" transform="translate(-19.65 -35.245)" fill="#fdfdfd"/>
    <path id="Path_1002" data-name="Path 1002" d="M135.316-466.847c0-1.85.053-3.608-.02-5.361-.043-1.032.394-1.481,1.314-1.218,1.249.357,3.051-1.055,3.724.755.623,1.674-1.738,5.021-3.4,5.349a7.1,7.1,0,0,0-.692.272C136.009-466.98,135.768-466.945,135.316-466.847Z" transform="translate(-25.957 -35.127)" fill="#fdfdfd"/>
    <path id="Path_1003" data-name="Path 1003" d="M123.5-480.956c-2.372.554-3.258-.49-3.211-2.89.061-3.1,2.292-1.244,3.477-1.57,1.785-.492,2.741-.034,2.777,2.329C126.581-480.39,125.134-480.8,123.5-480.956Z" transform="translate(-18.593 -29.211)" fill="#fefefe"/>
    <path id="Path_1004" data-name="Path 1004" d="M137.9-480.8c-2.782,0-3.474-.978-2.822-3.791.153-.659.444-.8,1-.79a8.388,8.388,0,0,1,2.017.032c1.142.316,3.256-1.224,3.137,1.675C141.12-480.96,141.042-480.8,137.9-480.8Z" transform="translate(-25.738 -29.308)" fill="#fefefe"/>
    <path id="Path_1005" data-name="Path 1005" d="M123.112-492.718c-.711-.692-2.777,1.289-2.778-1.377,0-2.719.522-3.113,3.483-3.27,1.937-.1,2.673.2,2.742,2.471C126.652-491.823,124.691-492.936,123.112-492.718Z" transform="translate(-18.618 -23.468)" fill="#fefefe"/>
    <path id="Path_1006" data-name="Path 1006" d="M138.255-492.917c-2.112.4-3.6.081-3.023-2.558.144-.663-.5-1.817.543-1.907,1.645-.142,3.626-.712,4.883.292a3.6,3.6,0,0,1,.564,3.758C140.652-492.3,139.222-493.122,138.255-492.917Z" transform="translate(-25.867 -23.326)" fill="#fefefe"/>
    <path id="Path_1007" data-name="Path 1007" d="M122.562-505.488c1.316-4.686,1.316-4.686,4.819-5.012C127.588-504.292,128.65-505.154,122.562-505.488Z" transform="translate(-19.711 -17.031)" fill="#fdfdfd"/>
    <path id="Path_1008" data-name="Path 1008" d="M140.379-505.217c-5.134.288-5.134.288-4.981-4.841C138.862-510.3,138.862-510.3,140.379-505.217Z" transform="translate(-25.988 -17.209)" fill="#fdfdfd"/>
    <path id="Path_1009" data-name="Path 1009" d="M113.662-481.163c-2.885.648-4.851.459-4.878-2.853-.006-.7-.717-1.733.612-1.42,1.215.287,3.176-1.455,3.634,1.083C113.219-483.3,112.842-482.154,113.662-481.163Z" transform="translate(-12.855 -29.172)" fill="#fdfdfd"/>
    <path id="Path_1010" data-name="Path 1010" d="M154.291-485.321c-1.077,5.246-.209,4.528-5.088,4.243,1.1-1.317-.168-3.322.948-4.16C151.135-485.977,152.879-485.56,154.291-485.321Z" transform="translate(-32.782 -29.22)" fill="#fdfdfd"/>
    <path id="Path_1011" data-name="Path 1011" d="M109.012-492.834c.484-4.045.988-4.662,3.514-4.478.676.049,1.326-.094,1.234,1C113.446-492.582,113.476-492.579,109.012-492.834Z" transform="translate(-13.063 -23.488)" fill="#fdfdfd"/>
    <path id="Path_1012" data-name="Path 1012" d="M153.873-492.723c-.487,0-.982,0-1.476,0a3.285,3.285,0,0,1-3.145-4.015c.172-.753.725-.585,1.161-.549,1,.08,2.264-.519,2.787.931A7.817,7.817,0,0,1,153.873-492.723Z" transform="translate(-32.766 -23.486)" fill="#fcfcfc"/>
    <path id="Path_1013" data-name="Path 1013" d="M147.208-468.563c.321-4.6.491-4.777,4.135-4.594C150.507-471.213,148.918-470.1,147.208-468.563Z" transform="translate(-31.803 -35.331)" fill="#f9f9f9"/>
    <path id="Path_1014" data-name="Path 1014" d="M116.25-468.648a19.4,19.4,0,0,1-4.061-4.265C115.793-473.474,116.222-473.041,116.25-468.648Z" transform="translate(-14.622 -35.377)" fill="#f9f9f9"/>
    <path id="Path_1015" data-name="Path 1015" d="M116.817-506.409c.071,2.46-.678,3.736-3.512,2.944C114.465-504.511,115.171-505.834,116.817-506.409Z" transform="translate(-15.169 -19.038)" fill="#fdfdfd"/>
    <path id="Path_1016" data-name="Path 1016" d="M147.493-507.576l2.909,3.665C148.2-503.261,147.357-504.438,147.493-507.576Z" transform="translate(-31.936 -18.466)" fill="#fdfdfd"/>
  </g>
</svg>
