<svg xmlns="http://www.w3.org/2000/svg" width="128.586" height="90.887" viewBox="0 0 128.586 90.887">
  <g id="inreg" transform="translate(-2171.169 3073.821)">
    <path id="Path_1636" data-name="Path 1636" d="M2290.394-2963.877a14.934,14.934,0,0,1-1.945-.159,2.673,2.673,0,0,1-1.508-.62c-.975-1.277-2.32-1.119-3.616-1.12q-12.754-.012-25.507.02-14.557.014-29.115.02-15.144-.012-30.288-.076c-.941,0-2.247.278-2.25-1.2,0-1.5,1.313-1.178,2.246-1.179q30.844-.022,61.689-.017,12.037,0,24.073.021c.342,0,.684-.04,1.235-.075,0-1.447,0-2.89,0-4.333-.014-4.34-.043-8.68-.043-13.02a8.851,8.851,0,0,1,6.68-8.71,24.115,24.115,0,0,1,13.844.1,8.371,8.371,0,0,1,6.183,8.229c.024,6.1.011,12.2,0,18.305a3.425,3.425,0,0,1-3.489,3.651c-1.206.017-1.4.559-1.431,1.579q-.322,12.5-.71,25c-.069,2.34-1.3,3.576-3.6,3.656s-3.435-.955-3.486-3.283c-.175-8.076-.323-16.153-.486-24.229-.012-.575-.068-1.149-.1-1.724l-.353-.009c-.028.426-.076.851-.081,1.276q-.117,12.181-.228,24.362c-.028,2.763-1.36,3.916-4.081,3.567-1.923-.247-2.968-1.478-3.023-3.686-.13-5.2-.229-10.4-.335-15.593-.066-3.222-.12-6.444-.186-9.666C2290.473-2963.121,2290.428-2963.455,2290.394-2963.877Z" transform="translate(-18.55 -58.283)" fill="#060056"/>
    <path id="Path_1637" data-name="Path 1637" d="M2235.535-2728.788h-62.516c-.912,0-2.119-.9-1.8-1.368a2.591,2.591,0,0,1,1.773-1.1q61.421-.066,122.841-.027c.73,0,1.46-.023,2.191-.024.922,0,1.772.421,1.676,1.323-.048.455-1.032,1.05-1.661,1.151a22.359,22.359,0,0,1-3.471.026q-29.518,0-59.036,0Z" transform="translate(0 -254.191)" fill="#060056"/>
    <path id="Path_1638" data-name="Path 1638" d="M2235.836-2748.012q-30.674,0-61.348,0c-.386,0-.774,0-1.158.037a1.456,1.456,0,0,1-1.777-1.276c-.042-.971.865-1.243,1.76-1.224.429.009.859.029,1.288.029q61.155,0,122.31,0c.472,0,.944-.027,1.417-.035.934-.016,1.734.41,1.711,1.33-.02.842-.808,1.233-1.7,1.184-.514-.028-1.03-.044-1.545-.044Q2266.317-2748.013,2235.836-2748.012Z" transform="translate(-0.284 -239.959)" fill="#060056"/>
    <path id="Path_1639" data-name="Path 1639" d="M2570.913-3056.343a8.574,8.574,0,0,1-8.375-8.674,8.635,8.635,0,0,1,8.814-8.8,8.678,8.678,0,0,1,8.589,8.9C2579.927-3060.03,2576.033-3056.331,2570.913-3056.343Z" transform="translate(-290.446 0)" fill="#060056"/>
    <path id="Path_1640" data-name="Path 1640" d="M2358.982-2978.9c.122-2.226.123-4.124.345-6a14.026,14.026,0,0,1,13.428-12.289c1.244-.042,2.491-.056,3.736-.031a14.148,14.148,0,0,1,14.158,13.695c.154,3.084.1,6.179.138,9.268.01.875-.1,1.694-1.263,1.683-1.066-.011-1.2-.732-1.2-1.593-.006-2.749-.022-5.5-.07-8.246-.12-7.021-4.613-11.783-11.612-12.331-4.152-.325-8.065.145-11.264,3.21a11.8,11.8,0,0,0-3.852,8.825c0,2.62.056,5.24.021,7.859-.012.949.363,2.239-1.255,2.333-.95.055-1.323-.673-1.313-2.345C2358.989-2976.317,2358.982-2977.777,2358.982-2978.9Z" transform="translate(-139.38 -56.841)" fill="#060056"/>
    <path id="Path_1641" data-name="Path 1641" d="M2335.05-2815.461q13.592,0,27.184,0a3.852,3.852,0,0,1,1.526.066c.451.212,1.041.754,1.033,1.142s-.608.873-1.052,1.148c-.283.176-.753.058-1.139.058q-27.635,0-55.27,0c-.386,0-.871.117-1.136-.069a2.132,2.132,0,0,1-.963-1.228c-.029-.335.567-.8.977-1.067.245-.158.669-.044,1.012-.044h27.828Z" transform="translate(-99.492 -191.703)" fill="#060056"/>
    <path id="Path_1642" data-name="Path 1642" d="M2335.143-2844.676h27.566c.129,0,.286-.052.382,0,.615.357,1.4.612,1.765,1.148.313.462-.9,1.329-1.827,1.329l-55.517-.021c-.129,0-.258,0-.386.006-.922.045-1.761-.258-1.717-1.259.042-.935.831-1.251,1.783-1.248q13.976.031,27.952.012Z" transform="translate(-99.621 -170.023)" fill="#060056"/>
    <path id="Path_1643" data-name="Path 1643" d="M2216.18-2955.561c.2,1.006.387,1.916.574,2.824.45,2.186.913,4.369,1.343,6.558a2.924,2.924,0,0,1,.074,1.508c-.19.475-.716.816-1.1,1.215-.351-.366-.885-.677-1.019-1.11-.378-1.226-.6-2.5-.87-3.76-.565-2.6-1.144-5.2-1.681-7.8-.316-1.536.052-2.008,1.585-2.013,6.354-.02,12.709,0,19.064-.027a1.8,1.8,0,0,1,2,1.713q.973,5.449,2,10.889c.159.853.1,1.6-.9,1.813-.953.2-1.3-.484-1.448-1.258-.587-3.076-1.172-6.153-1.713-9.237-.174-.99-.579-1.525-1.673-1.516-4.98.042-9.961.038-14.941.06C2217.11-2955.7,2216.734-2955.625,2216.18-2955.561Z" transform="translate(-31.342 -85.828)" fill="#060056"/>
    <path id="Path_1644" data-name="Path 1644" d="M2400.149-3043.928a7.13,7.13,0,0,1-7.174-7.214,7.172,7.172,0,0,1,7.122-7.022,7.056,7.056,0,0,1,7.117,6.98A6.967,6.967,0,0,1,2400.149-3043.928Zm-4.669-7.037a4.7,4.7,0,0,0,4.739,4.6,4.689,4.689,0,0,0,4.539-4.672,4.618,4.618,0,0,0-4.661-4.653A4.69,4.69,0,0,0,2395.479-3050.965Z" transform="translate(-164.608 -11.619)" fill="#060056"/>
    <path id="Path_1645" data-name="Path 1645" d="M2224.917-2856.969q0-5.918,0-11.837c0-.386-.121-.859.057-1.137a7.456,7.456,0,0,1,1.2-1.21,7.771,7.771,0,0,1,1.165,1.258c.172.287.052.753.052,1.139,0,7.934.011,15.868-.013,23.8,0,.917.329,2.232-1.18,2.252-1.6.021-1.261-1.34-1.269-2.3C2224.9-2848.992,2224.917-2852.98,2224.917-2856.969Z" transform="translate(-39.859 -150.405)" fill="#060056"/>
    <path id="Path_1646" data-name="Path 1646" d="M2384.466-2946.525q0,2.514,0,5.028c0,.8-.178,1.5-1.168,1.5s-1.341-.644-1.335-1.532c.021-3.479.044-6.959.092-10.438.011-.774.195-1.5,1.214-1.464.961.031,1.217.674,1.221,1.487.01,1.8,0,3.61,0,5.415Z" transform="translate(-156.436 -89.347)" fill="#060056"/>
    <path id="Path_1647" data-name="Path 1647" d="M2449.656-2946.724c0-1.712-.011-3.424,0-5.135.008-.821.152-1.6,1.227-1.583,1.006.013,1.125.741,1.135,1.521q.064,5.067.119,10.134c0,.255.07.606-.065.749-.369.388-.8.9-1.263.975a1.015,1.015,0,0,1-1.214-1.14c.008-1.84,0-3.68,0-5.519Z" transform="translate(-206.632 -89.335)" fill="#060056"/>
    <path id="Path_1648" data-name="Path 1648" d="M2258.287-2929.324c2.568-.38,2.7-.268,2.945,2.5C2259.021-2926.073,2258.727-2926.315,2258.287-2929.324Z" transform="translate(-64.653 -107.116)" fill="#060056"/>
  </g>
</svg>
