<svg xmlns="http://www.w3.org/2000/svg" width="126.334" height="128.002" viewBox="0 0 126.334 128.002">
  <g id="inter" transform="translate(-0.37)">
    <path id="Path_1114" data-name="Path 1114" d="M29.028,14.917a24.378,24.378,0,1,0,34.468,0,24.378,24.378,0,0,0-34.468,0ZM60.759,46.648a20.5,20.5,0,1,1,0-28.993,20.5,20.5,0,0,1,0,28.993Z" transform="translate(21.475 7.782)" fill="#28236d"/>
    <path id="Path_1115" data-name="Path 1115" d="M123.916,81.4h0l-17.5-16.5V11.869a2,2,0,0,0-2-2H92.745V2a2,2,0,0,0-2-2H2.368a2,2,0,0,0-2,2V116.013a2,2,0,0,0,2,2H14.057V126a2,2,0,0,0,2,2h88.4a2,2,0,0,0,2-2V91.036l4,3.856a9.511,9.511,0,0,0,6.734,2.8,9.331,9.331,0,0,0,6.534-2.658,9.55,9.55,0,0,0,.939-1.079,9.411,9.411,0,0,0-.739-12.548ZM92.745,17.983V13.807h9.771V61.2l-.659-.619a2,2,0,0,0-2.7,0l-.559.54-3.277-3.177a32.87,32.87,0,0,0-2.678-39.5,2.379,2.379,0,0,0,.1-.46Zm3.117,45.958-4.136,4.136L88.848,65.2a25.262,25.262,0,0,0,2.178-2c.7-.739,1.339-1.439,2-2.178ZM96.8,39.963a29.033,29.033,0,1,1-8.512-20.581A29.033,29.033,0,0,1,96.8,39.963ZM4.306,114.075V3.876H88.868v10.83a32.829,32.829,0,1,0-3.157,52.811l3.277,3.277-.559.539a1.932,1.932,0,0,0,.04,2.8l.4.36v39.583Zm98.209,9.991H17.934v-6.174H90.807a2,2,0,0,0,2-2V77.928l9.771,9.231ZM121.658,91.6a8.532,8.532,0,0,1-.739.819,5.535,5.535,0,0,1-7.753-.24L92.585,72.733l7.993-7.993L103.1,67.1l18.123,17.1a5.575,5.575,0,0,1,.44,7.333Z" transform="translate(0)" fill="#28236d"/>
    <path id="Path_1116" data-name="Path 1116" d="M63.967,38.51H11a2,2,0,0,0,0,3.876H63.967a2,2,0,0,0,0-3.876Zm0,11.509H11A2,2,0,0,0,11,53.9H63.967a2,2,0,0,0,0-3.876Zm0,11.449H11a2,2,0,0,0,0,3.876H63.967a2,2,0,0,0,0-3.876Z" transform="translate(9.096 38.439)" fill="#28236d"/>
  </g>
</svg>
