<svg xmlns="http://www.w3.org/2000/svg" width="110.766" height="84.182" viewBox="0 0 110.766 84.182">
  <path id="language" d="M109.4,49.389c-3.456-9.454-13.1-15.1-25.814-15.1-.5,0-.975.011-1.451.033L82.043,22.9l19.522-3.362c.637-.105.737-.659.6-1.279s-.925-4.89-1.041-5.405c-.15-.726-.565-.7-1.146-.6s-18,2.553-18,2.553L81.91,3.294c-.006-.692-.382-.875-1.074-.864l-5.677.089c-.582.011-.908.271-.9.82l.183,12.777s-16.953,2.919-17.412,3.007-.942.294-.836.792,1.052,6.059,1.152,6.491.4.714,1.041.593l16.194-2.791.194,11.176A26.068,26.068,0,0,0,62.283,42.6,24.093,24.093,0,0,0,55.6,59.009c0,8.784,5.378,14.006,12.893,14.926C86,76.078,96.841,56.988,100.441,47.822c6.075,8.341,1.418,24.113-11.6,33.119a.822.822,0,0,0-.183,1.146l3.428,4.187a1.07,1.07,0,0,0,1.418.127c13.9-9.581,20.275-25.005,15.889-37.012ZM68.491,67.045c-5.35-.67-5.228-5.062-5.228-8.047A17.578,17.578,0,0,1,74.921,42.632l.454,23.687A15.358,15.358,0,0,1,68.491,67.045Zm13.441-3.063.255-22.757c.465-.022.919-.055,1.4-.055,4.281,0,8.274.8,10.44,2s-5.666,15.025-12.09,20.813ZM32.365,21.515a1.085,1.085,0,0,0-1.085-.8H20.48a1.074,1.074,0,0,0-1.074.8L.044,82.657c-.094.282-.061.421.343.421h9.6c.415,0,.548-.127.631-.4L16.2,64.3H35.561l5.583,18.376c.089.271.216.4.626.4h9.6c.4,0,.432-.138.343-.421S34.641,28.709,32.365,21.515Zm-14.5,34.991L25.88,27.43l8.014,29.076H17.866Z" transform="translate(0 -2.43)" fill="#fff"/>
</svg>
