<svg xmlns="http://www.w3.org/2000/svg" width="87.774" height="87.791" viewBox="0 0 87.774 87.791">
    <g data-name="Group 690">
        <path data-name="Path 330" d="m1547.487-70.61-3.515-.632v-35.323a5.261 5.261 0 0 1 5.45-5.488q25.522-.012 51.045 0a5.213 5.213 0 0 1 5.253 5.319q.022 19.254.012 38.509v36.93a5.238 5.238 0 0 1-4.325 5.472 6.413 6.413 0 0 1-1.22.094q-24.47.007-48.94 0h-.59l-.044-.133.635-.349a23.174 23.174 0 0 0 3.332-1.915 5.652 5.652 0 0 1 3.87-1.144q20.744.053 41.488.021c1.7 0 2.276-.57 2.276-2.244v-74.912c0-1.5-.62-2.135-2.126-2.135h-50.518c-1.463 0-2.078.643-2.079 2.186q-.007 17.368 0 34.737z" transform="translate(-1517.959 112.055)" style="fill:#29246e"/>
        <path data-name="Path 331" d="M1404.256 151.326a21.924 21.924 0 0 1 23.048-21.284c11.828.46 21.208 10.81 20.734 22.879a21.97 21.97 0 0 1-22.458 20.911c-12.222-.49-21.773-10.569-21.324-22.506zm21.854-14.561a15.15 15.15 0 1 0 15.2 14.874 15.138 15.138 0 0 0-15.2-14.874z" transform="translate(-1402.739 -87.56)" style="fill:none;stroke:#29246e;stroke-width:3px"/>
        <path data-name="Path 332" d="M1644.577-6.254h-40.216V-9.7h40.216z" transform="translate(-1567.755 27.652)" style="fill:#29246e"/>
        <path data-name="Path 333" d="M1644.623 40.332v3.413h-40.245v-3.413z" transform="translate(-1567.769 -13.601)" style="fill:#29246e"/>
        <path data-name="Path 334" d="M1644.634 90.338v3.413h-40.246v-3.413z" transform="translate(-1567.777 -54.835)" style="fill:#29246e"/>
        <path data-name="Path 335" d="m1482.568 218.067 6.246-10.812c.234-.4.46-.814.711-1.208a2.134 2.134 0 0 1 2.9-.8 2.219 2.219 0 0 1 .934 2.949c-.378.755-.842 1.468-1.279 2.194q-4.227 7.019-8.46 14.034c-.117.194-.251.377-.443.663-.867-1.077-1.687-2.088-2.5-3.105q-2.871-3.6-5.735-7.2a2.267 2.267 0 0 1 .264-3.4c1.107-.8 2.338-.517 3.223.75 1.349 1.934 2.701 3.868 4.139 5.935z" transform="translate(-1460.51 -149.358)" style="fill:#29246e"/>
    </g>
</svg>
