<svg xmlns="http://www.w3.org/2000/svg" width="51" height="51" viewBox="0 0 51 51">
  <g id="Group_326" data-name="Group 326" transform="translate(-1613 -7311.7)">
    <circle id="Ellipse_3" data-name="Ellipse 3" cx="25.5" cy="25.5" r="25.5" transform="translate(1613 7311.7)" fill="#ee0324"/>
    <path id="Icon_ionic-logo-linkedin" data-name="Icon ionic-logo-linkedin" d="M28.612,4.5H6.739A2.138,2.138,0,0,0,4.5,6.541V28.462a2.306,2.306,0,0,0,2.239,2.246H28.605a2.189,2.189,0,0,0,2.1-2.246V6.541A2.01,2.01,0,0,0,28.612,4.5ZM12.624,26.346H8.869V14.672h3.755ZM10.876,12.9h-.027a1.927,1.927,0,0,1-1.98-2.014A1.939,1.939,0,0,1,10.9,8.869,1.934,1.934,0,0,1,12.9,10.883,1.939,1.939,0,0,1,10.876,12.9ZM26.346,26.346H22.591V19.963c0-1.529-.546-2.574-1.9-2.574a2.054,2.054,0,0,0-1.925,1.386,2.528,2.528,0,0,0-.13.922v6.649H14.877V14.672h3.755V16.3a3.8,3.8,0,0,1,3.386-1.9c2.464,0,4.328,1.625,4.328,5.127Z" transform="translate(1620.5 7319.2)" fill="#fff"/>
  </g>
</svg>
