<svg id="Layer_1" data-name="Layer 1" xmlns="http://www.w3.org/2000/svg" viewBox="0 0 380 362.58"><defs><style>.cls-1{fill:#ef0325;}.cls-2{fill:#060056;}</style></defs><path class="cls-1" d="M98.1,347.58h81.59v-89A264.57,264.57,0,0,1,98.1,284.72Z"/><path class="cls-1" d="M179.69,15,98.1,96.58V201.36a307.68,307.68,0,0,0,81.59-16.66V96.58h31.47L340.37,15Z"/><path class="cls-2" d="M15.72,196l-.16,0Z"/><path class="cls-2" d="M15.37,195.92Z"/><path class="cls-2" d="M251.47,91.61l30.77,8.85c19.2-11.65,59.92-49.06,59.92-49.06s-50.54,92.61-162.47,132A307.68,307.68,0,0,1,98.1,200.1,361.26,361.26,0,0,1,15.72,196l57.09,65.19S204.24,269.59,322,114.25h0l41.38,10.63L364.85,20Z"/></svg>