<svg xmlns="http://www.w3.org/2000/svg" width="124.405" height="67.658" viewBox="0 0 124.405 67.658">
  <g id="lower" transform="translate(-0.5 -30.478)">
    <path id="Path_987" data-name="Path 987" d="M17.154,22.4H.5V74.445H98.136V22.4H17.154ZM4.664,26.564h8.119a10.485,10.485,0,0,1-8.119,8.119Zm0,43.926V62.37a10.485,10.485,0,0,1,8.119,8.119Zm89.517,0H86.061A10.485,10.485,0,0,1,94.18,62.37Zm0-43.926v8.119a10.485,10.485,0,0,1-8.119-8.119Zm0,12.491V58.207A14.353,14.353,0,0,0,81.9,70.489H16.946A14.143,14.143,0,0,0,4.664,58.207V39.054A14.353,14.353,0,0,0,16.946,26.772H81.69A15.035,15.035,0,0,0,94.18,39.054Z" transform="translate(0 23.691)" fill="#060056"/>
    <path id="Path_988" data-name="Path 988" d="M40.443,58.727A15.613,15.613,0,1,0,24.83,43.113,15.727,15.727,0,0,0,40.443,58.727Zm0-27.271a11.551,11.551,0,0,1,11.45,11.45,11.733,11.733,0,0,1-11.45,11.658,11.551,11.551,0,0,1-11.45-11.45A11.733,11.733,0,0,1,40.443,31.455Zm27.9,15.2a3.693,3.693,0,0,0,3.747-3.539,3.561,3.561,0,0,0-3.747-3.539A3.388,3.388,0,0,0,64.8,43.113,3.648,3.648,0,0,0,68.339,46.652Zm-55.792,0a3.693,3.693,0,0,0,3.747-3.539,3.561,3.561,0,0,0-3.747-3.539,3.545,3.545,0,1,0,0,7.078Z" transform="translate(8.979 29.208)" fill="#060056"/>
    <rect id="Rectangle_57" data-name="Rectangle 57" width="93.68" height="4.164" transform="translate(2.582 38.388)" fill="#060056"/>
    <rect id="Rectangle_58" data-name="Rectangle 58" width="89.517" height="4.164" transform="translate(4.664 30.478)" fill="#060056"/>
    <path id="Path_990" data-name="Path 990" d="M33.078.5V18.4L28.915,14.24,26,17.154l9.16,9.16,9.16-9.16L41.405,14.24,37.242,18.4V.5Z" transform="translate(80.586 50)" fill="#060056"/>
  </g>
</svg>
