<svg xmlns="http://www.w3.org/2000/svg" width="97.528" height="97.528" viewBox="0 0 97.528 97.528">
  <path id="medical" d="M62.305,8A14.441,14.441,0,0,0,47.9,22.408c0,8.113,4.739,16.4,9.906,22.857a55.447,55.447,0,0,0,7.731,8,24.373,24.373,0,0,0,3.429,2.425,5.633,5.633,0,0,0,6.632,0,24.011,24.011,0,0,0,3.429-2.425,55.566,55.566,0,0,0,7.731-8c5.169-6.459,9.908-14.744,9.908-22.857A14.443,14.443,0,0,0,82.256,8a14.155,14.155,0,0,0-9.974,4.542A14.176,14.176,0,0,0,62.305,8Zm0,4.433a9.968,9.968,0,0,1,8.161,4.238,2.217,2.217,0,0,0,3.626,0,9.975,9.975,0,0,1,18.136,5.736c0,6.295-4.129,14.079-8.935,20.089A51.726,51.726,0,0,1,76.2,49.842a20.48,20.48,0,0,1-2.786,1.986c-.745.421-1.319.5-1.135.5s-.39-.082-1.135-.5a20.481,20.481,0,0,1-2.788-1.986A51.847,51.847,0,0,1,61.266,42.5C56.46,36.487,52.333,28.7,52.333,22.408a9.94,9.94,0,0,1,9.974-9.974ZM34.63,56.764a2.217,2.217,0,0,0-2.013,1.226L22.148,78.929H10.217a2.217,2.217,0,1,0,0,4.433h13.3A2.217,2.217,0,0,0,25.5,82.137l9.1-18.2L54.782,104.3a2.217,2.217,0,0,0,3.965,0L72.28,77.238,79.164,91a2.217,2.217,0,0,0,3.562.563l8.075-8.2h12.51a2.217,2.217,0,0,0,0-4.433H89.875a2.216,2.216,0,0,0-1.58.662l-6.55,6.652L74.264,71.287a2.217,2.217,0,0,0-3.968,0L56.764,98.353,36.582,57.99A2.217,2.217,0,0,0,34.63,56.764Z" transform="translate(-8 -8)" fill="#28236d"/>
</svg>
