<svg xmlns="http://www.w3.org/2000/svg" width="114.528" height="112.204" viewBox="0 0 114.528 112.204">
  <g id="mhome" transform="translate(-2.014 -2.501)">
    <path id="Path_970" data-name="Path 970" d="M91.588,42.2,78.1,28.831V10.353a2.394,2.394,0,0,0-2.387-2.387H67.189A2.394,2.394,0,0,0,64.8,10.353V16.3L50.669,3.143a2.38,2.38,0,0,0-3.2-.048L2.826,42.367A2.382,2.382,0,0,0,4.4,46.545H90.227A2.385,2.385,0,0,0,91.588,42.2Zm-80.86-.43L49,8.109,65.566,23.531a2.392,2.392,0,0,0,4.011-1.743V12.74h3.748V29.834a2.4,2.4,0,0,0,.692,1.7L84.378,41.771H10.728Z" transform="translate(0)" fill="#060056"/>
    <path id="Path_972" data-name="Path 972" d="M78.714,21.337V38.646a2.387,2.387,0,0,1-4.775,0V23.725H10.459V77.273H70.429a2.394,2.394,0,0,1,2.387,2.387,2.346,2.346,0,0,1-2.244,2.364.3.3,0,0,1-.143.024H8.071a2.364,2.364,0,0,1-2.387-2.387V21.337A2.364,2.364,0,0,1,8.071,18.95H76.326a2.379,2.379,0,0,1,2.387,2.387Z" transform="translate(5.092 22.821)" fill="#060056"/>
    <path id="Path_973" data-name="Path 973" d="M57.181,27.729c-.072.072-.5.454-1.241,1.027-3.151,2.459-11.841,8.451-21.988,8.69-1.409,6.613-4.464,30.033,19.027,42.9.382.215.788.43,1.194.645A2.4,2.4,0,0,1,55.2,84.214a2.256,2.256,0,0,1-.382.549l-.024.024A2.387,2.387,0,0,1,52,85.24a45.96,45.96,0,0,1-12.892-9.6,37.958,37.958,0,0,1-3.748-4.751C24.188,54.252,29.727,34.628,29.8,34.366a2.436,2.436,0,0,1,2.435-1.719A25.02,25.02,0,0,0,42.475,30.9a38.675,38.675,0,0,0,4.775-2.173,40.556,40.556,0,0,0,6.756-4.584,2.4,2.4,0,0,1,2.077-.549,2.663,2.663,0,0,1,1.289.764,2.382,2.382,0,0,1-.191,3.366Z" transform="translate(36.555 29.202)" fill="#060056"/>
    <path id="Path_974" data-name="Path 974" d="M41.51,84.742a.143.143,0,0,1-.1.024l-.024.024a2.077,2.077,0,0,1-.979.215,2.389,2.389,0,0,1-1.1-4.512,2.6,2.6,0,0,0,.263-.143c24.423-12.7,22.919-36.1,21.892-42.9-9.669-.286-16.33-6.016-18.932-8.69-.716-.74-1.122-1.265-1.194-1.337a2.364,2.364,0,0,1,.382-3.342,2.57,2.57,0,0,1,.955-.477,2.387,2.387,0,0,1,2.387.859c.143.167,7.258,8.857,18.24,8.189a2.418,2.418,0,0,1,2.459,1.838C65.837,34.823,73.333,68.389,41.51,84.742Z" transform="translate(49.959 29.198)" fill="#060056"/>
    <path id="Path_975" data-name="Path 975" d="M46.251,31.17A12.14,12.14,0,1,0,58.475,43.3,12.2,12.2,0,0,0,46.251,31.17Zm0,19.5A7.366,7.366,0,1,1,53.7,43.3,7.433,7.433,0,0,1,46.251,50.675Z" transform="translate(44.382 39.774)" fill="#060056"/>
    <path id="Path_978" data-name="Path 978" d="M25.168,33.83H20.442a9.165,9.165,0,0,0-9.168,9.144V57.7a2.394,2.394,0,0,0,2.387,2.387H31.925A2.379,2.379,0,0,0,34.312,57.7V42.974A9.16,9.16,0,0,0,25.168,33.83Zm-9.12,9.144A4.376,4.376,0,0,1,20.442,38.6h4.727a4.371,4.371,0,0,1,4.369,4.369V55.316H16.049Z" transform="translate(12.847 43.465)" fill="#060056"/>
  </g>
</svg>
