<svg xmlns="http://www.w3.org/2000/svg" width="98.24" height="84.182" viewBox="0 0 98.24 84.182">
  <g id="minimum" transform="translate(-1.989 -3.998)">
    <path id="Path_901" data-name="Path 901" d="M54.021,44.351a9.82,9.82,0,0,1-2.245-.281L29.051,38.494a3.607,3.607,0,0,1,1.683-7.014L53.46,37.162a2.455,2.455,0,0,0,2.911-1.578,2.42,2.42,0,0,0-1.4-3.016L26.561,21.31,6.921,31.094a3.507,3.507,0,0,1-3.156-6.243L24.807,14.33a3.507,3.507,0,0,1,2.876,0L57.564,26.29a9.434,9.434,0,0,1-3.507,18.2Z" transform="translate(0.192 25.13)" fill="#fff"/>
    <path id="Path_902" data-name="Path 902" d="M51.128,88.174H50.6L5.009,81.16a3.546,3.546,0,0,1,1.052-7.014l44.33,7.014L91.249,56.014a10.732,10.732,0,0,0-11.293-.982l-9.715,4.84a3.507,3.507,0,0,1-3.156-6.243l9.75-4.875a17.816,17.816,0,0,1,22.8,6.067,3.445,3.445,0,0,1-1.087,4.91L52.951,87.788A3.507,3.507,0,0,1,51.128,88.174ZM65.682,46.089a17.009,17.009,0,0,1-9.153-31.318A3.517,3.517,0,1,1,60.316,20.7a9.931,9.931,0,1,0,8.522-1.087A3.507,3.507,0,0,1,66.7,17.577a3.507,3.507,0,0,1,0-2.946l1.964-3.086a8,8,0,0,1-6.348-.351,1.754,1.754,0,0,0-2.069.351A3.509,3.509,0,1,1,55.3,6.564a8.873,8.873,0,0,1,9.855-1.648.842.842,0,0,0,.807,0A8.873,8.873,0,0,1,76.133,6.564a3.507,3.507,0,0,1,.6,4.138l-2.1,4a17.009,17.009,0,0,1-9.083,31.564Z" transform="translate(0 0)" fill="#fff"/>
  </g>
</svg>
