<svg xmlns="http://www.w3.org/2000/svg" width="104.881" height="85.182" viewBox="0 0 104.881 85.182">
  <g id="money" transform="translate(-1.206 -4.998)">
    <g id="Group_86" data-name="Group 86" transform="translate(73.372 11.556)">
      <path id="Path_904" data-name="Path 904" d="M24.036,1026.578c0,2.879,3.5,2.98,3.5,5.051,0,.719-.358.98-.928.98s-.928-.258-.928-.98v-.793H23.987v.691A2.243,2.243,0,0,0,25.923,1034v.734h1.466V1034a2.253,2.253,0,0,0,1.935-2.476c0-2.879-3.5-2.98-3.5-5.051,0-.719.327-.992.9-.992s.893.273.893.992v.418h1.692v-.316a2.228,2.228,0,0,0-1.918-2.461v-.749H25.923v.749a2.233,2.233,0,0,0-1.887,2.458Z" transform="translate(-23.987 -1023.367)" fill="#fff"/>
    </g>
    <path id="Path_905" data-name="Path 905" d="M19.634,1021.36A1.634,1.634,0,0,0,18,1022.994v8.972a1.634,1.634,0,0,0,3.267,0v-7.338H67.01v29.406H44.387a1.629,1.629,0,0,0-.5,0H28.312a1.634,1.634,0,0,0,0,3.267H42.5v7.887l-8.462,5.669a1.634,1.634,0,0,0,1.813,2.719l8.283-5.545,8.283,5.545a1.634,1.634,0,1,0,1.813-2.718l-8.462-5.669V1057.3H68.643a1.634,1.634,0,0,0,1.634-1.634v-32.673a1.634,1.634,0,0,0-1.634-1.634Z" transform="translate(35.81 -1016.362)" fill="#fff"/>
    <path id="Path_906" data-name="Path 906" d="M56.2,1024.39a1.634,1.634,0,0,0-1.255.565l-6.218,6.992-3.878-3.744a1.634,1.634,0,0,0-2.268,0l-8.652,8.332-3.97-3.728a1.633,1.633,0,0,0-2.264.033l-6.58,6.5a1.634,1.634,0,1,0,2.3,2.32l5.457-5.391,3.957,3.715a1.634,1.634,0,0,0,2.254,0l8.632-8.315,3.97,3.823a1.634,1.634,0,0,0,2.352-.088l7.348-8.256A1.634,1.634,0,0,0,56.2,1024.4Z" transform="translate(41.675 -1009.492)" fill="#fff" fill-rule="evenodd"/>
    <path id="Path_907" data-name="Path 907" d="M48.452,1023.659a17.147,17.147,0,0,0-17.131,17.166v15.21a16.827,16.827,0,0,0,5.777,12.187c.516.477,1.153.722,1.709,1.143l-1.287.637s-15,7.449-28.354,14.755c-3.669,1.84-6.959,5.476-6.959,9.966v3.787a1.634,1.634,0,0,0,3.267,0v-3.787c0-2.8,2.366-5.649,5.162-7.051l.049-.032c13.288-7.27,28.275-14.719,28.282-14.723l2.908-1.441c.059.033.15.033.206.059a14.9,14.9,0,0,0,6.371,1.653h.036a1.518,1.518,0,0,0,.173,0,8.7,8.7,0,0,0,1.346-.366,15.189,15.189,0,0,0,4.774-1.274c.176-.066.464-.108.637-.167l2.637,1.287-.193-.107a30.788,30.788,0,0,0,2.993,1.552c1.545.761,3.659,1.8,6.28,3.107,5.224,2.617,12.455,6.345,21.084,11.174,2.718,1.705,3.669,4.205,3.669,7.927v2.4a1.634,1.634,0,1,0,3.267,0v-2.4c0-4.378-1.47-8.358-5.211-10.7-.021-.016-.043-.031-.065-.046q-10.511-5.88-21.283-11.272c-2.633-1.323-4.761-2.365-6.3-3.124s-2.647-1.352-2.617-1.333a1.626,1.626,0,0,0-.193-.108l-1.144-.562c.467-.363,1.013-.559,1.451-.964a16.84,16.84,0,0,0,5.777-12.187v-15.21a17.145,17.145,0,0,0-17.121-17.166Zm0,3.267a13.811,13.811,0,0,1,13.853,13.9v15.21a13.63,13.63,0,0,1-4.725,9.789,16.832,16.832,0,0,1-4.14,2.732,16.454,16.454,0,0,1-4.881,1.346H48.5a14.991,14.991,0,0,1-5.064-1.372,16.777,16.777,0,0,1-4.117-2.719,13.638,13.638,0,0,1-4.731-9.789v-15.21a13.817,13.817,0,0,1,13.86-13.9Z" transform="translate(0 -1011.179)" fill="#fff" stroke="#fff" stroke-width="2"/>
  </g>
</svg>
