<svg id="Group_95" data-name="Group 95" xmlns="http://www.w3.org/2000/svg" width="96.776" height="96.782" viewBox="0 0 96.776 96.782">
  <path id="Path_910" data-name="Path 910" d="M19.52,37.818a.742.742,0,0,1-.741-.741V19.671a.742.742,0,0,1,.741-.741h5.5L14.423,5.411,3.823,18.93H9.312a.742.742,0,0,1,.741.741v16.65a.741.741,0,0,1-1.482,0V20.412H2.28a.735.735,0,0,1-.665-.423.774.774,0,0,1,.076-.786L13.834,3.732a.759.759,0,0,1,1.164,0L27.126,19.2a.712.712,0,0,1,.076.786.735.735,0,0,1-.665.423H20.245V37.077A.7.7,0,0,1,19.52,37.818Zm68.7,1.089a.742.742,0,0,1-.741-.741V19.9a.742.742,0,0,1,.741-.741h5.5L83.124,5.638l-10.6,13.519h5.489a.742.742,0,0,1,.741.741V38.15a.741.741,0,0,1-1.482,0V20.639H71a.735.735,0,0,1-.665-.423.774.774,0,0,1,.076-.786L82.534,3.959a.759.759,0,0,1,1.164,0l12.128,15.47a.712.712,0,0,1,.076.786.735.735,0,0,1-.665.423H88.961V38.15A.746.746,0,0,1,88.22,38.906Z" transform="translate(0.79 1.772)" fill="#fff"/>
  <path id="Path_911" data-name="Path 911" d="M71.493,51.765H62.676a.741.741,0,1,1,0-1.482h8.075V37.6a10.941,10.941,0,1,0-21.882,0V50.283h8.075a.741.741,0,0,1,0,1.482H48.129a.742.742,0,0,1-.741-.741V37.6a12.431,12.431,0,1,1,24.861,0V51.024A.765.765,0,0,1,71.493,51.765Zm.333,11.024H47.781a.742.742,0,0,1-.741-.741V58.963a5.954,5.954,0,0,1,5.928-5.958H56.93a.741.741,0,1,1,0,1.482H52.968a4.456,4.456,0,0,0-4.446,4.461v2.344H71.069V58.948a4.456,4.456,0,0,0-4.446-4.461H62.661a.741.741,0,1,1,0-1.482h3.977a5.954,5.954,0,0,1,5.928,5.958v3.085A.742.742,0,0,1,71.825,62.789Z" transform="translate(24.095 12.867)" fill="#fff"/>
  <path id="Path_912" data-name="Path 912" d="M56.7,49.067a3.617,3.617,0,0,1-3.614-3.629V42.081a.741.741,0,1,1,1.482,0v3.327a2.117,2.117,0,1,0,4.234.015V42.111a.741.741,0,0,1,1.482,0v3.3A3.58,3.58,0,0,1,56.7,49.067Z" transform="translate(27.194 21.175)" fill="#fff"/>
  <path id="Path_913" data-name="Path 913" d="M71.625,49.041a8.626,8.626,0,0,1-6.079-2.525,9.184,9.184,0,0,1-2.737-6.5l-.227-7.546a1.165,1.165,0,0,1,1.754-1.043,15.433,15.433,0,0,0,4.537.711,21.859,21.859,0,0,0,7.576-1.482,2.746,2.746,0,0,1,2.692.106,2.779,2.779,0,0,1,1.316,2.359v7.092a8.878,8.878,0,0,1-8.65,8.846A.868.868,0,0,0,71.625,49.041ZM64.079,32.92l.212,7.062a7.617,7.617,0,0,0,2.3,5.459,7.014,7.014,0,0,0,5.172,2.087,7.374,7.374,0,0,0,7.183-7.349V33.087a1.3,1.3,0,0,0-.6-1.1,1.217,1.217,0,0,0-1.18-.076,22.847,22.847,0,0,1-8.3,1.679A17.487,17.487,0,0,1,64.079,32.92ZM37.252,64.148A11.711,11.711,0,0,1,25.714,54a2.4,2.4,0,0,1,.68-4.7,1.413,1.413,0,0,1,.363.03.732.732,0,0,1,.6.862.74.74,0,0,1-.862.6h-.121a.907.907,0,1,0,0,1.815.768.768,0,0,1,.756.681,10.147,10.147,0,0,0,20.233,0,.731.731,0,0,1,.741-.681.909.909,0,1,0-.03-1.815h-.106a.761.761,0,0,1-.847-.635.749.749,0,0,1,.635-.847,2.41,2.41,0,0,1,1.013,4.7A11.682,11.682,0,0,1,37.252,64.148Z" transform="translate(12.288 15.546)" fill="#fff"/>
  <path id="Path_914" data-name="Path 914" d="M27.994,49.652a.754.754,0,0,1-.7-.469c-2.707-6.956-1.421-11.72,3.826-14.154,4.96-3.6,10.888-3.145,14.88,1.119,2.48.257,4.113,1.028,4.975,2.329,1.5,2.253.575,5.686-1.028,10.676a.737.737,0,0,1-.454.469.762.762,0,0,1-.65-.076c-2.586-1.633-3.977-2.661-4.28-5.625-4.763,2.541-8.166,3.463-12.627,1.89a2.253,2.253,0,0,0-2.737.968,3.657,3.657,0,0,0-.484,2.087.741.741,0,0,1-.575.786A.5.5,0,0,0,27.994,49.652Zm17.27-7.712a.683.683,0,0,1,.378.106.742.742,0,0,1,.363.635c.015,2.813.711,3.675,2.828,5.081,1.27-4.068,1.966-6.881.907-8.468-.635-.953-2-1.512-4.159-1.694a.783.783,0,0,1-.5-.242C41.574,33.426,36.4,33,31.926,36.269a.613.613,0,0,1-.136.076c-3.947,1.8-5.232,4.945-3.947,9.8a.738.738,0,0,0,.045-.106,3.7,3.7,0,0,1,4.537-1.648c4.264,1.527,7.41.454,12.446-2.344A.854.854,0,0,1,45.264,41.94ZM31.5,35.649ZM55.229,80.078H22.051a.742.742,0,0,1-.741-.741v-6.4A8.542,8.542,0,0,1,29.839,64.4H33.8a.732.732,0,0,1,.544.242q2.2,2.336,4.31,2.359h0c1.391,0,2.843-.786,4.31-2.359a.719.719,0,0,1,.544-.227h3.947a8.551,8.551,0,0,1,8.529,8.544v6.4A.763.763,0,0,1,55.229,80.078ZM22.792,78.6h31.7V72.941a7.064,7.064,0,0,0-7.032-7.062H43.827a7.368,7.368,0,0,1-5.172,2.586h0a7.428,7.428,0,0,1-5.172-2.586H29.839a7.054,7.054,0,0,0-7.032,7.062V78.6Z" transform="translate(10.915 16.704)" fill="#fff"/>
  <g id="Group_93" data-name="Group 93" transform="translate(3.539 36.037)">
    <path id="Path_915" data-name="Path 915" d="M14,45.916A10.315,10.315,0,0,1,3.852,37.055a2.185,2.185,0,0,1,.68-4.264,1.186,1.186,0,0,1,.333.03.74.74,0,0,1,.6.862.759.759,0,0,1-.862.6h0a.723.723,0,0,0-.771.7.7.7,0,0,0,.7.7.768.768,0,0,1,.756.681,8.752,8.752,0,0,0,17.451,0,.731.731,0,0,1,.741-.681.71.71,0,0,0,.726-.7.694.694,0,0,0-.7-.7.8.8,0,0,1-.907-.62.7.7,0,0,1,.56-.847A2.141,2.141,0,0,1,25.689,35a2.188,2.188,0,0,1-1.527,2.087A10.34,10.34,0,0,1,14,45.916Z" transform="translate(-2.34 -19.242)" fill="#fff"/>
    <path id="Path_916" data-name="Path 916" d="M4.568,38.876a.754.754,0,0,1-.7-.469C1.483,32.283,2.617,28.094,7.244,25.947,11.6,22.8,16.8,23.194,20.31,26.915c2.162.227,3.6.907,4.37,2.072,1.331,2,.514,5.021-.877,9.376a.737.737,0,0,1-.454.469.762.762,0,0,1-.65-.076c-2.238-1.421-3.463-2.314-3.75-4.839C14.851,36.094,11.872,36.88,8,35.5a1.852,1.852,0,0,0-2.268.8,3.171,3.171,0,0,0-.408,1.769.729.729,0,0,1-.756.8Zm15.047-6.911a.683.683,0,0,1,.378.106.742.742,0,0,1,.363.635c.015,2.374.56,3.1,2.314,4.28,1.043-3.357,1.648-5.852.771-7.168-.544-.8-1.694-1.285-3.554-1.437a.783.783,0,0,1-.5-.242c-3.024-3.387-7.485-3.75-11.342-.922a.613.613,0,0,1-.136.076c-3.327,1.512-4.446,4.159-3.448,8.2a3.348,3.348,0,0,1,4.007-1.361c3.69,1.3,6.412.378,10.767-2.041A.653.653,0,0,1,19.614,31.965ZM7.622,26.6Z" transform="translate(-2.178 -23.831)" fill="#fff"/>
  </g>
  <g id="Group_94" data-name="Group 94" transform="translate(0 63.755)">
    <path id="Path_917" data-name="Path 917" d="M29.67,56.012H.741A.742.742,0,0,1,0,55.271V49.706A7.545,7.545,0,0,1,7.531,42.16h3.448a.732.732,0,0,1,.544.242,5.334,5.334,0,0,0,3.69,2.026h0A5.276,5.276,0,0,0,18.9,42.4a.732.732,0,0,1,.544-.242h3.448a7.554,7.554,0,0,1,7.531,7.546v5.565A.765.765,0,0,1,29.67,56.012ZM1.482,54.53H28.914V49.706a6.057,6.057,0,0,0-6.034-6.064H19.75A6.493,6.493,0,0,1,15.2,45.9h0a6.435,6.435,0,0,1-4.537-2.253H7.531A6.057,6.057,0,0,0,1.5,49.706V54.53Z" transform="translate(0 -42.16)" fill="#fff"/>
  </g>
  <path id="Path_918" data-name="Path 918" d="M46.905,54.379a.742.742,0,0,1-.741-.741V24.059a.742.742,0,0,1,.741-.741h9.043L39.208,1.951,22.468,23.318h9.043a.742.742,0,0,1,.741.741v28.6a.741.741,0,1,1-1.482,0V24.8H20.94a.735.735,0,0,1-.665-.423.774.774,0,0,1,.076-.786L38.618.287A.768.768,0,0,1,39.208,0h0a.768.768,0,0,1,.59.287L58.065,23.606a.712.712,0,0,1,.076.786.735.735,0,0,1-.665.423H47.646V53.638A.752.752,0,0,1,46.905,54.379Z" transform="translate(10.347 0)" fill="#fff"/>
</svg>
