<svg xmlns="http://www.w3.org/2000/svg" width="105.882" height="77.017" viewBox="0 0 105.882 77.017">
  <g id="pharmacy" transform="translate(-9.6 -20.1)">
    <path id="Path_1124" data-name="Path 1124" d="M107.1,33.934H84.489V22.1a2.046,2.046,0,0,0-2-2H42.721a2.046,2.046,0,0,0-2,2V33.934H18.113A8.573,8.573,0,0,0,9.6,42.447V88.6a8.573,8.573,0,0,0,8.513,8.513h88.855a8.573,8.573,0,0,0,8.513-8.513V42.314A8.345,8.345,0,0,0,107.1,33.934Zm4.39,54.537a4.485,4.485,0,0,1-4.523,4.523H18.113a4.485,4.485,0,0,1-4.523-4.523V42.314a4.485,4.485,0,0,1,4.523-4.523h88.855a4.485,4.485,0,0,1,4.523,4.523S111.491,88.471,111.491,88.471ZM80.365,24.091v9.843H77.7V28.879a2.046,2.046,0,0,0-2-2h-26.2a2.046,2.046,0,0,0-2,2v5.055H44.85V24.091Zm-6.651,9.843H51.5V30.874H73.714Z" fill="#28236d"/>
    <path id="Path_1125" data-name="Path 1125" d="M60.48,41.2h-13.3v9.178H38v13.3h9.178v9.178h13.3V63.68h9.178v-13.3H60.48Zm5.055,18.489H56.356v9.178H51.036V59.689H41.991V54.369h9.178V45.191h5.321v9.178h9.178v5.321Z" transform="translate(9.377 6.967)" fill="#28236d"/>
  </g>
</svg>
