<svg xmlns="http://www.w3.org/2000/svg" xmlns:xlink="http://www.w3.org/1999/xlink" width="628" height="420" viewBox="0 0 628 420">
  <defs>
    <linearGradient id="linear-gradient" x1="-0.058" y1="-0.077" x2="1" y2="1" gradientUnits="objectBoundingBox">
      <stop offset="0" stop-color="#fff"/>
      <stop offset="1" stop-color="#060056"/>
    </linearGradient>
  </defs>
  <g id="privacy" transform="translate(-960 -174)">
    <circle id="Ellipse_6" data-name="Ellipse 6" cx="210" cy="210" r="210" transform="translate(1168 174)" opacity="0.46" fill="url(#linear-gradient)"/>
    <g id="Group_866" data-name="Group 866" transform="translate(236.244 253.506)" style="isolation: isolate">
      <g id="Group_699" data-name="Group 699" transform="translate(798.502 -53.9)">
        <path id="Path_7707" data-name="Path 7707" d="M912.8-46.877c4.381-4.056,10.317-5.872,16.106-6.77a20.49,20.49,0,0,1,16.115,4.186c3.019,2.538,6.622,4.455,9.011,7.687,2.334,3.019,5.335,5.649,6.65,9.335-11.5.046-23.005-.028-34.508.056-7.733-.445-14.531,7.15-13.67,14.763a13.516,13.516,0,0,0,12.66,12.7c31.8.2,63.625.046,95.429.074,3.565.037,7.465-.194,10.28-2.677,3.038-2.139,4.5-5.668,5.64-9.067a2.753,2.753,0,0,1,2.936-1.38c3.945.621,7.817-.639,11.743-.834,2.158-.056,4.51-1.009,6.52.213,5,2.751,11.077,3.5,15.216,7.724,4.3,4.464,9.021,9.1,10.752,15.235-8.039.556-16.105.083-24.153.3q-120.861-.069-241.712-.028c-4.288-.019-8.585.12-12.864-.185-.083-5.659-1.306-11.466.454-16.995,1.473-2.945,4.621-4.547,6.3-7.344,1.778-3.556,5.6-5.436,9.169-6.752,6.909-1.185,14.439-.12,20.116,4.232,4.566,3.64,9.687,6.437,14.642,9.484,6.427,3.38,14.022,2.13,20.634,0,8.826-4.316,14.763-12.4,21.838-18.921,1.639-1.528,2.593-3.584,3.955-5.335C905.634-40.413,908.959-43.932,912.8-46.877Z" transform="translate(-804.463 53.9)" fill="#fff"/>
        <path id="Path_7708" data-name="Path 7708" d="M1223.011,40.586c3.584-1.139,7.039.926,10.391,1.963,5.483,2.76,11.317,5.724,14.864,10.947a25.3,25.3,0,0,1,7.363,7.576c.454.194,1.362.6,1.815.806.926,2.306,2.732,3.927,4.566,5.511.519,2.223.908,4.538,2.38,6.381-.787.806-1.63,1.639-2.852,1.436-58.689.352-117.378.009-176.058.2-2.843.241-2.89-3.232-3.547-5.14l.148-.963c2.491-1.9.472-6.3,3.825-7.409a71.08,71.08,0,0,1,9.808-1.306c3.371.25,6.677,1.037,10.076,1.13,4.038,2.38,8.659,3.529,12.818,5.686a15.187,15.187,0,0,0,10.16,1.111c4.807-1.954,8.844-5.288,13.16-8.085a31.415,31.415,0,0,1,14.1-9.882c6.057-1.537,11.345,2.13,16.643,4.362q4.765,2.973,9.308,6.288a69.221,69.221,0,0,0,12.771.1c1.621-1.473,2.982-3.223,4.8-4.482,4.946-3.63,8.363-9.011,13.624-12.271C1216.01,42.3,1219.566,41.448,1223.011,40.586Z" transform="translate(-824.958 46.946)" fill="#fff"/>
        <path id="Path_7709" data-name="Path 7709" d="M1077.843,105.461c.13-.472.4-1.426.537-1.908.824.046,2.473.13,3.3.176.25.343.741,1.028.991,1.371Z" transform="translate(-824.656 42.27)" fill="#fff"/>
        <path id="Path_7710" data-name="Path 7710" d="M1073.443,115.041c.278-.509.833-1.519,1.1-2.028a71.184,71.184,0,0,1,7.437.259c0,.361-.009,1.093-.019,1.454A55.705,55.705,0,0,0,1073.443,115.041Z" transform="translate(-824.331 41.571)" fill="#fff"/>
      </g>
      <g id="Group_701" data-name="Group 701" transform="translate(906.471 -32.439)">
        <g id="Group_700" data-name="Group 700" transform="translate(0 0)">
          <path id="Path_7711" data-name="Path 7711" d="M921.117-15.909c-.861-7.613,5.937-15.207,13.67-14.763,11.5-.083,23.005-.009,34.508-.056,19.986.194,39.972-.065,59.967.037a34.354,34.354,0,0,1,6.011.426,14.979,14.979,0,0,1,9.854,15.383c-1.139,3.4-2.6,6.927-5.64,9.067-2.816,2.482-6.715,2.714-10.28,2.677-31.8-.028-63.625.13-95.429-.074A13.516,13.516,0,0,1,921.117-15.909Zm10.2-12.781c-7.483,2.176-11.067,11.743-6.909,18.319a13.668,13.668,0,0,0,12.2,5.825q44-.125,88-.019c3.6-.037,7.316.333,10.817-.759a12.68,12.68,0,0,0,8.067-10.743c.63-6.863-5.594-13.41-12.484-13.123-31.137-.157-62.292.028-93.438-.074A21.782,21.782,0,0,0,931.314-28.69Z" transform="translate(-921.043 30.727)" fill="#bec9cd"/>
        </g>
        <path id="Path_7712" data-name="Path 7712" d="M1026.043,171.285c5.918-.065,11.79-.9,17.7-.982a61.091,61.091,0,0,1-.213,10.965c-1.037.324-2.084.63-3.121.935-2.917-.287-5.825-.6-8.743-.843-.176,1.815-.352,3.64-.528,5.455-1.732.019-3.473.046-5.2.065C1025.932,181.685,1025.877,176.48,1026.043,171.285Z" transform="translate(-928.79 15.878)" fill="#bec9cd"/>
      </g>
      <g id="Group_703" data-name="Group 703" transform="translate(908.074 -30.975)">
        <g id="Group_702" data-name="Group 702" transform="translate(0 0)">
          <path id="Path_7713" data-name="Path 7713" d="M931.442-28.573a21.783,21.783,0,0,1,6.251-.574c31.146.1,62.3-.083,93.438.074,6.891-.287,13.114,6.261,12.484,13.123a12.68,12.68,0,0,1-8.067,10.743c-3.5,1.093-7.215.722-10.817.759q-44.01-.056-88,.019a13.668,13.668,0,0,1-12.2-5.825C920.374-16.829,923.958-26.4,931.442-28.573Zm7.02,4.112c.444,2.7,2.278,4.807,3.547,7.15-2.352,0-4.7-.019-7.039-.093.028.287.093.871.13,1.158,2.325-.019,4.64-.009,6.974.019a35.129,35.129,0,0,0-3.834,7.02c2.325-1.13,2.964-3.843,4.455-5.751,2.417.917,1.991,5.26,4.946,5.335-1.121-2.251-2.417-4.4-3.686-6.557,2.519-.065,5.038-.056,7.548-.278-2.01-1.769-5.149-.472-7.585-.945,1.306-2.158,2.63-4.307,3.732-6.585-2.649.333-2.991,3.908-4.483,5.7C941.462-20.256,940.509-22.8,938.462-24.461Zm23.089-.167c.324,2.639,2.084,4.733,3.177,7.085-2.223.074-4.455.074-6.677.056.028.343.093,1.019.12,1.361,2.195,0,4.39.009,6.594.046-1.065,2.334-3,4.39-3.075,7.066,2.037-1.547,2.973-4.01,4.269-6.14,1.787,1.713,2.186,5.381,4.936,5.612-1.047-2.251-2.278-4.418-3.51-6.576q3.14-.014,6.3-.009c.019-.352.046-1.065.065-1.417q-3.14.069-6.279.111c1.084-2.186,2.288-4.325,3.427-6.483-2.853-.269-3.056,3.843-4.9,5.455C964.653-20.608,963.68-23.109,961.55-24.627Zm23.07.065c.491,2.612,2.139,4.742,3.316,7.057-2.38.028-4.751.009-7.122.046,1.167,2.621,4.853.843,7.113,1.4-1.185,2.269-2.927,4.353-3.251,6.983,2.26-1.213,2.954-3.843,4.353-5.807,2.251,1.195,2.084,5.066,4.964,5.585a62.205,62.205,0,0,0-3.464-6.835c2.177-.417,5.316.954,6.937-.722-1.963-1.278-4.733-.333-7.011-.658a71.718,71.718,0,0,0,3.575-6.446c-2.871-.194-3.028,3.89-4.908,5.511C987.723-20.543,987.01-23.34,984.62-24.563Zm23.2,14.892c5.566.093,11.132-.009,16.689.037-.019-.269-.074-.806-.1-1.074-4.825.111-9.65.028-14.476.037A1.778,1.778,0,0,0,1007.82-9.67Z" transform="translate(-922.775 29.147)" fill="#fefffe"/>
        </g>
        <path id="Path_7714" data-name="Path 7714" d="M1055.923,133.289a23.691,23.691,0,0,1,3.167-1.806c7.177.176,14.364.056,21.551.083-.009.361-.009,1.1-.009,1.473C1072.408,133.585,1064.156,133.094,1055.923,133.289Z" transform="translate(-932.61 17.282)" fill="#fefffe"/>
      </g>
      <g id="Group_704" data-name="Group 704" transform="translate(920.27 -26.289)">
        <path id="Path_7715" data-name="Path 7715" d="M939.435-24.087c2.047,1.658,3,4.2,4.7,6.177,1.491-1.8,1.834-5.372,4.483-5.7-1.1,2.278-2.427,4.427-3.732,6.585,2.436.472,5.575-.824,7.585.945-2.51.222-5.029.213-7.548.278,1.269,2.158,2.565,4.307,3.686,6.557-2.954-.074-2.528-4.418-4.946-5.335-1.491,1.908-2.13,4.621-4.455,5.751a35.129,35.129,0,0,1,3.834-7.02c-2.334-.028-4.649-.037-6.974-.019-.037-.287-.1-.871-.13-1.158,2.343.074,4.686.093,7.039.093C941.713-19.28,939.879-21.392,939.435-24.087Z" transform="translate(-935.943 24.087)" fill="#26446a"/>
        <path id="Path_7716" data-name="Path 7716" d="M1120.806-4.674c3.834-4.751,11.78-4.52,15.67.056,4.112,4.547,2.473,11.151,2.593,16.707l-1.186-.4c-.444-5.27,1.6-11.688-2.584-15.9-4.353-4.658-13-3.01-15.374,2.89-1.658,4.529-.648,9.484-.889,14.188,6.205-.065,12.41.019,18.615-.056l-.611.722c-7.576-.046-15.151,0-22.718-.241q1.82-.347,3.667-.611C1118.565,6.921,1116.249-.052,1120.806-4.674Z" transform="translate(-949.119 22.909)" fill="#26446a"/>
        <path id="Path_7717" data-name="Path 7717" d="M993.993,106.158l.8-.315a34.325,34.325,0,0,0,2.732,6.52c-1.537-.056-3.075-.056-4.6-.009a11.4,11.4,0,0,0,.13,2.1c1.713-.074,3.436-.167,5.159-.232l.287,1.093c-2.167-.1-4.334-.194-6.5-.25.037-.963.083-1.908.139-2.862,1.315-.185,2.63-.361,3.955-.537C995.364,109.835,994.651,108.01,993.993,106.158Z" transform="translate(-940.083 14.49)" fill="#26446a"/>
        <path id="Path_7718" data-name="Path 7718" d="M1068.763,121.714a36.362,36.362,0,0,0,3.529-4.631c-.287,1.306-.528,2.621-.769,3.927,3.343.037,6.7-.019,10.039.139l.028.695C1077.311,121.89,1073.042,121.816,1068.763,121.714Z" transform="translate(-945.754 13.66)" fill="#26446a"/>
        <path id="Path_7719" data-name="Path 7719" d="M980.8,118.463c5.279.176,10.567,0,15.846.259a155.8,155.8,0,0,1-15.837.639Z" transform="translate(-939.257 13.558)" fill="#26446a"/>
      </g>
      <g id="Group_705" data-name="Group 705" transform="translate(943.349 -26.456)">
        <path id="Path_7720" data-name="Path 7720" d="M964.364-24.267c2.13,1.519,3.1,4.019,4.445,6.168,1.843-1.611,2.047-5.724,4.9-5.455-1.139,2.158-2.343,4.3-3.427,6.483q3.14-.042,6.279-.111c-.019.352-.046,1.065-.065,1.417q-3.154,0-6.3.009c1.232,2.158,2.464,4.325,3.51,6.576-2.751-.232-3.149-3.9-4.936-5.612-1.3,2.13-2.232,4.594-4.269,6.14.074-2.677,2.01-4.733,3.075-7.066-2.2-.037-4.4-.046-6.594-.046-.028-.343-.093-1.019-.12-1.361,2.223.019,4.455.019,6.677-.056C966.448-19.534,964.688-21.628,964.364-24.267Z" transform="translate(-960.863 24.267)" fill="#4864a3"/>
      </g>
      <g id="Group_706" data-name="Group 706" transform="translate(966.114 -26.391)">
        <path id="Path_7721" data-name="Path 7721" d="M989.249-24.2c2.389,1.222,3.1,4.019,4.5,6.112,1.88-1.621,2.037-5.7,4.908-5.511a71.718,71.718,0,0,1-3.575,6.446c2.278.324,5.047-.621,7.011.658-1.621,1.676-4.76.306-6.937.722a62.205,62.205,0,0,1,3.464,6.835c-2.88-.519-2.714-4.39-4.964-5.585-1.4,1.963-2.093,4.594-4.353,5.807.324-2.63,2.065-4.714,3.251-6.983-2.26-.556-5.946,1.222-7.113-1.4,2.371-.037,4.742-.019,7.122-.046C991.389-19.455,989.74-21.585,989.249-24.2Z" transform="translate(-985.443 24.197)" fill="#4c649f"/>
      </g>
      <g id="Group_707" data-name="Group 707" transform="translate(993.12 -12.549)">
        <path id="Path_7722" data-name="Path 7722" d="M1014.6-8.2a1.777,1.777,0,0,1,2.111-1c4.825-.009,9.65.074,14.476-.037.028.269.083.806.1,1.074C1025.735-8.21,1020.169-8.108,1014.6-8.2Z" transform="translate(-1014.603 9.251)" fill="#272a53"/>
        <path id="Path_7723" data-name="Path 7723" d="M1133.1,317.373c1.7.25,3.418.463,5.149.621.593-.259,1.778-.787,2.38-1.056l.4-.065c.945.861,1.232,2.3,1.852,3.4a48.259,48.259,0,0,1,1.787,6.224c-.843.426-1.686.861-2.519,1.3-.695-1.436-1.473-2.806-2.269-4.177-.343,1.019-.658,2.047-.954,3.075a2.275,2.275,0,0,0-1.852,3c-5,2.288-10.169,4.8-15.846,4.232a5.044,5.044,0,0,1,2.306-2.714,21.731,21.731,0,0,0,6.427-4.844C1132.179,323.884,1131.938,320.337,1133.1,317.373Z" transform="translate(-1022.479 -14.838)" fill="#272a53"/>
      </g>
      <g id="Group_708" data-name="Group 708" transform="translate(881.233 -10.285)">
        <path id="Path_7725" data-name="Path 7725" d="M902.841,308.933c6.724.472,13.448-.046,20.171.074,5.788.241,11.577.148,17.356.148-.435,6.261-1.241,12.484-2.13,18.7-1.065.741-2.13,1.695-3.538,1.6-4.047.185-8.094-.028-12.142.037-3.918.111-7.9-.722-11.743.343-3.066-.7-6.27-1.213-9.039-2.76-1.482-1.574-2.584-3.454-4.094-4.992a3.914,3.914,0,0,0-3.89.259c3.64-.834,6.4-4.909,4.066-8.335.667.148,2.019.463,2.686.611C901.322,312.73,902.1,310.841,902.841,308.933Z" transform="translate(-893.793 -16.515)" fill="#f7f6f1"/>
      </g>
      <g id="Group_710" data-name="Group 710" transform="translate(1084.357 8.311)">
        <g id="Group_709" data-name="Group 709">
          <path id="Path_7726" data-name="Path 7726" d="M1137.795,13.273l1.185.4c1.445.463,2.908.926,4.334,1.482-1.871,9.345-.12,18.958-.954,28.4-9.447.982-19.051-.658-28.4.889-1.287-2.51-.676-5.418-.8-8.122.2-7.159-.38-14.337.333-21.468l.741.019c7.566.241,15.142.194,22.718.241l.611-.722Zm-13.4,15.559c.167,1.565,1.723,2.371,2.751,3.371.491,1.111-.769,4.232,1.463,3.473,1.936.194.833-2.4,1.315-3.5,1.3-1.056,2.676-2.251,2.825-4.056a4.594,4.594,0,0,0-4.149-4.334C1126.2,24.044,1123.7,26.23,1124.394,28.832Z" transform="translate(-1113.117 -13.273)" fill="#4266b0"/>
        </g>
      </g>
      <g id="Group_711" data-name="Group 711" transform="translate(1085.196 10.191)">
        <path id="Path_7727" data-name="Path 7727" d="M1142.427,43.708c.834-9.447-.917-19.06.954-28.4.982,8.854.232,17.837.407,26.738.3,2.288-2.019,3.417-3.982,3.047-8.585-.3-17.245.546-25.784-.491C1123.377,43.05,1132.981,44.689,1142.427,43.708Z" transform="translate(-1114.023 -15.303)" fill="#214a89"/>
      </g>
      <g id="Group_712" data-name="Group 712" transform="translate(867.401 13.729)">
        <path id="Path_7728" data-name="Path 7728" d="M892.069,24.078c2.269-2.047,4.7-5.122,8.094-4.631.7.787,2.556,1.158,2.658-.324,3.445.565,6.279,3.853,5.409,7.428-.343,2.769-3.223,4.121-5.7,4.418-1.695.213-3.4.315-5.1.408a1.334,1.334,0,0,0-2.649.046c-2.973,1.519-4.307,4.492-4.909,7.622a30.28,30.28,0,0,0-4.529-1.445c-1.009,2.584.519,4.779,2,6.761-.806.722-1.611,1.436-2.408,2.149-4.52-5.242-7.27-12.4-5.557-19.319a18.333,18.333,0,0,1,3.167-1.5c.63,1.584,2.519.889,3.621.315C888.115,25.3,890.643,25.939,892.069,24.078Z" transform="translate(-878.858 -19.123)" fill="#2f3d50"/>
      </g>
      <g id="Group_713" data-name="Group 713" transform="translate(888.707 13.729)">
        <path id="Path_7729" data-name="Path 7729" d="M901.863,19.447c.667-.083,1.991-.241,2.658-.324C904.419,20.6,902.567,20.234,901.863,19.447Z" transform="translate(-901.863 -19.123)" fill="#0a0d21"/>
      </g>
      <g id="Group_714" data-name="Group 714" transform="translate(968.887 16.823)">
        <path id="Path_7730" data-name="Path 7730" d="M1031.137,22.62a10.343,10.343,0,0,1,4.51.278c13.957,3.714,27.756,8.011,41.806,11.382-.315,11.271-1.982,22.45-2.278,33.711l-.148.963c-.185,1-.343,2-.5,3a22.781,22.781,0,0,1-2.3,7.928c1-14.716,2.473-29.386,3.4-44.093-13.374-3.538-26.645-7.437-39.972-11.1-3.121-.889-6.27.232-9.261,1.056q-18.115,5.112-36.249,10.132c.111,2.149.241,4.3.37,6.446-.38,1.093-.75,2.176-1.13,3.26a42.609,42.609,0,0,1-.889-11.317C1002.8,30.733,1016.912,26.455,1031.137,22.62Z" transform="translate(-988.438 -22.463)" fill="#b5334b"/>
        <path id="Path_7731" data-name="Path 7731" d="M1091.9,313.706c1.389-6.594.019-13.5,1.8-20.023.018,4.473-.5,8.928-.584,13.4a71.615,71.615,0,0,1-.491,8.446c-1.648.028-3.288.056-4.927.1C1089.129,315.114,1090.8,314.854,1091.9,313.706Z" transform="translate(-995.769 -42.497)" fill="#b5334b"/>
      </g>
      <g id="Group_715" data-name="Group 715" transform="translate(835.899 18.719)">
        <path id="Path_7732" data-name="Path 7732" d="M1026.532,25.893c2.991-.824,6.14-1.945,9.261-1.056,13.327,3.667,26.6,7.567,39.972,11.1-.926,14.707-2.4,29.377-3.4,44.093-.87,6.39-1.028,12.957-3.251,19.088a48.364,48.364,0,0,1-18.9,24.154c-5.612,3.63-11.234,7.252-16.819,10.919l-.574-.009c-7.881-5.344-16.346-9.91-23.635-16.078.435-.046,1.315-.13,1.76-.176,6.622,4.946,13.7,9.234,20.616,13.735,1.5,1.4,3.2-.176,4.556-.954,4.436-3.01,8.984-5.844,13.494-8.743a45.183,45.183,0,0,0,19.356-28.053c.3-1.547.6-3.1.815-4.677,1.546-17.337,3.01-34.7,4.2-52.067-11.345-2.973-22.607-6.242-33.915-9.372-3.158-.806-6.464-2.362-9.743-1.2-12.021,3.353-24.033,6.742-36.073,10.012-.519.12-1.537.37-2.047.5.12,2.325.269,4.658.463,6.983,1.074,14.374,2.158,28.738,3.436,43.1.343,7.548,3.223,14.7,6.872,21.227-.445.12-.889.259-1.334.4A54.563,54.563,0,0,1,994.71,89.87c-1.621-15.763-2.464-31.618-4.057-47.4-.13-2.149-.259-4.3-.37-6.446Q1008.412,31,1026.532,25.893Z" transform="translate(-855.586 -24.511)" fill="#fffdfd"/>
        <path id="Path_7733" data-name="Path 7733" d="M863.968,105.523c1.269,1.056.621,2.88.685,4.288-.491,5.01-.815,10.03-.852,15.068-.037,5.251-.574,10.484-.9,15.726-.222-1.963-.519-3.908-.806-5.853-.408.9-.806,1.806-1.2,2.723-.1-.6-.3-1.8-.4-2.4-.833.426-1.676.861-2.51,1.287.037-.991.065-1.982.1-2.973l2.63-.593c-.009-1.352,0-2.7.009-4.038-.935.426-1.871.88-2.843,1.213-1.991-1.028-3.519-2.714-5.159-4.177-.519,1.371-1.028,2.741-1.547,4.112-1.88-5.233-5.4-9.873-6.335-15.411C851.27,111.663,858.077,109.431,863.968,105.523Z" transform="translate(-844.843 -30.494)" fill="#fffdfd"/>
      </g>
      <g id="Group_716" data-name="Group 716" transform="translate(1095.516 18.823)">
        <path id="Path_7734" data-name="Path 7734" d="M1125.283,29.67c-.694-2.6,1.806-4.788,4.2-5.047a4.594,4.594,0,0,1,4.149,4.334c-.148,1.806-1.528,3-2.825,4.056-.482,1.1.62,3.7-1.315,3.5-2.232.759-.973-2.362-1.463-3.473C1127.006,32.041,1125.45,31.236,1125.283,29.67Z" transform="translate(-1125.166 -24.623)" fill="#d6e6fc"/>
      </g>
      <g id="Group_717" data-name="Group 717" transform="translate(871.083 19.852)">
        <path id="Path_7735" data-name="Path 7735" d="M882.833,26.178a3.088,3.088,0,0,1,3.621.315C885.352,27.067,883.463,27.761,882.833,26.178Z" transform="translate(-882.833 -25.734)" fill="#141c27"/>
      </g>
      <g id="Group_719" data-name="Group 719" transform="translate(972.976 20.391)">
        <g id="Group_718" data-name="Group 718">
          <path id="Path_7736" data-name="Path 7736" d="M1030.51,26.73c3.279-1.158,6.585.4,9.743,1.2,11.308,3.13,22.57,6.4,33.915,9.372-1.186,17.365-2.649,34.73-4.2,52.067-.269-1.324-.556-2.63-.862-3.936-.093,2.871,0,5.742.046,8.613A45.182,45.182,0,0,1,1049.8,122.1c-4.51,2.9-9.058,5.733-13.494,8.743-1.352.778-3.056,2.352-4.556.954-6.918-4.5-13.994-8.789-20.616-13.735a16.028,16.028,0,0,1-.028-7.918c2.538-1.658,6.585-1.084,8.039-4.149a94.229,94.229,0,0,0-15.985,2.556c-3.649-6.529-6.529-13.679-6.872-21.227-1.278-14.364-2.362-28.729-3.436-43.1.565-2.491,1.139-4.973,1.584-7.483C1006.476,33.472,1018.488,30.083,1030.51,26.73Zm-5.158,27.728c-7.122,2.954-12.947,9.447-14.179,17.171-.75,4.946-.231,10.271,2.371,14.633a22.528,22.528,0,0,0,21.94,11.66c8.474-.621,15.707-6.807,18.93-14.476.417-.185,1.26-.546,1.677-.732.62-5.52,1.176-11.475-1.2-16.68a2.558,2.558,0,0,0-2.2-1.945,26.079,26.079,0,0,0-13.6-10.363c-.389-2.862-4.325-1.417-6.325-1.787C1030.269,52.31,1025.935,50.939,1025.351,54.458ZM1009.8,72.87c-.787,1.6-.991,4.594.3,5.77C1010.579,76.982,1011.144,73.981,1009.8,72.87Zm20.56,25.923c1.01,1.241,4.686,1.315,5.687.019A7.778,7.778,0,0,0,1030.361,98.793Z" transform="translate(-992.853 -26.316)" fill="#f55267"/>
        </g>
        <path id="Path_7737" data-name="Path 7737" d="M1072.733,228.856c17.7-5.168,35.425-10.465,53.521-14,5.455.852,10.984.574,16.485.574-2.714,9.613-5.446,19.227-8.484,28.747-.1.315-.324.935-.426,1.25-11.993.074-23.978-.046-35.971-.019a12.445,12.445,0,0,0-4.455.565,6.643,6.643,0,0,0,.241,2.853l.056.278a98.411,98.411,0,0,0-.185,21.208v.028c-1.732,4.742-1.343,9.891-.667,14.8-.074.9-.167,1.806-.259,2.723-1.778,6.52-.408,13.429-1.8,20.023-1.093,1.148-2.769,1.408-4.2,1.926q-1.75.042-3.473.056c-.528-2.565-.723-5.177-1.074-7.761-.25-1.9-.565-3.779-.843-5.659C1078.623,273.885,1075.437,251.4,1072.733,228.856Z" transform="translate(-998.753 -40.242)" fill="#f55267"/>
        <path id="Path_7738" data-name="Path 7738" d="M1151.248,215.112l.305-.009c9.261.482,18.551.445,27.821.213-.1,8.03-.972,16.541-6.048,23.126a22.153,22.153,0,0,1-7.187,5.594c-7.594,2.667-15.846,1.093-23.728,1.334C1145.3,235.265,1148.479,225.253,1151.248,215.112Z" transform="translate(-1003.9 -40.261)" fill="#f55267"/>
      </g>
      <g id="Group_720" data-name="Group 720" transform="translate(883.317 24.83)">
        <path id="Path_7739" data-name="Path 7739" d="M896.043,32.307a1.334,1.334,0,0,1,2.649-.046C898.025,32.28,896.7,32.3,896.043,32.307Z" transform="translate(-896.043 -31.109)" fill="#202325"/>
      </g>
      <g id="Group_721" data-name="Group 721" transform="translate(870.842 25.574)">
        <path id="Path_7740" data-name="Path 7740" d="M895.048,32.367c.657-.009,1.982-.028,2.649-.046,1.7-.093,3.408-.194,5.1-.407-.065,5.186.324,10.391-.148,15.559-.833,3.445-4.621,4.445-7.428,5.77.13,1.686.259,3.371.408,5.057,1.982.12,4.056-.139,5.992.491.157,1.352.13,2.714.167,4.084.787.621,1.565,1.25,2.352,1.88a27.716,27.716,0,0,1-2.964-.972,41.563,41.563,0,0,1-.639-4.89c-5.992-.213-11.984-.2-17.967-.13.593-.167,1.8-.509,2.39-.676.287-3.538.222-7.085.241-10.632.8-.713,1.6-1.426,2.408-2.149-1.482-1.982-3.01-4.177-2-6.761a30.275,30.275,0,0,1,4.529,1.445C890.742,36.859,892.075,33.886,895.048,32.367Z" transform="translate(-882.573 -31.913)" fill="#f9b590"/>
      </g>
      <g id="Group_724" data-name="Group 724" transform="translate(777.991 27.952)">
        <g id="Group_722" data-name="Group 722">
          <path id="Path_7741" data-name="Path 7741" d="M787.833,40.188c5.64-5.927,15.161-7.344,22.44-3.751a19.486,19.486,0,0,1,10.614,19.078c-.38,2.1-.38,4.538-2.01,6.159-.046.056-.157.185-.2.25l.241-.028a15.759,15.759,0,0,1-3.4,5.548c-2.13-3.7-5.316-6.992-9.549-8.141-6.983-2.325-15,1.491-18.124,8.03-2.13-2.362-4.39-5.084-4.668-8.363a30.921,30.921,0,0,0,.278-9.687,25.642,25.642,0,0,0-.695,8.317A18.961,18.961,0,0,1,787.833,40.188Zm10.956,1.676c-5.316,2.936-2.8,11.706,2.538,13.086,3.565-.185,5.371-3.964,6.112-6.983C808.319,43.466,802.753,39.215,798.789,41.864Z" transform="translate(-782.317 -34.48)" fill="#4266b2"/>
        </g>
        <g id="Group_723" data-name="Group 723" transform="translate(75.795 117.099)">
          <path id="Path_7742" data-name="Path 7742" d="M881.611,165.044c1.741-1.408,2.816-4.149,5.39-4.038,9.261-.176,18.541-.111,27.793.426-5.362.343-10.752.065-16.124.361-.343,10.067-1.75,20.051-3.028,30.035-.519,4.3-2.177,8.808-.482,13.049l-1.473.222c-1.852.019-1.593,2.815-.065,3.232-.435,3.825-.806,7.659-1.426,11.466a2.348,2.348,0,0,0-.472,4.251c-.389,3.538-.741,7.085-1.306,10.6-2.121.852-2.111,3.612-.62,5.066-.083.546-.259,1.649-.343,2.2a2.444,2.444,0,0,0-.5,4.325c-.167,1.047-.3,2.1-.407,3.167-2.019.667-1.973,3.13-.482,4.344-.046.593-.148,1.8-.194,2.389-.583,3.945-1.1,7.909-1.6,11.873a10.177,10.177,0,0,0-.463-3.918c-1.213,1.269-1.361,3.63.37,4.547-.231,1.667-.407,3.353-.6,5.029-1.1,8.409-2.158,16.828-3.26,25.237-.315,2.223-.38,4.483-.778,6.7-2.862.926-6.094.2-9.085.2.009-1.88.009-3.76-.1-5.64-.537-12.234-1.667-24.441-1.889-36.684,1.074-4.418.76-8.956.676-13.447-.167-4.807.8-9.724-.685-14.411.065-2.121.195-4.223.185-6.335,1.269-3.112.426-6.557-.491-9.641-.333-.3-1.009-.889-1.343-1.185-.194-1.3-.389-2.584-.556-3.881-.528-4.927-1.463-9.854-1.352-14.809.7-2.843,1.26-5.974-.695-8.474-1.445-5.159-.435-10.752-1.63-16-1.047-3.232.287-6.65-.222-9.965l.806.074c-.157,2.788-.583,5.649.157,8.4a44.123,44.123,0,0,0,.324-7.335c4.084-.3,8.187,2.139,12.151.408A15.027,15.027,0,0,0,881.611,165.044Zm-15.365,23.978a21.268,21.268,0,0,0-.055-9.326A23.259,23.259,0,0,0,866.246,189.022Z" transform="translate(-864.157 -160.919)" fill="#4266b2"/>
        </g>
      </g>
      <g id="Group_725" data-name="Group 725" transform="translate(972.513 30.816)">
        <path id="Path_7743" data-name="Path 7743" d="M992.353,38.073c.509-.13,1.528-.38,2.047-.5-.444,2.51-1.019,4.992-1.584,7.483C992.622,42.732,992.473,40.4,992.353,38.073Z" transform="translate(-992.353 -37.573)" fill="#cd3f5f"/>
      </g>
      <g id="Group_726" data-name="Group 726" transform="translate(791.521 34.518)">
        <path id="Path_7744" data-name="Path 7744" d="M799.868,42.388c3.964-2.649,9.53,1.6,8.65,6.1-.741,3.019-2.547,6.8-6.113,6.983C797.071,54.094,794.552,45.324,799.868,42.388Z" transform="translate(-796.926 -41.57)" fill="#d6e7fc"/>
      </g>
      <g id="Group_727" data-name="Group 727" transform="translate(969.719 36.679)">
        <path id="Path_7745" data-name="Path 7745" d="M989.454,47.163c.38-1.084.75-2.167,1.13-3.26,1.593,15.781,2.436,31.637,4.057,47.4-.713.621-1.417,1.241-2.121,1.862-.306-3.075-.167-6.159-.287-9.234-.12-1.436-.3-2.871-.482-4.3-.63-7.807-1.1-15.642-1.778-23.45C989.648,53.192,989.092,50.173,989.454,47.163Z" transform="translate(-989.336 -43.903)" fill="#ab3049"/>
        <path id="Path_7746" data-name="Path 7746" d="M1075.19,90.153c.306,1.306.593,2.612.862,3.936-.213,1.574-.519,3.13-.815,4.677C1075.19,95.9,1075.1,93.024,1075.19,90.153Z" transform="translate(-995.674 -47.319)" fill="#ab3049"/>
      </g>
      <g id="Group_728" data-name="Group 728" transform="translate(778.361 42.754)">
        <path id="Path_7747" data-name="Path 7747" d="M782.787,58.78a25.643,25.643,0,0,1,.695-8.317,30.917,30.917,0,0,1-.278,9.687Z" transform="translate(-782.716 -50.463)" fill="#20467e"/>
      </g>
      <g id="Group_729" data-name="Group 729" transform="translate(1005.474 45.969)">
        <path id="Path_7748" data-name="Path 7748" d="M1027.943,56.5c.583-3.519,4.918-2.149,7.409-2.519,2,.37,5.937-1.074,6.325,1.787C1037.13,55,1032.324,54.859,1027.943,56.5Z" transform="translate(-1027.943 -53.934)" fill="#d45060"/>
      </g>
      <g id="Group_731" data-name="Group 731" transform="translate(990.981 47.251)">
        <g id="Group_730" data-name="Group 730">
          <path id="Path_7749" data-name="Path 7749" d="M1026.787,56.6c4.381-1.639,9.188-1.5,13.735-.732a26.078,26.078,0,0,1,13.6,10.363c3.6,5.686,3.945,13.1,1.732,19.356-3.223,7.668-10.456,13.855-18.93,14.476a22.528,22.528,0,0,1-21.94-11.66c-2.6-4.362-3.121-9.687-2.371-14.633C1013.84,66.047,1019.665,59.555,1026.787,56.6Zm20.431,15.337c-4.816,4.955-9.854,9.687-14.559,14.744-3.908-3.306-7.233-7.242-10.965-10.743a5.386,5.386,0,0,0-2.482-1.417c3.89,5.02,8.835,9.122,13.207,13.707,5.566-5.39,10.947-10.956,16.485-16.374,1.065-1.084,2.334-2.112,2.732-3.658A17.605,17.605,0,0,0,1047.218,71.938Z" transform="translate(-1012.294 -55.318)" fill="#f8f6f1"/>
        </g>
      </g>
      <g id="Group_732" data-name="Group 732" transform="translate(783.517 52.09)">
        <path id="Path_7750" data-name="Path 7750" d="M788.283,69.258c3.121-6.539,11.141-10.354,18.124-8.03,4.232,1.148,7.418,4.436,9.548,8.141-2.223,2.084-4.445,4.538-7.631,4.983-4.89.852-10.567,1.889-14.911-1.185A61.9,61.9,0,0,1,788.283,69.258Z" transform="translate(-788.283 -60.543)" fill="#d5e5fe"/>
        <path id="Path_7751" data-name="Path 7751" d="M1066.863,124.037c.593-.648,1.176-1.306,1.76-1.954,4.279.1,8.548.176,12.827.13-.009.445-.019,1.343-.019,1.787C1076.578,124.037,1071.716,124.019,1066.863,124.037Z" transform="translate(-808.86 -65.089)" fill="#d5e5fe"/>
      </g>
      <g id="Group_734" data-name="Group 734" transform="translate(816.843 52.375)">
        <g id="Group_733" data-name="Group 733">
          <path id="Path_7752" data-name="Path 7752" d="M877.951,65.085c.1-1.4.213-2.788.315-4.186,5.983-.074,11.975-.083,17.967.13a41.538,41.538,0,0,0,.639,4.89,27.708,27.708,0,0,0,2.964.972,40.4,40.4,0,0,1,6.326,2.4l.231.408c1.436,2.491,3.121,5.075,2.806,8.094-.185,8.03-.361,16.059-.278,24.089.176,4.677-1.75,9.169-1.167,13.855.556,3.9-.917,8.567,1.982,11.771.472,6.159,1.084,12.5,4.094,18.032,1.241,2.464,3.538,5.844.324,7.835-10.021-.454-20.078.222-30.071-.5-5.3-1.223-10.9-1.324-15.976-3.38a73.862,73.862,0,0,0,7.428-.472c.528-1.584-1.158-1.667-2.241-1.982-4.483-.917-9.623-.935-13.41,2-2.26,1.88-4.038,4.26-6.261,6.177-10.03-10.438-19.3-21.949-25.45-35.147a60.964,60.964,0,0,1-3.723-11.7c-.12-1.213-.491-2.63.38-3.667,5.344-8.085,12.632-14.568,19.569-21.246C854.205,75.291,865.06,67.262,877.951,65.085Zm-13.623,36.832.009-1.028-1.889,1.334c-5.89,3.908-12.7,6.14-19.125,8.974.935,5.538,4.455,10.178,6.335,15.411l-.148.4c1.778,4.686,4.047,9.15,5.862,13.827.9,2.075,1.519,4.529,3.6,5.761,1-3.028,2.288-6.066,2.408-9.289.324-5.242.861-10.475.9-15.726l1.121.834c.056-.63.157-1.9.213-2.528,1.834-.574,2.223-2.491,2.843-4.047,1.167-3.445,3.075-6.6,3.973-10.15,1.084-3.871,3.251-7.316,4.4-11.169C870.8,96.166,867.643,99.213,864.328,101.918Z" transform="translate(-824.267 -60.851)" fill="#f9903d"/>
        </g>
      </g>
      <g id="Group_735" data-name="Group 735" transform="translate(814.348 55.146)">
        <path id="Path_7753" data-name="Path 7753" d="M821.573,64.093c.046-.065.157-.194.2-.25l.037.222Z" transform="translate(-821.573 -63.843)" fill="#2c396e"/>
      </g>
      <g id="Group_737" data-name="Group 737" transform="translate(1032.805 58.165)">
        <path id="Path_7754" data-name="Path 7754" d="M1057.453,67.1a2.559,2.559,0,0,1,2.2,1.945c2.38,5.2,1.824,11.16,1.2,16.68-.417.185-1.26.546-1.677.732C1061.4,80.2,1061.056,72.789,1057.453,67.1Z" transform="translate(-1057.453 -67.103)" fill="#ca2a40"/>
        <g id="Group_736" data-name="Group 736" transform="translate(47.535 172.327)">
          <path id="Path_7755" data-name="Path 7755" d="M1108.94,253.4a93.9,93.9,0,0,1,16.217.259l.241.491.185.861c-1.88.5-.843,3.871.482,1.686a82.888,82.888,0,0,0,2.667,8.752c2.38,13.207,6,26.163,9.428,39.129v1.389c-2.038.7-4.075,1.417-6.085,2.195-.509.111-1.537.333-2.056.454-.676-1.306-1.306-2.621-1.908-3.945-2.139-4.844-4.242-9.706-6.39-14.54,2.232.222.5-2.917-.343-.713q-1.139-2.362-2.251-4.723c-1.685-4.316-3.732-8.474-5.483-12.753C1114.126,265.185,1107.69,260.2,1108.94,253.4Zm18.773,11.882q-1.445,1.889.537,2.4A1.628,1.628,0,0,0,1127.713,265.278Z" transform="translate(-1108.779 -253.174)" fill="#ca2a40"/>
        </g>
      </g>
      <g id="Group_738" data-name="Group 738" transform="translate(997.899 60.129)">
        <path id="Path_7756" data-name="Path 7756" d="M1047.769,72.965a17.6,17.6,0,0,1,4.418-3.742c-.4,1.547-1.667,2.575-2.732,3.658-5.538,5.418-10.919,10.984-16.485,16.374-4.371-4.584-9.317-8.687-13.207-13.707a5.387,5.387,0,0,1,2.482,1.417c3.732,3.5,7.057,7.437,10.965,10.743C1037.915,82.652,1042.953,77.919,1047.769,72.965Z" transform="translate(-1019.763 -69.223)" fill="#123a5e"/>
        <path id="Path_7757" data-name="Path 7757" d="M1081.824,321.31c.417-.194,1.26-.583,1.676-.787q1.889,1.209,3.779,2.464c1.111-.278,2.241-.556,3.362-.824.056,3.7-.12,7.4-.4,11.1-.889.074-1.769.157-2.649.241-.278-1.574-.556-3.158-.824-4.723-.926,1.2-1.815,2.445-2.76,3.64a43.4,43.4,0,0,0-12.243.6c-2.158-.25-4.1-1.278-6.1-2.019a7.516,7.516,0,0,1,3.89-1.621c.658,1.787,2.945,1.269,3.5-.306A13.438,13.438,0,0,0,1081.824,321.31Z" transform="translate(-1023.153 -87.785)" fill="#123a5e"/>
      </g>
      <g id="Group_739" data-name="Group 739" transform="translate(898.969 61.221)">
        <path id="Path_7758" data-name="Path 7758" d="M912.943,70.4a9.252,9.252,0,0,1,3.677,2.38c12.271,12.92,23.829,26.932,31.3,43.241,7.187.046,14.374.019,21.56-.019l-.657.491c-6.955.815-13.985-.232-20.94.565a43.208,43.208,0,0,0,8.474.445c6.631-.259,13.272.287,19.893-.352,5.149.361,10.317-.12,15.476.009.1,2.075.139,4.158.148,6.251a136.817,136.817,0,0,1-16.207,5.622c-2.121.611-4.279,1.065-6.446,1.463-8.567,1.6-17.134,3.7-25.867,4.01-11.058-5.983-19.967-15.4-27.441-25.395-.093,6.363.2,12.734.37,19.1-2.9-3.2-1.426-7.872-1.982-11.771-.583-4.686,1.343-9.178,1.167-13.855-.083-8.03.093-16.059.278-24.089C916.064,75.478,914.378,72.894,912.943,70.4Z" transform="translate(-912.943 -70.403)" fill="#e28537"/>
      </g>
      <g id="Group_740" data-name="Group 740" transform="translate(989.294 66.945)">
        <path id="Path_7759" data-name="Path 7759" d="M1011.1,76.583c1.343,1.111.778,4.112.3,5.77C1010.112,81.177,1010.316,78.185,1011.1,76.583Z" transform="translate(-1010.473 -76.583)" fill="#c74256"/>
      </g>
      <g id="Group_741" data-name="Group 741" transform="translate(986.85 66.315)">
        <path id="Path_7760" data-name="Path 7760" d="M1073.663,83.831a22.784,22.784,0,0,0,2.3-7.928c-.1,2.01-.167,4.029-.13,6.048,0,1.389.037,2.788.028,4.186a104.23,104.23,0,0,1-2.649,15.374c-.139.482-.407,1.435-.537,1.908a35.433,35.433,0,0,1-2.973,6.853c-.269.509-.824,1.519-1.1,2.028-.2.435-.6,1.306-.806,1.741a36.4,36.4,0,0,1-3.529,4.631c-.583.648-1.167,1.306-1.76,1.954-1.38,1.51-2.732,3.038-4.112,4.547-.343.269-1.028.8-1.371,1.065-.37.287-1.111.852-1.482,1.139a23.707,23.707,0,0,0-3.167,1.806c-5.316,3.6-10.706,7.094-16.087,10.586-2.13,1.824-4.39-.509-6.214-1.6a14.585,14.585,0,0,0-3.992-2.1c-3.14-2.649-6.742-4.649-10.113-6.974a15.077,15.077,0,0,0-2.945-1.649,21.458,21.458,0,0,0-5.186-5.362c.658-.046,1.982-.13,2.649-.176,7.289,6.168,15.754,10.734,23.635,16.078l.574.009c5.584-3.667,11.206-7.289,16.819-10.919a48.365,48.365,0,0,0,18.9-24.154C1072.635,96.787,1072.792,90.221,1073.663,83.831Z" transform="translate(-1007.833 -75.903)" fill="#cc5777"/>
      </g>
      <g id="Group_742" data-name="Group 742" transform="translate(955.061 72.2)">
        <path id="Path_7761" data-name="Path 7761" d="M975.874,82.439c4.881-.463,9.808.12,14.707.028.185,1.426.361,2.862.482,4.3-3.593-.093-7.187-.1-10.78-.056q-.125,14.545-.019,29.081l.009.9c-2.112,0-4.214.046-6.316.194-.889-9.048-.13-18.18-.417-27.256C973.744,87.19,972.818,83.383,975.874,82.439Z" transform="translate(-973.509 -82.258)" fill="#bac9cc"/>
      </g>
      <g id="Group_744" data-name="Group 744" transform="translate(955.065 72.261)">
        <g id="Group_743" data-name="Group 743">
          <path id="Path_7762" data-name="Path 7762" d="M1073.295,82.425c4.2-.093,8.4-.139,12.6-.065,2.408-.333,4.362,2.195,4.029,4.464q.014,31.493-.009,62.968a74.767,74.767,0,0,1-.2,9.335c-.1,2.306-2.89,2.519-4.64,2.584q-22.686,0-45.371.019c-6.631.176-13.262-.065-19.884-.111-12.864.389-25.728-.056-38.583.287-2.177-.111-4.64.324-6.529-.991-1.473-1.426-.982-3.751-1.185-5.594.056-7.983-.139-15.967.176-23.941,2.167-.4,4.325-.852,6.446-1.463.157,7.918,0,15.846.083,23.765,35.073.093,70.146.037,105.218.019q.125-33.508-.009-67.015c-4.038-.009-8.076-.009-12.114-.074C1073.332,85.213,1073.295,83.814,1073.295,82.425Zm-40.824,73.9c-1.667.389-1.056,3.13.639,2.7C1035.055,158.757,1034.332,155.627,1032.471,156.321Z" transform="translate(-973.513 -82.323)" fill="#bccace"/>
        </g>
      </g>
      <g id="Group_745" data-name="Group 745" transform="translate(1104.822 74.095)">
        <path id="Path_7763" data-name="Path 7763" d="M1136.362,93.842c-2.76-3.427-.2-8.993,4.075-9.539a2.4,2.4,0,0,0,3.7.037c3.566.621,6.446,3.343,8.446,6.187.333,1.315.889,1.417,1.649.287,3.167-.3,6.52-.778,9.493.7,2.111,5.8-.232,12.632,3.139,18.171,2.288,3.621,8.548,2.213,9.65,6.918-1.528,1.5-.908,3.667-.259,5.418.232,2.454-.25,5.223,1.426,7.3,3.751,5.242,11.271,4.992,15.466,9.678a7.242,7.242,0,0,1-.3,9.623c-3.279,3.436-8.15,4.677-12.66,5.548a60.8,60.8,0,0,1-15.013.519,11.7,11.7,0,0,1-8.1-6.613c-1.139-3.566-.046-7.613-1.862-10.993-1.324-1.778-3.445-2.741-4.872-4.418-.945-2.232-.713-4.733-.907-7.085a2.079,2.079,0,0,0,1.945-1.361l.7-1.148c.759,2.158,2.63-.945.4-.7.2-.343.6-1.037.8-1.389a2.964,2.964,0,0,0-.037-4.964c-1.556-1.732-3.538-3.436-3.788-5.89.556-1.954,2.3-3.427,2.565-5.446a66.164,66.164,0,0,0-5.816-7.918C1142.881,96.13,1138.918,96.426,1136.362,93.842Z" transform="translate(-1135.214 -84.303)" fill="#2d3e50"/>
      </g>
      <g id="Group_746" data-name="Group 746" transform="translate(1110.044 73.603)">
        <path id="Path_7764" data-name="Path 7764" d="M1140.853,84.264a3.616,3.616,0,0,1,3.7.037A2.4,2.4,0,0,1,1140.853,84.264Z" transform="translate(-1140.853 -83.772)" fill="#12202c"/>
      </g>
      <g id="Group_747" data-name="Group 747" transform="translate(961.762 76.624)">
        <path id="Path_7765" data-name="Path 7765" d="M980.817,87.061c3.593-.046,7.187-.037,10.78.056.12,3.075-.019,6.159.287,9.234.176,1.815.408,3.63.472,5.464-1.371,1.019-1.185,3.01.806,2.954.658,1.852,1.371,3.677,2.093,5.511-1.324.176-2.64.352-3.955.537-.056.954-.1,1.9-.139,2.862,2.167.056,4.334.148,6.5.25.306.324.917.982,1.222,1.315-.722.435-1.482.8-2.241,1.158-5.279-.259-10.567-.083-15.846-.259Q980.674,101.61,980.817,87.061Z" transform="translate(-980.745 -87.034)" fill="#4364b1"/>
      </g>
      <g id="Group_748" data-name="Group 748" transform="translate(1052.226 76.549)">
        <path id="Path_7766" data-name="Path 7766" d="M1078.423,102.327a104.23,104.23,0,0,0,2.649-15.374,27.1,27.1,0,0,1-1.028,13.234c.556.769,1.111,1.547,1.676,2.315C1080.9,102.456,1079.247,102.373,1078.423,102.327Z" transform="translate(-1078.423 -86.953)" fill="#5b5591"/>
      </g>
      <g id="Group_749" data-name="Group 749" transform="translate(961.696 76.549)">
        <path id="Path_7767" data-name="Path 7767" d="M1073.851,86.953c4.038.065,8.076.065,12.114.074q.181,33.508.009,67.015c-35.073.019-70.146.074-105.218-.019-.083-7.918.074-15.846-.083-23.765a28.6,28.6,0,0,0,9.345-1.324c.287.093.861.278,1.158.37,2.315.926,4.844.732,7.289.732,5.168-.12,10.336.056,15.494-.13,3.371,2.325,6.974,4.325,10.113,6.974-10.891.287-21.8-.009-32.693.176.13.4.389,1.2.528,1.611l.352,1.074c9.15.426,18.338-.019,27.506.2,2.778-.028,5.733.389,8.3-.963,1.824,1.093,4.084,3.427,6.214,1.6,5.381-3.492,10.771-6.983,16.087-10.586,8.233-.194,16.485.3,24.709-.25,0-.37,0-1.111.009-1.473l-.046-.991c-6.659-.6-13.355-.13-20.023-.232.343-.269,1.028-.8,1.371-1.065,2.973-.963,5.381-3.723,8.7-3.325a47.543,47.543,0,0,0,9.937-.426l.046-.834c0-.445.009-1.343.019-1.787l-.028-.695c-3.343-.157-6.7-.1-10.039-.139.241-1.306.481-2.621.769-3.927.2-.435.6-1.306.806-1.741,2.547,1.574,5.668.778,8.465.648l.056-.963c.009-.361.019-1.093.019-1.454a71.18,71.18,0,0,0-7.437-.259,35.434,35.434,0,0,0,2.973-6.853l4.825-.361c-.25-.343-.741-1.028-.991-1.371-.565-.769-1.121-1.547-1.676-2.315A27.1,27.1,0,0,0,1073.851,86.953Z" transform="translate(-980.673 -86.953)" fill="#4266b3"/>
      </g>
      <g id="Group_750" data-name="Group 750" transform="translate(1122.195 80.318)">
        <path id="Path_7768" data-name="Path 7768" d="M1153.973,91.023c.417.074,1.241.213,1.648.287C1154.862,92.44,1154.306,92.338,1153.973,91.023Z" transform="translate(-1153.973 -91.023)" fill="#0e1824"/>
      </g>
      <g id="Group_751" data-name="Group 751" transform="translate(972.902 84.078)">
        <path id="Path_7769" data-name="Path 7769" d="M992.773,96.945c.7-.621,1.408-1.241,2.121-1.862a54.563,54.563,0,0,0,6.927,18.949c-.509.454-1.537,1.352-2.047,1.806-.306-.333-.917-.991-1.223-1.315l-.287-1.093c-.083-.287-.25-.871-.333-1.158l-.352-.7a34.325,34.325,0,0,1-2.732-6.52,1.771,1.771,0,0,0-1.6-2.639C993.18,100.575,992.949,98.76,992.773,96.945Z" transform="translate(-992.773 -95.083)" fill="#ba6684"/>
      </g>
      <g id="Group_752" data-name="Group 752" transform="translate(856.191 86.042)">
        <path id="Path_7770" data-name="Path 7770" d="M867.466,104.6c3.316-2.7,6.474-5.751,10.5-7.4-1.148,3.853-3.315,7.3-4.4,11.169-.9,3.547-2.806,6.705-3.973,10.15-.621,1.556-1.01,3.473-2.843,4.047A173.622,173.622,0,0,0,867.466,104.6Z" transform="translate(-866.753 -97.203)" fill="#e48235"/>
      </g>
      <g id="Group_753" data-name="Group 753" transform="translate(1110.507 86.551)">
        <path id="Path_7771" data-name="Path 7771" d="M1141.575,97.929c1.686-.065,3.39-.111,5.084-.176a66.176,66.176,0,0,1,5.816,7.918c-.269,2.019-2.01,3.492-2.565,5.446.25,2.454,2.232,4.158,3.788,5.89a16.525,16.525,0,0,0,.037,4.964c-.194.352-.593,1.047-.8,1.389l-.4.7-.7,1.148c-.843.315-1.695.593-2.556.824a37.137,37.137,0,0,1-.361-7.983c-3.649-1.028-6.946-3.89-7.4-7.807A103.147,103.147,0,0,1,1141.575,97.929Z" transform="translate(-1141.352 -97.753)" fill="#f6b692"/>
      </g>
      <g id="Group_754" data-name="Group 754" transform="translate(747.393 91.403)">
        <path id="Path_7772" data-name="Path 7772" d="M993.212,102.993a1.771,1.771,0,0,1,1.6,2.639l-.8.315C992.027,106,991.842,104.012,993.212,102.993Z" transform="translate(-767.231 -102.992)" fill="#fffdfe"/>
        <path id="Path_7773" data-name="Path 7773" d="M808.509,117.072a50.608,50.608,0,0,1,10.4-4.909,60.964,60.964,0,0,0,3.723,11.7c-.157.519-.463,1.547-.611,2.065-18.513.259-37.036.046-55.55.093-5.455-.287-11.114.611-16.365-1.241-1.13.037-1.065-1.871-.046-1.963,2.491-.759,5.344-1.158,6.779-3.621a42.078,42.078,0,0,1,16.142-3.279C784.726,117.183,796.84,120.665,808.509,117.072Z" transform="translate(-749.278 -103.67)" fill="#fffdfe"/>
      </g>
      <g id="Group_755" data-name="Group 755" transform="translate(854.857 92.414)">
        <path id="Path_7774" data-name="Path 7774" d="M865.48,105.417l1.889-1.334-.009,1.028a173.639,173.639,0,0,1-.713,17.967c-.056.63-.157,1.9-.213,2.528l-1.121-.834c.037-5.038.361-10.058.852-15.068C866.1,108.3,866.748,106.472,865.48,105.417Z" transform="translate(-865.313 -104.083)" fill="#d29154"/>
      </g>
      <g id="Group_756" data-name="Group 756" transform="translate(1010.485 92.338)">
        <path id="Path_7775" data-name="Path 7775" d="M1033.353,104.531a7.778,7.778,0,0,1,5.687.019C1038.039,105.846,1034.362,105.772,1033.353,104.531Z" transform="translate(-1033.353 -104.002)" fill="#cc4357"/>
      </g>
      <g id="Group_757" data-name="Group 757" transform="translate(977.663 100.073)">
        <path id="Path_7776" data-name="Path 7776" d="M1003.535,114.909a94.226,94.226,0,0,1,15.985-2.556c-1.454,3.066-5.5,2.491-8.039,4.149a16.032,16.032,0,0,0,.028,7.918c-.444.046-1.324.13-1.76.176-.667.046-1.991.13-2.649.176a24.415,24.415,0,0,0-8.946,1.741c-.009-2.093-.046-4.177-.148-6.251-.019-.5-.074-1.491-.093-1.991.759-.361,1.519-.722,2.241-1.158.509-.454,1.537-1.352,2.047-1.806C1002.646,115.168,1003.09,115.03,1003.535,114.909Z" transform="translate(-997.913 -112.353)" fill="#f7b691"/>
      </g>
      <g id="Group_758" data-name="Group 758" transform="translate(972.198 100.521)">
        <path id="Path_7777" data-name="Path 7777" d="M993.122,114.973a11.4,11.4,0,0,1-.13-2.1c1.528-.046,3.065-.046,4.6.009l.352.7c.083.287.25.871.333,1.158C996.558,114.806,994.836,114.9,993.122,114.973Z" transform="translate(-992.085 -112.837)" fill="#ecfcff"/>
        <path id="Path_7778" data-name="Path 7778" d="M992.013,132.6a6.739,6.739,0,0,1,3.529-.935c5.436-.037,10.873.148,16.309-.111a15.071,15.071,0,0,1,2.945,1.649c-5.158.185-10.326.009-15.494.13C996.857,133.331,994.328,133.526,992.013,132.6Z" transform="translate(-992.013 -114.219)" fill="#ecfcff"/>
        <path id="Path_7779" data-name="Path 7779" d="M992.233,141.039c10.891-.185,21.8.111,32.693-.176a14.585,14.585,0,0,1,3.992,2.1c-12.04-.639-24.107-.056-36.157-.315C992.622,142.243,992.363,141.437,992.233,141.039Z" transform="translate(-992.029 -114.907)" fill="#ecfcff"/>
      </g>
      <g id="Group_759" data-name="Group 759" transform="translate(1047.614 102.376)">
        <path id="Path_7780" data-name="Path 7780" d="M1073.443,115.176a55.7,55.7,0,0,1,8.521-.315l-.056.963C1079.111,115.954,1075.99,116.751,1073.443,115.176Z" transform="translate(-1073.443 -114.84)" fill="#264584"/>
      </g>
      <g id="Group_760" data-name="Group 760" transform="translate(1122.679 105.806)">
        <path id="Path_7781" data-name="Path 7781" d="M1154.669,118.543a2.964,2.964,0,0,1,.037,4.964A16.529,16.529,0,0,1,1154.669,118.543Z" transform="translate(-1154.495 -118.543)" fill="#1e2329"/>
      </g>
      <g id="Group_761" data-name="Group 761" transform="translate(954.852 105.991)">
        <path id="Path_7782" data-name="Path 7782" d="M973.941,119.577c2.1-.148,4.2-.194,6.316-.194a155.793,155.793,0,0,0,15.837-.639c.019.5.074,1.491.093,1.991-5.159-.13-10.326.352-15.476-.009a21.157,21.157,0,0,0-7.428-.658Z" transform="translate(-973.283 -118.743)" fill="#c48965"/>
      </g>
      <g id="Group_762" data-name="Group 762" transform="translate(1145.175 106.398)">
        <path id="Path_7783" data-name="Path 7783" d="M1179.478,124.6c-.648-1.75-1.269-3.918.259-5.418A6.343,6.343,0,0,1,1179.478,124.6Z" transform="translate(-1178.786 -119.183)" fill="#091122"/>
      </g>
      <g id="Group_763" data-name="Group 763" transform="translate(933.912 107.221)">
        <path id="Path_7784" data-name="Path 7784" d="M950.673,120.73c6.955-.8,13.985.25,20.94-.565a21.156,21.156,0,0,1,7.427.658c-6.622.639-13.262.093-19.893.352A43.207,43.207,0,0,1,950.673,120.73Z" transform="translate(-950.673 -120.072)" fill="#c67d3f"/>
      </g>
      <g id="Group_764" data-name="Group 764" transform="translate(1037.407 111.001)">
        <path id="Path_7785" data-name="Path 7785" d="M1066.535,124.19c4.853-.019,9.715,0,14.568-.037l-.046.834a47.543,47.543,0,0,1-9.937.426c-3.316-.4-5.724,2.362-8.7,3.325C1063.8,127.228,1065.155,125.7,1066.535,124.19Z" transform="translate(-1062.423 -124.153)" fill="#466194"/>
      </g>
      <g id="Group_765" data-name="Group 765" transform="translate(1121.695 112.145)">
        <path id="Path_7786" data-name="Path 7786" d="M1153.831,125.4c2.232-.241.361,2.862-.4.7Z" transform="translate(-1153.433 -125.388)" fill="#2c1e1f"/>
      </g>
      <g id="Group_767" data-name="Group 767" transform="translate(961.696 112.492)">
        <g id="Group_766" data-name="Group 766">
          <path id="Path_7787" data-name="Path 7787" d="M996.88,127.5a24.415,24.415,0,0,1,8.947-1.741,21.457,21.457,0,0,1,5.186,5.362c-5.437.259-10.873.074-16.309.111a6.738,6.738,0,0,0-3.529.935c-.3-.093-.871-.278-1.158-.37a28.6,28.6,0,0,1-9.345,1.324A136.818,136.818,0,0,0,996.88,127.5Zm.1,2.778a83.694,83.694,0,0,0,11.1-.046c-.6-1.269-1.491-2.815-3.149-2.63C1002.113,127.532,997.871,126.559,996.982,130.283Z" transform="translate(-980.673 -125.763)" fill="#7f7392"/>
        </g>
      </g>
      <g id="Group_768" data-name="Group 768" transform="translate(842.086 114.02)">
        <path id="Path_7788" data-name="Path 7788" d="M853.218,127.413c1.639,1.463,3.167,3.149,5.159,4.177.972-.333,1.908-.787,2.843-1.213-.009,1.343-.018,2.686-.009,4.038l-2.63.593c-.037.991-.065,1.982-.1,2.973.834-.426,1.676-.861,2.51-1.287.1.6.3,1.8.4,2.4.4-.917.8-1.824,1.2-2.723.287,1.945.583,3.89.806,5.853-.12,3.223-1.408,6.261-2.408,9.289-2.084-1.232-2.7-3.686-3.6-5.761-1.815-4.677-4.084-9.141-5.863-13.827l.148-.4C852.19,130.154,852.7,128.784,853.218,127.413Z" transform="translate(-851.523 -127.413)" fill="#f8f7ee"/>
      </g>
      <g id="Group_769" data-name="Group 769" transform="translate(978.005 114.167)">
        <path id="Path_7789" data-name="Path 7789" d="M998.283,130.416c.889-3.723,5.131-2.751,7.946-2.677,1.658-.185,2.547,1.361,3.149,2.63A83.691,83.691,0,0,1,998.283,130.416Z" transform="translate(-998.283 -127.571)" fill="#3e6cbc"/>
      </g>
      <g id="Group_771" data-name="Group 771" transform="translate(1047.558 115.373)">
        <g id="Group_770" data-name="Group 770">
          <path id="Path_7790" data-name="Path 7790" d="M1130.322,133.717a39.733,39.733,0,0,1,14.55-4.844c.194,2.352-.037,4.853.907,7.085,1.426,1.676,3.547,2.639,4.871,4.418,1.815,3.38.722,7.428,1.862,10.993a11.7,11.7,0,0,0,8.1,6.613c4.01,1.047,8.187.778,12.3.8-.352,4.7-.713,9.4-.741,14.114,2.047.25,4.168.4,6.048-.667l.435-.167c-.028.343-.083,1.037-.111,1.38q-17.2-.083-34.4-.046c-1.982.009-5.122.269-4.983,2.973-.083,6.5-.232,13.021.019,19.514.176,3.4,4.455,2.334,6.733,2.917a98.575,98.575,0,0,0-2.575,10.012l-.556.269c-5.5,0-11.03.278-16.485-.574-.278-1.167-.546-2.343-.806-3.5a137.775,137.775,0,0,0,8.409-16.828c2.084-3.316,2.065-7.242,1.167-10.947a18.812,18.812,0,0,0,1.612-4.575c.833-4.686,2.936-9.132,2.806-13.966-2.825,2.4-4.51,5.733-6.779,8.595-5.455,7.168-11.7,13.67-17.31,20.708-5.5.194-11.077.3-16.467-.945-1.732-.37-3.473-.6-5.214-.815-6.835-1.75-13.744-3.316-20.338-5.89.222-1.593.454-3.2.685-4.788,11.632.046,23.255-.222,34.888-.3A295.532,295.532,0,0,1,1130.322,133.717Zm7.261,46.39c.25,5.9-.361,11.836.556,17.7.843-7.817.065-15.707.2-23.552A13.379,13.379,0,0,0,1137.583,180.107Z" transform="translate(-1073.383 -128.873)" fill="#4e74b5"/>
        </g>
      </g>
      <g id="Group_772" data-name="Group 772" transform="translate(1034.555 116.57)">
        <path id="Path_7791" data-name="Path 7791" d="M1059.343,131.386c.37-.287,1.111-.852,1.482-1.139,6.668.1,13.364-.37,20.023.232l.046.991C1073.707,131.441,1066.521,131.562,1059.343,131.386Z" transform="translate(-1059.343 -130.166)" fill="#254382"/>
      </g>
      <g id="Group_773" data-name="Group 773" transform="translate(972.93 128.264)">
        <path id="Path_7792" data-name="Path 7792" d="M992.8,142.793c12.049.259,24.117-.324,36.156.315-2.565,1.352-5.52.935-8.3.963-9.169-.222-18.356.222-27.506-.2Z" transform="translate(-992.803 -142.793)" fill="#194890"/>
      </g>
      <g id="Group_774" data-name="Group 774" transform="translate(846.198 138.018)">
        <path id="Path_7793" data-name="Path 7793" d="M862.224,155.87c3.788-2.936,8.928-2.917,13.41-2,1.083.315,2.769.4,2.241,1.982a73.862,73.862,0,0,1-7.428.472c5.075,2.056,10.678,2.158,15.976,3.38,9.993.722,20.051.046,30.072.5l-1.732.63-.574.037c-9.252-.537-18.532-.6-27.793-.426-2.575-.111-3.649,2.63-5.39,4.038-5.473.38-10.975.167-16.457.37l-.806-.074c-2.612-.871-5-2.389-7.779-2.732C858.186,160.13,859.964,157.75,862.224,155.87Z" transform="translate(-855.963 -153.325)" fill="#f6b58e"/>
      </g>
      <g id="Group_775" data-name="Group 775" transform="translate(1134.791 143.962)">
        <path id="Path_7794" data-name="Path 7794" d="M1167.573,160.262a60.8,60.8,0,0,0,15.013-.519c.685,4.955,2.121,9.78,2.593,14.763-1.88,1.065-4,.917-6.048.667.028-4.714.389-9.41.741-14.114C1175.76,161.04,1171.583,161.308,1167.573,160.262Z" transform="translate(-1167.573 -159.743)" fill="#3d619b"/>
      </g>
      <g id="Group_777" data-name="Group 777" transform="translate(879.705 145.527)">
        <g id="Group_776" data-name="Group 776">
          <path id="Path_7795" data-name="Path 7795" d="M916.862,161.47l.574-.037c.139,1.769.287,3.529.417,5.307-1.435.88-1.4,3.3.537,3.464,1.13,7.9,2.047,15.828,3.13,23.728.63,5.168,1.315,10.326,1.908,15.494a3.142,3.142,0,0,0,.491,5.14c.065.333.185,1,.25,1.334-1.223,1.676-1.473,4.121.62,5.242.111.546.333,1.639.435,2.186a3.238,3.238,0,0,0,.463,5.168c.12.583.352,1.76.463,2.343a5.286,5.286,0,0,0,.009,6.14q-8.53,22.408-17.245,44.751c-.834-2.223-2.51.991-.306.75l-.407,1.084c-1.778,4.844-3.63,9.66-5.483,14.475-.741,1.908-1.519,3.8-2.3,5.686-.667-.148-2.019-.463-2.686-.611-1.862-.407-3.723-.722-5.594-1.009a24.312,24.312,0,0,1,.278-3.862c1.176-6.816,2.408-13.614,3.621-20.421.241-1.315.528-2.612.824-3.908a1.885,1.885,0,0,0,.611-3.5c.1-.491.315-1.473.417-1.963,1.371-.13,2.139-2.371.38-2.538.12-.333.37-.991.5-1.324,1.51-.454,2.408-2.862.361-3.26.639-2.991,1.158-6,1.843-8.984a219.784,219.784,0,0,1,6.094-21.523,197.256,197.256,0,0,1-9.761-24.246c1.333-.472,1.306-1.019-.083-1.658-1.695-4.242-.037-8.752.482-13.049,1.278-9.984,2.686-19.967,3.028-30.035C906.109,161.535,911.5,161.813,916.862,161.47Zm4.019,33.406a5.674,5.674,0,0,0,.019,4.927C922.168,199.09,922.048,195.6,920.881,194.876Z" transform="translate(-892.142 -161.433)" fill="#375595"/>
        </g>
      </g>
      <g id="Group_778" data-name="Group 778" transform="translate(1106.886 145.185)">
        <path id="Path_7796" data-name="Path 7796" d="M1137.443,169.658c2.269-2.862,3.955-6.2,6.779-8.595.13,4.834-1.973,9.28-2.806,13.966a18.817,18.817,0,0,1-1.611,4.575Z" transform="translate(-1137.443 -161.063)" fill="#385f9d"/>
      </g>
      <g id="Group_779" data-name="Group 779" transform="translate(1013.039 146.159)">
        <path id="Path_7797" data-name="Path 7797" d="M1037.094,162.215c1.862-.695,2.584,2.436.639,2.7C1036.039,165.345,1035.428,162.6,1037.094,162.215Z" transform="translate(-1036.111 -162.115)" fill="#e8f6f7"/>
      </g>
      <g id="Group_780" data-name="Group 780" transform="translate(854.518 149.176)">
        <path id="Path_7798" data-name="Path 7798" d="M865.212,165.743c5.483-.2,10.984.009,16.457-.37a15.031,15.031,0,0,1-3.825,1.843c-3.964,1.732-8.067-.7-12.151-.408a44.123,44.123,0,0,1-.324,7.335C864.628,171.393,865.054,168.531,865.212,165.743Z" transform="translate(-864.947 -165.373)" fill="#c69e9e"/>
      </g>
      <g id="Group_781" data-name="Group 781" transform="translate(904.41 150.834)">
        <path id="Path_7799" data-name="Path 7799" d="M920.36,170.627c-1.936-.167-1.973-2.584-.537-3.464A18.851,18.851,0,0,1,920.36,170.627Z" transform="translate(-918.818 -167.163)" fill="#163569"/>
      </g>
      <g id="Group_782" data-name="Group 782" transform="translate(1001.372 151.557)">
        <path id="Path_7800" data-name="Path 7800" d="M1023.513,167.943c6.622.046,13.253.287,19.884.111.046.519.13,1.556.167,2.075-5.909.083-11.78.917-17.7.982-.167,5.2-.111,10.4-.111,15.6,1.732-.019,3.473-.046,5.2-.065.176-1.815.352-3.64.528-5.455,2.917.241,5.825.556,8.743.843,7.011,1.232,14.318,1.158,21.116,3.38.259,1.195-.222,2.389-.352,3.584-12.447-.12-24.894-.3-37.332-.12C1023.43,181.9,1023.661,174.917,1023.513,167.943Z" transform="translate(-1023.513 -167.943)" fill="#a7b3b9"/>
      </g>
      <g id="Group_783" data-name="Group 783" transform="translate(1073.11 153.779)">
        <path id="Path_7801" data-name="Path 7801" d="M1117.44,191.051c5.612-7.039,11.854-13.54,17.309-20.708l2.362,9.947c.9,3.7.917,7.631-1.167,10.947l-.463.482c.019-.593.065-1.769.083-2.352a99.07,99.07,0,0,0-14.262-.065c-1.926-.019-3.084,1.676-4.362,2.834a117.345,117.345,0,0,0-11.836-.056c-1.1-.509-2.176-1.056-3.269-1.574l-.861-.4C1106.363,191.348,1111.938,191.246,1117.44,191.051Z" transform="translate(-1100.973 -170.343)" fill="#f7f6f2"/>
      </g>
      <g id="Group_784" data-name="Group 784" transform="translate(1022.997 158.452)">
        <path id="Path_7802" data-name="Path 7802" d="M1049.067,178.375a86.1,86.1,0,0,1,9.854-2.825c3.779-.889,6.835,2.158,10.493,2.426.454,1.621,1.565,3.3,1,5.038-4.075,2.075-8.984.037-12.753-1.908-2.454-2.047-7.187-3.047-8.344.926-.824.037-1.639.019-2.454-.019C1047.567,180.792,1048.011,179.357,1049.067,178.375Z" transform="translate(-1046.863 -175.388)" fill="#f6b793"/>
      </g>
      <g id="Group_785" data-name="Group 785" transform="translate(1113.221 159.883)">
        <path id="Path_7803" data-name="Path 7803" d="M1144.4,179.915c-.139-2.7,3-2.964,4.983-2.973q17.2-.028,34.4.046c3.686.157,7.437-.25,11.077.509,1.695.167,1.334,2.121,1.445,3.316-.037,6.928.194,13.864-.167,20.792a30.243,30.243,0,0,1-6.964.259q-.514-1.431-1.028-2.834a29.716,29.716,0,0,0-2.593,3.306c-2.806-.232-5.622-.445-8.437-.435-7.363-.019-14.735.25-22.088-.148l-1.037-2.26a8.352,8.352,0,0,0-2.834,2.853c-2.278-.583-6.557.482-6.733-2.917C1144.172,192.937,1144.32,186.417,1144.4,179.915Z" transform="translate(-1144.283 -176.934)" fill="#f9b592"/>
      </g>
      <g id="Group_786" data-name="Group 786" transform="translate(1018.088 161.04)">
        <path id="Path_7804" data-name="Path 7804" d="M1069.023,178.183c.889.333,1.787.667,2.7,1.009-.232,1.593-.463,3.2-.685,4.788,6.594,2.575,13.5,4.14,20.338,5.89-9.678.213-19.365.056-29.044-.12.13-1.195.611-2.389.352-3.584-6.8-2.223-14.1-2.149-21.116-3.38,1.037-.306,2.084-.611,3.121-.935l1.787.37c.815.037,1.63.056,2.454.019a40.842,40.842,0,0,0,8.345-.926c3.769,1.945,8.678,3.982,12.753,1.908C1070.588,181.48,1069.477,179.8,1069.023,178.183Z" transform="translate(-1041.563 -178.183)" fill="#dad2d0"/>
      </g>
      <g id="Group_787" data-name="Group 787" transform="translate(1111.721 160.753)">
        <path id="Path_7805" data-name="Path 7805" d="M1142.7,183.726a13.381,13.381,0,0,1,.759-5.853c-.139,7.844.639,15.735-.2,23.552C1142.339,195.562,1142.95,189.626,1142.7,183.726Z" transform="translate(-1142.663 -177.873)" fill="#4b6391"/>
      </g>
      <g id="Group_788" data-name="Group 788" transform="translate(1025.451 162.376)">
        <path id="Path_7806" data-name="Path 7806" d="M1049.513,182.346c1.158-3.973,5.89-2.973,8.345-.926A40.843,40.843,0,0,1,1049.513,182.346Z" transform="translate(-1049.513 -179.625)" fill="#faeadd"/>
      </g>
      <g id="Group_789" data-name="Group 789" transform="translate(855.374 163.828)">
        <path id="Path_7807" data-name="Path 7807" d="M866.373,190.519a23.257,23.257,0,0,1-.056-9.326A21.269,21.269,0,0,1,866.373,190.519Z" transform="translate(-865.871 -181.193)" fill="#2c4e8d"/>
      </g>
      <g id="Group_790" data-name="Group 790" transform="translate(926.531 172.413)">
        <path id="Path_7808" data-name="Path 7808" d="M943.185,193.649a1.8,1.8,0,0,1,1.639-3.01c24.283-.167,48.576-.009,72.868-.1,12.438-.176,24.885,0,37.332.12,9.678.176,19.365.333,29.044.12,1.741.213,3.482.445,5.214.815l.861.4c1.093.519,2.167,1.065,3.269,1.574-5.381,1-10.864.556-16.309.639-42.973.056-85.945-.083-128.918.056A18.187,18.187,0,0,1,943.185,193.649Z" transform="translate(-942.703 -190.463)" fill="#f1b493"/>
      </g>
      <g id="Group_791" data-name="Group 791" transform="translate(1089.077 172.508)">
        <path id="Path_7809" data-name="Path 7809" d="M1118.213,193.629c1.278-1.158,2.436-2.853,4.362-2.834a99.07,99.07,0,0,1,14.262.065c-.019.583-.065,1.76-.083,2.352-.306.213-.926.639-1.232.861A87.2,87.2,0,0,1,1118.213,193.629Z" transform="translate(-1118.213 -190.566)" fill="#f9b495"/>
      </g>
      <g id="Group_792" data-name="Group 792" transform="translate(776.151 175.187)">
        <path id="Path_7810" data-name="Path 7810" d="M797.476,195a4.576,4.576,0,0,1,4.344-1.426c2.658,1.26,3.853,4.288,4.038,7.066,1.9,17.569,5.436,35,5.649,52.716.074,1.667.269,3.334.389,5,.287,5.464-.037,10.938.185,16.4.13,3.2-.324,6.761-2.7,9.113a19.7,19.7,0,0,1-10.864,4.029,115.611,115.611,0,0,1-.093-12.151c.519-.667,1.028-1.343,1.51-2.028-.537-.648-1.093-1.278-1.667-1.88.445-4.047-1.121-8.817,1.695-12.216-.361-.232-1.093-.676-1.463-.9a136.5,136.5,0,0,1-.13-16.4c1.408-1.667,3.186-2.964,4.612-4.612a20.372,20.372,0,0,0-4.01,2.325c-.778-2.547-.713-5.223-1-7.835a51.79,51.79,0,0,0-.306,6.566c-.417.259-1.25.759-1.667,1.019,2.056,1.445,1.621,4.075,1.686,6.27-.111,4.658.389,9.345-.259,13.985a50.671,50.671,0,0,1-4.584-3.732c.62,2.482,3.223,3.464,4.519,5.464.676,3.325.241,6.752.333,10.123-.12,5.344.482,10.715-.278,16.031-4.909.176-9.1-2.89-11.817-6.752-1.306-3.529-1.537-7.353-2.084-11.049-.991-8.094,3.167-15.781,2.491-23.848-1.547-6.927-6.585-13.244-5.538-20.662.194-4.455,3.936-7.3,6.3-10.669,2.26-3.316,5.983-5.677,6.992-9.771C795.068,201.826,794.5,197.528,797.476,195Z" transform="translate(-780.33 -193.458)" fill="#cedce0"/>
      </g>
      <g id="Group_794" data-name="Group 794" transform="translate(931.979 174.673)">
        <g id="Group_793" data-name="Group 793">
          <path id="Path_7811" data-name="Path 7811" d="M1124.225,193.385l.463-.482a137.772,137.772,0,0,1-8.409,16.828c-24.922-.278-49.845-.046-74.767-.13-27.552.065-55.1-.12-82.639.083-.648.009-1.936.019-2.584.028-2.51.009-5.029-.046-7.539-.093-.222-5.057-.167-10.123-.13-15.179,42.973-.139,85.945,0,128.918-.056,5.446-.083,10.928.361,16.309-.639a117.336,117.336,0,0,1,11.836.056,87.2,87.2,0,0,0,17.31.445C1123.3,194.024,1123.919,193.6,1124.225,193.385ZM952.2,198.376c.056,2.538-.009,5.075-.176,7.613,22.4.463,44.816-.13,67.228.056,29.627-.065,59.254.074,88.89.083a63.256,63.256,0,0,0,9.456-.315,3.651,3.651,0,0,0-2.037-1.232c-25.83-.176-51.678.009-77.508-.37-.037-1.5-.074-2.991-.093-4.482,5.474-.333,10.965-.157,16.458-.148,21.31.176,42.63.037,63.931-.056,1.454.583,3.251-1.667.88-1.565-54.021-.333-108.052-.056-162.083-.185A16.5,16.5,0,0,0,952.2,198.376Zm128.223,2.149c-.046.732-.148,2.2-.2,2.936.75-.019,2.25-.065,2.991-.093-.028-.722-.1-2.158-.13-2.871C1082.41,200.5,1081.085,200.516,1080.418,200.525Z" transform="translate(-948.586 -192.903)" fill="#cb8865"/>
        </g>
      </g>
      <g id="Group_795" data-name="Group 795" transform="translate(855.82 175.442)">
        <path id="Path_7812" data-name="Path 7812" d="M866.362,193.733c1.954,2.5,1.4,5.631.695,8.474A38.282,38.282,0,0,1,866.362,193.733Z" transform="translate(-866.352 -193.733)" fill="#2c4f8b"/>
      </g>
      <g id="Group_796" data-name="Group 796" transform="translate(794.343 177.692)">
        <path id="Path_7813" data-name="Path 7813" d="M922.8,196.5q3.64-.264,7.307-.333c.074,5.529.028,11.114,1.269,16.55,7.122.667,14.253-.611,21.357.065-.759,9.317-2.325,18.55-3.306,27.84-2.834,20.042-4.7,40.222-7.9,60.208-5.779,0-11.567.093-17.356-.148-4.121-4.649-9.789-7.6-13.957-12.216-.185-.583-.546-1.75-.732-2.334l.407-1.084.306-.75q8.738-22.324,17.245-44.751c.908-1.954.417-4.131-.009-6.14-.111-.583-.343-1.76-.463-2.343a20.125,20.125,0,0,0-.463-5.168c-.1-.546-.324-1.639-.435-2.186a17.238,17.238,0,0,0-.621-5.242c-.065-.333-.185-1-.25-1.334a27.3,27.3,0,0,0-.491-5.14C924.116,206.823,923.431,201.664,922.8,196.5Z" transform="translate(-808.062 -196.163)" fill="#ebedea"/>
        <path id="Path_7814" data-name="Path 7814" d="M958.649,214.94c5.686-2.417,11.929-1.463,17.921-1.593,6.622.13,13.346-.63,19.875.88-.769,7.029-.278,14.1-.389,21.134.065,7.678-.2,15.365.1,23.042,9.511.343,19.023-.028,28.534.167a31.989,31.989,0,0,0,7.168-.343c1.167-1.834.269-4.149.361-6.168-.213-8.289-.13-16.587-.009-24.876,8.307-.352,16.624.056,24.932-.185,2.186.1,5.02-.519,6.344,1.741,2.7,22.542,5.89,45.029,8.465,67.589-.12.75-.352,2.25-.473,2.991-1.787-4.047.148-9.53-3.491-12.642a17.883,17.883,0,0,0-9.576.093c-7.455,4.464-12.809,11.975-21.023,15.263q-44.913.139-89.826-.019c3.093-24.052,5.918-48.14,9.215-72.164A132.464,132.464,0,0,1,958.649,214.94Z" transform="translate(-810.875 -197.426)" fill="#ebedea"/>
        <path id="Path_7815" data-name="Path 7815" d="M863.506,218.873c.167,1.3.361,2.584.556,3.881.472,3.63,1.148,7.233,1.834,10.827.009,2.112-.12,4.214-.185,6.335-.806,7.78-.454,15.615-.38,23.422a60.777,60.777,0,0,1-.806,8.307c-3.251,2.76-7.6,4.019-10.456,7.3-2.5,2.815-5.529,6.15-9.65,5.825-4.242-1-5.122-6-7.817-8.8-1.621-.787-3.019.741-4.13,1.7-7.52,7.233-12.947,16.244-18.838,24.774-4.529.009-9.058.139-13.586-.019-.056-4.214,0-8.437-.074-12.651a19.7,19.7,0,0,0,10.863-4.029c2.371-2.352,2.825-5.918,2.7-9.113-.222-5.464.1-10.938-.185-16.4,11.169-.732,22.394-.074,33.582-.463.546-12.873-.148-25.765.287-38.648,4.455.093,8.993-1.056,13.364.259.259-.269.778-.806,1.047-1.074.2.611.62,1.843.824,2.464C862.8,221.466,863.145,220.16,863.506,218.873Z" transform="translate(-799.973 -197.84)" fill="#ebedea"/>
        <path id="Path_7816" data-name="Path 7816" d="M1188.965,252.265c4.483-.046,9.076-.611,13.5.232.843,7.5-.139,15.133.4,22.69,9.335.537,18.736-.583,28.034.722-2.139,5.362-3.473,11.892-.63,17.245,1.019,2.232,3.4,3.056,5.594,3.649.037-7.233-.565-14.494.593-21.672,1.371,7.159.213,14.475.639,21.709,2.723.111,6.057-.574,6.594-3.76,1.389-6.724-1.649-13.336-3.816-19.569,1.361.908,2.751,2.065,4.51,1.871,8.28.074,16.578-.25,24.858.167-.815,4.427-1.584,9.261.333,13.522,7.381.38,14.772,0,22.153.12,1.111-.074,2.621.593,2.621,1.9.287,4.594.093,9.206-.065,13.8-19,.019-38.027.194-57.031-.1-.139-2.445-.259-4.89-.491-7.316-2.1,1.815-.667,4.816-.787,7.178-11.077.556-22.181.148-33.267.269-7.946-.222-15.939.5-23.857-.408-.12,2.1-.269,4.2-.463,6.288-.722-5.038-1.047-10.132-1.843-15.161-.046-1.213-.519-2.584.111-3.7,1.575-1.26,3.5-2.047,4.946-3.482a12.574,12.574,0,0,0,2.667-11.327c1.065,1.6,2.315,3.2,4.483,2.778C1189.16,270.695,1188.651,261.48,1188.965,252.265Z" transform="translate(-827.773 -200.29)" fill="#ebedea"/>
        <path id="Path_7817" data-name="Path 7817" d="M1072.206,308.134l1.5-.241c.75.852,2.213,1.621,1.825,3-.676,7.2-1.7,14.364-2.945,21.486,2.01.306,3.964-.185,3.668-2.621,6.094-.2,12.2-.278,18.291-.584a11.257,11.257,0,0,1,5.6,1.371,5.045,5.045,0,0,0-2.306,2.714c5.677.565,10.845-1.945,15.846-4.232.306-.139.917-.426,1.222-.574.158-.6.472-1.815.63-2.426.3-1.028.611-2.056.954-3.075.8,1.371,1.574,2.741,2.269,4.177.435,1.973.778,3.973,1.176,5.955.75-.324,1.5-.648,2.26-.963-.139-.908-.259-1.815-.38-2.714,7.622.065,15.263.028,22.894.093,1.76-.148,4.371.463,4.918-1.852.287,1.732-.176,3.945,1.537,5.066,1.991.074,1.852-1.76,1.936-3.2,14.216-.2,28.432.083,42.649-.074,2.908.1,5.909-.324,8.771.4,2.769,2.825,3.186,8.354-.537,10.614a58.46,58.46,0,0,1-6.492.111q-193.544.125-387.078.019c-4.872.593-7.826-6.483-3.973-9.539,1.315-1.917,3.769-1.519,5.788-1.6,14.522.018,29.053.074,43.584,0,4.26-.083,8.53.583,12.79.083-.093.75-.269,2.26-.361,3.019,6.511-1.482,13.1.815,19.643-.472a20.491,20.491,0,0,1,5.733-.056l.963.111a7.179,7.179,0,0,0,3.853.194c2.1-.407,4.279-.935,5.8-2.556,3.844-1.065,7.826-.232,11.744-.343,4.047-.065,8.094.148,12.141-.037,1.408.093,2.473-.861,3.538-1.6-.195,1.4-.408,2.806-.611,4.214.824.306,1.658.621,2.491.935.6-2.769,1.139-5.548,1.482-8.354.157,1.593.389,3.177.611,4.77,26.478.241,52.966.037,79.444.13,10.438.111,20.912-.509,31.313.593,2,.741,3.945,1.769,6.1,2.019a70.149,70.149,0,0,0,11.5.222l.741-.824c.945-1.195,1.834-2.436,2.76-3.64.269,1.565.546,3.149.824,4.723.88-.083,1.76-.167,2.649-.241.278-3.7.454-7.391.4-11.1a40.992,40.992,0,0,1,.352-4.649A71.64,71.64,0,0,0,1072.206,308.134Z" transform="translate(-800.32 -204.416)" fill="#ebedea"/>
      </g>
      <g id="Group_797" data-name="Group 797" transform="translate(907.889 178.97)">
        <path id="Path_7818" data-name="Path 7818" d="M923.129,197.543c1.167.722,1.287,4.214.019,4.927A5.674,5.674,0,0,1,923.129,197.543Z" transform="translate(-922.575 -197.543)" fill="#233c6c"/>
      </g>
      <g id="Group_799" data-name="Group 799" transform="translate(935.412 179.536)">
        <g id="Group_798" data-name="Group 798" transform="translate(0 0)">
          <path id="Path_7819" data-name="Path 7819" d="M952.469,198.764a16.5,16.5,0,0,1,4.946-.6c54.031.13,108.062-.148,162.083.185,2.371-.1.574,2.149-.88,1.565-21.3.093-42.621.232-63.931.056-5.492-.009-10.984-.185-16.457.148.019,1.491.055,2.982.093,4.483,25.83.38,51.678.194,77.508.37a3.651,3.651,0,0,1,2.037,1.232,63.253,63.253,0,0,1-9.456.315c-29.636-.009-59.263-.148-88.89-.083-22.412-.185-44.825.408-67.228-.056C952.46,203.84,952.525,201.3,952.469,198.764Zm1.584,1.463c-.028,1.454-.065,2.917-.093,4.381,10.113.75,20.255.037,30.387.278,17.43-.241,34.887.343,52.317-.287.046-1.5.1-3,.157-4.492-10.076-.435-20.181.046-30.275-.139C989.051,200.357,971.538,199.385,954.053,200.228Z" transform="translate(-952.293 -198.154)" fill="#bf7c58"/>
        </g>
      </g>
      <g id="Group_801" data-name="Group 801" transform="translate(937.079 181.254)">
        <g id="Group_800" data-name="Group 800" transform="translate(0 0)">
          <path id="Path_7820" data-name="Path 7820" d="M954.186,200.365c17.485-.843,35,.13,52.493-.259,10.095.185,20.2-.3,30.275.139-.055,1.491-.111,2.991-.157,4.492-17.43.63-34.887.046-52.317.287-10.132-.241-20.273.472-30.387-.278C954.121,203.282,954.158,201.819,954.186,200.365Zm37.86.954a1.761,1.761,0,0,0,1.825,2.954C995.232,202.874,994.232,199.383,992.046,201.319Z" transform="translate(-954.093 -200.009)" fill="#cc8863"/>
        </g>
      </g>
      <g id="Group_802" data-name="Group 802" transform="translate(974.403 181.993)">
        <path id="Path_7821" data-name="Path 7821" d="M995.023,201.377c2.186-1.936,3.186,1.556,1.824,2.954A1.76,1.76,0,0,1,995.023,201.377Z" transform="translate(-994.393 -200.806)" fill="#f1ad89"/>
      </g>
      <g id="Group_803" data-name="Group 803" transform="translate(1063.608 182.267)">
        <path id="Path_7822" data-name="Path 7822" d="M1090.917,201.131c.667-.009,1.991-.028,2.658-.028.028.713.1,2.149.13,2.871-.741.028-2.241.074-2.991.093C1090.769,203.335,1090.87,201.862,1090.917,201.131Z" transform="translate(-1090.713 -201.103)" fill="#f2ae89"/>
      </g>
      <g id="Group_804" data-name="Group 804" transform="translate(1135.217 181.98)">
        <path id="Path_7823" data-name="Path 7823" d="M1187.306,204.1a29.743,29.743,0,0,1,2.593-3.306q.514,1.4,1.028,2.834a13,13,0,0,0-1.473,3.121c-3.26,12.688-7.678,25.043-10.91,37.731-3.529-.732-7.7,1.528-10.512-1.5a22.153,22.153,0,0,0,7.187-5.594c.046.4.139,1.195.195,1.593.305.278.917.824,1.222,1.093,1.565-4.76,3.538-9.391,4.64-14.29C1182.87,218.436,1185.305,211.323,1187.306,204.1Z" transform="translate(-1168.033 -200.793)" fill="#d0d2d2"/>
      </g>
      <g id="Group_805" data-name="Group 805" transform="translate(1117.518 182.443)">
        <path id="Path_7824" data-name="Path 7824" d="M1151.5,204.146a8.353,8.353,0,0,1,2.834-2.853l1.037,2.26c-1.75,3.279-2.491,6.946-3.334,10.53l-.306.009c-.454.074-1.38.222-1.843.3-.222,1.436-.38,2.89-.546,4.344-.157-1.528-.324-3.047-.417-4.575A98.51,98.51,0,0,1,1151.5,204.146Z" transform="translate(-1148.923 -201.293)" fill="#d1d5e4"/>
      </g>
      <g id="Group_806" data-name="Group 806" transform="translate(1120.63 184.703)">
        <path id="Path_7825" data-name="Path 7825" d="M1152.283,214.263c.843-3.584,1.584-7.252,3.334-10.53,7.354.4,14.725.13,22.088.148a52.655,52.655,0,0,0,3.464,10.456l-1.065.139C1170.833,214.708,1161.544,214.745,1152.283,214.263Z" transform="translate(-1152.283 -203.733)" fill="#5074b5"/>
      </g>
      <g id="Group_807" data-name="Group 807" transform="translate(1142.403 184.851)">
        <path id="Path_7826" data-name="Path 7826" d="M1179.442,203.893c2.815-.009,5.631.2,8.437.435-2,7.224-4.436,14.337-6.029,21.681-1.1,4.9-3.075,9.53-4.64,14.29-.306-.269-.917-.815-1.223-1.093-.056-.4-.148-1.195-.194-1.593,5.075-6.585,5.946-15.1,6.048-23.126l1.065-.139A52.655,52.655,0,0,1,1179.442,203.893Z" transform="translate(-1175.793 -203.893)" fill="#f8f4f3"/>
      </g>
      <g id="Group_808" data-name="Group 808" transform="translate(882.016 189.232)">
        <path id="Path_7827" data-name="Path 7827" d="M895.874,211.855c-1.528-.417-1.787-3.214.065-3.232A7.926,7.926,0,0,1,895.874,211.855Z" transform="translate(-894.638 -208.623)" fill="#254483"/>
      </g>
      <g id="Group_809" data-name="Group 809" transform="translate(877.501 189.01)">
        <path id="Path_7828" data-name="Path 7828" d="M895.579,208.605l1.473-.222c.019.417.065,1.241.083,1.658a197.256,197.256,0,0,0,9.761,24.246A219.75,219.75,0,0,0,900.8,255.81c-2.908-.306-5.825-.593-8.733-.843-.435,1.713-.593,3.7-2.306,4.686.046-.593.148-1.8.194-2.389a24.558,24.558,0,0,0,.482-4.344c.111-1.065.241-2.121.407-3.167a29.752,29.752,0,0,0,.5-4.325c.083-.556.259-1.658.343-2.2a32.337,32.337,0,0,0,.62-5.066c.565-3.519.917-7.066,1.306-10.6.231-1.408.38-2.834.472-4.251.62-3.806.991-7.641,1.426-11.466A7.926,7.926,0,0,0,895.579,208.605Z" transform="translate(-889.763 -208.383)" fill="#f7f8f2"/>
      </g>
      <g id="Group_810" data-name="Group 810" transform="translate(884.79 189.01)">
        <path id="Path_7829" data-name="Path 7829" d="M897.633,208.383c1.389.639,1.417,1.185.083,1.658C897.7,209.624,897.652,208.8,897.633,208.383Z" transform="translate(-897.633 -208.383)" fill="#122e61"/>
      </g>
      <g id="Group_811" data-name="Group 811" transform="translate(925.067 191.455)">
        <path id="Path_7830" data-name="Path 7830" d="M955.737,211.051c.648-.009,1.936-.019,2.584-.028-.037,1.25-.083,2.5-.148,3.751a132.52,132.52,0,0,0-1.871,14.911c-3.3,24.024-6.122,48.113-9.215,72.164-.685,5.186-1.435,10.363-1.991,15.568-.343,2.806-.88,5.585-1.482,8.354-.833-.315-1.667-.63-2.491-.935.2-1.408.417-2.815.611-4.214.889-6.214,1.695-12.438,2.13-18.7,3.2-19.986,5.066-40.167,7.9-60.208.982-9.289,2.547-18.523,3.306-27.84C955.274,212.931,955.5,211.986,955.737,211.051Z" transform="translate(-941.123 -211.023)" fill="#d1d3d0"/>
      </g>
      <g id="Group_812" data-name="Group 812" transform="translate(942.117 191.356)">
        <path id="Path_7831" data-name="Path 7831" d="M959.681,211.015c27.543-.2,55.087-.019,82.639-.083,24.922.083,49.845-.148,74.767.13.259,1.158.528,2.334.806,3.5-18.1,3.538-35.823,8.835-53.521,14-1.324-2.26-4.158-1.639-6.344-1.741-8.308.241-16.624-.167-24.932.185-.12,8.289-.2,16.587.009,24.876-.093,2.019.806,4.334-.361,6.168a31.991,31.991,0,0,1-7.168.343c-9.511-.195-19.023.176-28.534-.167-.306-7.678-.037-15.365-.1-23.042.111-7.039-.38-14.105.389-21.134-6.529-1.51-13.253-.75-19.875-.88-5.992.13-12.234-.824-17.921,1.593C959.6,213.516,959.644,212.265,959.681,211.015Z" transform="translate(-959.533 -210.916)" fill="#f7f5f0"/>
      </g>
      <g id="Group_813" data-name="Group 813" transform="translate(909.879 193.52)">
        <path id="Path_7832" data-name="Path 7832" d="M926.325,218.393a3.142,3.142,0,0,1-.491-5.14A27.31,27.31,0,0,1,926.325,218.393Z" transform="translate(-924.724 -213.253)" fill="#233a70"/>
      </g>
      <g id="Group_814" data-name="Group 814" transform="translate(1108.479 195.242)">
        <path id="Path_7833" data-name="Path 7833" d="M1147.646,215.446l.556-.269c.093,1.528.26,3.047.417,4.575.167-1.454.324-2.908.546-4.344.463-.074,1.389-.222,1.843-.3-2.769,10.141-5.946,20.153-8.835,30.257-1.019-.343-2.019-.769-3.01-1.176C1142.2,234.673,1144.933,225.06,1147.646,215.446Z" transform="translate(-1139.163 -215.113)" fill="#e6cdd1"/>
      </g>
      <g id="Group_815" data-name="Group 815" transform="translate(910.794 199.994)">
        <path id="Path_7834" data-name="Path 7834" d="M927.269,225.485c-2.093-1.121-1.843-3.566-.621-5.242A17.235,17.235,0,0,1,927.269,225.485Z" transform="translate(-925.711 -220.243)" fill="#253b6f"/>
      </g>
      <g id="Group_816" data-name="Group 816" transform="translate(858.432 202.605)">
        <path id="Path_7835" data-name="Path 7835" d="M869.173,223.063c.333.3,1.009.889,1.343,1.185.917,3.084,1.76,6.529.491,9.641C870.321,230.3,869.645,226.693,869.173,223.063Z" transform="translate(-869.173 -223.063)" fill="#3a5690"/>
      </g>
      <g id="Group_817" data-name="Group 817" transform="translate(880.209 203.93)">
        <path id="Path_7836" data-name="Path 7836" d="M893.832,228.744a2.348,2.348,0,0,1,.472-4.251C894.211,225.91,894.063,227.336,893.832,228.744Z" transform="translate(-892.688 -224.493)" fill="#214e8a"/>
      </g>
      <g id="Group_818" data-name="Group 818" transform="translate(911.71 207.421)">
        <path id="Path_7837" data-name="Path 7837" d="M928.24,233.431a3.238,3.238,0,0,1-.463-5.168A20.119,20.119,0,0,1,928.24,233.431Z" transform="translate(-926.7 -228.263)" fill="#20396c"/>
      </g>
      <g id="Group_819" data-name="Group 819" transform="translate(912.734 214.932)">
        <path id="Path_7838" data-name="Path 7838" d="M928.794,242.513a5.286,5.286,0,0,1-.009-6.14C929.211,238.383,929.7,240.559,928.794,242.513Z" transform="translate(-927.807 -236.373)" fill="#223a6d"/>
      </g>
      <g id="Group_820" data-name="Group 820" transform="translate(878.373 218.785)">
        <path id="Path_7839" data-name="Path 7839" d="M891.759,245.6c-1.491-1.454-1.5-4.214.62-5.066A32.337,32.337,0,0,1,891.759,245.6Z" transform="translate(-890.705 -240.533)" fill="#305088"/>
      </g>
      <g id="Group_821" data-name="Group 821" transform="translate(859.56 219.767)">
        <path id="Path_7840" data-name="Path 7840" d="M870.911,241.593c1.482,4.686.519,9.6.685,14.411.083,4.492.4,9.03-.676,13.448-.139-1.482-.269-2.964-.389-4.436C870.458,257.208,870.106,249.373,870.911,241.593Z" transform="translate(-870.392 -241.593)" fill="#284e8a"/>
      </g>
      <g id="Group_822" data-name="Group 822" transform="translate(1067.568 224.166)">
        <path id="Path_7841" data-name="Path 7841" d="M1135.474,247.751c.1-.315.324-.935.426-1.25.991.407,1.991.833,3.01,1.176,7.881-.241,16.133,1.334,23.728-1.334,2.815,3.028,6.983.769,10.512,1.5,1.269.75,1.083,2.278,1.241,3.519-.695.093-2.1.269-2.8.361-6.946.7-13.892-.593-20.847.046-5.575-.333-11.2-.676-16.754.111-.834.1-1.667.195-2.5.3a15.108,15.108,0,0,0-6.77-.593c-.083.519-.25,1.537-.343,2.056l-.241-.491c-.194-.37-.574-1.111-.769-1.491-5.5-.13-11-.083-16.495.009-.056.509-.167,1.528-.213,2.038a15.65,15.65,0,0,0-.917-2.593c-3.464-.565-6.974-.046-10.456.037a6.645,6.645,0,0,1-.241-2.853,12.447,12.447,0,0,1,4.455-.565C1111.5,247.7,1123.481,247.825,1135.474,247.751Z" transform="translate(-1094.989 -246.343)" fill="#f5b496"/>
      </g>
      <g id="Group_823" data-name="Group 823" transform="translate(750.673 226.046)">
        <path id="Path_7842" data-name="Path 7842" d="M764.251,251.142c1.954-1.815,4.714-2.1,7.178-2.769,2.5,5.816,2.843,12.281,4.751,18.31,1.51,8.159,5.14,16.9,2.056,25.1-1.491,4.473-5.983,8.354-10.854,7.678-1.528-1.991-.593-5.177-.815-7.622a20.656,20.656,0,0,0,5.927-6.483c-1.963,1.343-3.89,2.76-5.844,4.121-.12-3.232-.519-6.548.213-9.734,2.2-3.029,5.631-5.066,7.233-8.557-2.779,1.537-4.983,3.853-7.317,5.974-.685-3.529.759-7.705-1.38-10.79a72.453,72.453,0,0,1-.769,11.327,81.186,81.186,0,0,1,.713,12.457c-3.158-2.038-4.751-6.159-8.715-6.9,2.288,3.288,5.612,5.64,8.048,8.78,1.269,2.454.417,5.39.333,8.03-3.436-.269-7.3-.611-9.548-3.584-3.38-2.88-2.76-7.724-2.2-11.651,3.464-6.965,4.945-14.7,5.649-22.385C759.685,258.347,760.936,253.921,764.251,251.142Z" transform="translate(-752.819 -248.373)" fill="#ccdcdf"/>
      </g>
      <g id="Group_824" data-name="Group 824" transform="translate(877.498 226.055)">
        <path id="Path_7843" data-name="Path 7843" d="M890.846,252.708a2.443,2.443,0,0,1,.5-4.325A29.785,29.785,0,0,1,890.846,252.708Z" transform="translate(-889.76 -248.383)" fill="#294e87"/>
      </g>
      <g id="Group_825" data-name="Group 825" transform="translate(1066.229 228.675)">
        <path id="Path_7844" data-name="Path 7844" d="M1095.182,251.509c3.482-.083,6.992-.6,10.456-.037a15.662,15.662,0,0,1,.917,2.593c-.074,1.621-.13,3.241-.13,4.871-.158-.269-.473-.815-.63-1.093-.676-1.778-1.213-3.6-1.889-5.372-2.186-.63-4.64-.926-6.715.195-1.195,9-.333,18.2-1.371,27.247a74.227,74.227,0,0,0-.491,10.641c-.037,4.381.074,8.78-.287,13.151l-1.5.241c.083-4.473.6-8.928.583-13.4.093-.917.185-1.824.259-2.723a102.627,102.627,0,0,0,.667-14.8V273c.889-6.992,1.445-14.235.185-21.209Z" transform="translate(-1093.543 -251.212)" fill="#f0b0b6"/>
      </g>
      <g id="Group_826" data-name="Group 826" transform="translate(1067.251 229.25)">
        <path id="Path_7845" data-name="Path 7845" d="M1095.134,273.042a98.4,98.4,0,0,1,.185-21.209C1096.579,258.807,1096.023,266.049,1095.134,273.042Z" transform="translate(-1094.646 -251.833)" fill="#cb4a5f"/>
      </g>
      <g id="Group_827" data-name="Group 827" transform="translate(1067.999 229.376)">
        <path id="Path_7846" data-name="Path 7846" d="M1097.333,252.723c2.074-1.121,4.529-.824,6.714-.194-1.556,10.539-2.954,21.116-3.992,31.711-.167,2.89-2.491,4.742-4.584,6.372a74.209,74.209,0,0,1,.491-10.641C1097,270.921,1096.139,261.725,1097.333,252.723Z" transform="translate(-1095.455 -251.969)" fill="#e9ede7"/>
      </g>
      <g id="Group_828" data-name="Group 828" transform="translate(1079.111 229.402)">
        <path id="Path_7847" data-name="Path 7847" d="M1107.8,252.086c5.492-.093,10.993-.139,16.494-.009.195.38.574,1.121.769,1.491a93.9,93.9,0,0,0-16.217-.259c-1.25,6.807,5.187,11.79,4.7,18.541-2.121-4.2-3.64-8.669-6.01-12.716l-.083-.139c0-1.63.056-3.251.13-4.871C1107.629,253.614,1107.74,252.6,1107.8,252.086Z" transform="translate(-1107.453 -251.997)" fill="#af3640"/>
      </g>
      <g id="Group_829" data-name="Group 829" transform="translate(1096.958 229.271)">
        <path id="Path_7848" data-name="Path 7848" d="M1127.066,251.992a15.109,15.109,0,0,1,6.77.593c.815,13.086,3.019,26.043,4.334,39.083.3,4.288,1.75,8.465,1.315,12.808-3.427-12.966-7.048-25.922-9.428-39.129a82.858,82.858,0,0,1-2.667-8.752c-.12-.417-.361-1.26-.482-1.686l-.185-.861C1126.816,253.529,1126.982,252.511,1127.066,251.992Z" transform="translate(-1126.723 -251.855)" fill="#f1edea"/>
      </g>
      <g id="Group_830" data-name="Group 830" transform="translate(1104.071 229.704)">
        <path id="Path_7849" data-name="Path 7849" d="M1134.4,252.619c.833-.1,1.667-.195,2.5-.3.231,2.056.454,4.112.732,6.159,1.908,13.54,3.01,27.2,5.779,40.6,5.047,1.667,9.808,4.112,14.9,5.659-4.825.139-9.66-.065-14.485.13.241,3.538,1.019,7.131.019,10.632-.62-1.1-.908-2.538-1.852-3.4-.352-.269-1.047-.815-1.389-1.084a23.823,23.823,0,0,1-.556-5.122v-1.389c.435-4.344-1.019-8.52-1.315-12.808C1137.422,278.662,1135.218,265.706,1134.4,252.619Z" transform="translate(-1134.403 -252.323)" fill="#d2d3d6"/>
      </g>
      <g id="Group_831" data-name="Group 831" transform="translate(1119.004 229.41)">
        <path id="Path_7850" data-name="Path 7850" d="M1154.848,252.188c6.955-.639,13.9.658,20.847-.046-.139,3.371-.88,6.863.046,10.188,1.917,5.047,5.64,9.391,6.622,14.79a12.574,12.574,0,0,1-2.667,11.327c-1.445,1.436-3.371,2.223-4.946,3.482-.63,1.121-.157,2.491-.111,3.7.8,5.029,1.12,10.123,1.843,15.161.787,4.853,1.056,9.78,2.167,14.587-.083,1.445.056,3.279-1.936,3.2-1.713-1.121-1.25-3.334-1.537-5.066-.676-5.881-1.611-11.743-2.288-17.624-.611-4.51-1.065-9.039-1.9-13.512l-3.529-.389c-.046-4.649-.991-9.632,1.343-13.911-2.028-2.288-1.371-5.436-1.361-8.215.019-4.14.583-8.567-1.26-12.429-.3,2.584-.454,5.177-.621,7.77a93.409,93.409,0,0,1-7.141-6.52c.037.574.12,1.732.158,2.306,3,2.686,7.363,5.186,7.39,9.724.074,2.491.648,5.622-1.871,7.141,2.649,4.334,1.871,9.558,1.621,14.364-4.686-1.111-10.178-2.51-12.484-7.233-2.14-4.445,1.37-8.863,1.454-13.318-.611-4.353-4.316-7.687-4.158-12.262A23.889,23.889,0,0,1,1154.848,252.188Z" transform="translate(-1150.528 -252.005)" fill="#cedadf"/>
      </g>
      <g id="Group_832" data-name="Group 832" transform="translate(1066.609 229.935)">
        <path id="Path_7851" data-name="Path 7851" d="M1099.945,284.284c1.037-10.6,2.436-21.171,3.992-31.711.676,1.769,1.213,3.593,1.889,5.372.157.278.472.824.63,1.093l.083.139a23.7,23.7,0,0,0-1.232,4.269c-.917,7.048-2.149,14.059-2.63,21.162-.741,6.779-1.973,13.5-2.51,20.31-.954,6.9-2.371,13.762-2.547,20.755.3,2.436-1.657,2.927-3.667,2.621,1.25-7.122,2.269-14.29,2.945-21.486.389-1.38-1.074-2.149-1.825-3,.361-4.371.25-8.771.287-13.151C1097.454,289.026,1099.779,287.173,1099.945,284.284Z" transform="translate(-1093.953 -252.573)" fill="#d0d3d5"/>
      </g>
      <g id="Group_833" data-name="Group 833" transform="translate(1096.119 232.325)">
        <path id="Path_7852" data-name="Path 7852" d="M1127.323,256.839c-1.324,2.186-2.362-1.185-.482-1.686C1126.962,255.579,1127.2,256.422,1127.323,256.839Z" transform="translate(-1125.817 -255.153)" fill="#981922"/>
      </g>
      <g id="Group_834" data-name="Group 834" transform="translate(876.615 233.547)">
        <path id="Path_7853" data-name="Path 7853" d="M889.887,260.817c-1.491-1.213-1.537-3.677.482-4.344A24.559,24.559,0,0,1,889.887,260.817Z" transform="translate(-888.806 -256.473)" fill="#2e5094"/>
      </g>
      <g id="Group_835" data-name="Group 835" transform="translate(875.204 235.594)">
        <path id="Path_7854" data-name="Path 7854" d="M891.886,258.683c2.908.25,5.825.537,8.734.843-.685,2.982-1.2,5.992-1.843,8.984a11.058,11.058,0,0,0-.361,3.26c-.13.333-.38.991-.5,1.324-.093.63-.287,1.9-.38,2.538-.1.491-.315,1.473-.417,1.963a11.216,11.216,0,0,0-.611,3.5c-.3,1.3-.583,2.593-.824,3.908-2.593-1.741-5.149-3.9-8.4-4.1.194-1.676.37-3.362.6-5.029l.093-.63c.5-3.964,1.019-7.928,1.6-11.873C891.293,262.388,891.451,260.4,891.886,258.683Z" transform="translate(-887.283 -258.683)" fill="#e9ece9"/>
      </g>
      <g id="Group_836" data-name="Group 836" transform="translate(1107.303 234.844)">
        <path id="Path_7855" data-name="Path 7855" d="M1165.251,257.873c1.843,3.862,1.278,8.289,1.26,12.429-.009,2.778-.667,5.927,1.361,8.215-2.334,4.279-1.389,9.261-1.343,13.911l3.529.389c.833,4.473,1.287,9,1.9,13.512-.259-.306-.769-.908-1.019-1.213-4.121.287-8.243.037-12.364.037-5.094-1.547-9.854-3.992-14.9-5.659-2.769-13.4-3.871-27.062-5.779-40.6.565,1.148,1.185,2.278,1.815,3.408a33.882,33.882,0,0,1,9.03-.065q.417-1.209.861-2.389c-.157,4.575,3.547,7.909,4.158,12.262-.083,4.455-3.593,8.872-1.454,13.318,2.306,4.723,7.8,6.122,12.484,7.233.25-4.807,1.028-10.03-1.621-14.364,2.519-1.519,1.945-4.649,1.871-7.14-.028-4.538-4.39-7.039-7.391-9.724-.037-.574-.12-1.732-.157-2.306a93.386,93.386,0,0,0,7.141,6.52C1164.8,263.05,1164.955,260.457,1165.251,257.873Z" transform="translate(-1137.893 -257.873)" fill="#ebedec"/>
      </g>
      <g id="Group_837" data-name="Group 837" transform="translate(1075.333 236.539)">
        <path id="Path_7856" data-name="Path 7856" d="M1106,263.972a23.691,23.691,0,0,1,1.232-4.269c2.371,4.047,3.89,8.52,6.011,12.716,1.75,4.279,3.8,8.437,5.483,12.753-4.353-3.992-10.632-2.389-15.355-.037C1103.854,278.031,1105.086,271.02,1106,263.972Z" transform="translate(-1103.373 -259.703)" fill="#ededea"/>
      </g>
      <g id="Group_838" data-name="Group 838" transform="translate(1195.219 240.878)">
        <path id="Path_7857" data-name="Path 7857" d="M1234.851,265.291c1.454-.537,3.251-1.556,4.649-.306,2.426,2.593,3.454,6.131,4.547,9.437,2.167,6.233,5.2,12.845,3.816,19.569-.537,3.186-3.871,3.871-6.594,3.76-.426-7.233.732-14.55-.639-21.709-1.158,7.178-.556,14.438-.593,21.672-2.195-.593-4.575-1.417-5.594-3.649-2.843-5.353-1.51-11.882.63-17.245C1237.12,273.135,1234.045,269.209,1234.851,265.291Z" transform="translate(-1232.82 -264.389)" fill="#cedbdf"/>
      </g>
      <g id="Group_839" data-name="Group 839" transform="translate(1098.663 242.596)">
        <path id="Path_7858" data-name="Path 7858" d="M1129.174,266.243a1.628,1.628,0,0,1,.537,2.4Q1127.725,268.128,1129.174,266.243Z" transform="translate(-1128.564 -266.243)" fill="#931627"/>
      </g>
      <g id="Group_840" data-name="Group 840" transform="translate(808.004 243.188)">
        <path id="Path_7859" data-name="Path 7859" d="M865.614,275.19a60.777,60.777,0,0,0,.806-8.307c.12,1.473.25,2.954.389,4.436.222,12.243,1.352,24.45,1.889,36.684-.315-.445-.954-1.343-1.278-1.787-17.559-.435-35.138-.093-52.7-.222,5.89-8.53,11.317-17.541,18.838-24.774,1.111-.963,2.51-2.491,4.131-1.7,2.7,2.8,3.575,7.8,7.817,8.8,4.121.324,7.15-3.01,9.65-5.825C858.011,279.21,862.363,277.95,865.614,275.19Z" transform="translate(-814.723 -266.883)" fill="#cddcdf"/>
        <path id="Path_7860" data-name="Path 7860" d="M1103.173,286.972c4.723-2.352,11-3.955,15.355.037q1.111,2.362,2.25,4.723l.343.713c2.148,4.834,4.251,9.7,6.39,14.54-8.937.639-17.9.1-26.849.3C1101.2,300.475,1102.432,293.751,1103.173,286.972Z" transform="translate(-835.844 -268.19)" fill="#cddcdf"/>
      </g>
      <g id="Group_841" data-name="Group 841" transform="translate(723.756 244.041)">
        <path id="Path_7861" data-name="Path 7861" d="M763.253,267.8c2.139,3.084.695,7.261,1.38,10.789,2.334-2.121,4.538-4.436,7.317-5.974-1.6,3.492-5.029,5.529-7.233,8.557-.732,3.186-.333,6.5-.213,9.734,1.954-1.361,3.881-2.778,5.844-4.121a20.656,20.656,0,0,1-5.927,6.483c.222,2.445-.713,5.631.815,7.622,4.871.676,9.363-3.2,10.854-7.678.676,1.815,3.251,2.769,4.353.852.556-2.426.241-4.992.982-7.4,2.714,3.862,6.909,6.927,11.817,6.752-.213,4.168-.1,8.344-.13,12.512-21.542.38-43.093.028-64.635.2-1.574-.093-4.3.324-4.52-1.889a54,54,0,0,1,.009-9.076c8.567-.333,17.152-.028,25.728-.167.028-3.01.111-6.011.269-9l1.148.259c-.556,3.927-1.176,8.77,2.2,11.651,2.251,2.973,6.112,3.316,9.548,3.584.083-2.639.935-5.575-.333-8.03-2.436-3.14-5.761-5.492-8.048-8.78,3.964.741,5.557,4.862,8.715,6.9a81.186,81.186,0,0,0-.713-12.457A72.446,72.446,0,0,0,763.253,267.8Z" transform="translate(-723.756 -267.803)" fill="#ebede9"/>
      </g>
      <g id="Group_842" data-name="Group 842" transform="translate(886.327 245.42)">
        <path id="Path_7862" data-name="Path 7862" d="M899.663,269.293c2.047.4,1.148,2.806-.361,3.26A11.054,11.054,0,0,1,899.663,269.293Z" transform="translate(-899.293 -269.293)" fill="#213971"/>
      </g>
      <g id="Group_843" data-name="Group 843" transform="translate(874.515 248.236)">
        <path id="Path_7863" data-name="Path 7863" d="M887.83,276.88c-1.732-.917-1.584-3.279-.37-4.547a10.177,10.177,0,0,1,.463,3.918Z" transform="translate(-886.539 -272.333)" fill="#304c8c"/>
      </g>
      <g id="Group_844" data-name="Group 844" transform="translate(885.456 250.005)">
        <path id="Path_7864" data-name="Path 7864" d="M898.733,274.243c1.76.167.991,2.408-.38,2.538C898.445,276.142,898.64,274.873,898.733,274.243Z" transform="translate(-898.353 -274.243)" fill="#203669"/>
      </g>
      <g id="Group_845" data-name="Group 845" transform="translate(1066.499 250.486)">
        <path id="Path_7865" data-name="Path 7865" d="M1094.407,289.563c-.676-4.909-1.065-10.058.667-14.8A102.68,102.68,0,0,1,1094.407,289.563Z" transform="translate(-1093.835 -274.763)" fill="#d44f64"/>
      </g>
      <g id="Group_846" data-name="Group 846" transform="translate(884.428 254.506)">
        <path id="Path_7866" data-name="Path 7866" d="M897.854,279.1a1.885,1.885,0,0,1-.611,3.5A11.213,11.213,0,0,1,897.854,279.1Z" transform="translate(-897.243 -279.103)" fill="#1b3d6d"/>
      </g>
      <g id="Group_847" data-name="Group 847" transform="translate(871.944 257.812)">
        <path id="Path_7867" data-name="Path 7867" d="M887.023,282.673c3.251.2,5.807,2.362,8.4,4.1-1.213,6.807-2.445,13.6-3.621,20.421a24.966,24.966,0,0,0-8.039.713C884.865,299.5,885.921,291.082,887.023,282.673Z" transform="translate(-883.763 -282.673)" fill="#cddce2"/>
      </g>
      <g id="Group_848" data-name="Group 848" transform="translate(895.079 265.036)">
        <path id="Path_7868" data-name="Path 7868" d="M909.836,292.01c-2.2.241-.528-2.973.306-.75Z" transform="translate(-908.744 -290.473)" fill="#203761"/>
      </g>
      <g id="Group_849" data-name="Group 849" transform="translate(1092.939 265.942)">
        <path id="Path_7869" data-name="Path 7869" d="M1122.383,292.24c.843-2.2,2.575.935.343.713Z" transform="translate(-1122.383 -291.452)" fill="#93172d"/>
      </g>
      <g id="Group_850" data-name="Group 850" transform="translate(1020.857 266.337)">
        <path id="Path_7870" data-name="Path 7870" d="M1065.576,292.577a17.882,17.882,0,0,1,9.576-.093c3.64,3.112,1.7,8.595,3.492,12.642.12-.741.352-2.241.472-2.991.278,1.88.593,3.76.843,5.659-11.8-.065-23.607.213-35.406.046C1052.768,304.552,1058.121,297.041,1065.576,292.577Z" transform="translate(-1044.553 -291.878)" fill="#cedbe1"/>
      </g>
      <g id="Group_851" data-name="Group 851" transform="translate(890.282 267.657)">
        <path id="Path_7871" data-name="Path 7871" d="M903.563,307.779c1.852-4.816,3.7-9.632,5.483-14.475.185.583.546,1.75.732,2.334,4.168,4.612,9.836,7.567,13.957,12.216C917.01,307.732,910.287,308.251,903.563,307.779Z" transform="translate(-903.563 -293.303)" fill="#cadce2"/>
      </g>
      <g id="Group_852" data-name="Group 852" transform="translate(929.04 282.086)">
        <path id="Path_7872" data-name="Path 7872" d="M1159.068,308.92c4.121,0,8.243.25,12.364-.037.25.306.759.908,1.019,1.213.676,5.881,1.611,11.743,2.287,17.624-.546,2.315-3.158,1.7-4.918,1.852-7.631-.065-15.272-.028-22.894-.093-.176-1.195-.352-2.389-.537-3.575a48.221,48.221,0,0,0-1.787-6.224c1-3.5.222-7.094-.019-10.632C1149.408,308.855,1154.243,309.059,1159.068,308.92Z" transform="translate(-960.125 -308.883)" fill="#f6f6f0"/>
        <path id="Path_7873" data-name="Path 7873" d="M947.4,309.09q44.913.1,89.826.019c11.8.167,23.607-.111,35.406-.046.352,2.584.547,5.2,1.074,7.761.278.954.583,1.908.907,2.853-.417.2-1.26.593-1.676.787a13.439,13.439,0,0,1-8.771,7.761,12.337,12.337,0,0,0-3.5.306,7.516,7.516,0,0,0-3.89,1.621c-10.4-1.1-20.875-.482-31.313-.593-26.478-.093-52.966.111-79.444-.13-.222-1.593-.454-3.177-.611-4.77C945.969,319.453,946.719,314.276,947.4,309.09Z" transform="translate(-945.413 -308.895)" fill="#f6f6f0"/>
      </g>
      <g id="Group_853" data-name="Group 853" transform="translate(1102.024 283.281)">
        <path id="Path_7874" data-name="Path 7874" d="M1133.8,312.368c2.01-.778,4.047-1.491,6.085-2.195a23.822,23.822,0,0,0,.556,5.122c.343.269,1.037.815,1.389,1.084l-.4.065c-.6.269-1.787.8-2.38,1.056-1.732-.157-3.445-.37-5.149-.621-.565-1.185-1.139-2.352-1.713-3.51C1132.721,313.016,1133.258,312.692,1133.8,312.368Z" transform="translate(-1132.193 -310.173)" fill="#f5b692"/>
      </g>
      <g id="Group_854" data-name="Group 854" transform="translate(877.927 286.198)">
        <path id="Path_7875" data-name="Path 7875" d="M892,313.323c1.871.287,3.732.6,5.594,1.009,2.334,3.427-.426,7.5-4.066,8.335-1.139-.769-2.223-1.593-3.306-2.408A37.575,37.575,0,0,0,892,313.323Z" transform="translate(-890.223 -313.323)" fill="#f3b591"/>
      </g>
      <g id="Group_855" data-name="Group 855" transform="translate(1057.338 289.856)">
        <path id="Path_7876" data-name="Path 7876" d="M1083.943,317.43q1.722-.014,3.473-.056c1.639-.046,3.279-.074,4.927-.1a40.99,40.99,0,0,0-.352,4.649c-1.121.269-2.25.546-3.362.824q-1.89-1.25-3.779-2.464C1084.526,319.338,1084.221,318.384,1083.943,317.43Z" transform="translate(-1083.943 -317.273)" fill="#f6b69b"/>
      </g>
      <g id="Group_856" data-name="Group 856" transform="translate(863.414 290.335)">
        <path id="Path_7877" data-name="Path 7877" d="M874.859,318a49.373,49.373,0,0,1,6.724-.157c.074,2.13.074,4.279.019,6.427-2.167,1.232-4.51,3.149-6.8.945A25.107,25.107,0,0,1,874.859,318Z" transform="translate(-874.553 -317.789)" fill="#f7b996"/>
      </g>
      <g id="Group_857" data-name="Group 857" transform="translate(874.046 293.135)">
        <path id="Path_7878" data-name="Path 7878" d="M886.033,325.638a36.719,36.719,0,0,1,3.88-4.825c1.083.815,2.167,1.639,3.306,2.408a2.76,2.76,0,0,0,3.89-.259c1.51,1.537,2.612,3.417,4.094,4.992,2.769,1.547,5.974,2.056,9.039,2.76-1.519,1.621-3.7,2.149-5.8,2.556-.722-1.63-2.843-1.352-3.853-.194l-.963-.111c-.083-1.38-.157-2.76-.231-4.14A91.954,91.954,0,0,0,886.033,325.638Z" transform="translate(-886.033 -320.813)" fill="#272854"/>
      </g>
      <g id="Group_858" data-name="Group 858" transform="translate(881.233 294.884)">
        <path id="Path_7879" data-name="Path 7879" d="M893.793,323.36a3.914,3.914,0,0,1,3.89-.259A2.76,2.76,0,0,1,893.793,323.36Z" transform="translate(-893.793 -322.701)" fill="#10071e"/>
      </g>
      <g id="Group_859" data-name="Group 859" transform="translate(862.822 296.812)">
        <path id="Path_7880" data-name="Path 7880" d="M874.756,325.728c2.288,2.2,4.631.287,6.8-.945,1.269.093,2.371.815,3.584,1.148a91.958,91.958,0,0,1,13.364,3.186c.074,1.38.148,2.76.232,4.14a20.5,20.5,0,0,0-5.733.056,12.02,12.02,0,0,0-4.325-.88c-4.436-.009-8.872-.658-13.309-.241-.482-.982-.972-1.963-1.454-2.936C874.191,328.08,874.478,326.9,874.756,325.728Z" transform="translate(-873.913 -324.783)" fill="#0f395b"/>
      </g>
      <g id="Group_860" data-name="Group 860" transform="translate(1107.59 299.303)">
        <path id="Path_7881" data-name="Path 7881" d="M1138.323,330.474a2.276,2.276,0,0,1,1.852-3c-.157.611-.472,1.824-.63,2.427C1139.24,330.048,1138.629,330.335,1138.323,330.474Z" transform="translate(-1138.203 -327.473)" fill="#020627"/>
      </g>
      <g id="Group_861" data-name="Group 861" transform="translate(1112.786 299.109)">
        <path id="Path_7882" data-name="Path 7882" d="M1143.813,328.56c.833-.435,1.676-.871,2.519-1.3.185,1.185.361,2.38.537,3.575.12.9.241,1.806.38,2.714-.759.315-1.51.639-2.26.963C1144.591,332.533,1144.248,330.532,1143.813,328.56Z" transform="translate(-1143.813 -327.263)" fill="#c9cdcc"/>
      </g>
      <g id="Group_862" data-name="Group 862" transform="translate(862.266 301.285)">
        <path id="Path_7883" data-name="Path 7883" d="M873.869,329.613c.482.972.972,1.954,1.454,2.936,4.436-.417,8.872.232,13.309.241a12.02,12.02,0,0,1,4.325.88c-6.539,1.287-13.133-1.01-19.643.472.093-.759.269-2.269.361-3.019Z" transform="translate(-873.313 -329.613)" fill="#162b44"/>
      </g>
      <g id="Group_863" data-name="Group 863" transform="translate(1044.298 301.396)">
        <path id="Path_7884" data-name="Path 7884" d="M1069.863,330.057a12.336,12.336,0,0,1,3.5-.306C1072.808,331.326,1070.521,331.845,1069.863,330.057Z" transform="translate(-1069.863 -329.733)" fill="#041c3a"/>
      </g>
      <g id="Group_864" data-name="Group 864" transform="translate(888.605 304.449)">
        <path id="Path_7885" data-name="Path 7885" d="M901.753,333.977c1.01-1.158,3.13-1.436,3.853.194A7.179,7.179,0,0,1,901.753,333.977Z" transform="translate(-901.753 -333.029)" fill="#070a26"/>
      </g>
      <g id="Group_865" data-name="Group 865" transform="translate(1046.511 304.599)">
        <path id="Path_7886" data-name="Path 7886" d="M1072.253,333.952a43.4,43.4,0,0,1,12.243-.6l-.741.824A70.151,70.151,0,0,1,1072.253,333.952Z" transform="translate(-1072.253 -333.192)" fill="#041834"/>
      </g>
    </g>
  </g>
</svg>
