<svg xmlns="http://www.w3.org/2000/svg" width="201.891" height="195.456" viewBox="0 0 201.891 195.456">
  <g id="proass" transform="translate(-1 -2.036)">
    <path id="Path_1718" data-name="Path 1718" d="M164.89,65.206v48.873H2.4V65.206a24.31,24.31,0,0,1,24.3-24.3H63.254L83.936,54.558l20.1-13.652H140.59A24.31,24.31,0,0,1,164.89,65.206Z" transform="translate(2.954 81.861)" fill="#fff"/>
    <path id="Path_1721" data-name="Path 1721" d="M36.024,18.328a1.552,1.552,0,0,0-1.917-2.442,104.463,104.463,0,0,0-33,44.6A1.554,1.554,0,1,0,4,61.6,101.353,101.353,0,0,1,36.024,18.328ZM140.877,6.381a101.813,101.813,0,0,1,46.593,44.7,1.553,1.553,0,0,0,2.751-1.441A104.944,104.944,0,0,0,142.2,3.569a1.554,1.554,0,0,0-1.323,2.812Z" transform="translate(0 2.918)" fill="#241f6a"/>
    <path id="Path_1722" data-name="Path 1722" d="M199.789,102.179l-7.225-1.68a27.431,27.431,0,0,0-1.981-4.78l3.917-6.3a1.551,1.551,0,0,0-.22-1.919l-7.955-7.953a1.544,1.544,0,0,0-.83-.418c-8.651-35.478-38.115-63.716-75.321-69.373A45.678,45.678,0,0,0,45.892,23.719,91.484,91.484,0,0,0,9,129.325a25.739,25.739,0,0,0-7.1,17.742v48.871a1.552,1.552,0,0,0,1.553,1.553H165.943a1.552,1.552,0,0,0,1.553-1.553V158.352a91.852,91.852,0,0,0,13.082-21.46l3.83,2.384a1.55,1.55,0,0,0,1.919-.221l7.955-7.953a1.549,1.549,0,0,0,.22-1.917l-3.92-6.3a28.218,28.218,0,0,0,1.979-4.741l7.23-1.68a1.554,1.554,0,0,0,1.2-1.514V103.693A1.554,1.554,0,0,0,199.789,102.179ZM182.643,80.434l-4.515,2.823a31.744,31.744,0,0,0-4.761-1.973l-1.685-7.211a1.553,1.553,0,0,0-1.512-1.2H158.918a1.553,1.553,0,0,0-1.512,1.2l-1.683,7.208a31,31,0,0,0-4.762,1.976l-6.277-3.923a1.555,1.555,0,0,0-1.92.217L134.779,87.5a1.553,1.553,0,0,0-.224,1.917l3.925,6.338a30.282,30.282,0,0,0-1.975,4.738l-7.207,1.683a1.557,1.557,0,0,0-1.2,1.514v11.253a1.554,1.554,0,0,0,1.2,1.514l7.23,1.68a29.681,29.681,0,0,0,1.183,3.073H106.645V106.531a36.933,36.933,0,0,0,14.491-23.653h1.15a16.512,16.512,0,0,0,7.988-30.994V47.539a45.116,45.116,0,0,0-14.9-33.626A89.416,89.416,0,0,1,182.643,80.434Zm-88.254,85.36-2.27-15.889,1.756-4.79,10.5,7.975A75.169,75.169,0,0,1,94.389,165.794ZM85.733,5.155a42.418,42.418,0,0,1,41.425,42.389v3.011a16.607,16.607,0,0,0-5.816-.815,36.935,36.935,0,0,0-73.245,0h-.949a16.338,16.338,0,0,0-4.871.815V47.544A42.412,42.412,0,0,1,85.733,5.155Zm35.939,71.7V52.846h.614a13.463,13.463,0,0,1,0,26.926h-.614ZM84.717,20.7a33.787,33.787,0,0,1,33.439,28.748A28.628,28.628,0,0,1,85.992,38.467a1.553,1.553,0,0,0-2.551,0A28.628,28.628,0,0,1,51.285,49.453,33.8,33.8,0,0,1,84.717,20.7ZM47.147,52.846h.614V79.771h-.614a13.463,13.463,0,0,1,0-26.926Zm3.72,1.706c0-.671.074-1.315.111-1.967A31.611,31.611,0,0,0,84.716,41.95a31.61,31.61,0,0,0,33.738,10.634c.215,3.738.021-4.792.111,24.271a34.014,34.014,0,0,1-.212,3.695l-10.611,6.125H94.8c-1.791-3.875-9.9-5.986-12.813-5.986a7.539,7.539,0,1,0,0,15.078c2.912,0,11.023-2.11,12.813-5.986h13.359a1.551,1.551,0,0,0,.777-.208l8.716-5.031a33.833,33.833,0,0,1-66.784-7.687v-22.3ZM92.061,88.228c0,1.74-6.693,4.433-10.075,4.433a4.433,4.433,0,1,1,0-8.866C85.368,83.8,92.061,86.489,92.061,88.228Zm-2.627,59.98H80l-1.781-4.843,6.76-5.009,6.311,4.794Zm-4.718-34.4a36.677,36.677,0,0,0,18.823-5.21v13.343L84.977,134.55,65.861,121.928v-13.35A36.676,36.676,0,0,0,84.717,113.809Zm-20.874,10.51,18.437,12.17-6.847,5.061c-.011.008-.011.023-.022.031l-11.959,8.86a59.461,59.461,0,0,1-7.737-26.122h8.127Zm11.775,20.973,1.688,4.592-2.28,15.9a74.411,74.411,0,0,1-9.979-12.661Zm2.164,23.165,2.458-17.142h8.945L91.639,168.5a83.068,83.068,0,0,1-6.911,5.863C82.548,172.7,79.319,169.9,77.78,168.456ZM105.966,150.4l-11.858-9.007c-.012-.009-.012-.026-.024-.035l-6.431-4.871,17.919-12.169h8.144A59.755,59.755,0,0,1,105.966,150.4ZM42.806,29.694a47.029,47.029,0,0,0-3.652,17.845v4.347a16.512,16.512,0,0,0,7.992,30.992H48.3a36.932,36.932,0,0,0,14.458,23.628v14.707h-35a25.718,25.718,0,0,0-16.222,5.752,88.162,88.162,0,0,1,31.273-97.27ZM164.389,194.385H135.9v-15.02a1.553,1.553,0,1,0-3.106,0v15.02H36.61v-15.02a1.553,1.553,0,1,0-3.106,0v15.02H5.008V147.068a22.774,22.774,0,0,1,22.747-22.749H52.663a62.669,62.669,0,0,0,8.7,28.777,1.524,1.524,0,0,0,.265.629,1.467,1.467,0,0,0,.29.242,82.89,82.89,0,0,0,21.869,23.59,1.549,1.549,0,0,0,.93.309l.005,0,.005,0a1.543,1.543,0,0,0,.921-.3,83.006,83.006,0,0,0,21.777-23.5,1.333,1.333,0,0,0,.646-1.015,63.009,63.009,0,0,0,8.7-28.733h20.816l-3.026,4.865a1.556,1.556,0,0,0,.223,1.92l7.983,7.953a1.556,1.556,0,0,0,1.917.218l6.3-3.922a28.765,28.765,0,0,0,4.741,1.984l1.682,7.225a1.552,1.552,0,0,0,1.512,1.2h5.413c.028.433.059.864.059,1.3v47.318Zm3.045-48.622h2.737a1.552,1.552,0,0,0,1.512-1.2l1.683-7.228a28.9,28.9,0,0,0,4.442-1.841A88.786,88.786,0,0,1,167.5,153.38v-6.313C167.5,146.628,167.459,146.2,167.434,145.763Zm30.449-32.052-6.908,1.608a1.559,1.559,0,0,0-1.144,1.095,25.213,25.213,0,0,1-2.4,5.742,1.547,1.547,0,0,0,.029,1.592l3.749,6.027L185,135.987l-6.025-3.752a1.557,1.557,0,0,0-1.586-.03,25.7,25.7,0,0,1-5.751,2.4,1.549,1.549,0,0,0-1.093,1.143l-1.608,6.907h-8.787l-1.608-6.907a1.554,1.554,0,0,0-1.1-1.147,25.244,25.244,0,0,1-5.745-2.4,1.543,1.543,0,0,0-1.586.03l-6.029,3.752-6.236-6.212,3.748-6.027a1.553,1.553,0,0,0,.038-1.574,26.577,26.577,0,0,1-2.377-5.76,1.559,1.559,0,0,0-1.143-1.095l-6.908-1.608v-8.787l6.878-1.6a1.562,1.562,0,0,0,1.137-1.08,26.945,26.945,0,0,1,2.407-5.769,1.558,1.558,0,0,0-.03-1.583l-3.751-6.054,6.236-6.214,6,3.748a1.537,1.537,0,0,0,1.579.039A28.019,28.019,0,0,1,157.463,84a1.551,1.551,0,0,0,1.08-1.137l1.606-6.879h8.79l1.606,6.879a1.552,1.552,0,0,0,1.074,1.136,28.614,28.614,0,0,1,5.813,2.413,1.543,1.543,0,0,0,1.579-.039L185,82.621l6.209,6.207-3.749,6.028a1.55,1.55,0,0,0-.024,1.6,24.179,24.179,0,0,1,2.392,5.76,1.556,1.556,0,0,0,1.145,1.1l6.908,1.608v8.784Z" transform="translate(1.901 0)" fill="#241f6a"/>
    <path id="Path_1723" data-name="Path 1723" d="M67.234,30.418A19.111,19.111,0,1,0,86.328,49.546,19.148,19.148,0,0,0,67.234,30.418Zm0,35.115A16,16,0,1,1,83.222,49.546,16.023,16.023,0,0,1,67.234,65.534ZM77.485,110.3a1.552,1.552,0,0,0-1.553,1.553V131.2a1.553,1.553,0,1,0,3.106,0V111.851A1.552,1.552,0,0,0,77.485,110.3Z" transform="translate(99.211 59.774)" fill="#241f6a"/>
  </g>
</svg>
