<svg xmlns="http://www.w3.org/2000/svg" width="74.527" height="97.791" viewBox="0 0 74.527 97.791">
  <g id="Group_92" data-name="Group 92" transform="translate(-16.789 -1.492)">
    <path id="Path_908" data-name="Path 908" d="M86.126,77.25a2.74,2.74,0,0,0,2.8-1.738c.227-.831.076-2.569-3.4-4.609-4-2.342-4.76-9.066-7.857-12.768,6.2-3.551,3.627-13.071-3.475-13.071a7.137,7.137,0,0,0-6.8,5.213,54.636,54.636,0,0,0-2.72-6.5c2.871-4.609,5.893-8.764,8.613-12.315,5.138-2.871,7.48-9.9,5.742-15.564-4.533-14.2-32.412-22.666-38.909.6-1.511,5.364-1.587,26.67-1.587,31.581-.076.076-.076.151-.076.3q-2.493,3.626-5.213,7.026a103.964,103.964,0,0,0-10.8,1.813.588.588,0,0,0-.453.68c.227.982.6.076,10.2-1.209-2.267,2.8-5.062,6.044-9.52,11.182-6.346,7.48-7.933,20.021,0,26.9a17.481,17.481,0,0,0,11.408,4c6.346,0,12.239-2.947,15.337-7.782,5.289-8.16,2.947-17.679,6.649-29.163,6.2-.076,7.329-5.364,2.8-7.177.378-.756.756-1.587,1.133-2.342,2.72,5.289,3.929,6.2,3.929,11.937.076,7.933-.756,4.684-2.947,25.612-.68,6.271,3.627,8.915,6.271,5.591,1.435-1.738,1.511-4.231,1.587-5.969.378-8.613.378-9.293.68-10.426C72,83.672,74.491,89.792,78.268,92.889a3.742,3.742,0,0,0,5.062-.453c1.889-2.115.453-5.591-1.36-7.329-7.1-6.573-5.213-11.786-4.986-14.657,1.738,2.569,6.422,6.8,9.142,6.8ZM74.113,46.122c6.724,0,8.235,9.746,1.511,11.559a5.88,5.88,0,1,1-1.511-11.559ZM41.172,16.808c6.2-22.137,32.563-13.75,36.718-.529C79.7,22.1,76.682,28.9,71.846,30.936c-6.5,2.569-21.079-5.893-20.626-12.239v-.151c1.133-3.7,7.177-6.271,11.031-5.138,4.306,1.284,6.346,7.253,3.7,10.879a.567.567,0,1,0,.907.68,8.251,8.251,0,0,0,.907-7.329c-3.853-11.106-19.341-3.324-17.906,2.418-.907,7.857-3.627,16.546-10.2,26.519,0-7.857.227-25.234,1.511-29.768ZM38.981,49.522a28.588,28.588,0,0,0,3.324,4.986c-2.493.227-4.986.378-7.48.68C36.261,53.375,37.7,51.487,38.981,49.522Zm9.52,40.8a17.229,17.229,0,0,1-14.355,7.253A16.223,16.223,0,0,1,23.493,93.8c-7.4-6.422-5.893-18.284.151-25.31.982-1.133,1.889-2.191,2.8-3.249,2.644-3.1,5.138-5.969,7.48-8.84,3.173-.378,6.422-.68,9.6-.907,3.022,2.72,7.329,5.666,11.408,6.12C51.3,73.246,53.563,82.463,48.5,90.32Zm6.724-29.692c-3.626-.3-7.631-2.947-10.124-5.138,6.12-.378,9.217-.756,12.164-.151A54.851,54.851,0,0,0,55.225,60.628Zm1.209,0c.6-1.662,1.209-3.4,1.964-4.986C61.8,56.926,60.891,60.4,56.434,60.628Zm1.284-6.422c-2.871-.831-9.066-.151-13.826.151a21.53,21.53,0,0,1-4.155-5.893c5.289-7.782,9.671-17.075,10.955-26.443C53.714,27.839,64.9,33.807,71.166,32.3c-.3.453-3.778,4.911-7.329,10.577-1.662-1.435-4.382-1.587-5.213.3-1.209,2.569-.453,5.213.68,7.782-.6,1.058-1.058,2.115-1.587,3.249Zm17.83,13.222.076.227c1.284,4.155-3.551,9.822,5.515,18.208,1.36,1.284,2.8,4.08,1.284,5.742a2.59,2.59,0,0,1-3.551.3c-5.44-4.382-8.688-16.848-10.048-14.506-2.115,3.778-.076,14.053-2.644,17.226-1.964,2.418-4.76.076-4.306-4.76,1.284-12.391,1.058-11.031,1.738-14.43,3.1-15.866-.227-18.435-3.249-24.479-1.133-2.342-1.964-4.911-.907-7.329.6-1.36,3.324-.831,4.306,1.209.6,1.209,2.418,6.346,3.173,7.933A7,7,0,0,0,76.3,58.589c.227.3,1.058.907,3.173,5.893,1.209,2.871,2.493,5.818,5.138,7.329,5.44,3.173,2.04,5.138-.151,3.929-4.835-2.644-6.951-5.591-8.084-8.688.076-.68-.982-.3-.831.378Z" transform="translate(0 0)" fill="#fff" stroke="#fff" stroke-width="1"/>
    <path id="Path_909" data-name="Path 909" d="M69.519,98.714c-3.627-.529,2.8.227-5.138-.756-.529-.076-.907-.151-.907-.151A.57.57,0,1,0,63.4,98.94h.982c5.44-.378,4.458-.227,5.138-.227ZM96.038,75.141a4.257,4.257,0,0,0-3.1-4.609.583.583,0,1,0-.227,1.133,3.377,3.377,0,0,1,2.947,2.493,6.369,6.369,0,0,1,.227,2.04C95.962,76.2,96.038,75.746,96.038,75.141ZM83.949,43.032c2.8.6,4.684,1.889,5.364,6.724,0-4.609-2.191-7.026-4.684-7.706a1.522,1.522,0,0,1-.453-.151C83.345,41.747,83.118,42.956,83.949,43.032ZM44.284,4.349c.3-.151,1.284-.3.907-1.058-.151-.3-.453-.453-.907-.227-5.44,2.871-6.271,8.084-5.213,14.053A24.846,24.846,0,0,1,39,12.055C39.6,8.051,41.716,5.482,44.284,4.349Z" transform="translate(-5.228 -0.234)" fill="#fff" stroke="#fff" stroke-width="1"/>
  </g>
</svg>
