<svg xmlns="http://www.w3.org/2000/svg" width="116.224" height="128.002" viewBox="0 0 116.224 128.002">
  <path id="qual" d="M52.43,113H36.68a1.875,1.875,0,0,0,0,3.75H52.43a1.875,1.875,0,1,0,0-3.75ZM47.055,35.751A12.25,12.25,0,1,0,34.805,23.5a12.25,12.25,0,0,0,12.25,12.25Zm0-20.75a8.5,8.5,0,1,1-8.5,8.5,8.5,8.5,0,0,1,8.5-8.5ZM78.681,88.251h-42a1.875,1.875,0,1,0,0,3.75h42a1.875,1.875,0,1,0,0-3.75Zm57.134-54.125a16.855,16.855,0,0,1-2.225-2.715,17.832,17.832,0,0,1-1.318-3.422c-.808-2.57-1.723-5.482-4.287-6.966-2.486-1.438-5.428-.8-8.024-.235-.655.143-1.293.28-1.9.386V9.375A9.386,9.386,0,0,0,108.681,0H32.93a9.386,9.386,0,0,0-9.375,9.375V118.627A9.386,9.386,0,0,0,32.93,128h75.751a9.386,9.386,0,0,0,9.375-9.375V87.882l4.2,3.1a2.625,2.625,0,0,0,4.183-2.112V62.527a6.205,6.205,0,0,0,1.541-.628c2.564-1.484,3.479-4.4,4.287-6.966a17.805,17.805,0,0,1,1.319-3.422,16.83,16.83,0,0,1,2.225-2.715c1.858-1.994,3.964-4.255,3.964-7.335S137.673,36.12,135.815,34.126Zm-21.508,84.5a5.632,5.632,0,0,1-5.625,5.625H32.93a5.632,5.632,0,0,1-5.625-5.625V9.375A5.632,5.632,0,0,1,32.93,3.75h75.751a5.632,5.632,0,0,1,5.625,5.625v11.8c-.612-.106-1.249-.243-1.9-.386-2.6-.564-5.538-1.2-8.023.235-2.564,1.483-3.479,4.4-4.287,6.966a17.843,17.843,0,0,1-1.318,3.422,16.865,16.865,0,0,1-2.225,2.715c-1.859,1.994-3.965,4.255-3.965,7.336a6.7,6.7,0,0,0,.247,1.789H36.68a1.875,1.875,0,1,0,0,3.75H94.945c.518.629,1.071,1.224,1.6,1.8a16.841,16.841,0,0,1,2.225,2.715A15.552,15.552,0,0,1,99.955,54.5H36.68a1.875,1.875,0,0,0,0,3.75H101.3a7.762,7.762,0,0,0,3.083,3.649,6.2,6.2,0,0,0,1.541.627v3.225H35.43a1.875,1.875,0,0,0,0,3.75h70.489V77H35.43a1.875,1.875,0,0,0,0,3.75h70.489v8.118a2.623,2.623,0,0,0,4.183,2.112l4.205-3.1Zm8.388-31.986-4.956-3.652a2.614,2.614,0,0,0-3.114,0l-4.955,3.652V62.65c.93-.125,1.852-.325,2.733-.516a18.842,18.842,0,0,1,3.779-.575,18.845,18.845,0,0,1,3.779.575c.882.192,1.8.39,2.733.515Zm10.377-40.4a19.675,19.675,0,0,0-2.728,3.394,20.755,20.755,0,0,0-1.65,4.175c-.661,2.1-1.286,4.091-2.587,4.844-1.229.712-3.23.277-5.349-.184a21.794,21.794,0,0,0-4.576-.66,21.8,21.8,0,0,0-4.576.66c-2.119.461-4.12.9-5.349.184-1.3-.753-1.926-2.74-2.587-4.844a20.694,20.694,0,0,0-1.65-4.175,19.643,19.643,0,0,0-2.727-3.394c-1.521-1.633-2.958-3.175-2.958-4.779s1.437-3.147,2.958-4.779a19.7,19.7,0,0,0,2.728-3.394,20.741,20.741,0,0,0,1.65-4.175c.661-2.1,1.286-4.091,2.588-4.844a3.381,3.381,0,0,1,1.707-.376,18.491,18.491,0,0,1,3.642.56,21.8,21.8,0,0,0,4.576.66,21.792,21.792,0,0,0,4.576-.66c2.118-.46,4.119-.9,5.349-.184,1.3.753,1.926,2.741,2.587,4.845a20.713,20.713,0,0,0,1.65,4.175,19.652,19.652,0,0,0,2.728,3.394c1.521,1.633,2.958,3.175,2.958,4.779S134.592,44.608,133.071,46.24Zm-5.512-9.218a7.213,7.213,0,0,1-1.585-1.215,7.115,7.115,0,0,1-.3-2.084c-.106-1.788-.238-4.013-2.09-5.084-1.807-1.046-3.768-.073-5.343.71a7.165,7.165,0,0,1-2.063.807,7.165,7.165,0,0,1-2.063-.807c-1.575-.782-3.536-1.755-5.343-.71-1.852,1.072-1.984,3.3-2.09,5.084a7.135,7.135,0,0,1-.3,2.084,7.212,7.212,0,0,1-1.585,1.215c-1.528.994-3.428,2.231-3.428,4.439s1.9,3.445,3.428,4.439a7.2,7.2,0,0,1,1.585,1.215,7.128,7.128,0,0,1,.3,2.085c.106,1.788.238,4.013,2.09,5.084,1.808,1.046,3.768.072,5.344-.709a7.163,7.163,0,0,1,2.063-.807,7.167,7.167,0,0,1,2.063.807,8.568,8.568,0,0,0,3.621,1.166,3.373,3.373,0,0,0,1.723-.456c1.852-1.072,1.984-3.3,2.09-5.084a7.121,7.121,0,0,1,.3-2.085,7.211,7.211,0,0,1,1.585-1.215c1.527-.994,3.428-2.23,3.428-4.439s-1.9-3.445-3.428-4.439Zm-2.045,5.734a8.129,8.129,0,0,0-2.786,2.48,8.39,8.39,0,0,0-.794,3.741,9.74,9.74,0,0,1-.245,1.994,10.171,10.171,0,0,1-1.777-.757,8.635,8.635,0,0,0-3.731-1.2,8.632,8.632,0,0,0-3.731,1.2,10.179,10.179,0,0,1-1.777.757,9.776,9.776,0,0,1-.245-1.994,8.379,8.379,0,0,0-.794-3.741,8.118,8.118,0,0,0-2.786-2.48,8.412,8.412,0,0,1-1.692-1.3,8.4,8.4,0,0,1,1.692-1.3,8.117,8.117,0,0,0,2.786-2.48,8.389,8.389,0,0,0,.794-3.741,9.739,9.739,0,0,1,.245-1.994,10.177,10.177,0,0,1,1.777.756,8.629,8.629,0,0,0,3.731,1.2,8.632,8.632,0,0,0,3.731-1.2,10.2,10.2,0,0,1,1.777-.756,9.777,9.777,0,0,1,.245,1.994,8.379,8.379,0,0,0,.794,3.741,8.121,8.121,0,0,0,2.786,2.48,8.422,8.422,0,0,1,1.693,1.3A8.421,8.421,0,0,1,125.514,42.757Zm-24.649,68.092a6.62,6.62,0,0,1-5.478,1.706,5.976,5.976,0,0,1-3.14-1.639,5.873,5.873,0,0,0-7.442-.56l-3.817,2.664a1.875,1.875,0,1,0,2.147,3.075l3.817-2.664a2.117,2.117,0,0,1,2.685.176,9.662,9.662,0,0,0,5.084,2.637,10.424,10.424,0,0,0,8.781-2.73,1.875,1.875,0,1,0-2.636-2.667Z" transform="translate(-23.555)" fill="#28236d"/>
</svg>
