<svg xmlns="http://www.w3.org/2000/svg" width="92.436" height="69.327" viewBox="0 0 92.436 69.327">
    <g data-name="Group 695">
        <path data-name="Path 1034" d="M93.436 7H1v69.327h92.436zm-3.852 65.475H4.851V10.851h84.733z" transform="translate(-1 -7)" style="fill:#312b73"/>
        <path data-name="Path 1035" d="M37.812 39.035a9.631 9.631 0 0 0-7.9-9.453 9.539 9.539 0 0 0 2.12-5.952 9.629 9.629 0 1 0-19.257 0 9.527 9.527 0 0 0 2.12 5.952A9.631 9.631 0 0 0 7 39.035v13.48h30.812zM22.406 17.851a5.777 5.777 0 1 1-5.777 5.777 5.784 5.784 0 0 1 5.777-5.777zM33.96 48.663H10.851v-9.628a5.784 5.784 0 0 1 5.777-5.777h11.555a5.784 5.784 0 0 1 5.777 5.777zm9.629-28.886h13.48v3.851h-13.48zm19.257 0h13.48v3.851h-13.48zm-19.257 9.629h5.777v3.851h-5.777zm11.554 0h21.184v3.851H55.144zm-11.554 9.629h15.406v3.851H43.589zm25.035 0h7.7v3.851h-7.7zm-25.035 9.628h3.851v3.851h-3.851zm7.7 0h3.851v3.851h-3.848zm7.7 0h3.851v3.851h-3.845zm13.48 0h3.851v3.851h-3.845z" transform="translate(4.554 -.52)" style="fill:#312b73"/>
    </g>
</svg>
