<svg xmlns="http://www.w3.org/2000/svg" width="256.524" height="78.482" viewBox="0 0 256.524 78.482">
  <g id="Mask-Group-9111_Converted_" data-name="Mask-Group-9111 [Converted]" transform="translate(0)" opacity="0.6">
    <g id="Group_16" data-name="Group 16" transform="translate(0 0)">
      <path id="Path_17" data-name="Path 17" d="M256.837,1.95a116.416,116.416,0,0,1-25.612,19.571,204.788,204.788,0,0,1-32.69,14.911c-9.743,3.49-19.638,6.543-29.551,9.514-26.559,7.921-53.4,14.983-80.6,20.319-13.028,2.609-26.173,4.58-39.313,6.535C32.875,75.246,16.639,77.427.51,80.246a26.119,26.119,0,0,0,5.578-.63C29.614,75.855,53.266,72.9,76.734,68.779c24.2-4.309,48.141-9.975,71.8-16.627q5.011-1.384,10.014-2.8a34.3,34.3,0,0,1,4.08-1.029,29.671,29.671,0,0,1-3.655,1.237,742.289,742.289,0,0,1-76.437,19.51c-17.393,3.437-34.94,5.987-52.421,8.908a8.74,8.74,0,0,1-1.809.09c-.011.13-.035.391-.045.521,12.773-2.107,25.577-4.014,38.324-6.256A735.96,735.96,0,0,0,168.561,46.878a18.908,18.908,0,0,1,1.91-.479,31.518,31.518,0,0,1-4.62,1.729A681.825,681.825,0,0,1,89.209,69.5c-19.183,4.16-38.566,7.307-57.887,10.738a21.471,21.471,0,0,0,5.184-.6c12.938-2.216,25.875-4.423,38.757-6.932a660.624,660.624,0,0,0,74.83-19.069c9.677-3.056,19.258-6.4,28.852-9.7a8.059,8.059,0,0,1,1.984-.545c-.184.255-.532.293-.8.434A661.059,661.059,0,0,1,101.2,68.66c-18.515,4.54-37.252,8.1-55.99,11.573a15.175,15.175,0,0,0,4.091-.484c11.807-2.261,23.649-4.36,35.4-6.94a634.5,634.5,0,0,0,72.684-20.353q15.082-5.215,29.95-11.017a18.461,18.461,0,0,1,1.939-.62,34.937,34.937,0,0,1-4.352,1.934c-16.739,6.945-33.738,13.273-51.035,18.68A645.772,645.772,0,0,1,68.824,78.054c-3.543.771-7.118,1.388-10.653,2.189a18.248,18.248,0,0,0,4.974-.7c12.172-2.506,24.33-5.086,36.384-8.107q17.667-4.409,35.049-9.865c16.308-5.1,32.352-11.025,48.154-17.523,4.325-1.8,8.661-3.578,12.97-5.421a18.56,18.56,0,0,1,2.037-.726,41.927,41.927,0,0,1-4.373,2.12A547.475,547.475,0,0,1,142.5,60.475,619.239,619.239,0,0,1,74.114,79.35c-1.311.3-2.639.535-3.934.9a17.1,17.1,0,0,0,4.389-.694A622.546,622.546,0,0,0,141.63,61.14q12.732-4.325,25.218-9.331C177.381,47.644,187.718,43,198.022,38.3c1.817-.787,3.564-1.742,5.447-2.37a25,25,0,0,1-4.211,2.274c-8.951,4.461-17.989,8.751-27.165,12.725A506.069,506.069,0,0,1,98.782,75.8c-5.881,1.561-11.8,2.992-17.7,4.458a12.1,12.1,0,0,0,1.615-.1c32.615-7.751,64.821-17.691,95.418-31.49,9.379-4.24,18.577-8.86,27.822-13.382a39.766,39.766,0,0,1,4.721-2.162c-.364.247-.734.492-1.115.716-8.682,4.8-17.449,9.459-26.365,13.807-24.785,12.118-50.915,21.274-77.445,28.729-4.748,1.349-9.536,2.556-14.289,3.889,1.881.013,3.636-.737,5.445-1.144,24.38-6.466,48.452-14.276,71.6-24.322,14.425-6.142,28.3-13.467,42.037-21.008a24.2,24.2,0,0,1,4.3-2.117,29.466,29.466,0,0,1-3.57,2.288c-8.77,5.277-17.662,10.358-26.772,15.026a382.1,382.1,0,0,1-46.7,19.784Q122.124,74.3,106.134,78.85c-1.623.495-3.285.859-4.886,1.431a9.551,9.551,0,0,0,2.037-.287c25.748-7.248,51.126-16.058,75.277-27.615,12.94-6.251,25.391-13.459,37.7-20.869a10.359,10.359,0,0,1,3.107-1.428c-.463.356-.936.7-1.434,1.013-8.873,5.6-17.6,11.448-26.756,16.574a345.74,345.74,0,0,1-49.569,22.287c-9.267,3.407-18.651,6.485-28.088,9.376a22.8,22.8,0,0,0-2.942,1,11.785,11.785,0,0,0,1.745-.325c11.456-3.466,22.822-7.246,34.025-11.464,16.672-6.349,33.068-13.56,48.53-22.5,8.331-4.764,16.329-10.073,24.386-15.273a11.694,11.694,0,0,1,3.8-2.006,33.8,33.8,0,0,1-4.083,3.093c-8.224,5.87-16.489,11.714-25.232,16.8-15.124,8.825-31.184,15.943-47.513,22.221-8.849,3.4-17.829,6.45-26.828,9.427a8.873,8.873,0,0,0,1.737-.266c10.472-3.418,20.877-7.067,31.11-11.15,17.874-7.118,35.368-15.393,51.516-25.9,7.11-4.6,13.994-9.538,20.827-14.539a6.536,6.536,0,0,1,2.391-1.037,46.444,46.444,0,0,1-4.032,3.359,245.8,245.8,0,0,1-27.516,19.6c-17.279,10.334-35.834,18.35-54.676,25.351-3.676,1.434-7.583,2.093-11.411,3-2.293.567-4.647.891-6.91,1.583,3.192.109,6.386.072,9.578-.019,2.093.181,4.014-.888,6.1-.862-.585.338-1.178.662-1.758,1.011,1.615-.144,3.056-.934,4.612-1.314a15.223,15.223,0,0,1,3.647-.524,24.2,24.2,0,0,1-4.575,1.708,29.693,29.693,0,0,0,6.628-.258,30.686,30.686,0,0,1,3.381-.332c-.354.21-.71.418-1.067.63,1.926-.314,3.761-1.1,5.737-1.08-.747.354-1.5.7-2.229,1.1a6.811,6.811,0,0,0,3.4-.686,14.066,14.066,0,0,1,5.963-1.075c-1.16.676-2.436,1.1-3.628,1.708,2.176-.181,3.926-1.8,6.115-1.915-1.343.771-2.862,1.173-4.179,2,2.71-.516,5-2.436,7.828-2.466-1.625.912-3.45,1.426-5.014,2.455a23.52,23.52,0,0,0,4.043-1.519,17.878,17.878,0,0,1,7.11-1.452c-2.131,1.011-4.37,1.8-6.416,2.987,3.378-.649,6.131-3.258,9.634-3.415,25.561-2.53,51.107-5.357,76.482-9.389a10.365,10.365,0,0,0,3.171-.742,11.881,11.881,0,0,0-1.569.117c-24.452,3.9-49.064,6.682-73.695,9.158-1.564.157-3.123.354-4.695.4,2.476-1.221,4.876-2.793,7.655-3.216,23.013-3.069,46.029-6.221,68.878-10.376a11.389,11.389,0,0,0,3.45-.886,19.968,19.968,0,0,0-3.2.442c-21.284,3.886-42.72,6.889-64.164,9.746-1.694.218-3.383.5-5.091.6,1.391-.8,2.851-1.468,4.253-2.248a13.75,13.75,0,0,1,4.61-1.447q30.41-5.015,60.648-11.023a8.723,8.723,0,0,0,2.915-.846,41.463,41.463,0,0,0-4.413.8c-18.412,3.708-36.914,6.934-55.429,10.054a48.691,48.691,0,0,1-4.913.721c1.628-.894,3.229-1.833,4.868-2.7a25.181,25.181,0,0,1,5.987-1.7c16.909-3.5,33.823-7,50.655-10.871a11.094,11.094,0,0,0,3.272-.989,34.6,34.6,0,0,0-4.535.862q-19.953,4.4-39.935,8.671c-4.258.856-8.493,1.843-12.77,2.6,1.46-1.016,3.024-1.875,4.527-2.827a14.038,14.038,0,0,1,4.064-1.529c15.406-3.793,30.785-7.706,46.178-11.544a8.131,8.131,0,0,0,2.471-.888,31.43,31.43,0,0,0-4.274.968q-19.678,4.959-39.369,9.86c-2.061.471-4.091,1.072-6.168,1.471,2.527-1.692,4.915-3.8,7.932-4.554C228,51.988,240.8,48.126,253.643,44.447a13.347,13.347,0,0,0,3.391-1.189,32.717,32.717,0,0,0-4.764,1.208c-11.054,3.147-22.066,6.434-33.1,9.661-1.6.463-3.179.979-4.8,1.338a29.79,29.79,0,0,1,4.966-3.58,59.443,59.443,0,0,1,9.251-3.466c8.347-2.729,16.632-5.642,25.011-8.275a11.429,11.429,0,0,0,3.434-1.367,24.246,24.246,0,0,0-3.748,1.064c-10.807,3.53-21.574,7.176-32.373,10.733,1.115-1.013,2.277-1.974,3.4-2.971a18.562,18.562,0,0,1,5.306-2.718q11.993-4.736,24.117-9.137a12.463,12.463,0,0,0,3.293-1.426,31.626,31.626,0,0,0-4.165,1.365q-10.4,3.723-20.67,7.791c-1.769.673-3.506,1.436-5.312,2.016.923-1.064,1.915-2.069,2.936-3.04a16.833,16.833,0,0,1,4.6-2.564q9.663-4.421,19.5-8.434a10.551,10.551,0,0,0,3.1-1.532,14.888,14.888,0,0,0-1.684.529c-6.389,2.6-12.746,5.277-19.023,8.139-1.527.689-3.04,1.412-4.61,2.006,1.351-1.633,2.6-3.487,4.556-4.453q8.574-4.576,17.4-8.658a12.315,12.315,0,0,0,3.359-1.838,19.935,19.935,0,0,0-3.1,1.282c-4.442,2.077-8.873,4.176-13.225,6.434-1.6.766-3.125,1.673-4.767,2.341,1.083-1.426,2.048-3.035,3.586-4.022q7.246-4.429,14.757-8.4a7.369,7.369,0,0,0,2.75-1.822,16.585,16.585,0,0,0-1.524.676c-4.556,2.394-9.06,4.884-13.48,7.517q-1.121.674-2.3,1.25a12.63,12.63,0,0,1,3.317-3.987c3.687-2.532,7.4-5.027,11.222-7.36a8.492,8.492,0,0,0,2.761-2.037,15.776,15.776,0,0,0-1.6.811q-4.393,2.625-8.661,5.455c-1.2.779-2.359,1.617-3.628,2.282,1.474-2.979,4.338-4.814,6.894-6.767,2.1-1.535,4.857-1.724,6.99-3.189-1.548.311-2.963,1.04-4.477,1.474a10.8,10.8,0,0,1,4.29-2.647c-.008-.577-.011-1.157-.016-1.734a38.425,38.425,0,0,1-4.644,1.686c1.362-1.4,3.325-1.851,4.846-3.008q-.854.16-1.7.367a4.732,4.732,0,0,0,1.686-2,20.964,20.964,0,0,1-4,1.825c1.037-1.354,2.838-1.623,4.016-2.79-.548.13-1.093.277-1.639.426l1.444-1.218c0-.537,0-1.075,0-1.615l-.888.181c.3-.322.6-.641.891-.963C256.84,4.711,256.842,3.33,256.837,1.95Zm-.729,5.836a3.6,3.6,0,0,1-1.878,1.338A5.971,5.971,0,0,1,256.108,7.786Zm-1.636,4.328a6.8,6.8,0,0,1-3.431,2.083A6.616,6.616,0,0,1,254.472,12.113Zm-6.065.931c.221.3-.277.7-.529.434C247.658,13.18,248.158,12.773,248.408,13.044Zm1.357.269c.122.367,0,.5-.38.4C249.262,13.348,249.387,13.212,249.765,13.313Zm6.325.809a14.407,14.407,0,0,1-6.179,3.032A12.624,12.624,0,0,1,256.09,14.122Zm-8.544.181a2.262,2.262,0,0,1-1.226.926A9.2,9.2,0,0,1,247.546,14.3Zm3.782.418a3.681,3.681,0,0,1-1.631,1.216A2.885,2.885,0,0,1,251.329,14.72Zm-2.7.21c.21.3-.287.713-.527.415C247.895,15.045,248.392,14.632,248.631,14.93Zm-2.016.814a2.607,2.607,0,0,1-1.777,1.133A5.913,5.913,0,0,1,246.615,15.744Zm5.517,1.2a8.64,8.64,0,0,1-4.57,2.381C248.671,17.9,250.493,17.446,252.132,16.941Zm-8.993.479c.117.4-.519.8-.862.609C242.168,17.633,242.8,17.236,243.139,17.42Zm2.075-.019a2.58,2.58,0,0,1-1.7,1.051A8.193,8.193,0,0,1,245.213,17.4Zm-.766,1.388a3.483,3.483,0,0,1-2.394,1.407A4.508,4.508,0,0,1,244.447,18.79Zm-2.112-.005a3.628,3.628,0,0,1-1.9.944A3.857,3.857,0,0,1,242.335,18.784Zm-2.431.13c.213.3-.3.694-.543.42C239.149,19.029,239.66,18.641,239.9,18.915Zm8.724.7a10.159,10.159,0,0,1-2,1.46A2.544,2.544,0,0,1,248.629,19.617Zm-7.7.5c-.327.87-1.245,1.109-2.053,1.306A8.057,8.057,0,0,1,240.931,20.12Zm-2.131.157c.032.45-.694.777-1.075.62C237.7,20.452,238.417,20.1,238.8,20.277Zm4.4.125a3.486,3.486,0,0,1-2.567,1.447A4.374,4.374,0,0,1,243.2,20.4Zm-5.663,1.109a2.639,2.639,0,0,1-1.939,1.194A8.809,8.809,0,0,1,237.534,21.511Zm-2.117.168c.128.4-.537.761-.867.564C234.425,21.841,235.087,21.481,235.417,21.678Zm4.418.088a4.264,4.264,0,0,1-2.663,1.378A4.27,4.27,0,0,1,239.835,21.766Zm2.133.2c-2.862,4.673-6.905,8.474-11.028,12.023-1.756,1.466-3.511,2.934-5.373,4.261,4.487-5.1,9.379-9.831,13.842-14.951A5.169,5.169,0,0,1,241.968,21.971Zm2.245.71c.173.356-.274.947-.665.838C243.373,23.16,243.822,22.575,244.213,22.681Zm-8.022.351a3.271,3.271,0,0,1-2.327,1.282A6.883,6.883,0,0,1,236.191,23.032Zm-2.373.138c.019.41-.559.583-.878.7-.372.168-.388-.3-.09-.4C233.124,23.3,233.481,23.035,233.819,23.171Zm4.522.144a48.507,48.507,0,0,1-3.266,3.9c-4.3,4.828-8.786,9.493-13.539,13.879-5.184,4.628-11.347,7.94-17.334,11.392a61.976,61.976,0,0,1-6.735,3.445,18.81,18.81,0,0,1,2.1-1.5,171.081,171.081,0,0,0,15.055-10.405,238.9,238.9,0,0,0,20.92-19.268A5.577,5.577,0,0,1,238.34,23.314ZM232.518,24.5a4.817,4.817,0,0,1-2.2,1.1A7.676,7.676,0,0,1,232.518,24.5Zm-1.742-.085a8.379,8.379,0,0,1-1.75.833A6.573,6.573,0,0,1,230.776,24.413Zm3.913.258c-4.062,4.269-8.32,8.357-12.682,12.318a154.287,154.287,0,0,1-23.593,17.686,97.188,97.188,0,0,1-9.748,5.4c-4.546,2.184-9.283,3.929-14.007,5.676-2.1.715-4.171,1.551-6.331,2.083.431-.242.864-.473,1.306-.686,13.111-6.017,25.952-12.749,37.784-21.037,8.57-6.017,16.449-12.938,24.242-19.912A6.071,6.071,0,0,1,234.688,24.671Zm-5.716,1.1a4.424,4.424,0,0,1-2.325,1.1A12.8,12.8,0,0,1,228.972,25.775Zm13.193-.043a5.06,5.06,0,0,1-2.532,2.8A6.682,6.682,0,0,1,242.165,25.732Zm-11.382.33a40.613,40.613,0,0,1-3.588,3.375q-7.489,6.647-15.382,12.821c-14.409,11.033-30.652,19.385-47.181,26.75a68.708,68.708,0,0,1-8.594,2.87c-4.253,1.21-8.482,2.575-12.829,3.421,2.072-1.053,4.312-1.724,6.453-2.62,17.768-6.985,35.227-14.988,51.36-25.258A299.831,299.831,0,0,0,227.77,27.61,6.372,6.372,0,0,1,230.784,26.062Zm-5.83,1.351c0,.415-.7.654-1.029.45C223.913,27.445,224.629,27.208,224.953,27.413ZM239.33,29.7a6.818,6.818,0,0,1-3.633,3.625A9.179,9.179,0,0,1,239.33,29.7Zm-2.072.114a.894.894,0,0,1-.859.963A.929.929,0,0,1,237.258,29.81Zm-3.038,3.514a3.819,3.819,0,0,1-1.809,1.9A7.941,7.941,0,0,1,234.22,33.323Zm1.992.564a8.119,8.119,0,0,1-4.761,4.181A9.851,9.851,0,0,1,236.212,33.887ZM231.369,36.8a10.749,10.749,0,0,1-3.391,3.2A9.5,9.5,0,0,1,231.369,36.8Zm-2.875.708c.114.4-.476.841-.843.7C227.544,37.816,228.129,37.369,228.493,37.51Zm4.131.8a22.106,22.106,0,0,1-2.354,2.729,10.28,10.28,0,0,1-3.7,1.862A14.519,14.519,0,0,1,232.624,38.311Zm-6.849,1.809a6.651,6.651,0,0,1-3.907,2.963A28.376,28.376,0,0,1,225.775,40.119ZM227,41.2a8.141,8.141,0,0,1-3.782,3.253A19.264,19.264,0,0,1,227,41.2Zm1.835,1.367c-1.043,1.067-2.115,2.1-3.205,3.12a10.176,10.176,0,0,1-4.264,1.923c.958-.841,1.894-1.7,2.825-2.569A13.472,13.472,0,0,1,228.834,42.569Zm-47.173.508-.011.245-.221.1L181.3,43.1l.144-.133Zm38.153.835a7.306,7.306,0,0,1-2.3,1.67A7.367,7.367,0,0,1,219.814,43.912Zm1.628.287a10.394,10.394,0,0,1-5.144,3.442A16.694,16.694,0,0,1,221.442,44.2Zm1.338,1.192a11.2,11.2,0,0,1-4.846,3.593A15.424,15.424,0,0,1,222.78,45.391Zm1.048,1.915q-1.684,1.4-3.335,2.833a11.592,11.592,0,0,1-5.173,2.277c1.107-.934,2.269-1.8,3.389-2.718A15.124,15.124,0,0,1,223.828,47.306Zm-8.107-.093a8.643,8.643,0,0,1-3.133,2.162A8.013,8.013,0,0,1,215.721,47.213Zm1.2.87a12.619,12.619,0,0,1-6.261,3.814A16.106,16.106,0,0,1,216.92,48.083Zm.8,1.577a15.9,15.9,0,0,1-6.346,4.112A24.934,24.934,0,0,1,217.724,49.66Zm-7.147,1.322a10.776,10.776,0,0,1-3.9,2.508A12.345,12.345,0,0,1,210.577,50.982Zm-2.3.138c.029.455-.686.846-1.1.694C207.19,51.371,207.877,51.017,208.281,51.121Zm9.445,1.077c-1.208,1.021-2.524,1.9-3.782,2.865a12.707,12.707,0,0,1-5.354,2.077c1.237-.9,2.5-1.774,3.726-2.692A15.612,15.612,0,0,1,217.726,52.2Zm-6.139-.011c-2.319,1.875-4.857,3.7-7.881,4.155C206.174,54.693,208.664,52.935,211.587,52.187Zm-7.73,1.873a9.717,9.717,0,0,1-3.953,2.131A13.141,13.141,0,0,1,203.858,54.06Zm7.195.484c-2,1.588-4.072,3.333-6.644,3.838C206.5,56.914,208.568,55.289,211.053,54.544Zm-6.176.348a13.769,13.769,0,0,1-4.243,2.484A10.825,10.825,0,0,1,204.876,54.892Zm.261,1.644c-1.2.88-2.474,1.662-3.745,2.434a14.667,14.667,0,0,1-4.83,1.646C199.259,58.951,201.948,57.092,205.137,56.536Zm5.833.5c-1.4,1.059-2.9,1.96-4.362,2.921a14.462,14.462,0,0,1-5.487,1.734c1.263-.785,2.548-1.532,3.777-2.367A15.9,15.9,0,0,1,210.97,57.039Zm-12.158.17a20.546,20.546,0,0,1-6.674,3.123A29.985,29.985,0,0,1,198.812,57.209Zm6.022,1.521a47.121,47.121,0,0,1-4.506,2.889,7.913,7.913,0,0,1-3.189,1.077C199.623,61.239,201.961,59.356,204.834,58.73Zm-6.671.186a13.321,13.321,0,0,1-4.764,2.527A23.831,23.831,0,0,1,198.163,58.917Zm-7.113,1.338a11.065,11.065,0,0,1-3.83,1.729A11.515,11.515,0,0,1,191.05,60.255Zm7.482.386c-1.282.766-2.58,1.505-3.87,2.264a14.42,14.42,0,0,1-5.525,1.673q1.835-.958,3.639-1.982A20.257,20.257,0,0,1,198.533,60.64Zm-6.315.229a18.715,18.715,0,0,1-7.1,2.979A27.553,27.553,0,0,1,192.218,60.869Zm11.581.758c-1.229.83-2.5,1.6-3.761,2.381a15.734,15.734,0,0,1-6.386,1.931c1.362-.777,2.748-1.519,4.08-2.346A15.22,15.22,0,0,1,203.8,61.627Zm-12.751,1.258a11.566,11.566,0,0,1-4.059,2.051A19.712,19.712,0,0,1,191.048,62.885Zm6.384.327c-1.357.915-2.809,1.676-4.229,2.487a9.424,9.424,0,0,1-3.226,1.037C192.3,65.266,194.662,63.643,197.431,63.212ZM185.151,63.2a16.177,16.177,0,0,1-5.346,2.224A18.275,18.275,0,0,1,185.151,63.2Zm3.373.282a20.491,20.491,0,0,1-5.1,2.527A30.623,30.623,0,0,1,188.523,63.486Zm2.9,1.144c-2.641,1.38-5.208,3.213-8.27,3.455.3.165.612.314.92.457-1.787.745-3.429,1.814-5.269,2.439a13.859,13.859,0,0,1-4.362.817c1.208-.62,2.421-1.221,3.639-1.814a17.63,17.63,0,0,1,5.227-1.439,3.784,3.784,0,0,0-1.495-.325c1.686-.694,3.216-1.718,4.915-2.381A22.679,22.679,0,0,1,191.425,64.63Zm-6.517-.1c-2.237,1.742-5.064,2.272-7.682,3.165.005-.157.011-.476.013-.633-.835.346-1.668.7-2.522,1a7.247,7.247,0,0,1,3.49-1.543c-.043.045-.13.138-.173.186a1.038,1.038,0,0,0-.189.452C180.14,66.136,182.4,64.915,184.909,64.526Zm11.77,1.322c-1.543,1.008-3.21,1.8-4.8,2.724-1.71,1.04-3.777,1.027-5.695,1.346,1.545-.9,3.144-1.692,4.716-2.538A18.3,18.3,0,0,1,196.679,65.848Zm-19.625.093A7.613,7.613,0,0,1,173.945,67,12.37,12.37,0,0,1,177.054,65.941Zm6.828.694a10.35,10.35,0,0,1-3.035,1.495A11.2,11.2,0,0,1,183.882,66.636Zm6.373.545c-1.378.9-2.875,1.593-4.317,2.381a8.157,8.157,0,0,1-3.354.931c1.41-.841,2.9-1.535,4.338-2.317A8.676,8.676,0,0,1,190.255,67.181Zm-9.07.005a12.8,12.8,0,0,1-4.9,2.234A21.357,21.357,0,0,1,181.185,67.186Zm-2.819.625a21.956,21.956,0,0,1-8.36,2.9A25.483,25.483,0,0,1,178.365,67.811Zm-7.395.742A14.887,14.887,0,0,1,166,70.173,15.666,15.666,0,0,1,170.971,68.553Zm18.337,1.37c-1.591.841-3.21,1.628-4.793,2.482-1.782,1.053-3.921.992-5.91,1.242,1.564-.827,3.16-1.591,4.743-2.378A17.585,17.585,0,0,1,189.308,69.923Zm-13.095.622c-.654.269-1.311.54-1.974.806.2-.215.614-.646.817-.864-1.99.689-3.78,2.024-5.947,2.128a24.091,24.091,0,0,1,4.926-2.178A4.214,4.214,0,0,1,176.214,70.546Zm-8.347-.141a9.132,9.132,0,0,1-3.53,1.412A18.384,18.384,0,0,1,167.867,70.4Zm-4.1.085a6.566,6.566,0,0,1-2.6.753A15.1,15.1,0,0,1,163.763,70.49Zm19.17.5c-1.46.817-2.982,1.511-4.469,2.272a8.093,8.093,0,0,1-3.426.849C177.591,72.9,180.062,71.3,182.932,70.99Zm-18.124.032a14.188,14.188,0,0,1-5.942,1.835A21.97,21.97,0,0,1,164.808,71.022Zm6.219.069a17.809,17.809,0,0,1-8.137,2.583A22.55,22.55,0,0,1,171.027,71.091Zm7.113.942a19.279,19.279,0,0,1-4.256,1.958A16.739,16.739,0,0,1,178.139,72.033Zm-1.572.013a19.332,19.332,0,0,1-7.562,2.9l-.487.213.479.4a25.264,25.264,0,0,1-5.575,2.314,14.322,14.322,0,0,1-3.567.277,31.985,31.985,0,0,1,5.131-2.125c.96-.3,1.982-.343,2.937-.657-.354-.09-.71-.173-1.067-.247C169.952,73.722,173.086,72.078,176.567,72.046Zm-13.6.585c-1.716.825-3.45,1.944-5.437,1.841A20.189,20.189,0,0,1,162.965,72.631ZM158.1,72.62a11.659,11.659,0,0,1-3.41,1.088A8.584,8.584,0,0,1,158.1,72.62Zm10.35.739c-2.253,1.021-4.471,2.527-7.043,2.442C163.659,74.772,165.914,73.479,168.447,73.36Zm-10.254.338a17.975,17.975,0,0,1-6.6,1.841A16.6,16.6,0,0,1,158.193,73.7Zm23.186.178c-1.474.849-3.027,1.543-4.564,2.266a14.475,14.475,0,0,1-5.631.968c1.511-.806,3.091-1.479,4.639-2.21A13.84,13.84,0,0,1,181.379,73.876Zm-17.438.255a17.1,17.1,0,0,1-8.4,2.436C158.193,75.352,160.98,74.187,163.941,74.131Zm-13.51.354a14.778,14.778,0,0,1-2.867.713A8.052,8.052,0,0,1,150.431,74.485Zm24.83.2c-2.349,1.176-4.716,2.561-7.4,2.745,1.479-.838,3.062-1.463,4.6-2.189A6.214,6.214,0,0,1,175.261,74.684Zm-18.388.575c-2.229,1.075-4.588,2.147-7.12,2.053A22.142,22.142,0,0,1,156.874,75.259Zm13.908.2a15.767,15.767,0,0,1-4.586,1.96A17.429,17.429,0,0,1,170.782,75.456Zm-22.949.375c-.045.4-.654.473-.987.524-.391.1-.38-.367-.037-.4C147.125,75.844,147.513,75.653,147.833,75.831Zm13.725.577c-2.373.974-4.7,2.527-7.376,2.306C156.522,77.642,158.916,76.4,161.558,76.408Zm-10.533-.144a12.217,12.217,0,0,1-6.293,1.689A14.45,14.45,0,0,1,151.025,76.264Zm-6.647.072a9.23,9.23,0,0,1-3.681.96A15.446,15.446,0,0,1,144.377,76.336Zm12.321.739c-2.466,1.325-5.237,2.431-8.086,2.147C151.157,78.054,153.839,76.948,156.7,77.076Zm-12.8.287a10.212,10.212,0,0,1-4.865,1.335A15.61,15.61,0,0,1,143.893,77.363Zm-5.873.29a13.479,13.479,0,0,1-2.692.593A8.441,8.441,0,0,1,138.02,77.653Zm12.219.282a14.889,14.889,0,0,1-7.352,1.894C145.21,78.826,147.662,77.818,150.24,77.935Zm-11.464.29a12.39,12.39,0,0,1-5.227,1.2A17.356,17.356,0,0,1,138.776,78.225Z" transform="translate(-0.51 -1.95)" fill="#7572a2"/>
    </g>
    <path id="Path_18" data-name="Path 18" d="M869.035,289.438c-.17-.141-.343-.282-.519-.418-1.636.362-3.3.572-4.95.867a11.16,11.16,0,0,1-2.676.229c0,.128-.008.383-.011.511C863.6,290.233,866.288,289.56,869.035,289.438Z" transform="translate(-841.359 -212.663)" fill="#7572a2"/>
    <path id="Path_19" data-name="Path 19" d="M895.62,294.453c-.168-.144-.338-.285-.513-.423-1.069.231-2.152.386-3.226.606C893.133,294.671,894.375,294.53,895.62,294.453Z" transform="translate(-876.189 -216.34)" fill="#7572a2"/>
  </g>
</svg>
