<svg xmlns="http://www.w3.org/2000/svg" width="77.836" height="65.674" viewBox="0 0 77.836 65.674">
  <g id="s-civl" transform="translate(-1523 -1474.663)">
    <g id="Group_124" data-name="Group 124" transform="translate(1523 1464.663)">
      <path id="Path_1056" data-name="Path 1056" d="M3.981,92.625a1.2,1.2,0,0,0-.4.415L.16,99.031a1.22,1.22,0,0,0-.16.6c0,4.558,13.513,6.608,23.107,6.608s23.107-2.05,23.107-6.608a1.22,1.22,0,0,0-.16-.6L42.635,93.04a1.2,1.2,0,0,0-.4-.415C39.985,89.461,31.28,88,23.107,88S6.23,89.461,3.981,92.625Zm37.8,3.835,1.907,3.34c-.939,1.338-8.261,4.011-20.585,4.011-12.355,0-19.683-2.687-20.59-4L4.429,96.46c2.8,2.8,10.978,4.091,18.678,4.091S38.985,99.256,41.786,96.46ZM23.107,90.432c11.384,0,17.255,2.694,17.255,3.843s-5.871,3.843-17.255,3.843S5.853,95.425,5.853,94.275,11.724,90.432,23.107,90.432Z" transform="translate(0 -30.569)" fill="#312b73"/>
      <path id="Path_1057" data-name="Path 1057" d="M30.554,95.542c11.554,0,11.554-1.582,11.554-2.432a1.216,1.216,0,0,0-2.176-.748c-.891.322-4.238.748-9.378.748s-8.487-.425-9.378-.748A1.216,1.216,0,0,0,19,93.109C19,93.959,19,95.542,30.554,95.542Zm48.381-7.079a1.216,1.216,0,0,0,1.725-1.716l-.863-.868a1.216,1.216,0,0,0-1.725,1.716Z" transform="translate(-7.446 -29.597)" fill="#312b73"/>
      <path id="Path_1058" data-name="Path 1058" d="M78.505,29.423a2.381,2.381,0,0,0,2.5-.581l.863-.867h0a3.684,3.684,0,0,0,0-5.186L70.21,11.077a3.651,3.651,0,0,0-5.178,0l-.864.868a2.444,2.444,0,0,0-.576,2.5l-.2,4.787-.762.765a2.371,2.371,0,0,0-2.35.626l-2.2,2.209-.631-.583a3.578,3.578,0,0,0-5.045,5.066l.582.635-2.206,2.216a2.439,2.439,0,0,0-.618,2.356l-.982.986-4.752.2a2.383,2.383,0,0,0-2.5.581l-.863.867a3.683,3.683,0,0,0,0,5.186L52.728,52.049a3.65,3.65,0,0,0,5.178,0l.863-.867a2.443,2.443,0,0,0,.576-2.5l.2-4.786.978-.982a2.37,2.37,0,0,0,2.351-.626l1.7-1.713L83.911,61.654a5.546,5.546,0,0,0,3.972,1.855l.16,0a5.414,5.414,0,0,0,3.871-1.61h0a5.456,5.456,0,0,0,1.6-4.042,5.573,5.573,0,0,0-1.831-3.97L70.664,34.459l1.705-1.713a2.441,2.441,0,0,0,.617-2.355l.766-.769ZM66.757,12.793a1.218,1.218,0,0,1,1.729,0L80.143,24.5a1.246,1.246,0,0,1,0,1.754l-.866.867L65.893,13.66ZM54.236,24.071a1.129,1.129,0,0,1,.8-.333,1.143,1.143,0,0,1,.771.3l.559.517L54.709,26.22l-.5-.547A1.165,1.165,0,0,1,54.236,24.071Zm1.945,26.262a1.246,1.246,0,0,1-1.729,0L42.795,38.621a1.245,1.245,0,0,1,0-1.754L43.661,36,57.045,49.465Zm1.3-7.816a1.217,1.217,0,0,0-.353.808l-.109,2.65-9.9-9.95,2.644-.11a1.214,1.214,0,0,0,.811-.357l1.073-1.078,6.919,6.951Zm3.66-1.944-8.635-8.694,9.5-9.543,8.634,8.675a.015.015,0,0,1,0,.02Zm28.9,15.116a3.1,3.1,0,0,1,1.038,2.24,3.046,3.046,0,0,1-.89,2.257h0a2.983,2.983,0,0,1-2.238.893,3.076,3.076,0,0,1-2.236-1.054L66.294,38.85l2.654-2.666ZM72.364,27.568l-.857.861-6.918-6.951.865-.869a1.216,1.216,0,0,0,.353-.808l.109-2.65,5.358,5.383L75.819,27.1l-2.644.11a1.217,1.217,0,0,0-.812.357Z" transform="translate(-15.678)" fill="#312b73"/>
      <path id="Path_1059" data-name="Path 1059" d="M74.607,40.069a1.216,1.216,0,0,0,0,1.72,1.844,1.844,0,1,1-2.594,2.622,1.216,1.216,0,1,0-1.723,1.716,4.276,4.276,0,0,0,6.042-6.054,1.215,1.215,0,0,0-1.72,0Z" transform="translate(-27.407 -11.645)" fill="#312b73"/>
    </g>
    <g id="_21._Verified" data-name="21. Verified" transform="translate(1526.95 1474.639)">
      <path id="Path_1036" data-name="Path 1036" d="M18.862,11.481a2.5,2.5,0,0,1,0-2.934l.637-.88a.834.834,0,0,0-.417-1.283l-1.025-.334A2.5,2.5,0,0,1,16.33,3.674V2.59A.834.834,0,0,0,15.24,1.8L14.2,2.129a2.5,2.5,0,0,1-2.79-.908L10.773.347a.865.865,0,0,0-1.348,0l-.638.876A2.5,2.5,0,0,1,6,2.131L4.958,1.8a.834.834,0,0,0-1.09.792V3.674A2.5,2.5,0,0,1,2.141,6.051l-1.025.334A.834.834,0,0,0,.7,7.667l.637.879a2.5,2.5,0,0,1,0,2.934L.7,12.36a.834.834,0,0,0,.417,1.283l1.025.334a2.5,2.5,0,0,1,1.727,2.376v1.084a.834.834,0,0,0,1.092.793L5.991,17.9a2.493,2.493,0,0,1,2.8.909l.636.874a.834.834,0,0,0,1.35,0l.636-.874a2.5,2.5,0,0,1,2.8-.909l1.031.334a.834.834,0,0,0,1.092-.793V16.353a2.5,2.5,0,0,1,1.727-2.38l1.025-.334a.834.834,0,0,0,.417-1.283Zm-1.385.931a4.16,4.16,0,0,0-2.816,3.878A4.161,4.161,0,0,0,10.1,17.771,4.158,4.158,0,0,0,6.77,16.1a4.2,4.2,0,0,0-1.234.186A4.161,4.161,0,0,0,2.72,12.411a4.163,4.163,0,0,0,0-4.8A4.161,4.161,0,0,0,5.536,3.735,4.163,4.163,0,0,0,10.1,2.256a4.162,4.162,0,0,0,4.563,1.481,4.161,4.161,0,0,0,2.816,3.88A4.163,4.163,0,0,0,17.478,12.411Z" transform="translate(0 0)" fill="#312b73"/>
      <path id="Path_1037" data-name="Path 1037" d="M13.917,9.244l-3.581,3.581L8.424,10.913a.834.834,0,1,0-1.18,1.18l2.5,2.5a.834.834,0,0,0,1.179,0L15.1,10.424a.834.834,0,1,0-1.18-1.18Z" transform="translate(-1.072 -1.489)" fill="#312b73"/>
    </g>
  </g>
</svg>
