<svg xmlns="http://www.w3.org/2000/svg" width="63.166" height="89.651" viewBox="0 0 63.166 89.651">
  <g id="s-divorce" transform="translate(-623.582 -1450.686)">
    <path id="Path_1053" data-name="Path 1053" d="M62.269,5H20.675a7.319,7.319,0,0,0-7.3,7.3V60.458H10.459A1.464,1.464,0,0,0,9,61.917v1.459a7.319,7.319,0,0,0,7.3,7.3H52.053a6.54,6.54,0,0,0,6.567-6.567V18.135h8.757a1.464,1.464,0,0,0,1.459-1.459V11.567A6.54,6.54,0,0,0,62.269,5ZM11.919,63.377H45.485v.73a6.916,6.916,0,0,0,1.095,3.649H16.3A4.391,4.391,0,0,1,11.919,63.377Zm43.783.73a3.649,3.649,0,0,1-7.3,0V61.917a1.464,1.464,0,0,0-1.459-1.459H16.3V12.3a4.391,4.391,0,0,1,4.378-4.378H56.8A6.324,6.324,0,0,0,55.7,11.567ZM58.62,11.567a3.649,3.649,0,0,1,7.3,0v3.649h-7.3ZM33.81,54.62a1.464,1.464,0,0,1-1.459,1.459H22.135a1.459,1.459,0,1,1,0-2.919H32.351A1.464,1.464,0,0,1,33.81,54.62Zm17.513,0a1.464,1.464,0,0,1-1.459,1.459H39.648a1.459,1.459,0,0,1,0-2.919H49.864A1.464,1.464,0,0,1,51.323,54.62Zm-17.513-7.3a1.464,1.464,0,0,1-1.459,1.459H22.135a1.459,1.459,0,1,1,0-2.919H32.351A1.464,1.464,0,0,1,33.81,47.323Zm17.513,0a1.464,1.464,0,0,1-1.459,1.459H39.648a1.459,1.459,0,0,1,0-2.919H49.864A1.464,1.464,0,0,1,51.323,47.323Zm-17.513-7.3a1.464,1.464,0,0,1-1.459,1.459H22.135a1.459,1.459,0,0,1,0-2.919H32.351A1.464,1.464,0,0,1,33.81,40.026Zm17.513,0a1.464,1.464,0,0,1-1.459,1.459H39.648a1.459,1.459,0,0,1,0-2.919H49.864A1.464,1.464,0,0,1,51.323,40.026Zm-17.513-7.3a1.464,1.464,0,0,1-1.459,1.459H22.135a1.459,1.459,0,0,1,0-2.919H32.351A1.464,1.464,0,0,1,33.81,32.729Zm17.513,0a1.464,1.464,0,0,1-1.459,1.459H39.648a1.459,1.459,0,0,1,0-2.919H49.864A1.464,1.464,0,0,1,51.323,32.729ZM40.888,21.054h6.057a1.459,1.459,0,1,0,0-2.919H40.888a5.1,5.1,0,0,0-9.778,0H25.054a1.459,1.459,0,0,0,0,2.919H31.11a5.1,5.1,0,0,0,9.778,0ZM36,21.783a2.189,2.189,0,1,1,2.189-2.189A2.15,2.15,0,0,1,36,21.783Z" transform="translate(614.582 1469.663)" fill="#312b73"/>
    <g id="_21._Verified" data-name="21. Verified" transform="translate(663.287 1450.662)">
      <path id="Path_1036" data-name="Path 1036" d="M22.506,13.759a3,3,0,0,1,0-3.517l.764-1.055a1,1,0,0,0-.5-1.538l-1.229-.4A2.993,2.993,0,0,1,19.47,4.4V3.1a1,1,0,0,0-1.307-.952l-1.245.4a3,3,0,0,1-3.345-1.089L12.808.411a1.037,1.037,0,0,0-1.616,0l-.765,1.05A3,3,0,0,1,7.082,2.55l-1.245-.4A1,1,0,0,0,4.53,3.1V4.4A2.993,2.993,0,0,1,2.459,7.249l-1.229.4a1,1,0,0,0-.5,1.538l.764,1.054a3,3,0,0,1,0,3.517L.73,14.813a1,1,0,0,0,.5,1.538l1.229.4A2.993,2.993,0,0,1,4.53,19.6v1.3a1,1,0,0,0,1.309.951l1.236-.4a2.989,2.989,0,0,1,3.354,1.09l.762,1.048a1,1,0,0,0,1.618,0l.762-1.048a2.991,2.991,0,0,1,3.354-1.09l1.236.4A1,1,0,0,0,19.47,20.9V19.6a2.993,2.993,0,0,1,2.071-2.853l1.229-.4a1,1,0,0,0,.5-1.538Zm-1.66,1.116a4.987,4.987,0,0,0-3.376,4.649A4.989,4.989,0,0,0,12,21.3a4.985,4.985,0,0,0-3.991-2,5.04,5.04,0,0,0-1.479.223,4.988,4.988,0,0,0-3.376-4.649,4.991,4.991,0,0,0,0-5.75A4.988,4.988,0,0,0,6.53,4.473,4.991,4.991,0,0,0,12,2.7a4.99,4.99,0,0,0,5.47,1.776,4.988,4.988,0,0,0,3.376,4.652A4.991,4.991,0,0,0,20.846,14.875Z" fill="#312b73"/>
      <path id="Path_1037" data-name="Path 1037" d="M15.293,9.293,11,13.586,8.707,11.293a1,1,0,1,0-1.414,1.414l3,3a1,1,0,0,0,1.414,0l5-5a1,1,0,1,0-1.414-1.414Z" fill="#312b73"/>
    </g>
  </g>
</svg>
