<svg xmlns="http://www.w3.org/2000/svg" width="105.588" height="86" viewBox="0 0 105.588 86">
  <g id="s-driver" transform="translate(-1515 -1139)">
    <g id="Group_122" data-name="Group 122" transform="translate(1513.17 1153.479)">
      <path id="Path_1044" data-name="Path 1044" d="M55.429,31.607H3.58a1.75,1.75,0,0,1-1.75-1.75V17.94a1.75,1.75,0,0,1,1.75-1.75H55.429a1.75,1.75,0,0,1,1.75,1.75V29.857A1.75,1.75,0,0,1,55.429,31.607Zm-50.1-3.5H53.679V19.69H5.33Z" transform="translate(0 0)" fill="#312b73"/>
      <path id="Path_1045" data-name="Path 1045" d="M55.429,66.415H3.58a1.75,1.75,0,0,1-1.75-1.75V24.75A1.75,1.75,0,0,1,3.58,23H55.429a1.75,1.75,0,0,1,1.75,1.75V64.665A1.75,1.75,0,0,1,55.429,66.415Zm-50.1-3.5H53.679V26.5H5.33Z" transform="translate(0 5.107)" fill="#312b73"/>
      <path id="Path_1046" data-name="Path 1046" d="M34.422,43.781H21a1.75,1.75,0,0,1-1.75-1.75V34.4A1.75,1.75,0,0,1,21,32.652H34.422a1.75,1.75,0,0,1,1.75,1.75v7.63A1.75,1.75,0,0,1,34.422,43.781Zm-11.672-3.5h9.922v-4.13H22.75ZM92.01,24.9H49.138a1.75,1.75,0,1,1,0-3.5H92.01a1.75,1.75,0,1,1,0,3.5Zm-10.2,10.5H49.138a1.75,1.75,0,1,1,0-3.5h32.67a1.75,1.75,0,1,1,0,3.5Zm10.8,10.5H49.733a1.75,1.75,0,1,1,0-3.5H92.605a1.75,1.75,0,1,1,0,3.5ZM82.316,56.4H49.733a1.75,1.75,0,1,1,0-3.5H82.316a1.75,1.75,0,1,1,0,3.5Z" transform="translate(13.063 3.907)" fill="#312b73"/>
    </g>
    <g id="_21._Verified" data-name="21. Verified" transform="translate(1573.46 1138.976)">
      <path id="Path_1036" data-name="Path 1036" d="M22.506,13.759a3,3,0,0,1,0-3.517l.764-1.055a1,1,0,0,0-.5-1.538l-1.229-.4A2.993,2.993,0,0,1,19.47,4.4V3.1a1,1,0,0,0-1.307-.952l-1.245.4a3,3,0,0,1-3.345-1.089L12.808.411a1.037,1.037,0,0,0-1.616,0l-.765,1.05A3,3,0,0,1,7.082,2.55l-1.245-.4A1,1,0,0,0,4.53,3.1V4.4A2.993,2.993,0,0,1,2.459,7.249l-1.229.4a1,1,0,0,0-.5,1.538l.764,1.054a3,3,0,0,1,0,3.517L.73,14.813a1,1,0,0,0,.5,1.538l1.229.4A2.993,2.993,0,0,1,4.53,19.6v1.3a1,1,0,0,0,1.309.951l1.236-.4a2.989,2.989,0,0,1,3.354,1.09l.762,1.048a1,1,0,0,0,1.618,0l.762-1.048a2.991,2.991,0,0,1,3.354-1.09l1.236.4A1,1,0,0,0,19.47,20.9V19.6a2.993,2.993,0,0,1,2.071-2.853l1.229-.4a1,1,0,0,0,.5-1.538Zm-1.66,1.116a4.987,4.987,0,0,0-3.376,4.649A4.989,4.989,0,0,0,12,21.3a4.985,4.985,0,0,0-3.991-2,5.04,5.04,0,0,0-1.479.223,4.988,4.988,0,0,0-3.376-4.649,4.991,4.991,0,0,0,0-5.75A4.988,4.988,0,0,0,6.53,4.473,4.991,4.991,0,0,0,12,2.7a4.99,4.99,0,0,0,5.47,1.776,4.988,4.988,0,0,0,3.376,4.652A4.991,4.991,0,0,0,20.846,14.875Z" fill="#312b73"/>
      <path id="Path_1037" data-name="Path 1037" d="M15.293,9.293,11,13.586,8.707,11.293a1,1,0,1,0-1.414,1.414l3,3a1,1,0,0,0,1.414,0l5-5a1,1,0,1,0-1.414-1.414Z" fill="#312b73"/>
    </g>
  </g>
</svg>
