<svg xmlns="http://www.w3.org/2000/svg" width="78.923" height="86" viewBox="0 0 78.923 86">
  <g id="s-id" transform="translate(-310.038 -1139)">
    <g id="Group_119" data-name="Group 119" transform="translate(309.038 1158.808)">
      <path id="Path_1034" data-name="Path 1034" d="M79.923,7H1V66.192H79.923ZM76.635,62.9H4.288V10.288H76.635Z" fill="#312b73"/>
      <path id="Path_1035" data-name="Path 1035" d="M33.308,35.375A8.223,8.223,0,0,0,26.565,27.3a8.144,8.144,0,0,0,1.81-5.082,8.221,8.221,0,1,0-16.442,0,8.135,8.135,0,0,0,1.81,5.082A8.223,8.223,0,0,0,7,35.375v11.51H33.308ZM20.154,17.288a4.933,4.933,0,1,1-4.933,4.933A4.939,4.939,0,0,1,20.154,17.288ZM30.019,43.6H10.288V35.375a4.939,4.939,0,0,1,4.933-4.933h9.865a4.939,4.939,0,0,1,4.933,4.933ZM38.24,18.933H49.75v3.288H38.24Zm16.442,0h11.51v3.288H54.683ZM38.24,27.154h4.933v3.288H38.24Zm9.865,0H66.192v3.288H48.106ZM38.24,35.375H51.394v3.288H38.24Zm21.375,0h6.577v3.288H59.615ZM38.24,43.6h3.288v3.288H38.24Zm6.577,0h3.288v3.288H44.817Zm6.577,0h3.288v3.288H51.394Zm11.51,0h3.288v3.288H62.9Z" transform="translate(3.865 4.51)" fill="#312b73"/>
    </g>
    <g id="_21._Verified" data-name="21. Verified" transform="translate(365.501 1138.976)">
      <path id="Path_1036" data-name="Path 1036" d="M22.506,13.759a3,3,0,0,1,0-3.517l.764-1.055a1,1,0,0,0-.5-1.538l-1.229-.4A2.993,2.993,0,0,1,19.47,4.4V3.1a1,1,0,0,0-1.307-.952l-1.245.4a3,3,0,0,1-3.345-1.089L12.808.411a1.037,1.037,0,0,0-1.616,0l-.765,1.05A3,3,0,0,1,7.082,2.55l-1.245-.4A1,1,0,0,0,4.53,3.1V4.4A2.993,2.993,0,0,1,2.459,7.249l-1.229.4a1,1,0,0,0-.5,1.538l.764,1.054a3,3,0,0,1,0,3.517L.73,14.813a1,1,0,0,0,.5,1.538l1.229.4A2.993,2.993,0,0,1,4.53,19.6v1.3a1,1,0,0,0,1.309.951l1.236-.4a2.989,2.989,0,0,1,3.354,1.09l.762,1.048a1,1,0,0,0,1.618,0l.762-1.048a2.991,2.991,0,0,1,3.354-1.09l1.236.4A1,1,0,0,0,19.47,20.9V19.6a2.993,2.993,0,0,1,2.071-2.853l1.229-.4a1,1,0,0,0,.5-1.538Zm-1.66,1.116a4.987,4.987,0,0,0-3.376,4.649A4.989,4.989,0,0,0,12,21.3a4.985,4.985,0,0,0-3.991-2,5.04,5.04,0,0,0-1.479.223,4.988,4.988,0,0,0-3.376-4.649,4.991,4.991,0,0,0,0-5.75A4.988,4.988,0,0,0,6.53,4.473,4.991,4.991,0,0,0,12,2.7a4.99,4.99,0,0,0,5.47,1.776,4.988,4.988,0,0,0,3.376,4.652A4.991,4.991,0,0,0,20.846,14.875Z" fill="#312b73"/>
      <path id="Path_1037" data-name="Path 1037" d="M15.293,9.293,11,13.586,8.707,11.293a1,1,0,1,0-1.414,1.414l3,3a1,1,0,0,0,1.414,0l5-5a1,1,0,1,0-1.414-1.414Z" fill="#312b73"/>
    </g>
  </g>
</svg>
