<svg xmlns="http://www.w3.org/2000/svg" width="66.222" height="90.193" viewBox="0 0 66.222 90.193">
  <g id="s-marriage" transform="translate(-322.739 -1450.686)">
    <g id="Group_123" data-name="Group 123" transform="translate(243.275 1462.333)">
      <path id="Path_1047" data-name="Path 1047" d="M292.837,375.5a.539.539,0,0,1-.382-.158l-1.745-1.744-2,.508a.54.54,0,0,1-.665-.438l-.39-2.445-1.921-.769a.54.54,0,0,1-.28-.746l1.126-2.208-1.1-1.758a.54.54,0,0,1,.212-.767l2.208-1.126.141-2.061a.54.54,0,0,1,.625-.5l2.441.4,1.319-1.6a.54.54,0,0,1,.391-.2.533.533,0,0,1,.408.158l1.752,1.759,2-.508a.54.54,0,0,1,.665.438l.389,2.446,1.921.77a.539.539,0,0,1,.28.745l-1.126,2.215,1.1,1.751a.539.539,0,0,1-.213.769l-2.207,1.117-.142,2.068a.539.539,0,0,1-.625.5l-2.444-.4-1.326,1.588a.54.54,0,0,1-.39.193Zm-1.961-3.04a.539.539,0,0,1,.382.158l1.544,1.544,1.145-1.371a.538.538,0,0,1,.5-.187l2.163.351.122-1.784a.54.54,0,0,1,.295-.445l1.952-.989-.949-1.509a.54.54,0,0,1-.024-.532l1-1.962-1.658-.664a.54.54,0,0,1-.332-.416l-.345-2.164-1.729.438a.54.54,0,0,1-.515-.142l-1.549-1.555-1.137,1.38a.538.538,0,0,1-.5.189l-2.163-.351-.122,1.776a.54.54,0,0,1-.293.444l-1.955,1,.952,1.518a.539.539,0,0,1,.024.532l-1,1.954,1.657.664a.539.539,0,0,1,.332.416l.345,2.164,1.729-.438A.545.545,0,0,1,290.875,372.457Z" transform="translate(-177.749 -300.671)" fill="#312b73"/>
      <path id="Path_1048" data-name="Path 1048" d="M113.848,74.23l.438,2.747,2.3-.583,1.961,1.961,1.524-1.824,2.747.446.162-2.375,2.481-1.256-1.265-2.01,1.265-2.488-2.205-.883-.437-2.748-2.3.583-1.969-1.977-1.516,1.839-2.747-.445-.162,2.366-2.481,1.265,1.265,2.017-1.265,2.481ZM83.925,80.641V17.829a.9.9,0,0,1,.9-.891h44.731a.9.9,0,0,1,.891.891V80.641a.9.9,0,0,1-.891.891H84.824A.9.9,0,0,1,83.925,80.641Z" transform="translate(-3.46 -3.986)" fill="none" stroke="#312b73" stroke-linecap="round" stroke-linejoin="round" stroke-miterlimit="10" stroke-width="2"/>
      <path id="Path_1049" data-name="Path 1049" d="M425.318,358.071a.54.54,0,0,1-.54-.54V346.485a.54.54,0,1,1,1.079,0v11.047A.54.54,0,0,1,425.318,358.071Z" transform="translate(-298.332 -288.61)" fill="#312b73"/>
      <path id="Path_1050" data-name="Path 1050" d="M92.922,78H81.364a1.436,1.436,0,0,1-1.439-1.431V13.761a1.436,1.436,0,0,1,1.439-1.431h44.731a1.432,1.432,0,0,1,1.431,1.431V57.875a.54.54,0,1,1-1.079,0V13.761a.361.361,0,0,0-.352-.352H81.364a.36.36,0,0,0-.36.352V76.573a.36.36,0,0,0,.36.352H92.922a.54.54,0,1,1,0,1.079Z" transform="translate(0 0)" fill="#312b73"/>
      <path id="Path_1051" data-name="Path 1051" d="M151.508,134.027H118.336a.54.54,0,1,1,0-1.079h33.173a.361.361,0,0,0,.352-.352v-7.651a.54.54,0,0,1,1.079,0V132.6A1.432,1.432,0,0,1,151.508,134.027Zm-8.187-55.858h-4.044a.54.54,0,1,1,0-1.079h4.044a.54.54,0,1,1,0,1.079Zm-7.828,0h-1.921a.54.54,0,1,1,0-1.079h1.921a.54.54,0,1,1,0,1.079Zm-6.419,0H115.6a.54.54,0,0,1,0-1.079h13.479a.54.54,0,0,1,0,1.079ZM144.9,87.895H112.216a.54.54,0,1,1,0-1.079H144.9a.54.54,0,1,1,0,1.079Zm2.845,8.121h-8.315a.54.54,0,1,1,0-1.079h8.315a.54.54,0,0,1,0,1.079Zm-12.214,0H112.216a.54.54,0,1,1,0-1.079h23.318a.54.54,0,1,1,0,1.079Zm12.214,8.129h-25.1a.54.54,0,0,1,0-1.079h25.1a.54.54,0,1,1,0,1.079Zm-29.526,0h-6.006a.54.54,0,1,1,0-1.079h6.006a.54.54,0,1,1,0,1.079Zm29.526,8.129h-15.52a.54.54,0,1,1,0-1.079h15.52a.54.54,0,1,1,0,1.079Zm-19.735,0h-15.8a.54.54,0,1,1,0-1.079h15.8a.54.54,0,1,1,0,1.079Zm-5.641,10.277h-12.53a.54.54,0,1,1,0-1.079h12.53a.54.54,0,1,1,0,1.079Z" transform="translate(-25.414 -56.024)" fill="#312b73"/>
      <path id="Path_1052" data-name="Path 1052" d="M292.837,375.5a.539.539,0,0,1-.382-.158l-1.745-1.744-2,.508a.54.54,0,0,1-.665-.438l-.39-2.445-1.921-.769a.54.54,0,0,1-.28-.746l1.126-2.208-1.1-1.758a.54.54,0,0,1,.212-.767l2.208-1.126.141-2.061a.54.54,0,0,1,.625-.5l2.441.4,1.319-1.6a.54.54,0,0,1,.391-.2.533.533,0,0,1,.408.158l1.752,1.759,2-.508a.54.54,0,0,1,.665.438l.389,2.446,1.921.77a.539.539,0,0,1,.28.745l-1.126,2.215,1.1,1.751a.539.539,0,0,1-.213.769l-2.207,1.117-.142,2.068a.539.539,0,0,1-.625.5l-2.444-.4-1.326,1.588a.54.54,0,0,1-.39.193Zm-1.961-3.04a.539.539,0,0,1,.382.158l1.544,1.544,1.145-1.371a.538.538,0,0,1,.5-.187l2.163.351.122-1.784a.54.54,0,0,1,.295-.445l1.952-.989-.949-1.509a.54.54,0,0,1-.024-.532l1-1.962-1.658-.664a.54.54,0,0,1-.332-.416l-.345-2.164-1.729.438a.54.54,0,0,1-.515-.142l-1.549-1.555-1.137,1.38a.538.538,0,0,1-.5.189l-2.163-.351-.122,1.776a.54.54,0,0,1-.293.444l-1.955,1,.952,1.518a.539.539,0,0,1,.024.532l-1,1.954,1.657.664a.539.539,0,0,1,.332.416l.345,2.164,1.729-.438A.545.545,0,0,1,290.875,372.457Z" transform="translate(-177.749 -300.671)" fill="#312b73"/>
    </g>
    <g id="_21._Verified" data-name="21. Verified" transform="translate(365.501 1450.662)">
      <path id="Path_1036" data-name="Path 1036" d="M22.506,13.759a3,3,0,0,1,0-3.517l.764-1.055a1,1,0,0,0-.5-1.538l-1.229-.4A2.993,2.993,0,0,1,19.47,4.4V3.1a1,1,0,0,0-1.307-.952l-1.245.4a3,3,0,0,1-3.345-1.089L12.808.411a1.037,1.037,0,0,0-1.616,0l-.765,1.05A3,3,0,0,1,7.082,2.55l-1.245-.4A1,1,0,0,0,4.53,3.1V4.4A2.993,2.993,0,0,1,2.459,7.249l-1.229.4a1,1,0,0,0-.5,1.538l.764,1.054a3,3,0,0,1,0,3.517L.73,14.813a1,1,0,0,0,.5,1.538l1.229.4A2.993,2.993,0,0,1,4.53,19.6v1.3a1,1,0,0,0,1.309.951l1.236-.4a2.989,2.989,0,0,1,3.354,1.09l.762,1.048a1,1,0,0,0,1.618,0l.762-1.048a2.991,2.991,0,0,1,3.354-1.09l1.236.4A1,1,0,0,0,19.47,20.9V19.6a2.993,2.993,0,0,1,2.071-2.853l1.229-.4a1,1,0,0,0,.5-1.538Zm-1.66,1.116a4.987,4.987,0,0,0-3.376,4.649A4.989,4.989,0,0,0,12,21.3a4.985,4.985,0,0,0-3.991-2,5.04,5.04,0,0,0-1.479.223,4.988,4.988,0,0,0-3.376-4.649,4.991,4.991,0,0,0,0-5.75A4.988,4.988,0,0,0,6.53,4.473,4.991,4.991,0,0,0,12,2.7a4.99,4.99,0,0,0,5.47,1.776,4.988,4.988,0,0,0,3.376,4.652A4.991,4.991,0,0,0,20.846,14.875Z" fill="#312b73"/>
      <path id="Path_1037" data-name="Path 1037" d="M15.293,9.293,11,13.586,8.707,11.293a1,1,0,1,0-1.414,1.414l3,3a1,1,0,0,0,1.414,0l5-5a1,1,0,1,0-1.414-1.414Z" fill="#312b73"/>
    </g>
  </g>
</svg>
