<svg xmlns="http://www.w3.org/2000/svg" width="56.683" height="65.674" viewBox="0 0 56.683 65.674">
  <g id="s-news" transform="translate(-1234.941 -1474.663)">
    <g id="s-news-2" data-name="s-news">
      <path id="Path_1055" data-name="Path 1055" d="M35.64,55.812H16.551a.962.962,0,0,0,0,1.924H35.64C36.171,57.736,36.171,55.812,35.64,55.812Zm0-5.772H16.551a.962.962,0,0,0,0,1.924H35.64a.962.962,0,1,0,0-1.924Zm0-5.772H16.551a.962.962,0,0,0,0,1.924H35.64a.962.962,0,1,0,0-1.924ZM52.98,5.785H24.226A12.555,12.555,0,1,0,9.816,24.523V60.879a4.816,4.816,0,0,0,4.81,4.81H52.98a4.816,4.816,0,0,0,4.81-4.81V10.6a4.816,4.816,0,0,0-4.81-4.81ZM3.032,12.57A10.633,10.633,0,1,1,13.665,23.2,10.633,10.633,0,0,1,3.032,12.57ZM25.9,15.406H49.132a.963.963,0,0,1,.962.962v3.848a.963.963,0,0,1-.962.962H22.8a12.544,12.544,0,0,0,3.1-5.772ZM55.866,60.879a2.889,2.889,0,0,1-2.886,2.886H14.627a2.889,2.889,0,0,1-2.886-2.886v-35.9a12.552,12.552,0,0,0,8.774-1.891c.09.008.179.014.269.014H49.132a2.889,2.889,0,0,0,2.886-2.886V16.368a2.889,2.889,0,0,0-2.886-2.886H26.188q.033-.452.033-.912a12.488,12.488,0,0,0-.979-4.86H52.98A2.889,2.889,0,0,1,55.866,10.6ZM35.64,38.495H16.551a.962.962,0,0,0,0,1.924H35.64a.962.962,0,1,0,0-1.924ZM51.032,26.95H16.551a.962.962,0,0,0,0,1.924H51.032a.962.962,0,1,0,0-1.924Zm0,5.772H16.551a.962.962,0,0,0,0,1.924H51.032a.962.962,0,1,0,0-1.924Zm.889,6.827a.962.962,0,0,0-.962-.962H41.65a.962.962,0,0,0,0,1.924h1.693a4.122,4.122,0,0,1,4,3.154H41.65a.962.962,0,0,0,0,1.924h5.694a4.122,4.122,0,0,1-4,3.154H41.65a.962.962,0,0,0-.7,1.626l6.771,7.089a.962.962,0,0,0,1.392-1.329l-5.239-5.485A6.052,6.052,0,0,0,49.3,45.589H50.96a.962.962,0,1,0,0-1.924H49.305a6.024,6.024,0,0,0-1.548-3.154h3.2a.962.962,0,0,0,.962-.962Z" transform="translate(1233.833 1474.648)" fill="#312b73"/>
    </g>
    <g id="_21._Verified" data-name="21. Verified" transform="translate(1240.046 1479.97)">
      <path id="Path_1036" data-name="Path 1036" d="M13.979,8.427a1.835,1.835,0,0,1,0-2.152l.467-.645a.612.612,0,0,0-.306-.941l-.752-.245A1.831,1.831,0,0,1,12.121,2.7v-.8a.612.612,0,0,0-.8-.582l-.762.245A1.835,1.835,0,0,1,8.513.9L8.045.261a.634.634,0,0,0-.989,0L6.589.9a1.835,1.835,0,0,1-2.046.666L3.78,1.325a.612.612,0,0,0-.8.581v.8A1.831,1.831,0,0,1,1.714,4.444l-.752.245a.612.612,0,0,0-.306.941l.467.645a1.835,1.835,0,0,1,0,2.152l-.467.645a.612.612,0,0,0,.306.941l.752.245A1.831,1.831,0,0,1,2.981,12v.8a.612.612,0,0,0,.8.582l.756-.245A1.829,1.829,0,0,1,6.59,13.8l.466.641a.612.612,0,0,0,.99,0l.466-.641a1.83,1.83,0,0,1,2.052-.667l.756.245a.612.612,0,0,0,.8-.582V12a1.831,1.831,0,0,1,1.267-1.745l.752-.245a.612.612,0,0,0,.306-.941Zm-1.016.683A3.051,3.051,0,0,0,10.9,11.954a3.052,3.052,0,0,0-3.347,1.087,3.05,3.05,0,0,0-2.442-1.224,3.083,3.083,0,0,0-.9.136A3.052,3.052,0,0,0,2.139,9.109a3.053,3.053,0,0,0,0-3.518A3.052,3.052,0,0,0,4.2,2.746,3.053,3.053,0,0,0,7.551,1.661,3.053,3.053,0,0,0,10.9,2.748a3.052,3.052,0,0,0,2.065,2.846A3.053,3.053,0,0,0,12.963,9.11Z" transform="translate(0 0)" fill="#312b73"/>
      <path id="Path_1037" data-name="Path 1037" d="M12.074,9.179,9.447,11.806l-1.4-1.4a.612.612,0,1,0-.865.865L9.015,13.1a.612.612,0,0,0,.865,0l3.059-3.059a.612.612,0,1,0-.865-.865Z" transform="translate(-2.508 -3.485)" fill="#312b73"/>
    </g>
  </g>
</svg>
