<svg xmlns="http://www.w3.org/2000/svg" width="71.552" height="90.654" viewBox="0 0 71.552 90.654">
  <g id="s-police" transform="translate(-942.954 -1450.686)">
    <path id="Path_1054" data-name="Path 1054" d="M68.921,18.794a1.955,1.955,0,0,0-.6-1.413L58.592,7.933a1.988,1.988,0,0,0-3.278.773c-.013.053-1.772,5.2-6.823,4.864A8.718,8.718,0,0,1,41.214,8.6a1.97,1.97,0,0,0-1.826-1.226h-.013a2.011,2.011,0,0,0-1.839,1.213A8.7,8.7,0,0,1,30.26,13.57c-4.944.333-6.743-4.664-6.823-4.864a1.988,1.988,0,0,0-3.278-.773L10.43,17.382a1.955,1.955,0,0,0-.6,1.413,1.922,1.922,0,0,0,.586,1.426c4.225,4.238,3.691,10.142,1.093,20.243-2.585,10.062.053,23.855,27.266,32.477a1.976,1.976,0,0,0,1.2,0c27.213-8.622,29.852-22.415,27.266-32.477-2.6-10.1-3.132-16.005,1.093-20.243A1.922,1.922,0,0,0,68.921,18.794ZM52.036,39.1l-4.878,4.744L48.3,50.565A2,2,0,0,1,45.4,52.671L39.375,49.5l-6.024,3.172a1.946,1.946,0,0,1-.933.24,2.012,2.012,0,0,1-1.972-2.345l1.146-6.717L26.715,39.1a2,2,0,0,1,1.119-3.412l6.73-.986,3.012-6.1a2.031,2.031,0,0,1,1.8-1.119A2,2,0,0,1,41.161,28.6l3.025,6.1,6.743.986A2,2,0,0,1,52.036,39.1Zm-9.462-.586,3.771.546L43.613,41.73a1.935,1.935,0,0,0-.573,1.759l.64,3.758-3.372-1.772a2.034,2.034,0,0,0-1.866,0l-3.372,1.772.64-3.758a1.935,1.935,0,0,0-.573-1.759l-2.732-2.665,3.771-.546a1.983,1.983,0,0,0,1.506-1.093L39.375,34l1.692,3.425a1.983,1.983,0,0,0,1.506,1.093Z" transform="translate(934.125 1467.303)" fill="none" stroke="#312b73" stroke-width="2"/>
    <g id="_21._Verified" data-name="21. Verified" transform="translate(991.046 1450.662)">
      <path id="Path_1036" data-name="Path 1036" d="M22.506,13.759a3,3,0,0,1,0-3.517l.764-1.055a1,1,0,0,0-.5-1.538l-1.229-.4A2.993,2.993,0,0,1,19.47,4.4V3.1a1,1,0,0,0-1.307-.952l-1.245.4a3,3,0,0,1-3.345-1.089L12.808.411a1.037,1.037,0,0,0-1.616,0l-.765,1.05A3,3,0,0,1,7.082,2.55l-1.245-.4A1,1,0,0,0,4.53,3.1V4.4A2.993,2.993,0,0,1,2.459,7.249l-1.229.4a1,1,0,0,0-.5,1.538l.764,1.054a3,3,0,0,1,0,3.517L.73,14.813a1,1,0,0,0,.5,1.538l1.229.4A2.993,2.993,0,0,1,4.53,19.6v1.3a1,1,0,0,0,1.309.951l1.236-.4a2.989,2.989,0,0,1,3.354,1.09l.762,1.048a1,1,0,0,0,1.618,0l.762-1.048a2.991,2.991,0,0,1,3.354-1.09l1.236.4A1,1,0,0,0,19.47,20.9V19.6a2.993,2.993,0,0,1,2.071-2.853l1.229-.4a1,1,0,0,0,.5-1.538Zm-1.66,1.116a4.987,4.987,0,0,0-3.376,4.649A4.989,4.989,0,0,0,12,21.3a4.985,4.985,0,0,0-3.991-2,5.04,5.04,0,0,0-1.479.223,4.988,4.988,0,0,0-3.376-4.649,4.991,4.991,0,0,0,0-5.75A4.988,4.988,0,0,0,6.53,4.473,4.991,4.991,0,0,0,12,2.7a4.99,4.99,0,0,0,5.47,1.776,4.988,4.988,0,0,0,3.376,4.652A4.991,4.991,0,0,0,20.846,14.875Z" fill="#312b73"/>
      <path id="Path_1037" data-name="Path 1037" d="M15.293,9.293,11,13.586,8.707,11.293a1,1,0,1,0-1.414,1.414l3,3a1,1,0,0,0,1.414,0l5-5a1,1,0,1,0-1.414-1.414Z" fill="#312b73"/>
    </g>
  </g>
</svg>
