<svg xmlns="http://www.w3.org/2000/svg" width="65.268" height="68.954" viewBox="0 0 65.268 68.954">
  <g id="s-ref" transform="translate(-779.238 -1788.48)">
    <g id="Group_224" data-name="Group 224" transform="translate(-5)">
      <path id="Path_1060" data-name="Path 1060" d="M17.2,37.314a73.836,73.836,0,0,1,12.618,0,43.639,43.639,0,0,1,6.82,1c4.853.977,8.021,2.906,9.349,5.734a8.771,8.771,0,0,1-.077,7.38c-1.354,2.829-4.521,4.757-9.451,5.76a43.716,43.716,0,0,1-6.794.977A56.938,56.938,0,0,1,23,58.452H22.2A2.239,2.239,0,0,1,22.2,54h1.748c1.752-.021,3.514-.1,5.277-.257a41.6,41.6,0,0,0,6.182-.874c3.5-.771,5.7-1.877,6.386-3.343a4.113,4.113,0,0,0,0-3.549c-.689-1.491-2.886-2.648-6.309-3.343a39.775,39.775,0,0,0-6.284-.9,65.438,65.438,0,0,0-11.878,0,41.933,41.933,0,0,0-6.207.874c-3.5.772-5.671,1.877-6.386,3.343a4.267,4.267,0,0,0-.383,1.775,4.371,4.371,0,0,0,.383,1.8,7.424,7.424,0,0,0,5.109,3.009h0l.3.08a2.236,2.236,0,0,1-1.42,4.24,11.315,11.315,0,0,1-7.893-5.4,8.667,8.667,0,0,1,0-7.38c1.354-2.906,4.521-4.783,9.4-5.786A46.864,46.864,0,0,1,17.2,37.314ZM17.433,1.19A15.48,15.48,0,0,1,34.388,4.6a15.738,15.738,0,0,1,3.356,17.076,15.54,15.54,0,0,1-29.92-6.011h0l.014-.676A15.657,15.657,0,0,1,17.433,1.19Zm5.922,3.285a11.074,11.074,0,0,0-7.873,3.267,11.265,11.265,0,0,0,3.594,18.3A11.082,11.082,0,0,0,31.22,23.624,11.267,11.267,0,0,0,33.646,11.4,11.137,11.137,0,0,0,23.354,4.475Z" transform="translate(784.238 1798.982)" fill="#312b73"/>
      <g id="_21._Verified" data-name="21. Verified" transform="translate(826.046 1788.456)">
        <path id="Path_1036" data-name="Path 1036" d="M22.506,13.759a3,3,0,0,1,0-3.517l.764-1.055a1,1,0,0,0-.5-1.538l-1.229-.4A2.993,2.993,0,0,1,19.47,4.4V3.1a1,1,0,0,0-1.307-.952l-1.245.4a3,3,0,0,1-3.345-1.089L12.808.411a1.037,1.037,0,0,0-1.616,0l-.765,1.05A3,3,0,0,1,7.082,2.55l-1.245-.4A1,1,0,0,0,4.53,3.1V4.4A2.993,2.993,0,0,1,2.459,7.249l-1.229.4a1,1,0,0,0-.5,1.538l.764,1.054a3,3,0,0,1,0,3.517L.73,14.813a1,1,0,0,0,.5,1.538l1.229.4A2.993,2.993,0,0,1,4.53,19.6v1.3a1,1,0,0,0,1.309.951l1.236-.4a2.989,2.989,0,0,1,3.354,1.09l.762,1.048a1,1,0,0,0,1.618,0l.762-1.048a2.991,2.991,0,0,1,3.354-1.09l1.236.4A1,1,0,0,0,19.47,20.9V19.6a2.993,2.993,0,0,1,2.071-2.853l1.229-.4a1,1,0,0,0,.5-1.538Zm-1.66,1.116a4.987,4.987,0,0,0-3.376,4.649A4.989,4.989,0,0,0,12,21.3a4.985,4.985,0,0,0-3.991-2,5.04,5.04,0,0,0-1.479.223,4.988,4.988,0,0,0-3.376-4.649,4.991,4.991,0,0,0,0-5.75A4.988,4.988,0,0,0,6.53,4.473,4.991,4.991,0,0,0,12,2.7a4.99,4.99,0,0,0,5.47,1.776,4.988,4.988,0,0,0,3.376,4.652A4.991,4.991,0,0,0,20.846,14.875Z" fill="#312b73"/>
        <path id="Path_1037" data-name="Path 1037" d="M15.293,9.293,11,13.586,8.707,11.293a1,1,0,1,0-1.414,1.414l3,3a1,1,0,0,0,1.414,0l5-5a1,1,0,1,0-1.414-1.414Z" fill="#312b73"/>
      </g>
    </g>
  </g>
</svg>
