<svg xmlns="http://www.w3.org/2000/svg" width="66.496" height="86" viewBox="0 0 66.496 86">
  <g id="s-verification" transform="translate(-620.252 -1139)">
    <g id="Group_120" data-name="Group 120" transform="translate(620.285 1161.377)">
      <path id="Path_1038" data-name="Path 1038" d="M17.5,53.135H3.121c-.773,0-1.031,0-1.031-1.4v-3.33a1.038,1.038,0,0,0-2.077,0v3.33a2.965,2.965,0,0,0,3.108,3.476H17.5a1.038,1.038,0,1,0,0-2.077Zm-16.451-8A1.038,1.038,0,0,0,2.089,44.1V9.775l31.427.054V27.142a1.038,1.038,0,0,0,2.077,0V9.829a2.118,2.118,0,0,0-2.1-2.138H2.97L7.718,3.677H37.9a1.661,1.661,0,0,1,1.661,1.661V26.409a1.038,1.038,0,0,0,2.077,0V5.338A3.738,3.738,0,0,0,37.9,1.6H7.339a1.037,1.037,0,0,0-.67.245L.5,7.07a1.545,1.545,0,0,0-.335.522,1.019,1.019,0,0,0-.154.515v36a1.038,1.038,0,0,0,1.038,1.034Z" transform="translate(0 0)" fill="#312b73"/>
      <path id="Path_1039" data-name="Path 1039" d="M35.2,25.936A1.038,1.038,0,0,0,36.243,24.9V6.913A3.093,3.093,0,0,0,33.16,3.824L7.207,3.77h0a1.038,1.038,0,0,0,0,2.077L33.161,5.9a1.013,1.013,0,0,1,1.011,1.012V24.9A1.038,1.038,0,0,0,35.2,25.936ZM49.506,45.7a1.038,1.038,0,0,0-1.038,1.038v8.633a1.246,1.246,0,0,1-.138.583c-.584,1.114-3.353,4.754-14.429,4.754s-13.844-3.636-14.436-4.751a1.246,1.246,0,0,1-.138-.581v-8.2a1.038,1.038,0,0,0-2.077,0v8.193a3.345,3.345,0,0,0,.371,1.549c.933,1.762,4.373,5.865,16.28,5.865s15.345-4.1,16.271-5.859a3.323,3.323,0,0,0,.374-1.551V46.742a1.038,1.038,0,0,0-1.04-1.038Z" transform="translate(2.384 0.834)" fill="#312b73"/>
      <path id="Path_1040" data-name="Path 1040" d="M64.086,30.2l-27.47-9.176a1.013,1.013,0,0,0-.647,0L5.025,30.947a1.04,1.04,0,0,0-.015,1.97L33.945,42.7a1.053,1.053,0,0,0,.332.055,1.04,1.04,0,0,0,.349-.061l21.239-7.584v4.984a3.492,3.492,0,0,0-2.482,3.331v2.093a3.5,3.5,0,0,0,7,0v-2.1A3.494,3.494,0,0,0,57.942,40.1V34.365l6.162-2.2a1.038,1.038,0,0,0-.021-1.963ZM58.3,45.515a1.423,1.423,0,0,1-2.846,0v-2.1a1.423,1.423,0,1,1,2.846,0ZM56.755,32.584,34.725,30.207a1.038,1.038,0,1,0-.222,2.064l17.761,1.916-18,6.429-25.6-8.656L36.279,23.1l24.3,8.117Z" transform="translate(1.67 7.448)" fill="#312b73"/>
    </g>
    <g id="_21._Verified" data-name="21. Verified" transform="translate(663.287 1138.976)">
      <path id="Path_1036" data-name="Path 1036" d="M22.506,13.759a3,3,0,0,1,0-3.517l.764-1.055a1,1,0,0,0-.5-1.538l-1.229-.4A2.993,2.993,0,0,1,19.47,4.4V3.1a1,1,0,0,0-1.307-.952l-1.245.4a3,3,0,0,1-3.345-1.089L12.808.411a1.037,1.037,0,0,0-1.616,0l-.765,1.05A3,3,0,0,1,7.082,2.55l-1.245-.4A1,1,0,0,0,4.53,3.1V4.4A2.993,2.993,0,0,1,2.459,7.249l-1.229.4a1,1,0,0,0-.5,1.538l.764,1.054a3,3,0,0,1,0,3.517L.73,14.813a1,1,0,0,0,.5,1.538l1.229.4A2.993,2.993,0,0,1,4.53,19.6v1.3a1,1,0,0,0,1.309.951l1.236-.4a2.989,2.989,0,0,1,3.354,1.09l.762,1.048a1,1,0,0,0,1.618,0l.762-1.048a2.991,2.991,0,0,1,3.354-1.09l1.236.4A1,1,0,0,0,19.47,20.9V19.6a2.993,2.993,0,0,1,2.071-2.853l1.229-.4a1,1,0,0,0,.5-1.538Zm-1.66,1.116a4.987,4.987,0,0,0-3.376,4.649A4.989,4.989,0,0,0,12,21.3a4.985,4.985,0,0,0-3.991-2,5.04,5.04,0,0,0-1.479.223,4.988,4.988,0,0,0-3.376-4.649,4.991,4.991,0,0,0,0-5.75A4.988,4.988,0,0,0,6.53,4.473,4.991,4.991,0,0,0,12,2.7a4.99,4.99,0,0,0,5.47,1.776,4.988,4.988,0,0,0,3.376,4.652A4.991,4.991,0,0,0,20.846,14.875Z" fill="#312b73"/>
      <path id="Path_1037" data-name="Path 1037" d="M15.293,9.293,11,13.586,8.707,11.293a1,1,0,1,0-1.414,1.414l3,3a1,1,0,0,0,1.414,0l5-5a1,1,0,1,0-1.414-1.414Z" fill="#312b73"/>
    </g>
  </g>
</svg>
