<svg xmlns="http://www.w3.org/2000/svg" width="63.236" height="86" viewBox="0 0 63.236 86">
  <g id="s-verify-address" transform="translate(-942.685 -1139)">
    <g id="Group_121" data-name="Group 121" transform="translate(941.526 1161.977)">
      <path id="Path_1041" data-name="Path 1041" d="M62.788,56.053V11.778a1.24,1.24,0,0,0-1.609-1.185l-15.7,4.878a10.434,10.434,0,0,0,.227-1.969,12.5,12.5,0,0,0-24.771-2.355L2.071,16.324a1.242,1.242,0,0,0-.912,1.2V61.783a1.241,1.241,0,0,0,1.24,1.24,1.258,1.258,0,0,0,.327-.044l20.612-5.638,19.379,5.632a1.21,1.21,0,0,0,.346.05,1.227,1.227,0,0,0,.367-.056l.023-.007h0l18.46-5.723A1.24,1.24,0,0,0,62.788,56.053Zm-40.681-.947L3.64,60.157V18.467l17.069-4.683a23.181,23.181,0,0,0,1.4,5.784V55.106Zm19.717,5.025L24.588,55.122V25.728c.908,2.063,2.166,4.756,3.488,7.422C30.243,37.559,32.1,40.964,32.117,41A1.241,1.241,0,0,0,34.3,41c.018-.034,1.874-3.439,4.04-7.844,1.374-2.776,2.681-5.591,3.489-7.427v34.4ZM36.11,32.055c-1.127,2.292-2.167,4.309-2.9,5.711-.737-1.4-1.778-3.42-2.906-5.714-1.991-4.018-7.663-15.315-7.038-19.77A10.02,10.02,0,0,1,43.228,13.5C43.228,17.448,37.875,28.493,36.11,32.055Zm24.2,23.083L44.3,60.1V19.572c.154-.435.294-.86.425-1.268l15.577-4.841V55.139Z" transform="translate(0 0)" fill="#312b73"/>
      <path id="Path_1042" data-name="Path 1042" d="M28.24,5.709a6.462,6.462,0,0,0-6.429,6.277v.15a6.418,6.418,0,0,0,11.92,3.328,6.31,6.31,0,0,0,.936-3.328A6.435,6.435,0,0,0,28.24,5.709Zm3.365,8.475A3.854,3.854,0,0,1,28.24,16.1a3.953,3.953,0,1,1,3.947-3.96A3.849,3.849,0,0,1,31.605,14.184Z" transform="translate(4.966 1.132)" fill="#312b73"/>
    </g>
    <g id="_21._Verified" data-name="21. Verified" transform="translate(982.461 1138.976)">
      <path id="Path_1036" data-name="Path 1036" d="M22.506,13.759a3,3,0,0,1,0-3.517l.764-1.055a1,1,0,0,0-.5-1.538l-1.229-.4A2.993,2.993,0,0,1,19.47,4.4V3.1a1,1,0,0,0-1.307-.952l-1.245.4a3,3,0,0,1-3.345-1.089L12.808.411a1.037,1.037,0,0,0-1.616,0l-.765,1.05A3,3,0,0,1,7.082,2.55l-1.245-.4A1,1,0,0,0,4.53,3.1V4.4A2.993,2.993,0,0,1,2.459,7.249l-1.229.4a1,1,0,0,0-.5,1.538l.764,1.054a3,3,0,0,1,0,3.517L.73,14.813a1,1,0,0,0,.5,1.538l1.229.4A2.993,2.993,0,0,1,4.53,19.6v1.3a1,1,0,0,0,1.309.951l1.236-.4a2.989,2.989,0,0,1,3.354,1.09l.762,1.048a1,1,0,0,0,1.618,0l.762-1.048a2.991,2.991,0,0,1,3.354-1.09l1.236.4A1,1,0,0,0,19.47,20.9V19.6a2.993,2.993,0,0,1,2.071-2.853l1.229-.4a1,1,0,0,0,.5-1.538Zm-1.66,1.116a4.987,4.987,0,0,0-3.376,4.649A4.989,4.989,0,0,0,12,21.3a4.985,4.985,0,0,0-3.991-2,5.04,5.04,0,0,0-1.479.223,4.988,4.988,0,0,0-3.376-4.649,4.991,4.991,0,0,0,0-5.75A4.988,4.988,0,0,0,6.53,4.473,4.991,4.991,0,0,0,12,2.7a4.99,4.99,0,0,0,5.47,1.776,4.988,4.988,0,0,0,3.376,4.652A4.991,4.991,0,0,0,20.846,14.875Z" fill="#312b73"/>
      <path id="Path_1037" data-name="Path 1037" d="M15.293,9.293,11,13.586,8.707,11.293a1,1,0,1,0-1.414,1.414l3,3a1,1,0,0,0,1.414,0l5-5a1,1,0,1,0-1.414-1.414Z" fill="#312b73"/>
    </g>
  </g>
</svg>
