<svg xmlns="http://www.w3.org/2000/svg" width="85.764" height="86.001" viewBox="0 0 85.764 86.001">
  <g id="s-verify-vehicle" transform="translate(-1225.618 -1139)">
    <path id="Path_1043" data-name="Path 1043" d="M89.529,47.8,73.12,42.27,65.011,27.387A12.45,12.45,0,0,0,54.135,20.9H24.562a12.338,12.338,0,0,0-10.876,6.487L5.2,42.937v.1a.35.35,0,0,0-.1.286V66.692A1.914,1.914,0,0,0,7.008,68.6h7.823a9.542,9.542,0,0,0,18.7,0h29a9.542,9.542,0,0,0,18.7,0h7.727a1.914,1.914,0,0,0,1.908-1.908V49.615A1.832,1.832,0,0,0,89.529,47.8ZM36.486,24.811H54.135A8.6,8.6,0,0,1,61.672,29.3l6.869,12.688H36.486ZM17.025,29.3a8.6,8.6,0,0,1,7.537-4.484H32.67V41.983H10.156L17.025,29.3Zm-2.29,35.584H8.821V61.063h7.632A9.248,9.248,0,0,0,14.735,64.879Zm9.349,7.632a5.724,5.724,0,1,1,5.724-5.724A5.741,5.741,0,0,1,24.085,72.511Zm47.7,0a5.724,5.724,0,1,1,5.724-5.724A5.741,5.741,0,0,1,71.784,72.511Zm15.264-7.632H81.133a9.542,9.542,0,0,0-18.7,0h-29a9.519,9.519,0,0,0-9.349-7.632H8.821V45.8H71.5l15.55,5.152Z" transform="translate(1220.518 1148.769)" fill="#312b73"/>
    <g id="_21._Verified" data-name="21. Verified" transform="translate(1278.46 1138.976)">
      <path id="Path_1036" data-name="Path 1036" d="M22.506,13.759a3,3,0,0,1,0-3.517l.764-1.055a1,1,0,0,0-.5-1.538l-1.229-.4A2.993,2.993,0,0,1,19.47,4.4V3.1a1,1,0,0,0-1.307-.952l-1.245.4a3,3,0,0,1-3.345-1.089L12.808.411a1.037,1.037,0,0,0-1.616,0l-.765,1.05A3,3,0,0,1,7.082,2.55l-1.245-.4A1,1,0,0,0,4.53,3.1V4.4A2.993,2.993,0,0,1,2.459,7.249l-1.229.4a1,1,0,0,0-.5,1.538l.764,1.054a3,3,0,0,1,0,3.517L.73,14.813a1,1,0,0,0,.5,1.538l1.229.4A2.993,2.993,0,0,1,4.53,19.6v1.3a1,1,0,0,0,1.309.951l1.236-.4a2.989,2.989,0,0,1,3.354,1.09l.762,1.048a1,1,0,0,0,1.618,0l.762-1.048a2.991,2.991,0,0,1,3.354-1.09l1.236.4A1,1,0,0,0,19.47,20.9V19.6a2.993,2.993,0,0,1,2.071-2.853l1.229-.4a1,1,0,0,0,.5-1.538Zm-1.66,1.116a4.987,4.987,0,0,0-3.376,4.649A4.989,4.989,0,0,0,12,21.3a4.985,4.985,0,0,0-3.991-2,5.04,5.04,0,0,0-1.479.223,4.988,4.988,0,0,0-3.376-4.649,4.991,4.991,0,0,0,0-5.75A4.988,4.988,0,0,0,6.53,4.473,4.991,4.991,0,0,0,12,2.7a4.99,4.99,0,0,0,5.47,1.776,4.988,4.988,0,0,0,3.376,4.652A4.991,4.991,0,0,0,20.846,14.875Z" fill="#312b73"/>
      <path id="Path_1037" data-name="Path 1037" d="M15.293,9.293,11,13.586,8.707,11.293a1,1,0,1,0-1.414,1.414l3,3a1,1,0,0,0,1.414,0l5-5a1,1,0,1,0-1.414-1.414Z" fill="#312b73"/>
    </g>
  </g>
</svg>
