<svg xmlns="http://www.w3.org/2000/svg" width="523.767" height="330.615" viewBox="0 0 523.767 330.615">
  <g id="Group_435" data-name="Group 435" transform="translate(-1124 -1722.334)">
    <g id="Group_345" data-name="Group 345" transform="translate(1585 1747.366)">
      <path id="Path_7199" data-name="Path 7199" d="M57.536,2.75H5.231A5.209,5.209,0,0,0,0,7.933V45.949a5.211,5.211,0,0,0,5.231,5.186H57.536a5.21,5.21,0,0,0,5.231-5.186V7.933A5.209,5.209,0,0,0,57.536,2.75Z" fill="#191e6e"/>
      <path id="Path_7200" data-name="Path 7200" d="M31.383,2.75H5.231A5.209,5.209,0,0,0,0,7.933V45.949a5.211,5.211,0,0,0,5.231,5.186H31.383V2.75Z" fill="#161a60"/>
      <path id="Path_306" data-name="Path 306" d="M15.408,29.4a1.486,1.486,0,0,1-1.424-1.059L10.7,17.483H6V14.5h5.8a1.49,1.49,0,0,1,1.426,1.059l2.528,8.354,5-9.923,2.661,1.341L16.741,28.581a1.5,1.5,0,0,1-1.333.818Zm5.275-.665L26.6,14.053l2.761,1.112L23.446,29.846Zm14.922.665h-6.06V26.42h6.06a1.509,1.509,0,0,0,1.412-.947,1.446,1.446,0,0,0-.149-1.368,1.5,1.5,0,0,0-1.263-.663,4.56,4.56,0,0,1-3.863-1.978A4.471,4.471,0,0,1,35.475,14.5H40.94v2.979H35.475a1.509,1.509,0,0,0-1.408.939,1.456,1.456,0,0,0,.145,1.372,1.5,1.5,0,0,0,1.263.665,4.563,4.563,0,0,1,3.861,1.974,4.467,4.467,0,0,1-3.73,6.965Zm7.615.51-2.661-1.341L47.24,15.322a1.486,1.486,0,0,1,2.755.24l4.038,13.343-2.854.864-2.957-9.778-5,9.919Z" transform="translate(2.027 4.991)" fill="#fff"/>
    </g>
    <g id="Group_434" data-name="Group 434" transform="translate(583.938 1598.728)">
      <g id="Group_373" data-name="Group 373" transform="translate(692.067 123.606)">
        <path id="Path_7273" data-name="Path 7273" d="M658.05,127.206c.956-3.023,4.276-3.785,7.092-3.565q122.049.019,244.11-.013c2.131,0,4.547.4,5.9,2.235a46.025,46.025,0,0,1,.491,8.538c-.116,21.365.155,42.717-.129,64.082q-.155,6.3-.026,12.607c.284,51.32.1,102.653.09,153.973-2.273-.026-5.826.3-5.735,3.358-.659,15.255.543,30.575-.607,45.817q-124.1-.174-248.2-.039c-4.25-3.333-3.165-8.9-3.19-13.628.31-49.9-.375-99.812.284-149.7,2.829,1.072,5.7,1.989,8.616,2.8.517,50.261.142,100.535.181,150.809,2.416.168,4.818.336,7.247.4q103.312,0,206.65-.013c8.538-.09,17.09.3,25.615-.375q.039-135.65-.013-271.3c-2.932-.22-5.865-.4-8.784-.439q-106.509.039-213.018.026c-5.735-.065-11.458-.026-17.18.233a87.643,87.643,0,0,0,.116,11.793c1.408.207,2.816.4,4.237.555a64.6,64.6,0,0,0-13.9,3.811C658.05,141.854,657.573,134.517,658.05,127.206Z" transform="translate(-657.738 -123.606)" fill="#c7e1fd"/>
        <g id="Group_372" data-name="Group 372" transform="translate(29.309 113.668)">
          <path id="Path_7274" data-name="Path 7274" d="M682.019,228.822A56.236,56.236,0,0,0,713.783,211.6a35.382,35.382,0,0,1,1.5,10.838c-.116,8.035.181,16.082-.4,24.116-8.4,1.292-16.9.517-25.344.762-2.687-.168-5.671.258-8.086-1.188A29.626,29.626,0,0,1,682.019,228.822Zm11.793,2.751a9.676,9.676,0,0,0-5.425-2.532c.465,3.036,2.26,5.49,4.3,7.66,4.611-2.312,8.513-5.735,12.594-8.835,1.486-.84,1.783-2.519,2.4-3.953C701.847,223.487,698.67,229.364,693.813,231.573Z" transform="translate(-680.428 -211.603)" fill="#c7e1fd"/>
        </g>
      </g>
      <g id="Group_375" data-name="Group 375" transform="translate(566.877 145.095)">
        <g id="Group_374" data-name="Group 374" transform="translate(53.76)">
          <path id="Path_7275" data-name="Path 7275" d="M674.027,144.325a64.6,64.6,0,0,1,13.9-3.811c6.355-.284,12.775-.62,19.066.555a61.305,61.305,0,0,1,23.9,11.109c10.5,9,17.865,21.8,19.518,35.6.581,7.44.581,15.049-1.343,22.308-2.661,8.164-6.588,16.056-12.53,22.334a56.236,56.236,0,0,1-31.764,17.219,58.1,58.1,0,0,1-21.895-.814c-2.919-.814-5.787-1.731-8.616-2.8-3.552-1.8-7.066-3.694-10.7-5.361q-3.488,3.914-7.195,7.634c-4.353,4.456-8.939,8.693-13.137,13.3-.362.4-1.085,1.214-1.447,1.615-7.88,8-15.6,16.172-23.819,23.806-5.567,4.521-14.015.439-15.527-6.136,4.728-1.2,9.727-1.77,14.028-4.263,3.811-1.214,8.551-.9,11.432-4.108,2.338-2.183,1.627-7.182-2.041-7.389-4.831.53-9.481,2.454-14.442,1.705.672-.71,2.028-2.131,2.7-2.842.917-.853,1.834-1.692,2.777-2.532,6.317-5.761,12.969-11.212,18.562-17.71a107.816,107.816,0,0,0,8.99-7.983c-.323-6.962.065-13.938-.181-20.887-4.03-9.3-4.353-19.88-2.855-29.774C644.589,167.215,657.093,151.145,674.027,144.325Zm7.918,6.588.116.426A53.583,53.583,0,0,0,672.7,154.9l.078.426a45.264,45.264,0,0,0-21.236,26.945,20.422,20.422,0,0,0-2.054,8.022c-.439,10.308,1.666,21.12,7.518,29.735a44.4,44.4,0,0,0,17.335,15.837A19.865,19.865,0,0,0,683.186,239c-.039.22-.116.672-.155.891,8.448,1.356,17.167,2.312,25.46-.5a30.366,30.366,0,0,0,12.052-5.658l.853.09a55.256,55.256,0,0,0,18.924-25.124c2.067-11.044,2.312-23.1-2.829-33.391-4.172-8.293-10.45-16.172-19.13-19.944v-.7C707.25,148.691,694.062,148.007,681.946,150.913Zm-36.8,67.544a60.621,60.621,0,0,0-.078,16.327,24.659,24.659,0,0,0,6.64-5.658A98.06,98.06,0,0,0,645.144,218.457Z" transform="translate(-602.44 -140.242)" fill="#292560"/>
        </g>
        <path id="Path_7276" data-name="Path 7276" d="M586.06,168.726c9.068-2.984,15.333,10.954,8.732,16.715-4.624,3.552-10.269,5.283-15.888,6.484.181,2.3.375,4.611.542,6.924-2.067-.775-3.979-1.9-6.058-2.622,1.137,5.231,4.353,10.437,1.718,15.759-5.038-4.146-10.179-8.383-13.783-13.886-1.3-2.919.078-5.929,2.467-7.737.375-4.56-.555-9.107-.1-13.641,2.738-4.663,8.8-2.984,13.111-2.157C581.022,175.728,583.825,171.581,586.06,168.726Z" transform="translate(-560.821 -132.053)" fill="#292560"/>
        <path id="Path_7277" data-name="Path 7277" d="M586.343,363.563l.452.258c4.676,2.312,10,.943,14.945.517,3.733,2.764,9.2,3.268,11.845,7.363-.052,1.886-.116,3.772-.22,5.671-10.037.439-20.086.077-30.136.116C584.315,372.85,585.413,368.226,586.343,363.563Z" transform="translate(-554.284 -75.094)" fill="#292560"/>
      </g>
      <g id="Group_376" data-name="Group 376" transform="translate(690.894 156.192)">
        <path id="Path_7278" data-name="Path 7278" d="M656.83,152.4a53.585,53.585,0,0,1,9.365-3.565c1.679,5.529.917,11.354,1.033,17.025-.013,23.548-.181,47.1.09,70.631a19.865,19.865,0,0,1-8.848-3.126c-.026-9.92.181-19.841-.116-29.761q-.194-6.181-.31-12.388c-.62-12.775,1.214-25.757-1.137-38.39Z" transform="translate(-656.83 -148.833)" fill="#ddedfd"/>
      </g>
      <g id="Group_378" data-name="Group 378" transform="translate(749.086 156.818)">
        <g id="Group_377" data-name="Group 377">
          <path id="Path_7279" data-name="Path 7279" d="M701.88,149.531c45.714-.323,91.441-.233,137.155-.039A38.666,38.666,0,0,1,840.082,158c-.09,14.17-.065,28.353-.013,42.536-.1,1.976.129,4.172-1.072,5.9-1.628,1.4-3.9.969-5.865,1.111-37.693-.155-75.385.065-113.078-.116,1.925-7.259,1.925-14.868,1.343-22.308C719.745,171.336,712.382,158.535,701.88,149.531Zm24.7,23.316c3.113-.168,6.239-.194,9.378-.22-.09,3.772.53,7.712-.646,11.38a26.838,26.838,0,0,1-3.759.736c-.4-.736-1.214-2.209-1.615-2.945-2.041.052-4.069.078-6.1.065.814,6.937,8.745,8.564,14.325,6.459,6.058-4.986,3.229-13.524,3.72-20.293-4.947.013-9.907-.323-14.842.026C724.278,168.067,726.009,171.465,726.578,172.847Zm19.673-2.067c-1.563,5.193-2.6,11.574,1.176,16.069,3.526,3.229,8.487,2.39,12.685,1.266,4.547-4.379,4.108-11.186,2.545-16.779C758.432,166.595,750.849,166.569,746.251,170.78Zm20.526-2.7c-.09,6.782-.026,13.563-.039,20.345,4.909.1,9.895.555,14.777-.258,3.72-2.041,4.133-6.975,1.434-10.037.555-1.615,1.15-3.229,1.757-4.818-.995-1.615-1.4-4.03-3.513-4.586C776.529,167.305,771.569,168.106,766.776,168.08Zm20.706,3.191c-.078,1.744-.116,3.488-.142,5.244,2.868,3.991,8.215,3.2,11.91,5.826-2.209,6.149-8.564-2.286-12.116.581.013.736.052,2.209.078,2.945,4.431,4.121,11.987,4.689,16.469.388,1.382-2.364.53-5.193.362-7.75-3.449-1.266-6.962-2.377-10.515-3.307-.013-.71-.039-2.118-.052-2.816a8.978,8.978,0,0,1,6.007,1.744c1.214,0,3.63,0,4.844-.013C803.216,166.3,791.81,165.859,787.483,171.271Z" transform="translate(-701.88 -149.318)" fill="#fb5815"/>
        </g>
      </g>
      <g id="Group_379" data-name="Group 379" transform="translate(736.469 160.21)">
        <path id="Path_7280" data-name="Path 7280" d="M692.2,151.943c8.68,3.772,14.958,11.651,19.13,19.944,5.141,10.3,4.9,22.347,2.829,33.391-.284.168-.865.5-1.15.685-5.774,1.692-12,.736-17.942.646-2.751.026-2.894-3.539-2.945-5.541C692.135,184.688,692.058,168.309,692.2,151.943Z" transform="translate(-692.113 -151.943)" fill="#fc9b71"/>
      </g>
      <g id="Group_380" data-name="Group 380" transform="translate(771.046 175.396)">
        <path id="Path_7281" data-name="Path 7281" d="M721.618,168.651c-.568-1.382-2.3-4.779.465-4.792,4.934-.349,9.895-.013,14.842-.026-.491,6.769,2.338,15.307-3.72,20.293-5.58,2.106-13.511.478-14.325-6.459,2.028.013,4.056-.013,6.1-.065.4.736,1.214,2.209,1.615,2.945a26.835,26.835,0,0,0,3.759-.736c1.176-3.669.555-7.608.646-11.38C727.858,168.457,724.731,168.483,721.618,168.651Z" transform="translate(-718.88 -163.7)" fill="#fbfcf9"/>
      </g>
      <g id="Group_382" data-name="Group 382" transform="translate(792.044 175.198)">
        <g id="Group_381" data-name="Group 381">
          <path id="Path_7282" data-name="Path 7282" d="M736.549,166.629c4.6-4.211,12.181-4.185,16.4.555,1.563,5.593,2,12.4-2.545,16.779-4.2,1.124-9.158,1.963-12.685-1.266C733.953,178.2,734.986,171.822,736.549,166.629Zm5,2.054c-.116,3.656-.852,7.492.349,11.031,1.653.943,4.65,1.279,5.748-.646.672-3.4.245-6.885.1-10.308A22.666,22.666,0,0,0,741.548,168.683Z" transform="translate(-735.136 -163.547)" fill="#fafcf9"/>
        </g>
      </g>
      <g id="Group_384" data-name="Group 384" transform="translate(813.933 175.379)">
        <g id="Group_383" data-name="Group 383">
          <path id="Path_7283" data-name="Path 7283" d="M752.131,163.889c4.792.026,9.753-.775,14.416.646,2.118.555,2.519,2.971,3.513,4.586-.607,1.589-1.2,3.2-1.757,4.818,2.7,3.061,2.286,8-1.434,10.037-4.883.814-9.869.362-14.777.258C752.105,177.452,752.041,170.67,752.131,163.889Zm5.761,3.862c.116,1.576.245,3.139.387,4.715,1.589-.181,3.191-.284,4.766-.555.362-1.137.685-2.286.982-3.436A25.148,25.148,0,0,0,757.892,167.751Zm.142,8.293c0,1.5,0,2.984.013,4.482,1.912-.039,3.836-.1,5.761-.168l.039-4.108C761.909,176.173,759.972,176.1,758.034,176.044Z" transform="translate(-752.082 -163.687)" fill="#fafcf8"/>
        </g>
      </g>
      <g id="Group_385" data-name="Group 385" transform="translate(834.34 175.156)">
        <path id="Path_7284" data-name="Path 7284" d="M768.229,167.13c4.327-5.412,15.733-4.973,16.844,2.842-1.214.013-3.63.013-4.844.013a8.978,8.978,0,0,0-6.007-1.744c.013.7.039,2.105.052,2.816,3.552.93,7.066,2.041,10.515,3.307.168,2.558,1.021,5.386-.362,7.75-4.482,4.3-12.039,3.733-16.469-.387-.026-.736-.065-2.209-.078-2.945,3.552-2.868,9.907,5.567,12.116-.581-3.694-2.622-9.042-1.834-11.91-5.826C768.112,170.617,768.151,168.873,768.229,167.13Z" transform="translate(-767.88 -163.514)" fill="#fafbf7"/>
      </g>
      <g id="Group_386" data-name="Group 386" transform="translate(798.127 180.159)">
        <path id="Path_7285" data-name="Path 7285" d="M740.174,167.563a22.666,22.666,0,0,1,6.2.077c.142,3.423.568,6.911-.1,10.308-1.1,1.925-4.095,1.589-5.748.646C739.322,175.055,740.058,171.218,740.174,167.563Z" transform="translate(-739.845 -167.387)" fill="#f75817"/>
      </g>
      <g id="Group_387" data-name="Group 387" transform="translate(819.744 179.443)">
        <path id="Path_7286" data-name="Path 7286" d="M756.58,166.833a25.149,25.149,0,0,1,6.136.723c-.3,1.15-.62,2.3-.982,3.436-1.576.271-3.178.375-4.766.555C756.825,169.972,756.7,168.409,756.58,166.833Z" transform="translate(-756.58 -166.833)" fill="#ee5d1d"/>
      </g>
      <g id="Group_388" data-name="Group 388" transform="translate(667.626 187.129)">
        <path id="Path_7287" data-name="Path 7287" d="M638.873,180.8a20.422,20.422,0,0,1,2.054-8.022c-.426,3.811-.7,7.634-.995,11.445,7.789-.078,15.578-.1,23.367,0q.116,6.2.31,12.388c-5.852.155-11.7.181-17.542.116a49.947,49.947,0,0,0,.323,13.809C640.539,201.924,638.434,191.113,638.873,180.8Z" transform="translate(-638.817 -172.783)" fill="#9da9b9"/>
      </g>
      <g id="Group_389" data-name="Group 389" transform="translate(819.886 187.736)">
        <path id="Path_7288" data-name="Path 7288" d="M756.69,173.253c1.938.052,3.875.129,5.813.207l-.039,4.108c-1.925.065-3.849.129-5.761.168C756.69,176.237,756.69,174.751,756.69,173.253Z" transform="translate(-756.69 -173.253)" fill="#ef5b19"/>
      </g>
      <g id="Group_390" data-name="Group 390" transform="translate(949.76 198.444)">
        <path id="Path_7289" data-name="Path 7289" d="M857.32,181.582c7.815.129,15.63-.245,23.445.142a10.062,10.062,0,0,1,7.066,9.481c-.013,47.3.065,94.619-.039,141.922-4.4,3.836-5.387,9.675-4.922,15.242-2.6-.078-5.18-.129-7.763-.142-.168-51.32-.013-102.653-.078-153.986-5.916-.039-11.819-.039-17.735-.052Q857.158,187.873,857.32,181.582Z" transform="translate(-857.233 -181.543)" fill="#5b6f8a"/>
      </g>
      <g id="Group_391" data-name="Group 391" transform="translate(579.444 198.483)">
        <path id="Path_7290" data-name="Path 7290" d="M576.066,188.057c5.619-1.2,11.264-2.932,15.888-6.484a36.361,36.361,0,0,1,4.521,21.3c-1.382,3.358-5.968,2.842-8.848,4.159.09,2.17.207,4.353.336,6.523-.517.323-1.563.943-2.08,1.253-4.159.736-8.37.194-12.53-.052-.375-2.222-.762-4.431-1.085-6.639,2.635-5.322-.581-10.528-1.718-15.759,2.08.723,3.991,1.847,6.058,2.622C576.44,192.669,576.247,190.357,576.066,188.057Z" transform="translate(-570.55 -181.573)" fill="#fed0c5"/>
      </g>
      <g id="Group_392" data-name="Group 392" transform="translate(674.553 210.961)">
        <path id="Path_7291" data-name="Path 7291" d="M644.5,191.349c5.839.065,11.69.039,17.542-.116.3,9.92.09,19.841.116,29.761a44.4,44.4,0,0,1-17.335-15.837A49.947,49.947,0,0,1,644.5,191.349Z" transform="translate(-644.18 -191.233)" fill="#fffffe"/>
        <path id="Path_7292" data-name="Path 7292" d="M857.28,191.333c5.916.013,11.819.013,17.735.052.065,51.333-.09,102.666.078,153.986-5.9.026-11.819-.013-17.723-.065C857.383,293.986,857.564,242.653,857.28,191.333Z" transform="translate(-582.013 -191.204)" fill="#fffffe"/>
      </g>
      <g id="Group_393" data-name="Group 393" transform="translate(662.75 223.31)">
        <path id="Path_7293" data-name="Path 7293" d="M635.634,200.793a98.06,98.06,0,0,1,6.562,10.67,24.659,24.659,0,0,1-6.64,5.658A60.624,60.624,0,0,1,635.634,200.793Z" transform="translate(-635.042 -200.793)" fill="#5b6d89"/>
      </g>
      <g id="Group_395" data-name="Group 395" transform="translate(565.795 229.938)">
        <g id="Group_394" data-name="Group 394">
          <path id="Path_7294" data-name="Path 7294" d="M591.045,206.452c4.314-1.55,9.339.646,13.473,2.248,7.673,5.038,11.7,13.847,15.9,21.7,9.352-.917,18.019-5.477,27.423-5.813-5.593,6.5-12.246,11.948-18.562,17.71-3.94.956-8.771,3.526-12.336.31-3.681-2.842-2.738-7.983-3.191-12.052a23.164,23.164,0,0,0-3.591-13.059,257.558,257.558,0,0,1,1.188,30.6c0,.349.026,1.02.026,1.356a117.514,117.514,0,0,1,17.309-1.046,66.245,66.245,0,0,0,.168,9.055c-4.3,2.493-9.3,3.061-14.028,4.263-1.421.31-2.842.607-4.263.917-.478,1.524-.956,3.036-1.382,4.573-.271-1.046-.8-3.152-1.059-4.2-6.317.995-12.581,2.39-18.988,2.751-3.681.194-7.686-.22-10.644-2.635-6.962-5.425-10.954-13.486-15.294-20.952-.207,1.692-.387,3.371-.542,5.064-1.77-9.288-3.371-18.846-2.351-28.328,1.705-6.962,9.455-10.941,16.134-11.264,4.159.245,8.37.788,12.53.052C589.482,207.4,590.528,206.775,591.045,206.452Zm-20.125,8.784a56.147,56.147,0,0,0,5.386,7.557c5.916,8.977,10.476,18.743,15.423,28.263,2.6-.09,5.193-.181,7.789-.323-2.545-3.759-7.815-4.573-10.192-8.655C583.14,233.243,582.455,219.512,570.92,215.236Z" transform="translate(-559.983 -205.924)" fill="#454ae4"/>
        </g>
      </g>
      <g id="Group_396" data-name="Group 396" transform="translate(721.56 238.022)">
        <path id="Path_7295" data-name="Path 7295" d="M680.854,213.307c5.516-1.563,11.277-1.24,16.9-.568A30.366,30.366,0,0,1,685.7,218.4c-1.705.078-3.423.116-5.128.129C680.66,216.782,680.764,215.038,680.854,213.307Z" transform="translate(-680.57 -212.182)" fill="#ddedfc"/>
      </g>
      <g id="Group_397" data-name="Group 397" transform="translate(576.732 239.25)">
        <path id="Path_7296" data-name="Path 7296" d="M568.45,213.133c11.535,4.276,12.22,18.007,18.407,26.842,2.377,4.082,7.647,4.9,10.192,8.655-2.6.142-5.193.232-7.789.323-4.947-9.52-9.507-19.285-15.423-28.263A56.147,56.147,0,0,1,568.45,213.133Z" transform="translate(-568.45 -213.133)" fill="#2623be"/>
      </g>
      <g id="Group_398" data-name="Group 398" transform="translate(615.974 241.511)">
        <path id="Path_7297" data-name="Path 7297" d="M598.83,214.883a23.164,23.164,0,0,1,3.591,13.059c.452,4.069-.491,9.21,3.191,12.052,3.565,3.216,8.4.646,12.336-.31-.943.84-1.86,1.679-2.777,2.532a48.066,48.066,0,0,1-15.152,3.268A257.558,257.558,0,0,0,598.83,214.883Z" transform="translate(-598.83 -214.883)" fill="#2722bc"/>
      </g>
      <g id="Group_399" data-name="Group 399" transform="translate(768.239 245.618)">
        <path id="Path_7298" data-name="Path 7298" d="M718.157,218.463a64.666,64.666,0,0,1,9.882-.4c46.838.194,93.676-.22,140.514.207q.1,2.306.155,4.611-74.229.136-148.471.013C717.408,223.721,715.1,219.755,718.157,218.463Z" transform="translate(-716.707 -218.063)" fill="#e6f0fb"/>
      </g>
      <g id="Group_400" data-name="Group 400" transform="translate(729.336 249.562)">
        <path id="Path_7299" data-name="Path 7299" d="M692.015,228.8c4.857-2.209,8.035-8.086,13.873-7.66-.62,1.434-.917,3.113-2.4,3.953-4.082,3.1-7.983,6.523-12.594,8.835-2.041-2.17-3.836-4.624-4.3-7.66A9.676,9.676,0,0,1,692.015,228.8Z" transform="translate(-686.59 -221.116)" fill="#fbfdfc"/>
      </g>
      <g id="Group_401" data-name="Group 401" transform="translate(661.43 253.149)">
        <path id="Path_7300" data-name="Path 7300" d="M634.02,237.2c4.2-4.611,8.784-8.848,13.137-13.3-.142,49.589.013,99.179-.078,148.781a102.767,102.767,0,0,0,.439,12.284c6.807-.142,13.615-.129,20.435-.013q124.1,0,248.2.039c.362,1.6.723,3.216,1.1,4.818.788.142,2.364.426,3.152.555.013,1.15.052,3.449.078,4.6-29.645.207-59.342-.4-88.948.284-2.571,3.216-4.456,6.924-6.743,10.347-20.758-.052-41.516.09-62.261-.065q-3.294-5.348-6.73-10.592c-40.25-.09-80.513.3-120.763-.194q-.1-75.663,0-151.338A36.1,36.1,0,0,0,634.02,237.2Z" transform="translate(-634.02 -223.893)" fill="#5b6e8a"/>
      </g>
      <g id="Group_402" data-name="Group 402" transform="translate(768.335 260.835)">
        <path id="Path_7301" data-name="Path 7301" d="M717.994,230.437c1.925-.853,4.108-.478,6.149-.594,30.149.245,60.323-.09,90.472.233a2.391,2.391,0,0,1,2.506,3.759c-2.971.762-6.071.543-9.094.568-29.257-.284-58.5.1-87.747-.181C718.252,234.7,715,231.587,717.994,230.437Z" transform="translate(-716.781 -229.843)" fill="#e7f0fd"/>
      </g>
      <g id="Group_403" data-name="Group 403" transform="translate(568.465 266.196)">
        <path id="Path_7302" data-name="Path 7302" d="M562.592,233.993c4.34,7.466,8.332,15.527,15.294,20.952,2.958,2.416,6.962,2.829,10.644,2.635,6.407-.362,12.672-1.757,18.988-2.751.258,1.046.788,3.152,1.059,4.2l.013.736c-3.462,2-6.782,5.064-11.044,4.909-7.6.168-16.276-1.615-22.554,3.862-.982.013-2.945.065-3.927.09-2.183-.672-4.366-1.33-6.51-2.118-.284-.245-.853-.71-1.124-.943a111.045,111.045,0,0,0-1.382-26.506C562.205,237.364,562.386,235.685,562.592,233.993Z" transform="translate(-562.05 -233.993)" fill="#2723bc"/>
      </g>
      <g id="Group_404" data-name="Group 404" transform="translate(643.626 266.454)">
        <path id="Path_7303" data-name="Path 7303" d="M636.594,235.808c.362-.4,1.085-1.214,1.447-1.615a36.094,36.094,0,0,1,1.02,6.2q-.077,75.663,0,151.338c40.25.491,80.513.1,120.763.194q3.449,5.231,6.73,10.592c20.745.155,41.5.013,62.261.065,2.286-3.423,4.172-7.13,6.743-10.347,29.606-.685,59.3-.078,88.948-.284.22,7.828-.5,15.694.672,23.484-101.142-.168-202.3.181-303.439-.168a51.662,51.662,0,0,1-.943-19.75,4.239,4.239,0,0,1,3.707-3.694,116.019,116.019,0,0,1,12.724-.5c.155-2.932.3-5.852.336-8.771-.142-44.332.013-88.664-.052-133A56.358,56.358,0,0,0,636.594,235.808Z" transform="translate(-620.237 -234.193)" fill="#e7f1fd"/>
      </g>
      <g id="Group_405" data-name="Group 405" transform="translate(617.163 268.844)">
        <path id="Path_7304" data-name="Path 7304" d="M599.75,239.311a48.066,48.066,0,0,0,15.152-3.268c-.672.71-2.028,2.131-2.7,2.842,4.96.749,9.61-1.175,14.441-1.705,3.668.207,4.379,5.206,2.041,7.389-2.88,3.2-7.621,2.893-11.432,4.108a66.255,66.255,0,0,1-.168-9.055,117.513,117.513,0,0,0-17.309,1.046C599.776,240.332,599.75,239.66,599.75,239.311Z" transform="translate(-599.75 -236.043)" fill="#fcd0c5"/>
      </g>
      <g id="Group_407" data-name="Group 407" transform="translate(721.529 282.617)">
        <g id="Group_406" data-name="Group 406">
          <path id="Path_7305" data-name="Path 7305" d="M681.275,247.891c2.855-1.744,6.394-.995,9.572-1.15,8.034.31,16.134-.607,24.129.659.4,10.993.465,22.011,0,33.016-8.8,1.653-17.826.362-26.739.853-2.454-.233-6.174.7-7.363-2.2-.659-6.769-.09-13.589-.271-20.383C680.719,255.1,680.215,251.365,681.275,247.891Zm12.336,17.283c-1.46-.749-2.816-1.64-4.2-2.506-2.015,3.165,1.176,6.368,3.94,7.712,4.237-2,7.724-5.244,11.367-8.138,1.124-1.15,3.165-2.235,2.235-4.146C701.516,257.372,698.648,264.5,693.61,265.174Z" transform="translate(-680.546 -246.706)" fill="#c8e1fe"/>
        </g>
      </g>
      <g id="Group_408" data-name="Group 408" transform="translate(577.481 286.656)">
        <path id="Path_7306" data-name="Path 7306" d="M606.542,254.406c.426-1.537.9-3.048,1.382-4.573-.413,4.6-1.137,9.2-1.111,13.834-.026,1.963.013,3.94.09,5.9-.323-2.144-.685-4.289-1.033-6.42-9.972,3.139-20.487,3.436-30.833,2.79A30.742,30.742,0,0,1,569.03,264c.982-.026,2.945-.078,3.927-.09,11.212,1.033,23.148,1.589,33.675-3.061-.026-1.912-.052-3.811-.078-5.709Z" transform="translate(-569.03 -249.833)" fill="#c2a869"/>
      </g>
      <g id="Group_409" data-name="Group 409" transform="translate(768.464 289.678)">
        <path id="Path_7307" data-name="Path 7307" d="M716.983,252.574c3.216-.233,6.446-.413,9.675-.4,47.329.3,94.657-.181,142,.207.568,2.583-.7,5.219-3.707,4.805-46.489.065-92.991-.052-139.48.09a33.664,33.664,0,0,1-7.389-.62C716.195,256.19,717.138,253.891,716.983,252.574Z" transform="translate(-716.881 -252.173)" fill="#e7f0fb"/>
      </g>
      <g id="Group_410" data-name="Group 410" transform="translate(581.408 291.965)">
        <path id="Path_7308" data-name="Path 7308" d="M594.624,258.852c4.263.155,7.582-2.906,11.044-4.909.026,1.9.052,3.8.078,5.709-10.528,4.65-22.463,4.095-33.675,3.061C578.348,257.237,587.028,259.019,594.624,258.852Z" transform="translate(-572.07 -253.943)" fill="#4449e4"/>
      </g>
      <g id="Group_411" data-name="Group 411" transform="translate(729.761 293.955)">
        <path id="Path_7309" data-name="Path 7309" d="M691.751,262.613c5.038-.672,7.905-7.8,13.344-7.079.93,1.912-1.111,3-2.235,4.146-3.643,2.893-7.13,6.136-11.367,8.138-2.764-1.343-5.955-4.547-3.94-7.712C688.935,260.973,690.292,261.864,691.751,262.613Z" transform="translate(-686.919 -255.483)" fill="#fbfcfc"/>
      </g>
      <g id="Group_412" data-name="Group 412" transform="translate(550.613 297.765)">
        <path id="Path_7310" data-name="Path 7310" d="M567.464,258.433c.271.232.84.7,1.124.943q-.543,3.255-1.124,6.51L567.1,267.9c-.982,5.412-1.757,10.876-2.8,16.276-.1.542-.31,1.615-.413,2.157-1.02,5.193-1.886,10.411-2.958,15.591-.323,1.55-.672,3.087-1.02,4.65-1.072,4.857-2.054,9.74-3.152,14.6-.155.685-.478,2.028-.633,2.713-2.248,8.28-3.772,16.935-7.893,24.556.736-5.839,3.359-11.173,4.715-16.844,4.185-17.593,7.686-35.342,10.9-53.129C565.074,271.789,565.565,264.969,567.464,258.433Z" transform="translate(-548.23 -258.433)" fill="#f4e284"/>
      </g>
      <g id="Group_413" data-name="Group 413" transform="translate(569.847 298.708)">
        <path id="Path_7311" data-name="Path 7311" d="M564.244,259.163c2.144.788,4.327,1.447,6.51,2.118a30.741,30.741,0,0,0,6.006,1.938c10.347.646,20.861.349,30.833-2.79.349,2.131.71,4.276,1.033,6.42.155.982.465,2.958.62,3.94-5.684-.594-13.176,1.253-16.624-4.624-.711.853-1.421,1.692-2.131,2.545-9.042-1.705-18.226-2.3-27.372-3.036Q563.7,262.418,564.244,259.163Z" transform="translate(-563.12 -259.163)" fill="#fbc801"/>
      </g>
      <g id="Group_414" data-name="Group 414" transform="translate(615.256 300.491)">
        <path id="Path_7312" data-name="Path 7312" d="M598.282,260.543a59.361,59.361,0,0,1,3,14.777c4.185,27.049,7.88,54.175,10.36,81.43a75.687,75.687,0,0,1,.233,15.01c-.413-2.338-.853-4.689-1.163-7.04-.052-.672-.155-2.028-.207-2.7-.258-5.257-.8-10.489-1.447-15.707-.09-.71-.245-2.131-.323-2.855-.465-5.128-.9-10.256-1.6-15.359-.077-.568-.22-1.692-.284-2.248-.659-5.322-1.279-10.631-2.041-15.927-.09-.62-.258-1.873-.336-2.506-.736-5.529-1.628-11.044-2.428-16.56l-.155-1.137q-1.066-8.448-2.467-16.831c-.1-.62-.323-1.886-.426-2.506-.155-.982-.465-2.958-.62-3.94C598.295,264.483,598.256,262.506,598.282,260.543Z" transform="translate(-598.274 -260.543)" fill="#f5e286"/>
      </g>
      <g id="Group_415" data-name="Group 415" transform="translate(558.505 305.219)">
        <path id="Path_7313" data-name="Path 7313" d="M565.681,264.2c9.145.736,18.33,1.33,27.372,3.036.71-.853,1.421-1.692,2.131-2.545,3.449,5.877,10.941,4.03,16.624,4.624.1.62.323,1.886.426,2.506a111.634,111.634,0,0,0-13.912-1.3c1.033,5.464,2.093,10.928,3.036,16.418a118.508,118.508,0,0,0,13.344,1.718l.155,1.137c-4.508-.142-9.016-.426-13.511-.9q-1.473,7.905-2.764,15.875a122.658,122.658,0,0,0,18.7,1.589c.077.633.245,1.886.336,2.506-6.562-.749-13.111-1.511-19.7-1.873-.672,5.1-3.4,10.954-1.6,15.811,7.582,1.989,15.526,2.248,23.341,1.989.065.555.207,1.679.284,2.248-8.37-.258-16.65-1.537-24.982-2.261a137.183,137.183,0,0,0-.31,16.457c8.939.865,17.929,3.061,26.894,1.163.078.723.232,2.144.323,2.855-9.262.194-18.407-1.33-27.514-2.713a34.7,34.7,0,0,1-5.516,8.719,188.268,188.268,0,0,0-.853-24.439c-.052-.788-.129-2.377-.168-3.165-11.018-1.963-22.36-3.384-33.481-1.447.155-.685.478-2.028.633-2.713a157.969,157.969,0,0,1,33.12,1.989,112.581,112.581,0,0,0,3.229-15.436c-10.876-1.744-22.36-4.392-33.2-1.15.349-1.563.7-3.1,1.02-4.65a240.323,240.323,0,0,1,26.377,2.467c2.054-.077,4.56,1.24,6.3-.258a37.12,37.12,0,0,0,1.976-14.519,141.372,141.372,0,0,0-31.7-3.281c.1-.542.31-1.615.413-2.157,10.631.84,21.236,1.77,31.789,3.423q.291-8.2.039-16.379c-9.533-2.118-19.3-2.751-29.025-3.32Z" transform="translate(-554.34 -264.203)" fill="#e3b401"/>
      </g>
      <g id="Group_416" data-name="Group 416" transform="translate(768.271 304.899)">
        <path id="Path_7314" data-name="Path 7314" d="M720.256,268.9c-3.552,1.2-5.154-4.469-1.266-4.65,29.7-.375,59.432.026,89.142-.207,3.41-.013,7.079-.568,10.153,1.292-.478,1.2-.943,2.4-1.408,3.6C784.674,269.016,752.446,269.223,720.256,268.9Z" transform="translate(-716.732 -263.955)" fill="#e6f1fc"/>
      </g>
      <g id="Group_417" data-name="Group 417" transform="translate(559.138 307.234)">
        <path id="Path_7315" data-name="Path 7315" d="M560.67,282.039c1.046-5.4,1.821-10.863,2.8-16.276,9.727.568,19.492,1.2,29.025,3.32q.252,8.177-.039,16.379C581.906,283.808,571.3,282.878,560.67,282.039Z" transform="translate(-553.126 -265.763)" fill="#fcc900"/>
        <path id="Path_7316" data-name="Path 7316" d="M561.018,280.038a141.372,141.372,0,0,1,31.7,3.281,37.12,37.12,0,0,1-1.976,14.519c-1.744,1.5-4.25.181-6.3.258a240.323,240.323,0,0,0-26.377-2.467C559.132,290.45,560,285.231,561.018,280.038Z" transform="translate(-553.888 -261.605)" fill="#fcc900"/>
        <path id="Path_7317" data-name="Path 7317" d="M741.21,306.661c.452-5.425-1.628-11.781,2.519-16.2,15.346.116,30.691.078,46.037.013.982.865,1.963,1.744,2.945,2.648-.1,11.832.065,23.677-.065,35.509.607,3.242-3.371,4.185-5.8,4.276-12.517.065-25.034-.065-37.55.052a18.1,18.1,0,0,1-6.924-1.188C740,323.634,741.714,315.019,741.21,306.661Z" transform="translate(-500.498 -258.557)" fill="#fcc900"/>
        <path id="Path_7318" data-name="Path 7318" d="M557.982,296.049c10.837-3.242,22.321-.594,33.2,1.15a112.581,112.581,0,0,1-3.229,15.436,157.969,157.969,0,0,0-33.12-1.989C555.928,305.788,556.91,300.906,557.982,296.049Z" transform="translate(-554.83 -257.375)" fill="#fcc900"/>
        <path id="Path_7319" data-name="Path 7319" d="M588.578,297.323c6.588.362,13.137,1.124,19.7,1.873.762,5.3,1.382,10.605,2.041,15.927-7.815.258-15.759,0-23.341-1.989C585.181,308.277,587.906,302.425,588.578,297.323Z" transform="translate(-545.628 -256.556)" fill="#fcc900"/>
        <path id="Path_7320" data-name="Path 7320" d="M585.887,311.093c8.332.723,16.612,2,24.982,2.261.7,5.1,1.137,10.23,1.6,15.359-8.964,1.9-17.955-.3-26.894-1.163A137.17,137.17,0,0,1,585.887,311.093Z" transform="translate(-545.895 -252.539)" fill="#fcc900"/>
        <path id="Path_7321" data-name="Path 7321" d="M581.193,333.562a34.7,34.7,0,0,0,5.516-8.719c9.107,1.382,18.252,2.906,27.514,2.713.646,5.219,1.188,10.45,1.447,15.707-11.768,1.111-23.651-.969-35.109-3.488C580.78,337.7,581.038,335.629,581.193,333.562Z" transform="translate(-547.324 -248.528)" fill="#fcc900"/>
      </g>
      <g id="Group_418" data-name="Group 418" transform="translate(541.3 311.535)">
        <path id="Path_7322" data-name="Path 7322" d="M588.39,269.093a111.634,111.634,0,0,1,13.912,1.3q1.414,8.39,2.467,16.831a118.508,118.508,0,0,1-13.344-1.718C590.483,280.021,589.423,274.557,588.39,269.093Z" transform="translate(-527.201 -269.093)" fill="#fcc800"/>
        <path id="Path_7323" data-name="Path 7323" d="M591.354,283.313c4.5.478,9,.762,13.511.9.8,5.516,1.692,11.031,2.428,16.56a122.658,122.658,0,0,1-18.7-1.589Q589.888,291.225,591.354,283.313Z" transform="translate(-527.143 -264.945)" fill="#fcc800"/>
        <path id="Path_7324" data-name="Path 7324" d="M558.226,309.311c11.122-1.938,22.463-.517,33.481,1.447.039.788.116,2.377.168,3.165-1.434,5.606-2.777,11.238-3.811,16.934-4.366,15.062-5.839,30.769-9.959,45.895-10.863.517-21.74.362-32.6.052-2.3.4-2.816-2.118-3.294-3.733-2.351-7.957-.762-16.263.891-24.168,1.46-5.412,4.521-10.192,7.234-15.036C554.454,326.246,555.978,317.591,558.226,309.311Z" transform="translate(-541.02 -257.629)" fill="#fcc800"/>
        <path id="Path_7325" data-name="Path 7325" d="M580.038,340.168c.116-.375.349-1.111.465-1.485,12.091,1.343,24.1,3.9,36.323,3.242.31,2.351.749,4.7,1.163,7.04.323,6.459.258,12.917.168,19.389q-14.687.136-29.374-.129c-3.63-.3-7.57.517-10.98-.891C576,358.278,579.612,349.236,580.038,340.168Z" transform="translate(-530.436 -248.792)" fill="#fcc800"/>
      </g>
      <g id="Group_419" data-name="Group 419" transform="translate(726.235 339.139)">
        <path id="Path_7326" data-name="Path 7326" d="M684.242,296.3c-.116-2.441,1.008-6.329,4.146-5.787,15.01-.116,30.02.039,45.017-.052,1.021,1.33,2.48,2.6,2.235,4.482.129,11.173.155,22.373-.013,33.559a4.18,4.18,0,0,1-4.444,4.379c-12.956.142-25.9-.065-38.855.078a18.311,18.311,0,0,1-6.962-1.2,22.532,22.532,0,0,1-1.162-7.092C684.294,315.212,684.177,305.757,684.242,296.3Z" transform="translate(-684.189 -290.463)" fill="#48dcc6"/>
      </g>
      <g id="Group_420" data-name="Group 420" transform="translate(873.587 339.127)">
        <path id="Path_7327" data-name="Path 7327" d="M798.324,298.875c-.013-2.958-.452-8.732,3.953-8.332,14.3-.116,28.586-.026,42.885-.039a4.052,4.052,0,0,1,4.444,4.521c.013,11.47.181,22.967-.09,34.437-.052,2.842-3.514,3.423-5.735,3.462-12.491.052-24.969-.077-37.447.039a21.232,21.232,0,0,1-7.195-1.124C797.432,320.963,798.84,309.854,798.324,298.875Z" transform="translate(-798.263 -290.454)" fill="#3d83f3"/>
      </g>
      <g id="Group_421" data-name="Group 421" transform="translate(975.291 349.15)">
        <path id="Path_7328" data-name="Path 7328" d="M882.025,299.091c2.713-1.033,5.671-.827,8.525-.878,11.173.116,22.36-.039,33.533.052,4.586-.452,8.112,3.371,9.533,7.363a62.373,62.373,0,0,1,.258,8.512c-2.209.013-4.431.039-6.627.039.013-2.312.026-4.637.09-6.949-2.635-3.436-7.156-2.622-10.954-2.7-9.068.155-18.136-.09-27.2.065-2.131-.233-3.8,1.085-5.541,2.028q-.388,3.953-.84,7.905c-1.912-.065-3.811-.142-5.7-.194C876.639,308.766,877.62,302.928,882.025,299.091Z" transform="translate(-876.999 -298.213)" fill="#ca6d39"/>
      </g>
      <g id="Group_422" data-name="Group 422" transform="translate(981.933 355.435)">
        <path id="Path_7329" data-name="Path 7329" d="M882.14,305.2c1.744-.943,3.41-2.26,5.541-2.028,9.068-.155,18.136.09,27.2-.065,3.8.078,8.319-.736,10.954,2.7-.065,2.312-.078,4.637-.09,6.949-14.338-.013-28.676-.09-43.014.052C882.553,310.266,882.347,307.735,882.14,305.2Z" transform="translate(-882.14 -303.078)" fill="#fefdfd"/>
      </g>
      <g id="Group_423" data-name="Group 423" transform="translate(943.568 357.559)">
        <path id="Path_7330" data-name="Path 7330" d="M889.964,312.628q.446-3.953.84-7.905c.207,2.532.413,5.064.594,7.608,14.338-.142,28.676-.065,43.014-.052,2.2,0,4.418-.026,6.627-.039,9.688.168,19.4-.323,29.077.245,3.359,1.279,2.105,5.374,2.4,8.138-.426,15.242.685,30.562-.607,45.766l-3.359.362c-15.488.478-30.988-.077-46.489.22.026-3.746-.052-7.466-.155-11.2q-9.3-.349-18.6-.013c.077,5.645-.052,11.29-.052,16.934-.594-1.9-1.24-3.772-1.847-5.658-14.906-.349-29.826.194-44.719-.258-.788-.129-2.364-.413-3.152-.555-.375-1.6-.736-3.216-1.1-4.818,1.15-15.242-.052-30.562.607-45.817-.09-3.061,3.462-3.384,5.735-3.358,5.9.052,11.819.09,17.723.065,2.583.013,5.167.065,7.763.142C886.154,312.486,888.053,312.564,889.964,312.628Z" transform="translate(-852.44 -304.723)" fill="#e48c5c"/>
      </g>
      <g id="Group_424" data-name="Group 424" transform="translate(570.028 367.828)">
        <path id="Path_7331" data-name="Path 7331" d="M581.577,329.607c1.033-5.7,2.377-11.328,3.811-16.934a188.268,188.268,0,0,1,.853,24.439c-.155,2.067-.413,4.134-.633,6.213-.258.736-.749,2.209-1.008,2.945-.116.375-.349,1.111-.465,1.485a65.259,65.259,0,0,0-3.242,29.219,72.231,72.231,0,0,1,9.455.336c.452.271,1.369.827,1.821,1.1-.93,4.663-2.028,9.288-3.113,13.925-3.966-.013-7.944-.013-11.91,0a19.589,19.589,0,0,0-1.563-6.988c-3.074-2.868-7.557-3.32-10.747-6.007-.387-.594-1.188-1.783-1.576-2.364a33.485,33.485,0,0,0,9.365-.5c1.989-4.973,2.338-10.4,3.539-15.578C578.089,350.482,580.84,340.2,581.577,329.607Z" transform="translate(-563.26 -312.673)" fill="#fefefd"/>
      </g>
      <g id="Group_425" data-name="Group 425" transform="translate(540.061 384.763)">
        <path id="Path_7332" data-name="Path 7332" d="M578.385,371.678c4.121-15.126,5.593-30.833,9.959-45.895-.736,10.592-3.488,20.874-5.412,31.286-1.2,5.18-1.55,10.605-3.539,15.578a33.485,33.485,0,0,1-9.365.5c-4.134-1.356-8.525-1.292-12.788-.878-.323.659-.956,2-1.266,2.674l-.207-.245c-3.32-2.906-8.719-.943-12.9-1.589-3.2-7.531-3.41-15.992-1.873-23.936a11.557,11.557,0,0,1,2.39-5.348c-1.653,7.905-3.242,16.211-.891,24.168.478,1.615.995,4.133,3.294,3.733C556.645,372.04,567.522,372.195,578.385,371.678Z" transform="translate(-540.061 -325.783)" fill="#eedb7e"/>
      </g>
      <g id="Group_426" data-name="Group 426" transform="translate(591.367 398.481)">
        <path id="Path_7333" data-name="Path 7333" d="M579.78,339.348c.258-.736.749-2.209,1.008-2.945,11.458,2.519,23.341,4.6,35.109,3.488.052.672.155,2.028.207,2.7C603.884,343.249,591.871,340.691,579.78,339.348Z" transform="translate(-579.78 -336.403)" fill="#ecbc03"/>
      </g>
      <g id="Group_427" data-name="Group 427" transform="translate(587.218 402.912)">
        <path id="Path_7334" data-name="Path 7334" d="M577.01,369.052a65.259,65.259,0,0,1,3.242-29.219c-.426,9.068-4.043,18.11-2.235,27.165,3.41,1.408,7.35.594,10.98.891-.065.71-.194,2.131-.258,2.855l-.452-.258c-.452-.271-1.369-.827-1.821-1.1A72.231,72.231,0,0,0,577.01,369.052Z" transform="translate(-576.568 -339.833)" fill="#eedc80"/>
      </g>
      <g id="Group_428" data-name="Group 428" transform="translate(994.385 408.432)">
        <path id="Path_7335" data-name="Path 7335" d="M891.832,344.27q9.3-.329,18.6.013c.1,3.733.181,7.453.155,11.2-.026,2.441-.129,4.9-.233,7.35q-9.145.058-18.265-.026l-.31-1.6C891.78,355.56,891.909,349.915,891.832,344.27Z" transform="translate(-891.78 -344.107)" fill="#fefefe"/>
      </g>
      <g id="Group_429" data-name="Group 429" transform="translate(947.818 419.588)">
        <path id="Path_7336" data-name="Path 7336" d="M855.73,352.769c14.894.452,29.813-.09,44.719.258.607,1.886,1.253,3.759,1.847,5.658l.31,1.6q9.126.077,18.265.026c.1-2.454.207-4.909.233-7.35,15.5-.3,31,.258,46.489-.22-.71,9.3,1.292,18.937-1.15,27.992-36.646.349-73.318.129-109.964.116-1.176-7.789-.452-15.656-.672-23.484C855.782,356.218,855.743,353.918,855.73,352.769Z" transform="translate(-855.73 -352.743)" fill="#cc6e3a"/>
      </g>
      <g id="Group_430" data-name="Group 430" transform="translate(599.388 430.968)">
        <path id="Path_7337" data-name="Path 7337" d="M586.248,361.553q14.687.252,29.374.129c-5.3.1-10.592.09-15.888.116.3.788.891,2.351,1.2,3.126-4.947.426-10.269,1.8-14.945-.517C586.055,363.684,586.184,362.263,586.248,361.553Z" transform="translate(-585.99 -361.553)" fill="#3c3433"/>
      </g>
      <g id="Group_431" data-name="Group 431" transform="translate(555.974 430.991)">
        <path id="Path_7338" data-name="Path 7338" d="M552.38,364.506c.31-.672.943-2.015,1.266-2.674,4.263-.413,8.655-.478,12.788.878.387.581,1.188,1.77,1.576,2.364a47.918,47.918,0,0,1-14.751.517Z" transform="translate(-552.38 -361.571)" fill="#1a1731"/>
      </g>
      <g id="Group_432" data-name="Group 432" transform="translate(552.719 433.681)">
        <path id="Path_7339" data-name="Path 7339" d="M552.908,363.653l.207.245.878,1.085a47.919,47.919,0,0,0,14.751-.517c3.191,2.687,7.673,3.139,10.747,6.007.1,2.312.078,4.65.1,6.975-9.907.155-19.828.116-29.735-.013C550.8,372.824,552.03,368.264,552.908,363.653Z" transform="translate(-549.86 -363.653)" fill="#29255f"/>
      </g>
      <g id="Group_433" data-name="Group 433" transform="translate(540.742 440.501)">
        <path id="Path_7340" data-name="Path 7340" d="M582.2,368.933a19.589,19.589,0,0,1,1.563,6.988c3.966-.013,7.944-.013,11.91,0,10.05-.039,20.1.323,30.136-.116.1-1.9.168-3.785.22-5.671.31,1.912.452,3.823.633,5.761,6.11.026,12.22-.026,18.317.065,101.142.349,202.3,0,303.439.168,36.646.013,73.318.233,109.964-.116,1.718.039,4.586-.375,4.96,2a3.222,3.222,0,0,1-3.591,4.56q-256.439.136-512.879.065c-1.938-.155-4.237.323-5.813-1.124-.736-1.679-.8-4.586,1.292-5.232,3.346-.672,6.807-.336,10.218-.388,9.908.129,19.828.168,29.735.013C582.274,373.583,582.3,371.245,582.2,368.933Z" transform="translate(-540.589 -368.933)" fill="#4a5b6d"/>
      </g>
    </g>
  </g>
</svg>
