<svg xmlns="http://www.w3.org/2000/svg" width="51.667" height="45.16" viewBox="0 0 51.667 45.16">
  <g id="slide2" transform="translate(0 -48.477)">
    <path id="Path_3" data-name="Path 3" d="M41.687,272a9.688,9.688,0,1,0,9.687,9.688A9.7,9.7,0,0,0,41.687,272Zm0,17.76a8.073,8.073,0,1,1,8.073-8.073A8.082,8.082,0,0,1,41.687,289.76Z" transform="translate(-28.771 -200.967)" fill="#060056"/>
    <path id="Path_4" data-name="Path 4" d="M90.422,315.229h4.844a.807.807,0,1,0,0-1.615H92.844v-.807a.807.807,0,1,0-1.615,0v.807h-.807a2.422,2.422,0,0,0,0,4.844h3.229a.807.807,0,1,1,0,1.615H88.807a.807.807,0,0,0,0,1.615h2.422v.807a.807.807,0,0,0,1.615,0v-.807h.807a2.422,2.422,0,0,0,0-4.844H90.422a.807.807,0,1,1,0-1.615Z" transform="translate(-79.12 -236.931)" fill="#060056"/>
    <path id="Path_5" data-name="Path 5" d="M50.052,87.328V64.575a2.425,2.425,0,0,0-2.422-2.422H43.594a2.425,2.425,0,0,0-2.422,2.422v22.6H39.557V70.226A2.425,2.425,0,0,0,37.135,67.8H33.1a2.425,2.425,0,0,0-2.422,2.422V87.179H29.062V74.262a1.616,1.616,0,0,0-1.615-1.615H22.984a13,13,0,0,0-1.207-1.3L35.844,57.28l1.475,1.475a1.593,1.593,0,0,0,1.75.356,1.611,1.611,0,0,0,1-1.5V50.092a1.616,1.616,0,0,0-1.615-1.615H30.944A1.617,1.617,0,0,0,29.8,51.236l1.48,1.48L15.844,68.151a12.913,12.913,0,1,0,3.312,23.871H49.245a2.416,2.416,0,0,0,.807-4.7ZM42.786,64.575a.808.808,0,0,1,.807-.807H47.63a.808.808,0,0,1,.807.807v22.6H42.786ZM32.292,70.226a.808.808,0,0,1,.807-.807h4.036a.808.808,0,0,1,.807.807V87.179H32.292Zm-4.844,4.036V87.179H24.086a12.806,12.806,0,0,0,0-12.917Zm5.544-20.976a.807.807,0,0,0,0-1.142l-2.048-2.053h7.516l.006,7.527-2.051-2.051a.807.807,0,0,0-1.142,0L20.53,70.31a12.889,12.889,0,0,0-2.943-1.619ZM12.917,92.023a11.3,11.3,0,1,1,11.3-11.3A11.315,11.315,0,0,1,12.917,92.023Zm36.328-1.615H21.432a13.015,13.015,0,0,0,1.552-1.615H49.245a.807.807,0,1,1,0,1.615Z" transform="translate(0 0)" fill="#060056"/>
  </g>
</svg>
