<svg xmlns="http://www.w3.org/2000/svg" width="47.581" height="55.347" viewBox="0 0 47.581 55.347">
  <g id="slide3" transform="translate(-39.84)">
    <path id="Path_9" data-name="Path 9" d="M77.061,0H42.434A2.6,2.6,0,0,0,39.84,2.594V52.753a2.6,2.6,0,0,0,2.594,2.594H77.061a2.6,2.6,0,0,0,2.594-2.594v-.388l2.132,2.056a3.319,3.319,0,0,0,4.66-4.726h0l-6.791-6.758V2.594A2.6,2.6,0,0,0,77.061,0Zm.865,52.753a.866.866,0,0,1-.865.865H42.434a.866.866,0,0,1-.865-.865V2.594a.866.866,0,0,1,.865-.865H77.061a.866.866,0,0,1,.865.865v38.62l-1.635-1.627a.865.865,0,0,0-1.222,0l-.227.227L72.2,37.177a14.584,14.584,0,0,0-.735-16.612A14.268,14.268,0,1,0,45.681,25.14,14.691,14.691,0,0,0,69.04,40.784L71.458,43.2l-.018.018a.865.865,0,0,0,.011,1.234L77.926,50.7Zm-14-42.649,1.88-2.253a12.5,12.5,0,0,1,4.215,11.056,14.779,14.779,0,0,0-2.856-2.175A9.575,9.575,0,0,0,63.927,10.1Zm1.389,5.7a14.613,14.613,0,0,0-15.5,2.789,7.741,7.741,0,0,1-.111-1.3A7.875,7.875,0,0,1,65.316,15.8ZM62.53,9.078a9.486,9.486,0,0,0-7.976-.892L52.786,5.715A12.478,12.478,0,0,1,64.429,6.8Zm-9.6-.183a9.612,9.612,0,0,0-4.957,8.4,9.319,9.319,0,0,0,.424,2.769,14.737,14.737,0,0,0-1.92,3.045,12.5,12.5,0,0,1,4.745-16.6Zm6.813,7.536A12.972,12.972,0,1,1,46.776,29.4,12.987,12.987,0,0,1,59.748,16.431Zm11.444,22.18,2.428,2.428-.939.939-2.372-2.372C70.617,39.287,70.913,38.957,71.192,38.611ZM85.226,50.92a1.579,1.579,0,0,1-1.143,2.7,1.571,1.571,0,0,1-1.1-.442l-9.7-9.357,2.4-2.4Z" fill="#060056"/>
    <path id="Path_10" data-name="Path 10" d="M320.865,33.73h5.189a.865.865,0,1,0,0-1.73h-5.189a.865.865,0,1,0,0,1.73Z" transform="translate(-249.875 -28.541)" fill="#060056"/>
    <path id="Path_11" data-name="Path 11" d="M320.865,65.73h3.459a.865.865,0,0,0,0-1.73h-3.459a.865.865,0,1,0,0,1.73Z" transform="translate(-249.875 -57.082)" fill="#060056"/>
    <path id="Path_12" data-name="Path 12" d="M131.242,190.485A11.242,11.242,0,1,0,120,179.242,11.255,11.255,0,0,0,131.242,190.485Zm0-20.755a9.513,9.513,0,1,1-9.513,9.513A9.524,9.524,0,0,1,131.242,169.73Z" transform="translate(-71.495 -149.839)" fill="#060056"/>
    <path id="Path_13" data-name="Path 13" d="M169.08,233.513a.865.865,0,0,0,0-1.73h-.708v-.55a.865.865,0,1,0-1.73,0v.55h-1.415V229.66a.865.865,0,0,0-1.73,0v2.123h-1.415v-3.7a.865.865,0,1,0-1.73,0v3.7h-1.415v-6.918a.865.865,0,0,0-1.73,0v6.918H156.5a.865.865,0,1,0,0,1.73Z" transform="translate(-103.278 -199.786)" fill="#060056"/>
    <path id="Path_14" data-name="Path 14" d="M187.459,432h-2.594a.865.865,0,1,0,0,1.73h2.594a.865.865,0,1,0,0-1.73Z" transform="translate(-128.576 -385.301)" fill="#060056"/>
    <path id="Path_15" data-name="Path 15" d="M80.865,433.73h7.783a.865.865,0,0,0,0-1.73H80.865a.865.865,0,0,0,0,1.73Z" transform="translate(-35.819 -385.301)" fill="#060056"/>
    <path id="Path_16" data-name="Path 16" d="M91.242,464H80.865a.865.865,0,1,0,0,1.73H91.242a.865.865,0,1,0,0-1.73Z" transform="translate(-35.819 -413.842)" fill="#060056"/>
  </g>
</svg>
