<svg xmlns="http://www.w3.org/2000/svg" width="51.667" height="49.245" viewBox="0 0 51.667 49.245">
  <g id="slide1" transform="translate(0 -16)">
    <path id="Path_1" data-name="Path 1" d="M47.63,48.169v-24.9a4.041,4.041,0,0,0-4.036-4.036H30.931a5.639,5.639,0,0,0-10.2,0H8.073a4.041,4.041,0,0,0-4.036,4.036v24.9l-4,12.8a.8.8,0,0,0-.037.24v1.615a2.425,2.425,0,0,0,2.422,2.422H49.245a2.425,2.425,0,0,0,2.422-2.422V61.208a.8.8,0,0,0-.037-.24Zm-16.7-24.1H41.979a.808.808,0,0,1,.807.807v8.88H26.641V27.238A5.658,5.658,0,0,0,30.931,24.073ZM39.109,41.11l-1.35-.672a3.189,3.189,0,0,0,.183-1.027V36.99a.807.807,0,0,0-.807-.807H32.292a.807.807,0,0,0-.807.807v2.422a3.191,3.191,0,0,0,.183,1.027l-1.35.672a.808.808,0,0,0-.448.723v2.422H26.641v-8.88H42.786v8.073a.808.808,0,0,1-.807.807H39.557V41.833A.808.808,0,0,0,39.109,41.11Zm-4.4,1.53a3.2,3.2,0,0,0,2.155-.842l1.074.534v1.922H31.484V42.333l1.074-.534A3.2,3.2,0,0,0,34.714,42.641ZM33.1,39.411V37.8h3.229v1.615a1.615,1.615,0,1,1-3.229,0Zm-7.266-21.8A4.036,4.036,0,1,1,21.8,21.651,4.041,4.041,0,0,1,25.833,17.615Zm-.807,9.623V33.76H21.8V30.531a.808.808,0,0,0-.448-.723L20,29.136a3.188,3.188,0,0,0,.183-1.027V25.688a.807.807,0,0,0-.807-.807H14.531a.807.807,0,0,0-.807.807v2.422a3.191,3.191,0,0,0,.183,1.027l-1.35.672a.808.808,0,0,0-.448.723V33.76H8.88V24.88a.808.808,0,0,1,.807-.807H20.735A5.658,5.658,0,0,0,25.026,27.238Zm-8.073,4.1a3.2,3.2,0,0,0,2.155-.842l1.074.534V33.76H13.724V31.031L14.8,30.5A3.2,3.2,0,0,0,16.953,31.339Zm-1.615-3.229V26.495h3.229v1.615a1.615,1.615,0,0,1-3.229,0Zm9.688,7.266v8.88H9.688a.808.808,0,0,1-.807-.807V35.375ZM5.651,23.266a2.425,2.425,0,0,1,2.422-2.422H20.247a5.086,5.086,0,0,0,0,1.615H9.688A2.425,2.425,0,0,0,7.266,24.88V43.448A2.425,2.425,0,0,0,9.688,45.87H41.979A2.425,2.425,0,0,0,44.4,43.448V24.88a2.425,2.425,0,0,0-2.422-2.422H31.42a5.086,5.086,0,0,0,0-1.615H43.594a2.425,2.425,0,0,1,2.422,2.422V47.484H5.651ZM5.437,49.1H46.23l3.532,11.3H36.151L35.5,57.784a.807.807,0,0,0-.783-.612H16.953a.807.807,0,0,0-.783.612L15.516,60.4H1.905Zm29.05,11.3H17.18l.4-1.615h16.5Zm15.565,2.422a.808.808,0,0,1-.807.807H2.422a.808.808,0,0,1-.807-.807v-.807H50.052Z" fill="#060056"/>
    <path id="Path_2" data-name="Path 2" d="M96.226,77.588a.808.808,0,0,0,.081-.752L94.693,72.8a.808.808,0,0,0-.75-.508H58.422a.808.808,0,0,0-.75.508l-1.615,4.036a.807.807,0,0,0,.75,1.107h38.75A.808.808,0,0,0,96.226,77.588ZM58,76.328l.969-2.422H93.4l.969,2.422Zm27.063-21.8a4.036,4.036,0,1,0-4.036-4.036A4.041,4.041,0,0,0,85.063,54.531Zm.807-6.31a2.419,2.419,0,0,1,1.466,1.466H85.87Zm-1.615,0v2.273a.807.807,0,0,0,.807.807h2.273a2.416,2.416,0,1,1-3.08-3.08Zm-20.99,16h8.073a.807.807,0,0,0,0-1.615h-.807V58.568a.807.807,0,1,0-1.615,0V62.6h-.807V60.182a.807.807,0,1,0-1.615,0V62.6h-.807V61.8a.807.807,0,1,0-1.615,0V62.6h-.807a.807.807,0,0,0,0,1.615Zm12.917-17.76a3.229,3.229,0,1,0-3.229-3.229A3.232,3.232,0,0,0,76.182,46.458Zm0-4.844a1.615,1.615,0,1,1-1.615,1.615A1.617,1.617,0,0,1,76.182,41.615Z" transform="translate(-50.349 -21.578)" fill="#060056"/>
  </g>
</svg>
