<svg xmlns="http://www.w3.org/2000/svg" width="112.195" height="112.204" viewBox="0 0 112.195 112.204">
  <g id="Startup" transform="translate(2650.353 1031.485)">
    <path id="Path_1017" data-name="Path 1017" d="M-2650.351-975.45q0-18.5,0-36.992A18.852,18.852,0,0,1-2635.1-1031.1a18.86,18.86,0,0,1,3.656-.349q22.374-.03,44.747-.005c9.958,0,19.916-.075,29.873.018a18.186,18.186,0,0,1,15.1,7.911,18.052,18.052,0,0,1,3.523,10.926q0,32.862,0,65.724c0,3.115.1,6.234-.032,9.342a18.411,18.411,0,0,1-8.919,15.385,18.431,18.431,0,0,1-10.248,2.852q-22.882-.034-45.764-.019c-9.64,0-19.281.105-28.92-.039a17.98,17.98,0,0,1-14.734-7.862,18.209,18.209,0,0,1-3.542-11.047Q-2650.346-956.858-2650.351-975.45Zm3.066-4.332v.649q0,20.5.007,40.991a14.267,14.267,0,0,0,.158,2.215,15.845,15.845,0,0,0,15.877,13.553q36.988,0,73.975-.006a17.174,17.174,0,0,0,2.407-.152,15.862,15.862,0,0,0,13.6-15.708q.008-20.4,0-40.8v-.741Zm106.024-3.092v-.658q0-14.587-.006-29.175a14.737,14.737,0,0,0-.151-2.089,15.868,15.868,0,0,0-15.709-13.6q-6.96-.008-13.92,0-28.411,0-56.823,0a47.566,47.566,0,0,0-5.773.174,15.794,15.794,0,0,0-13.637,15.529c-.023,9.7-.005,19.407-.005,29.11v.713Z" fill="#060056"/>
    <path id="Path_1018" data-name="Path 1018" d="M-2013.588-407.238a14.228,14.228,0,0,1-14.036,14.206,14.241,14.241,0,0,1-14.46-14.3,14.336,14.336,0,0,1,13.925-14.2A14.291,14.291,0,0,1-2013.588-407.238Zm-3.08-.068a11.182,11.182,0,0,0-10.766-11.148A11.187,11.187,0,0,0-2039-407.394a11.127,11.127,0,0,0,11.352,11.264A11.122,11.122,0,0,0-2016.668-407.306Z" transform="translate(-530.941 -532.401)" fill="#060056"/>
    <path id="Path_1019" data-name="Path 1019" d="M-2262.447-575.523v3.032h-60.631v-3.032Z" transform="translate(-285.67 -397.997)" fill="#060056"/>
    <path id="Path_1020" data-name="Path 1020" d="M-2323.135-502.539v-3.024h60.627v3.024Z" transform="translate(-285.62 -459.063)" fill="#060056"/>
    <path id="Path_1021" data-name="Path 1021" d="M-2602.348-433.765h-3.034c.2-5.639,2.456-10.182,7.153-13.253a15.223,15.223,0,0,1,16.758-.578c5.277,2.981,7.858,7.727,8.1,13.862h-3.082a12.877,12.877,0,0,0-5.42-10.483,12.371,12.371,0,0,0-7.8-2.434A13.043,13.043,0,0,0-2602.348-433.765Z" transform="translate(-39.254 -507.71)" fill="#060056"/>
    <path id="Path_1022" data-name="Path 1022" d="M-2529.228-593.8a8.451,8.451,0,0,1-8.4,8.486,8.532,8.532,0,0,1-8.51-8.472,8.489,8.489,0,0,1,8.275-8.428A8.4,8.4,0,0,1-2529.228-593.8Zm-3.064.072a5.4,5.4,0,0,0-5.26-5.422,5.427,5.427,0,0,0-5.5,5.388,5.452,5.452,0,0,0,5.337,5.366A5.422,5.422,0,0,0-2532.292-593.725Z" transform="translate(-90.967 -374.701)" fill="#060056"/>
    <path id="Path_1023" data-name="Path 1023" d="M-2323.167-359.7v-3.029h31.1v3.029Z" transform="translate(-285.592 -583.738)" fill="#060056"/>
    <path id="Path_1024" data-name="Path 1024" d="M-2322.971-434.375h31.067v3.047h-31.067Z" transform="translate(-285.763 -521.201)" fill="#060056"/>
    <path id="Path_1025" data-name="Path 1025" d="M-2291.9-291.5v3.039h-31.092V-291.5Z" transform="translate(-285.747 -645.91)" fill="#060056"/>
    <path id="Path_1026" data-name="Path 1026" d="M-2006.731-940.521h-3.06v-.764q0-5.845,0-11.69a9.859,9.859,0,0,0-10.186-9.686c-3.912.132-7.832.025-11.748.023a.637.637,0,0,1-.157-.057v-2.984c.172-.011.355-.033.538-.033,4.02,0,8.04-.054,12.058.009a12.747,12.747,0,0,1,12.56,12.384c.092,4.127.016,8.259.014,12.388C-2006.71-940.806-2006.722-940.682-2006.731-940.521Z" transform="translate(-539.847 -57.393)" fill="#060056"/>
    <path id="Path_1027" data-name="Path 1027" d="M-2559.442-965.605v3.083h-.97q-5.688,0-11.376,0a9.727,9.727,0,0,0-9.751,9.78q0,5.847,0,11.693c0,.188-.015.376-.026.611h-3.02c-.012-.243-.035-.49-.035-.736,0-3.919-.012-7.837,0-11.755a12.221,12.221,0,0,1,3.35-8.461,12.549,12.549,0,0,1,9.618-4.221c3.834.016,7.668,0,11.5,0Z" transform="translate(-57.37 -57.5)" fill="#060056"/>
    <path id="Path_1028" data-name="Path 1028" d="M-2124.743-851.3c.543-1.594,1.053-3.089,1.56-4.584q2.527-7.441,5.041-14.886a.639.639,0,0,1,.756-.533c.761.038,1.525.031,2.287,0a.509.509,0,0,1,.579.421q2.475,7.291,4.964,14.576c.557,1.635,1.111,3.272,1.7,5-.976,0-1.878.021-2.778-.022-.144-.007-.336-.282-.4-.469-.573-1.634-1.145-3.269-1.664-4.921a.907.907,0,0,0-1.051-.778c-1.736.052-3.475.056-5.21,0a.92.92,0,0,0-1.083.8c-.5,1.659-1.075,3.292-1.6,4.942a.536.536,0,0,1-.62.457C-2123.05-851.321-2123.832-851.3-2124.743-851.3Zm5.636-8.474h5.474l-2.752-8.356Z" transform="translate(-458.791 -139.819)" fill="#060056"/>
    <path id="Path_1029" data-name="Path 1029" d="M-2412.7-871.04h3.047c-.393,1.116-.766,2.188-1.149,3.258-1.9,5.309-3.81,10.613-5.686,15.929-.205.582-.438.9-1.1.794a7.636,7.636,0,0,0-1.142-.01c-1.089,0-1.092,0-1.422-1.012q-3.023-9.276-6.042-18.552c-.038-.117-.065-.237-.108-.4h3.048l5.075,16.3Z" transform="translate(-195.569 -140.048)" fill="#060056"/>
    <path id="Path_1030" data-name="Path 1030" d="M-2223.29-870.709a21.713,21.713,0,0,0-3.091-.774,6.846,6.846,0,0,0-2.545.274,2.431,2.431,0,0,0-1.8,2.169,2.582,2.582,0,0,0,1.281,2.7c.888.522,1.856.906,2.778,1.373a20.151,20.151,0,0,1,2.621,1.4,5.5,5.5,0,0,1-.26,9.088c-2.491,1.6-7.308,1.506-9.72-.216l.667-2.224c1.03.35,2.005.739,3.013,1.009a5.911,5.911,0,0,0,3.444-.059,2.96,2.96,0,0,0,2.2-2.532,2.912,2.912,0,0,0-1.261-2.988,13.4,13.4,0,0,0-2.354-1.219,11.706,11.706,0,0,1-3.59-1.983,5.135,5.135,0,0,1,1.408-8.534,9.316,9.316,0,0,1,7.521.088c.352.142.433.314.289.676C-2222.928-871.853-2223.114-871.229-2223.29-870.709Z" transform="translate(-363.404 -137.488)" fill="#060056"/>
    <path id="Path_1031" data-name="Path 1031" d="M-2280.819-870.975h2.755v19.923h-2.755Z" transform="translate(-322.556 -140.105)" fill="#060056"/>
    <path id="Path_1032" data-name="Path 1032" d="M-1976.767-346.722l2.4,1.932-8.971,11.046-6.691-5.47,1.976-2.358,4.26,3.522Z" transform="translate(-576.377 -597.711)" fill="#060056"/>
  </g>
</svg>
