<svg xmlns="http://www.w3.org/2000/svg" width="149" height="121.185" viewBox="0 0 149 121.185">
  <g id="techboard" transform="translate(-1092 -1230.408)">
    <g id="Group_211" data-name="Group 211" transform="translate(2879.993 5105.287)">
      <path id="Path_1364" data-name="Path 1364" d="M-1758.4-3840.3c1.871-4.434,5.247-5.827,9.962-5.767,15.435.2,30.873.1,46.311.04a4.3,4.3,0,0,1,3.892,1.932c5.058,6.9,10.251,13.706,15.268,20.637a7.639,7.639,0,0,1,1.333,4.046c.149,5.523.063,11.053.064,16.581v2.241a11.673,11.673,0,0,0,4.823-8.312,10.675,10.675,0,0,1,11.26-8.886,11.554,11.554,0,0,1,10.6,10.413,10.622,10.622,0,0,1-8.974,11.034,15.721,15.721,0,0,0-8.851,4.831c-2.652,2.759-5.431,5.4-8.408,8.335,2.393,2.311,4.612,4.451,6.828,6.6,2.822,2.731,3.969,6.018,2.511,9.729-1.444,3.678-4.164,6.115-8.293,6.438a1.886,1.886,0,0,0-1.926,1.556,7.424,7.424,0,0,1-7.424,5.146q-30.133.021-60.266.012c-4.55,0-7.121-2.583-8.715-6.508Zm55.69-1.618h-2.16q-22.347,0-44.695,0c-3.4,0-4.486,1.067-4.487,4.451q-.008,37.314,0,74.628c0,3.713,1.42,5.063,5.176,5.061q12.337-.008,24.673,0,17.089,0,34.178.013a3.864,3.864,0,0,0,3.913-2.26c.854-1.748-.18-2.692-1.262-3.768-7.266-7.225-14.49-14.491-21.76-21.713a9.573,9.573,0,0,1-3.141-6.36,9.564,9.564,0,0,1,5.543-8.917,8.689,8.689,0,0,1,9.9,1.7c2.4,2.345,4.67,4.814,7.441,7.688a13.068,13.068,0,0,1,1.8-2.425,5.631,5.631,0,0,0,2.11-5.093c-.152-4.444-.046-8.9-.046-13.346v-6.586h-8.084c-6.281,0-9.119-2.848-9.112-9.135C-1702.706-3832.547-1702.71-3837.116-1702.71-3841.914ZM-1675-3769.8a19.694,19.694,0,0,0-2.22-3.379c-7.408-7.438-14.882-14.811-22.347-22.192-2.39-2.363-4.662-2.339-7.007.022-2.184,2.2-2.114,4.193.291,6.6,7.558,7.574,15.148,15.117,22.679,22.718a4.11,4.11,0,0,0,4.761,1.082A6.832,6.832,0,0,0-1675-3769.8Zm-8.915-16.14c2.972-3.021,5.775-5.825,8.525-8.679a18.05,18.05,0,0,1,10.818-5.729,6.238,6.238,0,0,0,5.355-5.947,6.939,6.939,0,0,0-6.336-7.092,6.506,6.506,0,0,0-7.144,5.619,15.7,15.7,0,0,1-4.693,9.57c-2.293,2.176-4.489,4.454-6.717,6.7-.875.881-1.72,1.791-2.542,2.649Zm-4.264-37.334-10.28-13.85a80.586,80.586,0,0,0-.332,10.939,2.81,2.81,0,0,0,2.64,2.867C-1693.638-3823.154-1691.108-3823.274-1688.178-3823.274Z" transform="translate(0 0)" fill="#fff"/>
      <path id="Path_1365" data-name="Path 1365" d="M-1695.041-3561.523c4.5,0,9.009.011,13.514-.006,1.558-.006,2.929.258,2.917,2.2s-1.39,2.183-2.942,2.181q-13.716-.018-27.432,0c-1.552,0-2.925-.263-2.917-2.2s1.4-2.178,2.942-2.173C-1704.32-3561.515-1699.681-3561.523-1695.041-3561.523Z" transform="translate(-35.636 -218.065)" fill="#fff"/>
      <path id="Path_1366" data-name="Path 1366" d="M-1695.371-3644.9c-4.583,0-9.165-.011-13.748.007-1.491.006-2.761-.254-2.8-2.1s1.193-2.217,2.7-2.218q13.95-.008,27.9-.011c1.492,0,2.736.4,2.7,2.232-.038,1.853-1.311,2.093-2.8,2.086-4.65-.021-9.3-.008-13.95-.008Z" transform="translate(-35.624 -150.859)" fill="#fff"/>
      <path id="Path_1367" data-name="Path 1367" d="M-1695.269-3601.417c-4.649,0-9.3-.014-13.947.009-1.534.008-2.718-.356-2.7-2.182.014-1.718,1.171-2.1,2.6-2.1q14.048,0,28.1-.006c1.439,0,2.578.4,2.6,2.1.025,1.83-1.167,2.189-2.7,2.181C-1685.971-3601.432-1690.62-3601.417-1695.269-3601.417Z" transform="translate(-35.622 -184.22)" fill="#fff"/>
      <path id="Path_1368" data-name="Path 1368" d="M-1707.864-3795.161c0,4.17-.016,8.34.01,12.51.009,1.5-.272,2.779-2.1,2.765-1.781-.013-2.161-1.234-2.159-2.759q.024-12.61,0-25.22c0-1.533.373-2.768,2.133-2.773s2.145,1.235,2.133,2.767C-1707.886-3803.635-1707.865-3799.4-1707.864-3795.161Z" transform="translate(-35.468 -27.15)" fill="#fff"/>
      <path id="Path_1369" data-name="Path 1369" d="M-1699.736-3513.779c-3.166,0-6.332-.006-9.5,0-1.528,0-2.714-.432-2.69-2.231.022-1.676,1.152-2.138,2.592-2.139q9.8-.007,19.6,0c1.488,0,2.541.626,2.509,2.236s-1.146,2.136-2.613,2.132C-1693.134-3513.784-1696.435-3513.779-1699.736-3513.779Z" transform="translate(-35.618 -251.31)" fill="#fff"/>
      <path id="Path_1370" data-name="Path 1370" d="M-1680.722-3770.905c0-3.162.022-6.324-.011-9.485-.015-1.506.536-2.566,2.132-2.584,1.622-.018,2.153,1.087,2.152,2.564q-.013,9.586-.007,19.172c0,1.439-.427,2.564-2.134,2.556-1.672-.008-2.15-1.045-2.138-2.536C-1680.7-3764.447-1680.721-3767.676-1680.722-3770.905Z" transform="translate(-59.523 -48.351)" fill="#fff"/>
      <path id="Path_1371" data-name="Path 1371" d="M-1646.147-3745.3c0,2.09-.012,4.18,0,6.27.009,1.416-.519,2.4-2.064,2.421a2.057,2.057,0,0,1-2.239-2.306c-.042-4.314-.036-8.629,0-12.943.01-1.4.674-2.346,2.208-2.309s2.111.961,2.1,2.4C-1646.153-3749.62-1646.145-3747.462-1646.147-3745.3Z" transform="translate(-82.71 -70.424)" fill="#fff"/>
      <path id="Path_1372" data-name="Path 1372" d="M-1614.6-3732.335c0,1.543-.012,3.086,0,4.628.012,1.451-.625,2.312-2.138,2.318a1.92,1.92,0,0,1-2.106-2.151c-.028-3.286-.021-6.573,0-9.86a1.94,1.94,0,0,1,2.13-2.143,1.973,1.973,0,0,1,2.11,2.177C-1614.588-3735.689-1614.6-3734.012-1614.6-3732.335Z" transform="translate(-106.939 -81.637)" fill="#fff"/>
    </g>
    <text id="Technical" transform="translate(1092 1230.408)" fill="#fff" font-size="23" font-family="SegoeUI-Bold, Segoe UI" font-weight="700"><tspan x="24.929" y="25">Technical</tspan></text>
  </g>
</svg>
