<svg xmlns="http://www.w3.org/2000/svg" width="51" height="51" viewBox="0 0 51 51">
  <g id="Group_327" data-name="Group 327" transform="translate(-1681 -7311.63)">
    <circle id="Ellipse_4" data-name="Ellipse 4" cx="25.5" cy="25.5" r="25.5" transform="translate(1681 7311.629)" fill="#ee0324"/>
    <path id="Path_7545" data-name="Path 7545" d="M34.252,7a13.691,13.691,0,0,1-3.806,1.032,6.66,6.66,0,0,0,2.919-3.661,13.24,13.24,0,0,1-4.209,1.613A6.612,6.612,0,0,0,17.868,12.01,18.771,18.771,0,0,1,4.242,5.092,6.708,6.708,0,0,0,3.355,8.43a6.6,6.6,0,0,0,2.935,5.5,6.531,6.531,0,0,1-3-.822v.081a6.612,6.612,0,0,0,5.322,6.45,6.338,6.338,0,0,1-1.774.274A7.9,7.9,0,0,1,5.6,19.8a6.628,6.628,0,0,0,6.176,4.58,13.256,13.256,0,0,1-8.16,2.838A12.789,12.789,0,0,1,2,27.121,18.658,18.658,0,0,0,12.143,30.1,18.69,18.69,0,0,0,31.027,11.268v-.855A13.594,13.594,0,0,0,34.252,7Z" transform="translate(1688 7319.78)" fill="#fff"/>
  </g>
</svg>
