<svg xmlns="http://www.w3.org/2000/svg" width="194.142" height="195.456" viewBox="0 0 194.142 195.456">
  <g id="visaacuu" transform="translate(-2554.033 1207.256)">
    <path id="Path_1675" data-name="Path 1675" d="M2564.2-1050.25c-.361-22,18.443-40.633,40.518-40.7,22.454-.064,41.111,18.106,41.1,40.637a40.681,40.681,0,0,1-40.9,41.047C2581.946-1009.187,2563.795-1028.346,2564.2-1050.25Zm61.954,1.528h-19.843v12.878c5.442.8,10.726,1.594,16.023,2.292a1.724,1.724,0,0,0,1.338-.923A39.372,39.372,0,0,0,2626.151-1048.722Zm-42.283.035c-.333,4.443,1.41,12.473,3.118,15.022l16.553-2.08v-12.942Zm-3.27-.031h-13.824c-.473,5.493,2.69,15.39,6.207,19.581l10.88-3.592Zm56.481,19.638a37.989,37.989,0,0,0,6.163-19.651h-13.985c-1,5.428-1.971,10.722-2.96,16.105Zm-53.646-22.488h20.117v-11.341l-17.328-2.166C2585.33-1060.754,2584.406-1056.278,2583.434-1051.568Zm42.589-14.39c1.023,4.8,2.046,9.6,3.077,14.434h14.07a36.344,36.344,0,0,0-5.348-18.369Zm.391,14.429-2.93-13.546-17.15,2.124v11.422Zm-59.771-.006h14.082c.987-4.933,1.938-9.69,2.9-14.49l-11.6-3.875A38.113,38.113,0,0,0,2566.643-1051.535Zm55.629-16c-.365-.937-.552-1.5-.8-2.035a70.72,70.72,0,0,0-11.449-17.581c-.776-.875-2.262-1.122-3.749-1.812v23.344Zm-18.679-21.36c-1.288.635-2.538.874-3.17,1.629-2.8,3.338-5.6,6.7-8.047,10.3-1.9,2.785-3.278,5.924-5.138,9.367l16.355,1.88Zm2.713,77.589a23.159,23.159,0,0,0,3.506-1.826,20.543,20.543,0,0,0,2.59-2.74,53.919,53.919,0,0,0,9.963-15.29l-16.059-1.921Zm-2.715-21.753-15.51,1.862a5.177,5.177,0,0,0,.167.925,62.7,62.7,0,0,0,12.774,17.534,8.655,8.655,0,0,0,2.568,1.123Zm32.78-39.008c-5.8-8.753-16.586-14.825-22.58-15.219l11.579,18.834Zm-40.008-15.52a38.039,38.039,0,0,0-22.94,15.534l10.849,3.487Zm.446,74.963-12.119-17.664-10.388,3.356C2580.461-1019.211,2587.9-1014.477,2596.809-1012.623Zm38.757-14.321-10.028-3.2-11.844,17.384A38.378,38.378,0,0,0,2635.566-1026.944Z" transform="translate(-6.115 -70.022)" fill="#060056"/>
    <path id="Path_1676" data-name="Path 1676" d="M2877.6-1092.732q0,13.919,0,27.837c-.009,6.36-4.194,10.614-10.51,10.619q-28.235.021-56.47-.017c-6.195-.008-10.4-4.266-10.405-10.495q-.01-28.235.01-56.469a10.142,10.142,0,0,1,10.284-10.409q28.434-.042,56.868,0a10.016,10.016,0,0,1,10.21,10.3c.024,9.544.006,19.088.006,28.632Zm-74.932-1.656h72.465c0-8.7.006-17.245,0-25.791-.005-6.116-2.9-9.007-9.025-9.013q-12.929-.013-25.859-.009c-9.813,0-19.626-.011-29.439.016-4.558.012-8,2.8-8.083,7.058C2802.549-1112.923,2802.673-1103.714,2802.673-1094.388Zm72.541,2.808h-72.667c0,.768,0,1.416,0,2.063q.015,12.034.031,24.068c.008,5.745,2.956,8.784,8.646,8.789q27.747.023,55.495-.015c5.389-.007,8.386-2.972,8.481-8.349.055-3.115.014-6.232.015-9.349C2875.214-1080.06,2875.214-1085.748,2875.214-1091.58Z" transform="translate(-148.207 -45.494)" fill="#060056"/>
    <path id="Path_1677" data-name="Path 1677" d="M2707.839-901.71c2.819.533,5.648,1.024,8.457,1.607,9.286,1.927,18.562,3.9,27.853,5.805a3.443,3.443,0,0,0,2.146-.308c8.068-4.323,16.093-8.728,24.155-13.063a27.561,27.561,0,0,1,19.366-2.874,12.4,12.4,0,0,1,8.217,5.751c1.26,2.058,1.218,3.444-.632,4.907a59.3,59.3,0,0,1-7.849,5.28c-13.411,7.484-26.888,14.851-40.331,22.276-6.69,3.695-13.309,7.522-20.052,11.116-7.73,4.121-15.464,3.894-22.95-.694-3.871-2.372-7.684-4.854-11.381-7.485a15.334,15.334,0,0,1-3.518-3.864,51,51,0,0,1-3.2-5.668c-.26-.506-.427-1.413-.156-1.743a2.131,2.131,0,0,1,1.759-.417c4.649.918,9.283,1.915,13.919,2.9,2.7.573,5.4,1.19,8.109,1.724a2.811,2.811,0,0,0,1.727-.142c4.112-2.184,8.187-4.436,12.532-6.809-3.874-2.533-7.4-5.057-11.137-7.214a15.351,15.351,0,0,1-6.258-7.325c-.472-1.02-.938-2.042-1.408-3.063Zm-16.088,23.668-.417.5c1.411,1.935,2.485,4.3,4.3,5.713a132.56,132.56,0,0,0,11.9,7.893,19.44,19.44,0,0,0,19.717.919c2.915-1.413,5.692-3.109,8.531-4.676q25.387-14.015,50.766-28.044c2.717-1.506,5.393-3.1,7.988-4.806,2.23-1.464,2.464-2.48.436-4.2a16.027,16.027,0,0,0-6.3-3.429c-6.347-1.52-12.356.019-18,3.089q-11.6,6.313-23.136,12.728a5.259,5.259,0,0,1-3.956.549c-5.888-1.293-11.792-2.514-17.691-3.757-4.85-1.022-9.7-2.038-14.739-3.1a10.173,10.173,0,0,0,4.107,5.365c7.858,5.027,15.641,10.173,23.4,15.353.6.4,1.3,1.631,1.1,2.089-.624,1.389-1.672.475-2.454-.031-2.665-1.724-5.261-3.557-7.957-5.231a2.489,2.489,0,0,0-2.081-.141c-4.109,2.132-8.12,4.459-12.25,6.548a6.244,6.244,0,0,1-3.695.6c-5.924-1.111-11.809-2.428-17.709-3.663C2693-877.9,2692.371-877.953,2691.751-878.041Z" transform="translate(-80.546 -178.242)" fill="#060056"/>
    <path id="Path_1678" data-name="Path 1678" d="M2895.985-749.617c-.548-.484-1.234-.824-1.22-1.134a2.086,2.086,0,0,1,.78-1.535c2.283-1.3,4.645-2.46,6.968-3.691a27.322,27.322,0,0,1,2.577-1.43,1.46,1.46,0,0,1,1.333.376c.238.313.257,1.254.048,1.378C2903.038-753.609,2899.554-751.65,2895.985-749.617Z" transform="translate(-205.13 -270.794)" fill="#060056"/>
    <path id="Path_1679" data-name="Path 1679" d="M2991.02-833.944a14.094,14.094,0,0,1-.884,1.713c-1.912,2.685-3.817,5.379-5.834,7.984-.285.368-1.175.268-1.785.385-.059-.558-.375-1.292-.135-1.646,2-2.944,4.078-5.837,6.207-8.691a2.1,2.1,0,0,1,1.48-.6C2990.362-834.806,2990.672-834.275,2991.02-833.944Z" transform="translate(-257.825 -224.231)" fill="#060056"/>
    <path id="Path_1680" data-name="Path 1680" d="M2953.212-790.34a6.643,6.643,0,0,1-.849,1.2c-2.591,2.259-5.177,4.526-7.85,6.685-.382.308-1.219.052-1.846.057.13-.631.04-1.5.425-1.854,2.58-2.366,5.245-4.641,7.929-6.89a1.731,1.731,0,0,1,1.391-.267C2952.74-791.313,2952.928-790.746,2953.212-790.34Z" transform="translate(-233.969 -250.323)" fill="#060056"/>
    <path id="Path_1681" data-name="Path 1681" d="M3018.807-884.8c-1.349,3.4-2.32,5.911-3.341,8.4a15.686,15.686,0,0,1-1.487,2.994c-.263.379-1.041.4-1.584.586-.15-.56-.575-1.225-.407-1.664,1.271-3.312,2.63-6.591,4.044-9.844a1.813,1.813,0,0,1,1.282-.882A3.872,3.872,0,0,1,3018.807-884.8Z" transform="translate(-275.678 -193.875)" fill="#060056"/>
    <path id="Path_1682" data-name="Path 1682" d="M2842.872-728.9c-.5-.453-1.161-.79-1.284-1.268-.086-.331.5-1.125.917-1.25q5.306-1.575,10.68-2.918a1.588,1.588,0,0,1,1.317.833,1.559,1.559,0,0,1-.609,1.411C2850.3-730.982,2846.677-729.985,2842.872-728.9Z" transform="translate(-173.111 -284.703)" fill="#060056"/>
    <path id="Path_1683" data-name="Path 1683" d="M2791.895-720.3a35.982,35.982,0,0,1-4.146-.052c-.563-.066-1.06-.7-1.587-1.082.53-.45,1.041-1.265,1.591-1.291,3.472-.166,6.953-.2,10.43-.156.446,0,.884.667,1.326,1.024-.438.4-.839,1.1-1.321,1.16-2.082.267-4.188.348-6.286.5Z" transform="translate(-139.748 -291.596)" fill="#060056"/>
    <path id="Path_1684" data-name="Path 1684" d="M3037.021-984.115c-.258.388-.855,1.993-1.408,1.978-1.51-.041-1.149-1.565-1.222-2.648-.2-2.9-.485-5.8-.57-8.7-.019-.657.642-1.333.989-2,.444.567,1.2,1.092,1.28,1.707C3036.477-990.834,3036.68-987.867,3037.021-984.115Z" transform="translate(-288.846 -127.493)" fill="#060056"/>
    <path id="Path_1685" data-name="Path 1685" d="M3034.264-938.409c-.6,3.669-1.067,6.994-1.748,10.274-.137.661-1.093,1.152-1.671,1.722-.234-.7-.741-1.439-.654-2.1.427-3.257.965-6.5,1.587-9.727.1-.531.817-.943,1.249-1.41Z" transform="translate(-286.654 -161.107)" fill="#060056"/>
    <path id="Path_1686" data-name="Path 1686" d="M3021.521-1051.123c.813.929,1.311,1.259,1.455,1.7,1.093,3.371,2.156,6.753,3.112,10.165.12.429-.438,1.047-.682,1.578-.544-.328-1.422-.542-1.58-1-1.105-3.226-2.125-6.486-3.011-9.778C3020.644-1049.093,3021.178-1049.917,3021.521-1051.123Z" transform="translate(-280.996 -93.996)" fill="#060056"/>
    <path id="Path_1687" data-name="Path 1687" d="M2606.207-813.449c-.266.314-.491.814-.74.827a2.325,2.325,0,0,1-1.58-.355,33.439,33.439,0,0,1-2.874-3.23,54.293,54.293,0,0,1-3.524-4.71c-.348-.546-.115-1.462-.148-2.209.606.283,1.39.413,1.791.875,2.1,2.427,4.114,4.934,6.143,7.424C2605.6-814.427,2605.857-813.97,2606.207-813.449Z" transform="translate(-26.045 -231.257)" fill="#060056"/>
    <path id="Path_1688" data-name="Path 1688" d="M2634.329-782.635c3.2,2.391,6.309,4.673,9.344,7.055.359.281.288,1.109.417,1.683-.567.088-1.344.459-1.669.219-2.951-2.175-5.877-4.392-8.695-6.737C2632.522-781.417,2633.619-782.055,2634.329-782.635Z" transform="translate(-47.654 -255.634)" fill="#060056"/>
    <path id="Path_1689" data-name="Path 1689" d="M2692.4-744.249c-1.034.38-1.809.967-2.251.777-3.371-1.447-6.695-3.011-9.979-4.647-.349-.174-.346-1.053-.507-1.606.57-.089,1.242-.419,1.693-.228,3.139,1.336,6.242,2.761,9.332,4.211A10.394,10.394,0,0,1,2692.4-744.249Z" transform="translate(-75.635 -275.274)" fill="#060056"/>
    <path id="Path_1690" data-name="Path 1690" d="M2917.334-1174.171a14.97,14.97,0,0,1,1.586.734c2.837,1.893,5.69,3.763,8.459,5.751.406.292.392,1.169.572,1.775-.645.026-1.459.318-1.907.034-2.929-1.862-5.793-3.829-8.639-5.818a1.746,1.746,0,0,1-.685-1.261C2916.738-1173.423,2917.172-1173.875,2917.334-1174.171Z" transform="translate(-218.348 -19.918)" fill="#060056"/>
    <path id="Path_1691" data-name="Path 1691" d="M2557-912.376a11.536,11.536,0,0,1-1.138-2.362c-.689-3-1.312-6.014-1.815-9.047-.094-.563.479-1.236.744-1.858.48.46,1.249.844,1.392,1.391q1.291,4.936,2.293,9.943c.116.585-.424,1.3-.66,1.956Z" transform="translate(0 -169.539)" fill="#060056"/>
    <path id="Path_1692" data-name="Path 1692" d="M2580.981-1091.773c-1.379-.539-1.611-1.266-.925-2.351,1.71-2.709,3.326-5.481,5.134-8.122.4-.58,1.435-.722,2.178-1.066a6.84,6.84,0,0,1-.375,2.3c-1.448,2.556-3.016,5.044-4.585,7.53A15.978,15.978,0,0,1,2580.981-1091.773Z" transform="translate(-15.442 -62.577)" fill="#060056"/>
    <path id="Path_1693" data-name="Path 1693" d="M2654.269-1169.131c-.27-.23-.754-.456-.753-.68a1.956,1.956,0,0,1,.438-1.38,41.146,41.146,0,0,1,3.681-2.6c1.765-1.127,3.537-2.257,5.392-3.222.46-.24,1.249.152,1.887.253-.2.561-.228,1.387-.625,1.643-2.966,1.915-6,3.721-9.025,5.551A8.728,8.728,0,0,1,2654.269-1169.131Z" transform="translate(-59.891 -18.163)" fill="#060056"/>
    <path id="Path_1694" data-name="Path 1694" d="M2867.772-1196.627c3.61,1.484,7.128,2.9,10.607,4.413a1.381,1.381,0,0,1,.333,1.293,1.679,1.679,0,0,1-1.414.582q-5.085-1.826-10.087-3.876a1.645,1.645,0,0,1-.757-1.357C2866.491-1195.923,2867.2-1196.2,2867.772-1196.627Z" transform="translate(-188.084 -6.399)" fill="#060056"/>
    <path id="Path_1695" data-name="Path 1695" d="M2812.763-1206.9c3.711.491,6.905.84,10.063,1.392.631.11,1.126,1,1.684,1.527-.717.278-1.46.849-2.145.785-3.06-.288-6.115-.692-9.145-1.213-.688-.118-1.269-.864-1.9-1.322Z" transform="translate(-154.895 -0.214)" fill="#060056"/>
    <path id="Path_1696" data-name="Path 1696" d="M2742.617-725.356c-3.568-.8-6.853-1.47-10.092-2.316-.513-.134-.821-1.049-1.225-1.6.6-.194,1.247-.638,1.8-.54,3.169.566,6.311,1.287,9.473,1.894.872.167,1.923.166,1.577,1.385C2744-726.023,2743.117-725.72,2742.617-725.356Z" transform="translate(-106.72 -287.425)" fill="#060056"/>
    <path id="Path_1697" data-name="Path 1697" d="M2576.473-860.8c-.209.289-.4.813-.738.942a1.3,1.3,0,0,1-1.187-.294,15.047,15.047,0,0,1-1.518-2.51c-1.16-2.353-2.336-4.7-3.341-7.123-.222-.534.232-1.35.375-2.036.561.373,1.364.618,1.642,1.141,1.571,2.95,3.02,5.966,4.5,8.964A6.211,6.211,0,0,1,2576.473-860.8Z" transform="translate(-9.389 -201.943)" fill="#060056"/>
    <path id="Path_1698" data-name="Path 1698" d="M2622.143-1144.1a6.882,6.882,0,0,1-.7,1.068c-2.4,2.426-4.776,4.871-7.259,7.208-.369.347-1.244.156-1.884.213.1-.613-.015-1.431.34-1.806,2.355-2.491,4.791-4.909,7.258-7.291a2.084,2.084,0,0,1,1.513-.441C2621.684-1145.116,2621.892-1144.48,2622.143-1144.1Z" transform="translate(-35.078 -37.386)" fill="#060056"/>
    <path id="Path_1699" data-name="Path 1699" d="M2755.218-1205.252c.522-.322,1.019-.863,1.573-.931q5.275-.649,10.575-1.073c.358-.028,1.138.731,1.081.971-.12.5-.612,1.21-1.051,1.292-1.478.274-3,.3-4.5.438-1.9.172-3.793.409-5.7.506a7.614,7.614,0,0,1-1.968-.426Z" transform="translate(-121.119)" fill="#060056"/>
    <path id="Path_1700" data-name="Path 1700" d="M2703.408-1192.743c-.257-.172-.9-.414-.885-.628.023-.519.225-1.355.57-1.483q5.234-1.934,10.559-3.613c.351-.11,1.039.442,1.359.852.113.143-.32,1.038-.657,1.158C2710.79-1195.19,2707.2-1194.012,2703.408-1192.743Z" transform="translate(-89.395 -5.283)" fill="#060056"/>
    <path id="Path_1701" data-name="Path 1701" d="M2855.47-1102.863a6.693,6.693,0,0,1-1.219,1.3c-6.324,3.987-12.69,7.909-19,11.921a1.559,1.559,0,0,1-2.494-.507c-1.779-2.79-3.486-5.626-5.246-8.429-.65-1.035-.284-1.745.629-2.317q9.5-5.954,19.011-11.905c.9-.563,1.733-.766,2.394.268,1.89,2.956,3.754,5.929,5.621,8.9A5.644,5.644,0,0,1,2855.47-1102.863Zm-20.937,10.67,17.827-11.139-4.405-7.005-17.837,11.186Z" transform="translate(-164.444 -56.583)" fill="#060056"/>
    <path id="Path_1702" data-name="Path 1702" d="M2903.633-1067.729c-1.522,0-3.043-.01-4.565,0a1.667,1.667,0,0,1-1.928-1.928q.032-4.664-.013-9.328a1.72,1.72,0,0,1,1.908-1.992c3.109-.019,6.219.01,9.327.009,1.381,0,2.025.573,1.99,2.051-.072,2.975-.084,5.956.023,8.93.064,1.791-.736,2.351-2.375,2.279-1.453-.064-2.91-.013-4.366-.013Zm3.935-2.749v-7.758h-7.71v7.758Z" transform="translate(-206.552 -76.022)" fill="#060056"/>
    <path id="Path_1703" data-name="Path 1703" d="M2944.092-1102.165A7.124,7.124,0,0,1,2937.1-1095a7.353,7.353,0,0,1-7.407-7.021,7.435,7.435,0,0,1,7.165-7.316A7.26,7.26,0,0,1,2944.092-1102.165Zm-7.183-4.553a4.589,4.589,0,0,0-4.575,4.708,4.6,4.6,0,0,0,4.616,4.463,4.511,4.511,0,0,0,4.55-4.507A4.55,4.55,0,0,0,2936.91-1106.718Z" transform="translate(-226.159 -58.947)" fill="#060056"/>
    <path id="Path_1704" data-name="Path 1704" d="M2932.376-1016.3a11.7,11.7,0,0,1,11.742,11.705,11.8,11.8,0,0,1-11.741,11.544,11.693,11.693,0,0,1-11.616-11.635A11.651,11.651,0,0,1,2932.376-1016.3Zm-.163,20.7a8.97,8.97,0,0,0,9.318-8.986,8.938,8.938,0,0,0-9.1-9.214,9.046,9.046,0,0,0-9.147,9.2A9.036,9.036,0,0,0,2932.213-995.6Z" transform="translate(-220.781 -114.959)" fill="#060056"/>
    <path id="Path_1705" data-name="Path 1705" d="M2828.672-1007.745a5.294,5.294,0,0,1-5.3-5.256,5.36,5.36,0,0,1,5.16-5.231,5.454,5.454,0,0,1,5.422,5.2A5.318,5.318,0,0,1,2828.672-1007.745Zm-2.788-5.133a2.81,2.81,0,0,0,2.867,2.677,2.7,2.7,0,0,0,2.666-2.832,2.72,2.72,0,0,0-2.856-2.654A2.65,2.65,0,0,0,2825.883-1012.878Z" transform="translate(-162.147 -113.797)" fill="#060056"/>
    <path id="Path_1706" data-name="Path 1706" d="M2825.721-990.387c4.926.014,7.8,2.8,7.066,6.97-.093.53-.779.956-1.19,1.43-.4-.52-1.086-1-1.169-1.565a5.185,5.185,0,0,0-8.214-3.741c-.882.6-1.076,2.175-1.664,3.26a23.115,23.115,0,0,1-1.383,2.031c-.37-.682-1.036-1.355-1.06-2.049C2817.958-988.307,2820.537-990.4,2825.721-990.387Z" transform="translate(-158.977 -130.561)" fill="#060056"/>
    <path id="Path_1707" data-name="Path 1707" d="M2871.466-959.8c-2.577,0-5.157.081-7.726-.058-.627-.034-1.215-.791-1.821-1.216.63-.4,1.255-1.148,1.892-1.159q7.924-.138,15.852.006c.662.012,1.311.729,1.966,1.12-.679.434-1.341,1.2-2.042,1.241-2.7.147-5.414.06-8.122.06Z" transform="translate(-185.356 -147.47)" fill="#060056"/>
    <path id="Path_1708" data-name="Path 1708" d="M2871.694-977.827c-2.706,0-5.416.067-8.116-.055-.582-.026-1.132-.735-1.7-1.13.55-.416,1.1-1.185,1.653-1.194q8.117-.13,16.236.015c.62.012,1.225.815,1.836,1.252-.6.371-1.182,1.036-1.795,1.063C2877.109-977.759,2874.4-977.826,2871.694-977.827Z" transform="translate(-185.332 -136.652)" fill="#060056"/>
    <path id="Path_1709" data-name="Path 1709" d="M2871.83-1013.984c-2.648,0-5.3.092-7.94-.062-.7-.041-1.35-.844-2.022-1.3.669-.356,1.331-1,2.007-1.02q7.838-.177,15.679-.094c.68.008,1.859.661,1.928,1.141.175,1.22-.906,1.334-1.906,1.325-2.582-.023-5.164-.007-7.745-.007Z" transform="translate(-185.325 -114.848)" fill="#060056"/>
    <path id="Path_1710" data-name="Path 1710" d="M2825.6-962.294c1.848,0,3.7-.094,5.539.054.6.048,1.15.727,1.724,1.117-.531.428-1.05,1.21-1.594,1.227q-5.636.169-11.279.018c-.6-.016-1.191-.733-1.786-1.125.618-.427,1.208-1.164,1.859-1.224,1.832-.168,3.69-.058,5.537-.058Z" transform="translate(-159.037 -147.457)" fill="#060056"/>
    <path id="Path_1711" data-name="Path 1711" d="M2866.343-998.3a18.961,18.961,0,0,1,3.16.052c.511.088.929.723,1.389,1.11-.385.4-.753,1.119-1.156,1.14-2.236.113-4.484.109-6.72,0-.361-.018-.965-.791-.946-1.191.018-.378.672-.968,1.111-1.033a21.726,21.726,0,0,1,3.162-.049Z" transform="translate(-185.446 -125.775)" fill="#060056"/>
    <path id="Path_1712" data-name="Path 1712" d="M2895.355-995.855a15.121,15.121,0,0,1-2.772-.047c-.461-.087-1.123-.662-1.152-1.056a1.554,1.554,0,0,1,.988-1.187,47.926,47.926,0,0,1,5.926-.029,1.552,1.552,0,0,1,.952,1.213,1.689,1.689,0,0,1-1.171,1.056A15.351,15.351,0,0,1,2895.355-995.855Z" transform="translate(-203.122 -125.826)" fill="#060056"/>
    <path id="Path_1713" data-name="Path 1713" d="M2847.028-866.344a3.724,3.724,0,0,1,3.578,3.737,3.764,3.764,0,0,1-3.728,3.594,3.857,3.857,0,0,1-3.61-3.744A3.8,3.8,0,0,1,2847.028-866.344Zm1.515,3.586c-.782-.473-1.265-1-1.642-.931-.412.074-.725.7-1.082,1.08.393.351.768.95,1.184.98C2847.384-861.6,2847.809-862.188,2848.543-862.758Z" transform="translate(-174.127 -205.239)" fill="#060056"/>
    <path id="Path_1714" data-name="Path 1714" d="M2868.9-871.007a3.772,3.772,0,0,1-3.729-3.6,3.611,3.611,0,0,1,3.6-3.675,3.6,3.6,0,0,1,3.726,3.536A3.806,3.806,0,0,1,2868.9-871.007Zm1.519-3.741c-.747-.488-1.21-1.029-1.593-.977-.4.054-1.037.7-1.01,1.044a1.509,1.509,0,0,0,1.052,1.05C2869.254-873.6,2869.693-874.192,2870.419-874.748Z" transform="translate(-187.314 -198.05)" fill="#060056"/>
    <path id="Path_1715" data-name="Path 1715" d="M2894.406-886.8a3.826,3.826,0,0,1-3.754,3.594,3.782,3.782,0,0,1-3.6-3.746,3.8,3.8,0,0,1,3.749-3.6A3.859,3.859,0,0,1,2894.406-886.8Zm-3.752,1.561c.553-.74,1.135-1.179,1.112-1.584s-.651-.775-1.013-1.16c-.38.363-1.01.691-1.068,1.1C2889.63-886.5,2890.167-886.019,2890.654-885.244Z" transform="translate(-200.488 -190.66)" fill="#060056"/>
    <path id="Path_1716" data-name="Path 1716" d="M2941.369-991.586c1.7-1.783,3.234-3.522,4.933-5.082.453-.415,1.411-.279,2.137-.4-.139.681-.053,1.567-.455,2.007-1.785,1.956-3.722,3.772-5.577,5.665-.8.817-1.522.931-2.353.041-.9-.968-1.946-1.818-2.762-2.851-.3-.376-.114-1.13-.151-1.711.586,0,1.313-.229,1.728.035A19.747,19.747,0,0,1,2941.369-991.586Z" transform="translate(-230.629 -126.541)" fill="#060056"/>
  </g>
</svg>
