<svg xmlns="http://www.w3.org/2000/svg" width="127.917" height="130.002" viewBox="0 0 127.917 130.002">
  <g id="wages" transform="translate(-2 -1)">
    <path id="Path_929" data-name="Path 929" d="M21.831,49.73H13.566C8.337,49.73,3,53.374,3,57.844v7.073H37.712M50.73,31.289l1.085-13.234A15.577,15.577,0,0,0,36.758,2H25.65A15.577,15.577,0,0,0,10.593,18.054l1.085,13.234" transform="translate(0 0)" fill="none" stroke="#28236d" stroke-linecap="round" stroke-linejoin="round" stroke-width="2"/>
    <path id="Path_930" data-name="Path 930" d="M19.323,13.033C8.475,13.033,7,3.639,7,14.075v8.678a25.731,25.731,0,0,0,5.988,15.187,17.812,17.812,0,0,0,13.538,5.6,17.812,17.812,0,0,0,13.538-5.424,25.731,25.731,0,0,0,5.988-15.187V14.248C46.051,3.639,30.105,13.033,19.323,13.033Z" transform="translate(4.678 8.362)" fill="none" stroke="#28236d" stroke-linecap="round" stroke-linejoin="round" stroke-width="2"/>
    <path id="Path_931" data-name="Path 931" d="M70.069,17H59.221C36.463,17,18,38.37,18,64.73s18.463,47.73,41.221,47.73H70.069" transform="translate(17.543 17.543)" fill="none" stroke="#28236d" stroke-linecap="round" stroke-linejoin="round" stroke-width="2"/>
    <ellipse id="Ellipse_18" data-name="Ellipse 18" cx="41" cy="48" rx="41" ry="48" transform="translate(46.917 34)" fill="none" stroke="#28236d" stroke-linecap="round" stroke-linejoin="round" stroke-width="2"/>
    <ellipse id="Ellipse_19" data-name="Ellipse 19" cx="31.458" cy="37.685" rx="31.458" ry="37.685" transform="translate(57.238 44.588)" fill="none" stroke="#28236d" stroke-linecap="round" stroke-linejoin="round" stroke-width="2"/>
    <line id="Line_4" data-name="Line 4" x2="8" transform="translate(48.917 50)" fill="none" stroke="#28236d" stroke-linecap="round" stroke-linejoin="round" stroke-width="2"/>
    <line id="Line_5" data-name="Line 5" x2="8" transform="translate(48.917 114)" fill="none" stroke="#28236d" stroke-linecap="round" stroke-linejoin="round" stroke-width="2"/>
    <line id="Line_6" data-name="Line 6" x2="10" transform="translate(36.917 82)" fill="none" stroke="#28236d" stroke-linecap="round" stroke-linejoin="round" stroke-width="2"/>
    <line id="Line_7" data-name="Line 7" x2="9" transform="translate(39.917 64)" fill="none" stroke="#28236d" stroke-linecap="round" stroke-linejoin="round" stroke-width="2"/>
    <line id="Line_8" data-name="Line 8" x2="9" transform="translate(39.917 102)" fill="none" stroke="#28236d" stroke-linecap="round" stroke-linejoin="round" stroke-width="2"/>
    <path id="Path_932" data-name="Path 932" d="M59.7,59.034H51.017A13.017,13.017,0,0,1,38,46.017h0A13.017,13.017,0,0,1,51.017,33H59.7" transform="translate(40.933 36.255)" fill="none" stroke="#28236d" stroke-linecap="round" stroke-linejoin="round" stroke-width="4"/>
    <line id="Line_9" data-name="Line 9" x1="20" transform="translate(74.917 82)" fill="none" stroke="#28236d" stroke-linecap="round" stroke-linejoin="round" stroke-width="4"/>
  </g>
</svg>
