<?xml version="1.0" encoding="utf-8"?>
<!-- Generator: Adobe Illustrator 24.0.2, SVG Export Plug-In . SVG Version: 6.00 Build 0)  -->
<svg version="1.1" id="Layer_1" xmlns="http://www.w3.org/2000/svg" xmlns:xlink="http://www.w3.org/1999/xlink" x="0px" y="0px"
	 viewBox="0 0 971 297" style="enable-background:new 0 0 971 297;" xml:space="preserve">
<style type="text/css">
	.st0{fill:#7572A2;}
</style>
<g>
	<g>
		<path class="st0" d="M1.25,1.95c28.24,29.12,61.2,53.37,96.29,73.58c39.07,22.53,80.52,40.72,122.9,56.06
			c36.63,13.12,73.83,24.6,111.1,35.77c99.85,29.78,200.76,56.33,303.04,76.39c48.98,9.81,98.4,17.22,147.8,24.57
			c60.87,9.19,121.91,17.39,182.55,27.99c-7.1,0.51-14.01-1.37-20.97-2.37c-88.45-14.14-177.37-25.24-265.6-40.74
			c-90.97-16.2-180.99-37.5-269.93-62.51c-12.56-3.47-25.11-7-37.65-10.53c-5.08-1.42-10.11-3.08-15.34-3.87
			c4.41,2,9.11,3.24,13.74,4.65c94.5,29.14,190.28,54.4,287.37,73.35c65.39,12.92,131.36,22.51,197.08,33.49
			c2.24,0.39,4.52,0.42,6.8,0.34c0.04,0.49,0.13,1.47,0.17,1.96c-48.02-7.92-96.16-15.09-144.08-23.52
			c-130-22.12-257.93-55.3-383.39-95.7c-2.35-0.75-4.77-1.3-7.18-1.8c5.47,2.96,11.54,4.44,17.37,6.5
			c94.43,32.18,190.59,59.39,288.14,80.35c72.12,15.64,144.99,27.47,217.63,40.37c-6.6,0.59-13.03-1.26-19.49-2.26
			c-48.64-8.33-97.28-16.63-145.71-26.06c-95.07-18.38-189.06-42.34-281.33-71.69c-36.38-11.49-72.4-24.08-108.47-36.47
			c-2.47-0.72-4.86-1.98-7.46-2.05c0.69,0.96,2,1.1,3,1.63c96.98,36.87,195.89,68.9,296.75,93.37
			c69.61,17.07,140.05,30.44,210.5,43.51c-5.21,0.35-10.32-0.77-15.38-1.82c-44.39-8.5-88.91-16.39-133.07-26.09
			c-92.52-19.94-183.76-45.73-273.26-76.52c-37.8-13.07-75.33-26.91-112.6-41.42c-2.38-0.92-4.83-1.68-7.29-2.33
			c5.13,3.11,10.89,4.9,16.36,7.27c62.93,26.11,126.84,49.9,191.87,70.23c80.29,25.37,162.12,45.6,244.59,62.49
			c13.32,2.9,26.76,5.22,40.05,8.23c-6.37,0.52-12.53-1.42-18.7-2.63c-45.76-9.42-91.47-19.12-136.79-30.48
			c-44.28-11.05-88.24-23.4-131.77-37.09c-61.31-19.18-121.63-41.45-181.04-65.88c-16.26-6.78-32.56-13.45-48.76-20.38
			c-2.5-1.06-5.06-1.97-7.66-2.73c5.19,3.23,10.93,5.37,16.44,7.97c62.51,28.56,126.15,54.73,191.22,76.9
			c84.12,28.99,170.26,51.79,257.12,70.96c4.93,1.12,9.92,2.01,14.79,3.39c-5.64,0.27-11.06-1.44-16.5-2.61
			c-85.13-18.81-169.59-41.04-252.12-69.24c-31.91-10.84-63.52-22.56-94.81-35.08c-39.6-15.66-78.46-33.11-117.2-50.78
			c-6.83-2.96-13.4-6.55-20.48-8.91c4.79,3.68,10.47,5.87,15.83,8.55c33.65,16.77,67.63,32.9,102.13,47.84
			c89.15,38.59,181.68,68.99,275.62,93.51c22.11,5.87,44.35,11.25,66.55,16.76c-2.03-0.03-4.07-0.07-6.07-0.37
			c-122.62-29.14-243.7-66.51-358.73-118.39c-35.26-15.94-69.84-33.31-104.6-50.31c-5.87-2.81-11.54-6.1-17.75-8.13
			c1.37,0.93,2.76,1.85,4.19,2.69c32.64,18.06,65.6,35.56,99.12,51.91c93.18,45.56,191.42,79.98,291.16,108.01
			c17.85,5.07,35.85,9.61,53.72,14.62c-7.07,0.05-13.67-2.77-20.47-4.3c-91.66-24.31-182.16-53.67-269.2-91.44
			c-54.23-23.09-106.41-50.63-158.04-78.98c-5.28-2.87-10.39-6.17-16.18-7.96c4.12,3.39,8.88,5.85,13.42,8.6
			c32.97,19.84,66.4,38.94,100.65,56.49c56.64,28.97,115.62,53.18,175.57,74.38c39.27,13.84,78.98,26.44,119.02,37.87
			c6.1,1.86,12.35,3.23,18.37,5.38c-2.58-0.14-5.17-0.39-7.66-1.08c-96.8-27.25-192.21-60.37-283.01-103.82
			c-48.65-23.5-95.46-50.6-141.72-78.46c-3.69-2.2-7.43-4.48-11.68-5.37c1.74,1.34,3.52,2.64,5.39,3.81
			c33.36,21.04,66.15,43.04,100.59,62.31c59.55,33.27,122.39,60.29,186.36,83.79c34.84,12.81,70.12,24.38,105.6,35.25
			c3.74,1.09,7.5,2.17,11.06,3.76c-2.21-0.28-4.41-0.61-6.56-1.22c-43.07-13.03-85.8-27.24-127.92-43.1
			c-62.68-23.87-124.32-50.98-182.45-84.58c-31.32-17.91-61.39-37.87-91.68-57.42c-4.49-3-8.92-6.33-14.3-7.54
			c4.56,4.57,10.18,7.82,15.35,11.63c30.92,22.07,61.99,44.04,94.86,63.15c56.86,33.18,117.24,59.94,178.63,83.54
			c33.27,12.8,67.03,24.25,100.86,35.44c-2.2-0.2-4.41-0.37-6.53-1c-39.37-12.85-78.49-26.57-116.96-41.92
			c-67.2-26.76-132.97-57.87-193.68-97.39c-26.73-17.3-52.61-35.86-78.3-54.66c-2.64-2.01-5.81-3.09-8.99-3.9
			c4.6,4.73,10.07,8.46,15.16,12.63c33.06,26.48,67.03,51.98,103.45,73.7c64.96,38.85,134.72,68.99,205.56,95.31
			c13.82,5.39,28.51,7.87,42.9,11.27c8.62,2.13,17.47,3.35,25.98,5.95c-12,0.41-24.01,0.27-36.01-0.07
			c-7.87,0.68-15.09-3.34-22.93-3.24c2.2,1.27,4.43,2.49,6.61,3.8c-6.07-0.54-11.49-3.51-17.34-4.94
			c-4.46-1.24-9.09-1.84-13.71-1.97c5.32,3.16,11.42,4.41,17.2,6.42c-8.3,0.12-16.73,0.77-24.92-0.97
			c-4.2-0.76-8.47-0.96-12.71-1.25c1.33,0.79,2.67,1.57,4.01,2.37c-7.24-1.18-14.14-4.13-21.57-4.06c2.81,1.33,5.64,2.64,8.38,4.14
			c-4.43,0.3-8.8-0.67-12.79-2.58c-7-3.24-14.79-4.05-22.42-4.04c4.36,2.54,9.16,4.13,13.64,6.42c-8.18-0.68-14.76-6.76-22.99-7.2
			c5.05,2.9,10.76,4.41,15.71,7.51c-10.19-1.94-18.79-9.16-29.43-9.27c6.11,3.43,12.97,5.36,18.85,9.23
			c-5.36-1.04-10.17-3.73-15.2-5.71c-8.47-3.5-17.54-5.62-26.73-5.46c8.01,3.8,16.43,6.78,24.12,11.23
			c-12.7-2.44-23.05-12.25-36.22-12.84c-96.1-9.51-192.14-20.14-287.54-35.3c-4.03-0.59-8.21-0.95-11.92-2.79
			c1.98,0.03,3.95,0.15,5.9,0.44c91.93,14.65,184.46,25.12,277.06,34.43c5.88,0.59,11.74,1.33,17.65,1.51
			c-9.31-4.59-18.33-10.5-28.78-12.09c-86.52-11.54-173.05-23.39-258.95-39.01c-4.4-0.78-8.96-1.2-12.97-3.33
			c4.06,0.08,8.04,0.93,12.02,1.66c80.02,14.61,160.61,25.9,241.23,36.64c6.37,0.82,12.72,1.89,19.14,2.25
			c-5.23-3-10.72-5.52-15.99-8.45c-5.34-2.99-11.33-4.49-17.33-5.44c-76.22-12.57-152.25-26.32-228.01-41.44
			c-3.75-0.68-7.62-1.23-10.96-3.18c5.62,0.45,11.07,1.95,16.59,3c69.22,13.94,138.78,26.07,208.39,37.8
			c6.14,1.03,12.25,2.31,18.47,2.71c-6.12-3.36-12.14-6.89-18.3-10.16c-7.06-3.46-14.88-4.78-22.51-6.39
			c-63.57-13.16-127.16-26.33-190.44-40.87c-4.18-0.93-8.54-1.53-12.3-3.72c5.8,0.4,11.39,2.08,17.05,3.24
			c50.01,11.04,100.05,21.93,150.14,32.6c16.01,3.22,31.93,6.93,48.01,9.76c-5.49-3.82-11.37-7.05-17.02-10.63
			c-4.68-2.89-9.99-4.44-15.28-5.75c-57.92-14.26-115.74-28.97-173.61-43.4c-3.24-0.68-6.43-1.66-9.29-3.34
			c5.49,0.56,10.74,2.33,16.07,3.64c49.32,12.43,98.66,24.77,148.01,37.07c7.75,1.77,15.38,4.03,23.19,5.53
			c-9.5-6.36-18.48-14.28-29.82-17.12c-48.3-13.84-96.4-28.36-144.7-42.19c-4.34-1.22-8.84-2.11-12.75-4.47
			c6.15,0.73,11.98,2.91,17.91,4.54c41.56,11.83,82.96,24.19,124.43,36.32c6,1.74,11.95,3.68,18.05,5.03
			c-5.95-4.84-11.82-9.92-18.67-13.46c-10.99-5.83-23.04-9.12-34.78-13.03c-31.38-10.26-62.53-21.21-94.03-31.11
			c-4.4-1.44-9.12-2.32-12.91-5.14c4.85,0.73,9.44,2.51,14.09,4c40.63,13.27,81.11,26.98,121.71,40.35
			c-4.19-3.81-8.56-7.42-12.8-11.17c-5.75-4.94-13.04-7.4-19.95-10.22c-30.06-11.87-60.29-23.31-90.67-34.35
			c-4.23-1.53-8.7-2.65-12.38-5.36c5.41,1.07,10.47,3.33,15.66,5.13c26.06,9.33,51.97,19.09,77.71,29.29
			c6.65,2.53,13.18,5.4,19.97,7.58c-3.47-4-7.2-7.78-11.04-11.43c-4.89-4.59-11.34-6.83-17.31-9.64
			c-24.22-11.08-48.69-21.6-73.33-31.71c-4.02-1.63-8.32-2.87-11.66-5.76c2.14,0.56,4.27,1.18,6.33,1.99
			c24.02,9.77,47.92,19.84,71.52,30.6c5.74,2.59,11.43,5.31,17.33,7.54c-5.08-6.14-9.78-13.11-17.13-16.74
			c-21.49-11.47-43.33-22.29-65.42-32.55c-4.31-2.1-9.09-3.52-12.63-6.91c4.06,1.15,7.86,3.01,11.66,4.82
			c16.7,7.81,33.36,15.7,49.72,24.19c6,2.88,11.75,6.29,17.92,8.8c-4.07-5.36-7.7-11.41-13.48-15.12
			c-18.16-11.1-36.65-21.65-55.48-31.59c-3.64-1.95-7.8-3.38-10.34-6.85c1.95,0.76,3.87,1.59,5.73,2.54
			c17.13,9,34.06,18.36,50.68,28.26c2.81,1.69,5.68,3.26,8.63,4.7c-3.54-5.43-6.91-11.35-12.47-14.99
			c-13.86-9.52-27.83-18.9-42.19-27.67c-3.66-2.26-7.82-4.03-10.38-7.66c2.05,0.91,4.06,1.91,6,3.05
			c11.01,6.58,21.88,13.41,32.56,20.51c4.5,2.93,8.87,6.08,13.64,8.58c-5.54-11.2-16.31-18.1-25.92-25.44
			c-7.9-5.77-18.26-6.48-26.28-11.99c5.82,1.17,11.14,3.91,16.83,5.54c-4.2-4.97-10.29-7.48-16.13-9.95
			c0.03-2.17,0.04-4.35,0.06-6.52C7,46.59,12.73,49,18.73,50.59c-5.12-5.28-12.5-6.96-18.22-11.31c2.14,0.4,4.27,0.86,6.39,1.38
			c-2.61-2.04-5.17-4.32-6.34-7.52c4.93,2.49,9.67,5.44,15.05,6.86c-3.9-5.09-10.67-6.1-15.1-10.49c2.06,0.49,4.11,1.04,6.16,1.6
			c-1.81-1.53-3.62-3.05-5.43-4.58c0-2.02-0.01-4.04-0.01-6.07c0.83,0.17,2.5,0.51,3.34,0.68c-1.12-1.21-2.24-2.41-3.35-3.62
			C1.24,12.33,1.23,7.14,1.25,1.95z M3.99,23.89c1.8,2.36,4.17,4.23,7.06,5.03C9.05,26.79,6.64,25.1,3.99,23.89z M10.14,40.16
			c3.5,3.75,7.85,6.69,12.9,7.83C19.9,43.79,14.97,41.73,10.14,40.16z M32.94,43.66c-0.83,1.12,1.04,2.64,1.99,1.63
			C35.76,44.17,33.88,42.64,32.94,43.66z M27.84,44.67c-0.46,1.38,0.01,1.88,1.43,1.51C29.73,44.8,29.26,44.29,27.84,44.67z
			 M4.06,47.71c6.48,5.91,14.86,9.22,23.23,11.4C21.06,52.86,12.49,49.7,4.06,47.71z M36.18,48.39c1.07,1.71,2.72,2.84,4.61,3.48
			C39.35,50.58,37.81,49.42,36.18,48.39z M21.96,49.96c1.58,2.08,3.69,3.64,6.13,4.57C26.66,52.29,24.51,50.72,21.96,49.96z
			 M32.1,50.75c-0.79,1.13,1.08,2.68,1.98,1.56C34.87,51.18,33,49.63,32.1,50.75z M39.68,53.81c1.47,2.43,3.98,3.69,6.68,4.26
			C44.41,56.25,42.14,54.83,39.68,53.81z M18.94,58.31c4.66,4.67,10.69,7.77,17.18,8.95C31.95,61.92,25.1,60.21,18.94,58.31z
			 M52.75,60.11c-0.44,1.5,1.95,3,3.24,2.29C56.4,60.91,54.03,59.42,52.75,60.11z M44.95,60.04c1.48,2.23,3.84,3.43,6.41,3.95
			C49.4,62.41,47.24,61.1,44.95,60.04z M47.83,65.26c2.04,3.12,5.45,4.64,9,5.29C54.47,67.85,51.31,66.07,47.83,65.26z M55.77,65.24
			c1.96,1.92,4.47,3.05,7.15,3.55C60.87,67.02,58.48,65.67,55.77,65.24z M64.91,65.73c-0.8,1.14,1.12,2.61,2.04,1.58
			C67.75,66.16,65.83,64.7,64.91,65.73z M32.11,68.37c2.27,2.13,4.79,3.97,7.51,5.49C38.39,70.59,35.32,69.1,32.11,68.37z
			 M61.05,70.26c1.23,3.27,4.68,4.17,7.72,4.91C66.45,73.17,63.87,71.48,61.05,70.26z M69.06,70.85c-0.12,1.69,2.61,2.92,4.04,2.33
			C73.2,71.51,70.5,70.17,69.06,70.85z M52.53,71.32c2.04,3.49,5.91,4.75,9.65,5.44C59.74,73.8,56.25,72.06,52.53,71.32z
			 M73.82,75.49c1.45,2.79,4.41,3.86,7.29,4.49C78.88,78.18,76.44,76.66,73.82,75.49z M81.78,76.12c-0.48,1.52,2.02,2.86,3.26,2.12
			C85.51,76.73,83.02,75.38,81.78,76.12z M65.17,76.45c2.55,3,6.18,4.59,10.01,5.18C72.65,78.61,68.99,77.07,65.17,76.45z
			 M57.15,77.22c10.76,17.57,25.96,31.86,41.46,45.2c6.6,5.51,13.2,11.03,20.2,16.02c-16.87-19.16-35.26-36.96-52.04-56.21
			C64.34,79.34,60.6,78.32,57.15,77.22z M48.71,79.89c-0.65,1.34,1.03,3.56,2.5,3.15C51.87,81.69,50.18,79.49,48.71,79.89z
			 M78.87,81.21c1.98,2.98,5.34,4.28,8.75,4.82C85.02,83.9,82.09,82.2,78.87,81.21z M87.79,81.73c-0.07,1.54,2.1,2.19,3.3,2.64
			c1.4,0.63,1.46-1.14,0.34-1.51C90.4,82.21,89.06,81.22,87.79,81.73z M70.79,82.27c3.65,5.24,8.11,9.83,12.28,14.65
			c16.16,18.15,33.03,35.69,50.9,52.18c19.49,17.4,42.66,29.85,65.17,42.83c8.27,4.63,16.54,9.36,25.32,12.95
			c-2.49-2.07-5.15-3.92-7.9-5.63c-19.36-12.31-38.65-24.8-56.6-39.12c-28.05-22.07-53.46-47.23-78.65-72.44
			C78.52,84.73,74.66,83.23,70.79,82.27z M92.68,86.72c2.35,2.09,5.2,3.49,8.28,4.15C98.44,89.06,95.65,87.64,92.68,86.72z
			 M99.23,86.4c2.07,1.29,4.27,2.35,6.58,3.13C103.79,88.16,101.56,87.12,99.23,86.4z M84.52,87.37
			c15.27,16.05,31.28,31.42,47.68,46.31c27.29,25.02,57.16,47.13,88.7,66.49c11.84,7.41,24.03,14.29,36.65,20.3
			c17.09,8.21,34.9,14.77,52.66,21.34c7.9,2.69,15.68,5.83,23.8,7.83c-1.62-0.91-3.25-1.78-4.91-2.58
			c-49.29-22.62-97.57-47.93-142.05-79.09c-32.22-22.62-61.84-48.64-91.14-74.86C92.78,90.07,88.75,88.25,84.52,87.37z
			 M106.01,91.52c2.39,2.31,5.51,3.54,8.74,4.13C111.97,94,109.06,92.58,106.01,91.52z M56.41,91.36c1.7,4.63,5.1,8.37,9.52,10.54
			C63.78,97.59,60.58,93.83,56.41,91.36z M99.2,92.6c4.02,4.72,8.95,8.51,13.49,12.69c18.77,16.66,38.06,32.73,57.83,48.2
			c54.17,41.48,115.24,72.88,177.38,100.57c10.32,4.82,21.48,7.38,32.31,10.79c15.99,4.55,31.89,9.68,48.23,12.86
			c-7.79-3.96-16.21-6.48-24.26-9.85c-66.8-26.26-132.44-56.35-193.09-94.96c-35.19-22.49-68.12-48.26-100.56-74.48
			C107.31,95.53,103.46,93.44,99.2,92.6z M121.12,97.68c-0.01,1.56,2.64,2.46,3.87,1.69C125.03,97.8,122.34,96.91,121.12,97.68z
			 M67.07,106.26c2.65,6.13,7.47,11.07,13.66,13.63C77.43,114.26,72.94,109.27,67.07,106.26z M74.86,106.69
			c-0.36,1.61,1.56,3.88,3.23,3.62C78.41,108.71,76.48,106.54,74.86,106.69z M86.28,119.9c1.29,3.17,3.8,5.58,6.8,7.16
			C91.21,124.33,88.94,121.87,86.28,119.9z M78.79,122.02c3.15,7.79,10.39,12.69,17.9,15.72C92.81,130.55,86.17,125.3,78.79,122.02z
			 M97,132.98c3.69,4.51,7.36,9.43,12.75,12.02C106.33,140.23,102.37,135.59,97,132.98z M107.81,135.64
			c-0.43,1.49,1.79,3.16,3.17,2.62C111.38,136.79,109.18,135.11,107.81,135.64z M92.28,138.65c2.74,3.58,5.55,7.16,8.85,10.26
			c3.87,3.61,9.04,5.25,13.92,7C108.72,148.7,101.6,141.76,92.28,138.65z M118.03,145.45c3.16,5.56,8.65,9.29,14.69,11.14
			C128.05,152.6,123.34,148.59,118.03,145.45z M113.43,149.52c3.18,5.6,8.45,9.58,14.22,12.23
			C123.31,157.24,118.81,152.78,113.43,149.52z M106.53,154.66c3.92,4.01,7.95,7.91,12.05,11.73c4.41,4.09,10.41,5.59,16.03,7.23
			c-3.6-3.16-7.12-6.41-10.62-9.66C119.05,159.45,112.74,156.9,106.53,154.66z M283.88,156.57l0.04,0.92l0.83,0.38
			c0.12-0.31,0.36-0.92,0.48-1.23l-0.54-0.5L283.88,156.57z M140.44,159.71c2.44,2.65,5.39,4.76,8.66,6.28
			C146.66,163.33,143.69,161.24,140.44,159.71z M134.32,160.79c4.94,6.17,11.76,10.69,19.34,12.94
			C147.85,168.57,141.7,163.51,134.32,160.79z M129.29,165.27c4.8,5.94,10.97,10.92,18.22,13.51
			C142.27,173.28,136.28,168.35,129.29,165.27z M125.35,172.47c4.22,3.5,8.39,7.06,12.54,10.65c5.45,4.76,12.52,6.98,19.45,8.56
			c-4.16-3.51-8.53-6.77-12.74-10.22C139.02,176.92,132.1,174.61,125.35,172.47z M155.83,172.12c3.27,3.55,7.3,6.33,11.78,8.13
			C164.43,176.59,160.32,173.89,155.83,172.12z M151.32,175.39c6.12,7.11,14.55,11.87,23.54,14.34
			C168.32,183.11,160.08,178.4,151.32,175.39z M148.3,181.32c6.73,6.75,14.68,12.57,23.86,15.46
			C164.72,190.92,157.26,184.72,148.3,181.32z M175.17,186.29c4.17,4.12,9.12,7.44,14.65,9.43
			C185.57,191.7,180.61,188.46,175.17,186.29z M183.8,186.81c-0.11,1.71,2.58,3.18,4.12,2.61
			C187.9,187.75,185.32,186.42,183.8,186.81z M148.29,190.86c4.54,3.84,9.49,7.16,14.22,10.77c5.82,4.47,13.06,6.39,20.13,7.81
			c-4.65-3.4-9.39-6.67-14.01-10.12C162.64,194.9,155.39,192.73,148.29,190.86z M171.37,190.82c8.72,7.05,18.26,13.91,29.63,15.62
			C191.72,200.24,182.36,193.63,171.37,190.82z M200.43,197.86c4.19,3.88,9.4,6.44,14.86,8.01
			C210.83,202.38,205.8,199.64,200.43,197.86z M173.38,199.68c7.51,5.97,15.31,12.53,24.98,14.43
			C190.5,208.59,182.72,202.48,173.38,199.68z M196.6,200.99c4.75,3.97,10.09,7.29,15.95,9.34
			C207.93,206.19,202.63,202.67,196.6,200.99z M195.62,207.17c4.51,3.31,9.3,6.25,14.08,9.15c5.53,3.35,11.87,4.95,18.16,6.19
			C217.72,216.25,207.61,209.26,195.62,207.17z M173.69,209.06c5.25,3.98,10.9,7.37,16.4,10.98c6.14,4.03,13.54,5.23,20.63,6.52
			c-4.75-2.95-9.58-5.76-14.2-8.9C189.74,212.99,181.7,210.61,173.69,209.06z M219.4,209.7c7.71,5.14,16,9.64,25.09,11.74
			C236.53,216.73,228.31,212.34,219.4,209.7z M196.76,215.42c5.22,4.25,11.29,7.24,16.94,10.86c3.59,2.34,7.79,3.42,11.99,4.05
			C216.35,224.85,207.56,217.77,196.76,215.42z M221.84,216.12c5.29,4.28,11.34,7.67,17.91,9.5
			C234.06,221.98,228.24,218.4,221.84,216.12z M248.58,221.15c4.32,3.1,9.25,5.24,14.4,6.5
			C258.6,224.67,253.75,222.36,248.58,221.15z M220.45,222.6c4.82,2.88,9.7,5.66,14.55,8.51c6.32,3.71,13.57,5.37,20.77,6.29
			c-4.6-2.4-9.16-4.88-13.68-7.45C235.39,226.2,227.91,224.18,220.45,222.6z M244.19,223.46c8.23,5.03,16.98,9.9,26.69,11.2
			C262.45,229.96,253.64,225.65,244.19,223.46z M200.65,226.31c4.62,3.12,9.39,6.02,14.14,8.95c7.25,4.41,15.68,6.27,24.01,7.26
			c-5.12-2.92-10.33-5.71-15.34-8.82C216.59,229.4,208.6,227.4,200.65,226.31z M248.59,231.04c4.52,3.54,9.72,6.19,15.26,7.71
			C259.05,235.67,253.98,232.94,248.59,231.04z M224.59,232.27c5.1,3.44,10.56,6.3,15.9,9.35c3.72,2.14,7.92,3.22,12.13,3.9
			C243.9,239.99,235,233.89,224.59,232.27z M270.76,232.24c6.14,3.94,12.96,6.84,20.1,8.36
			C284.63,236.83,277.87,233.87,270.76,232.24z M258.08,233.3c6,3.86,12.3,7.43,19.17,9.5C271.16,239.09,264.76,235.82,258.08,233.3
			z M247.17,237.6c9.93,5.19,19.58,12.08,31.09,12.99c-1.13,0.62-2.3,1.18-3.46,1.72c6.72,2.8,12.89,6.82,19.81,9.17
			c5.25,1.94,10.81,2.89,16.4,3.07c-4.54-2.33-9.1-4.59-13.68-6.82c-6.16-2.98-12.91-4.45-19.65-5.41c1.73-0.94,3.7-1.04,5.62-1.22
			c-6.34-2.61-12.09-6.46-18.48-8.95C259.15,239.9,253.17,238.59,247.17,237.6z M271.67,237.21c8.41,6.55,19.04,8.54,28.88,11.9
			c-0.02-0.59-0.04-1.79-0.05-2.38c3.14,1.3,6.27,2.63,9.48,3.76c-3.88-2.86-8.24-5.3-13.12-5.8c0.16,0.17,0.49,0.52,0.65,0.7
			c0.37,0.5,0.6,1.06,0.71,1.7C289.6,243.26,281.12,238.67,271.67,237.21z M227.42,242.18c5.8,3.79,12.07,6.75,18.03,10.24
			c6.43,3.91,14.2,3.86,21.41,5.06c-5.81-3.37-11.82-6.36-17.73-9.54C242.48,244.24,234.77,243.52,227.42,242.18z M301.2,242.53
			c3.57,2.13,7.54,3.54,11.69,3.97C309.18,244.68,305.26,243.31,301.2,242.53z M275.53,245.14c3.45,2.52,7.34,4.35,11.41,5.62
			C283.43,248.34,279.6,246.4,275.53,245.14z M251.57,247.19c5.18,3.38,10.81,5.99,16.23,8.95c3.87,2.13,8.22,3.18,12.61,3.5
			c-5.3-3.16-10.89-5.77-16.31-8.71C260.24,248.81,255.94,247.62,251.57,247.19z M285.67,247.21c5.5,4,11.75,7.02,18.43,8.4
			C298.3,252.14,292.17,249.12,285.67,247.21z M296.27,249.56c9.81,5.24,20.21,9.95,31.43,10.9
			C317.81,255.39,307.39,250.95,296.27,249.56z M324.07,252.35c5.81,3.1,12.14,5.19,18.67,6.09
			C336.78,255.73,330.68,252.96,324.07,252.35z M255.13,257.5c5.98,3.16,12.07,6.12,18.02,9.33c6.7,3.96,14.74,3.73,22.22,4.67
			c-5.88-3.11-11.88-5.98-17.83-8.94C270.62,258.98,262.71,258.48,255.13,257.5z M304.36,259.84c2.46,1.01,4.93,2.03,7.42,3.03
			c-0.77-0.81-2.31-2.43-3.07-3.25c7.48,2.59,14.21,7.61,22.36,8c-5.89-3.29-12.03-6.29-18.52-8.19
			C309.85,258.53,307.04,259.3,304.36,259.84z M335.74,259.31c3.99,2.69,8.53,4.48,13.27,5.31
			C344.78,262.39,340.33,260.62,335.74,259.31z M351.17,259.63c3.04,1.58,6.35,2.61,9.79,2.83
			C357.78,261.22,354.51,260.28,351.17,259.63z M279.1,261.51c5.49,3.07,11.21,5.68,16.8,8.54c3.97,2.11,8.42,2.97,12.88,3.19
			C299.18,268.7,289.89,262.67,279.1,261.51z M347.24,261.63c6.96,3.57,14.41,6.65,22.34,6.9
			C362.51,265.18,354.96,262.86,347.24,261.63z M323.86,261.89c9.39,5.18,19.72,9.52,30.59,9.71
			C344.85,266.87,334.65,262.71,323.86,261.89z M297.12,265.43c5.05,3,10.35,5.66,16,7.36
			C308.15,269.64,302.78,267.08,297.12,265.43z M303.03,265.48c8.82,5.08,18.14,9.85,28.43,10.89c0.46,0.2,1.37,0.6,1.83,0.8
			c-0.45,0.37-1.35,1.12-1.8,1.49c6.8,3.29,13.5,7.1,20.96,8.7c4.39,1.03,8.92,1.13,13.41,1.04c-6.22-3.12-12.61-5.99-19.29-7.99
			c-3.61-1.12-7.45-1.29-11.04-2.47c1.33-0.34,2.67-0.65,4.01-0.93C327.9,271.78,316.12,265.6,303.03,265.48z M354.17,267.68
			c6.45,3.1,12.97,7.31,20.44,6.92C368.14,271.42,361.29,268.91,354.17,267.68z M372.47,267.64c4.07,1.91,8.33,3.5,12.82,4.09
			C381.39,269.37,376.95,268.2,372.47,267.64z M333.56,270.42c8.47,3.84,16.81,9.5,26.48,9.18
			C351.56,275.73,343.08,270.87,333.56,270.42z M372.11,271.69c7.89,3.41,16.1,6.71,24.81,6.92
			C389.17,274.84,380.79,272,372.11,271.69z M284.94,272.36c5.54,3.19,11.38,5.8,17.16,8.52c6.59,3.12,14.02,3.32,21.17,3.64
			c-5.68-3.03-11.62-5.56-17.44-8.31C299.35,273.09,292.02,272.62,284.94,272.36z M350.5,273.32c9.66,5.25,20.42,9.41,31.58,9.16
			C372.11,277.91,361.63,273.53,350.5,273.32z M401.29,274.65c3.5,1.22,7.1,2.18,10.78,2.68
			C408.68,275.75,405.01,274.9,401.29,274.65z M307.94,275.4c8.83,4.42,17.73,9.63,27.81,10.32c-5.56-3.15-11.51-5.5-17.28-8.23
			C315.21,275.85,311.55,275.41,307.94,275.4z M377.07,277.56c8.38,4.04,17.25,8.07,26.77,7.72
			C395.22,281.83,386.48,277.98,377.07,277.56z M324.78,278.3c5.32,3.33,11.14,5.87,17.24,7.37
			C336.6,282.54,330.89,279.77,324.78,278.3z M411.06,279.71c0.17,1.51,2.46,1.78,3.71,1.97c1.47,0.36,1.43-1.38,0.14-1.52
			C413.72,279.76,412.26,279.04,411.06,279.71z M359.46,281.88c8.92,3.66,17.68,9.5,27.73,8.67
			C378.39,286.52,369.39,281.85,359.46,281.88z M399.06,281.34c7.26,3.85,15.31,6.8,23.66,6.35
			C415.41,283.93,407.31,281.49,399.06,281.34z M424.05,281.61c4.28,2.25,9.05,3.28,13.84,3.61
			C433.44,283.48,428.8,282.21,424.05,281.61z M377.73,284.39c9.27,4.98,19.69,9.14,30.4,8.07
			C398.56,288.07,388.48,283.91,377.73,284.39z M425.87,285.47c5.67,2.86,11.82,5.23,18.29,5.02
			C438.35,287.93,432.2,286.04,425.87,285.47z M447.95,286.56c3.28,1.09,6.68,1.83,10.12,2.23
			C454.84,287.5,451.42,286.74,447.95,286.56z M402.01,287.62c8.57,4.22,17.93,7.7,27.64,7.12
			C420.92,290.97,411.7,287.18,402.01,287.62z M445.11,288.71c6.24,2.59,12.8,4.8,19.65,4.51
			C458.45,290.85,451.87,289.04,445.11,288.71z"/>
	</g>
	<path class="st0" d="M860.88,290.59c0.64-0.53,1.29-1.06,1.95-1.57c6.15,1.36,12.41,2.15,18.61,3.26c3.31,0.6,6.68,1.07,10.06,0.86
		c0.01,0.48,0.03,1.44,0.04,1.92C881.32,293.58,871.21,291.05,860.88,290.59z"/>
	<path class="st0" d="M891.88,295.62c0.63-0.54,1.27-1.07,1.93-1.59c4.02,0.87,8.09,1.45,12.13,2.28
		C901.23,296.44,896.56,295.91,891.88,295.62z"/>
</g>
</svg>
