<svg xmlns="http://www.w3.org/2000/svg" width="105.882" height="128.002" viewBox="0 0 105.882 128.002">
  <g id="cred" transform="translate(-5.53)">
    <path id="Path_1118" data-name="Path 1118" d="M107.532,128H9.41a3.884,3.884,0,0,1-3.88-3.88V3.88A3.884,3.884,0,0,1,9.41,0h98.122a3.884,3.884,0,0,1,3.88,3.88V124.122a3.884,3.884,0,0,1-3.88,3.88ZM9.41,3.88V124.122h98.122V3.88Z" transform="translate(0)" fill="#28236d"/>
    <path id="Path_1119" data-name="Path 1119" d="M15.684,21.675a1.932,1.932,0,0,1-1.38-3.3l9.56-9.56a1.938,1.938,0,1,1,2.74,2.74l-9.56,9.56a1.94,1.94,0,0,1-1.36.56Z" transform="translate(8.206 8.245)" fill="#28236d"/>
    <path id="Path_1120" data-name="Path 1120" d="M28.134,21.675a1.935,1.935,0,0,1-1.38-.56l-9.56-9.56a1.938,1.938,0,0,1,2.74-2.74l9.56,9.56a1.932,1.932,0,0,1-1.36,3.3ZM20.954,42.4a1.935,1.935,0,0,1-1.38-.56l-4.76-4.76a1.938,1.938,0,1,1,2.74-2.74l3.38,3.38,8.2-8.2a1.938,1.938,0,0,1,2.74,2.74l-9.56,9.56a1.877,1.877,0,0,1-1.36.58Zm2.4,20.82a6.82,6.82,0,1,1,6.82-6.82A6.829,6.829,0,0,1,23.354,63.216Zm0-9.76a2.94,2.94,0,1,0,2.94,2.94A2.945,2.945,0,0,0,23.354,53.456Zm4.88,30.46h-9.76a1.929,1.929,0,0,1-1.94-1.94v-9.76a1.929,1.929,0,0,1,1.94-1.94h9.76a1.929,1.929,0,0,1,1.94,1.94v9.76A1.929,1.929,0,0,1,28.234,83.916Zm-7.8-3.88h5.88v-5.88h-5.88ZM90.115,16.9H42.974a1.94,1.94,0,0,1,0-3.88H90.095a1.94,1.94,0,0,1,.02,3.88Zm0,20.72H42.974a1.94,1.94,0,1,1,0-3.88H90.095a1.94,1.94,0,0,1,.02,3.88Zm0,20.72H42.974a1.94,1.94,0,0,1,0-3.88H90.095a1.94,1.94,0,0,1,.02,3.88Zm0,20.72H42.974a1.94,1.94,0,1,1,0-3.88H90.095a1.94,1.94,0,0,1,.02,3.88Zm-66.061,30.38a2.059,2.059,0,0,1-.9-.22l-3.4-1.78-3.4,1.78a1.971,1.971,0,0,1-2.04-.14,1.95,1.95,0,0,1-.78-1.9l.64-3.78-2.74-2.68a1.968,1.968,0,0,1-.5-1.98,1.929,1.929,0,0,1,1.56-1.32l3.8-.56,1.7-3.44a1.942,1.942,0,0,1,3.48,0l1.7,3.44,3.8.56a1.929,1.929,0,0,1,1.06,3.3l-2.74,2.68.64,3.78a1.965,1.965,0,0,1-.78,1.9A1.771,1.771,0,0,1,24.054,109.437Zm-7.08-8.76.66.64a1.946,1.946,0,0,1,.56,1.72l-.16.92.82-.44a1.913,1.913,0,0,1,1.8,0l.82.44-.16-.92a1.965,1.965,0,0,1,.56-1.72l.66-.64-.92-.14a1.92,1.92,0,0,1-1.46-1.06l-.4-.82-.42.82a1.92,1.92,0,0,1-1.46,1.06l-.9.14Zm20.74,8.76a1.861,1.861,0,0,1-1.14-.38,1.95,1.95,0,0,1-.78-1.9l.64-3.78-2.74-2.68a1.968,1.968,0,0,1-.5-1.98,1.929,1.929,0,0,1,1.56-1.32l3.8-.56,1.7-3.44a2.024,2.024,0,0,1,3.48,0l1.7,3.44,3.8.56a1.929,1.929,0,0,1,1.06,3.3l-2.74,2.68.64,3.78a1.965,1.965,0,0,1-.78,1.9,1.888,1.888,0,0,1-2.04.14l-3.4-1.78-3.4,1.78a1.545,1.545,0,0,1-.86.24Zm4.3-6.14a2.059,2.059,0,0,1,.9.22l.82.44-.16-.92a1.965,1.965,0,0,1,.56-1.72l.66-.64-.92-.14a1.92,1.92,0,0,1-1.46-1.06l-.42-.82-.4.82a1.92,1.92,0,0,1-1.46,1.06l-.92.14.66.64a1.946,1.946,0,0,1,.56,1.72l-.16.92.82-.44a2.215,2.215,0,0,1,.92-.22Zm17.98,6.14a1.861,1.861,0,0,1-1.14-.38,1.95,1.95,0,0,1-.78-1.9l.64-3.78-2.74-2.68a1.968,1.968,0,0,1-.5-1.98,1.929,1.929,0,0,1,1.56-1.32l3.8-.56,1.7-3.44a2.024,2.024,0,0,1,3.48,0l1.7,3.44,3.8.56a1.929,1.929,0,0,1,1.06,3.3l-2.74,2.68.64,3.78a1.965,1.965,0,0,1-.78,1.9,1.888,1.888,0,0,1-2.04.14l-3.4-1.78-3.4,1.78A1.593,1.593,0,0,1,59.994,109.437Zm4.3-6.14a2.059,2.059,0,0,1,.9.22l.82.44-.16-.92a1.965,1.965,0,0,1,.56-1.72l.66-.64-.92-.12a1.92,1.92,0,0,1-1.46-1.06l-.42-.82-.4.82a1.92,1.92,0,0,1-1.46,1.06l-.92.14.66.64a1.946,1.946,0,0,1,.56,1.72l-.16.92.82-.44A1.914,1.914,0,0,1,64.294,103.3Zm26.56,6.14a2.059,2.059,0,0,1-.9-.22l-3.4-1.78-3.4,1.78a1.971,1.971,0,0,1-2.04-.14,1.95,1.95,0,0,1-.78-1.9l.64-3.78-2.74-2.68a1.968,1.968,0,0,1-.5-1.98,1.929,1.929,0,0,1,1.56-1.32l3.8-.56,1.7-3.44a2.024,2.024,0,0,1,3.48,0l1.7,3.44,3.8.56a1.929,1.929,0,0,1,1.06,3.3l-2.74,2.68.64,3.78a1.965,1.965,0,0,1-.78,1.9A1.771,1.771,0,0,1,90.855,109.437Zm-4.3-6.14a2.059,2.059,0,0,1,.9.22l.82.44-.16-.92a1.965,1.965,0,0,1,.56-1.72l.66-.64-.92-.14a1.92,1.92,0,0,1-1.46-1.06l-.42-.82-.4.82a1.92,1.92,0,0,1-1.46,1.06l-.92.14.66.64a1.946,1.946,0,0,1,.56,1.72l-.16.92.82-.44A2.215,2.215,0,0,1,86.555,103.3Z" transform="translate(5.317 8.245)" fill="#28236d"/>
  </g>
</svg>
