<svg xmlns="http://www.w3.org/2000/svg" width="103.819" height="128.002" viewBox="0 0 103.819 128.002">
  <g id="environment" transform="translate(-55.64 -7.64)">
    <path id="Path_936" data-name="Path 936" d="M149,7.64H66.1A10.469,10.469,0,0,0,55.64,18.1V68.358A10.467,10.467,0,0,0,66.1,78.807h34.2a.054.054,0,0,1,.044.026l4.091,6.477a3.679,3.679,0,0,0,6.218,0l4.091-6.477a.049.049,0,0,1,.044-.026h34.424a10.262,10.262,0,0,0,10.252-10.249V18.1A10.469,10.469,0,0,0,149,7.64Zm6.829,60.918a6.633,6.633,0,0,1-6.625,6.622H114.8a3.663,3.663,0,0,0-3.109,1.728l-4.088,6.477a.06.06,0,0,1-.093,0L103.4,76.908A3.663,3.663,0,0,0,100.3,75.19H66.1a6.835,6.835,0,0,1-6.829-6.832V18.1A6.837,6.837,0,0,1,66.1,11.267H149a6.837,6.837,0,0,1,6.829,6.829Z" transform="translate(0 0)" fill="#28236d"/>
    <path id="Path_937" data-name="Path 937" d="M180.659,314.568h-4.651v-.676a1.814,1.814,0,0,0-1.228-1.718,40.04,40.04,0,0,0-12.4-1.785c-8.3.122-15.136,3.052-19.9,8.5-4.767-5.441-11.6-8.381-19.9-8.5a40.23,40.23,0,0,0-12.407,1.785,1.814,1.814,0,0,0-1.225,1.718v.676h-4.762a1.814,1.814,0,0,0-1.814,1.814v41.956l.016.1a.589.589,0,0,0,.026.135l.023.093c.021.065.041.124.065.184a.145.145,0,0,1,0,.031l.034.062c.021.041.041.083.065.124s.034.052.049.078a1.607,1.607,0,0,0,.122.166l.047.052c.039.041.078.083.119.122l.049.044a1.585,1.585,0,0,0,.181.137l.026.016a1.6,1.6,0,0,0,.184.1l.039.018a1.679,1.679,0,0,0,.225.085h0a2.033,2.033,0,0,0,.218.049h.057a1.806,1.806,0,0,0,.238.018h76.507a1.845,1.845,0,0,0,.241-.018h.057a1.844,1.844,0,0,0,.207-.047h.021a2.247,2.247,0,0,0,.22-.083l.047-.023a1.374,1.374,0,0,0,.171-.1l.036-.021c.062-.041.122-.088.179-.135l.044-.042a1.587,1.587,0,0,0,.132-.132l.031-.036a1.57,1.57,0,0,0,.137-.187l.023-.036a1.92,1.92,0,0,0,.109-.2h0a1.81,1.81,0,0,0,.083-.236.169.169,0,0,0,0-.034,1.794,1.794,0,0,0,.041-.2v-.044a1.915,1.915,0,0,0,.013-.212V316.381a1.814,1.814,0,0,0-1.793-1.814ZM106,318.195h2.943v32.111L106,353.5Zm2.332,38.139,3.368-3.643q.72-.124,1.417-.22a40.793,40.793,0,0,1,13.959.358,35.3,35.3,0,0,1,6.363,1.938,32.154,32.154,0,0,1,3.27,1.567Zm32.341-1.858a32.031,32.031,0,0,0-2.793-1.648,37.976,37.976,0,0,0-10.3-3.627,42.294,42.294,0,0,0-8.291-.806,47.5,47.5,0,0,0-6.721.492V315.252c.259-.07.573-.148.915-.228a37.938,37.938,0,0,1,9.143-1.005c6.075.109,11.081,1.814,14.944,5.106a20.639,20.639,0,0,1,3.091,3.272Zm3.627,0V322.4a20.612,20.612,0,0,1,3.109-3.277c3.863-3.283,8.866-4.993,14.939-5.1a38.085,38.085,0,0,1,9.1.995c.358.086.679.166.956.238v33.637a44.4,44.4,0,0,0-15,.321,37.94,37.94,0,0,0-10.3,3.627,28.856,28.856,0,0,0-2.814,1.64Zm3.974,1.858a32.716,32.716,0,0,1,3.27-1.567,34.891,34.891,0,0,1,6.342-1.938,41.513,41.513,0,0,1,14.465-.285c.319.047.63.1.933.15l3.3,3.64Zm30.585-2.889-2.847-3.13V318.19h2.837Z" transform="translate(-34.623 -224.309)" fill="#28236d"/>
    <path id="Path_938" data-name="Path 938" d="M203.054,138.907a1.813,1.813,0,1,0,.744-3.55c-10.236-2.142-16.146,3.135-16.392,3.368a1.814,1.814,0,1,0,2.451,2.674C189.9,141.35,194.618,137.14,203.054,138.907Zm-14.661-5.164a1.813,1.813,0,0,0,1.225-.477c.047-.044,4.762-4.254,13.2-2.487a1.815,1.815,0,0,0,.744-3.552c-10.236-2.14-16.143,3.137-16.392,3.368a1.814,1.814,0,0,0,1.225,3.153Zm-31.626,1.614a1.813,1.813,0,1,0,.744,3.55c8.314-1.741,12.985,2.3,13.213,2.492a1.814,1.814,0,0,0,2.443-2.679C172.91,138.493,167,133.212,156.767,135.358Zm.236-8.13a1.815,1.815,0,1,0,.744,3.552c8.316-1.741,12.988,2.3,13.213,2.492a1.814,1.814,0,1,0,2.443-2.681C173.148,130.365,167.239,125.085,157,127.228ZM181.247,35.29c-.456,0-.915,0-1.35.028a27.45,27.45,0,0,0-9.682,52.594l.15.187.093-.078a27.4,27.4,0,0,0,10.64,2.187h.075a27.232,27.232,0,0,0,19.667-8.291,27.649,27.649,0,0,0,2.806-3.368,27.312,27.312,0,0,0,4.987-15.711h0A27.463,27.463,0,0,0,181.247,35.29Zm-20.833,39.2a23.836,23.836,0,0,1-3.086-11.809,24.425,24.425,0,0,1,.181-2.85c1.07,2.394,1.814,4.526,1.684,5.412l-.067.518.259.453a13.643,13.643,0,0,0,7.3,5.648A16.827,16.827,0,0,1,166,76.445l-.189.7.409.6a15.527,15.527,0,0,0,4.055,4.005,2.293,2.293,0,0,1-.212,2.091,23.892,23.892,0,0,1-9.648-9.348Zm40.264,1.961A23.791,23.791,0,0,1,172.907,85.1a5.175,5.175,0,0,0-.259-5.441l-.212-.277-.308-.158a10.764,10.764,0,0,1-2.922-2.692c1.109-4.438.718-6.959-1.163-7.5a10.881,10.881,0,0,1-5.736-4.018c-.07-2.728-2.3-7.363-3.684-10,.085-.259.174-.5.259-.751a23.7,23.7,0,0,1,5.288-8.218,24,24,0,0,1,8.941-5.723,23.719,23.719,0,0,1,6.941-1.365c.358-.018.725-.026,1.1-.026h.07a23.619,23.619,0,0,1,3.513.272,14.548,14.548,0,0,0-1.083,3.272c-.174.174-.5.44-.728.632-1.086.9-2.438,2.013-2.4,3.627a2.973,2.973,0,0,0,1.376,2.358,34.732,34.732,0,0,0,9.14,4.34,14.686,14.686,0,0,1,3.728,1.64A8.844,8.844,0,0,0,196,57.587a13.36,13.36,0,0,1,.845,1.513c-.039.111-.1.259-.143.373-.4,1.036-1.482,3.767,1.187,5.148,1.378.692,3.562,1.762,4.6,2.2a30.624,30.624,0,0,1,1.456,2.909A23.742,23.742,0,0,1,200.678,76.448Zm4.236-11.609a1.8,1.8,0,0,0-1-.806c-.391-.135-2.591-1.171-4.573-2.192a.5.5,0,0,1-.075-.047,4.329,4.329,0,0,1,.355-1.2,6.356,6.356,0,0,0,.35-1.07c.215-1.114-.484-2.257-1.3-3.578a10.637,10.637,0,0,1-.839-1.529c-.337-2.073-2.969-2.985-5.759-3.946a32.327,32.327,0,0,1-8.306-3.9h0a10.012,10.012,0,0,1,1.163-1.07c.94-.777,1.827-1.508,1.827-2.617a15.585,15.585,0,0,1,1.1-3,23.817,23.817,0,0,1,17.159,22.942q-.026,1.01-.117,2.016Z" transform="translate(-72.661 -20.486)" fill="#28236d"/>
    <path id="Path_939" data-name="Path 939" d="M225.874,104a7.975,7.975,0,0,0-4.8,1.6,8,8,0,0,0-12.8,6.4v1.21a8.443,8.443,0,0,0,3.238,6.674l7.156,5.64a3.868,3.868,0,0,0,4.806,0l7.158-5.64a8.449,8.449,0,0,0,3.236-6.674V112a8.011,8.011,0,0,0-8-8Zm4.373,9.21a4.84,4.84,0,0,1-1.855,3.824l-7.158,5.643a.259.259,0,0,1-.313,0l-7.158-5.643a4.84,4.84,0,0,1-1.855-3.824V112a4.373,4.373,0,0,1,7.772-2.762,1.814,1.814,0,0,0,2.811,0A4.373,4.373,0,0,1,230.263,112Z" transform="translate(-113.094 -71.393)" fill="#28236d"/>
  </g>
</svg>
