<svg xmlns="http://www.w3.org/2000/svg" width="97.636" height="112.204" viewBox="0 0 97.636 112.204">
  <g id="fast" transform="translate(-1251.982 47.93)">
    <path id="Path_979" data-name="Path 979" d="M1312.3,70.33a22.055,22.055,0,1,1,21.986-22.149A22.024,22.024,0,0,1,1312.3,70.33Zm-12.036-23.6c.255-2,.427-3.93.759-5.832.631-3.611.67-3.6-2.411-5.6a2.052,2.052,0,0,0-.458-.131,18.634,18.634,0,0,0-5.031,11.569Zm24.059,2.988-1.371,9.534,3.22,2.163a17.513,17.513,0,0,0,5.135-11.7Zm7.09-3a18.965,18.965,0,0,0-5.145-11.646c-1.04.679-1.974,1.237-2.843,1.885a1.343,1.343,0,0,0-.555.985c.459,2.92.992,5.827,1.511,8.777Zm-33,14.7c.822-.611,1.58-1.116,2.264-1.708.368-.319.91-.831.859-1.179-.432-2.922-.984-5.827-1.507-8.783h-6.781A17.415,17.415,0,0,0,1298.407,61.423Zm12.293-5.051V49.81h-7.654c.43,2.782.83,5.372,1.24,8.021Zm-.01-9.624V40.074l-6.446-1.374c-.4,2.661-.8,5.263-1.219,8.048Zm3.036,9.654,6.545,1.274c.387-2.706.755-5.284,1.129-7.9h-7.674Zm.044-9.693h7.706c-.437-2.785-.848-5.41-1.256-8.015l-6.449,1.4Zm-3.037-17.472c-2.837,1.6-4.22,3.911-5.411,6.774l5.411,1.227Zm-.011,38V59.38l-5.454,1.141C1306.567,63.354,1307.865,65.757,1310.722,67.24Zm8.488-31.225c-1.292-2.874-2.555-5.251-5.392-6.666v7.877ZM1313.8,59.364v7.7c2.391-1.035,3.463-2.36,5.291-6.555Zm-9.015-28.543-.263-.282-4.2,2.489,2.4,1.625Zm15.18-.273-.254.291,2.111,3.832,2.356-1.664Zm-.265,35.1.294.338,4.242-2.53-2.429-1.395ZM1302.7,62.022l-2.437,1.448,4.323,2.518.223-.322Z" transform="translate(-24.254 -47.025)" fill="#060056"/>
    <path id="Path_980" data-name="Path 980" d="M1313-35.361c1.09,0,1.986-.016,2.88,0,4.647.1,8.036,3.308,8.089,7.916.088,7.678.028,15.358.033,23.038,0,1.052-.143,2.085-1.49,2.021-1.226-.059-1.285-1.058-1.284-2.03q.012-10.971,0-21.941c-.006-4.244-1.926-6.165-6.111-6.165q-27.061,0-54.122,0c-4.337,0-6.23,1.886-6.222,6.231.019,10.481.078,20.962.075,31.443q-.009,25.045-.075,50.09c-.006,4.3,1.94,6.227,6.269,6.229q15.724.007,31.449,0a3.879,3.879,0,0,1,1.621.091c.468.235,1.038.816,1.048,1.257a1.841,1.841,0,0,1-1,1.29,4.436,4.436,0,0,1-1.8.132q-15.633.008-31.266,0c-6.044-.007-9.11-3.075-9.114-9.115q-.012-18.741,0-37.483,0-21.835,0-43.668c0-6.234,2.818-9.732,8.854-11.175q21.675-5.183,43.341-10.406c5.471-1.313,8.785,1.3,8.818,6.946C1313.01-38.957,1313-37.264,1313-35.361Zm-46.384-.3.043.185h43.577c0-1.686,0-3.257,0-4.828-.012-4.207-1.636-5.492-5.727-4.51q-12.161,2.917-24.317,5.851Q1273.4-37.329,1266.617-35.665Z" fill="#060056"/>
    <path id="Path_981" data-name="Path 981" d="M1403.113,132.192c4.288,0,8.318.233,12.31-.052,6.749-.482,12.723,6.219,8.208,14.2-.346.612-1.118.983-1.961,1.692,0,.347.009,1.072,0,1.8-.042,2.986-1.127,4.1-4.095,4.105q-11.887.022-23.774.007-7.224,0-14.447,0c-3.66,0-4.548-.888-4.559-4.51,0-.546,0-1.093,0-1.6-2.826-1.346-4.359-5.819-3.274-9.363a8.633,8.633,0,0,1,8.312-6.251c4.379-.067,8.76-.015,13.456-.015-.194-2.126-.305-4.1-.567-6.057a52.021,52.021,0,0,0-4.782-16.035,11.5,11.5,0,0,1,4.3-14.994,11.638,11.638,0,0,1,17.079,6.958,11.807,11.807,0,0,1-.8,8,61.9,61.9,0,0,0-5.237,19.5C1403.221,130.358,1403.182,131.141,1403.113,132.192Zm-5.037,12.43h20.644c2.857,0,4-1.311,3.691-4.227a5.828,5.828,0,0,0-5.744-5.34q-18.451-.08-36.9,0a5.885,5.885,0,0,0-5.51,7.812,2.166,2.166,0,0,0,2.447,1.792C1383.826,144.577,1390.951,144.622,1398.076,144.622Zm2.041-12.426c.442-3.184.557-6.329,1.362-9.285,1.339-4.916,3.031-9.744,4.745-14.548a8.668,8.668,0,0,0-13.5-10.054,8.625,8.625,0,0,0-2.275,10.574,52.713,52.713,0,0,1,4.829,15.442c.4,2.566.609,5.159.92,7.871h3.915Zm-22.344,15.375c-.553,3.6-.553,3.606,2.843,3.607q17.552,0,35.1,0c3.289,0,3.291,0,3.058-3.264-.007-.1-.117-.2-.205-.343Z" transform="translate(-75.586 -89.698)" fill="#060056"/>
    <path id="Path_982" data-name="Path 982" d="M1312.633,168.113q9.593,0,19.186,0a3.539,3.539,0,0,1,1.612.12,2.021,2.021,0,0,1,.937,1.339c.036.377-.462.97-.87,1.18a3.68,3.68,0,0,1-1.609.175q-19.46.009-38.92,0a3.037,3.037,0,0,1-1.431-.127c-.454-.269-1.07-.871-1.018-1.245a2.366,2.366,0,0,1,1.126-1.369c.359-.22.949-.072,1.436-.072Q1302.857,168.113,1312.633,168.113Z" transform="translate(-24.438 -136.983)" fill="#060056"/>
    <path id="Path_983" data-name="Path 983" d="M1305.327,192.554q-6.386,0-12.772,0c-1,0-2.127.037-2.185-1.311-.063-1.49,1.128-1.494,2.2-1.495,8.575,0,17.151-.023,25.725.035a2.739,2.739,0,0,1,1.976.888c.649.914-.275,1.863-1.8,1.871C1314.085,192.568,1309.706,192.553,1305.327,192.554Z" transform="translate(-24.344 -150.73)" fill="#060056"/>
    <path id="Path_984" data-name="Path 984" d="M1302.2,214.179q-4.744,0-9.489,0c-1.041,0-2.274.1-2.312-1.374s1.146-1.462,2.222-1.462q9.671,0,19.342,0c1.08,0,2.267,0,2.227,1.461s-1.269,1.378-2.319,1.378Q1307.036,214.183,1302.2,214.179Z" transform="translate(-24.363 -164.425)" fill="#060056"/>
  </g>
</svg>
