<svg xmlns="http://www.w3.org/2000/svg" width="419.758" height="342.273" viewBox="0 0 419.758 342.273">
  <g id="Group_589" data-name="Group 589" transform="translate(-1410.686 63.119)">
    <g id="Group_555" data-name="Group 555" transform="translate(1448.362 -63.119)">
      <path id="Path_7470" data-name="Path 7470" d="M1920.871-60.28a26.849,26.849,0,0,0,1.1-2.839,8.222,8.222,0,0,0,7.057,6.917,8.229,8.229,0,0,0-7.107,6.9,8.5,8.5,0,0,0-7.285-6.972A8.163,8.163,0,0,0,1920.871-60.28Z" transform="translate(-1739.107 63.119)" fill="#febd55"/>
      <g id="Group_552" data-name="Group 552" transform="translate(182.848 12.835)">
        <path id="Path_7471" data-name="Path 7471" d="M1943.481-22.166a38.037,38.037,0,0,1,37.179-9.007A37.831,37.831,0,0,1,2007.1-2.041c1,3.478.694,7.133.647,10.7a41.137,41.137,0,0,1-3.782,13.306,38.488,38.488,0,0,1-12.489,14.473c-1.658,1.244-3.6,2.039-5.242,3.308.034,4.895.059,9.79-.017,14.685-.486.317-.905.842-1.527.842-4.413.135-8.834-.076-13.242.093-.186-7.014-.085-14.037.013-21.052.351-6.558.3-13.145,1.189-19.664,1.163-.017,2.547.178,3.38-.85,1.176-.876.973-2.424.8-3.693-.846-.432-1.714-1.248-2.724-.825a4.366,4.366,0,0,0-2.7,2.915,11.839,11.839,0,0,0-3.046,0c-.6-1.045-1.138-2.285-2.352-2.729-1.807-1.168-4.4,1.286-3.177,3.118.651,1.79,2.631,2.285,4.345,2.065.258,2.45.377,4.912.419,7.374.884,11.084.9,22.22.74,33.334-4.4-.148-8.8.025-13.2-.076a2.02,2.02,0,0,1-1.878-1.925c-.1-4.611.08-9.236-.072-13.843a21.727,21.727,0,0,0-2.813-1.688,38.129,38.129,0,0,1-17.672-24.661c-.931-3.588-.77-7.328-.7-11a27.837,27.837,0,0,1,.575-4.5A38.564,38.564,0,0,1,1943.481-22.166Zm14.96-4.006C1947-21.193,1938-10.337,1936.276,2.156c-.114,2.61-.584,5.246,0,7.839.41,0,.829,0,1.248.008.245-2.458-.106-4.95.389-7.387,1.65-12.485,10.932-23.286,22.55-27.775.009-.461.013-.918.025-1.379A4.683,4.683,0,0,0,1958.44-26.173Z" transform="translate(-1931.932 32.782)" fill="#febd55"/>
      </g>
      <path id="Path_7472" data-name="Path 7472" d="M2018.089,77.526a3.139,3.139,0,0,1,1.489-1.515c.512.427,1.46.719,1.2,1.574-.241,4.1-.618,8.2-.609,12.316-.508,3.076-.106,6.215-.656,9.291-.1,6.215-.025,12.438-.072,18.657-.266-6.067.008-12.167-.131-18.247.351-4.108-.364-8.165-.4-12.261-.072-2.111-.368-4.21-.406-6.321A9.531,9.531,0,0,0,2018.089,77.526Z" transform="translate(-1798.791 -17.149)" fill="#febd55"/>
      <path id="Path_7473" data-name="Path 7473" d="M1855.669,106.275a10.5,10.5,0,0,0,9.807-9.324c.778,4.865,4.929,9.223,10.018,9.346-5.077.495-9.625,4.853-9.968,9.98a11.213,11.213,0,0,0-2.259-5.783A11.9,11.9,0,0,0,1855.669,106.275Z" transform="translate(-1705.086 -29.23)" fill="#febd55"/>
      <g id="Group_553" data-name="Group 553" transform="translate(204.072 103.51)">
        <path id="Path_7474" data-name="Path 7474" d="M1982.214,184.238a3.485,3.485,0,0,1,3.537-2.686q13.086-.013,26.184,0c1.472-.008,3.232,1.015,3.228,2.644,0,1.709.313,3.533-.423,5.14.817,1.993.355,4.193.381,6.278a34.321,34.321,0,0,1-.025,5.233c-.427,1.468-2.128,2.128-3.533,2.069-8.609-.021-17.219,0-25.824-.013a3.38,3.38,0,0,1-3.575-3.456c.038-1.282-.233-2.67.448-3.833a9.519,9.519,0,0,1,.076-6.308A11.1,11.1,0,0,1,1982.214,184.238Zm3.5,5.094a1.282,1.282,0,0,0,1.295.787c7.742.025,15.489-.021,23.235.021a3.944,3.944,0,0,0,1.938-.4c-.7-.791-1.832-.478-2.754-.558C2001.527,189.315,1993.607,189,1985.717,189.332Z" transform="translate(-1982.1 -181.545)" fill="#febd55"/>
      </g>
      <path id="Path_7475" data-name="Path 7475" d="M2094.689,205.585a8.514,8.514,0,0,0,6.934-6.574,11.068,11.068,0,0,0,2.818,4.578,10.381,10.381,0,0,0,4.18,2.027,8.669,8.669,0,0,0-7.065,6.79A7.9,7.9,0,0,0,2094.689,205.585Z" transform="translate(-1842.984 -88.112)" fill="#febd55"/>
      <path id="Path_7476" data-name="Path 7476" d="M1602.228,209.03a97.277,97.277,0,0,1,10.34.876c5.043.11,10.022.994,15.061,1.138-.228,4.8-.745,9.583-1.3,14.355-.182,4.552-.778,9.062-1.189,13.593-.055,4.108-.952,8.148-.977,12.256-.491,4.045-.732,8.114-1.252,12.159-8.61-.047-17.223.051-25.828.008a91.643,91.643,0,0,1,.842-9.684c.245-4.709.791-9.388,1.244-14.08.021-3.507.74-6.959.893-10.462.309-3.647.575-7.3.99-10.945.5-2.475.144-5.03.635-7.505C1601.847,210.164,1602.042,209.6,1602.228,209.03Z" transform="translate(-1555.897 -93.892)" fill="#febd55"/>
      <path id="Path_7477" data-name="Path 7477" d="M1514.094,272.508c3.55-.351,7.036-1.252,10.606-1.447a4.816,4.816,0,0,1,.8.757c.588,5.517,1.62,10.966,2.352,16.466.622,3.1.846,6.257,1.519,9.35q.057.755.1,1.523c-3.139.393-6.3-.224-9.447.157-5.563-.224-11.135-.068-16.7-.123-1.121-6.718-2.022-13.471-3.033-20.2a21.093,21.093,0,0,1-.546-4.3C1504.532,274.044,1509.3,273.206,1514.094,272.508Z" transform="translate(-1499.739 -129.68)" fill="#febd55"/>
      <g id="Group_554" data-name="Group 554" transform="translate(133.762 170.29)">
        <path id="Path_7478" data-name="Path 7478" d="M1815.914,342.513a3.62,3.62,0,0,1,2.521-3.122,11.666,11.666,0,0,0,2.424.338c9.73-.051,19.465.017,29.2-.034a25.858,25.858,0,0,1,5.517,0c7.476.025,14.947-.025,22.423-.008a56.52,56.52,0,0,0,6.558-.161,3.373,3.373,0,0,1,2.229,3c.085,7.277-.406,14.549-.465,21.826-.068,3.588-.1,7.175-.152,10.763a46.641,46.641,0,0,1-.444,8.593,10.025,10.025,0,0,1-1.595,1.658c-3.325.216-6.634-.313-9.955-.2-17.342.021-34.683-.038-52.021-.013a19.092,19.092,0,0,0-2.31.254,4.027,4.027,0,0,1-2.056-1.908,83.829,83.829,0,0,1-.508-8.5c-.33-.169-.66-.343-.982-.52l.681.22c-.11-3.418.051-6.858-.3-10.264-.186-3.207-.093-6.426-.224-9.633C1816.434,350.7,1815.859,346.617,1815.914,342.513Zm33.934,13.872a6.3,6.3,0,0,0-4.438,5.183,6.236,6.236,0,0,0,4.666,6.972,6.741,6.741,0,0,0,4.9-.817,6.99,6.99,0,0,0,2.78-3.816,6.409,6.409,0,0,0-2.809-6.756C1853.508,356.026,1851.549,356.174,1849.848,356.386Z" transform="translate(-1815.91 -339.391)" fill="#febd55"/>
      </g>
      <path id="Path_7479" data-name="Path 7479" d="M2182.509,364.318a23.712,23.712,0,0,1,6.811.148,58.106,58.106,0,0,1,18.112,4.18c7.657,3.355,14.452,9.836,16.318,18.209.161,1.544.182,3.1.41,4.637-.465,3.63-.469,7.569,1.269,10.886,2.492,4.053,7.729,4.992,10.577,8.7a8.084,8.084,0,0,1,1.109,6.676c-1.02,4.083-3.558,7.628-4.341,11.787-.956,4.324.241,8.7.673,13.018-5.415,0-10.83,0-16.246,0a19.969,19.969,0,0,1,.085-8.567c.322-2.31,1.586-4.641.838-6.985-1.223-3.647-6.075-3.888-7.556-7.349-1.2-3.516.829-7.6-1.244-10.907-1.531-2.543-4.425-3.757-7.146-4.582-3.7-.833-7.717-1.231-10.805-3.638-2.927-2.3-4.2-6.041-4.755-9.6-.343-5.03.072-10.073-.089-15.108a23.407,23.407,0,0,0-1.633-7.408C2184.32,366.929,2183.1,365.807,2182.509,364.318Z" transform="translate(-1893.65 -183.38)" fill="#febd55"/>
      <path id="Path_7480" data-name="Path 7480" d="M2127.806,588.476a6.87,6.87,0,0,0,2.246-2.246c1.163-.013,2.331-.025,3.5-.025,3.643,0,7.285,0,10.932-.008a6.807,6.807,0,0,1,6.363,3.676,13.235,13.235,0,0,1,.245,4.028c-4.485.008-8.973-.013-13.458.013q-38.793.038-77.587-.013l.076.533c-.808-1.6-1.57-3.224-2.348-4.836a24.614,24.614,0,0,1,5.906-.317q29.173-.006,58.35,0a30.751,30.751,0,0,0,4.751-.165C2127.04,588.954,2127.552,588.637,2127.806,588.476Z" transform="translate(-1821.689 -311.488)" fill="#febd55"/>
      <path id="Path_7481" data-name="Path 7481" d="M1616.579,587.91a61.648,61.648,0,0,1,7.641-.6c6.481.055,12.967-.03,19.448.017,1.4-.038,2.479.977,3.727,1.447a13.679,13.679,0,0,0,5.145,1.43c2.416.013,4.836-.03,7.251.013a31.338,31.338,0,0,0-.127,4.324q-19.755.089-39.519,0c-.55,2.132-.22,4.341-.3,6.515.059,3.072-.152,6.156.144,9.219.25,6.511.017,13.039.11,19.554a49.638,49.638,0,0,0,6.249.156q115.917,0,231.842,0c6.13.042,12.265-.106,18.391.076,1.95.761,4.083.33,6.122.415a69.98,69.98,0,0,1,7.175.14c.656,1.527,0,3.325.267,4.963a11.777,11.777,0,0,1-3.012,2.813c-.427.017-.846.047-1.261.093-3.879-.284-7.776-.063-11.66-.131H1676.7c-9.879-.08-19.766.2-29.64-.207q-11.632-.006-23.265,0c-2.775-.042-5.677.309-8.284-.884-5.212-1.637-8.783-6.778-9.236-12.108q.013-12.261,0-24.525a17.347,17.347,0,0,1,1.3-5.348C1609.222,591.573,1612.805,589.115,1616.579,587.91Z" transform="translate(-1561.199 -312.123)" fill="#febd55"/>
      <path id="Path_7482" data-name="Path 7482" d="M1733.259,597.925c2.263-2.01,5.085-3.224,7.683-4.734,2.522,1.531,5.305,2.716,7.5,4.734Q1740.853,598.039,1733.259,597.925Z" transform="translate(-1634.464 -315.526)" fill="#febd55"/>
      <path id="Path_7483" data-name="Path 7483" d="M1987.3,593.21c7.218-.1,14.439.072,21.657-.089,1.062,1.553,2,3.173,2.978,4.781-7.674.034-15.349.063-23.023-.013Q1988.086,595.554,1987.3,593.21Z" transform="translate(-1781.027 -315.486)" fill="#febd55"/>
      <path id="Path_7484" data-name="Path 7484" d="M1851.732,593.821c.567,1.092,1.087,2.2,1.582,3.334l.017,1.168c-27.83,0-55.655.051-83.48-.021a28.319,28.319,0,0,0-.123-4.32c27.233-.008,54.474-.085,81.707.034.212.512.436,1.041.664,1.557C1851.99,594.98,1851.872,594.4,1851.732,593.821Z" transform="translate(-1655.505 -315.89)" fill="#febd55"/>
    </g>
    <g id="Group_556" data-name="Group 556" transform="translate(1635.266 -44.039)">
      <path id="Path_7485" data-name="Path 7485" d="M1963.973-17.655a4.683,4.683,0,0,1,2.048-.364c-.013.461-.017.918-.025,1.379-11.618,4.489-20.9,15.29-22.55,27.775-.495,2.437-.144,4.929-.389,7.387-.419,0-.838-.008-1.248-.008-.584-2.593-.114-5.229,0-7.839C1943.53-1.82,1952.529-12.676,1963.973-17.655Z" transform="translate(-1941.521 18.019)" fill="#fffef6"/>
    </g>
    <g id="Group_557" data-name="Group 557" transform="translate(1718.695 -24.996)">
      <path id="Path_7486" data-name="Path 7486" d="M2142.81,26.991a5.163,5.163,0,0,0,4.315,4.049,5.192,5.192,0,0,0-4.277,3.528c-.973-1.54-2.128-3.279-4.129-3.435A6.173,6.173,0,0,0,2142.81,26.991Z" transform="translate(-2138.719 -26.991)" fill="#fdbd57"/>
    </g>
    <g id="Group_559" data-name="Group 559" transform="translate(1478.692 -22.1)">
      <g id="Group_558" data-name="Group 558" transform="translate(32.53)">
        <path id="Path_7487" data-name="Path 7487" d="M1752.969,34.172c3.2-.567,6.46-.224,9.693-.317a42.184,42.184,0,0,1,5.665.173c.207.69.431,1.375.613,2.077a27.837,27.837,0,0,0-.575,4.5c-.072,3.672-.233,7.412.7,11a38.129,38.129,0,0,0,17.672,24.661,21.727,21.727,0,0,1,2.813,1.688c.152,4.607-.025,9.231.072,13.843a2.02,2.02,0,0,0,1.878,1.925c4.4.1,8.8-.072,13.2.076a21.908,21.908,0,0,0,3.118,0c4.408-.169,8.829.042,13.242-.093.622,0,1.041-.525,1.527-.842.076-4.895.051-9.79.017-14.685,1.641-1.269,3.583-2.065,5.242-3.308A38.488,38.488,0,0,0,1840.337,60.4c.639-.178,1.358-1.015,2.022-.47,3.38,2.538,6.807,5.026,9.951,7.856,4.015,3.279,7.471,7.179,11.2,10.771a140.2,140.2,0,0,1,30.4,52.105,134.541,134.541,0,0,1,5.326,23.32c.313,3.82,1.159,7.6.977,11.457a66.825,66.825,0,0,1,.351,10.966c.152.888-.766,1.231-1.324,1.675a58.107,58.107,0,0,0-18.112-4.18,23.713,23.713,0,0,0-6.811-.148c.588,1.489,1.811,2.61,2.386,4.1a23.407,23.407,0,0,1,1.633,7.408c.161,5.035-.254,10.078.089,15.108.554,3.554,1.828,7.294,4.755,9.6,3.088,2.407,7.108,2.8,10.805,3.638.148,3.545-1.878,6.646-2.911,9.917a3.763,3.763,0,0,0,.228,2.28,17.455,17.455,0,0,0-5.508-.432q-43.147,0-86.3,0c-1.278-2.056-1.637-4.886-3.947-6.118-4.425-3.093-8.812-6.24-13.212-9.367a25.458,25.458,0,0,1,4.54-.343l.563-.474a10.025,10.025,0,0,0,1.595-1.658,46.642,46.642,0,0,0,.444-8.593c.051-3.588.085-7.175.152-10.763.423-.389.867-.766,1.282-1.176a13.545,13.545,0,0,0,3.85-7.611,17.987,17.987,0,0,0-3.715-13.487,21.784,21.784,0,0,0-3.291-3.516,39.876,39.876,0,0,0-10.793-6.5c-3.071-1.4-6.308-2.771-8.673-5.267a9.786,9.786,0,0,1-2.847-7.911c.339-3.2,3.968-4.844,4.205-8.085a9.67,9.67,0,0,0-2.234-7.23,11.13,11.13,0,0,1-2.242-9.7c.55-2.784,2.724-4.819,3.681-7.438a13.146,13.146,0,0,0,0-11.351,19.09,19.09,0,0,0-14.241-10.534,21.658,21.658,0,0,0-11.207,1.231,20.477,20.477,0,0,0-12.485,18.42c-.228,4.6.423,9.879-2.741,13.686-3.49,4.108-9.071,5.051-13.889,6.786-3.82,1.307-7.759,3.74-9.071,7.776-.994,2.526.089,5.17.838,7.6a9.059,9.059,0,0,1-.584,7.467c-2.906,5.593-9.358,8.013-12.625,13.318a14.387,14.387,0,0,0-1.045,11.943c1.625,5.525,6.084,9.748,11.089,12.337a52,52,0,0,0,9.633,3.647,47.854,47.854,0,0,0,7.086,5.716c.322.178.652.351.982.52a83.829,83.829,0,0,0,.508,8.5,4.027,4.027,0,0,0,2.056,1.908l.2.114c.47,5.961,2.382,12.413,7.5,16.03-7.281.241-14.579.038-21.864.106-9.989-.008-19.977.017-29.962-.013.258-4.045.63-8.085.618-12.142.816-12.417,1.269-24.851,2.035-37.268.008-4.5.495-8.969.618-13.454-9.938-.262-19.888.063-29.826-.157.52-4.045.761-8.114,1.252-12.159.025-4.108.922-8.148.977-12.256.41-4.531,1.007-9.041,1.189-13.593.558-4.772,1.075-9.557,1.3-14.355-2.086-4.8-4.451-9.489-6.591-14.274-.207-.453-.419-.9-.626-1.341-.537-1.2-1.113-2.378-1.654-3.571a60.5,60.5,0,0,0,5.8-6.917c1.912-1.891,3.435-4.129,5.441-5.944,2.323-3.3,5.783-5.487,8.474-8.444,2.9-2.636,6.02-5,9.054-7.484,2.5-1.54,4.65-3.562,7.171-5.073,3.262-1.942,6.405-4.087,9.747-5.889a176.194,176.194,0,0,1,16.187-7.552A136.5,136.5,0,0,1,1752.969,34.172Zm-16.927,35.69a11.9,11.9,0,0,1,7.6,4.218,11.213,11.213,0,0,1,2.259,5.783c.343-5.128,4.891-9.485,9.968-9.98-5.09-.123-9.24-4.48-10.018-9.346A10.5,10.5,0,0,1,1736.042,69.862Zm53.6,29.158a11.1,11.1,0,0,0,.474,5.068,9.519,9.519,0,0,0-.076,6.308c-.681,1.163-.41,2.551-.448,3.833a3.38,3.38,0,0,0,3.575,3.456c8.605.017,17.215-.008,25.824.013,1.4.059,3.105-.6,3.533-2.069a34.29,34.29,0,0,0,.025-5.233c-.025-2.086.436-4.286-.381-6.278.736-1.608.423-3.431.423-5.14,0-1.629-1.756-2.653-3.228-2.644q-13.092-.013-26.184,0A3.485,3.485,0,0,0,1789.645,99.02Zm47.519,11.271a7.9,7.9,0,0,1,6.866,6.82,8.67,8.67,0,0,1,7.065-6.79,10.38,10.38,0,0,1-4.18-2.027,11.067,11.067,0,0,1-2.818-4.578A8.514,8.514,0,0,1,1837.164,110.291Z" transform="translate(-1648.319 -33.836)" fill="#f2f9ff"/>
      </g>
      <path id="Path_7488" data-name="Path 7488" d="M1584.506,257.849a2.4,2.4,0,0,1,.753-1.168c-.152,3.5-.872,6.955-.893,10.462-.453,4.692-1,9.371-1.244,14.08a91.642,91.642,0,0,0-.842,9.684c-2.014.063-4.032.11-6.046.173a45.52,45.52,0,0,1-4.806-.093c1.976-.876,4.239-.14,6.333-.44C1578.943,279.472,1580.8,268.392,1584.506,257.849Z" transform="translate(-1571.429 -162.402)" fill="#f2f9ff"/>
    </g>
    <g id="Group_561" data-name="Group 561" transform="translate(1661.784 -8.335)">
      <g id="Group_560" data-name="Group 560">
        <path id="Path_7489" data-name="Path 7489" d="M2004.518,69.8c-1.223-1.832,1.371-4.286,3.177-3.118,1.214.444,1.756,1.684,2.352,2.729a11.84,11.84,0,0,1,3.046,0,4.366,4.366,0,0,1,2.7-2.915c1.011-.423,1.878.393,2.725.825.173,1.269.376,2.818-.8,3.693-.833,1.028-2.217.833-3.38.85-.893,6.519-.838,13.107-1.189,19.664-.1,7.014-.2,14.037-.013,21.052a21.91,21.91,0,0,1-3.118,0c.161-11.114.144-22.249-.74-33.334-.042-2.462-.161-4.925-.419-7.374C2007.149,72.083,2005.169,71.588,2004.518,69.8Zm1.261-1.845a2.018,2.018,0,0,0,2.843,2.395C2008.6,68.834,2007.391,67.429,2005.779,67.954Zm8.44,2.1a1.982,1.982,0,0,0,3.16-2.065C2015.793,67.391,2014.7,68.715,2014.219,70.056Zm-4.142,1.908a9.531,9.531,0,0,1,.415,3.495c.038,2.111.334,4.21.406,6.321.038,4.1.753,8.153.4,12.261.14,6.08-.135,12.18.131,18.247.047-6.219-.03-12.442.072-18.657.55-3.076.148-6.215.656-9.291-.008-4.116.368-8.212.609-12.316.258-.855-.69-1.147-1.2-1.574A3.139,3.139,0,0,0,2010.077,71.964Z" transform="translate(-2004.202 -66.372)" fill="#fffeec"/>
      </g>
    </g>
    <g id="Group_562" data-name="Group 562" transform="translate(1663.266 -6.866)">
      <path id="Path_7490" data-name="Path 7490" d="M2007.8,69.958c1.612-.525,2.818.88,2.843,2.395A2.018,2.018,0,0,1,2007.8,69.958Z" transform="translate(-2007.703 -69.846)" fill="#fdbd59"/>
    </g>
    <g id="Group_563" data-name="Group 563" transform="translate(1671.802 -6.864)">
      <path id="Path_7491" data-name="Path 7491" d="M2027.879,72.063c.482-1.341,1.574-2.665,3.16-2.065A1.982,1.982,0,0,1,2027.879,72.063Z" transform="translate(-2027.879 -69.849)" fill="#fcbd5c"/>
    </g>
    <g id="Group_564" data-name="Group 564" transform="translate(1454.306 30.912)">
      <path id="Path_7492" data-name="Path 7492" d="M1636.571,159.171c.089-.008.275-.025.364-.03.69,1.273,1.223,2.627,1.853,3.935.542,1.193,1.117,2.373,1.654,3.571l.245.677c-2.966-.245-5.919-.647-8.889-.838l.076-.7C1633.483,163.609,1634.98,161.354,1636.571,159.171Z" transform="translate(-1581.873 -159.141)" fill="#0e538c"/>
      <path id="Path_7493" data-name="Path 7493" d="M1801.576,163.4a21.658,21.658,0,0,1,11.207-1.231,19.091,19.091,0,0,1,14.241,10.534,13.146,13.146,0,0,1,0,11.351c-.956,2.619-3.131,4.654-3.681,7.438a11.13,11.13,0,0,0,2.242,9.7,9.67,9.67,0,0,1,2.234,7.23c-.237,3.241-3.867,4.882-4.205,8.085a9.785,9.785,0,0,0,2.847,7.911c2.365,2.5,5.6,3.867,8.673,5.267a39.879,39.879,0,0,1,10.793,6.5c-4.544.14-9.092.017-13.636.063-2.183.055-4.4-.224-6.536.326l0,0a25.918,25.918,0,0,0-1.278-5.889A107,107,0,0,0,1808.4,198.87c-.3-.41-.609-.817-.935-1.206.186-1.477.41-2.949.643-4.421a9.358,9.358,0,0,0,6.964-1.6c4.057-3.105,5.449-8.538,5.513-13.428a27.424,27.424,0,0,1-4.332-8.318,15.082,15.082,0,0,1-8.131,8.724,17.068,17.068,0,0,1-7.057,1.218c0,2.373.766,4.633,1.066,6.955-.385,2.479-1.32,4.84-1.625,7.34-.233.212-.457.432-.677.652a134.483,134.483,0,0,0-13.813,5.834c-3.147,1.6-6.524,2.915-9.269,5.183a40.16,40.16,0,0,0-5.733,7.738,89.535,89.535,0,0,0-9.346,20.709c-1.574,5.618-2.661,11.7-.939,17.418a37.8,37.8,0,0,0,9.967,14.719,52,52,0,0,1-9.633-3.647c-5.005-2.589-9.464-6.811-11.089-12.337a14.387,14.387,0,0,1,1.045-11.943c3.266-5.305,9.718-7.725,12.624-13.318a9.06,9.06,0,0,0,.584-7.467c-.749-2.433-1.832-5.077-.838-7.6,1.312-4.036,5.25-6.469,9.071-7.776,4.819-1.735,10.4-2.678,13.889-6.786,3.165-3.808,2.513-9.083,2.741-13.686A20.477,20.477,0,0,1,1801.576,163.4Z" transform="translate(-1649.576 -160.76)" fill="#0e538c"/>
      <path id="Path_7494" data-name="Path 7494" d="M1517.127,222.821c2.048,2.365,3.952,4.861,5.893,7.319-3.093.347-6.13,1.045-9.231,1.341.076-.25.233-.753.309-1.007C1515.156,227.944,1516.1,225.368,1517.127,222.821Z" transform="translate(-1513.789 -195.88)" fill="#0e538c"/>
      <path id="Path_7495" data-name="Path 7495" d="M1808.328,314.691c.609,3.346.664,6.778,1.3,10.111l-.508.338a3.62,3.62,0,0,0-2.521,3.122c-.055,4.1.521,8.182.546,12.282.131,3.207.038,6.426.224,9.633a30.584,30.584,0,0,1-5.745-7.26,11.585,11.585,0,0,1-1.57-8.791C1801.766,327.256,1805.087,320.94,1808.328,314.691Z" transform="translate(-1678.775 -248.883)" fill="#0e538c"/>
      <path id="Path_7496" data-name="Path 7496" d="M1898.149,333.8a30.363,30.363,0,0,0,2.851-3.482,17.678,17.678,0,0,0,1.21,3.461A14.838,14.838,0,0,1,1898.149,333.8Z" transform="translate(-1735.538 -257.9)" fill="#0e538c"/>
      <path id="Path_7497" data-name="Path 7497" d="M1984.26,348.319a6.84,6.84,0,0,1,.516-2.6,17.987,17.987,0,0,1,3.715,13.487,13.545,13.545,0,0,1-3.85,7.611c-.762-1.252-.478-2.746-.5-4.129C1984.193,357.9,1984.184,353.108,1984.26,348.319Z" transform="translate(-1785.13 -266.785)" fill="#0e538c"/>
      <path id="Path_7498" data-name="Path 7498" d="M1825.679,448.411l.114.063a2.423,2.423,0,0,0,1.591.652c9.972.03,19.952-.051,29.924.034q9.126,5.007,18.226,10.069c2.433,1.147,2.027,4.315,3.376,6.291a11.559,11.559,0,0,0,1.866.99c-.575-.047-1.142-.08-1.709-.106.558,1.6,1.138,3.194,1.692,4.8,1.557,4.59,3.148,9.168,4.734,13.75q2.957,8.548,5.9,17.1c.9,2.551,1.756,5.119,2.665,7.67q.787,2.342,1.612,4.679c1.7,5.284,3.812,10.446,5.293,15.793a48.53,48.53,0,0,0-7.188-.059,16.419,16.419,0,0,0,.317,4.265l-.372-.059a27.641,27.641,0,0,1-.14-4.912q-3.928-8.11-7.983-16.166c-.495-1.13-1.015-2.242-1.582-3.334-.059-.118-.182-.36-.245-.482l-.338-.643q-1.644-3.37-3.313-6.735-4.271-8.605-8.508-17.223c-2.268-4.552-4.459-9.147-6.786-13.674-.575-1.227-1.125-2.471-1.815-3.638a131.756,131.756,0,0,1-15.725.228c-4.112-.2-8.432-.148-12.2-2.048-.651-.406-1.29-.829-1.908-1.273C1828.061,460.824,1826.149,454.372,1825.679,448.411Z" transform="translate(-1693.728 -326.03)" fill="#0e538c"/>
    </g>
    <g id="Group_565" data-name="Group 565" transform="translate(1503.794 37.555)">
      <path id="Path_7499" data-name="Path 7499" d="M1630.867,176.174c-.2-.567-.14-1.058.41-1.333l-.076.7c2.97.19,5.923.592,8.889.838l-.245-.677c.207.444.419.888.626,1.341C1637.365,176.055,1634.082,176.186,1630.867,176.174Z" transform="translate(-1630.763 -174.841)" fill="#b9c3bd"/>
    </g>
    <g id="Group_566" data-name="Group 566" transform="translate(1448.362 38.874)">
      <path id="Path_7500" data-name="Path 7500" d="M1616.174,178.92c.343-.372.609-1.066,1.235-.948,3.215.013,6.5-.118,9.6.872,2.141,4.785,4.506,9.473,6.591,14.274-5.039-.144-10.018-1.028-15.061-1.138a97.271,97.271,0,0,0-10.34-.876c-.186.567-.381,1.134-.546,1.709-.757-1.485.613-2.61,1.4-3.693C1611.444,185.736,1613.881,182.377,1616.174,178.92Z" transform="translate(-1561.873 -177.959)" fill="#feebc1"/>
      <path id="Path_7501" data-name="Path 7501" d="M1499.739,256.836c1.887-5.53,4.2-10.911,6.253-16.381-.076.254-.233.757-.309,1.007,3.1-.3,6.139-.994,9.231-1.341,2.966,3.63,5.876,7.306,8.774,10.991.66.922,1.959,1.544,1.807,2.856a4.815,4.815,0,0,0-.8-.757c-3.571.195-7.057,1.1-10.606,1.447C1509.3,255.356,1504.532,256.193,1499.739,256.836Z" transform="translate(-1499.739 -213.822)" fill="#feebc1"/>
      <path id="Path_7502" data-name="Path 7502" d="M1777.489,601.7q4.049,8.053,7.983,16.165a27.642,27.642,0,0,0,.14,4.912c-.673.093-.516-.762-.647-1.147-.114-.956-.169-1.916-.241-2.868-40.856-.119-81.707-.042-122.568-.038-7.894-.127-15.793.165-23.683-.14-.3-3.063-.085-6.147-.144-9.219.076-2.175-.254-4.383.3-6.515q19.761.057,39.519,0l.33-.013q7.59.108,15.184,0l.368.013c27.825.072,55.651.021,83.48.021Z" transform="translate(-1579.678 -422.429)" fill="#feebc1"/>
      <path id="Path_7503" data-name="Path 7503" d="M1991.109,604.391c7.674.076,15.349.047,23.023.013,2,3.33,4.121,6.591,6.058,9.959.283,1.553-.148,3.253.66,4.713a11.307,11.307,0,0,0,.694,1.328c-5.128-.275-10.268-.047-15.4-.22-2.877.233-5.817-.233-8.643.478-.368-.169-.74-.33-1.1-.478C1994.921,614.837,1992.806,609.675,1991.109,604.391Z" transform="translate(-1783.225 -423.981)" fill="#feebc1"/>
      <path id="Path_7504" data-name="Path 7504" d="M2063.149,604.411q38.793.1,77.587.013c-.389,5.238-.08,10.5-.165,15.759-15.15.279-30.3-.034-45.45.106-3.812.047-7.624-.135-11.431-.025-2.229.013-4.518-.364-6.667.41a30.92,30.92,0,0,0-8.952-5.881c-.068-.093-.2-.279-.267-.372-1.506-3.169-3.093-6.3-4.578-9.477Z" transform="translate(-1824.787 -423.992)" fill="#feebc1"/>
    </g>
    <g id="Group_567" data-name="Group 567" transform="translate(1604.559 40.046)">
      <path id="Path_7505" data-name="Path 7505" d="M1877.231,189.455a15.082,15.082,0,0,0,8.131-8.724,27.422,27.422,0,0,0,4.332,8.318c-.063,4.891-1.455,10.323-5.513,13.428a9.358,9.358,0,0,1-6.964,1.6c-.233,1.472-.457,2.945-.643,4.421-2.255-.96-4.493-1.955-6.7-3.025-.237.038-.707.11-.939.144.22-.22.444-.44.677-.652.3-2.5,1.24-4.861,1.625-7.34-.3-2.323-1.066-4.582-1.066-6.955A17.068,17.068,0,0,0,1877.231,189.455Z" transform="translate(-1868.939 -180.731)" fill="#ffe3cb"/>
    </g>
    <g id="Group_568" data-name="Group 568" transform="translate(1656.051 48.021)">
      <path id="Path_7506" data-name="Path 7506" d="M1990.649,199.737c7.89-.33,15.81-.017,23.713-.148.922.08,2.052-.233,2.754.558a3.944,3.944,0,0,1-1.938.4c-7.746-.042-15.493,0-23.235-.021A1.282,1.282,0,0,1,1990.649,199.737Z" transform="translate(-1990.649 -199.579)" fill="#e8b059"/>
    </g>
    <g id="Group_569" data-name="Group 569" transform="translate(1528.63 64.792)">
      <path id="Path_7507" data-name="Path 7507" d="M1823.648,245.2a134.483,134.483,0,0,1,13.813-5.834c.233-.034.7-.106.939-.144,2.2,1.07,4.442,2.065,6.7,3.025.326.389.63.8.935,1.206a6.5,6.5,0,0,0,.77,3.071c3.076,7.746,6.113,15.51,9.413,23.167a2.289,2.289,0,0,1,.157,1.908c-.812,2.276-2.39,4.163-3.7,6.164a30.379,30.379,0,0,1-2.852,3.482c-9.646-.182-19.3-.017-28.959-.085a19.333,19.333,0,0,0-2.8.1c-.635-3.334-.69-6.765-1.3-10.111.8-1.819,2.686-3.592,1.8-5.716-1.434-5.009-2.725-10.056-4.184-15.053C1817.125,248.114,1820.5,246.8,1823.648,245.2Z" transform="translate(-1761.533 -239.221)" fill="#2994f4"/>
      <path id="Path_7508" data-name="Path 7508" d="M2005.659,486.547q43.153-.006,86.3,0a17.456,17.456,0,0,1,5.508.432,5.773,5.773,0,0,1,2.894,6.228q-3.827.006-7.645,0c-27.944.017-55.883-.038-83.823.03C2007.821,491,2006.729,488.78,2005.659,486.547Z" transform="translate(-1871.888 -381.9)" fill="#2994f4"/>
      <path id="Path_7509" data-name="Path 7509" d="M1689.468,500.007c-.063-5.508,4.248-10.928,9.819-11.554q24.324.038,48.649,0c2.856.034,5.741-.2,8.563.351,3.765,1.9,8.085,1.849,12.2,2.048a131.752,131.752,0,0,0,15.725-.228c.69,1.168,1.24,2.411,1.815,3.638-28.65.1-57.3.008-85.959.047-.042,4.565-.013,9.13-.017,13.695.072,5.741-.144,11.491.106,17.223,2.293-.063,4.59-.008,6.888-.059a20.455,20.455,0,0,1-.144,7.285c-3.668-.182-7.476.44-10.983-.943a15.138,15.138,0,0,1-3.148-1.946,11.136,11.136,0,0,1-3.262-4.76,43.071,43.071,0,0,0-.245-5.326Q1689.479,509.742,1689.468,500.007Z" transform="translate(-1689.467 -382.998)" fill="#2994f4"/>
      <path id="Path_7510" data-name="Path 7510" d="M1951.869,490.941c.567.025,1.134.059,1.709.106a47.06,47.06,0,0,0,8.868.529,44.519,44.519,0,0,1,2.509,4.07c-3.795.212-7.6.072-11.393.093C1953.007,494.135,1952.427,492.54,1951.869,490.941Z" transform="translate(-1840.855 -384.446)" fill="#2994f4"/>
      <path id="Path_7511" data-name="Path 7511" d="M2000.494,574.161c1.612,2.674,3.27,5.318,4.827,8.021-7.218.161-14.439-.008-21.657.089-.91-2.551-1.764-5.119-2.665-7.67,6.473.093,12.95.063,19.427.017Z" transform="translate(-1857.661 -432.458)" fill="#2994f4"/>
      <path id="Path_7512" data-name="Path 7512" d="M1770.749,575.061c2.373.224,4.755.068,7.137.11,23.51-.021,47.024.042,70.538-.034q1.669,3.363,3.313,6.735c-3.16.3-6.346.063-9.515.144q-35.544-.006-71.084,0C1770.673,579.715,1771.3,577.341,1770.749,575.061Z" transform="translate(-1736.361 -432.977)" fill="#2994f4"/>
      <path id="Path_7513" data-name="Path 7513" d="M2048.6,575.321h76.508a14.347,14.347,0,0,1-.351,4.637,6.869,6.869,0,0,1-2.247,2.247c-16.445-.1-32.894-.008-49.338-.042-7.074.055-14.152-.1-21.225.072Q2050.283,578.769,2048.6,575.321Z" transform="translate(-1896.661 -433.127)" fill="#2994f4"/>
    </g>
    <g id="Group_570" data-name="Group 570" transform="translate(1564.583 69.022)">
      <path id="Path_7514" data-name="Path 7514" d="M1889.948,252.292a6.5,6.5,0,0,1-.77-3.071,107,107,0,0,1,16.077,31.806,25.918,25.918,0,0,1,1.278,5.889c-3.169.013-6.346-.131-9.506.076a17.662,17.662,0,0,1-1.21-3.461c1.311-2,2.889-3.888,3.7-6.164a2.288,2.288,0,0,0-.157-1.908C1896.062,267.8,1893.024,260.039,1889.948,252.292Z" transform="translate(-1840.631 -249.221)" fill="#4ea4fb"/>
      <path id="Path_7515" data-name="Path 7515" d="M1785.609,273.339a40.171,40.171,0,0,1,5.733-7.738c1.46,5,2.75,10.044,4.184,15.053.884,2.124-1,3.9-1.8,5.716-3.241,6.249-6.562,12.565-8.275,19.436a11.585,11.585,0,0,0,1.57,8.791,30.588,30.588,0,0,0,5.745,7.26c.347,3.406.186,6.845.3,10.264l-.681-.22a47.84,47.84,0,0,1-7.086-5.716,37.794,37.794,0,0,1-9.968-14.719c-1.722-5.716-.635-11.8.939-17.418A89.534,89.534,0,0,1,1785.609,273.339Z" transform="translate(-1774.449 -258.671)" fill="#4ea4fb"/>
    </g>
    <g id="Group_571" data-name="Group 571" transform="translate(1422.203 104.835)">
      <path id="Path_7516" data-name="Path 7516" d="M1493.695,333.871c.119.537.224,1.079.334,1.625l.368.025a45.526,45.526,0,0,0,4.806.093q.076,78.6,0,157.191c-11.854.076-23.7-.008-35.559.034-4.163-.055-8.33.1-12.493-.1-.668-5.157-.715-10.365-1.35-15.522q-5.49-64.711-10.958-129.421c-.169-4.078-.943-8.114-.935-12.206,9.908-.283,19.829.025,29.738-.161,5.568.055,11.139-.1,16.7.123,3.148-.381,6.308.237,9.447-.157Q1493.752,334.626,1493.695,333.871Z" transform="translate(-1437.909 -333.871)" fill="#cde9ff"/>
      <path id="Path_7517" data-name="Path 7517" d="M1714.988,502.258c28.654-.038,57.309.055,85.959-.047,2.327,4.527,4.518,9.121,6.786,13.674-23.028.14-46.06.034-69.087.047-5.568-.152-11.148-.182-16.711.013-2.323.063-4.645-.051-6.964.008C1714.975,511.387,1714.945,506.822,1714.988,502.258Z" transform="translate(-1597.751 -430.992)" fill="#cde9ff"/>
      <path id="Path_7518" data-name="Path 7518" d="M1955.869,502.154c3.795-.021,7.6.118,11.393-.093,2.864,4.451,5.538,9.028,8.339,13.521a14.81,14.81,0,0,1-2.471.3c-4.176,0-8.351-.068-12.527.025C1959.017,511.322,1957.426,506.744,1955.869,502.154Z" transform="translate(-1736.736 -430.905)" fill="#cde9ff"/>
      <path id="Path_7519" data-name="Path 7519" d="M2013.3,502.334c27.94-.068,55.879-.013,83.823-.03-.4,4.565-.089,9.155-.186,13.729-19.36-.08-38.724-.021-58.087-.025-6.278.085-12.574-.22-18.839.161Q2016.633,509.263,2013.3,502.334Z" transform="translate(-1769.869 -431.042)" fill="#cde9ff"/>
      <path id="Path_7520" data-name="Path 7520" d="M2276.39,543.811q.279,1.225.626,2.445c3.253.042,6.507-.013,9.76.008a5.079,5.079,0,0,1,5.018,3.875c.14,5.665-.55,11.3-.867,16.957-.093,5.661-.647,11.3-.969,16.948-.355,4.6-.241,9.223-.8,13.8-.313,3.427-.334,6.866-.423,10.306-.1,2.716-2.382,5.538-5.288,5.326-10.014.03-20.028-.013-30.046.021-1.071,0-2.136-.127-3.2-.195a11.779,11.779,0,0,0,3.012-2.813c1.235-1.6.774-3.706.829-5.572a39.341,39.341,0,0,0-7.023-.279,43.731,43.731,0,0,0-6.448.241c-.779-1.328-.482-2.9-.516-4.362,0-5.1.013-10.2-.009-15.3.085-5.255-.224-10.522.165-15.759,4.484-.025,8.973,0,13.458-.013a13.235,13.235,0,0,0-.245-4.028,6.807,6.807,0,0,0-6.363-3.677c-3.647.013-7.29.008-10.932.008-.469-2.847-.262-5.741-.495-8.609-.085-1.489-.224-3.114.622-4.43a5.117,5.117,0,0,1,4.43-2.441c2.373-.059,4.751.059,7.129-.055,5.415-.008,10.83,0,16.246,0,1.806.013,3.613.008,5.424,0h.791c2.1,0,4.209.013,6.316.008C2276.529,545.414,2276.483,544.611,2276.39,543.811Z" transform="translate(-1898.102 -454.992)" fill="#cde9ff"/>
    </g>
    <g id="Group_572" data-name="Group 572" transform="translate(1483.498 106.383)">
      <path id="Path_7521" data-name="Path 7521" d="M1588.835,337.552c8.605.042,17.219-.055,25.828-.008,9.938.22,19.888-.106,29.826.157-.123,4.485-.609,8.956-.618,13.454-.766,12.417-1.218,24.851-2.035,37.268.013,4.057-.359,8.1-.618,12.142a13.083,13.083,0,0,0-9.125,2.513,12.316,12.316,0,0,0-4.772,9.883c.008,6.909-.013,13.817.008,20.726a10.574,10.574,0,0,0,.842,4.057,11.136,11.136,0,0,0,3.262,4.76c-6.075-.093-12.155-.021-18.23-.042-3.169.051-6.409-.288-9.494.635a14.8,14.8,0,0,0-10.8,9.138,14.073,14.073,0,0,0-.69,5.568c.013,7.759-.013,15.514.009,23.273a13.274,13.274,0,0,0,5.381,10.454,17.181,17.181,0,0,0,7.4,3.215,36.679,36.679,0,0,1-4.916.186c-5.766-.017-11.537,0-17.3-.013q.083-78.6,0-157.191C1584.8,337.662,1586.821,337.615,1588.835,337.552Z" transform="translate(-1582.789 -337.53)" fill="#b7e0ff"/>
    </g>
    <g id="Group_573" data-name="Group 573" transform="translate(1584.649 106.681)">
      <path id="Path_7522" data-name="Path 7522" d="M1858.208,338.347c3.16-.207,6.338-.063,9.506-.076l0,0a9.638,9.638,0,0,0,2.314.262c5.221-.047,10.441.008,15.666-.034a5.92,5.92,0,0,1,2.3.351,56.525,56.525,0,0,1-6.557.161c-7.476-.017-14.947.034-22.423.008a25.859,25.859,0,0,0-5.517,0c-9.735.051-19.47-.017-29.2.034a11.661,11.661,0,0,1-2.424-.338l.508-.338a19.334,19.334,0,0,1,2.8-.1c9.654.068,19.313-.1,28.959.085A14.838,14.838,0,0,0,1858.208,338.347Z" transform="translate(-1821.879 -338.234)" fill="#a5b0a6"/>
    </g>
    <g id="Group_574" data-name="Group 574" transform="translate(1630.489 106.333)">
      <path id="Path_7523" data-name="Path 7523" d="M1930.229,337.8c2.141-.55,4.353-.271,6.536-.326,4.544-.047,9.092.076,13.636-.063a21.784,21.784,0,0,1,3.291,3.516,6.84,6.84,0,0,0-.516,2.6c-.076,4.789-.068,9.578-.118,14.372.021,1.383-.262,2.877.5,4.129-.415.41-.859.787-1.282,1.176.059-7.277.55-14.549.465-21.826a3.373,3.373,0,0,0-2.229-3,5.921,5.921,0,0,0-2.3-.351c-5.225.042-10.446-.013-15.666.034A9.639,9.639,0,0,1,1930.229,337.8Z" transform="translate(-1930.229 -337.411)" fill="#3f5b63"/>
    </g>
    <g id="Group_575" data-name="Group 575" transform="translate(1586.058 130.383)">
      <path id="Path_7524" data-name="Path 7524" d="M2341.346,394.622a11.471,11.471,0,0,1,3.913-.355,3.587,3.587,0,0,1-1.3,1.9q.19-.6.393-1.193c-6.4,1.946-11.237,7.057-14.782,12.523-5.745,8.948-8.5,19.4-10.568,29.712-.575,2.378-.6,4.848-1.193,7.222-.652,2.488-.131,5.106-.753,7.6a29.929,29.929,0,0,0-.537,7.894h-.791a190.149,190.149,0,0,1,2.462-22.283c1.8-9.79,4.48-19.584,9.4-28.312a37.365,37.365,0,0,1,9-10.9c1.388-1.189,3.033-2.01,4.472-3.135-1.307.173-2.61.36-3.918.5C2338.384,394.961,2339.958,395.075,2341.346,394.622Z" transform="translate(-2108.205 -394.257)" fill="#f6dfb5"/>
      <path id="Path_7525" data-name="Path 7525" d="M1825.209,447.786a19.093,19.093,0,0,1,2.31-.254c17.337-.025,34.679.034,52.021.013,3.321-.114,6.63.415,9.955.2l-.563.474a25.456,25.456,0,0,0-4.54.343h-.186l-.461-.584c-9.574-.169-19.156-.034-28.735-.068-9.828.038-19.66-.068-29.488.055l-.114-.063Z" transform="translate(-1825.209 -424.989)" fill="#f6dfb5"/>
    </g>
    <g id="Group_576" data-name="Group 576" transform="translate(1787.125 131.104)">
      <path id="Path_7526" data-name="Path 7526" d="M2330.629,408.484c3.545-5.466,8.381-10.577,14.782-12.523q-.2.6-.393,1.193c-2.107,4.286-1.57,9.24-.719,13.775.643,4.747,1.362,9.955-1.1,14.329-1.557,2.813-4.764,3.951-7.615,4.975-2.957.914-6.24,2.1-7.789,5-1.98,3.321,1.231,7.158-.512,10.526-1.337,2.263-4.311,3.114-5.212,5.69-.635,2.521,1.087,4.713,1.625,7.057.093.8.14,1.6.2,2.411-2.107,0-4.214,0-6.316-.008a29.929,29.929,0,0,1,.537-7.895c.622-2.5.1-5.115.753-7.6.6-2.373.618-4.844,1.193-7.222C2322.134,427.882,2324.884,417.432,2330.629,408.484Z" transform="translate(-2310.329 -395.961)" fill="#fed289"/>
      <path id="Path_7527" data-name="Path 7527" d="M2328.343,397.23c1.307-.14,2.61-.326,3.917-.5-1.438,1.125-3.084,1.946-4.472,3.135a37.361,37.361,0,0,0-9,10.9c-4.92,8.728-7.6,18.522-9.4,28.312a190.149,190.149,0,0,0-2.462,22.283c-1.811.008-3.617.013-5.424,0-.432-4.315-1.629-8.694-.673-13.018.782-4.159,3.321-7.7,4.341-11.787a8.083,8.083,0,0,0-1.108-6.676c.668-3.465-1.007-6.8-.7-10.259.406-6.49,4.434-12.239,9.583-15.975A40.167,40.167,0,0,1,2328.343,397.23Z" transform="translate(-2300.466 -396.405)" fill="#fed289"/>
    </g>
    <g id="Group_577" data-name="Group 577" transform="translate(1586.371 153.283)">
      <path id="Path_7528" data-name="Path 7528" d="M1825.949,448.459c9.828-.123,19.66-.017,29.488-.055,9.578.034,19.161-.1,28.735.068l.461.584c-9.054.212-18.112.017-27.17.089-9.972-.085-19.952,0-29.924-.034A2.423,2.423,0,0,1,1825.949,448.459Z" transform="translate(-1825.949 -448.385)" fill="#304b4f"/>
    </g>
    <g id="Group_578" data-name="Group 578" transform="translate(1617.886 153.954)">
      <path id="Path_7529" data-name="Path 7529" d="M1900.439,450.06c9.058-.072,18.116.123,27.17-.089h.186c4.4,3.126,8.787,6.274,13.212,9.367,2.31,1.231,2.67,4.061,3.947,6.118,1.07,2.234,2.162,4.455,3.232,6.689q3.345,6.924,6.71,13.834c2.708,5.69,5.5,11.338,8.225,17.024q1.675,3.452,3.346,6.913c.089.178.262.537.351.719l.186.372c.778,1.612,1.54,3.236,2.348,4.836,1.485,3.177,3.072,6.308,4.578,9.477l-.068.491c-1.955.025-3.9-.292-5.847-.14a15.174,15.174,0,0,0,.525,4.315c-.808-1.46-.376-3.16-.66-4.713-1.938-3.368-4.057-6.629-6.058-9.959-.977-1.608-1.917-3.228-2.978-4.781-1.557-2.7-3.215-5.348-4.827-8.021-3.49-5.644-6.93-11.321-10.395-16.982-2.8-4.493-5.474-9.071-8.339-13.521a44.5,44.5,0,0,0-2.509-4.07,47.057,47.057,0,0,1-8.867-.529,11.557,11.557,0,0,1-1.866-.99c-1.35-1.976-.943-5.145-3.376-6.291Q1909.565,455.071,1900.439,450.06Z" transform="translate(-1900.439 -449.971)" fill="#0a486f"/>
    </g>
    <g id="Group_579" data-name="Group 579" transform="translate(1528.028 169.324)">
      <path id="Path_7530" data-name="Path 7530" d="M1753.77,486.3c.618.444,1.256.867,1.908,1.273-2.822-.55-5.707-.317-8.563-.351q-24.324.019-48.649,0c-5.572.626-9.883,6.046-9.819,11.554q.019,9.735,0,19.47a43.071,43.071,0,0,1,.245,5.326,10.572,10.572,0,0,1-.842-4.057c-.021-6.909,0-13.817-.008-20.726a12.316,12.316,0,0,1,4.772-9.883,13.083,13.083,0,0,1,9.126-2.513c9.984.03,19.973,0,29.962.013C1739.191,486.339,1746.489,486.542,1753.77,486.3Z" transform="translate(-1688.045 -486.301)" fill="#4097e4"/>
    </g>
    <g id="Group_580" data-name="Group 580" transform="translate(1539.405 189.513)">
      <path id="Path_7531" data-name="Path 7531" d="M1982.057,534.021c3.465,5.661,6.9,11.338,10.395,16.982l-.068.457c-6.477.047-12.954.076-19.427-.017q-2.945-8.548-5.9-17.1c4.176-.093,8.351-.021,12.527-.025A14.8,14.8,0,0,0,1982.057,534.021Z" transform="translate(-1860.393 -534.021)" fill="#a4d5fe"/>
      <path id="Path_7532" data-name="Path 7532" d="M1714.954,534.667c2.318-.059,4.641.055,6.964-.008.008,5.724-.068,11.452.03,17.172-2.3.051-4.595,0-6.888.059C1714.81,546.158,1715.026,540.408,1714.954,534.667Z" transform="translate(-1714.935 -534.383)" fill="#a4d5fe"/>
      <path id="Path_7533" data-name="Path 7533" d="M1770.829,534.578c23.028-.013,46.06.093,69.087-.047q4.245,8.618,8.508,17.223c-23.514.076-47.028.013-70.538.034-2.382-.042-4.764.114-7.137-.11C1770.948,545.979,1770.787,540.276,1770.829,534.578Z" transform="translate(-1747.136 -534.315)" fill="#a4d5fe"/>
      <path id="Path_7534" data-name="Path 7534" d="M2029.159,534.813c6.266-.381,12.561-.076,18.839-.161,19.364,0,38.728-.055,58.087.025q.045,8.58.009,17.16h-68.711C2034.663,546.151,2031.867,540.5,2029.159,534.813Z" transform="translate(-1896.221 -534.364)" fill="#a4d5fe"/>
      <path id="Path_7535" data-name="Path 7535" d="M2057.339,593.2c7.086-.237,14.186-.038,21.28-.106q23.956-.006,47.913,0a30.747,30.747,0,0,1-4.751.165q-29.179,0-58.35,0a24.613,24.613,0,0,0-5.906.317Z" transform="translate(-1912.478 -568.092)" fill="#a4d5fe"/>
    </g>
    <g id="Group_581" data-name="Group 581" transform="translate(1546.811 190.002)">
      <path id="Path_7536" data-name="Path 7536" d="M1732.728,536.279c-.207-.96.812-1.172,1.519-1.083,4.59.047,9.181-.025,13.767.047.123,7.256.042,14.52-.017,21.775a21.573,21.573,0,0,0,.22,3.131,28.3,28.3,0,0,1,.123,4.32l-.368-.013c-2.2-2.018-4.98-3.2-7.5-4.734-2.6,1.51-5.419,2.725-7.683,4.734l-.33.013a31.357,31.357,0,0,1,.127-4.324,36.433,36.433,0,0,0,.224-6.075C1732.664,548.142,1732.749,542.21,1732.728,536.279Z" transform="translate(-1732.441 -535.177)" fill="#dca54b"/>
    </g>
    <g id="Group_582" data-name="Group 582" transform="translate(1562.685 206.875)">
      <path id="Path_7537" data-name="Path 7537" d="M1770.012,582.469c.106-2.466-.322-4.988.284-7.408.55,2.28-.076,4.654.389,6.955q35.544-.006,71.084,0c3.169-.08,6.354.156,9.515-.144l.338.643c-19.787.14-39.578.021-59.365.059C1784.841,582.507,1777.42,582.714,1770.012,582.469Z" transform="translate(-1769.963 -575.061)" fill="#538db4"/>
    </g>
    <g id="Group_583" data-name="Group 583" transform="translate(1492.932 211.293)">
      <path id="Path_7538" data-name="Path 7538" d="M1616.575,586.158c3.084-.922,6.325-.584,9.494-.635,6.075.021,12.155-.051,18.23.042a15.138,15.138,0,0,0,3.148,1.946l-.732.224c-1.248-.47-2.331-1.485-3.727-1.447-6.481-.047-12.967.038-19.448-.017a61.651,61.651,0,0,0-7.641.6c-3.774,1.206-7.357,3.664-9.007,7.378a17.344,17.344,0,0,0-1.3,5.348q.031,12.261,0,24.525c.453,5.331,4.023,10.471,9.236,12.108,2.606,1.193,5.508.842,8.284.884q11.632,0,23.265,0c9.874.406,19.761.127,29.64.207h197.518c3.884.068,7.78-.152,11.66.131a18.463,18.463,0,0,1-5.284.355H1667.957c-16.694-.063-33.389.266-50.083,0a17.179,17.179,0,0,1-7.4-3.215,13.274,13.274,0,0,1-5.381-10.454c-.021-7.759,0-15.514-.008-23.273a14.073,14.073,0,0,1,.69-5.568A14.8,14.8,0,0,1,1616.575,586.158Z" transform="translate(-1605.088 -585.503)" fill="#e5c68e"/>
    </g>
    <g id="Group_584" data-name="Group 584" transform="translate(1683.914 213.816)">
      <path id="Path_7539" data-name="Path 7539" d="M2056.509,591.548c7.074-.169,14.152-.017,21.225-.072,16.445.034,32.894-.055,49.338.042-.254.161-.766.478-1.02.639q-23.956.019-47.913,0c-7.095.068-14.194-.131-21.28.106C2056.771,592.086,2056.6,591.726,2056.509,591.548Z" transform="translate(-2056.509 -591.466)" fill="#528cb2"/>
    </g>
    <g id="Group_585" data-name="Group 585" transform="translate(1654.31 229.302)">
      <path id="Path_7540" data-name="Path 7540" d="M2066.074,628.071c.068.093.2.279.267.372a30.919,30.919,0,0,1,8.952,5.881,10.03,10.03,0,0,1,2.4,2.615c-1.3.825-2.809.262-4.218.207a47.815,47.815,0,0,1-9.375-1.544,7.084,7.084,0,0,1-2.725-1.536,11.308,11.308,0,0,1-.694-1.328,15.17,15.17,0,0,1-.525-4.315c1.95-.152,3.892.165,5.847.14Z" transform="translate(-2029.008 -628.071)" fill="#1a87d9"/>
      <path id="Path_7541" data-name="Path 7541" d="M1986.575,641.439a48.53,48.53,0,0,1,7.188.059c.364.148.736.309,1.1.478a44.605,44.605,0,0,1,9.494,6.346c.478.478,1.282.931,1.1,1.743-.939.965-2.454.406-3.647.444-3.956-.554-8.055-.372-11.871-1.68a4.363,4.363,0,0,1-3.054-3.126A16.419,16.419,0,0,1,1986.575,641.439Z" transform="translate(-1986.536 -635.724)" fill="#1a87d9"/>
    </g>
    <g id="Group_586" data-name="Group 586" transform="translate(1507.156 235.031)">
      <path id="Path_7542" data-name="Path 7542" d="M1638.709,641.611c7.89.3,15.789.013,23.683.14,40.86,0,81.712-.08,122.568.038.072.952.127,1.912.241,2.868.131.385-.025,1.24.647,1.147l.372.059a4.362,4.362,0,0,0,3.054,3.126c3.816,1.307,7.916,1.125,11.871,1.68,1.193-.038,2.708.52,3.647-.444.177-.812-.626-1.265-1.1-1.743a44.6,44.6,0,0,0-9.494-6.346c2.826-.711,5.766-.245,8.643-.478,5.127.173,10.268-.055,15.4.22a7.083,7.083,0,0,0,2.724,1.536,47.827,47.827,0,0,0,9.375,1.544c1.409.055,2.919.618,4.218-.207a10.036,10.036,0,0,0-2.4-2.615c2.149-.774,4.438-.4,6.668-.41,3.808-.11,7.619.072,11.431.025,15.15-.14,30.3.173,45.45-.106.021,5.1.009,10.2.009,15.3.034,1.46-.262,3.033.516,4.362-.233.025-.694.072-.922.093-6.126-.182-12.26-.034-18.391-.076q-115.923-.013-231.842,0a49.638,49.638,0,0,1-6.249-.156C1638.726,654.65,1638.959,648.122,1638.709,641.611Z" transform="translate(-1638.709 -641.611)" fill="#ffd893"/>
    </g>
    <g id="Group_587" data-name="Group 587" transform="translate(1410.686 247.693)">
      <path id="Path_7543" data-name="Path 7543" d="M1812.832,681.847c.089-3.44.11-6.879.423-10.306.11.58.228,1.159.351,1.743,3.9.106,7.8.085,11.7.034,2.475-.021,5.352,1.942,5.128,4.662q-.038,10.173-.013,20.35a4.72,4.72,0,0,1-5.111,4.65q-204.565.044-409.129.021a5.02,5.02,0,0,1-4.307-2.035c-1.4-1.857-1.18-4.29-1.163-6.477.017-5.073-.034-10.145-.009-15.214.127-1.925.685-4.142,2.53-5.111,1.726-1.24,3.93-.74,5.906-.829,4.865-.055,9.739.127,14.6-.093.089-.3.271-.91.36-1.214.635,5.157.681,10.365,1.35,15.522,4.163.2,8.33.047,12.493.1,11.854-.042,23.7.042,35.559-.034,5.766.008,11.537,0,17.3.013a36.7,36.7,0,0,0,4.916-.186c16.694.271,33.389-.059,50.083,0h211.954a18.46,18.46,0,0,0,5.284-.355c.415-.047.833-.076,1.261-.093,1.062.068,2.128.19,3.2.195,10.018-.034,20.032.008,30.046-.021C1810.45,687.385,1812.73,684.563,1812.832,681.847Z" transform="translate(-1410.686 -671.541)" fill="#f7f7f7"/>
    </g>
    <g id="Group_588" data-name="Group 588" transform="translate(1763.747 254.469)">
      <path id="Path_7544" data-name="Path 7544" d="M2245.209,687.91c.229-.021.69-.068.922-.093a43.731,43.731,0,0,1,6.448-.241,39.341,39.341,0,0,1,7.023.279c-.055,1.866.406,3.973-.829,5.572-.262-1.637.389-3.435-.267-4.963a69.978,69.978,0,0,0-7.175-.14C2249.292,688.24,2247.159,688.671,2245.209,687.91Z" transform="translate(-2245.209 -687.557)" fill="#e2c287"/>
    </g>
  </g>
</svg>
