<svg xmlns="http://www.w3.org/2000/svg" width="121.849" height="102.457" viewBox="0 0 121.849 102.457">
  <g id="Group_60" data-name="Group 60" transform="translate(-921.789 379.795)">
    <path id="Path_336" data-name="Path 336" d="M927.714-283.106H987.7q0-6.776,0-13.508c0-1.167-.335-2.526.147-3.451a4.565,4.565,0,0,1,2.824-2.352,3.372,3.372,0,0,1,2.478,2.232c.21,6.765.266,13.544.056,20.308-.076,2.444-2.319,2.492-4.277,2.49q-20.143-.017-40.287.007c-7.474,0-14.948-.075-22.42.04-3.083.047-4.44-1.021-4.434-4.263q.1-46.942,0-93.885c-.007-3.216,1.28-4.318,4.39-4.307q31.353.112,62.707.013c3.332-.012,4.757,1.237,4.471,4.568-.14,1.623.3,3.366-.14,4.872-.354,1.2-1.65,2.126-2.527,3.174-.993-1.053-2.259-1.967-2.888-3.2-.462-.909-.091-2.241-.091-3.567h-60Z" fill="#29246e"/>
    <path id="Path_337" data-name="Path 337" d="M1115.319-277.172c-2.92,0-5.842-.039-8.761.015-2.5.046-3.632-1.119-3.639-3.6-.012-4.752-1.886-8.787-4.707-12.536-5.974-7.94-6.351-17.847-1.132-25.855a22.212,22.212,0,0,1,23.149-9.564,22.024,22.024,0,0,1,17.409,18.781,20.56,20.56,0,0,1-3.616,15.3c-3.133,4.446-5.827,8.949-6.032,14.656-.035.97-2.009,2.52-3.227,2.67A77.961,77.961,0,0,1,1115.319-277.172Zm5.955-5.705c3.048-5.573,5.547-10.514,8.387-15.252a16.779,16.779,0,0,0-3.117-21.33,16.541,16.541,0,0,0-21.233-.466,16.622,16.622,0,0,0-4.076,21.151c2.858,5.1,5.595,10.261,8.678,15.932l2.492-.127c1.107-5.839.467-10.96-3.358-15.363-.529-.608-1.225-1.367-1.237-2.067a31.007,31.007,0,0,1,.543-4.585c1.362.522,3.023.723,4.012,1.645,1.295,1.207,2.058,2.984,3.28,4.871,1.284-2.016,2.091-3.9,3.454-5.211.95-.911,2.664-1.025,4.037-1.494.255,1.417.96,2.943.65,4.223a10.774,10.774,0,0,1-2.5,4.159c-3.585,4.149-3.122,8.966-2.7,13.915Z" transform="translate(-105.394 -31.071)" fill="#29246e"/>
    <path id="Path_338" data-name="Path 338" d="M1127.937-173.134c2.482,3.282,4.986,4.152,8.081,2.845,3.52-1.486,4.415-4.438,3.4-11.247-4.468,0-8.993-.033-13.517.014-2.175.023-4.24-.286-4.2-2.963.039-2.5,2.064-2.7,4.073-2.693,5.254.032,10.51.064,15.763-.009,2.838-.039,4.043,1.217,3.929,4.033-.1,2.565.072,5.14-.031,7.705a11.923,11.923,0,0,1-10.832,11.374,12.038,12.038,0,0,1-12.826-9.566c-.734-3.586.41-5.079,4.013-5.128a44.857,44.857,0,0,1,8.033.158c1.189.2,2.131,1.851,3.186,2.845-1.051.878-1.983,2.2-3.183,2.524C1132.206-172.806,1130.376-173.134,1127.937-173.134Z" transform="translate(-122.671 -118.267)" fill="#29246e"/>
    <path id="Path_339" data-name="Path 339" d="M981.975-242.194c-.456-2.239-1.349-3.951-.864-5.063.4-.929,2.413-1.178,3.731-1.675a3.214,3.214,0,0,1,1.043-.02c5.736-.049,8.246,3.869,6,9.369-.778,1.906-2.278,2.194-5.425.944-7.943,8.32-17.456,14.116-28.861,16.549a23.581,23.581,0,0,1-6.542.9c-1.363-.105-3.4-1.266-3.765-2.4-.682-2.106,1.132-2.921,3.117-3.13a49.278,49.278,0,0,0,30.884-14.725C981.7-241.85,982.066-242.295,981.975-242.194Z" transform="translate(-15.569 -80.32)" fill="#29246e"/>
    <path id="Path_340" data-name="Path 340" d="M972.251-345.029c-5.714,0-11.429-.024-17.143.012-2.127.014-4.1-.635-3.664-2.966.2-1.081,2.353-2.536,3.642-2.559q17.137-.307,34.282-.017c1.3.022,3.468,1.46,3.68,2.545.456,2.339-1.542,2.986-3.655,2.977-5.714-.025-11.428-.009-17.143-.009Z" transform="translate(-18.172 -17.865)" fill="#29246e"/>
    <path id="Path_341" data-name="Path 341" d="M969.09-294.239c-4.783,0-9.578.193-14.34-.126-1.3-.087-2.5-1.709-3.739-2.626,1.206-.958,2.394-2.719,3.622-2.748q14.515-.343,29.041-.006c1.261.029,2.483,1.711,3.723,2.627-1.2.96-2.356,2.663-3.617,2.747C978.9-294.047,973.99-294.239,969.09-294.239Z" transform="translate(-17.943 -49.052)" fill="#29246e"/>
    <path id="Path_342" data-name="Path 342" d="M966.569-319.592c-3.965,0-7.93-.007-11.9,0-2.031.005-3.772-.85-3.344-2.948a4.41,4.41,0,0,1,3.318-2.562c7.923-.235,15.857-.125,23.787-.148,2.048-.006,3.764.859,3.343,2.944-.217,1.075-2.1,2.464-3.324,2.565-3.938.328-7.92.122-11.885.122Z" transform="translate(-18.099 -33.491)" fill="#29246e"/>
    <path id="Path_343" data-name="Path 343" d="M966.595-268.741c-3.849,0-7.718.228-11.534-.124-1.332-.123-3.416-1.525-3.608-2.614-.416-2.365,1.6-2.912,3.709-2.9,7.7.028,15.4-.125,23.088.113,1.292.04,3.429,1.523,3.616,2.609.409,2.366-1.641,2.923-3.726,2.907-3.848-.031-7.7-.009-11.545-.009Z" transform="translate(-18.181 -64.712)" fill="#29246e"/>
    <path id="Path_344" data-name="Path 344" d="M1054.5-195.419a88.349,88.349,0,0,1-.121,9.788c-.14,1.247-1.645,2.34-2.527,3.5-.992-1.173-2.791-2.311-2.842-3.524-.277-6.522-.251-13.068.006-19.592a4.42,4.42,0,0,1,2.557-3.316c2.1-.432,2.959,1.3,2.952,3.339-.011,3.267,0,6.534,0,9.8Z" transform="translate(-77.999 -105.104)" fill="#29246e"/>
    <path id="Path_345" data-name="Path 345" d="M962.8-243.407a51.192,51.192,0,0,1-8.029-.123c-1.361-.219-2.519-1.7-3.768-2.618,1.2-.962,2.352-2.685,3.6-2.754a150.394,150.394,0,0,1,16.434-.008c1.3.07,3.406,1.554,3.576,2.634.372,2.359-1.673,2.914-3.762,2.88C968.171-243.439,965.488-243.406,962.8-243.407Z" transform="translate(-17.941 -80.232)" fill="#29246e"/>
    <path id="Path_346" data-name="Path 346" d="M1029.081-178c0,2.1.334,4.273-.132,6.261a4.38,4.38,0,0,1-2.889,2.627c-.635.139-2.38-1.618-2.447-2.6a87.4,87.4,0,0,1,.006-12.565c.077-1,1.849-1.874,2.841-2.806.869.931,2.28,1.754,2.491,2.815a32.627,32.627,0,0,1,.116,6.269Z" transform="translate(-62.387 -118.331)" fill="#29246e"/>
    <path id="Path_347" data-name="Path 347" d="M972.559-163.334c.237-1.982-.847-5.364,2.894-5.277,3.674.086,2.549,3.426,2.728,5.705.046.579.231,1.315-.037,1.72-.847,1.275-1.88,2.428-2.84,3.628-.915-1.248-1.9-2.454-2.7-3.769C972.34-161.751,972.559-162.468,972.559-163.334Z" transform="translate(-31.121 -129.674)" fill="#29246e"/>
    <path id="Path_348" data-name="Path 348" d="M1003.771-160.379c-.234,1.3-.142,2.738-.779,3.7a4.44,4.44,0,0,1-2.777,1.237,12.693,12.693,0,0,1-2.183-4.522c-.352-1.883-.5-4.23,2.052-4.863a3.524,3.524,0,0,1,2.913,1.174C1003.627-162.86,1003.543-161.5,1003.771-160.379Z" transform="translate(-46.697 -131.971)" fill="#29246e"/>
    <path id="Path_349" data-name="Path 349" d="M1139.766-353.33c1.861-1.912,2.873-3.879,4.125-4.045,2.627-.35,2.943,1.908,2.956,4.056.012,2.029-.343,4.214-2.7,3.945C1142.819-349.527,1141.7-351.5,1139.766-353.33Z" transform="translate(-133.845 -13.744)" fill="#29246e"/>
    <path id="Path_350" data-name="Path 350" d="M1068.048-270.921c-1.829-1.932-3.8-3.053-3.965-4.4-.3-2.4,1.924-2.673,3.934-2.677,2.153,0,4.407.3,4.069,2.929C1071.925-273.811,1069.954-272.789,1068.048-270.921Z" transform="translate(-87.357 -62.509)" fill="#29246e"/>
    <path id="Path_351" data-name="Path 351" d="M1220.7-270.917c-1.878-1.914-3.872-3-4.064-4.349-.343-2.4,1.853-2.728,3.879-2.729,2.132,0,4.416.241,4.124,2.877C1224.5-273.863,1222.554-272.808,1220.7-270.917Z" transform="translate(-181.022 -62.509)" fill="#29246e"/>
    <path id="Path_352" data-name="Path 352" d="M954.375-157.4c-1.9,1.935-2.96,3.95-4.307,4.169-2.38.386-2.789-1.785-2.78-3.823.008-2.089.114-4.436,2.807-4.165C951.358-161.089,952.444-159.2,954.375-157.4Z" transform="translate(-15.657 -134.202)" fill="#29246e"/>
    <path id="Path_353" data-name="Path 353" d="M1205.5-331.548c-2.5,1.807-4.066,3.183-5.875,4.026-.357.166-2.523-2.423-2.413-2.557a19.051,19.051,0,0,1,4.42-4.152C1202.031-334.48,1203.543-332.947,1205.5-331.548Z" transform="translate(-169.118 -27.961)" fill="#29246e"/>
    <path id="Path_354" data-name="Path 354" d="M1090.184-215.943c-1.435-1.9-3.007-3.341-2.767-3.769a15.473,15.473,0,0,1,3.842-4.293c.177-.143,2.933,2.084,2.763,2.486C1093.294-219.787,1091.922-218.325,1090.184-215.943Z" transform="translate(-101.686 -95.657)" fill="#29246e"/>
    <path id="Path_355" data-name="Path 355" d="M1090.346-337.6c1.733,2.22,3.153,3.539,3.815,5.167.221.543-1.5,1.875-2.329,2.847a27.159,27.159,0,0,1-4.079-4.06C1087.494-334.03,1089.01-335.626,1090.346-337.6Z" transform="translate(-101.89 -25.906)" fill="#29246e"/>
    <path id="Path_356" data-name="Path 356" d="M1200.655-227.691c1.75,2.43,3.071,3.878,3.808,5.578.169.391-2.3,2.5-2.473,2.375a15.588,15.588,0,0,1-3.967-4.026C1197.769-224.17,1199.26-225.671,1200.655-227.691Z" transform="translate(-169.6 -93.397)" fill="#29246e"/>
  </g>
</svg>
