<svg xmlns="http://www.w3.org/2000/svg" width="114.684" height="114.765" viewBox="0 0 114.684 114.765">
  <g id="Group_59" data-name="Group 59" transform="translate(-1404.241 112.055)">
    <path id="Path_330" data-name="Path 330" d="M1548.645-56.961l-4.672-.84v-8.237q0-19.357,0-38.714a6.993,6.993,0,0,1,7.245-7.3q33.928-.015,67.855,0a6.93,6.93,0,0,1,6.983,7.071q.03,25.6.016,51.19,0,24.546-.005,49.091a6.963,6.963,0,0,1-5.749,7.274,8.525,8.525,0,0,1-1.622.125q-32.528.009-65.057.005h-.784l-.059-.177c.281-.155.564-.308.844-.465a30.8,30.8,0,0,0,4.429-2.546A7.513,7.513,0,0,1,1563.213-2q27.576.071,55.151.028c2.256,0,3.026-.758,3.026-2.983q0-49.791,0-99.582c0-2-.824-2.839-2.826-2.839q-33.578,0-67.155,0c-1.945,0-2.763.855-2.764,2.906q-.009,23.088,0,46.177Z" transform="translate(-107.148)" fill="#29246e"/>
    <path id="Path_331" data-name="Path 331" d="M1404.261,158.341a29.144,29.144,0,0,1,30.638-28.293c15.723.612,28.192,14.37,27.563,30.413-.616,15.7-14.28,28.42-29.854,27.8C1416.36,187.608,1403.664,174.209,1404.261,158.341Zm29.051-19.356a20.139,20.139,0,1,0,20.2,19.773C1453.273,147.76,1444.111,138.795,1433.313,138.986Z" transform="translate(0 -185.63)" fill="#29246e"/>
    <path id="Path_332" data-name="Path 332" d="M1657.821-5.12h-53.46V-9.7h53.46Z" transform="translate(-153.455 -78.49)" fill="#29246e"/>
    <path id="Path_333" data-name="Path 333" d="M1657.877,40.332v4.537h-53.5V40.332Z" transform="translate(-153.468 -116.853)" fill="#29246e"/>
    <path id="Path_334" data-name="Path 334" d="M1657.888,90.338v4.537h-53.5V90.338Z" transform="translate(-153.476 -155.198)" fill="#29246e"/>
    <path id="Path_335" data-name="Path 335" d="M1485.29,222.381c2.828-4.9,5.565-9.635,8.3-14.373.311-.538.611-1.083.946-1.606a2.837,2.837,0,0,1,3.849-1.068,2.95,2.95,0,0,1,1.241,3.92c-.5,1-1.12,1.952-1.7,2.916q-5.619,9.33-11.246,18.656c-.155.257-.334.5-.589.881-1.153-1.432-2.243-2.775-3.322-4.128q-3.816-4.784-7.624-9.573a3.014,3.014,0,0,1,.351-4.517c1.472-1.067,3.108-.688,4.284,1C1481.581,217.062,1483.378,219.639,1485.29,222.381Z" transform="translate(-53.724 -243.099)" fill="#29246e"/>
  </g>
</svg>
