<svg xmlns="http://www.w3.org/2000/svg" width="90.879" height="90.887" viewBox="0 0 90.879 90.887">
  <g id="incom" transform="translate(-1670.726 3569.728)">
    <path id="Path_1649" data-name="Path 1649" d="M1741.081-3522.878c1.594.331,3.137.553,4.622.976a21.952,21.952,0,0,1,15.868,22.3,21.982,21.982,0,0,1-18.24,20.41,24.8,24.8,0,0,1-4.1.335q-33.2.03-66.4.014c-1.676,0-2.1-.426-2.1-2.115q0-32.335-.015-64.669a2.705,2.705,0,0,1,.936-2.157q11.313-10.563,22.583-21.172a2.655,2.655,0,0,1,1.963-.771q21.43.024,42.86.013c1.557,0,2.012.456,2.013,2.017q0,21.892,0,43.785Zm-2.955-43.844h-41.007v19.563c0,2.013-.339,2.359-2.315,2.359h-21.077v62.972h54.739a21.949,21.949,0,0,1-10.432-23.009c2.377-10.728,9.394-16.458,20.093-18.036Zm1.451,84.947a19.087,19.087,0,0,0,19.089-19.016,19.082,19.082,0,0,0-19.011-19.091,19.084,19.084,0,0,0-19.088,19.014A19.087,19.087,0,0,0,1739.576-3481.774Zm-45.438-65.979v-17.063l-18.194,17.063Z" fill="#060056"/>
    <path id="Path_1650" data-name="Path 1650" d="M1828.8-3523.512q0,7.008,0,14.015c0,1.557-.459,2.015-2.017,2.015q-14.1,0-28.208,0c-1.556,0-2.013-.457-2.013-2.018q0-14.107,0-28.214c0-1.56.454-2.012,2.016-2.013q14.1,0,28.208,0c1.558,0,2.013.456,2.014,2.015Q1828.807-3530.612,1828.8-3523.512Zm-2.976-13.217h-7.282v1.066c0,4.336-.006,8.671.006,13.007a1.754,1.754,0,0,1-.8,1.8c-.747.4-1.342.04-1.939-.369-.83-.569-1.691-1.1-2.5-1.687a.872.872,0,0,0-1.208-.018c-.834.615-1.73,1.144-2.582,1.735a1.688,1.688,0,0,1-1.945.312,1.744,1.744,0,0,1-.751-1.744q.015-6.55,0-13.1v-1.017h-7.261v26.283h26.267Zm-10.278,11.8v-11.788H1809.8v11.812l1.515-1.006c1.282-.853,1.476-.852,2.785.016Z" transform="translate(-95.051 -22.66)" fill="#060056"/>
    <path id="Path_1651" data-name="Path 1651" d="M1738.934-3383.7v2.816h-38.017v-2.816Z" transform="translate(-22.804 -140.515)" fill="#060056"/>
    <path id="Path_1652" data-name="Path 1652" d="M1733.159-3311.822V-3309h-32.123v-2.822Z" transform="translate(-22.894 -194.806)" fill="#060056"/>
    <path id="Path_1653" data-name="Path 1653" d="M1700.9-3356.989v-2.819h21.865v2.819Z" transform="translate(-22.794 -158.56)" fill="#060056"/>
    <path id="Path_1654" data-name="Path 1654" d="M1700.908-3333.028v-2.822h21.865v2.822Z" transform="translate(-22.798 -176.656)" fill="#060056"/>
    <path id="Path_1655" data-name="Path 1655" d="M1700.933-3287.962H1722.8v2.84h-21.868Z" transform="translate(-22.816 -212.828)" fill="#060056"/>
    <path id="Path_1656" data-name="Path 1656" d="M1700.905-3261.138v-2.821h21.865v2.821Z" transform="translate(-22.795 -230.958)" fill="#060056"/>
    <path id="Path_1657" data-name="Path 1657" d="M1886.413-3337.925a16.142,16.142,0,0,1,16.176-16.085,16.145,16.145,0,0,1,16.061,16.2,16.153,16.153,0,0,1-16.132,16.042A16.149,16.149,0,0,1,1886.413-3337.925Zm16.075,13.227a13.22,13.22,0,0,0,13.231-13.1,13.212,13.212,0,0,0-13.146-13.278,13.212,13.212,0,0,0-13.229,13.1A13.215,13.215,0,0,0,1902.488-3324.7Z" transform="translate(-162.916 -162.939)" fill="#060056"/>
  </g>
</svg>
