<svg xmlns="http://www.w3.org/2000/svg" width="369.782" height="113.133" viewBox="0 0 369.782 113.133">
  <g id="Mask-Group-9111_Converted_" data-name="Mask-Group-9111 [Converted]" opacity="0.6">
    <g id="Group_16" data-name="Group 16" transform="translate(0 0)">
      <path id="Path_17" data-name="Path 17" d="M.794,1.95a167.815,167.815,0,0,0,36.92,28.212A295.2,295.2,0,0,0,84.836,51.657c14.045,5.031,28.308,9.432,42.6,13.715,38.285,11.418,76.976,21.6,116.193,29.29,18.78,3.761,37.729,6.6,56.67,9.421,23.339,3.524,46.743,6.668,69.994,10.732-2.722.2-5.372-.525-8.04-.909-33.914-5.422-68.008-9.678-101.837-15.621-34.88-6.211-69.4-14.378-103.5-23.968q-7.224-2-14.436-4.037A49.446,49.446,0,0,0,136.6,68.8a42.771,42.771,0,0,0,5.268,1.783A1070.022,1070.022,0,0,0,252.052,98.7c25.072,4.954,50.367,8.631,75.565,12.841a12.6,12.6,0,0,0,2.607.13c.015.188.05.564.065.752-18.412-3.037-36.87-5.786-55.244-9.018-49.845-8.481-98.9-21.2-147-36.694a27.257,27.257,0,0,0-2.753-.69,45.434,45.434,0,0,0,6.66,2.492,982.861,982.861,0,0,0,110.48,30.808c27.653,6,55.593,10.533,83.445,15.479-2.531.226-5-.483-7.473-.867-18.65-3.194-37.3-6.376-55.869-9.992A952.3,952.3,0,0,1,154.666,76.457c-13.949-4.406-27.76-9.233-41.59-13.983a11.617,11.617,0,0,0-2.86-.786c.265.368.767.422,1.15.625a952.925,952.925,0,0,0,113.781,35.8c26.69,6.545,53.7,11.671,80.711,16.683a21.875,21.875,0,0,1-5.9-.7c-17.02-3.259-34.09-6.284-51.022-10a914.635,914.635,0,0,1-104.775-29.34q-21.74-7.517-43.174-15.881a26.612,26.612,0,0,0-2.8-.893,50.362,50.362,0,0,0,6.273,2.787C128.6,70.778,153.1,79.9,178.035,87.7a930.889,930.889,0,0,0,93.782,23.96c5.107,1.112,10.26,2,15.356,3.156-2.442.2-4.8-.544-7.17-1.008-17.545-3.612-35.072-7.331-52.449-11.687q-25.467-6.355-50.524-14.221C153.523,80.54,130.395,72,107.616,62.634c-6.234-2.6-12.484-5.157-18.7-7.814a26.755,26.755,0,0,0-2.937-1.047,60.439,60.439,0,0,0,6.3,3.056A789.19,789.19,0,0,0,165.6,86.315c32.254,11.115,65.282,19.858,98.586,27.208,1.89.429,3.8.771,5.671,1.3a24.642,24.642,0,0,1-6.327-1c-32.641-7.212-65.025-15.736-96.669-26.548q-18.353-6.234-36.352-13.451c-15.184-6-30.083-12.7-44.937-19.47-2.619-1.135-5.138-2.511-7.853-3.416a36.034,36.034,0,0,0,6.07,3.278c12.9,6.43,25.931,12.615,39.159,18.343,34.182,14.8,69.66,26.452,105.679,35.854,8.477,2.251,17,4.313,25.517,6.426a17.439,17.439,0,0,1-2.327-.142c-47.015-11.173-93.441-25.5-137.546-45.394C100.756,63.19,87.5,56.53,74.17,50.012a57.322,57.322,0,0,0-6.806-3.117c.525.357,1.058.709,1.607,1.031,12.515,6.925,25.153,13.635,38.005,19.9C142.7,85.3,180.37,98.5,218.613,109.244c6.844,1.944,13.746,3.685,20.6,5.606-2.711.019-5.241-1.062-7.849-1.649-35.145-9.321-69.845-20.578-103.218-35.06-20.793-8.853-40.8-19.413-60.6-30.283a34.883,34.883,0,0,0-6.2-3.052,42.476,42.476,0,0,0,5.146,3.3c12.642,7.607,25.459,14.931,38.592,21.66A550.8,550.8,0,0,0,172.4,98.281q22.586,7.96,45.635,14.52c2.339.713,4.735,1.238,7.044,2.063a13.767,13.767,0,0,1-2.937-.414C185.025,104,148.443,91.3,113.628,74.643c-18.654-9.01-36.6-19.4-54.339-30.083A14.933,14.933,0,0,0,54.81,42.5c.667.514,1.35,1.012,2.067,1.461,12.791,8.067,25.364,16.5,38.569,23.891C118.279,80.609,142.373,90.97,166.9,99.98c13.359,4.912,26.886,9.348,40.49,13.516a32.859,32.859,0,0,1,4.241,1.442,16.987,16.987,0,0,1-2.515-.468c-16.514-5-32.9-10.444-49.048-16.526C136.035,88.792,112.4,78.4,90.112,65.514,78.1,58.647,66.574,50.994,54.96,43.5a16.857,16.857,0,0,0-5.483-2.891,48.73,48.73,0,0,0,5.886,4.459c11.855,8.462,23.768,16.886,36.372,24.213,21.8,12.722,44.953,22.982,68.491,32.031,12.757,4.908,25.7,9.3,38.672,13.589a12.79,12.79,0,0,1-2.5-.383c-15.1-4.927-30.1-10.188-44.845-16.073C125.782,88.182,100.565,76.254,77.287,61.1c-10.249-6.633-20.172-13.75-30.022-20.958a9.422,9.422,0,0,0-3.447-1.5A66.952,66.952,0,0,0,49.63,43.49c12.676,10.153,25.7,19.93,39.665,28.258,24.907,14.9,51.655,26.452,78.817,36.544,5.3,2.067,10.931,3.018,16.449,4.321,3.305.817,6.7,1.284,9.961,2.281-4.6.157-9.206.1-13.807-.027-3.018.261-5.786-1.281-8.792-1.242.844.487,1.7.955,2.534,1.457-2.327-.207-4.406-1.346-6.649-1.894a21.945,21.945,0,0,0-5.257-.755c2.04,1.212,4.379,1.691,6.595,2.462-3.182.046-6.415.3-9.555-.372a44.234,44.234,0,0,0-4.873-.479c.51.3,1.024.6,1.538.909-2.776-.452-5.422-1.584-8.27-1.557,1.077.51,2.163,1.012,3.213,1.587a9.818,9.818,0,0,1-4.9-.989,20.276,20.276,0,0,0-8.6-1.549c1.672.974,3.512,1.584,5.23,2.462-3.136-.261-5.659-2.592-8.815-2.761,1.936,1.112,4.126,1.691,6.024,2.88-3.907-.744-7.2-3.512-11.284-3.554,2.343,1.315,4.973,2.055,7.228,3.539a33.9,33.9,0,0,1-5.828-2.189A25.771,25.771,0,0,0,120,110.727c3.071,1.457,6.3,2.6,9.248,4.306-4.869-.936-8.838-4.7-13.888-4.923-36.847-3.646-73.671-7.722-110.25-13.535a14.941,14.941,0,0,1-4.57-1.07,17.127,17.127,0,0,1,2.262.169c35.248,5.617,70.726,9.632,106.232,13.2,2.255.226,4.5.51,6.767.579-3.57-1.76-7.028-4.026-11.035-4.636C71.6,100.394,38.419,95.851,5.483,89.861A16.417,16.417,0,0,1,.51,88.585a28.784,28.784,0,0,1,4.609.636C35.8,94.823,66.7,99.152,97.612,103.27c2.442.314,4.877.725,7.339.863-2.005-1.15-4.11-2.116-6.131-3.24a19.821,19.821,0,0,0-6.645-2.086Q48.338,91.577,4.751,82.918A12.574,12.574,0,0,1,.548,81.7a59.769,59.769,0,0,1,6.361,1.15c26.541,5.345,53.212,10,79.9,14.493a70.188,70.188,0,0,0,7.082,1.039c-2.347-1.288-4.655-2.642-7.017-3.9a36.3,36.3,0,0,0-8.631-2.45C53.871,86.99,29.489,81.94,5.226,76.365A15.992,15.992,0,0,1,.51,74.939a49.871,49.871,0,0,1,6.537,1.242q28.763,6.35,57.567,12.5c6.139,1.235,12.243,2.657,18.408,3.742-2.105-1.465-4.36-2.7-6.526-4.076a20.236,20.236,0,0,0-5.859-2.2C48.43,80.675,26.261,75.034,4.072,69.5A11.722,11.722,0,0,1,.51,68.221a45.307,45.307,0,0,1,6.162,1.4Q35.037,76.766,63.422,83.83c2.972.679,5.9,1.545,8.892,2.12-3.643-2.439-7.086-5.475-11.434-6.564C42.361,74.08,23.918,68.512,5.4,63.21A19.24,19.24,0,0,1,.51,61.5a47.163,47.163,0,0,1,6.867,1.741c15.935,4.536,31.809,9.275,47.709,13.926,2.3.667,4.582,1.411,6.921,1.929a42.942,42.942,0,0,0-7.159-5.161c-4.214-2.235-8.834-3.5-13.335-5C29.482,65,17.538,60.8,5.46,57.006c-1.687-.552-3.5-.89-4.95-1.971a34.95,34.95,0,0,1,5.4,1.534c15.579,5.088,31.1,10.345,46.667,15.471-1.607-1.461-3.282-2.845-4.908-4.283-2.2-1.894-5-2.837-7.649-3.919Q22.733,57.012,5.257,50.668A17.966,17.966,0,0,1,.51,48.613a45.589,45.589,0,0,1,6,1.967Q21.5,55.946,36.31,61.81c2.55.97,5.054,2.07,7.657,2.906-1.33-1.534-2.761-2.983-4.233-4.383-1.875-1.76-4.348-2.619-6.637-3.7Q19.167,50.265,4.981,44.479A15.21,15.21,0,0,1,.51,42.271a21.46,21.46,0,0,1,2.427.763c9.21,3.746,18.374,7.607,27.422,11.733,2.2.993,4.383,2.036,6.645,2.891-1.948-2.354-3.75-5.027-6.568-6.419q-12.36-6.6-25.084-12.48C3.7,37.954,1.867,37.409.51,36.109a28.737,28.737,0,0,1,4.471,1.848c6.4,2.995,12.791,6.02,19.064,9.275,2.3,1.1,4.505,2.412,6.871,3.374-1.561-2.055-2.952-4.375-5.169-5.8Q15.3,38.425,4.475,32.7c-1.4-.748-2.991-1.3-3.965-2.626a23.907,23.907,0,0,1,2.2.974C9.275,34.5,15.766,38.084,22.139,41.88q1.616.972,3.309,1.8C24.091,41.6,22.8,39.33,20.667,37.934,15.352,34.284,10,30.688,4.49,27.325c-1.4-.867-3-1.545-3.98-2.937a22.74,22.74,0,0,1,2.3,1.169q6.332,3.784,12.484,7.864c1.725,1.123,3.4,2.331,5.23,3.29-2.124-4.294-6.254-6.94-9.938-9.754-3.029-2.212-7-2.485-10.076-4.6,2.232.449,4.271,1.5,6.453,2.124-1.61-1.906-3.945-2.868-6.185-3.815C.79,19.837.794,19,.8,18.169A55.39,55.39,0,0,0,7.5,20.6C5.533,18.575,2.7,17.931.51,16.263q1.231.23,2.45.529A6.822,6.822,0,0,1,.529,13.909,30.219,30.219,0,0,0,6.3,16.539C4.8,14.588,2.209,14.2.51,12.517c.79.188,1.576.4,2.362.613-.694-.587-1.388-1.169-2.082-1.756,0-.775,0-1.549,0-2.327l1.281.261C1.637,8.844,1.208,8.384.782,7.92.79,5.93.786,3.94.794,1.95Zm1.051,8.412a5.184,5.184,0,0,0,2.707,1.929A8.607,8.607,0,0,0,1.844,10.362ZM4.2,16.6a9.806,9.806,0,0,0,4.946,3A9.538,9.538,0,0,0,4.2,16.6Zm8.742,1.342c-.318.429.4,1.012.763.625C14.026,18.138,13.3,17.552,12.944,17.943Zm-1.955.387c-.176.529,0,.721.548.579C11.714,18.38,11.533,18.184,10.989,18.33ZM1.871,19.5a20.768,20.768,0,0,0,8.907,4.371C8.389,21.47,5.1,20.258,1.871,19.5Zm12.316.261a3.26,3.26,0,0,0,1.768,1.334A13.263,13.263,0,0,0,14.187,19.756Zm-5.452.6a5.306,5.306,0,0,0,2.35,1.752A4.159,4.159,0,0,0,8.734,20.358Zm3.888.3c-.3.433.414,1.028.759.6C13.684,20.826,12.967,20.232,12.622,20.661Zm2.906,1.173a3.759,3.759,0,0,0,2.561,1.633A8.524,8.524,0,0,0,15.529,21.834ZM7.576,23.56a12.454,12.454,0,0,0,6.587,3.432C12.565,24.944,9.938,24.288,7.576,23.56Zm12.964.69c-.169.575.748,1.15,1.242.878C21.94,24.557,21.031,23.985,20.54,24.25Zm-2.991-.027a3.719,3.719,0,0,0,2.458,1.515A11.811,11.811,0,0,0,17.549,24.223Zm1.1,2A5.02,5.02,0,0,0,22.1,28.253,6.5,6.5,0,0,0,18.654,26.225Zm3.044-.008a5.23,5.23,0,0,0,2.741,1.361A5.56,5.56,0,0,0,21.7,26.217Zm3.5.188c-.307.437.429,1,.782.606C26.291,26.57,25.555,26.01,25.2,26.4ZM12.626,27.417a14.645,14.645,0,0,0,2.879,2.1A3.667,3.667,0,0,0,12.626,27.417Zm11.1.725c.472,1.254,1.794,1.6,2.96,1.883A11.615,11.615,0,0,0,23.722,28.142Zm3.071.226c-.046.648,1,1.12,1.549.893C28.381,28.621,27.346,28.107,26.794,28.368Zm-6.338.18a5.026,5.026,0,0,0,3.7,2.086A6.3,6.3,0,0,0,20.456,28.548Zm8.163,1.6a3.8,3.8,0,0,0,2.8,1.722A12.7,12.7,0,0,0,28.619,30.147Zm3.052.242c-.184.583.775,1.1,1.25.813C33.1,30.622,32.146,30.1,31.671,30.389Zm-6.369.127A6.146,6.146,0,0,0,29.14,32.5,6.155,6.155,0,0,0,25.3,30.515Zm-3.075.3c4.126,6.737,9.954,12.216,15.9,17.331,2.531,2.113,5.061,4.229,7.745,6.142C39.4,46.937,32.35,40.112,25.916,32.731A7.451,7.451,0,0,0,22.227,30.81Zm-3.236,1.024c-.249.514.395,1.365.959,1.208C20.2,32.524,19.555,31.681,18.991,31.834Zm11.564.506a4.715,4.715,0,0,0,3.355,1.848A9.922,9.922,0,0,0,30.555,32.34Zm3.42.2c-.027.59.805.84,1.265,1.012.537.242.56-.437.13-.579C34.976,32.724,34.462,32.344,33.975,32.54Zm-6.518.207a69.923,69.923,0,0,0,4.708,5.617c6.2,6.959,12.664,13.684,19.516,20.007,7.473,6.672,16.357,11.445,24.988,16.422a89.338,89.338,0,0,0,9.708,4.965A27.114,27.114,0,0,0,83.349,77.6a246.611,246.611,0,0,1-21.7-15c-10.755-8.462-20.5-18.109-30.156-27.775A8.039,8.039,0,0,0,27.457,32.747Zm8.393,1.706a6.944,6.944,0,0,0,3.175,1.591A11.065,11.065,0,0,0,35.85,34.453Zm2.511-.123a12.079,12.079,0,0,0,2.523,1.2A9.474,9.474,0,0,0,38.362,34.33Zm-5.64.372C38.576,40.856,44.715,46.749,51,52.458a222.406,222.406,0,0,0,34.01,25.494,140.094,140.094,0,0,0,14.053,7.783c6.553,3.148,13.382,5.663,20.191,8.182,3.029,1.031,6.012,2.235,9.125,3-.621-.349-1.246-.682-1.883-.989-18.9-8.673-37.411-18.377-54.465-30.325C59.68,56.933,48.323,46.956,37.089,36.9A8.752,8.752,0,0,0,32.721,34.7Zm8.24,1.591a6.377,6.377,0,0,0,3.351,1.584A18.456,18.456,0,0,0,40.961,36.293Zm-19.018-.061a7.294,7.294,0,0,0,3.65,4.041A9.632,9.632,0,0,0,21.943,36.232Zm16.407.475a58.543,58.543,0,0,0,5.172,4.866q10.8,9.582,22.173,18.481c20.77,15.9,44.186,27.944,68.012,38.561,3.957,1.848,8.236,2.83,12.388,4.137,6.131,1.745,12.227,3.712,18.492,4.931-2.987-1.518-6.215-2.485-9.3-3.777C129.674,93.838,104.506,82.3,81.251,67.5c-13.493-8.623-26.119-18.5-38.557-28.557A9.186,9.186,0,0,0,38.35,36.707Zm8.4,1.948c0,.6,1.012.943,1.484.648C48.254,38.7,47.223,38.36,46.755,38.655Zm-20.724,3.29a9.828,9.828,0,0,0,5.238,5.226A13.232,13.232,0,0,0,26.031,41.945Zm2.987.165A1.288,1.288,0,0,0,30.256,43.5,1.339,1.339,0,0,0,29.018,42.11ZM33.4,47.175A5.505,5.505,0,0,0,36,49.92,11.447,11.447,0,0,0,33.4,47.175Zm-2.872.813c1.208,2.987,3.984,4.866,6.863,6.027A14.2,14.2,0,0,0,30.524,47.988Zm6.982,4.2c1.415,1.729,2.822,3.616,4.889,4.609A13.7,13.7,0,0,0,37.507,52.19Zm4.145,1.02c-.165.571.686,1.212,1.215,1C43.02,53.651,42.177,53.007,41.651,53.21ZM35.7,54.364A31.866,31.866,0,0,0,39.09,58.3a14.819,14.819,0,0,0,5.337,2.684C42,58.217,39.27,55.556,35.7,54.364Zm9.873,2.607A9.588,9.588,0,0,0,51.2,61.243,40.9,40.9,0,0,0,45.57,56.971Zm-1.764,1.561a11.736,11.736,0,0,0,5.452,4.689A27.769,27.769,0,0,0,43.806,58.532ZM41.161,60.5c1.5,1.538,3.048,3.033,4.62,4.5,1.691,1.568,3.991,2.143,6.146,2.772-1.38-1.212-2.73-2.458-4.072-3.7A19.42,19.42,0,0,0,41.161,60.5Zm68,.732.015.353.318.146.184-.472-.207-.192Zm-55,1.2a10.532,10.532,0,0,0,3.32,2.408A10.62,10.62,0,0,0,54.163,62.439Zm-2.347.414a14.983,14.983,0,0,0,7.415,4.962A24.066,24.066,0,0,0,51.816,62.853Zm-1.929,1.718a16.142,16.142,0,0,0,6.986,5.18A22.234,22.234,0,0,0,49.887,64.571Zm-1.511,2.761q2.427,2.013,4.808,4.083A16.71,16.71,0,0,0,60.642,74.7c-1.6-1.346-3.271-2.6-4.885-3.919A21.8,21.8,0,0,0,48.377,67.331ZM60.063,67.2a12.46,12.46,0,0,0,4.517,3.117A11.551,11.551,0,0,0,60.063,67.2Zm-1.729,1.254a18.191,18.191,0,0,0,9.026,5.5A23.217,23.217,0,0,0,58.334,68.451Zm-1.158,2.274a22.926,22.926,0,0,0,9.149,5.928C63.472,74.406,60.612,72.028,57.176,70.725Zm10.3,1.906A15.534,15.534,0,0,0,73.1,76.246,17.8,17.8,0,0,0,67.479,72.63Zm3.309.2c-.042.656.989,1.219,1.58,1C72.36,73.19,71.371,72.68,70.788,72.83ZM57.172,74.383c1.741,1.472,3.639,2.745,5.452,4.129a18.317,18.317,0,0,0,7.718,2.995c-1.783-1.3-3.6-2.557-5.372-3.88A22.5,22.5,0,0,0,57.172,74.383Zm8.849-.015c3.343,2.7,7,5.333,11.361,5.989C73.825,77.979,70.236,75.445,66.022,74.367Zm11.142,2.7a14.006,14.006,0,0,0,5.7,3.071A18.943,18.943,0,0,0,77.164,77.067Zm-10.372.7c2.88,2.289,5.87,4.8,9.578,5.533C73.357,81.181,70.374,78.838,66.793,77.764Zm8.9.5a19.848,19.848,0,0,0,6.116,3.581A15.6,15.6,0,0,0,75.7,78.267Zm-.376,2.37c1.729,1.269,3.566,2.4,5.4,3.508a21.142,21.142,0,0,0,6.963,2.373C83.794,84.118,79.917,81.438,75.32,80.636Zm-8.409.725c2.013,1.526,4.179,2.826,6.288,4.21,2.354,1.545,5.192,2.005,7.91,2.5-1.821-1.131-3.673-2.209-5.445-3.412A22.926,22.926,0,0,0,66.911,81.361Zm17.526.245a29.617,29.617,0,0,0,9.62,4.5A43.224,43.224,0,0,0,84.438,81.606ZM75.757,83.8a67.923,67.923,0,0,0,6.5,4.164,11.407,11.407,0,0,0,4.6,1.553C83.268,87.415,79.9,84.7,75.757,83.8Zm9.616.268A19.2,19.2,0,0,0,92.24,87.71,34.352,34.352,0,0,0,85.373,84.068ZM95.626,86a15.95,15.95,0,0,0,5.521,2.492A16.6,16.6,0,0,0,95.626,86Zm-10.786.556c1.848,1.1,3.719,2.17,5.579,3.263a20.787,20.787,0,0,0,7.964,2.412q-2.646-1.38-5.245-2.857A29.2,29.2,0,0,0,84.84,86.552Zm9.1.33c3.156,1.929,6.511,3.8,10.234,4.294A39.718,39.718,0,0,0,93.943,86.882ZM77.249,87.975c1.771,1.2,3.6,2.308,5.422,3.432a22.681,22.681,0,0,0,9.206,2.784c-1.963-1.12-3.961-2.189-5.882-3.382A21.94,21.94,0,0,0,77.249,87.975ZM95.63,89.789a16.672,16.672,0,0,0,5.851,2.956A28.415,28.415,0,0,0,95.63,89.789Zm-9.2.472c1.955,1.319,4.049,2.416,6.1,3.585a13.586,13.586,0,0,0,4.651,1.5C93.832,93.22,90.419,90.881,86.428,90.26Zm17.7-.011a23.32,23.32,0,0,0,7.707,3.205A26.343,26.343,0,0,0,104.13,90.249Zm-4.862.406a29.538,29.538,0,0,0,7.35,3.643A44.145,44.145,0,0,0,99.269,90.655ZM95.085,92.3c3.807,1.99,7.507,4.632,11.921,4.981-.433.238-.882.452-1.327.659,2.577,1.074,4.942,2.615,7.6,3.516a19.977,19.977,0,0,0,6.288,1.177c-1.741-.893-3.489-1.76-5.245-2.615a25.414,25.414,0,0,0-7.534-2.074,5.455,5.455,0,0,1,2.155-.468c-2.431-1-4.636-2.477-7.086-3.432A32.692,32.692,0,0,0,95.085,92.3Zm9.394-.15c3.225,2.511,7.3,3.274,11.073,4.563-.008-.226-.015-.686-.019-.913,1.2.5,2.4,1.008,3.635,1.442a10.447,10.447,0,0,0-5.031-2.224c.061.065.188.2.249.268a1.5,1.5,0,0,1,.272.652C111.354,94.474,108.1,92.714,104.479,92.154ZM87.513,94.06c2.224,1.453,4.628,2.588,6.913,3.926,2.465,1.5,5.445,1.48,8.209,1.94-2.228-1.292-4.532-2.439-6.8-3.658C93.287,94.85,90.331,94.574,87.513,94.06Zm28.289.134a10.975,10.975,0,0,0,4.482,1.522A17.832,17.832,0,0,0,115.8,94.194Zm-9.843,1a14.919,14.919,0,0,0,4.375,2.155A16.145,16.145,0,0,0,105.959,95.195Zm-9.187.786c1.986,1.3,4.145,2.3,6.223,3.432a11.759,11.759,0,0,0,4.835,1.342c-2.032-1.212-4.176-2.212-6.254-3.34A12.507,12.507,0,0,0,96.773,95.981Zm13.075.008a18.453,18.453,0,0,0,7.066,3.221A30.786,30.786,0,0,0,109.847,95.989Zm4.064.9c3.761,2.009,7.749,3.815,12.051,4.179A36.734,36.734,0,0,0,113.912,96.89Zm10.659,1.07a21.459,21.459,0,0,0,7.159,2.335A22.583,22.583,0,0,0,124.571,97.959ZM98.137,99.934c2.293,1.212,4.628,2.347,6.909,3.577,2.569,1.518,5.652,1.43,8.52,1.791-2.255-1.192-4.555-2.293-6.836-3.428C104.077,100.5,101.044,100.31,98.137,99.934Zm18.876.9c.943.387,1.89.778,2.845,1.162-.3-.311-.886-.932-1.177-1.246,2.868.993,5.448,2.918,8.573,3.067a34.728,34.728,0,0,0-7.1-3.14A6.075,6.075,0,0,0,117.013,100.831Zm12.032-.2a13.163,13.163,0,0,0,5.088,2.036A26.5,26.5,0,0,0,129.045,100.628Zm5.916.123a9.465,9.465,0,0,0,3.754,1.085A21.76,21.76,0,0,0,134.962,100.751Zm-27.633.721c2.1,1.177,4.3,2.178,6.442,3.274a11.666,11.666,0,0,0,4.939,1.223C115.027,104.228,111.465,101.916,107.328,101.471Zm26.127.046a20.452,20.452,0,0,0,8.566,2.646A31.67,31.67,0,0,0,133.455,101.518Zm-8.964.1c3.6,1.986,7.561,3.65,11.729,3.723A32.506,32.506,0,0,0,124.49,101.617Zm-10.253,1.357a27.79,27.79,0,0,0,6.135,2.822A24.129,24.129,0,0,0,114.237,102.975Zm2.266.019c3.382,1.948,6.955,3.777,10.9,4.175l.7.307-.69.571c2.607,1.261,5.176,2.722,8.037,3.336a20.645,20.645,0,0,0,5.142.4,46.107,46.107,0,0,0-7.4-3.064c-1.384-.429-2.857-.495-4.233-.947.51-.13,1.024-.249,1.538-.357C126.039,105.409,121.523,103.04,116.5,102.994Zm19.608.844c2.473,1.189,4.973,2.8,7.837,2.653A29.1,29.1,0,0,0,136.112,103.837Zm7.017-.015a16.807,16.807,0,0,0,4.915,1.568A12.374,12.374,0,0,0,143.128,103.822Zm-14.919,1.066c3.248,1.472,6.445,3.643,10.153,3.52C135.111,106.924,131.86,105.06,128.209,104.888Zm14.781.487c3.025,1.307,6.173,2.573,9.513,2.653A23.924,23.924,0,0,0,142.99,105.375Zm-33.423.257c2.124,1.223,4.363,2.224,6.58,3.267,2.527,1.2,5.376,1.273,8.117,1.4-2.178-1.162-4.455-2.132-6.687-3.186A19.95,19.95,0,0,0,109.567,105.632ZM134.7,106c3.7,2.013,7.83,3.608,12.109,3.512C142.99,107.76,138.972,106.08,134.7,106Zm19.474.51a21.3,21.3,0,0,0,4.133,1.028A11.607,11.607,0,0,0,154.179,106.51Zm-35.793.288c3.386,1.695,6.8,3.692,10.663,3.957-2.132-1.208-4.413-2.109-6.626-3.156A8.957,8.957,0,0,0,118.386,106.8Zm26.506.828c3.213,1.549,6.614,3.094,10.264,2.96C151.851,109.263,148.5,107.786,144.892,107.625Zm-20.049.284a22.728,22.728,0,0,0,6.61,2.826A25.124,25.124,0,0,0,124.843,107.909Zm33.082.541c.065.579.943.682,1.422.755.564.138.548-.529.054-.583C158.945,108.469,158.385,108.193,157.925,108.45Zm-19.785.832c3.42,1.4,6.779,3.643,10.632,3.324C145.4,111.061,141.948,109.27,138.14,109.282Zm15.184-.207a17.611,17.611,0,0,0,9.072,2.435A20.829,20.829,0,0,0,153.324,109.075Zm9.582.1a13.3,13.3,0,0,0,5.307,1.384A22.266,22.266,0,0,0,162.905,109.178Zm-17.76,1.066c3.554,1.909,7.55,3.5,11.656,3.094C153.132,111.655,149.267,110.06,145.145,110.244Zm18.458.414a14.721,14.721,0,0,0,7.013,1.925A22.5,22.5,0,0,0,163.6,110.658Zm8.466.418a19.43,19.43,0,0,0,3.88.855A12.168,12.168,0,0,0,172.069,111.076Zm-17.615.406c3.286,1.618,6.875,2.952,10.6,2.73C161.705,112.767,158.17,111.314,154.455,111.483Zm16.526.418a17.861,17.861,0,0,0,7.534,1.729A25.019,25.019,0,0,0,170.98,111.9Z" transform="translate(-0.51 -1.95)" fill="#fff"/>
    </g>
    <path id="Path_18" data-name="Path 18" d="M860.88,289.622c.245-.2.495-.406.748-.6,2.358.521,4.758.824,7.136,1.25a16.089,16.089,0,0,0,3.857.33c0,.184.012.552.015.736C868.717,290.768,864.841,289.8,860.88,289.622Z" transform="translate(-530.993 -178.951)" fill="#fff"/>
    <path id="Path_19" data-name="Path 19" d="M891.88,294.64c.242-.207.487-.41.74-.61,1.542.334,3.1.556,4.651.874C895.465,294.954,893.674,294.751,891.88,294.64Z" transform="translate(-550.107 -182.04)" fill="#fff"/>
  </g>
</svg>
