<svg xmlns="http://www.w3.org/2000/svg" width="112.136" height="112.203" viewBox="0 0 112.136 112.203">
  <g id="marriage" transform="translate(1127.243 3473.834)">
    <path id="Path_1085" data-name="Path 1085" d="M-1023.3-3239.893c-1.5-1.881-2.949-3.8-4.518-5.6a1.927,1.927,0,0,1-.172-2.726c1.141-1.716,2.164-3.513,3.188-5.3a2.088,2.088,0,0,1,2.062-1.191q6.193.079,12.387,0a1.984,1.984,0,0,1,1.959,1.128c1.111,1.94,2.249,3.865,3.439,5.757a1.455,1.455,0,0,1-.11,1.959c-1.6,1.957-3.151,3.956-4.7,5.915,1.661,1.034,3.37,1.92,4.879,3.068a18.906,18.906,0,0,1,6.189,21.521,18.963,18.963,0,0,1-19.021,12.43,20.252,20.252,0,0,1-7.078-1.776,2.244,2.244,0,0,0-1.644.026,19.017,19.017,0,0,1-27.153-16.135c-.895-11.742,9.855-21.746,21.472-19.925a17.179,17.179,0,0,1,4.809,1.331A3.567,3.567,0,0,0-1023.3-3239.893Zm1.507-1.3c1.423,2.324,1.423,2.324-1.018,3.263-.04.015-.081.028-.121.043a17.214,17.214,0,0,0-10.341,20.06,17.241,17.241,0,0,0,18.689,13.008c7.824-1,14.207-7.269,15.045-14.777a17.245,17.245,0,0,0-11.158-18.493c-2.177-.825-2.179-.833-.834-2.8.037-.054,0-.156,0-.3Zm-9.582,7.094a12.521,12.521,0,0,0-14.235,5.875,12.742,12.742,0,0,0,1.854,15.129c3.506,3.638,9.419,4.728,12.305,3.236C-1037.078-3217.9-1037.064-3225.953-1031.378-3234.1Zm3.641-3.4c-5.2-2.928-14.545-2.2-20.214,4.72a17.226,17.226,0,0,0,1.344,23.206c5.949,5.9,15.107,5.742,18.818,3.178-1.068-1.165-2.1-1.861-3.951-1.373a13.989,13.989,0,0,1-5.479.084c-8.01-1.2-13.213-9.053-11.606-17.326,1.47-7.568,9.487-12.888,17.036-11.073A3.607,3.607,0,0,0-1027.737-3237.5Zm8.044-8.356c1.223,3.479.166,2.658,4.582,2.675,1.509.006,1.063-1.706,1.8-2.675Zm3.1-6.257-2.8,4.2h5.611Zm-8.915,6.222c1.46,2.676,2.437,3.189,4.666,2.487a11.837,11.837,0,0,0-.61-1.526c-.2-.363-.527-.881-.843-.917A29.171,29.171,0,0,0-1025.509-3245.894Zm17.87.157c-3.428-.608-4-.295-4.4,2.33C-1009.7-3242.983-1009.447-3243.115-1007.639-3245.738Zm-10.776-6.983h-3.777l1.262,3.728Zm6.174,3.736,1.25-3.759h-3.791Zm-10.3,1.091-1.241-3.693-2.2,3.693Zm15.384.035-2.26-3.728-1.211,3.728Z" transform="translate(-54.595 -162.553)" fill="#1f1967"/>
    <path id="Path_1086" data-name="Path 1086" d="M-1039.23-3431.5q18.651,0,37.3,0c3.624,0,6.043,1.4,7.088,4.276a10.8,10.8,0,0,1,.516,3.534c.051,5.68.023,11.36.023,17.04q0,16.847.012,33.693a7.739,7.739,0,0,1-1.693,5.525,6.142,6.142,0,0,1-4.6,2.275c-6.711.047-13.423.03-20.135.037-.655,0-1.362-.141-1.172-.936a1.616,1.616,0,0,1,1.262-.839c6.281-.055,12.563-.035,18.845-.038,3.665,0,5.661-1.987,5.662-5.66q.006-25.754,0-51.508c0-3.548-2.052-5.58-5.634-5.58q-37.5,0-74.993,0c-3.543,0-5.6,2.065-5.6,5.623q-.006,25.819,0,51.638c0,3.4,2.068,5.457,5.453,5.5.773.01,1.993-.4,1.97.936-.021,1.228-1.189.853-1.933.854-4.681.008-7.3-2.741-7.31-7.708q-.026-19.687,0-39.374c0-3.83-.009-7.659,0-11.489.013-5.153,2.645-7.8,7.773-7.8Q-1057.817-3431.508-1039.23-3431.5Z" transform="translate(-31.945 -31.404)" fill="#1f1967"/>
    <path id="Path_1087" data-name="Path 1087" d="M-1018.245-3403.286c9.895,0,19.79.019,29.685-.02,1.3-.005,2.018.31,2.416,1.681a5.749,5.749,0,0,0,4.108,3.943,1.643,1.643,0,0,1,1.384,1.825q-.034,18.459-.006,36.918a1.623,1.623,0,0,1-1.32,1.861,6.193,6.193,0,0,0-4.341,4.385c-.2.636-.409,1.338-1.272,1.081-.846-.252-.7-.932-.5-1.6a7.849,7.849,0,0,1,4.467-5.2,1.5,1.5,0,0,0,1.065-1.618q-.048-17.361.01-34.723a1.417,1.417,0,0,0-.993-1.545,7.569,7.569,0,0,1-4.11-4.077,1.422,1.422,0,0,0-1.518-1.021q-29.1.036-58.208,0a1.417,1.417,0,0,0-1.561.963,8.249,8.249,0,0,1-4.279,4.272,1.645,1.645,0,0,0-.808,1.192c-.034,11.746-.006,23.493-.032,35.239,0,.812.429,1.019.99,1.267a7.619,7.619,0,0,1,4.536,5.422c.1.422-.329.972-.514,1.463-.4-.3-1.041-.516-1.157-.9a6.419,6.419,0,0,0-4.692-4.686,1.353,1.353,0,0,1-1.066-1.527c.019-1.936.006-3.873.006-5.809,0-10.37.014-20.74-.019-31.109a1.837,1.837,0,0,1,1.51-2.126,5.792,5.792,0,0,0,4.089-4.132c.352-1.265,1.089-1.441,2.185-1.439Q-1033.216-3403.269-1018.245-3403.286Z" transform="translate(-52.873 -52.321)" fill="#1f1967"/>
    <path id="Path_1088" data-name="Path 1088" d="M-938.444-3283.332c-2.865-.276-5.729-.558-8.595-.822-.71-.065-1.41-.283-1.228-1.085.075-.33.9-.71,1.367-.693,3.429.124,6.859.566,10.281.493a51.781,51.781,0,0,0,31.153-11.116,52.726,52.726,0,0,0,20.105-32.219,53.086,53.086,0,0,0-5.515-36.584,5.391,5.391,0,0,1-.709-1.364,5.578,5.578,0,0,1,.133-1.566c.481.215,1.2.3,1.405.666a53.831,53.831,0,0,1,3.231,6.445c7.913,20.6,5.4,39.837-8.36,57.145-9.317,11.718-21.788,18.3-36.692,20.133-1.108.136-2.225.207-3.34.282-1.072.072-2.146.111-3.219.164Z" transform="translate(-132.753 -78.299)" fill="#1f1967"/>
    <path id="Path_1089" data-name="Path 1089" d="M-1127.243-3341.881a57,57,0,0,1,7.591-26.76c.172-.3.286-.692.544-.86.31-.2.848-.388,1.1-.248a1.2,1.2,0,0,1,.415,1.054,5.576,5.576,0,0,1-.733,1.493,52.647,52.647,0,0,0-6.994,26.865,53.232,53.232,0,0,0,12.812,34.691q.538.643,1.092,1.271c.456.52.675,1.15-.018,1.508a1.488,1.488,0,0,1-1.371-.352c-1.577-1.871-3.178-3.739-4.559-5.753a54.321,54.321,0,0,1-9.609-27.51C-1127.093-3338.278-1127.155-3340.08-1127.243-3341.881Z" transform="translate(0 -77.18)" fill="#1f1967"/>
    <path id="Path_1090" data-name="Path 1090" d="M-994.659-3473.834a56.524,56.524,0,0,1,27.179,7.068c.633.347,1.309.72.811,1.567-.461.784-1.1.381-1.682.065a54.132,54.132,0,0,0-21.92-6.616,53.6,53.6,0,0,0-28.157,5.325c-1.39.674-2.7,1.526-4.1,2.162-.413.187-1.033-.085-1.559-.147.235-.482.339-1.183.724-1.414a54,54,0,0,1,23.174-7.647C-998.35-3473.639-996.5-3473.716-994.659-3473.834Z" transform="translate(-76.526)" fill="#1f1967"/>
    <path id="Path_1091" data-name="Path 1091" d="M-888.745-3299.062q-5.667,0-11.334,0a2.528,2.528,0,0,1-1.138-.082,1.394,1.394,0,0,1-.654-.935c-.021-.246.373-.651.668-.769a3.555,3.555,0,0,1,1.269-.1q11.334-.007,22.668,0c.129,0,.258,0,.386,0,.726.026,1.659-.068,1.645.953-.014.992-.915.942-1.661.942Q-882.821-3299.067-888.745-3299.062Z" transform="translate(-167.193 -128.247)" fill="#1f1967"/>
    <path id="Path_1092" data-name="Path 1092" d="M-888.465-3278.068q5.678,0,11.358,0a3.236,3.236,0,0,1,1.265.132,1.153,1.153,0,0,1,.626.823,1.209,1.209,0,0,1-.635.832,2.668,2.668,0,0,1-1.137.109q-11.551.007-23.1,0a2.2,2.2,0,0,1-1.013-.069c-.322-.188-.718-.583-.721-.891s.405-.7.73-.863a2.748,2.748,0,0,1,1.143-.078Q-894.208-3278.071-888.465-3278.068Z" transform="translate(-167.228 -145.217)" fill="#1f1967"/>
    <path id="Path_1093" data-name="Path 1093" d="M-1008.117-3276.208q-5.677,0-11.353,0a2.61,2.61,0,0,1-1.139-.095,1.432,1.432,0,0,1-.715-.895c-.033-.236.366-.658.662-.782a3.38,3.38,0,0,1,1.266-.125q11.418-.009,22.835,0c.3,0,.669-.1.888.04a6.314,6.314,0,0,1,.989.946c-.35.3-.683.843-1.051.868-1.5.1-3.007.049-4.512.049Q-1004.182-3276.206-1008.117-3276.208Z" transform="translate(-78.575 -145.173)" fill="#1f1967"/>
    <path id="Path_1094" data-name="Path 1094" d="M-1008.087-3299.136q-5.742,0-11.484,0a2.567,2.567,0,0,1-1.133-.122,1.186,1.186,0,0,1-.6-.844,1.157,1.157,0,0,1,.652-.8,3.373,3.373,0,0,1,1.268-.124q11.42-.009,22.84,0c.3,0,.666-.091.888.045a6.447,6.447,0,0,1,1,.932c-.347.3-.679.846-1.043.868-1.629.1-3.267.048-4.9.049Z" transform="translate(-78.588 -128.173)" fill="#1f1967"/>
    <path id="Path_1095" data-name="Path 1095" d="M-925.328-3369.665a5.293,5.293,0,0,1-5.363-5.282,5.349,5.349,0,0,1,5.352-5.312,5.33,5.33,0,0,1,5.3,5.238A5.3,5.3,0,0,1-925.328-3369.665Zm3.382-5.233a3.421,3.421,0,0,0-3.336-3.52,3.453,3.453,0,0,0-3.508,3.35,3.38,3.38,0,0,0,3.4,3.561A3.375,3.375,0,0,0-921.946-3374.9Z" transform="translate(-145.813 -69.419)" fill="#1f1967"/>
    <path id="Path_1096" data-name="Path 1096" d="M-888.5-3321.744q-5.807,0-11.614,0a2.833,2.833,0,0,1-1.144-.077,1.171,1.171,0,0,1-.612-.828,1.2,1.2,0,0,1,.6-.832,2.232,2.232,0,0,1,1.013-.077q11.679,0,23.357,0c.172,0,.386-.065.509.013.418.269.8.588,1.2.888-.391.3-.771.854-1.176.873-1.974.092-3.956.044-5.934.044Z" transform="translate(-167.196 -111.461)" fill="#1f1967"/>
    <path id="Path_1097" data-name="Path 1097" d="M-1008.1-3321.68q-5.936,0-11.872,0c-.714,0-1.51.018-1.48-.952.027-.865.775-.872,1.451-.871q11.872.007,23.744.007c.678,0,1.5-.11,1.461.948-.034.948-.791.861-1.433.862Q-1002.161-3321.674-1008.1-3321.68Z" transform="translate(-78.484 -111.526)" fill="#1f1967"/>
    <path id="Path_1098" data-name="Path 1098" d="M-865.847-3361.49c-2.711,0-5.421,0-8.132,0a3.375,3.375,0,0,1-1.272-.108,1.134,1.134,0,0,1-.61-.822,1.248,1.248,0,0,1,.584-.871,2.157,2.157,0,0,1,1.012-.077q8.326-.006,16.651,0c.215,0,.486-.078.635.022a11.748,11.748,0,0,1,1.08.911c-.347.308-.657.806-1.05.884a12.171,12.171,0,0,1-2.315.062q-3.291,0-6.583,0Z" transform="translate(-186.49 -81.922)" fill="#1f1967"/>
    <path id="Path_1099" data-name="Path 1099" d="M-1011.51-3361.417c-2.794,0-5.588.007-8.382,0-.691,0-1.531.021-1.5-.96.032-.951.851-.913,1.554-.913q8.447,0,16.894,0c.716,0,1.5-.007,1.484.967-.014,1.006-.873.91-1.539.914-2.837.02-5.674.008-8.511.008Z" transform="translate(-78.526 -82.003)" fill="#1f1967"/>
    <path id="Path_1100" data-name="Path 1100" d="M-937.225-3169.264a14.432,14.432,0,0,1-14.48,14.526,14.431,14.431,0,0,1-14.521-14.61,14.392,14.392,0,0,1,14.349-14.369A14.388,14.388,0,0,1-937.225-3169.264Zm-17.709,12.128c4.093,1.7,10.064-.3,13.181-4.315a12.563,12.563,0,0,0,.124-15.429c-3.175-4.161-9.075-6.166-13.289-4.454C-949.313-3173.307-949.276-3165.25-954.934-3157.136Zm-5.769-3.384c4.786-4.508,4.777-13.207-.02-17.421C-965.575-3174.308-965.564-3164.235-960.7-3160.52Zm1.44-18.791a14.722,14.722,0,0,1,3.995,10.155,15.057,15.057,0,0,1-4.059,10.111l2.258,1.309c.333-.366.608-.635.844-.934a17.17,17.17,0,0,0,.576-20.346C-957.062-3181.029-957.231-3181.047-959.264-3179.311Z" transform="translate(-119.451 -215.225)" fill="#1f1967"/>
  </g>
</svg>
