<svg xmlns="http://www.w3.org/2000/svg" width="88.793" height="89.333" viewBox="0 0 88.793 89.333">
    <g data-name="Group 355" transform="translate(1.5 1.5)">
        <path data-name="Path 7237" d="M64.112 44.5V5.255A3.255 3.255 0 0 0 60.856 2H5.423A3.27 3.27 0 0 0 2.15 5.255v79.823a3.27 3.27 0 0 0 3.273 3.255h55.433a2.966 2.966 0 0 0 1.385-.324" transform="translate(-2.15 -2)" style="fill:none;stroke:#130e5f;stroke-linecap:round;stroke-linejoin:round;stroke-miterlimit:10;stroke-width:3px"/>
        <path data-name="Path 7238" d="M6.5 9.1h46.316" transform="translate(1.326 3.669)" style="fill:none;stroke:#130e5f;stroke-linecap:round;stroke-linejoin:round;stroke-miterlimit:10;stroke-width:3px"/>
        <path data-name="Path 7239" d="M6.5 16.038h46.316" transform="translate(1.326 9.211)" style="fill:none;stroke:#130e5f;stroke-linecap:round;stroke-linejoin:round;stroke-miterlimit:10;stroke-width:3px"/>
        <path data-name="Path 7240" d="M6.5 22.977h46.316" transform="translate(1.326 14.752)" style="fill:none;stroke:#130e5f;stroke-linecap:round;stroke-linejoin:round;stroke-miterlimit:10;stroke-width:3px"/>
        <path data-name="Path 7241" d="M32.648 29.92H6.5" transform="translate(1.324 20.297)" style="fill:none;stroke:#130e5f;stroke-linecap:round;stroke-linejoin:round;stroke-miterlimit:10;stroke-width:3px"/>
        <circle data-name="Ellipse 93" cx="21.958" cy="21.958" transform="translate(41.878 42.417)" style="fill:none;stroke:#130e5f;stroke-linecap:round;stroke-linejoin:round;stroke-miterlimit:10;stroke-width:3px" r="21.958"/>
        <ellipse data-name="Ellipse 94" cx="4.496" cy="4.497" rx="4.496" ry="4.497" transform="translate(59.339 59.879)" style="fill:none;stroke:#130e5f;stroke-linecap:round;stroke-linejoin:round;stroke-miterlimit:10;stroke-width:3px"/>
        <path data-name="Path 7242" d="M37.64 39.579V29.92" transform="translate(26.193 20.297)" style="fill:none;stroke:#130e5f;stroke-linecap:round;stroke-linejoin:round;stroke-miterlimit:10;stroke-width:3px"/>
        <path data-name="Path 7243" d="M38.334 37.79H31.14" transform="translate(21.002 26.582)" style="fill:none;stroke:#130e5f;stroke-linecap:round;stroke-linejoin:round;stroke-miterlimit:10;stroke-width:3px"/>
    </g>
</svg>
