<svg xmlns="http://www.w3.org/2000/svg" width="82.402" height="36.405" viewBox="0 0 82.402 36.405">
  <path id="Path_921" data-name="Path 921" d="M2.378,23.681A1.374,1.374,0,0,0,1,25.055V53.033a1.374,1.374,0,0,0,1.374,1.374H17.41a1.374,1.374,0,0,0,1.374-1.374V51.011L44.446,59.7q.053.016.107.027a11.484,11.484,0,0,0,9.039-1.442L80.167,43.848h.022l.651-.371a5.095,5.095,0,0,0-1.616-9.424v-.011a5.509,5.509,0,0,0-2.357.179,1.372,1.372,0,0,0-.135.058l-14.65,6.795a5.3,5.3,0,0,0,.06-.552,5.643,5.643,0,0,0-5.657-5.6h-12.2c-.049-.093-.11-.225-.159-.313a13.776,13.776,0,0,0-2.437-3.2,14.268,14.268,0,0,0-10.007-4.05h-12.9V25.055a1.374,1.374,0,0,0-1.374-1.374H2.378Zm1.374,2.748H16.036V51.659H3.752ZM18.781,30.11h12.9a11.488,11.488,0,0,1,9.471,4.915c.2.3.4.6.569.918a9.968,9.968,0,0,1,.478.9l.354.833h13.93a2.843,2.843,0,0,1,2.91,2.849,2.8,2.8,0,0,1-1.758,2.618l-.019.005a3.054,3.054,0,0,1-1.132.22H37.376v2.748H56.486a5.61,5.61,0,0,0,1.643-.275,1.374,1.374,0,0,0,.473-.118l19.172-8.891a2.7,2.7,0,0,1,1.052-.063c.591.082,1.154.247,1.665,1.448a2.245,2.245,0,0,1-1.006,2.866l-.643.357-26.671,14.5q-.058.032-.113.069a9.1,9.1,0,0,1-6.825,1.063h-.006L18.783,48.112v-18Z" transform="translate(-1.004 -23.681)" fill="#fff"/>
</svg>
