<svg xmlns="http://www.w3.org/2000/svg" width="121.767" height="66.857" viewBox="0 0 121.767 66.857">
    <g data-name="Group 698">
        <g data-name="Group 114">
            <path data-name="Path 987" d="M16.957 22.4H.5v51.429h96.481V22.4H16.957zM4.614 26.514h8.023a10.361 10.361 0 0 1-8.023 8.023zm0 43.406V61.9a10.361 10.361 0 0 1 8.023 8.023zm88.458 0h-8.023a10.361 10.361 0 0 1 8.023-8.02zm0-43.406v8.023a10.361 10.361 0 0 1-8.023-8.023zm0 12.343v18.926A14.184 14.184 0 0 0 80.935 69.92H16.752A13.975 13.975 0 0 0 4.614 57.783V38.857A14.184 14.184 0 0 0 16.752 26.72h63.977a14.857 14.857 0 0 0 12.343 12.137z" transform="translate(-.5 -6.971)" style="fill:#060056"/>
            <path data-name="Path 988" d="M40.069 58.357A15.429 15.429 0 1 0 24.64 42.929a15.541 15.541 0 0 0 15.429 15.428zm0-26.949a11.415 11.415 0 0 1 11.314 11.315 11.594 11.594 0 0 1-11.314 11.52 11.415 11.415 0 0 1-11.315-11.314 11.594 11.594 0 0 1 11.315-11.52zm27.566 15.018a3.649 3.649 0 0 0 3.7-3.5 3.518 3.518 0 0 0-3.7-3.5 3.348 3.348 0 0 0-3.5 3.5 3.6 3.6 0 0 0 3.5 3.5zm-55.132 0a3.649 3.649 0 0 0 3.7-3.5 3.518 3.518 0 0 0-3.7-3.5 3.5 3.5 0 1 0 0 6.994z" transform="translate(8.274 -1.58)" style="fill:#060056"/>
            <path data-name="Rectangle 57" transform="translate(2.057 7.817)" style="fill:#060056" d="M0 0h92.572v4.114H0z"/>
            <path data-name="Rectangle 58" transform="translate(4.114)" style="fill:#060056" d="M0 0h88.458v4.114H0z"/>
        </g>
        <path data-name="Path 7705" d="M1482.47 217.912c2.1-3.64 4.137-7.162 6.172-10.684.231-.4.455-.8.7-1.194a2.109 2.109 0 0 1 2.861-.794 2.193 2.193 0 0 1 .922 2.914c-.374.747-.832 1.451-1.264 2.168q-4.177 6.936-8.36 13.868c-.115.191-.248.372-.438.655-.857-1.064-1.667-2.063-2.469-3.068q-2.837-3.556-5.668-7.116a2.241 2.241 0 0 1 .261-3.358c1.094-.793 2.311-.511 3.185.741a3156.3 3156.3 0 0 1 4.098 5.868z" transform="translate(-1371.596 -177.182)" style="fill:#29246e"/>
    </g>
</svg>
