<svg xmlns="http://www.w3.org/2000/svg" width="75.054" height="75.955" viewBox="0 0 75.054 75.955">
  <g id="s-vendor" transform="translate(-1086.473 -1781.48)">
    <path id="Path_1062" data-name="Path 1062" d="M73.4,40.1a9.145,9.145,0,0,0-6.062-2.779,3.56,3.56,0,0,1-.692-.152.011.011,0,0,1-.012-.012c-.692-.223-1.02-.575-1.02-1.09a11.447,11.447,0,0,0,3.049-6.648,10.719,10.719,0,0,0,.035-2.439A6.687,6.687,0,0,0,61.759,20.6a7.572,7.572,0,0,0-5.077,1.923,7.27,7.27,0,0,0-2,5.487c.012.434.035.9.082,1.372a11.453,11.453,0,0,0,3.049,6.683c-.035.328-.235.727-1.044.985h-.023a4.024,4.024,0,0,1-.645.152c-.657.035-4.573.41-6.578,3.435a16.653,16.653,0,0,0-1.759-.211,10.419,10.419,0,0,1-1.43-.317h-.012a3.373,3.373,0,0,1-1.888-2.216,11.081,11.081,0,0,1-.68-3.881,1.756,1.756,0,0,1,.023-.258c4.96-4.362,5.64-11.725,5.663-12.018a20.557,20.557,0,0,0,.082-4.209V17.5a.291.291,0,0,0-.012-.094C48.522,6.189,37.594,6.471,37.57,6.471a12.785,12.785,0,0,0-8.688,3.295c-2.3,2.239-3.447,5.417-3.412,9.462.012.786.059,1.63.152,2.474.023.317.715,7.692,5.675,12.065a.879.879,0,0,1,0,.176A29.389,29.389,0,0,1,31,38.187c0,.012-.012.012-.012.023a3.74,3.74,0,0,1-2.333,1.724h-.023a7.269,7.269,0,0,1-1.372.3,14.9,14.9,0,0,0-1.864.235c-2.169-3.072-6.332-3.283-6.449-3.283a3.433,3.433,0,0,1-.68-.152h-.035c-.692-.223-1.02-.575-1.02-1.09A11.447,11.447,0,0,0,20.264,29.3,10.719,10.719,0,0,0,20.3,26.86a6.659,6.659,0,0,0-6.941-6.378A7.534,7.534,0,0,0,8.293,22.4a7.27,7.27,0,0,0-2,5.487c.012.434.035.9.082,1.372a11.453,11.453,0,0,0,3.049,6.683c-.035.328-.235.727-1.044.985H8.363a4.237,4.237,0,0,1-.633.141,9.318,9.318,0,0,0-6.109,2.779A7.382,7.382,0,0,0,.05,45.75l.4,3.647a1.145,1.145,0,0,0,.715.938,34.92,34.92,0,0,0,11.924,1.841c.235,0,.481-.012.715-.012a17.3,17.3,0,0,0,.082,3.1l.739,6.777a1.145,1.145,0,0,0,.715.938c.5.2,8.7,3.365,21.656,3.365A84.717,84.717,0,0,0,59.555,63.22a1.158,1.158,0,0,0,.832-.973l.739-6.777a16.873,16.873,0,0,0,.07-3.154h.281a45.936,45.936,0,0,0,12.253-1.688,1.158,1.158,0,0,0,.832-.973l.4-3.658A7.347,7.347,0,0,0,73.4,40.1ZM57.046,29.182A10.65,10.65,0,0,1,56.975,28a5.047,5.047,0,0,1,1.3-3.811,5.166,5.166,0,0,1,3.494-1.29,4.452,4.452,0,0,1,4.678,4.327,9.621,9.621,0,0,1-.035,1.993c0,.035-.352,3.858-2.861,5.651-.035.023-.059.035-.094.059a1.527,1.527,0,0,1-.176.117,2.915,2.915,0,0,1-3.107,0c-.059-.035-.117-.082-.176-.117a.411.411,0,0,0-.094-.059c-.082-.059-.152-.117-.223-.176-2.3-1.876-2.638-5.464-2.638-5.511ZM44.406,41.658l-2.673,4.608-2.6-2.65,3.881-3.471a6,6,0,0,0,1.4,1.513Zm-6.871,3.576,1.606,1.642-1.524,1.688a1.026,1.026,0,0,0-.094.117.82.82,0,0,0-.094-.117l-1.442-1.583Zm-4.256-6.941a24.449,24.449,0,0,0,.246-2.978,8.665,8.665,0,0,0,4,1,8.526,8.526,0,0,0,4.01-1.02,14.087,14.087,0,0,0,.516,2.662l-4.573,4.08Zm4.244,12.171,1.77,8.97-1.77,1.36-1.782-1.36ZM30.442,11.407A10.637,10.637,0,0,1,37.57,8.745c.34-.012,8.149-.188,9.521,7.785-5.464.387-12.616-3.365-12.7-3.4a1.155,1.155,0,0,0-1.2.07l-5.323,3.729a9.271,9.271,0,0,1,2.568-5.523ZM27.874,21.479c-.059-.586-.094-1.149-.117-1.688l6.191-4.327c1.97.961,8.137,3.717,13.343,3.33a18.213,18.213,0,0,1-.117,2.708c-.012.082-.715,7.668-5.757,11.233a.422.422,0,0,0-.117.082q-.183.135-.375.258a6.342,6.342,0,0,1-6.789,0c-.129-.082-.258-.164-.387-.258a.484.484,0,0,0-.129-.082c-.176-.129-.352-.258-.516-.4-4.561-3.717-5.218-10.764-5.229-10.857Zm4.338,18.9,3.682,3.283L33.631,46.23l-2.943-4.7a5.789,5.789,0,0,0,1.524-1.149ZM8.645,29.03a10.49,10.49,0,0,1-.07-1.184,5.046,5.046,0,0,1,1.3-3.811,5.25,5.25,0,0,1,3.494-1.29,4.491,4.491,0,0,1,4.678,4.327,9.517,9.517,0,0,1-.035,1.982c0,.035-.375,3.869-2.873,5.663-.035.023-.059.035-.094.059a1.528,1.528,0,0,1-.176.117,2.915,2.915,0,0,1-3.107,0c-.059-.035-.117-.082-.176-.117a.411.411,0,0,0-.094-.059c-.082-.059-.152-.117-.235-.176-2.275-1.864-2.615-5.452-2.615-5.511Zm5.523,20.847A35.726,35.726,0,0,1,2.653,48.423l-.317-2.931a5.245,5.245,0,0,1,1.02-4.151,7.094,7.094,0,0,1,4.538-2,.4.4,0,0,0,.117-.012,5.918,5.918,0,0,0,1.067-.235c.012,0,.012-.012.023-.012a3.625,3.625,0,0,0,2.286-1.853,5.057,5.057,0,0,0,3.846.012,3.665,3.665,0,0,0,2.322,1.946h.023a6.763,6.763,0,0,0,1.184.258,7.483,7.483,0,0,1,4.174,1.63,13.879,13.879,0,0,0-6.332,3.987,11.136,11.136,0,0,0-2.439,4.819Zm44.72,5.335-.657,6.015c-21.691,5.78-38.036.985-41.4-.141l-.668-6.074c-.387-3.494.328-6.343,2.134-8.442a12.553,12.553,0,0,1,6.789-3.705c.023,0,.035-.012.059-.012a14.51,14.51,0,0,1,2.275-.34.4.4,0,0,0,.117-.012q.51-.07.95-.176l4.01,6.414a1.116,1.116,0,0,0,.868.528h.094a1.148,1.148,0,0,0,.856-.387l.164-.188.879.973L33.361,59.691a1.149,1.149,0,0,0,.422,1.126l3.037,2.31a1.138,1.138,0,0,0,1.384,0l3.025-2.31a1.149,1.149,0,0,0,.422-1.126L39.669,49.666l1.055-1.173.422.434a1.107,1.107,0,0,0,.809.34.571.571,0,0,0,.141-.012,1.144,1.144,0,0,0,.844-.551l3.588-6.167c.317.07.633.129.973.176.035,0,.082.012.117.012.059,0,5.827.246,9.11,4.045,1.817,2.1,2.544,4.936,2.157,8.442ZM72.722,45.75l-.317,2.884a43.674,43.674,0,0,1-11.537,1.372,11.16,11.16,0,0,0-2.4-4.737A13.92,13.92,0,0,0,52,41.235,7.377,7.377,0,0,1,56.3,39.477c.047,0,.106-.012.152-.012a8.309,8.309,0,0,0,1.008-.235h.023c.012,0,.012-.012.023-.012h.023a3.56,3.56,0,0,0,2.263-1.841,5.057,5.057,0,0,0,3.846.012,3.684,3.684,0,0,0,2.3,1.946c.012,0,.023.012.035.023a7.578,7.578,0,0,0,1.2.246,7.122,7.122,0,0,1,4.526,2,5.226,5.226,0,0,1,1.032,4.139Z" transform="translate(1086.492 1791.097)" fill="#312b73"/>
    <g id="_21._Verified" data-name="21. Verified" transform="translate(1138.066 1781.456)">
      <path id="Path_1036" data-name="Path 1036" d="M22.506,13.759a3,3,0,0,1,0-3.517l.764-1.055a1,1,0,0,0-.5-1.538l-1.229-.4A2.993,2.993,0,0,1,19.47,4.4V3.1a1,1,0,0,0-1.307-.952l-1.245.4a3,3,0,0,1-3.345-1.089L12.808.411a1.037,1.037,0,0,0-1.616,0l-.765,1.05A3,3,0,0,1,7.082,2.55l-1.245-.4A1,1,0,0,0,4.53,3.1V4.4A2.993,2.993,0,0,1,2.459,7.249l-1.229.4a1,1,0,0,0-.5,1.538l.764,1.054a3,3,0,0,1,0,3.517L.73,14.813a1,1,0,0,0,.5,1.538l1.229.4A2.993,2.993,0,0,1,4.53,19.6v1.3a1,1,0,0,0,1.309.951l1.236-.4a2.989,2.989,0,0,1,3.354,1.09l.762,1.048a1,1,0,0,0,1.618,0l.762-1.048a2.991,2.991,0,0,1,3.354-1.09l1.236.4A1,1,0,0,0,19.47,20.9V19.6a2.993,2.993,0,0,1,2.071-2.853l1.229-.4a1,1,0,0,0,.5-1.538Zm-1.66,1.116a4.987,4.987,0,0,0-3.376,4.649A4.989,4.989,0,0,0,12,21.3a4.985,4.985,0,0,0-3.991-2,5.04,5.04,0,0,0-1.479.223,4.988,4.988,0,0,0-3.376-4.649,4.991,4.991,0,0,0,0-5.75A4.988,4.988,0,0,0,6.53,4.473,4.991,4.991,0,0,0,12,2.7a4.99,4.99,0,0,0,5.47,1.776,4.988,4.988,0,0,0,3.376,4.652A4.991,4.991,0,0,0,20.846,14.875Z" fill="#312b73"/>
      <path id="Path_1037" data-name="Path 1037" d="M15.293,9.293,11,13.586,8.707,11.293a1,1,0,1,0-1.414,1.414l3,3a1,1,0,0,0,1.414,0l5-5a1,1,0,1,0-1.414-1.414Z" fill="#312b73"/>
    </g>
  </g>
</svg>
