<svg xmlns="http://www.w3.org/2000/svg" xmlns:xlink="http://www.w3.org/1999/xlink" width="688" height="458" viewBox="0 0 688 458">
  <defs>
    <linearGradient id="linear-gradient" x1="1.196" y1="-0.528" x2="0.5" y2="1" gradientUnits="objectBoundingBox">
      <stop offset="0" stop-color="#3ae953"/>
      <stop offset="1" stop-color="#fff"/>
    </linearGradient>
  </defs>
  <g id="sapleft" transform="translate(-189 -4454)">
    <rect id="Rectangle_27228" data-name="Rectangle 27228" width="688" height="458" rx="13" transform="translate(189 4454)" fill="url(#linear-gradient)"/>
    <g id="Group_41115" data-name="Group 41115" transform="translate(189 4709.105)" opacity="0.15">
      <g id="Group_40711" data-name="Group 40711" transform="translate(7.79 0.5)">
        <path id="Path_81975" data-name="Path 81975" d="M21.051.5H366.52l.377.313C348.519.96,330.138.835,311.76.877H49.439C42.149.839,34.86.96,27.575.786a60.286,60.286,0,0,1-6.9,0Z" transform="translate(-20.67 -0.5)"/>
      </g>
      <g id="Group_40713" data-name="Group 40713" transform="translate(0.199 0.786)">
        <g id="Group_40712" data-name="Group 40712">
          <path id="Path_81976" data-name="Path 81976" d="M2.76,3.781c1.338-1.6,3.4-2.126,5.359-2.518a60.286,60.286,0,0,0,6.9,0c7.285.173,14.575.053,21.864.09H299.209c18.378-.041,36.759.083,55.137-.064,1.726.482,3.6.622,5.163,1.579a13.71,13.71,0,0,1,4.2,3.7c1.572,1.99,2.058,4.534,2.506,6.965.271,1.745-.324,3.452-.7,5.133-.456,2.231-2.043,3.946-3.219,5.819C359.114,29.218,356,34,352.736,38.663c-3.908,5.77-7.7,11.624-11.684,17.337-3.9,5.77-7.7,11.62-11.684,17.337-3.9,5.774-7.7,11.62-11.684,17.337-3.9,5.774-7.7,11.62-11.684,17.337-3.9,5.774-7.7,11.62-11.684,17.337-3.9,5.774-7.7,11.62-11.684,17.337-3.852,5.7-7.6,11.469-11.529,17.115-3.961,5.842-7.8,11.767-11.838,17.56-4.594,6.837-9.121,13.719-13.832,20.473a12.8,12.8,0,0,1-3.792,3.373c-1.8,1.153-4.006,1.255-6.008,1.862-8.582-.181-17.168-.03-25.75-.079H21.062c-2.676.019-5.356-.053-8.028.06-2.16-.641-4.549-.788-6.388-2.224a12.078,12.078,0,0,1-5.5-7.708c-.814-2.785-.641-5.714-.516-8.574C.8,175.368.66,166.187.706,157.01V18.311a47.016,47.016,0,0,0-.087-4.836C.442,10.189.408,6.371,2.76,3.781ZM8.62,9.2q-.249,12.494-.064,25l-.268-.279c-.124,14.141,0,28.29-.064,42.435a11.388,11.388,0,0,0,.192,2.427,18.526,18.526,0,0,0,0,4.568,9.635,9.635,0,0,0-.181,1.677q.017,21.478-.008,42.955a10.157,10.157,0,0,0,.188,1.685,10.2,10.2,0,0,0,0,3.434,10.424,10.424,0,0,0-.181,1.681q.017,18.645-.008,37.3a9.766,9.766,0,0,0,.185,1.685c-.335,5.329.057,10.685.064,16.026a5.441,5.441,0,0,0,4.56,5.329c.9.637,2.088.271,3.121.366q109.118-.017,218.236,0a1.546,1.546,0,0,0,1.225-.369c1.918-.121,3.392-1.564,4.365-3.113,4.176-6.317,8.537-12.517,12.6-18.905.026-.045.079-.132.106-.173.158-.237.475-.716.633-.957.03-.041.09-.128.117-.173.162-.237.482-.716.641-.954.03-.041.087-.128.117-.173.158-.237.479-.712.637-.95.03-.041.087-.124.113-.166,3.113-4.594,6.234-9.181,9.309-13.8.03-.041.083-.124.113-.166.158-.237.482-.712.641-.95.03-.045.087-.132.117-.173l.633-.954c.026-.041.083-.124.113-.166q5.427-8.022,10.825-16.06c.026-.041.083-.124.109-.166.162-.237.482-.712.644-.95.026-.045.087-.128.113-.173l.633-.961c.03-.041.087-.128.117-.173l.641-.942c.034-.045.1-.128.128-.173a24.789,24.789,0,0,0,3.434-5.137c1.99-2.864,3.92-5.77,5.865-8.665.026-.038.083-.121.109-.162.158-.234.479-.709.637-.946.026-.041.083-.124.109-.166,3.844-5.74,7.768-11.428,11.578-17.19.026-.041.083-.121.109-.162.162-.237.479-.712.637-.95.03-.041.087-.124.113-.166,3.475-5.16,7-10.278,10.414-15.475a35.175,35.175,0,0,0,4.2-6.181l.106-.2c2.815-4.244,5.729-8.424,8.54-12.675.026-.041.083-.121.109-.162.158-.237.479-.712.637-.95.03-.041.087-.124.113-.17q5.439-8.011,10.825-16.056c.026-.041.083-.121.109-.162.162-.237.482-.716.645-.954.03-.041.087-.128.117-.173l.637-.957c.03-.045.087-.132.117-.173l.633-.954c.026-.041.083-.124.109-.166q8.373-12.319,16.7-24.66c1-1.553,2.3-3.011,2.65-4.881a5.6,5.6,0,0,0-3.494-5.819,23.8,23.8,0,0,0-5.13-.268q-165.647,0-331.3,0C15.148,8.937,11.888,9.386,8.62,9.2Z" transform="translate(-0.528 -1.26)"/>
        </g>
      </g>
      <g id="Group_40714" data-name="Group 40714" transform="translate(0 12.715)">
        <path id="Path_81977" data-name="Path 81977" d="M0,32.91l.29.286a47.016,47.016,0,0,1,.087,4.836v138.7c-.045,9.178.094,18.359-.072,27.536L0,204.248Z" transform="translate(0 -32.91)"/>
      </g>
      <g id="Group_40715" data-name="Group 40715" transform="translate(7.894 33.445)">
        <path id="Path_81978" data-name="Path 81978" d="M21.011,87.91l.268.279c.158,13.923,0,27.853.083,41.779a13.987,13.987,0,0,1-.222,2.8,11.389,11.389,0,0,1-.192-2.427C21.015,116.2,20.887,102.051,21.011,87.91Z" transform="translate(-20.945 -87.91)" fill="#238e56"/>
      </g>
      <g id="Group_40716" data-name="Group 40716" transform="translate(338.553 44.314)">
        <path id="Path_81979" data-name="Path 81979" d="M898.26,116.916c.026-.041.083-.124.109-.166C898.343,116.791,898.286,116.874,898.26,116.916Z" transform="translate(-898.26 -116.75)" fill="#2aaa5c"/>
      </g>
      <g id="Group_40717" data-name="Group 40717" transform="translate(337.803 45.434)">
        <path id="Path_81980" data-name="Path 81980" d="M896.27,119.893c.03-.045.086-.132.117-.173C896.357,119.761,896.3,119.848,896.27,119.893Z" transform="translate(-896.27 -119.72)" fill="#2aa75b"/>
      </g>
      <g id="Group_40718" data-name="Group 40718" transform="translate(337.049 46.565)">
        <path id="Path_81981" data-name="Path 81981" d="M894.27,122.893c.03-.041.087-.128.116-.173C894.357,122.765,894.3,122.852,894.27,122.893Z" transform="translate(-894.27 -122.72)" fill="#28a259"/>
      </g>
      <g id="Group_40719" data-name="Group 40719" transform="translate(336.295 47.691)">
        <path id="Path_81982" data-name="Path 81982" d="M892.27,125.872c.026-.042.083-.121.109-.162C892.353,125.751,892.3,125.831,892.27,125.872Z" transform="translate(-892.27 -125.71)" fill="#279e59"/>
      </g>
      <g id="Group_40720" data-name="Group 40720" transform="translate(41.319 52.137)">
        <path id="Path_81983" data-name="Path 81983" d="M136.857,138a56.6,56.6,0,0,1,20.017.972,71.03,71.03,0,0,1,15.362,5.646c-2.08,3.675-4.214,7.319-6.332,10.972a48.573,48.573,0,0,0-22.919-4.395c-4.613.332-9.419.92-13.4,3.467a8.314,8.314,0,0,0-4.082,6.313,7.8,7.8,0,0,1-2.529.392c-4.447-.083-8.895.03-13.342-.072a20.661,20.661,0,0,1,8.269-16.4A39.111,39.111,0,0,1,136.857,138Z" transform="translate(-109.63 -137.505)" fill="#00e0f2"/>
        <path id="Path_81984" data-name="Path 81984" d="M359.482,144.349c.509-.354,1.172-.2,1.756-.249q8.3.023,16.591,0c.581.049,1.251-.113,1.764.241a8.233,8.233,0,0,1,.7,1.579c2.352,6.479,4.8,12.928,7.123,19.422-2.944.2-5.895.072-8.838.105-8.955-.023-17.914.045-26.869-.034a6.185,6.185,0,0,1,.32-1.357c2.122-5.65,4.2-11.318,6.321-16.968A15.818,15.818,0,0,1,359.482,144.349Z" transform="translate(-260.47 -141.614)" fill="#00e0f2"/>
        <path id="Path_81985" data-name="Path 81985" d="M525.634,144.22c11.345.041,22.7-.026,34.045.034a38.453,38.453,0,0,1,16.987,3.8c5.171,2.514,10.135,6.053,12.939,11.209a16.317,16.317,0,0,1,2.212,6.238c-4.937.034-9.875.041-14.812,0a12.521,12.521,0,0,0-2.8.347,14.022,14.022,0,0,0-7.678-5.789c-3.629-1.345-7.549-1.138-11.352-1.225-2.521-.008-5.039-.06-7.561-.042a5.526,5.526,0,0,0-5.152,3.411,7.953,7.953,0,0,0-.434,3.256c-5.431.106-10.87.121-16.3,0C525.5,158.384,525.69,151.3,525.634,144.22Z" transform="translate(-368.829 -141.689)" fill="#00e0f2"/>
      </g>
      <g id="Group_40721" data-name="Group 40721" transform="translate(41.312 54.668)">
        <path id="Path_81986" data-name="Path 81986" d="M525.186,145.441a3.361,3.361,0,0,1,.181-1.221c.056,7.078-.136,14.164.094,21.234,5.427.121,10.866.106,16.3,0,.042,6.155-.056,12.31,0,18.464a5.633,5.633,0,0,0,2.864,4.979c1.625.939,3.573.675,5.367.686,5.1-.139,10.308.418,15.291-.991a13.335,13.335,0,0,0,8.982-6.811,18.345,18.345,0,0,0,1.413-11.07,13.547,13.547,0,0,0-1.737-4.87,12.519,12.519,0,0,1,2.8-.347c4.937.045,9.875.038,14.812,0l.238,0a33.408,33.408,0,0,1,.523,9.841c-.562,5.393-1.956,10.84-4.971,15.408-20.711-.079-41.421.008-62.132-.045Q525.2,168.068,525.186,145.441Z" transform="translate(-368.555 -144.22)" fill="#00bbf2"/>
        <path id="Path_81987" data-name="Path 81987" d="M122.96,200.172a7.8,7.8,0,0,0,2.529-.392c-.369,3.513,1.877,6.652,4.666,8.533a56.758,56.758,0,0,0,9.37,4.949c6.8,2.9,13.659,5.676,20.477,8.533a32.333,32.333,0,0,1,6.03,3.339,29.786,29.786,0,0,1-5.017.2q-11.12-.006-22.237,0c-2.431.015-4.866-.094-7.285.151a40.18,40.18,0,0,1-16.331-10.874,20.456,20.456,0,0,1-5.544-14.511C114.066,200.2,118.513,200.089,122.96,200.172Z" transform="translate(-109.611 -178.84)" fill="#00bbf2"/>
        <path id="Path_81988" data-name="Path 81988" d="M335.927,200.528l.249,0c8.955.079,17.914.011,26.869.034,2.943-.034,5.895.094,8.838-.105,2.612,6.9,5.13,13.832,7.708,20.745a36.487,36.487,0,0,1,1.542,4.575c-5.5-.1-11.009.075-16.508-.087-1.719-4.406-3.513-8.786-5.247-13.188a9.3,9.3,0,0,0-2.2-3.9,5.682,5.682,0,0,0-7.014-.29,6.039,6.039,0,0,0-2.141,3.113c-1.7,4.821-3.381,9.649-5.1,14.462-5.375-.275-10.764-.072-16.147-.121a30.7,30.7,0,0,1,1.466-4.383C330.79,214.424,333.5,207.523,335.927,200.528Z" transform="translate(-244.929 -179.263)" fill="#00bbf2"/>
      </g>
      <g id="Group_40722" data-name="Group 40722" transform="translate(325.358 63.909)">
        <path id="Path_81989" data-name="Path 81989" d="M863.25,168.91c.03-.041.087-.124.113-.17C863.337,168.785,863.28,168.868,863.25,168.91Z" transform="translate(-863.25 -168.74)" fill="#269a66"/>
      </g>
      <g id="Group_40723" data-name="Group 40723" transform="translate(324.611 65.029)">
        <path id="Path_81990" data-name="Path 81990" d="M861.27,171.872c.026-.042.083-.121.109-.162C861.353,171.751,861.3,171.831,861.27,171.872Z" transform="translate(-861.27 -171.71)" fill="#259764"/>
      </g>
      <g id="Group_40724" data-name="Group 40724" transform="translate(315.965 77.866)">
        <path id="Path_81991" data-name="Path 81991" d="M838.33,205.966l.105-.2Z" transform="translate(-838.33 -205.77)" fill="#23926d"/>
      </g>
      <g id="Group_40725" data-name="Group 40725" transform="translate(7.9 82.875)">
        <path id="Path_81992" data-name="Path 81992" d="M21.148,219.06a26.758,26.758,0,0,1,.2,5.065q.006,18.278,0,36.559a23.249,23.249,0,0,1-.2,4.692,10.158,10.158,0,0,1-.188-1.685q.028-21.478.008-42.955A9.633,9.633,0,0,1,21.148,219.06Z" transform="translate(-20.96 -219.06)" fill="#1e7b76"/>
      </g>
      <g id="Group_40726" data-name="Group 40726" transform="translate(301.236 99.719)">
        <path id="Path_81993" data-name="Path 81993" d="M799.25,263.916c.03-.041.087-.124.113-.166C799.337,263.791,799.28,263.874,799.25,263.916Z" transform="translate(-799.25 -263.75)" fill="#21897c"/>
      </g>
      <g id="Group_40727" data-name="Group 40727" transform="translate(63.195 100.962)">
        <path id="Path_81994" data-name="Path 81994" d="M202.209,267.05a17.631,17.631,0,0,1,8.028,8.239,43.417,43.417,0,0,1,1.636,5.552,5.57,5.57,0,0,0,6.057,3.648,5.86,5.86,0,0,0,4.625-3.957c1.564-4.44,3.381-8.793,4.836-13.267l.249-.007c5.382.049,10.772-.155,16.146.121-.848,2.521-1.786,5.009-2.646,7.527a5.529,5.529,0,0,0,1.979,6.321,19.79,19.79,0,0,0,11.379,3.694,21.966,21.966,0,0,0,11.97-3.841,5.446,5.446,0,0,0,1.986-6.373c-.954-2.521-1.99-5.009-2.97-7.519,5.5.162,11.006-.011,16.508.087l.256.011c2.382,7.282,5.42,14.352,7.764,21.645a8.34,8.34,0,0,1-1.971.283q-43.537-.011-87.079,0a17.63,17.63,0,0,1-5.1-.32,11.083,11.083,0,0,0-.434-6.716,12.251,12.251,0,0,0-4.87-5.311,115.215,115.215,0,0,0-18.355-7.659,31.064,31.064,0,0,1-4.538-1.8c2.42-.245,4.855-.136,7.285-.151q11.115,0,22.237,0A29.765,29.765,0,0,0,202.209,267.05Z" transform="translate(-167.67 -267.05)" fill="#0096f2"/>
        <path id="Path_81995" data-name="Path 81995" d="M525.206,267.54c20.711.053,41.421-.034,62.132.045a32.921,32.921,0,0,1-13.015,12.181,24.191,24.191,0,0,1-11.9,2.714c-5.028-.113-10.052-.041-15.076-.011a5.675,5.675,0,0,0-5.352,4.922c-.124.667-.226,1.338-.32,2.013-5.371.249-10.757.057-16.135.087-.094.882-.188,1.764-.358,2.635C525.248,283.931,525.188,275.734,525.206,267.54Z" transform="translate(-390.435 -267.355)" fill="#0096f2"/>
      </g>
      <g id="Group_40728" data-name="Group 40728" transform="translate(300.49 100.834)">
        <path id="Path_81996" data-name="Path 81996" d="M797.27,266.872c.027-.041.083-.121.109-.162C797.353,266.751,797.3,266.831,797.27,266.872Z" transform="translate(-797.27 -266.71)" fill="#20857a"/>
      </g>
      <g id="Group_40729" data-name="Group 40729" transform="translate(288.802 118.187)">
        <path id="Path_81997" data-name="Path 81997" d="M766.26,312.916c.026-.042.083-.125.109-.166C766.343,312.792,766.286,312.874,766.26,312.916Z" transform="translate(-766.26 -312.75)" fill="#1f7d85"/>
      </g>
      <g id="Group_40730" data-name="Group 40730" transform="translate(288.056 119.298)">
        <path id="Path_81998" data-name="Path 81998" d="M764.28,315.862c.026-.038.083-.121.109-.162C764.363,315.741,764.306,315.824,764.28,315.862Z" transform="translate(-764.28 -315.7)" fill="#1d7a83"/>
      </g>
      <g id="Group_40731" data-name="Group 40731" transform="translate(42.55 120.998)">
        <path id="Path_81999" data-name="Path 81999" d="M284.778,322.223c.094-.675.2-1.346.32-2.013q.017,11.5,0,23.01-17.486-.022-34.969,0a18.311,18.311,0,0,1-3.185-.113c-1.73-3.543-2.879-7.361-4.5-10.96a5.64,5.64,0,0,0-6.814-2.582,45.815,45.815,0,0,1-27.129.8c-1.911-.494-3.841-1.56-5.857-.984a5.714,5.714,0,0,0-4.078,3.807c-1.176,2.97-2.374,5.929-3.562,8.895-.2.618-.686,1.247-1.421,1.112-5.13-.015-10.263-.038-15.4.019a7.827,7.827,0,0,0,.422-4.025,5.557,5.557,0,0,0-5.375-4.342,5.738,5.738,0,0,0-4.316,1.892,28.618,28.618,0,0,1-9.513,5.932c-4.685,1.96-9.765,2.646-14.786,3.106a65.026,65.026,0,0,1-13.647-.158,45.112,45.112,0,0,1-17.266-6.1c-.317-.249-1.063-.509-.727-1.04,1.459-3.46,2.925-6.92,4.489-10.335,9.426,3.064,19.584,4.956,29.455,3.136a24.882,24.882,0,0,0,12.347-5.71,8.013,8.013,0,0,0,2.288-3.6l.177.041a17.623,17.623,0,0,0,5.1.32q43.537.006,87.079,0a8.348,8.348,0,0,0,1.971-.283l.215-.147c.8,2.687,1.474,6.076,4.357,7.289a5.712,5.712,0,0,0,7.832-4.251c.169-.871.264-1.753.358-2.635C274.021,322.279,279.407,322.471,284.778,322.223Z" transform="translate(-112.895 -320.21)" fill="#116cdb"/>
      </g>
      <g id="Group_40732" data-name="Group 40732" transform="translate(7.9 132.626)">
        <path id="Path_82000" data-name="Path 82000" d="M21.148,351.06a26.746,26.746,0,0,1,.2,5.066q.006,15.451,0,30.906a22.713,22.713,0,0,1-.207,4.692,9.767,9.767,0,0,1-.185-1.685q.023-18.651.008-37.3A10.424,10.424,0,0,1,21.148,351.06Z" transform="translate(-20.96 -351.06)" fill="#196994"/>
      </g>
      <g id="Group_40733" data-name="Group 40733" transform="translate(278.63 133.263)">
        <path id="Path_82001" data-name="Path 82001" d="M739.27,352.923c.034-.045.1-.128.128-.173C739.368,352.8,739.3,352.878,739.27,352.923Z" transform="translate(-739.27 -352.75)" fill="#1e7d96"/>
      </g>
      <g id="Group_40734" data-name="Group 40734" transform="translate(277.872 134.378)">
        <path id="Path_82002" data-name="Path 82002" d="M737.26,355.883c.03-.041.087-.128.117-.173C737.347,355.755,737.29,355.842,737.26,355.883Z" transform="translate(-737.26 -355.71)" fill="#1d7b94"/>
      </g>
      <g id="Group_40735" data-name="Group 40735" transform="translate(277.126 135.513)">
        <path id="Path_82003" data-name="Path 82003" d="M735.28,358.893c.026-.045.087-.128.113-.173C735.367,358.765,735.307,358.848,735.28,358.893Z" transform="translate(-735.28 -358.72)" fill="#1c7790"/>
      </g>
      <g id="Group_40736" data-name="Group 40736" transform="translate(276.372 136.636)">
        <path id="Path_82004" data-name="Path 82004" d="M733.28,361.866c.026-.041.083-.124.109-.166C733.363,361.742,733.306,361.824,733.28,361.866Z" transform="translate(-733.28 -361.7)" fill="#1c738d"/>
      </g>
      <g id="Group_40737" data-name="Group 40737" transform="translate(265.435 152.861)">
        <path id="Path_82005" data-name="Path 82005" d="M704.26,404.916c.026-.042.083-.124.113-.166C704.343,404.791,704.286,404.874,704.26,404.916Z" transform="translate(-704.26 -404.75)" fill="#1a709c"/>
      </g>
      <g id="Group_40738" data-name="Group 40738" transform="translate(264.685 153.981)">
        <path id="Path_82006" data-name="Path 82006" d="M702.27,407.894c.03-.045.087-.132.117-.174C702.357,407.761,702.3,407.848,702.27,407.894Z" transform="translate(-702.27 -407.72)" fill="#1a6d99"/>
      </g>
      <g id="Group_40739" data-name="Group 40739" transform="translate(263.931 155.104)">
        <path id="Path_82007" data-name="Path 82007" d="M700.27,410.866c.03-.042.083-.124.113-.166C700.353,410.741,700.3,410.824,700.27,410.866Z" transform="translate(-700.27 -410.7)" fill="#196995"/>
      </g>
      <g id="Group_40740" data-name="Group 40740" transform="translate(254.508 169.072)">
        <path id="Path_82008" data-name="Path 82008" d="M675.27,447.926c.03-.041.087-.125.113-.166C675.357,447.8,675.3,447.884,675.27,447.926Z" transform="translate(-675.27 -447.76)" fill="#166099"/>
      </g>
      <g id="Group_40741" data-name="Group 40741" transform="translate(253.755 170.187)">
        <path id="Path_82009" data-name="Path 82009" d="M673.27,450.893c.03-.041.087-.128.117-.173C673.357,450.765,673.3,450.852,673.27,450.893Z" transform="translate(-673.27 -450.72)" fill="#1969a7"/>
      </g>
      <g id="Group_40742" data-name="Group 40742" transform="translate(252.997 171.314)">
        <path id="Path_82010" data-name="Path 82010" d="M671.26,453.884c.03-.042.09-.128.117-.174C671.35,453.755,671.29,453.842,671.26,453.884Z" transform="translate(-671.26 -453.71)" fill="#1866a4"/>
      </g>
      <g id="Group_40743" data-name="Group 40743" transform="translate(252.258 172.445)">
        <path id="Path_82011" data-name="Path 82011" d="M669.3,456.883c.026-.045.079-.132.106-.173C669.379,456.751,669.326,456.838,669.3,456.883Z" transform="translate(-669.3 -456.71)" fill="#17639f"/>
      </g>
      <g id="Group_40744" data-name="Group 40744" transform="translate(12.709 194.608)">
        <path id="Path_82012" data-name="Path 82012" d="M33.72,515.55c33.706-.072,67.412-.011,101.114-.03q60.735.023,121.467.023a1.548,1.548,0,0,1-1.225.369q-109.118-.011-218.236,0C35.808,515.822,34.625,516.187,33.72,515.55Z" transform="translate(-33.72 -515.514)" fill="#071e39"/>
      </g>
      <g id="Group_40745" data-name="Group 40745" transform="translate(12.705 202.505)">
        <path id="Path_82013" data-name="Path 82013" d="M33.71,536.539c2.672-.113,5.352-.042,8.028-.06H230.56c8.582.049,17.168-.1,25.75.079l-.381.3H34.083Z" transform="translate(-33.71 -536.466)"/>
      </g>
    </g>
  </g>
</svg>
