<?xml version="1.0" encoding="UTF-8"?> <svg xmlns="http://www.w3.org/2000/svg" width="217" height="166" viewBox="0 0 217 166" fill="none"> <g clip-path="url(#clip0_846_5280)"> <path d="M316 244.026C316 263.898 299.898 280.011 280.026 280.026L-1047.97 280.974C-1067.87 280.988 -1084 264.867 -1084 244.974L-1084 25C-1084 11.7452 -1073.25 0.999999 -1060 0.999998L-963 0.999989C-938.147 0.999987 -918 21.1472 -918 46V46C-918 112.274 -864.274 166 -798 166L-1.00001 166C65.2742 166 119 112.274 119 45.9999V45.9999C119 21.1102 139.11 0.897811 163.999 0.771467L291.878 0.122326C305.18 0.0548002 316 10.8196 316 24.122L316 244.026Z" fill="#242424"></path> </g> <defs> <clipPath id="clip0_846_5280"> <rect width="217" height="166" fill="white" transform="matrix(-1 0 0 1 217 0)"></rect> </clipPath> </defs> </svg> 