<svg xmlns="http://www.w3.org/2000/svg" width="105.876" height="92.641" viewBox="0 0 105.876 92.641">
  <path id="t-educational" d="M52.818,1.063a1.655,1.655,0,0,0-.708.22L.822,31.066a1.655,1.655,0,0,0,.039,2.882l12.381,6.785V55.647H9.934a1.659,1.659,0,0,0-1.661,1.661V78.613l-3.15,6.94a1.669,1.669,0,0,0-.162.678v5.813a1.656,1.656,0,0,0,3.312,0V87.9h4.966v4.145a1.654,1.654,0,1,0,3.308,0V87.9H21.51v4.145a1.654,1.654,0,1,0,3.308,0V86.232a1.479,1.479,0,0,0-.145-.666L21.51,78.474V57.308a1.654,1.654,0,0,0-1.648-1.661H16.55v-13.1l8.242,4.52v15.2a8.244,8.244,0,0,0,2.543,5.667,19.186,19.186,0,0,0,6.19,4.042,49.647,49.647,0,0,0,19.4,3.531c7.532,0,14.346-1.314,19.418-3.531a19.187,19.187,0,0,0,6.19-4.042,8.241,8.241,0,0,0,2.54-5.667V47.072l23.948-13.124a1.655,1.655,0,0,0,.023-2.882L53.771,1.283a1.656,1.656,0,0,0-.953-.22Zm.123,3.564,47.9,27.819L52.94,58.723,19.675,40.481l28.739-6.837A4.972,4.972,0,1,0,48.2,30.29L15.365,38.116,5.023,32.445ZM52.94,30a1.654,1.654,0,0,1,0,3.309,1.654,1.654,0,1,1,0-3.309ZM28.1,48.878,52.149,62.058a1.65,1.65,0,0,0,1.586,0L77.767,48.885V62.264a4.858,4.858,0,0,1-1.612,3.373,16.279,16.279,0,0,1-5.14,3.309c-4.5,1.969-10.943,3.247-18.087,3.247s-13.58-1.278-18.083-3.247a16.2,16.2,0,0,1-5.127-3.309A4.858,4.858,0,0,1,28.1,62.264ZM11.581,58.956H18.2v18.2H11.581Zm-.514,21.505h7.719l1.832,4.126H9.187Z" transform="translate(0 -1.058)" fill="#28236d"/>
</svg>
