<svg xmlns="http://www.w3.org/2000/svg" width="92.626" height="92.64" viewBox="0 0 92.626 92.64">
  <g id="t-misc" transform="translate(3701.689 3987.863)">
    <path id="Path_1378" data-name="Path 1378" d="M-3668.843-3895.222v-5.91h-1.163c-8.029,0-16.059.014-24.088-.006a7.466,7.466,0,0,1-7.594-7.369,7.455,7.455,0,0,1,7.492-7.56c6.1-.029,12.2-.008,18.3-.008h1.057c.018-.229.039-.377.039-.525q0-7.8,0-15.595c0-1.275-.542-1.808-1.828-1.81-4.388-.007-8.776.017-13.164-.014a4.47,4.47,0,0,1-4.373-3.748,4.423,4.423,0,0,1,2.7-4.827,5.766,5.766,0,0,1,2-.363c3.236-.036,6.473-.014,9.71-.018,1.471,0,1.969-.495,1.977-1.946q.007-1.027,0-2.054c-.008-1.472-.5-1.973-1.948-1.975-3.859,0-7.719.021-11.577-.008a10.447,10.447,0,0,1-10.158-8.3,10.412,10.412,0,0,1,6.027-11.725c.844-.368,1.754-.584,2.664-.879-.052-8.533,3.637-14.759,12.021-17.245,7.443-2.207,13.531.517,18.224,6.658a12.141,12.141,0,0,1,13.2,1.249l5.96-6.058c1.107.659,2.117,1.266,3.134,1.863a1.479,1.479,0,0,0,2.231-.9c.251-.962.464-1.936.76-2.884.077-.247.4-.594.613-.6,3.575-.037,7.151-.026,10.8-.026.309,1.2.6,2.374.912,3.542a1.476,1.476,0,0,0,2.175.894c1.02-.595,2.03-1.2,2.944-1.748l8.053,8.057c-.515.868-1.122,1.88-1.717,2.9a1.479,1.479,0,0,0,.9,2.231c.992.258,2,.479,2.975.777a.848.848,0,0,1,.508.6c.031,3.576.022,7.153.022,10.8-1.2.308-2.373.6-3.54.906a1.474,1.474,0,0,0-.9,2.175c.594,1.02,1.2,2.031,1.88,3.172-.85.833-1.678,1.709-2.58,2.5a2.419,2.419,0,0,0-.859,2.017q.04,26.288.02,52.576v1.179Zm3.073-53.728v32.875c1.337,0,2.61-.026,3.881.012a4.949,4.949,0,0,1,1.536.273c3.236,1.189,6.462,2.407,9.688,3.625a3.732,3.732,0,0,1,2.753,3.585,3.726,3.726,0,0,1-2.711,3.522c-3.2,1.206-6.394,2.415-9.6,3.584a6.025,6.025,0,0,1-1.8.327c-1.258.049-2.52.015-3.748.015v2.924h47.672v-48.712l-.208-.128-1.2,1.549c-1.153-.683-2.166-1.289-3.184-1.885a1.481,1.481,0,0,0-2.232.9c-.258.992-.479,2-.778,2.976a.849.849,0,0,1-.594.51c-3.576.031-7.152.023-10.8.023-.309-1.2-.6-2.371-.911-3.538a1.468,1.468,0,0,0-2.17-.9c-1.042.605-2.073,1.23-3.18,1.889-.946-.968-1.88-1.881-2.759-2.844a1.742,1.742,0,0,0-1.468-.594c-1.524.036-3.049.012-4.574.012Zm-17.967-10.5c-.022-.276-.032-.462-.053-.647a7.518,7.518,0,0,0-5.651-6.57,7.4,7.4,0,0,0-8.056,3.166,7.172,7.172,0,0,0-.324,7.542,7.026,7.026,0,0,0,6.4,3.988c4.013.084,8.029.012,12.044.032a4.463,4.463,0,0,1,4.573,4.535c.013.778,0,1.557,0,2.335,0,3.3-1.773,5.078-5.067,5.079-3.205,0-6.412-.036-9.616.037a2.224,2.224,0,0,0-1.513.807,1.462,1.462,0,0,0,.065,1.423,2.42,2.42,0,0,0,1.592.692c4.2.055,8.4.028,12.6.031,3.1,0,4.918,1.828,4.921,4.941q.005,7.471,0,14.943v.991h2.932v-32.864h-2.885v-2.971h21.986l-1.506-1.6,1.734-2.942a1.474,1.474,0,0,0-.962-2.379c-.9-.236-1.8-.514-2.709-.688-.561-.107-.675-.372-.672-.888q.029-4.95,0-9.9c0-.547.179-.753.707-.86,1-.2,1.992-.482,2.983-.748.528-.142,1.241-1.242.98-1.679a12.23,12.23,0,0,0-2.3-3.333,8.711,8.711,0,0,0-11.444.553,9.148,9.148,0,0,0-2.893,6.5h-2.958a12.055,12.055,0,0,1,3.753-8.655,13.224,13.224,0,0,0-16.1-5.314c-6.915,2.718-9.265,9.752-8.386,14.1,5.656,1.665,9.384,6.1,8.662,10.34Zm36.273,5.309,4.743,4.749c.746-.444,1.55-.979,2.408-1.4a1.665,1.665,0,0,1,1.157-.048,23.751,23.751,0,0,1,2.834,1.174,1.68,1.68,0,0,1,.776.867c.319.923.524,1.885.762,2.787h6.627a8.864,8.864,0,0,0,.384-1.484,2.585,2.585,0,0,1,2.315-2.629,16.48,16.48,0,0,0,1.7-.737,1.571,1.571,0,0,1,1.077.044c.88.443,1.711.982,2.417,1.4l4.759-4.76a6.352,6.352,0,0,0-.619-1.027,2.8,2.8,0,0,1-.232-3.827,4.7,4.7,0,0,0,.561-1.474,1.059,1.059,0,0,1,.943-.856c.934-.186,1.846-.474,2.766-.719v-6.63c-.948-.247-1.89-.444-2.793-.755a1.68,1.68,0,0,1-.871-.771,23.647,23.647,0,0,1-1.176-2.834,1.663,1.663,0,0,1,.045-1.157c.434-.88.979-1.7,1.406-2.426l-4.752-4.732c-.744.441-1.547.976-2.406,1.4a1.663,1.663,0,0,1-1.157.048,23.668,23.668,0,0,1-2.834-1.173,1.682,1.682,0,0,1-.777-.867c-.319-.922-.523-1.885-.761-2.788h-6.628a8.806,8.806,0,0,0-.384,1.484,2.576,2.576,0,0,1-2.314,2.629,16.094,16.094,0,0,0-1.7.739,1.573,1.573,0,0,1-1.076-.042c-.881-.442-1.712-.983-2.419-1.4l-4.757,4.766a9.558,9.558,0,0,0,.761,1.26,2.452,2.452,0,0,1,.2,3.332,5.6,5.6,0,0,0-.673,1.728,1.079,1.079,0,0,1-.942.861c-.933.188-1.847.471-2.768.712v6.63c.979.254,1.948.467,2.888.771a1.409,1.409,0,0,1,.753.667c.464.979.881,1.986,1.249,3.005a1.392,1.392,0,0,1-.048,1C-3646.471-3955.75-3647.007-3954.913-3647.463-3954.137Zm-42.34,50v-8.938c-1.643,0-3.227-.072-4.8.017a4.446,4.446,0,0,0-4.1,4.409,4.449,4.449,0,0,0,4.1,4.5C-3693.023-3904.062-3691.441-3904.134-3689.8-3904.134Zm9.07-6.03h17.81v-2.873h-17.81Zm0,5.979h17.809v-2.875h-17.809Zm20.908-.6c2.879-1.088,5.689-2.14,8.484-3.228a.774.774,0,0,0,.394-.635,1.078,1.078,0,0,0-.578-.632c-1.236-.5-2.495-.945-3.744-1.413-1.5-.561-3-1.125-4.556-1.709Zm-24,.627v-8.849h-2.875v8.849Z" transform="translate(0 0)" fill="#3b3678"/>
    <path id="Path_1379" data-name="Path 1379" d="M-3485.9-3792.839v-2.875h26.773v2.875Z" transform="translate(-161.967 -144.222)" fill="#3b3678"/>
    <path id="Path_1380" data-name="Path 1380" d="M-3485.891-3744.915v-2.877h26.773v2.877Z" transform="translate(-161.972 -180.191)" fill="#3b3678"/>
    <path id="Path_1381" data-name="Path 1381" d="M-3461.944-3768.872v-2.872h20.83v2.872Z" transform="translate(-179.946 -162.213)" fill="#3b3678"/>
    <path id="Path_1382" data-name="Path 1382" d="M-3465.056-3723.751v2.872h-20.831v-2.872Z" transform="translate(-161.975 -198.235)" fill="#3b3678"/>
    <path id="Path_1383" data-name="Path 1383" d="M-3465.116-3683.584a4.5,4.5,0,0,1-4.524,4.483,4.5,4.5,0,0,1-4.434-4.479,4.5,4.5,0,0,1,4.523-4.481A4.5,4.5,0,0,1-3465.116-3683.584Zm-4.47-1.483a1.5,1.5,0,0,0-1.5,1.477,1.5,1.5,0,0,0,1.476,1.5,1.5,1.5,0,0,0,1.5-1.478A1.5,1.5,0,0,0-3469.586-3685.067Z" transform="translate(-170.841 -225.023)" fill="#3b3678"/>
    <path id="Path_1384" data-name="Path 1384" d="M-3421.644-3679.1a4.5,4.5,0,0,1-4.512-4.493,4.5,4.5,0,0,1,4.444-4.467,4.5,4.5,0,0,1,4.513,4.492A4.5,4.5,0,0,1-3421.644-3679.1Zm-.02-5.967a1.5,1.5,0,0,0-1.5,1.472,1.5,1.5,0,0,0,1.471,1.5,1.5,1.5,0,0,0,1.5-1.473A1.5,1.5,0,0,0-3421.664-3685.067Z" transform="translate(-206.807 -225.023)" fill="#3b3678"/>
    <path id="Path_1385" data-name="Path 1385" d="M-3545.72-3789.981l-3.9-3.919,2.1-1.969,1.511,2,6.558-6.625,1.992,2.212Z" transform="translate(-114.135 -140.636)" fill="#3b3678"/>
    <path id="Path_1386" data-name="Path 1386" d="M-3545.675-3745.435l6.541-6.561,1.958,2.008-8.273,8.273-3.917-3.9,2.031-1.967Z" transform="translate(-114.329 -177.036)" fill="#3b3678"/>
    <path id="Path_1387" data-name="Path 1387" d="M-3482.891-3771.7v2.852h-2.9v-2.852Z" transform="translate(-162.046 -162.242)" fill="#3b3678"/>
    <path id="Path_1388" data-name="Path 1388" d="M-3390.021-3723.84h2.866v2.884h-2.866Z" transform="translate(-233.929 -198.168)" fill="#3b3678"/>
    <path id="Path_1389" data-name="Path 1389" d="M-3474.083-3938.3a13.468,13.468,0,0,1,13.562-13.375,13.469,13.469,0,0,1,13.328,13.517,13.475,13.475,0,0,1-13.563,13.377A13.475,13.475,0,0,1-3474.083-3938.3Zm23.9.1a10.485,10.485,0,0,0-10.423-10.488,10.486,10.486,0,0,0-10.486,10.425,10.49,10.49,0,0,0,10.423,10.49A10.487,10.487,0,0,0-3450.184-3938.193Z" transform="translate(-170.834 -27.165)" fill="#3b3678"/>
    <path id="Path_1390" data-name="Path 1390" d="M-3450.116-3920.264a7.487,7.487,0,0,1,7.521-7.437,7.484,7.484,0,0,1,7.413,7.545,7.493,7.493,0,0,1-7.474,7.392A7.491,7.491,0,0,1-3450.116-3920.264Zm11.946.051a4.5,4.5,0,0,0-4.412-4.5,4.5,4.5,0,0,0-4.545,4.458,4.5,4.5,0,0,0,4.5,4.5A4.5,4.5,0,0,0-3438.17-3920.213Z" transform="translate(-188.823 -45.156)" fill="#3b3678"/>
  </g>
</svg>
