<svg xmlns="http://www.w3.org/2000/svg" width="87.281" height="92.641" viewBox="0 0 87.281 92.641">
  <g id="t-personal" transform="translate(1717.87 2628.267)">
    <path id="Path_1066" data-name="Path 1066" d="M-1558.971-2626.555h-44.33c-1.206,0-1.752.549-1.757,1.773-.006,1.358,0,2.717,0,4.075,0,.686-.29,1.044-.829,1.054-.558.009-.877-.372-.879-1.07,0-1.453-.012-2.906,0-4.358a3.115,3.115,0,0,1,3.2-3.184q22.585-.008,45.169.017a1.768,1.768,0,0,1,1.132.478q12.39,12.462,24.729,24.976a1.644,1.644,0,0,1,.428,1.045q.036,10.754.016,21.509c0,.655-.327,1.037-.858,1.037-.555,0-.861-.375-.861-1.088q0-9.906,0-19.812v-1.056h-.688c-6.962,0-13.925-.039-20.886.022a3.4,3.4,0,0,1-3.593-3.594c.04-7.019.015-14.038.015-21.056Zm1.778,1.292c-.025.194-.042.266-.042.338q0,10.241,0,20.483a1.458,1.458,0,0,0,1.616,1.556q9.987,0,19.974,0c.156,0,.312-.024.559-.045Z" transform="translate(-98.517)" fill="#1f1967"/>
    <path id="Path_1067" data-name="Path 1067" d="M-1569.429-2074.457q-16.892,0-33.784,0a3.178,3.178,0,0,1-3.521-3.541q0-14.487,0-28.975a2.276,2.276,0,0,1,.03-.562.794.794,0,0,1,.866-.655.777.777,0,0,1,.8.731,4.663,4.663,0,0,1,.015.622q0,14.317,0,28.635a4.97,4.97,0,0,0,.039.789,1.427,1.427,0,0,0,1.344,1.237c.244.02.49.008.735.008h66.946c.189,0,.377,0,.566,0a1.49,1.49,0,0,0,1.608-1.633c.008-1.132,0-2.264,0-3.4,0-.718.305-1.087.865-1.081s.853.374.856,1.095c0,.981-.059,1.966.013,2.942.168,2.294-1.388,3.83-3.824,3.816C-1547.057-2074.494-1558.243-2074.457-1569.429-2074.457Z" transform="translate(-98.553 -461.198)" fill="#1f1967"/>
    <path id="Path_1069" data-name="Path 1069" d="M-1704.419-2528.668a13.449,13.449,0,0,1,13.4,13.641,13.477,13.477,0,0,1-13.408,13.468,13.507,13.507,0,0,1-13.437-13.736A13.484,13.484,0,0,1-1704.419-2528.668Zm0,1.725a11.8,11.8,0,0,0-11.746,11.8,11.852,11.852,0,0,0,11.7,11.87,11.817,11.817,0,0,0,11.731-11.828A11.762,11.762,0,0,0-1704.419-2526.943Z" transform="translate(0 -88.324)" fill="#1f1967"/>
    <path id="Path_1070" data-name="Path 1070" d="M-1490.547-2270.51h-25.808a5.612,5.612,0,0,1-.622-.012.81.81,0,0,1-.774-.825.841.841,0,0,1,.793-.869,5.053,5.053,0,0,1,.509-.006h51.955a2.606,2.606,0,0,1,.508.016.8.8,0,0,1,.707.879.772.772,0,0,1-.726.8,4.751,4.751,0,0,1-.678.018Z" transform="translate(-177.462 -315.733)" fill="#1f1967"/>
    <path id="Path_1071" data-name="Path 1071" d="M-1490.561-2183.639h-25.524c-.283,0-.567.012-.849-.008a.849.849,0,0,1-.833-.832.848.848,0,0,1,.853-.868c.15-.01.3,0,.453,0h51.9a4.257,4.257,0,0,1,.509.01.787.787,0,0,1,.763.826.8.8,0,0,1-.727.862,2.817,2.817,0,0,1-.508.013Z" transform="translate(-177.448 -392.773)" fill="#1f1967"/>
    <path id="Path_1072" data-name="Path 1072" d="M-1494.913-2011.84q10.635,0,21.271,0a5.209,5.209,0,0,1,.845.038.774.774,0,0,1,.7.828.8.8,0,0,1-.693.837,2.377,2.377,0,0,1-.506.028q-21.582,0-43.163,0a2.422,2.422,0,0,1-.508-.017.82.82,0,0,1-.723-.874.8.8,0,0,1,.722-.816,3.43,3.43,0,0,1,.62-.025Z" transform="translate(-177.512 -546.642)" fill="#1f1967"/>
    <path id="Path_1073" data-name="Path 1073" d="M-1647.332-2264.437c1.067-.747,2.034-1.424,3-2.1.9-.627.984-.625,1.892.017l2.907,2.052c.012-.273.028-.465.028-.657q0-7.413,0-14.826a2.545,2.545,0,0,1,.044-.617.787.787,0,0,1,.87-.648.782.782,0,0,1,.792.736,3.6,3.6,0,0,1,.017.509q0,8.432,0,16.863c0,.427,0,.845-.441,1.082-.459.247-.824.026-1.193-.237-1.212-.866-2.438-1.712-3.643-2.587a.494.494,0,0,0-.689,0c-1.24.891-2.5,1.756-3.745,2.64a1,1,0,0,1-1.1.2c-.415-.21-.462-.592-.461-1.012q.009-8.573,0-17.146c0-.429.069-.851.513-.959a1.17,1.17,0,0,1,.916.172,1.255,1.255,0,0,1,.274.864c.021,2.452.012,4.9.012,7.356v8.3Z" transform="translate(-61.031 -307.762)" fill="#1f1967"/>
    <path id="Path_1074" data-name="Path 1074" d="M-1433.161-2357.376h-22.413a5.618,5.618,0,0,1-.622-.011.774.774,0,0,1-.751-.776.806.806,0,0,1,.686-.9,2.441,2.441,0,0,1,.563-.022h45.108a2.666,2.666,0,0,1,.508.014.8.8,0,0,1,.722.868.772.772,0,0,1-.767.817c-.206.021-.415.009-.622.009Z" transform="translate(-231.382 -238.704)" fill="#1f1967"/>
    <path id="Path_1075" data-name="Path 1075" d="M-1494.926-2098.529h21.441c.913,0,1.317.266,1.31.864s-.408.854-1.326.854h-42.938c-.919,0-1.328-.255-1.345-.841-.018-.6.41-.877,1.361-.877Z" transform="translate(-177.433 -469.767)" fill="#1f1967"/>
    <path id="Path_1076" data-name="Path 1076" d="M-1443.1-2444.23q-6.168,0-12.335,0c-.205,0-.471.042-.6-.066-.24-.195-.555-.487-.555-.738a1.334,1.334,0,0,1,.508-.828c.151-.131.467-.095.709-.1q12.25-.007,24.5,0a2.736,2.736,0,0,1,.563.033.8.8,0,0,1,.7.839.806.806,0,0,1-.753.845,3.85,3.85,0,0,1-.565.016Z" transform="translate(-231.696 -161.665)" fill="#1f1967"/>
    <path id="Path_1078" data-name="Path 1078" d="M-1506.222-1923.508h-10.24a3.407,3.407,0,0,1-.508-.011.792.792,0,0,1-.731-.8.807.807,0,0,1,.713-.878,1.95,1.95,0,0,1,.395-.012h20.762a1.8,1.8,0,0,1,.395.013.8.8,0,0,1,.7.886.778.778,0,0,1-.734.792,3.6,3.6,0,0,1-.508.01Z" transform="translate(-177.506 -623.461)" fill="#1f1967"/>
    <path id="Path_1080" data-name="Path 1080" d="M-1333.687-2532.674q2.77,0,5.541,0a4.261,4.261,0,0,1,.564.017.793.793,0,0,1,.755.837.817.817,0,0,1-.745.855,2.811,2.811,0,0,1-.508.014h-11.364a2.556,2.556,0,0,1-.507-.02.813.813,0,0,1-.729-.867.792.792,0,0,1,.775-.819,7.547,7.547,0,0,1,.791-.018Q-1336.4-2532.675-1333.687-2532.674Z" transform="translate(-334.488 -84.77)" fill="#1f1967"/>
    <path id="Path_1083" data-name="Path 1083" d="M-1657.627-2445.043a7.2,7.2,0,0,1-6.764-4.548,7.206,7.206,0,0,1,1.391-8.042c.464-.53.967-.583,1.374-.2.376.354.343.859-.09,1.346l-.113.126a5.759,5.759,0,0,0,.171,7.858,5.6,5.6,0,0,0,6.245,1.291c.087-.036.17-.081.258-.114a.878.878,0,0,1,1.16.388.86.86,0,0,1-.453,1.178A7.05,7.05,0,0,1-1657.627-2445.043Z" transform="translate(-46.839 -150.917)" fill="#1f1967"/>
    <path id="Path_1084" data-name="Path 1084" d="M-1587.36-2466.289c-.214.927-.395,1.865-.655,2.781a.861.861,0,0,1-1.143.7c-.522-.179-.693-.658-.464-1.3a5.79,5.79,0,0,0-3.254-7.6c-.245-.094-.5-.152-.755-.231a.853.853,0,0,1-.672-1.066.842.842,0,0,1,1.108-.59,7.1,7.1,0,0,1,5.227,4.624A20.058,20.058,0,0,1-1587.36-2466.289Z" transform="translate(-109.551 -137.129)" fill="#1f1967"/>
  </g>
</svg>
