<svg xmlns="http://www.w3.org/2000/svg" width="60.737" height="92.641" viewBox="0 0 60.737 92.641">
  <g id="t-professional" transform="translate(-19.923 -4.126)">
    <path id="Path_1376" data-name="Path 1376" d="M20.933,96.37H79.65a1.01,1.01,0,0,0,1.01-1.01V68.889A30.2,30.2,0,0,0,69.142,45.077a1.008,1.008,0,0,0-.255-.142c-.008,0-.014-.01-.022-.014s-.025,0-.037-.006a.994.994,0,0,0-.356-.055l-.015,0a.975.975,0,0,0-.214.034c-.022.006-.036.025-.058.032a1,1,0,0,0-.271.151,1.024,1.024,0,0,0-.1.073.99.99,0,0,0-.244.367L57.107,73.932l-2.9-15.382L55.5,52.73a1.026,1.026,0,0,0-.22-.85c-.021-.027-.058-.038-.082-.063a1.082,1.082,0,0,0-.348-.231,1.02,1.02,0,0,0-.366-.081c-.005,0-.009,0-.014,0s-.023.007-.035.007a1.029,1.029,0,0,0-.167.013,20.851,20.851,0,0,1-7.943,0,.973.973,0,0,0-.2-.021h-.043a.964.964,0,0,0-.409.093,2.954,2.954,0,0,0-.314.232c-.019.02-.047.029-.065.051a1.033,1.033,0,0,0-.093.19c-.012.026-.027.049-.037.077a1,1,0,0,0-.068.347c0,.006,0,.011,0,.018s0,.011,0,.017a.945.945,0,0,0,0,.2l1.284,5.82-2.9,15.382L33.015,45.52a1.113,1.113,0,0,0-.616-.591c-.021-.007-.035-.026-.058-.032a1.05,1.05,0,0,0-.208-.033.145.145,0,0,1-.022,0,1.014,1.014,0,0,0-.355.055c-.012,0-.025,0-.037.006s-.014.01-.022.014a1.025,1.025,0,0,0-.255.142A30.2,30.2,0,0,0,19.923,68.889V95.36a1.01,1.01,0,0,0,1.01,1.011Zm57.71-27.482V94.35h-26.9l4-10.863,13.23-35.928A28.177,28.177,0,0,1,78.643,68.889ZM53.209,53.719l-.839,3.806H48.216l-.839-3.806a20.644,20.644,0,0,0,5.832,0Zm-4.967,5.825h4.1l3.4,18.081L50.293,92.437,44.838,77.625l3.4-18.08Zm-26.3,9.344a28.18,28.18,0,0,1,9.671-21.33l13.23,35.928,4,10.863h-26.9V68.889Z" transform="translate(0 0.396)" fill="#393474"/>
    <path id="Path_1377" data-name="Path 1377" d="M50.221,49.938A22.906,22.906,0,1,0,27.315,27.033,22.931,22.931,0,0,0,50.221,49.938Zm0-2.019A20.9,20.9,0,0,1,29.605,30.227c19.173-.307,27.021-8.088,30.012-12.782a8.857,8.857,0,0,0,1.781,3.4c2,2.349,5.216,3.6,9.554,3.752A20.793,20.793,0,0,1,50.221,47.919Zm0-41.773a20.914,20.914,0,0,1,20.393,16.42c-3.526-.189-6.1-1.2-7.661-3.013a7.753,7.753,0,0,1-1.632-5.7,1.01,1.01,0,0,0-1.968-.439c-.173.6-4.484,14.443-29.96,14.788-.022-.391-.06-.777-.06-1.174A20.91,20.91,0,0,1,50.221,6.145Z" transform="translate(0.072)" fill="#393474"/>
  </g>
</svg>
