<svg xmlns="http://www.w3.org/2000/svg" width="51" height="51" viewBox="0 0 51 51">
  <g id="Group_327" data-name="Group 327" transform="translate(-1681 -7311.7)">
    <circle id="Ellipse_4" data-name="Ellipse 4" cx="25.5" cy="25.5" r="25.5" transform="translate(1681 7311.7)" fill="#ee0324"/>
    <path id="Icon_awesome-telegram-plane" data-name="Icon awesome-telegram-plane" d="M31.409,6.933,26.655,29.348c-.359,1.582-1.294,1.976-2.623,1.23l-7.242-5.337L13.3,28.6a1.819,1.819,0,0,1-1.455.71l.52-7.376L25.784,9.809c.584-.52-.127-.809-.907-.288L8.283,19.969,1.139,17.733c-1.554-.485-1.582-1.554.323-2.3L29.4,4.669c1.294-.485,2.426.288,2,2.264Z" transform="translate(1688.849 7320.464)" fill="#fff"/>
  </g>
</svg>
