<svg xmlns="http://www.w3.org/2000/svg" width="106.237" height="98.394" viewBox="0 0 106.237 98.394">
  <g id="veriuni" transform="translate(-1477.438 -1245.303)">
    <g id="Group_212" data-name="Group 212" transform="translate(1464.438 1267.116)">
      <path id="Path_1373" data-name="Path 1373" d="M95.877,941.743l10.36-2.645-52.609-13.39-.418-.1L0,939.1l18.932,4.8v26.055l35.28,12.9,33.116-12.93V943.9l5.213-1.313v9.64l-3.753,4.6v12.71H99.839V956.62l-3.962-4.486V941.743ZM53.2,929.046,92.685,939.1,53.2,949.15,13.568,939.1Zm30.79,38.6L54.174,979.293l-31.905-11.67V944.747l30.524,7.741.411.1,30.788-7.838v22.9ZM96.5,957.9v8.312H92.123v-8.192l2.13-2.649L96.5,957.9Z" transform="translate(13 -906.279)" fill="#fff"/>
    </g>
    <g id="Group_213" data-name="Group 213" transform="translate(1487.854 1138.596)">
      <path id="Path_1374" data-name="Path 1374" d="M27.878,108.523a3.585,3.585,0,0,1,2.285-.816h46.2a3.579,3.579,0,0,1,2.285.817" transform="translate(-10.556)" fill="none" stroke="#fff" stroke-linecap="round" stroke-linejoin="round" stroke-miterlimit="10" stroke-width="2"/>
      <path id="Path_1375" data-name="Path 1375" d="M69.408,117.832V143.62a3.606,3.606,0,0,1-3.606,3.606h-46.2A3.606,3.606,0,0,1,16,143.62V117.832a3.6,3.6,0,0,1,1.322-2.79L41.3,134.277a2.244,2.244,0,0,0,2.809,0l23.978-19.234A3.592,3.592,0,0,1,69.408,117.832Z" transform="translate(0 -6.519)" fill="none" stroke="#fff" stroke-linecap="round" stroke-linejoin="round" stroke-miterlimit="10" stroke-width="2"/>
      <line id="Line_10" data-name="Line 10" x1="18.681" y2="16.382" transform="translate(17.322 123.509)" fill="none" stroke="#fff" stroke-linecap="round" stroke-linejoin="round" stroke-miterlimit="10" stroke-width="2"/>
      <line id="Line_11" data-name="Line 11" x2="18.681" y2="16.382" transform="translate(49.42 123.509)" fill="none" stroke="#fff" stroke-linecap="round" stroke-linejoin="round" stroke-miterlimit="10" stroke-width="2"/>
    </g>
  </g>
</svg>
