<svg xmlns="http://www.w3.org/2000/svg" width="120.506" height="88.371" viewBox="0 0 120.506 88.371">
  <g id="Group_97" data-name="Group 97" transform="translate(0 -4)">
    <path id="Path_922" data-name="Path 922" d="M112.472,4H8.034A8.042,8.042,0,0,0,0,12.034v72.3a8.042,8.042,0,0,0,8.034,8.034H112.472a8.042,8.042,0,0,0,8.034-8.034v-72.3A8.042,8.042,0,0,0,112.472,4Zm4.017,80.337a4.023,4.023,0,0,1-4.017,4.017H8.034a4.023,4.023,0,0,1-4.017-4.017v-72.3A4.023,4.023,0,0,1,8.034,8.017H112.472a4.023,4.023,0,0,1,4.017,4.017Z" transform="translate(0)" fill="#fff"/>
    <path id="Path_923" data-name="Path 923" d="M15.739,20.236a.8.8,0,0,0,.916.213.683.683,0,0,0,.426-.779l-1.261-5.5q0-.018-.008-.036c-.454-1.567-1.888-1.8-2.928-1.844h-.024l-7.1-.008a.737.737,0,0,0-.743.574.691.691,0,0,0,.486.775,22.132,22.132,0,0,1,10.243,6.6Zm63.7-7.885H74.819c-1.848,0-2.908.566-3.547,1.9L61.7,34.259a.651.651,0,0,0,.056.663.768.768,0,0,0,.635.317h5.423a.759.759,0,0,0,.707-.45c.663-1.623,1.093-2.655,1.233-2.989h3.912l4.752.008c.157.607.538,2.217.695,2.88a.744.744,0,0,0,.739.55H84.58a.778.778,0,0,0,.586-.261.659.659,0,0,0,.153-.586L80.178,12.9a.743.743,0,0,0-.739-.546ZM71.7,27.113l3.6-8.588.458,1.976,1.567,6.612H71.7Z" transform="translate(15.098 25.001)" fill="#fff"/>
    <path id="Path_924" data-name="Path 924" d="M28.921,12.631a.775.775,0,0,0-.631-.313h-5.5a.755.755,0,0,0-.7.442L15.645,27.935l-.691-2.31a.57.57,0,0,0-.036-.092A24.266,24.266,0,0,0,7.362,17.25a.81.81,0,0,0-.888-.024.669.669,0,0,0-.3.771l5.286,16.686a.751.751,0,0,0,.723.5l6.1-.008a.763.763,0,0,0,.695-.418l10-21.466a.651.651,0,0,0-.064-.659Zm9.126-.333H32.813a.739.739,0,0,0-.747.578l-3.973,21.51a.663.663,0,0,0,.169.566.771.771,0,0,0,.578.249h5.23a.744.744,0,0,0,.747-.582l3.977-21.506a.659.659,0,0,0-.169-.566A.783.783,0,0,0,38.047,12.3ZM52.54,16.937h.2a12.8,12.8,0,0,1,4.406.751.811.811,0,0,0,.643-.044.7.7,0,0,0,.374-.49l.611-3.318a.692.692,0,0,0-.514-.779,18.614,18.614,0,0,0-5.222-.731c-6.455,0-10.986,3-11.022,7.287-.04,3.173,3.242,4.945,5.712,6,2.539,1.081,3.39,1.771,3.378,2.739-.016,1.482-2.033,2.153-3.9,2.153A14.766,14.766,0,0,1,41.1,29.361a.811.811,0,0,0-.655.032.7.7,0,0,0-.382.494l-.647,3.495a.7.7,0,0,0,.494.775,23.978,23.978,0,0,0,6.668.964h0c6.849,0,11.307-2.968,11.356-7.552.024-2.519-1.715-4.419-5.463-5.985-2.29-1.028-3.7-1.711-3.683-2.756,0-.94,1.285-1.888,3.752-1.888Z" transform="translate(18.543 25.031)" fill="#fff"/>
  </g>
</svg>
