<svg xmlns="http://www.w3.org/2000/svg" width="105.882" height="92.646" viewBox="0 0 105.882 92.646">
  <path id="world" d="M52.821,1.063a1.655,1.655,0,0,0-.708.22L.822,31.067A1.655,1.655,0,0,0,.861,33.95l12.382,6.785V55.65H9.934a1.659,1.659,0,0,0-1.661,1.661V78.617l-3.15,6.941a1.669,1.669,0,0,0-.162.679v5.813a1.656,1.656,0,0,0,3.312,0V87.9h4.966v4.146a1.654,1.654,0,1,0,3.309,0V87.9h4.963v4.146a1.654,1.654,0,1,0,3.309,0V86.236a1.479,1.479,0,0,0-.145-.666l-3.163-7.092V57.311a1.654,1.654,0,0,0-1.648-1.661H16.551v-13.1l8.243,4.52v15.2a8.245,8.245,0,0,0,2.543,5.667,19.188,19.188,0,0,0,6.191,4.042,49.65,49.65,0,0,0,19.4,3.532c7.532,0,14.347-1.314,19.419-3.532a19.188,19.188,0,0,0,6.191-4.042,8.241,8.241,0,0,0,2.54-5.667V47.075L105.029,33.95a1.655,1.655,0,0,0,.023-2.882L53.774,1.283a1.656,1.656,0,0,0-.953-.22Zm.123,3.564,47.908,27.82L52.943,58.726,19.676,40.483l28.741-6.837a4.972,4.972,0,1,0-.216-3.354L15.366,38.118,5.023,32.447Zm0,25.378a1.654,1.654,0,0,1,0,3.309,1.654,1.654,0,1,1,0-3.309ZM28.106,48.881l24.046,13.18a1.65,1.65,0,0,0,1.586,0L77.771,48.887v13.38a4.859,4.859,0,0,1-1.612,3.373,16.28,16.28,0,0,1-5.141,3.309C66.514,70.919,60.074,72.2,52.93,72.2S39.35,70.919,34.846,68.95a16.2,16.2,0,0,1-5.128-3.309,4.858,4.858,0,0,1-1.612-3.373ZM11.582,58.959H18.2v18.2H11.582Zm-.514,21.507h7.719l1.832,4.126H9.188Z" transform="translate(0 -1.058)" fill="#28236d"/>
</svg>
