<svg xmlns="http://www.w3.org/2000/svg" width="497.712" height="308.753" viewBox="0 0 497.712 308.753">
  <g id="Group_551" data-name="Group 551" transform="translate(-37.42 -0.5)">
    <g id="Group_497" data-name="Group 497" transform="translate(279.751 0.5)">
      <path id="Path_7414" data-name="Path 7414" d="M270.415.5H375.4c1.446.78,2.892,1.584,4.407,2.215-17.871,57.1-36.58,113.94-54.462,171.031-8.712-2.892-17.469-5.636-26.192-8.482-.08-28.534-.011-57.068-.034-85.6.1-5.085-4.086-10.089-9.32-10.2-13.75-.138-27.5.126-41.251-.115C255.735,46.365,263.425,23.536,270.415.5Z" transform="translate(-248.55 -0.5)" fill="#a4cecd"/>
    </g>
    <g id="Group_498" data-name="Group 498" transform="translate(356.549 2.715)">
      <path id="Path_7415" data-name="Path 7415" d="M369.922,2.43c4.178.872,8.126,2.514,12.212,3.661Q372.6,36.6,362.645,66.981c-2.055-.631-4.1-1.263-6.152-1.871-.287,1.527-.539,3.065-.769,4.6,1.848.654,3.7,1.32,5.567,1.974-4.408,13.257-8.459,26.64-12.878,39.9-.448.126-1.331.39-1.779.528-1.572-.459-3.122-.93-4.683-1.4-.39,1.423-.792,2.835-1.194,4.258a46.66,46.66,0,0,0,6,2.135c-6.37,20.075-13.188,40.012-19.122,60.213-4.086-1.228-8.08-2.72-12.178-3.857C333.342,116.37,352.051,59.532,369.922,2.43Z" transform="translate(-315.46 -2.43)" fill="#7ea09e"/>
    </g>
    <g id="Group_499" data-name="Group 499" transform="translate(368.727 6.377)">
      <path id="Path_7416" data-name="Path 7416" d="M380.567,5.62c37.257,12.2,74.7,23.862,111.909,36.19q-27.323,85.429-54.669,170.87c-37.291-11.776-74.491-23.9-111.736-35.834,5.934-20.2,12.752-40.138,19.122-60.213,2.846.689,6.141,1.331,7.162,4.522-5.429,17.228-11.237,34.353-16.413,51.662,31.713,10.64,63.644,20.683,95.518,30.852,17.033-52.706,33.733-105.515,50.674-158.245-29.245-9.607-58.652-18.766-87.9-28.419a65.328,65.328,0,0,0-7.747-2.192c-6.049,17.974-11.638,36.109-17.5,54.152-2.594-.953-5.268-1.664-7.908-2.456Q371.08,36.157,380.567,5.62Z" transform="translate(-326.07 -5.62)" fill="#a3cecd"/>
    </g>
    <g id="Group_501" data-name="Group 501" transform="translate(378.598 15.57)">
      <g id="Group_500" data-name="Group 500">
        <path id="Path_7417" data-name="Path 7417" d="M385.218,13.63a65.324,65.324,0,0,1,7.747,2.192c29.245,9.653,58.652,18.812,87.9,28.419C463.922,96.97,447.221,149.78,430.188,202.486c-31.874-10.169-63.805-20.212-95.518-30.852,5.176-17.309,10.984-34.433,16.413-51.662.275-.448.826-1.331,1.1-1.779,1.905.494,3.811,1.022,5.682,1.687-.482,1.791-.941,3.581-1.4,5.383,4.293,1.423,8.562,2.9,12.924,4.086.516-1.274,1.01-2.571,1.492-3.857,23.1,7.357,46.095,15.128,69.314,22.118.161-.861.482-2.594.654-3.455q-34.433-11.174-68.89-22.232c.482-1.733,1-3.443,1.572-5.142q32.557,10.3,65,20.913a14.7,14.7,0,0,0,4.522.8c.115-.8.344-2.4.459-3.2-22.944-7.277-45.785-14.944-68.809-21.98.712-1.8.8-4.132,2.594-5.28,22.462,7.828,45.268,14.7,67.88,22.106a20.287,20.287,0,0,0,1.572-3.489c-23.024-7.311-45.957-14.887-69-22.118a33.926,33.926,0,0,1,1.331-5.418c21.808,7.22,43.753,14,65.55,21.245a21.2,21.2,0,0,0,3.994.78c.149-.815.425-2.456.574-3.271-22.921-7.587-45.969-14.795-68.936-22.267.585-1.687,1.159-3.386,1.71-5.1,22.944,7.334,45.9,14.623,68.764,22.187l1.653-3.168a135.838,135.838,0,0,0-13.969-4.867q-27.667-8.832-55.323-17.791a14.764,14.764,0,0,1,2.238-5.108c22.749,7.552,45.578,14.829,68.431,22.072q.723-1.618,1.481-3.237c-23.116-7.782-46.393-15.036-69.59-22.565.7-1.63,1.285-3.317,1.951-4.958,23.162,7.07,46.06,15.1,69.3,21.865.2-.826.574-2.479.769-3.306-22.692-7.484-45.509-14.554-68.167-22.106-3.558-3.512-9.022-3.742-13.521-5.475-.666,1.836-1.331,3.684-1.963,5.544a43.088,43.088,0,0,1-6.313-1.813C373.58,49.739,379.169,31.6,385.218,13.63Zm18.445,23.954c-.6,2.02-1.228,4.029-1.917,6.026,1.871,1.963,4.981,2,7.415,3.042,13.6,4.052,26.9,9.148,40.62,12.752a67.366,67.366,0,0,0,1.71-6.864c-13.6-4.476-27.26-8.758-40.872-13.188A31.9,31.9,0,0,0,403.663,37.584ZM381.982,48.052c-.413,1.079-.826,2.158-1.251,3.225Q421.465,64.741,462.441,77.6c.253-.849.769-2.525,1.033-3.363Q422.808,60.89,381.982,48.052Zm-2.858,8.7c-.333,1.136-.666,2.284-1,3.432,26.789,8.826,53.728,17.194,80.517,26.032.505-.8,1.515-2.387,2.02-3.179Q420.03,69.556,379.124,56.752Zm-22.451,70.382c-.275.7-.815,2.1-1.079,2.8,5.808,2.594,12.1,4.017,18.1,6.164q31.661,10.141,63.3,20.419c.31-1.3,2.227-3.9-.367-4.075-21.027-6.921-42.158-13.486-63.185-20.373C367.829,130.508,362.423,128.041,356.673,127.134Zm-3.065,8.505c-.138.838-.413,2.514-.539,3.352,9,3.283,18.227,5.923,27.329,8.93,18.032,5.636,35.891,11.96,54.072,17.079.275-1.125.551-2.238.838-3.34-25.136-8.241-50.376-16.138-75.513-24.367A42.752,42.752,0,0,0,353.608,135.639Zm-2.789,8.884c-.184.8-.539,2.433-.723,3.248q40.614,13.188,81.309,26.158c.3-.872.907-2.594,1.217-3.466q-35.277-11.449-70.611-22.726C358.268,146.692,354.722,144.913,350.819,144.523Zm-2.583,8.459c-.253.815-.746,2.445-1,3.26,1.917,1.24,4.27,1.572,6.393,2.376,25.09,8.034,50.112,16.276,75.26,24.126q.31-1.791.654-3.581C402.492,170.268,375.347,161.671,348.237,152.982Zm-3.1,12.557c23.862,7.656,47.713,15.392,71.6,22.99,3.088.93,6.049,2.341,9.286,2.755.161-.884.494-2.64.654-3.512-27.019-8.494-53.9-17.469-80.953-25.825A2.541,2.541,0,0,0,345.138,165.539Z" transform="translate(-334.67 -13.63)" fill="#eeeded"/>
      </g>
    </g>
    <g id="Group_502" data-name="Group 502" transform="translate(445.674 39.525)">
      <path id="Path_7418" data-name="Path 7418" d="M395.027,34.5a31.9,31.9,0,0,1,6.956,1.768c13.613,4.43,27.271,8.712,40.872,13.188a67.366,67.366,0,0,1-1.71,6.864c-13.716-3.6-27.019-8.7-40.62-12.752-2.433-1.044-5.544-1.079-7.415-3.042C393.8,38.529,394.43,36.52,395.027,34.5Z" transform="translate(-393.11 -34.5)" fill="#7bbbcc"/>
    </g>
    <g id="Group_503" data-name="Group 503" transform="translate(424.658 49.992)">
      <path id="Path_7419" data-name="Path 7419" d="M376.051,43.62Q416.872,56.429,457.544,69.8c-.264.838-.781,2.514-1.033,3.363Q415.569,60.286,374.8,46.845C375.225,45.778,375.638,44.7,376.051,43.62Z" transform="translate(-374.8 -43.62)" fill="#82bbc8"/>
    </g>
    <g id="Group_505" data-name="Group 505" transform="translate(175.452 53.416)">
      <g id="Group_504" data-name="Group 504">
        <path id="Path_7420" data-name="Path 7420" d="M219.1,62.611c.046-8.207,6.864-15.793,15.2-15.954,8.792-.78,16.964,7.082,16.792,15.862,3.627.172,7.254.011,10.892.011,13.75.241,27.5-.023,41.251.115,5.234.115,9.423,5.119,9.32,10.2.023,28.534-.046,57.068.034,85.6.092,18.5-.023,37,.057,55.507-3.007,1.905-5.6,5.326-4.522,9.079,1.171,2.869,2.927,5.452,4.224,8.264a45.135,45.135,0,0,1,.115,7.265c-5.131-9.056-9.148-18.847-15.277-27.283-.161-43.478.011-86.967-.092-130.445q-61.963-.155-123.914-.034c.057,9.389-.149,18.778.092,28.167a29.014,29.014,0,0,0-15.587-.9c.207-12.075-.1-24.161.149-36.247a9.873,9.873,0,0,1,9.894-9.205C184.848,62.577,201.973,62.611,219.1,62.611Zm10.514,2.146c1.125,5.245,10.158,5,10.892-.092,1.963-1.033.712-6.542-1.756-6.416l-.161-.861C233.927,54.095,226.845,59.5,229.611,64.757Z" transform="translate(-157.68 -46.603)" fill="#29303a"/>
      </g>
      <path id="Path_7421" data-name="Path 7421" d="M157.71,152.563a141.314,141.314,0,0,0,15.472-17.343q-.069,61.412-.023,122.8c29.222.023,58.433-.023,87.656.023,1.8-.092,3.742.321,5.452-.482,10.364-9.561,21.154-18.7,31.208-28.58,5.108,9.3,10.066,18.674,15.151,27.983-.207,4.2.046,8.413-.39,12.6-.471.011-1.412.046-1.882.069-7.231-6.979-9.136-17.928-17.159-24.241-3.788-3.122-11.707.758-9.331,5.957,4.258,8.471,9,16.723,13.877,24.861-41.022-.207-82.055-.034-123.077-.092-3.42-.092-6.921.356-10.261-.551a10.157,10.157,0,0,1-6.634-9.194C157.676,228.443,157.779,190.5,157.71,152.563Z" transform="translate(-157.676 -33.507)" fill="#29303a"/>
    </g>
    <g id="Group_506" data-name="Group 506" transform="translate(422.053 58.692)">
      <path id="Path_7422" data-name="Path 7422" d="M373.529,51.2q40.855,12.878,81.538,26.284c-.505.792-1.515,2.376-2.02,3.179-26.789-8.838-53.728-17.205-80.517-26.032C372.863,53.484,373.2,52.336,373.529,51.2Z" transform="translate(-372.53 -51.2)" fill="#81bac9"/>
      <path id="Path_7423" data-name="Path 7423" d="M373.36,88.562c.379-1.171.781-2.341,1.182-3.512,22.967,7.472,46.015,14.68,68.936,22.267-.149.815-.425,2.456-.574,3.271a21.2,21.2,0,0,1-3.994-.78C417.113,102.565,395.168,95.782,373.36,88.562Z" transform="translate(-372.407 -46.198)" fill="#81bac9"/>
    </g>
    <g id="Group_507" data-name="Group 507" transform="translate(246.761 63.195)">
      <path id="Path_7424" data-name="Path 7424" d="M220.43,63.5c-2.766-5.257,4.316-10.663,8.976-7.369l.161.861a51.462,51.462,0,0,0,1.756,6.416C230.588,68.5,221.555,68.744,220.43,63.5Z" transform="translate(-219.808 -55.123)" fill="#f9bb3c"/>
    </g>
    <g id="Group_508" data-name="Group 508" transform="translate(256.52 65.061)">
      <path id="Path_7425" data-name="Path 7425" d="M228.31,56.75c2.468-.126,3.719,5.383,1.756,6.416A51.462,51.462,0,0,1,228.31,56.75Z" transform="translate(-228.31 -56.748)" fill="#d1a562"/>
    </g>
    <g id="Group_509" data-name="Group 509" transform="translate(396.813 65.396)">
      <path id="Path_7426" data-name="Path 7426" d="M351.309,57.04c2.055.608,4.1,1.24,6.152,1.871,2.64.792,5.314,1.5,7.908,2.456a43.088,43.088,0,0,0,6.313,1.813,66.79,66.79,0,0,0,8.471,2.984,17.874,17.874,0,0,1-.218,3.581c-3.34.987-6.554-.861-9.722-1.664-2.135-.666-4.281-1.251-6.428-1.871-2.594-.769-5.131-1.71-7.679-2.594-1.871-.654-3.719-1.32-5.567-1.974C350.77,60.1,351.022,58.567,351.309,57.04Z" transform="translate(-350.54 -57.04)" fill="#cdc9ca"/>
    </g>
    <g id="Group_510" data-name="Group 510" transform="translate(400.394 65.992)">
      <path id="Path_7427" data-name="Path 7427" d="M373.184,57.56c4.5,1.733,9.963,1.963,13.521,5.475-.677,1.171-1.331,2.33-1.905,3.547-.666,1.641-1.251,3.329-1.951,4.958-.287.6-.861,1.791-1.148,2.376.287.436.562.884.826,1.354a14.764,14.764,0,0,0-2.238,5.108c-.367,1.217-.735,2.433-1.125,3.638-.551,1.71-1.125,3.409-1.71,5.1-.4,1.171-.8,2.341-1.182,3.512a33.926,33.926,0,0,0-1.331,5.418c-.149,1.171-.218,2.353-.448,3.5-1.791,1.148-1.882,3.478-2.594,5.28-.379,1.159-.769,2.307-1.171,3.466-.574,1.7-1.09,3.409-1.572,5.142-.344,1.194-.7,2.387-1.079,3.57-.482,1.286-.976,2.583-1.492,3.857-4.362-1.182-8.631-2.663-12.924-4.086.459-1.8.918-3.593,1.4-5.383a72.274,72.274,0,0,0,8.62,2.583c.666-1.217,1.343-2.41,2.054-3.6a43.458,43.458,0,0,0-9.159-3.535C361.2,95.3,365.218,81.56,369.752,68c3.168.8,6.382,2.651,9.722,1.664a17.874,17.874,0,0,0,.218-3.581,66.788,66.788,0,0,1-8.471-2.984C371.852,61.244,372.518,59.4,373.184,57.56Z" transform="translate(-353.66 -57.56)" fill="#b2b2b2"/>
    </g>
    <g id="Group_511" data-name="Group 511" transform="translate(387.723 71.972)">
      <path id="Path_7428" data-name="Path 7428" d="M357.277,62.77c2.548.884,5.085,1.825,7.679,2.594-4.339,13.509-8.471,27.088-13.119,40.482-3.065-.918-6.175-1.676-9.217-2.651.448-.138,1.331-.4,1.779-.528C348.818,89.41,352.87,76.027,357.277,62.77Z" transform="translate(-342.62 -62.77)" fill="#a3cdcd"/>
    </g>
    <g id="Group_512" data-name="Group 512" transform="translate(431.533 71.467)">
      <path id="Path_7429" data-name="Path 7429" d="M382.7,62.33c22.657,7.552,45.475,14.623,68.167,22.106-.2.826-.574,2.479-.769,3.306-23.243-6.76-46.141-14.795-69.3-21.865C381.364,64.66,382.018,63.5,382.7,62.33Z" transform="translate(-380.79 -62.33)" fill="#7fbbc9"/>
    </g>
    <g id="Group_513" data-name="Group 513" transform="translate(396.939 74.566)">
      <path id="Path_7430" data-name="Path 7430" d="M363.769,65.03c2.146.62,4.293,1.205,6.428,1.871-4.534,13.555-8.551,27.294-13.176,40.827-2.158-.643-4.247-1.469-6.37-2.215C355.3,92.118,359.431,78.539,363.769,65.03Z" transform="translate(-350.65 -65.03)" fill="#ededee"/>
    </g>
    <g id="Group_514" data-name="Group 514" transform="translate(428.434 79.972)">
      <path id="Path_7431" data-name="Path 7431" d="M378.09,72.116c.287-.585.861-1.779,1.148-2.376,23.2,7.529,46.474,14.783,69.59,22.565q-.758,1.618-1.481,3.237C424.495,88.3,401.665,81.023,378.916,73.47,378.652,73,378.377,72.552,378.09,72.116Z" transform="translate(-378.09 -69.74)" fill="#82bac6"/>
    </g>
    <g id="Group_515" data-name="Group 515" transform="translate(425.898 88.81)">
      <path id="Path_7432" data-name="Path 7432" d="M375.88,81.078c.39-1.205.758-2.422,1.125-3.638q27.65,8.935,55.323,17.791A135.838,135.838,0,0,1,446.3,100.1l-1.653,3.168C421.78,95.7,398.824,88.413,375.88,81.078Z" transform="translate(-375.88 -77.44)" fill="#81bacb"/>
    </g>
    <g id="Group_516" data-name="Group 516" transform="translate(201.22 103.02)">
      <path id="Path_7433" data-name="Path 7433" d="M180.13,89.82c9.056.057,18.123-.057,27.191.184-.011,1.756-.023,3.524-.046,5.28-9.067,3.627-17.825,7.966-26.938,11.489C180.3,101.114,180.417,95.467,180.13,89.82Z" transform="translate(-180.13 -89.82)" fill="#f8ba40"/>
    </g>
    <g id="Group_517" data-name="Group 517" transform="translate(232.967 103.043)">
      <path id="Path_7434" data-name="Path 7434" d="M207.79,89.84c23.793.1,47.6.069,71.392.138.011,1.182.046,3.547.057,4.717-16.585.3-33.194-.034-49.791.161-1.469-.884-2.778-2.594-4.671-2.319-5.624.184-11.248-.115-16.872.069C207.87,91.917,207.824,90.529,207.79,89.84Z" transform="translate(-207.79 -89.84)" fill="#faba3a"/>
    </g>
    <g id="Group_518" data-name="Group 518" transform="translate(187.432 105.71)">
      <path id="Path_7435" data-name="Path 7435" d="M209.05,94.937c1.607-.815,3.179-1.722,4.717-2.674,5.624-.184,11.248.115,16.872-.069,1.894-.275,3.2,1.435,4.671,2.319-.413.023-1.217.08-1.618.1a14.853,14.853,0,0,0-6.255,1.71C208.063,105.3,188.126,113,168.855,122.2c.161-3.432-.872-6.795-.723-10.238a47.322,47.322,0,0,0,8.964-2.927c1.676-.849,3.329-1.779,5.016-2.605C191.225,102.9,199.983,98.564,209.05,94.937Z" transform="translate(-168.117 -92.164)" fill="#dddddc"/>
    </g>
    <g id="Group_519" data-name="Group 519" transform="translate(180.996 108.162)">
      <path id="Path_7436" data-name="Path 7436" d="M228.266,96.01a14.853,14.853,0,0,1,6.255-1.71c-1.779,2.02-3.638,3.971-5.44,5.968-1.366,1.561-2.548,3.26-3.765,4.935-4.075,3.168-8.872,5.131-13.257,7.793-.528.918-.9,1.917-1.343,2.881-.092,0-.287.023-.379.023-.413-.654-1.228-1.963-1.641-2.617-1.848.941-3.661,1.928-5.486,2.9-7.013,2.514-13.808,5.578-20.545,8.735-2.571.941-2.95,3.891-4.086,6.037.149-.884.459-2.64.608-3.524-6.118-1.308-10.3,6.531-16.677,5.44.964-.93,1.951-1.825,2.9-2.755,1.412,4.453,4.568-1.033,1.366-2.651,1.01-1.836,1.986-3.7,2.9-5.59C188.955,112.687,208.892,104.986,228.266,96.01Z" transform="translate(-162.51 -94.3)" fill="#edeeed"/>
    </g>
    <g id="Group_520" data-name="Group 520" transform="translate(421.226 106.475)">
      <path id="Path_7437" data-name="Path 7437" d="M371.81,96.331c.23-1.148.3-2.33.448-3.5,23.047,7.231,45.98,14.806,69,22.118a20.287,20.287,0,0,1-1.572,3.489C417.078,111.034,394.272,104.159,371.81,96.331Z" transform="translate(-371.81 -92.83)" fill="#82bcc9"/>
    </g>
    <g id="Group_521" data-name="Group 521" transform="translate(381.846 110.997)">
      <path id="Path_7438" data-name="Path 7438" d="M338.694,96.77c1.561.471,3.11.941,4.683,1.4,3.042.976,6.152,1.733,9.217,2.651,2.123.746,4.212,1.572,6.37,2.215a43.459,43.459,0,0,1,9.159,3.535c-.712,1.194-1.389,2.387-2.055,3.6a72.28,72.28,0,0,1-8.62-2.583c-1.871-.666-3.776-1.194-5.682-1.687-.275.448-.826,1.331-1.1,1.779-1.022-3.191-4.316-3.834-7.162-4.522a46.661,46.661,0,0,1-6-2.135C337.9,99.605,338.3,98.193,338.694,96.77Z" transform="translate(-337.5 -96.77)" fill="#cfc9c8"/>
    </g>
    <g id="Group_523" data-name="Group 523" transform="translate(98.174 114.24)">
      <path id="Path_7439" data-name="Path 7439" d="M167.63,100.243a29.014,29.014,0,0,1,15.587.9,21.522,21.522,0,0,1,5.372,6.795,47.323,47.323,0,0,1-8.964,2.927c-.149,3.443.884,6.806.723,10.238-.918,1.894-1.894,3.753-2.9,5.59-.344.666-1.022,1.986-1.366,2.651-.953.93-1.94,1.825-2.9,2.755,6.382,1.09,10.56-6.749,16.677-5.44-.149.884-.459,2.64-.608,3.524a68.016,68.016,0,0,1-6.106,10.307,141.315,141.315,0,0,1-15.472,17.343,138.846,138.846,0,0,1-18.824,15.139c-.4,4.947.218,10.043-1.217,14.875-2.456,10.353-7.633,19.868-13.739,28.511a25.177,25.177,0,0,1-3.971-1.32C117.024,208.8,104,202.9,91.073,196.749c-1.813-11.019.356-22.152.436-33.228a6.439,6.439,0,0,1,4.913-2.605,43.193,43.193,0,0,0,2.56,3.7c6.29-1.871,12.189-4.981,18.238-7.506,4.1-3.88,7.495-8.482,11.788-12.178,5-5.647,11.214-10.227,15.461-16.517,2.319-2.479,6.083-4.614,4.855-8.631-5.716-1.722-10.468,2.468-15.346,4.649-2.812,1.584-6.336,1.354-9,3.214-3.707,2.445-8.138,3.478-11.857,5.911-1.527,1.286-3.5.758-5.268.517,8.608-7.07,16.976-14.451,25.94-21.073,5.509-4.362,11.432-8.849,18.56-10.009C157.46,102.137,162.534,101.127,167.63,100.243Z" transform="translate(-90.352 -99.595)" fill="#f8c89a"/>
      <g id="Group_522" data-name="Group 522" transform="translate(203.028 100.159)">
        <path id="Path_7440" data-name="Path 7440" d="M330.092,195.664a7.208,7.208,0,0,1,7.507-8.769c3.2-.3,5.544,2.468,7,4.97q12.31,22.743,24.54,45.532c2.445,4.43,4.97,9.263,4.6,14.485-.115,3.937-3.156,6.829-4.626,10.284-1.136,5.3,3.684,9.286,5.177,14.037-3.076,1.986-6.313,3.7-9.481,5.509H307.252c-4.212-1.022-8.608-1.217-12.671-2.766-5.486-1.653-9.905-5.681-13.027-10.364-4.878-8.138-9.618-16.39-13.877-24.861-2.376-5.2,5.544-9.079,9.331-5.957,8.023,6.313,9.928,17.263,17.159,24.241.471-.023,1.412-.057,1.882-.069a3.922,3.922,0,0,0,4.04-3.156,21.936,21.936,0,0,0-3.65-9.446c-5.085-9.308-10.043-18.686-15.151-27.983-4.189-6.749-6.933-14.324-11.661-20.729-.23-1.6-.413-3.2-.574-4.8a11.952,11.952,0,0,1,6.416-6.542c1.836.4,3.684.815,5.521,1.274,6.129,8.436,10.146,18.227,15.277,27.283a45.139,45.139,0,0,0-.115-7.265c-1.3-2.812-3.053-5.395-4.224-8.264-1.079-3.753,1.515-7.174,4.522-9.079,2.066-.3,4.362-.838,6.209.494,3.7,1.458,4.339,5.808,6.221,8.861,4.143,7.369,7.977,14.91,12.04,22.324.666.1,2.009.333,2.674.436a12.128,12.128,0,0,0-1.125-4.362c-3.73-6.956-7.851-13.727-11.065-20.936-2.64-4.947,2.41-11.466,7.8-10.56,2.847-.08,4.637,2.594,5.968,4.74,4.89,8.907,9.389,18.043,14.519,26.824.608,1.469,2.146,1.836,3.593,1.951-.884-5.154-4.419-9.251-6.5-13.946C334.73,204.524,331.344,200.519,330.092,195.664Zm-33.354,16.562c-.092,2.755-.62,5.888,1.079,8.3,2.181,3.42,3.26,7.667,6.393,10.387l1.377-.746.276-1.194A129.171,129.171,0,0,0,296.738,212.226Z" transform="translate(-267.24 -186.859)" fill="#f8c89a"/>
      </g>
    </g>
    <g id="Group_524" data-name="Group 524" transform="translate(243.802 114.13)">
      <path id="Path_7441" data-name="Path 7441" d="M220.995,99.5c18.961.723,38-.161,56.941.4-.069,1.527-.184,3.053-.253,4.58-20.144-.2-40.3-.046-60.454-.046C218.447,102.76,219.629,101.061,220.995,99.5Z" transform="translate(-217.23 -99.5)" fill="#fbbb3d"/>
    </g>
    <g id="Group_525" data-name="Group 525" transform="translate(417.462 115.255)">
      <path id="Path_7442" data-name="Path 7442" d="M369.7,100.48c23.024,7.036,45.865,14.7,68.809,21.98-.115.8-.344,2.4-.459,3.2a14.7,14.7,0,0,1-4.522-.8q-32.471-10.554-65-20.913C368.932,102.787,369.322,101.639,369.7,100.48Z" transform="translate(-368.53 -100.48)" fill="#81bac8"/>
    </g>
    <g id="Group_526" data-name="Group 526" transform="translate(394.024 123.863)">
      <path id="Path_7443" data-name="Path 7443" d="M366.22,111.55c.379-1.182.735-2.376,1.079-3.57q34.433,11.122,68.89,22.233c-.172.861-.494,2.594-.654,3.455C412.315,126.677,389.325,118.907,366.22,111.55Z" transform="translate(-345.434 -107.98)" fill="#7fbac9"/>
      <path id="Path_7444" data-name="Path 7444" d="M348.833,127.67c3.9.39,7.449,2.169,11.191,3.214q35.311,11.346,70.611,22.726c-.31.872-.918,2.594-1.217,3.466q-40.683-13-81.309-26.158C348.294,130.1,348.649,128.473,348.833,127.67Z" transform="translate(-348.11 -105.07)" fill="#7fbac9"/>
    </g>
    <g id="Group_527" data-name="Group 527" transform="translate(221.696 125.011)">
      <path id="Path_7445" data-name="Path 7445" d="M207.8,110.231c.758-.31,2.261-.918,3.019-1.217,22.795.138,45.59.172,68.385-.034.011,1.768.023,3.535.023,5.314-23.771-.046-47.553-.115-71.3-.034C207.892,113.25,207.834,111.241,207.8,110.231Z" transform="translate(-196.517 -108.98)" fill="#f7bd3f"/>
      <path id="Path_7446" data-name="Path 7446" d="M197.97,113.744c1.825-.976,3.638-1.963,5.486-2.9.413.654,1.228,1.963,1.641,2.617C202.722,113.675,200.346,113.732,197.97,113.744Z" transform="translate(-197.97 -108.705)" fill="#f7bd3f"/>
    </g>
    <g id="Group_528" data-name="Group 528" transform="translate(399.522 129.074)">
      <path id="Path_7447" data-name="Path 7447" d="M353.979,112.52c5.75.907,11.156,3.374,16.769,4.935,21.027,6.887,42.158,13.452,63.185,20.373,2.594.172.677,2.778.367,4.075q-31.644-10.261-63.3-20.419c-6-2.146-12.293-3.57-18.1-6.164C353.164,114.62,353.7,113.22,353.979,112.52Z" transform="translate(-352.9 -112.52)" fill="#7ebcc8"/>
    </g>
    <g id="Group_529" data-name="Group 529" transform="translate(106.402 134.018)">
      <path id="Path_7448" data-name="Path 7448" d="M132.918,121.881c4.878-2.181,9.63-6.37,15.346-4.649,1.228,4.017-2.537,6.152-4.855,8.631-7.242.528-13.142,5.165-19.8,7.529-7.69,3.7-16.149,5.67-23.426,10.215-.436-1.974-.918-4.017-2.663-5.257,2.4-3.11,6.232-4.488,9.274-6.829,1.768.241,3.742.769,5.268-.517,3.719-2.433,8.149-3.466,11.857-5.911C126.582,123.235,130.105,123.465,132.918,121.881Z" transform="translate(-97.52 -116.827)" fill="#d1d2d2"/>
    </g>
    <g id="Group_530" data-name="Group 530" transform="translate(396.997 137.579)">
      <path id="Path_7449" data-name="Path 7449" d="M351.239,119.93a42.753,42.753,0,0,1,6.186,1.653c25.136,8.23,50.376,16.126,75.513,24.367-.287,1.1-.562,2.215-.838,3.34-18.181-5.119-36.04-11.443-54.072-17.079-9.1-3.007-18.33-5.647-27.329-8.93C350.826,122.444,351.1,120.768,351.239,119.93Z" transform="translate(-350.7 -119.93)" fill="#81bcca"/>
    </g>
    <g id="Group_531" data-name="Group 531" transform="translate(183.9 141.333)">
      <path id="Path_7450" data-name="Path 7450" d="M165.04,125.851c.344-.666,1.022-1.986,1.366-2.651C169.608,124.818,166.452,130.3,165.04,125.851Z" transform="translate(-165.04 -123.2)" fill="#a58980"/>
    </g>
    <g id="Group_532" data-name="Group 532" transform="translate(100.562 143.054)">
      <path id="Path_7451" data-name="Path 7451" d="M124.361,132.229c6.657-2.364,12.557-7,19.8-7.529-4.247,6.29-10.456,10.869-15.461,16.517-.275-.3-.838-.9-1.113-1.194-9.641,4.166-19.363,8.207-28.924,12.58a16.3,16.3,0,0,0-3.4,2.605c-.735-1.607-1.641-3.133-2.456-4.706-1.308-3.294,1.1-6.049,2.56-8.769.2.562.574,1.7.769,2.261a10.954,10.954,0,0,0,4.8-1.549C108.212,137.9,116.671,135.925,124.361,132.229Z" transform="translate(-92.432 -124.7)" fill="#dddcdd"/>
    </g>
    <g id="Group_533" data-name="Group 533" transform="translate(201.139 152.303)">
      <path id="Path_7452" data-name="Path 7452" d="M180.117,133.2a233.943,233.943,0,0,1,27.214-.08c-.333,8.287-.172,16.585-.08,24.884-.23.356-.677,1.09-.9,1.458-8.769-.1-17.538.161-26.3-.138A247.923,247.923,0,0,0,180.117,133.2Z" transform="translate(-180.06 -132.758)" fill="#fbbb3f"/>
    </g>
    <g id="Group_534" data-name="Group 534" transform="translate(232.933 152.384)">
      <path id="Path_7453" data-name="Path 7453" d="M207.76,132.876c23.839-.023,47.7-.126,71.541.069-.046,1.125-.126,3.374-.172,4.5-23.656-.31-47.323-.115-70.979-.092A34.481,34.481,0,0,1,207.76,132.876Z" transform="translate(-207.76 -132.828)" fill="#fdb83e"/>
    </g>
    <g id="Group_535" data-name="Group 535" transform="translate(391.166 154.922)">
      <path id="Path_7454" data-name="Path 7454" d="M346.619,135.04c27.111,8.689,54.256,17.286,81.309,26.181q-.344,1.791-.654,3.581c-25.148-7.851-50.169-16.092-75.26-24.126-2.123-.8-4.476-1.136-6.393-2.376C345.873,137.485,346.366,135.855,346.619,135.04Z" transform="translate(-345.62 -135.04)" fill="#82bbca"/>
    </g>
    <g id="Group_536" data-name="Group 536" transform="translate(103.498 155.542)">
      <path id="Path_7455" data-name="Path 7455" d="M94.99,140.125a44.822,44.822,0,0,1,2.9-4.545c1.745,1.24,2.227,3.283,2.663,5.257a10.954,10.954,0,0,1-4.8,1.549C95.564,141.824,95.185,140.688,94.99,140.125Z" transform="translate(-94.99 -135.58)" fill="#ebc9aa"/>
    </g>
    <g id="Group_537" data-name="Group 537" transform="translate(103.394 158.377)">
      <path id="Path_7456" data-name="Path 7456" d="M98.3,150.63c9.561-4.373,19.283-8.413,28.924-12.58.275.3.838.9,1.113,1.194-4.293,3.7-7.69,8.3-11.788,12.178-6.049,2.525-11.948,5.636-18.238,7.506a43.192,43.192,0,0,1-2.56-3.7c-.207-.494-.643-1.492-.849-2A16.3,16.3,0,0,1,98.3,150.63Z" transform="translate(-94.9 -138.05)" fill="#eee"/>
    </g>
    <g id="Group_538" data-name="Group 538" transform="translate(232.983 163.06)">
      <path id="Path_7457" data-name="Path 7457" d="M208.454,147.364c-1.194-1.331-.379-3.558-.379-5.234,23.185.161,46.37-.011,69.556.115.436.1,1.285.3,1.71.39-.057,1.331-.08,2.674-.08,4.017-3.156,1.182-6.542.562-9.814.654C249.12,147.306,228.781,147.261,208.454,147.364Z" transform="translate(-207.803 -142.13)" fill="#faba42"/>
    </g>
    <g id="Group_539" data-name="Group 539" transform="translate(388.564 163.887)">
      <path id="Path_7458" data-name="Path 7458" d="M343.855,146.443a2.541,2.541,0,0,1,.585-3.593c27.053,8.356,53.934,17.331,80.953,25.825-.161.872-.494,2.628-.654,3.512-3.237-.413-6.2-1.825-9.286-2.755C391.568,161.834,367.717,154.1,343.855,146.443Z" transform="translate(-343.353 -142.85)" fill="#80bbc8"/>
    </g>
    <g id="Group_540" data-name="Group 540" transform="translate(91.23 168.856)">
      <path id="Path_7459" data-name="Path 7459" d="M85.746,151.059a69.507,69.507,0,0,1,8.264-3.88c.815,1.572,1.722,3.1,2.456,4.706.207.505.643,1.5.849,2a6.439,6.439,0,0,0-4.912,2.605c-1.928.689-4.189,2.169-6.141.746C84.093,156.087,83.45,152.425,85.746,151.059Z" transform="translate(-84.302 -147.18)" fill="#d0d2d3"/>
    </g>
    <g id="Group_541" data-name="Group 541" transform="translate(233.094 174.334)">
      <path id="Path_7460" data-name="Path 7460" d="M207.992,151.984q35.639-.052,71.3.023c-.034,1.136-.1,3.386-.138,4.511q-35.621.224-71.254.011Z" transform="translate(-207.9 -151.952)" fill="#ffb63e"/>
    </g>
    <g id="Group_542" data-name="Group 542" transform="translate(201.151 201.063)">
      <path id="Path_7461" data-name="Path 7461" d="M180.07,175.378q12.981.172,25.974-.138c.321.31.964.918,1.3,1.228-.608,8.551.436,17.309-.528,25.745-8.758.505-17.722-.1-26.548.3C180.437,193.467,180.552,184.411,180.07,175.378Z" transform="translate(-180.07 -175.24)" fill="#fabb3f"/>
    </g>
    <g id="Group_543" data-name="Group 543" transform="translate(232.956 201.143)">
      <path id="Path_7462" data-name="Path 7462" d="M207.8,175.723c3.283-.7,6.657-.218,9.986-.31,19.96-.069,39.931.1,59.891-.1.4.092,1.205.264,1.607.356a45.032,45.032,0,0,1-.23,4.821c-22.76-.3-45.521,0-68.281-.138-.746-.184-2.25-.539-3-.712C207.791,178.329,207.8,177.02,207.8,175.723Z" transform="translate(-207.78 -175.31)" fill="#fab940"/>
    </g>
    <g id="Group_544" data-name="Group 544" transform="translate(232.967 212.115)">
      <path id="Path_7463" data-name="Path 7463" d="M207.951,184.985c23.748-.092,47.5-.241,71.231.08.069,1.515.138,3.03.218,4.545-23.862.482-47.736.264-71.61.161C207.847,188.176,207.9,186.58,207.951,184.985Z" transform="translate(-207.79 -184.869)" fill="#fbbf46"/>
    </g>
    <g id="Group_545" data-name="Group 545" transform="translate(37.42 221.402)">
      <path id="Path_7464" data-name="Path 7464" d="M75.94,197.654a29.1,29.1,0,0,1,2.571-4.694c10.273,5.3,20.958,9.756,31.334,14.841-7.587,16.333-14.852,32.827-22.944,48.93-3.145,8.207-7.977,15.679-10.64,24.08H37.42C50.149,253.035,63.165,225.4,75.94,197.654Z" transform="translate(-37.42 -192.96)" fill="#13aaa5"/>
    </g>
    <g id="Group_546" data-name="Group 546" transform="translate(233.059 223.365)">
      <path id="Path_7465" data-name="Path 7465" d="M207.87,194.842c23.311-.333,46.646.057,69.957-.172.161,1.6.344,3.2.574,4.8-23.507.161-47,.092-70.5.046C207.9,198.343,207.881,196.013,207.87,194.842Z" transform="translate(-207.87 -194.67)" fill="#fcb841"/>
    </g>
    <g id="Group_547" data-name="Group 547" transform="translate(76.261 236.243)">
      <path id="Path_7466" data-name="Path 7466" d="M104.844,205.89c11.4,5.211,22.669,10.709,34.1,15.839-8.413,19.214-17.63,38.095-26.376,57.171H71.26c2.663-8.4,7.495-15.874,10.64-24.08C89.992,238.717,97.257,222.223,104.844,205.89Z" transform="translate(-71.26 -205.89)" fill="#019a97"/>
    </g>
    <g id="Group_548" data-name="Group 548" transform="translate(330.551 239.766)">
      <path id="Path_7467" data-name="Path 7467" d="M292.959,208.96a129.172,129.172,0,0,1,9.125,16.746l-.276,1.194-1.377.746c-3.133-2.72-4.212-6.967-6.393-10.387C292.339,214.848,292.867,211.715,292.959,208.96Z" transform="translate(-292.81 -208.96)" fill="#f6fefe"/>
    </g>
    <g id="Group_549" data-name="Group 549" transform="translate(283.173 248.891)">
      <path id="Path_7468" data-name="Path 7468" d="M251.805,217.679c10.583-.987,21.245.413,31.8-.769-10.055,9.882-20.844,19.019-31.208,28.58C250.818,236.342,251.9,226.93,251.805,217.679Z" transform="translate(-251.531 -216.91)" fill="#dcdcdc"/>
    </g>
    <g id="Group_550" data-name="Group 550" transform="translate(330.012 276.874)">
      <path id="Path_7469" data-name="Path 7469" d="M292.73,241.29a21.936,21.936,0,0,1,3.65,9.446,3.922,3.922,0,0,1-4.04,3.156C292.776,249.7,292.524,245.491,292.73,241.29Z" transform="translate(-292.34 -241.29)" fill="#edece3"/>
    </g>
  </g>
</svg>
