<svg xmlns="http://www.w3.org/2000/svg" width="124.243" height="119.959" viewBox="0 0 124.243 119.959">
    <g data-name="Group 360">
        <path data-name="Path 7251" d="M32.348 26.853a6.426 6.426 0 1 0-6.426-6.426 6.434 6.434 0 0 0 6.426 6.426zm0-8.568a2.142 2.142 0 1 1-2.142 2.142 2.142 2.142 0 0 1 2.142-2.143zm21.421 8.568a6.426 6.426 0 1 0-6.426-6.426 6.434 6.434 0 0 0 6.426 6.426zm0-8.568a2.142 2.142 0 1 1-2.142 2.142 2.142 2.142 0 0 1 2.142-2.143zM10.926 48.274A6.426 6.426 0 1 0 4.5 41.848a6.434 6.434 0 0 0 6.426 6.426zm0-8.568a2.142 2.142 0 1 1-2.142 2.142 2.142 2.142 0 0 1 2.142-2.143zm21.421 8.568a6.426 6.426 0 1 0-6.426-6.426 6.434 6.434 0 0 0 6.427 6.426zm0-8.568a2.142 2.142 0 1 1-2.142 2.142 2.142 2.142 0 0 1 2.143-2.143zM10.926 69.7A6.426 6.426 0 1 0 4.5 63.269a6.434 6.434 0 0 0 6.426 6.431zm0-8.568a2.142 2.142 0 1 1-2.142 2.142 2.142 2.142 0 0 1 2.142-2.147zm42.842-4.284a6.426 6.426 0 1 0 6.432 6.421 6.434 6.434 0 0 0-6.431-6.427zm0 8.568a2.142 2.142 0 1 1 2.142-2.142 2.142 2.142 0 0 1-2.141 2.137zm42.843-17.142a6.426 6.426 0 1 0-6.426-6.426 6.434 6.434 0 0 0 6.426 6.426zm0-8.568a2.142 2.142 0 1 1-2.142 2.142 2.142 2.142 0 0 1 2.142-2.143zm0-12.853a6.426 6.426 0 1 0-6.426-6.426 6.434 6.434 0 0 0 6.426 6.426zm0-8.568a2.142 2.142 0 1 1-2.142 2.142 2.142 2.142 0 0 1 2.142-2.143z" transform="translate(8.353 37.411)" style="fill:#28236d"/>
        <path data-name="Path 7252" d="M1.5 42.7v68.548a10.726 10.726 0 0 0 10.711 10.711h102.821a10.725 10.725 0 0 0 10.711-10.711V25.563a10.725 10.725 0 0 0-10.711-10.711h-10.71V8.426a6.426 6.426 0 1 0-12.853 0v6.426h-55.7V8.426a6.426 6.426 0 0 0-12.853 0v6.426H12.211A10.723 10.723 0 0 0 1.5 25.563zm119.959 68.548a6.434 6.434 0 0 1-6.426 6.426H12.211a6.434 6.434 0 0 1-6.426-6.426V44.842h115.674zM95.753 8.426a2.142 2.142 0 1 1 4.284 0v17.137a2.142 2.142 0 1 1-4.284 0zm-68.548 0a2.142 2.142 0 0 1 4.284 0v17.137a2.142 2.142 0 1 1-4.284 0zM5.784 25.563a6.434 6.434 0 0 1 6.426-6.426h10.711v6.426a6.426 6.426 0 1 0 12.853 0v-6.426h55.7v6.426a6.426 6.426 0 1 0 12.853 0v-6.426h10.711a6.434 6.434 0 0 1 6.426 6.426v14.995H5.784z" transform="translate(-1.5 -2)" style="fill:#28236d"/>
        <path data-name="Path 7253" d="M55.942 23.861a2.134 2.134 0 0 0 3.033 0l6.054-6.061A2.142 2.142 0 1 0 62 14.774l-4.546 4.546-1.512-1.52a2.142 2.142 0 1 0-3.029 3.029l3.029 3.029zm0 22.051a2.134 2.134 0 0 0 3.033 0l6.058-6.058A2.142 2.142 0 1 0 62 36.825l-4.55 4.542-1.513-1.517a2.142 2.142 0 1 0-3.029 3.029l3.033 3.033zm-21.421 0a2.134 2.134 0 0 0 3.033 0l6.058-6.058a2.142 2.142 0 1 0-3.029-3.029l-4.55 4.542-1.517-1.517a2.142 2.142 0 1 0-3.029 3.029l3.033 3.033zM13.1 67.333a2.134 2.134 0 0 0 3.033 0l6.058-6.058a2.142 2.142 0 1 0-3.029-3.029l-4.55 4.542-1.512-1.517a2.142 2.142 0 1 0-3.034 3.029z" transform="translate(24.572 37.892)" style="fill:#28236d"/>
    </g>
</svg>
